<?xml version="1.0" encoding="UTF-8" standalone="no"?>
<!DOCTYPE svg PUBLIC "-//W3C//DTD SVG 1.1//EN" "http://www.w3.org/Graphics/SVG/1.1/DTD/svg11.dtd">
<svg width="100%" height="100%" viewBox="0 0 1103 220" version="1.1" xmlns="http://www.w3.org/2000/svg" xmlns:xlink="http://www.w3.org/1999/xlink" xml:space="preserve" xmlns:serif="http://www.serif.com/" style="fill-rule:evenodd;clip-rule:evenodd;stroke-linejoin:round;stroke-miterlimit:2;">
    <g transform="matrix(8.33333,0,0,8.33333,0,48.385)">
        <path d="M0,-5.806L6.479,-5.806C6.497,-3.89 6.441,-1.972 6.508,-0.057C6.275,-0.009 6.036,-0.008 5.799,0C3.867,-0.008 1.933,-0.003 0,-0.004L0,-5.806Z" style="fill:rgb(20,134,200);fill-rule:nonzero;"/>
    </g>
    <g transform="matrix(8.33333,0,0,8.33333,110.663,170.833)">
        <path d="M0,-14.698L0,-9.412C1.333,-9.413 2.666,-9.409 3.999,-9.412C5.053,-9.411 6.128,-10.005 6.561,-10.987C6.998,-11.878 6.813,-13.015 6.138,-13.737C5.58,-14.383 4.715,-14.684 3.877,-14.693C2.585,-14.707 1.292,-14.693 0,-14.698M-0.032,-20.5L5.082,-20.5C7,-20.349 8.923,-19.769 10.46,-18.581C12.244,-17.239 13.411,-15.127 13.624,-12.906C13.808,-11.212 13.447,-9.438 12.492,-8.014C11.677,-6.769 10.484,-5.803 9.157,-5.15C11.168,-1.503 13.138,2.166 15.168,5.802L7.199,5.802C5.547,2.554 3.918,-0.705 2.288,-3.965C1.525,-3.965 0.763,-3.965 0.001,-3.966C-0.001,-0.711 0.001,2.546 0,5.802L-6.833,5.802C-6.846,-0.967 -6.809,-7.736 -6.853,-14.503C-6.786,-14.583 -6.718,-14.662 -6.651,-14.741C-4.445,-14.716 -2.238,-14.737 -0.032,-14.73L-0.032,-20.5Z" style="fill:rgb(79,87,97);fill-rule:nonzero;"/>
    </g>
    <g transform="matrix(8.33333,0,0,8.33333,324.739,144.458)">
        <path d="M0,-5.762L0,-3.7C0.576,-3.712 1.156,-3.671 1.732,-3.721C2.223,-3.779 2.616,-4.217 2.642,-4.707C2.638,-5.191 2.251,-5.632 1.779,-5.713C1.191,-5.808 0.592,-5.749 0,-5.762M-2.709,-8.051C-1.261,-8.053 0.188,-8.051 1.636,-8.053C2.597,-8.061 3.592,-7.772 4.309,-7.112C5.321,-6.199 5.659,-4.591 5.023,-3.372C4.715,-2.772 4.179,-2.327 3.589,-2.018C4.367,-0.578 5.162,0.855 5.946,2.292C4.894,2.297 3.842,2.292 2.79,2.296C2.148,1.017 1.51,-0.263 0.869,-1.543C0.578,-1.538 0.288,-1.542 -0.004,-1.536C0.004,-0.259 -0.001,1.017 0,2.293C-0.904,2.293 -1.806,2.299 -2.71,2.291C-2.706,-1.157 -2.708,-4.603 -2.709,-8.051" style="fill:rgb(79,87,97);fill-rule:nonzero;"/>
    </g>
    <g transform="matrix(8.33333,0,0,8.33333,413.248,108.194)">
        <path d="M0,2.937C0.607,2.941 1.216,2.938 1.824,2.941C1.532,2.056 1.239,1.172 0.939,0.29C0.624,1.172 0.306,2.053 0,2.937M-0.179,-3.7C0.526,-3.698 1.231,-3.713 1.938,-3.685C3.234,-0.233 4.58,3.199 5.888,6.645C4.941,6.646 3.994,6.648 3.047,6.644C2.876,6.132 2.714,5.617 2.553,5.103C1.441,5.1 0.331,5.089 -0.78,5.108C-0.948,5.626 -1.126,6.141 -1.318,6.65C-2.26,6.641 -3.204,6.649 -4.146,6.645C-2.826,3.196 -1.497,-0.249 -0.179,-3.7" style="fill:rgb(79,87,97);fill-rule:nonzero;"/>
    </g>
    <g transform="matrix(8.33333,0,0,8.33333,471.127,163.568)">
        <path d="M0,-10.345C0.884,-10.346 1.769,-10.344 2.653,-10.346C3.466,-8.843 4.271,-7.336 5.081,-5.83C5.892,-7.337 6.691,-8.849 7.517,-10.348C8.395,-10.342 9.274,-10.346 10.153,-10.345L10.153,0.002C9.249,0.002 8.347,0.003 7.444,0C7.439,-1.607 7.459,-3.215 7.434,-4.822C6.925,-4.035 6.453,-3.223 5.968,-2.421C5.379,-2.412 4.79,-2.416 4.202,-2.416C3.698,-3.219 3.245,-4.055 2.708,-4.837L2.708,0.002L0,0.002L0,-10.345Z" style="fill:rgb(79,87,97);fill-rule:nonzero;"/>
    </g>
    <g transform="matrix(8.33333,0,0,8.33333,606.846,129.758)">
        <path d="M0,-2.228C-0.32,-1.373 -0.619,-0.511 -0.923,0.351C-0.316,0.353 0.29,0.351 0.897,0.353C0.594,-0.505 0.361,-1.391 0,-2.228M-1.106,-6.282C-0.404,-6.292 0.3,-6.292 1.004,-6.282C2.313,-2.831 3.651,0.608 4.965,4.057C4.019,4.06 3.072,4.059 2.127,4.057C1.965,3.542 1.79,3.03 1.623,2.514C0.521,2.505 -0.58,2.518 -1.681,2.508C-1.872,3.018 -2.051,3.534 -2.223,4.052C-3.17,4.064 -4.118,4.06 -5.064,4.055C-3.754,0.606 -2.412,-2.831 -1.106,-6.282" style="fill:rgb(79,87,97);fill-rule:nonzero;"/>
    </g>
    <g transform="matrix(8.33333,0,0,8.33333,676.876,144.491)">
        <path d="M0,-5.766L0,0.001C0.56,-0.003 1.127,0.04 1.68,-0.074C2.211,-0.185 2.624,-0.671 2.665,-1.21C2.768,-2.331 2.767,-3.466 2.664,-4.588C2.622,-5.083 2.258,-5.528 1.79,-5.682C1.205,-5.832 0.596,-5.749 0,-5.766M-2.677,-8.055C-1.27,-8.056 0.135,-8.058 1.542,-8.055C2.649,-8.038 3.803,-7.66 4.543,-6.801C5.267,-6.035 5.447,-4.945 5.446,-3.929C5.43,-2.859 5.507,-1.781 5.357,-0.718C5.198,0.423 4.403,1.431 3.353,1.89C2.59,2.246 1.734,2.282 0.908,2.291C-0.288,2.291 -1.481,2.292 -2.677,2.289C-2.675,-1.158 -2.674,-4.607 -2.677,-8.055" style="fill:rgb(79,87,97);fill-rule:nonzero;"/>
    </g>
    <g transform="matrix(8.33333,0,0,8.33333,766.524,130.28)">
        <path d="M0,-2.355C-0.313,-1.474 -0.628,-0.593 -0.939,0.288C-0.329,0.289 0.281,0.291 0.891,0.288C0.594,-0.594 0.316,-1.481 0,-2.355M-5.076,3.993C-3.763,0.541 -2.437,-2.906 -1.109,-6.352C-0.413,-6.349 0.285,-6.351 0.981,-6.351C2.305,-2.903 3.635,0.543 4.948,3.995C4.006,3.997 3.062,3.996 2.12,3.996C1.947,3.479 1.775,2.963 1.603,2.446C0.502,2.45 -0.601,2.449 -1.702,2.448C-1.888,2.961 -2.068,3.476 -2.242,3.993C-3.187,3.997 -4.131,3.997 -5.076,3.993" style="fill:rgb(79,87,97);fill-rule:nonzero;"/>
    </g>
    <g transform="matrix(8.33333,0,0,8.33333,908.98,149.011)">
        <path d="M0,-6.917C1.095,-8.73 3.873,-9.12 5.452,-7.733C6.115,-7.171 6.475,-6.342 6.644,-5.507C6.258,-5.503 5.874,-5.504 5.49,-5.508C5.331,-6.111 5.042,-6.706 4.534,-7.088C3.584,-7.819 2.091,-7.678 1.291,-6.785C0.756,-6.253 0.69,-5.455 0.649,-4.743C0.63,-3.879 0.643,-3.016 0.642,-2.152C0.673,-1.395 0.713,-0.535 1.288,0.032C2.171,1.031 3.896,1.064 4.815,0.097C5.176,-0.272 5.372,-0.763 5.522,-1.249C5.892,-1.251 6.263,-1.249 6.635,-1.247C6.446,-0.072 5.723,1.064 4.59,1.515C2.999,2.203 0.921,1.677 -0.001,0.169C-0.625,-0.926 -0.459,-2.239 -0.487,-3.448C-0.464,-4.607 -0.6,-5.869 0,-6.917" style="fill:rgb(152,161,170);fill-rule:nonzero;"/>
    </g>
    <g transform="matrix(8.33333,0,0,8.33333,850.081,105.808)">
        <path d="M0,3.614C1.243,3.61 2.486,3.614 3.73,3.611C3.116,1.859 2.515,0.102 1.882,-1.644C1.247,0.106 0.629,1.862 0,3.614M1.398,-3.286C1.717,-3.286 2.038,-3.285 2.361,-3.277C3.586,0.12 4.839,3.506 6.073,6.899C5.672,6.9 5.271,6.9 4.871,6.9C4.603,6.137 4.335,5.374 4.068,4.611C2.594,4.613 1.12,4.611 -0.353,4.612C-0.621,5.375 -0.897,6.136 -1.164,6.9L-2.366,6.9C-1.111,3.504 0.141,0.108 1.398,-3.286" style="fill:rgb(152,161,170);fill-rule:nonzero;"/>
    </g>
    <g transform="matrix(8.33333,0,0,8.33333,1000.81,154.852)">
        <path d="M0,-8.18C-0.829,-7.98 -1.563,-7.314 -1.724,-6.46C-1.927,-5.444 -1.855,-4.401 -1.871,-3.371C-1.845,-2.646 -1.863,-1.891 -1.576,-1.21C-1.106,-0.221 0.116,0.318 1.168,0.034C2.002,-0.164 2.737,-0.834 2.898,-1.694C3.108,-2.797 3.005,-3.928 3.031,-5.044C3.003,-5.797 3.01,-6.624 2.552,-7.263C1.992,-8.05 0.931,-8.424 0,-8.18M-0.529,-9.098C1.137,-9.634 3.214,-8.857 3.878,-7.182C4.217,-6.209 4.146,-5.158 4.158,-4.143C4.157,-3.233 4.182,-2.312 4.01,-1.414C3.825,-0.495 3.154,0.267 2.334,0.692C0.908,1.454 -1.015,1.172 -2.117,-0.027C-2.686,-0.607 -2.919,-1.424 -2.951,-2.217C-3.016,-3.633 -3.044,-5.06 -2.887,-6.47C-2.747,-7.733 -1.711,-8.745 -0.529,-9.098" style="fill:rgb(152,161,170);fill-rule:nonzero;"/>
    </g>
    <g transform="matrix(8.33333,0,0,8.33333,1053.67,157.584)">
        <path d="M0,-8.758C0.798,-9.502 1.953,-9.635 2.998,-9.554C3.941,-9.511 4.815,-9.071 5.516,-8.454C5.274,-8.207 5.031,-7.965 4.79,-7.72C3.869,-8.562 2.466,-8.851 1.303,-8.389C0.239,-7.974 -0.115,-6.362 0.731,-5.579C1.69,-4.835 2.99,-5.023 4.092,-4.663C4.942,-4.435 5.628,-3.731 5.84,-2.876L5.84,-1.333C5.652,-0.746 5.309,-0.193 4.785,0.147C3.763,0.838 2.455,0.877 1.274,0.707C0.347,0.578 -0.476,0.074 -1.144,-0.562C-0.886,-0.821 -0.628,-1.08 -0.369,-1.339C0.689,-0.218 2.464,0.114 3.86,-0.521C4.836,-0.976 5.111,-2.376 4.451,-3.2C3.939,-3.799 3.089,-3.784 2.376,-3.918C1.362,-4.051 0.21,-4.278 -0.418,-5.174C-1.115,-6.263 -0.946,-7.863 0,-8.758" style="fill:rgb(152,161,170);fill-rule:nonzero;"/>
    </g>
    <g transform="matrix(-8.31293,0.582754,0.582754,8.31293,932.218,189.091)">
        <path d="M-0.108,-2.159C-0.438,-2.133 -0.77,-2.11 -1.103,-2.088C-0.778,-1.387 -0.426,-0.701 -0.108,0C0.287,-0.019 0.679,-0.047 1.071,-0.075C0.69,-0.776 0.285,-1.463 -0.108,-2.159" style="fill:rgb(152,161,170);fill-rule:nonzero;"/>
    </g>
    <g transform="matrix(8.33333,0,0,8.33333,306.968,217.178)">
        <path d="M0,-3.135C0.549,-3.375 1.172,-3.221 1.65,-2.899C1.594,-2.828 1.478,-2.688 1.419,-2.618C1.079,-2.799 0.697,-2.971 0.304,-2.866C-0.102,-2.778 -0.271,-2.221 -0.003,-1.911C0.487,-1.561 1.28,-1.799 1.636,-1.235C2,-0.665 1.627,0.106 0.981,0.24L0.134,0.24C-0.144,0.141 -0.398,-0.008 -0.646,-0.164C-0.561,-0.261 -0.474,-0.355 -0.388,-0.451C0.018,-0.174 0.547,0.037 1.028,-0.188C1.404,-0.327 1.498,-0.912 1.173,-1.152C0.765,-1.361 0.268,-1.296 -0.135,-1.521C-0.727,-1.857 -0.627,-2.891 0,-3.135" style="fill:rgb(152,161,170);fill-rule:nonzero;"/>
    </g>
    <g transform="matrix(8.33333,0,0,8.33333,331.175,215.689)">
        <path d="M0,-2.674C0.001,-2.233 0,-1.793 0.004,-1.352C0.374,-1.364 0.753,-1.314 1.118,-1.395C1.664,-1.528 1.716,-2.417 1.191,-2.617C0.807,-2.731 0.396,-2.659 0,-2.674M-0.418,-3.03C0.162,-3.009 0.754,-3.093 1.325,-2.972C2.093,-2.741 2.183,-1.53 1.501,-1.149C1.04,-0.908 0.499,-1.022 0.001,-0.998L0.001,0.419L-0.418,0.419L-0.418,-3.03Z" style="fill:rgb(152,161,170);fill-rule:nonzero;"/>
    </g>
    <g transform="matrix(8.33333,0,0,8.33333,352.932,219.145)">
        <path d="M0,-3.442C0.721,-3.446 1.443,-3.446 2.165,-3.442C2.162,-3.326 2.16,-3.207 2.158,-3.09L0.42,-3.09L0.42,-1.93C0.912,-1.93 1.404,-1.93 1.895,-1.931C1.899,-1.814 1.904,-1.695 1.909,-1.576C1.413,-1.575 0.917,-1.575 0.42,-1.575L0.42,-0.35C0.999,-0.35 1.578,-0.35 2.158,-0.352C2.16,-0.263 2.162,-0.085 2.163,0.004L0.001,0.004C0,-1.144 0.003,-2.293 0,-3.442" style="fill:rgb(152,161,170);fill-rule:nonzero;"/>
    </g>
    <g transform="matrix(8.33333,0,0,8.33333,376.428,210.353)">
        <path d="M0,-1.634C0.224,-2.442 1.389,-2.693 1.978,-2.132C2.191,-1.942 2.274,-1.659 2.392,-1.407C2.291,-1.403 2.089,-1.397 1.987,-1.393C1.835,-1.649 1.695,-1.981 1.365,-2.041C0.931,-2.176 0.406,-1.867 0.374,-1.398C0.316,-0.89 0.306,-0.368 0.388,0.14C0.496,0.674 1.229,0.903 1.637,0.555C1.86,0.314 1.992,-0.052 2.393,-0.022C2.283,0.468 1.992,0.932 1.478,1.059L0.826,1.059C0.422,0.923 0.031,0.62 -0.021,0.168C-0.063,-0.429 -0.086,-1.04 0,-1.634" style="fill:rgb(152,161,170);fill-rule:nonzero;"/>
    </g>
    <g transform="matrix(-8.2714,1.0141,1.0141,8.2714,407.595,218.773)">
        <path d="M0.213,-3.445C0.072,-3.432 -0.066,-3.419 -0.205,-3.404C-0.069,-2.262 0.073,-1.12 0.213,0.023L0.628,-0.028C0.491,-1.167 0.347,-2.306 0.213,-3.445" style="fill:rgb(152,161,170);fill-rule:nonzero;"/>
    </g>
    <g transform="matrix(8.33333,0,0,8.33333,422.037,214.138)">
        <path d="M0,-2.239C-0.205,-1.667 -0.41,-1.094 -0.614,-0.522C-0.206,-0.523 0.202,-0.523 0.612,-0.524C0.405,-1.094 0.215,-1.672 0,-2.239M-0.175,-2.844C-0.057,-2.842 0.062,-2.841 0.181,-2.839C0.598,-1.69 1.007,-0.537 1.444,0.605L1.006,0.605C0.908,0.352 0.824,0.096 0.737,-0.159C0.246,-0.171 -0.245,-0.17 -0.736,-0.168C-0.828,0.091 -0.918,0.351 -1.022,0.605L-1.453,0.605C-1.011,-0.538 -0.605,-1.696 -0.175,-2.844" style="fill:rgb(152,161,170);fill-rule:nonzero;"/>
    </g>
    <g transform="matrix(8.33333,0,0,8.33333,438.1,219.179)">
        <path d="M0,-3.45L0.416,-3.45C0.419,-2.419 0.416,-1.386 0.418,-0.354L2.158,-0.354C2.158,-0.265 2.16,-0.089 2.16,0L-0.001,0C-0.001,-1.15 -0.003,-2.3 0,-3.45" style="fill:rgb(152,161,170);fill-rule:nonzero;"/>
    </g>
    <g transform="matrix(8.33333,0,0,8.33333,473.662,217.069)">
        <path d="M0,-3.113C0.548,-3.366 1.187,-3.216 1.666,-2.881C1.604,-2.813 1.481,-2.673 1.419,-2.605C1.08,-2.801 0.685,-2.967 0.289,-2.838C-0.15,-2.735 -0.288,-2.018 0.144,-1.819C0.645,-1.579 1.409,-1.746 1.689,-1.155C2.001,-0.583 1.603,0.122 0.99,0.253L0.168,0.253C-0.121,0.162 -0.383,0.006 -0.63,-0.164C-0.565,-0.234 -0.432,-0.373 -0.366,-0.443C0.032,-0.168 0.541,0.046 1.02,-0.162C1.426,-0.295 1.516,-0.915 1.166,-1.157C0.749,-1.345 0.253,-1.287 -0.146,-1.526C-0.71,-1.871 -0.606,-2.863 0,-3.113" style="fill:rgb(152,161,170);fill-rule:nonzero;"/>
    </g>
    <g transform="matrix(8.33333,0,0,8.33333,491.82,219.173)">
        <path d="M0,-3.448C0.783,-3.448 1.566,-3.448 2.35,-3.449C2.352,-3.36 2.352,-3.182 2.352,-3.093C2.029,-3.093 1.707,-3.095 1.385,-3.093L1.385,0.001L0.966,0.001L0.966,-3.093C0.642,-3.095 0.32,-3.093 -0.001,-3.093C-0.001,-3.182 -0.001,-3.36 0,-3.448" style="fill:rgb(152,161,170);fill-rule:nonzero;"/>
    </g>
    <g transform="matrix(8.33333,0,0,8.33333,516.521,219.182)">
        <path d="M0,-3.449L2.157,-3.449C2.158,-3.361 2.163,-3.186 2.166,-3.098C1.573,-3.093 0.98,-3.094 0.387,-3.094L0.387,-1.934C0.892,-1.934 1.399,-1.935 1.904,-1.932C1.904,-1.844 1.902,-1.667 1.9,-1.58L0.387,-1.58L0.387,-0.353C0.961,-0.344 1.538,-0.388 2.111,-0.33C2.138,-0.248 2.193,-0.083 2.22,0L0,0L0,-3.449Z" style="fill:rgb(152,161,170);fill-rule:nonzero;"/>
    </g>
    <g transform="matrix(8.33333,0,0,8.33333,540.426,219.173)">
        <path d="M0,-3.448C0.719,-3.448 1.438,-3.448 2.157,-3.449C2.158,-3.36 2.162,-3.185 2.165,-3.096C1.582,-3.092 1,-3.093 0.419,-3.093L0.419,-1.933C0.914,-1.933 1.409,-1.933 1.906,-1.931C1.904,-1.843 1.902,-1.666 1.9,-1.579L0.419,-1.579L0.419,-0.354C0.998,-0.354 1.578,-0.354 2.157,-0.355C2.158,-0.266 2.161,-0.088 2.162,0.001L0,0.001C0,-1.149 -0.001,-2.299 0,-3.448" style="fill:rgb(152,161,170);fill-rule:nonzero;"/>
    </g>
    <g transform="matrix(8.33333,0,0,8.33333,564.568,218.998)">
        <path d="M0,-3.414C0.097,-3.419 0.291,-3.431 0.388,-3.436C0.393,-2.402 0.388,-1.368 0.392,-0.333C0.97,-0.333 1.547,-0.333 2.126,-0.335C2.129,-0.245 2.134,-0.067 2.135,0.022L0.004,0.022C0.001,-1.123 0.008,-2.269 0,-3.414" style="fill:rgb(152,161,170);fill-rule:nonzero;"/>
    </g>
    <g transform="matrix(8.33333,0,0,8.33333,600.206,217.177)">
        <path d="M0,-3.14C0.565,-3.381 1.213,-3.216 1.686,-2.855C1.316,-2.441 0.875,-3.002 0.437,-2.886C0.008,-2.874 -0.298,-2.365 -0.073,-1.987C0.38,-1.508 1.26,-1.84 1.632,-1.232C1.996,-0.645 1.595,0.135 0.93,0.241L0.112,0.241C-0.162,0.136 -0.416,-0.011 -0.667,-0.159C-0.58,-0.261 -0.491,-0.362 -0.402,-0.462C0.004,-0.166 0.547,0.041 1.034,-0.194C1.398,-0.349 1.487,-0.907 1.175,-1.151C0.717,-1.388 0.126,-1.273 -0.285,-1.617C-0.732,-2.043 -0.572,-2.903 0,-3.14" style="fill:rgb(152,161,170);fill-rule:nonzero;"/>
    </g>
    <g transform="matrix(8.33333,0,0,8.33333,627.678,213.428)">
        <path d="M0,-2.386C-0.254,-2.283 -0.483,-2.06 -0.503,-1.774C-0.561,-1.239 -0.589,-0.682 -0.465,-0.153C-0.271,0.472 0.741,0.52 0.986,-0.09C1.151,-0.62 1.114,-1.195 1.059,-1.741C1.026,-2.234 0.45,-2.583 0,-2.386M-0.875,-1.995C-0.63,-2.926 0.779,-3.076 1.291,-2.297C1.603,-1.744 1.47,-1.068 1.479,-0.46C1.498,0.086 1.107,0.554 0.59,0.69L-0.059,0.69C-0.453,0.542 -0.847,0.244 -0.896,-0.203C-0.951,-0.796 -0.97,-1.405 -0.875,-1.995" style="fill:rgb(152,161,170);fill-rule:nonzero;"/>
    </g>
    <g transform="matrix(8.33333,0,0,8.33333,647.061,219.182)">
        <path d="M0,-3.449L0.387,-3.449C0.387,-2.419 0.387,-1.387 0.385,-0.356C0.966,-0.355 1.545,-0.355 2.125,-0.356C2.126,-0.267 2.129,-0.089 2.13,0L0,0L0,-3.449Z" style="fill:rgb(152,161,170);fill-rule:nonzero;"/>
    </g>
    <g transform="matrix(8.33333,0,0,8.33333,668.28,219.154)">
        <path d="M0,-3.447L0.385,-3.447C0.396,-2.682 0.369,-1.918 0.393,-1.153C0.398,-0.861 0.529,-0.541 0.817,-0.424C1.257,-0.184 1.909,-0.433 1.979,-0.956C2.033,-1.785 1.979,-2.618 2.001,-3.45C2.105,-3.448 2.314,-3.444 2.419,-3.443C2.401,-2.622 2.452,-1.797 2.397,-0.975C2.362,-0.492 1.967,-0.123 1.519,0.003L0.863,0.003C0.45,-0.125 0.055,-0.443 0.019,-0.899C-0.032,-1.748 0.015,-2.597 0,-3.447" style="fill:rgb(152,161,170);fill-rule:nonzero;"/>
    </g>
    <g transform="matrix(8.33333,0,0,8.33333,692.992,219.157)">
        <path d="M0,-3.446C0.797,-3.446 1.594,-3.449 2.39,-3.443C2.388,-3.356 2.384,-3.179 2.383,-3.091L1.386,-3.091L1.386,0.003L0.999,0.003C0.999,-1.029 0.998,-2.06 0.999,-3.09C0.665,-3.091 0.333,-3.091 0,-3.091L0,-3.446Z" style="fill:rgb(152,161,170);fill-rule:nonzero;"/>
    </g>
    <g transform="matrix(8.33333,0,0,8.33333,-1493.94,-3100)">
        <rect x="265.429" y="394.853" width="0.387" height="3.449" style="fill:rgb(152,161,170);"/>
    </g>
    <g transform="matrix(8.33333,0,0,8.33333,735.216,213.551)">
        <path d="M0,-2.371C-0.669,-2.016 -0.418,-1.115 -0.449,-0.499C-0.502,0.129 0.277,0.574 0.789,0.209C1.362,-0.224 1.106,-1.035 1.146,-1.649C1.18,-2.221 0.502,-2.648 0,-2.371M-0.771,-2.103C-0.424,-3.043 1.129,-3.047 1.469,-2.099C1.63,-1.453 1.605,-0.765 1.502,-0.111C1.427,0.295 1.046,0.523 0.699,0.676L0.014,0.676C-0.396,0.534 -0.783,0.222 -0.821,-0.239C-0.881,-0.856 -0.912,-1.494 -0.771,-2.103" style="fill:rgb(152,161,170);fill-rule:nonzero;"/>
    </g>
    <g transform="matrix(8.33333,0,0,8.33333,755.039,219.134)">
        <path d="M0,-3.442C0.098,-3.443 0.294,-3.447 0.393,-3.448C0.991,-2.57 1.559,-1.672 2.157,-0.794C2.162,-1.678 2.157,-2.561 2.161,-3.446C2.265,-3.445 2.474,-3.443 2.58,-3.442C2.579,-2.293 2.579,-1.143 2.579,0.006L2.203,0.006C1.603,-0.884 1.012,-1.781 0.419,-2.676L0.419,0.006L0,0.006C0,-1.143 -0.001,-2.292 0,-3.442" style="fill:rgb(152,161,170);fill-rule:nonzero;"/>
    </g>
    <g transform="matrix(8.33333,0,0,8.33333,786.519,216.776)">
        <path d="M0,-3.052C0.56,-3.341 1.243,-3.193 1.737,-2.834C1.652,-2.744 1.566,-2.654 1.481,-2.565C1.181,-2.726 0.856,-2.9 0.504,-2.837C0.077,-2.824 -0.211,-2.309 0.003,-1.939C0.385,-1.545 1.016,-1.709 1.465,-1.434C1.899,-1.152 1.952,-0.493 1.657,-0.092C1.499,0.118 1.239,0.203 1.002,0.289L0.188,0.289C-0.086,0.184 -0.339,0.035 -0.591,-0.114C-0.503,-0.216 -0.413,-0.316 -0.32,-0.417C0.084,-0.115 0.621,0.081 1.11,-0.14C1.484,-0.296 1.556,-0.842 1.261,-1.106C0.794,-1.333 0.204,-1.226 -0.21,-1.572C-0.624,-1.983 -0.516,-2.772 0,-3.052" style="fill:rgb(152,161,170);fill-rule:nonzero;"/>
    </g>
</svg>
