<?xml version="1.0" encoding="UTF-8" standalone="no"?>
<!DOCTYPE svg PUBLIC "-//W3C//DTD SVG 1.1//EN" "http://www.w3.org/Graphics/SVG/1.1/DTD/svg11.dtd">
<svg width="100%" height="100%" viewBox="0 0 1694 256" version="1.1" xmlns="http://www.w3.org/2000/svg" xmlns:xlink="http://www.w3.org/1999/xlink" xml:space="preserve" style="fill-rule:evenodd;clip-rule:evenodd;stroke-linejoin:round;stroke-miterlimit:2;">
    <g transform="matrix(8.33333,0,0,8.33333,595.044,255.658)">
        <path d="M0,-30.679L0,0L18.754,0L18.754,-7.25L8.089,-7.25L8.089,-12.241L16.968,-12.241L16.968,-18.964L8.089,-18.964L8.089,-23.43L18.28,-23.43L18.28,-30.679L0,-30.679Z" style="fill:white;fill-rule:nonzero;"/>
    </g>
    <g transform="matrix(8.33333,0,0,8.33333,1015.28,255.658)">
        <path d="M0,-30.679L0,0L8.091,0L8.091,-16.023L19.647,0L27.159,0L27.159,-30.679L18.963,-30.679L18.963,-15.077L7.196,-30.679L0,-30.679Z" style="fill:white;fill-rule:nonzero;"/>
    </g>
    <g transform="matrix(8.33333,0,0,8.33333,368.287,256.542)">
        <path d="M0,-30.785L0,-0.106L13.554,-0.106C13.554,-0.106 23.427,0 23.479,-8.514C23.523,-15.342 17.388,-16.706 17.388,-16.706C17.388,-16.706 21.589,-18.02 21.589,-23.22C21.589,-30.785 13.657,-30.785 13.657,-30.785L0,-30.785ZM8.089,-19.07L8.089,-24.743L10.559,-24.743C10.559,-24.743 13.492,-24.743 13.448,-22.011C13.395,-18.754 10.664,-19.07 10.664,-19.07L8.089,-19.07ZM8.089,-6.621L8.089,-12.872L11.398,-12.872C11.398,-12.872 14.708,-12.924 14.657,-9.876C14.601,-6.621 11.505,-6.621 11.505,-6.621L8.089,-6.621Z" style="fill:white;"/>
    </g>
    <g transform="matrix(8.33333,0,0,8.33333,1287.13,255.658)">
        <path d="M0,-30.679L0,0L18.753,0L18.753,-7.25L8.09,-7.25L8.09,-12.241L16.968,-12.241L16.968,-18.964L8.09,-18.964L8.09,-23.43L18.281,-23.43L18.281,-30.679L0,-30.679Z" style="fill:white;fill-rule:nonzero;"/>
    </g>
    <g transform="matrix(8.33333,0,0,8.33333,787.647,255.658)">
        <path d="M0,-30.679L12.818,-30.679C15.813,-30.679 22.273,-29.68 22.432,-22.273C22.6,-14.344 16.441,-12.45 16.441,-12.45L25.689,0L15.233,0L8.091,-11.294L8.091,0L0,0L0,-30.679ZM8.091,-17.546L8.091,-23.955L11.136,-23.955C11.136,-23.955 13.869,-24.015 13.869,-21.013C13.869,-17.598 10.875,-17.546 10.875,-17.546L8.091,-17.546Z" style="fill:white;"/>
    </g>
    <g transform="matrix(8.33333,0,0,8.33333,1479.74,255.658)">
        <path d="M0,-30.679L12.816,-30.679C15.812,-30.679 22.272,-29.68 22.431,-22.273C22.599,-14.344 16.441,-12.45 16.441,-12.45L25.687,0L15.234,0L8.089,-11.294L8.089,0L0,0L0,-30.679ZM8.089,-17.546L8.089,-23.955L11.137,-23.955C11.137,-23.955 13.869,-24.015 13.869,-21.013C13.869,-17.598 10.875,-17.546 10.875,-17.546L8.089,-17.546Z" style="fill:white;"/>
    </g>
    <g transform="matrix(8.33333,0,0,8.33333,0,255.671)">
        <path d="M0,-30.678L0,0L30.678,0L30.678,-30.678L18.751,-30.678L11.558,-22.096L22.098,-22.096L22.098,-8.58L8.58,-8.58L8.58,-30.678" style="fill:white;fill-rule:nonzero;"/>
    </g>
</svg>
