<?xml version="1.0" encoding="UTF-8" standalone="no"?>
<!DOCTYPE svg PUBLIC "-//W3C//DTD SVG 1.1//EN" "http://www.w3.org/Graphics/SVG/1.1/DTD/svg11.dtd">
<svg width="100%" height="100%" viewBox="0 0 1284 771" version="1.1" xmlns="http://www.w3.org/2000/svg" xmlns:xlink="http://www.w3.org/1999/xlink" xml:space="preserve" xmlns:serif="http://www.serif.com/" style="fill-rule:evenodd;clip-rule:evenodd;stroke-linejoin:round;stroke-miterlimit:2;">
    <g transform="matrix(1,0,0,1,-244.088,-243.15)">
        <g transform="matrix(4.16667,0,0,4.16667,0,0)">
            <rect x="178.714" y="58.356" width="3.08" height="184.816" style="fill:white;"/>
            <rect x="212.631" y="175.918" width="1.561" height="8.656" style="fill:white;"/>
            <path d="M221.977,184.574L223.571,184.574L223.571,175.918L222.09,175.918L222.14,179.97C222.158,180.986 222.271,182.092 222.292,182.285C222.168,182.062 221.765,181.162 221.253,180.279L218.733,175.918L216.989,175.918L216.989,184.574L218.521,184.574L218.455,180.422C218.437,179.338 218.39,178.451 218.352,178.008C218.418,178.174 218.998,179.392 219.503,180.246L221.977,184.574Z" style="fill:white;fill-rule:nonzero;"/>
            <path d="M232.444,181.945C232.444,181.347 232.214,180.769 231.813,180.381C231.419,179.97 230.745,179.672 230.071,179.488L228.887,179.191C227.899,178.916 227.518,178.613 227.518,178.074C227.518,177.383 228.192,176.953 229.2,176.953C229.975,176.953 230.758,177.181 231.536,177.646L232.243,176.547C231.469,176.015 230.247,175.687 229.133,175.687C227.204,175.687 225.84,176.759 225.84,178.283C225.84,178.73 225.969,179.125 226.221,179.488C226.569,180.011 227.174,180.396 227.958,180.605L229.2,180.92C230.28,181.201 230.729,181.601 230.729,182.216C230.729,182.652 230.503,182.982 230.089,183.209C229.741,183.406 229.36,183.486 228.79,183.486C227.833,183.486 227.008,183.259 226.108,182.783L225.508,183.984C226.485,184.49 227.602,184.758 228.702,184.758C229.594,184.758 230.364,184.59 230.993,184.248C231.895,183.765 232.444,182.894 232.444,181.945Z" style="fill:white;fill-rule:nonzero;"/>
            <path d="M240.388,175.918L233.675,175.918L233.675,177.182L236.14,177.182L236.14,184.574L237.673,184.574L237.673,177.182L240.179,177.182L240.388,175.918Z" style="fill:white;fill-rule:nonzero;"/>
            <rect x="242.016" y="175.918" width="1.561" height="8.656" style="fill:white;"/>
            <path d="M247.905,184.574L249.436,184.574L249.436,177.181L251.934,177.181L252.153,175.918L245.44,175.918L245.44,177.181L247.905,177.181L247.905,184.574Z" style="fill:white;fill-rule:nonzero;"/>
            <path d="M259.394,183.896C259.984,183.359 260.167,182.878 260.167,181.494L260.167,175.917L258.599,175.917L258.599,181.429C258.599,182.271 258.519,182.568 258.269,182.894C258.005,183.242 257.501,183.439 256.824,183.439C255.988,183.439 255.363,183.113 255.128,182.548C255.033,182.318 254.996,181.857 254.996,181.242L254.996,175.917L253.451,175.917L253.451,181.523C253.451,182.501 253.531,182.861 253.794,183.359C254.226,184.113 255.146,184.724 256.808,184.724C258.005,184.724 258.812,184.443 259.394,183.896Z" style="fill:white;fill-rule:nonzero;"/>
            <path d="M265.938,184.574L265.938,177.181L268.438,177.181L268.655,175.918L261.937,175.918L261.937,177.181L264.403,177.181L264.403,184.574L265.938,184.574Z" style="fill:white;fill-rule:nonzero;"/>
            <path d="M275.255,182.318C274.946,183.179 274.28,183.568 273.31,183.568C272.439,183.568 271.778,183.275 271.468,182.728C271.12,182.138 270.919,181.279 270.919,180.129C270.919,179.111 271.058,178.404 271.368,177.89C271.71,177.334 272.39,176.986 273.181,176.986C274.101,176.986 274.757,177.298 275.155,178.074C275.419,178.613 275.532,179.308 275.532,180.381C275.532,181.271 275.466,181.791 275.255,182.318ZM276.39,183.392C276.997,182.652 277.277,181.664 277.277,180.263C277.277,178.877 276.964,177.861 276.331,177.132C275.612,176.25 274.607,175.781 273.21,175.781C270.728,175.781 269.212,177.466 269.212,180.234C269.212,181.664 269.593,182.728 270.413,183.603C271.138,184.373 272.009,184.724 273.31,184.724C274.741,184.724 275.665,184.3 276.39,183.392Z" style="fill:white;fill-rule:nonzero;"/>
            <path d="M289.171,181.945C289.171,181.347 288.937,180.769 288.548,180.381C288.151,179.97 287.478,179.672 286.804,179.488L285.618,179.191C284.626,178.916 284.245,178.613 284.245,178.074C284.245,177.383 284.923,176.953 285.929,176.953C286.706,176.953 287.493,177.181 288.263,177.646L288.966,176.547C288.2,176.015 286.983,175.687 285.86,175.687C283.937,175.687 282.571,176.759 282.571,178.283C282.571,178.73 282.696,179.125 282.952,179.488C283.296,180.011 283.903,180.396 284.689,180.605L285.929,180.92C287.017,181.201 287.456,181.601 287.456,182.216C287.456,182.652 287.226,182.982 286.816,183.209C286.476,183.406 286.091,183.486 285.515,183.486C284.564,183.486 283.743,183.259 282.839,182.783L282.245,183.984C283.212,184.49 284.333,184.758 285.439,184.758C286.325,184.758 287.101,184.59 287.724,184.248C288.632,183.765 289.171,182.894 289.171,181.945Z" style="fill:white;fill-rule:nonzero;"/>
            <path d="M296.462,181.43C296.462,182.272 296.378,182.569 296.128,182.895C295.864,183.242 295.349,183.44 294.679,183.44C293.843,183.44 293.22,183.114 292.989,182.549C292.884,182.319 292.859,181.858 292.859,181.243L292.859,175.918L291.306,175.918L291.306,181.524C291.306,182.502 291.386,182.862 291.657,183.36C292.085,184.114 293.001,184.725 294.663,184.725C295.864,184.725 296.671,184.444 297.253,183.897C297.843,183.36 298.019,182.879 298.019,181.494L298.019,175.918L296.462,175.918L296.462,181.43Z" style="fill:white;fill-rule:nonzero;"/>
            <path d="M302.267,177.166L303.402,177.166C304.109,177.166 304.585,177.25 304.929,177.529C305.226,177.777 305.398,178.125 305.398,178.613C305.398,179.033 305.285,179.371 305.035,179.652C304.761,179.932 304.369,180.088 303.644,180.088L302.267,180.088L302.267,177.166ZM302.267,181.318L303.677,181.318C304.761,181.318 305.277,181.187 305.9,180.723C306.617,180.293 307.085,179.539 307.085,178.521C307.085,177.559 306.595,176.777 305.753,176.328C305.244,176.035 304.8,175.918 303.247,175.918L300.732,175.918L300.732,184.574L302.267,184.574L302.267,181.318Z" style="fill:white;fill-rule:nonzero;"/>
            <path d="M314.659,183.26L310.663,183.26L310.663,180.694L313.702,180.694L313.702,179.43L310.645,179.43L310.645,177.182L314.317,177.182L314.53,175.918L309.097,175.918L309.097,184.575L314.659,184.575L314.659,183.26Z" style="fill:white;fill-rule:nonzero;"/>
            <path d="M319.351,179.789L318.511,179.789L318.511,177.158L319.464,177.158C319.958,177.158 320.306,177.182 320.599,177.283C321.13,177.451 321.441,177.881 321.441,178.422C321.441,178.877 321.277,179.225 320.992,179.437C320.665,179.689 320.206,179.789 319.351,179.789ZM323.58,184.574C323.55,184.523 322.792,183.51 322.29,182.795C321.833,182.187 321.339,181.547 321.06,181.201C320.943,181.055 320.779,180.902 320.632,180.803C322.097,180.744 323.035,179.814 323.035,178.389C323.035,177.584 322.654,176.885 322.046,176.445C321.537,176.068 320.867,175.918 319.556,175.918L316.974,175.918L316.974,184.574L318.511,184.574L318.511,180.873C318.804,180.902 319.017,180.971 319.259,181.187C319.695,181.514 320.138,182.062 320.874,183.242C321.173,183.721 321.456,184.15 321.701,184.574L323.58,184.574Z" style="fill:white;fill-rule:nonzero;"/>
            <rect x="325.55" y="175.918" width="1.564" height="8.656" style="fill:white;"/>
            <path d="M331.622,182.729C331.274,182.139 331.079,181.28 331.079,180.129C331.079,179.112 331.208,178.405 331.526,177.891C331.86,177.334 332.544,176.987 333.335,176.987C334.255,176.987 334.913,177.299 335.31,178.075C335.569,178.614 335.686,179.309 335.686,180.381C335.686,181.272 335.62,181.792 335.405,182.319C335.093,183.18 334.431,183.569 333.464,183.569C332.593,183.569 331.932,183.276 331.622,182.729ZM336.54,183.393C337.155,182.653 337.432,181.665 337.432,180.264C337.432,178.877 337.118,177.862 336.489,177.133C335.767,176.25 334.767,175.782 333.364,175.782C330.878,175.782 329.366,177.467 329.366,180.235C329.366,181.665 329.747,182.729 330.567,183.604C331.296,184.374 332.167,184.725 333.464,184.725C334.899,184.725 335.815,184.301 336.54,183.393Z" style="fill:white;fill-rule:nonzero;"/>
            <path d="M341.241,177.158L342.202,177.158C342.692,177.158 343.04,177.181 343.333,177.283C343.864,177.451 344.179,177.881 344.179,178.422C344.179,178.877 344.014,179.224 343.735,179.437C343.403,179.689 342.934,179.789 342.085,179.789L341.241,179.789L341.241,177.158ZM341.241,180.873C341.538,180.902 341.755,180.971 342.003,181.187C342.436,181.513 342.876,182.062 343.618,183.242C343.911,183.72 344.194,184.15 344.438,184.574L346.313,184.574C346.284,184.523 345.526,183.509 345.032,182.795C344.567,182.187 344.077,181.547 343.794,181.201C343.684,181.054 343.516,180.902 343.37,180.802C344.835,180.744 345.768,179.814 345.768,178.388C345.768,177.584 345.391,176.884 344.786,176.445C344.274,176.068 343.6,175.918 342.3,175.918L339.718,175.918L339.718,184.574L341.241,184.574L341.241,180.873Z" style="fill:white;fill-rule:nonzero;"/>
            <path d="M353.315,177.158L354.34,177.158C355.231,177.158 355.809,177.334 356.319,177.949C356.78,178.488 356.96,179.224 356.96,180.363C356.96,182.187 356.27,182.996 355.344,183.226C355.114,183.293 354.805,183.326 354.528,183.326L353.315,183.326L353.315,177.158ZM355.838,184.465C356.909,184.226 358.655,183.041 358.655,180.246C358.655,177.675 357.458,176.613 356.168,176.211C355.461,175.918 354.62,175.918 353.715,175.918L351.774,175.918L351.774,184.574L354.293,184.574C354.938,184.574 355.461,184.556 355.838,184.465Z" style="fill:white;fill-rule:nonzero;"/>
            <path d="M366.489,183.26L362.493,183.26L362.493,180.694L365.532,180.694L365.532,179.43L362.468,179.43L362.468,177.182L366.147,177.182L366.352,175.918L360.923,175.918L360.923,184.575L366.489,184.575L366.489,183.26Z" style="fill:white;fill-rule:nonzero;"/>
            <path d="M214.159,193.191L217.202,193.191L217.202,191.918L214.151,191.918L214.151,189.679L217.809,189.679L218.026,188.416L212.602,188.416L212.602,197.07L218.155,197.07L218.155,195.755L214.159,195.755L214.159,193.191Z" style="fill:white;fill-rule:nonzero;"/>
            <path d="M225.79,192.467C225.811,193.485 225.925,194.59 225.94,194.785C225.823,194.555 225.413,193.664 224.903,192.781L222.388,188.416L220.638,188.416L220.638,197.071L222.169,197.071L222.106,192.924C222.091,191.844 222.036,190.947 222.007,190.504C222.073,190.676 222.651,191.885 223.161,192.744L225.626,197.071L227.226,197.071L227.226,188.416L225.743,188.416L225.79,192.467Z" style="fill:white;fill-rule:nonzero;"/>
            <path d="M233.521,193.605L235.256,193.605L235.256,195.773C234.922,195.941 234.465,196.037 233.971,196.037C233.396,196.037 232.818,195.886 232.378,195.626C231.631,195.175 231.256,194.279 231.256,192.847C231.256,192.023 231.369,191.328 231.602,190.755C231.924,189.951 232.687,189.521 233.792,189.521C234.664,189.521 235.224,189.785 235.864,190.21L236.637,189.24C235.762,188.595 234.855,188.298 233.777,188.298C232.767,188.298 231.946,188.554 231.221,189.043C230.119,189.814 229.565,191.035 229.565,192.744C229.565,194.125 229.921,195.15 230.701,195.953C231.449,196.761 232.495,197.187 233.884,197.187C234.977,197.187 235.945,196.953 236.802,196.459L236.802,192.345L233.293,192.345L233.521,193.605Z" style="fill:white;fill-rule:nonzero;"/>
            <path d="M240.866,193.191L243.907,193.191L243.907,191.918L240.848,191.918L240.848,189.679L244.514,189.679L244.737,188.416L239.3,188.416L239.3,197.07L244.866,197.07L244.866,195.755L240.866,195.755L240.866,193.191Z" style="fill:white;fill-rule:nonzero;"/>
            <path d="M252.491,192.467C252.512,193.485 252.63,194.59 252.647,194.785C252.534,194.555 252.12,193.664 251.612,192.781L249.085,188.416L247.348,188.416L247.348,197.071L248.88,197.071L248.813,192.924C248.792,191.844 248.741,190.947 248.712,190.504C248.776,190.676 249.356,191.885 249.864,192.744L252.333,197.071L253.927,197.071L253.927,188.416L252.446,188.416L252.491,192.467Z" style="fill:white;fill-rule:nonzero;"/>
            <path d="M261.808,191.855L258.351,191.855L258.351,188.416L256.808,188.416L256.808,197.07L258.351,197.07L258.351,193.125L261.808,193.125L261.808,197.07L263.357,197.07L263.357,188.416L261.808,188.416L261.808,191.855Z" style="fill:white;fill-rule:nonzero;"/>
            <path d="M267.798,193.58C267.864,193.35 268.999,190.031 269.05,189.797C269.103,190.031 270.187,193.287 270.288,193.58L267.798,193.58ZM268.212,188.402L264.985,197.07L266.583,197.07L267.403,194.814L270.648,194.814L271.468,197.07L273.163,197.07L270.011,188.402L268.212,188.402Z" style="fill:white;fill-rule:nonzero;"/>
            <path d="M277.188,192.283L276.352,192.283L276.352,189.65L277.301,189.65C277.803,189.65 278.152,189.679 278.444,189.785C278.975,189.951 279.282,190.371 279.282,190.918C279.282,191.375 279.118,191.726 278.842,191.935C278.506,192.181 278.051,192.283 277.188,192.283ZM278.909,193.697C278.791,193.554 278.62,193.4 278.477,193.3C279.943,193.242 280.879,192.316 280.879,190.884C280.879,190.078 280.498,189.39 279.893,188.943C279.381,188.562 278.705,188.416 277.403,188.416L274.815,188.416L274.815,197.07L276.352,197.07L276.352,193.367C276.645,193.4 276.862,193.47 277.111,193.681C277.536,194.012 277.979,194.554 278.725,195.744C279.018,196.213 279.297,196.644 279.546,197.07L281.424,197.07C281.391,197.029 280.633,196.004 280.14,195.293C279.674,194.689 279.186,194.045 278.909,193.697Z" style="fill:white;fill-rule:nonzero;"/>
            <rect x="283.56" y="188.416" width="1.564" height="8.654" style="fill:white;"/>
            <path d="M289.616,193.58C289.682,193.35 290.817,190.031 290.866,189.797C290.917,190.031 291.997,193.287 292.1,193.58L289.616,193.58ZM290.02,188.402L286.798,197.07L288.393,197.07L289.225,194.814L292.466,194.814L293.286,197.07L294.977,197.07L291.817,188.402L290.02,188.402Z" style="fill:white;fill-rule:nonzero;"/>
            <path d="M303.862,195.723C303.628,195.791 303.317,195.825 303.042,195.825L301.84,195.825L301.84,189.651L302.852,189.651C303.745,189.651 304.317,189.834 304.829,190.442C305.284,190.977 305.473,191.727 305.473,192.856C305.473,194.69 304.782,195.489 303.862,195.723ZM304.682,188.713C303.969,188.416 303.13,188.416 302.229,188.416L300.292,188.416L300.292,197.071L302.807,197.071C303.452,197.071 303.969,197.055 304.35,196.953C305.43,196.729 307.173,195.539 307.173,192.744C307.173,190.178 305.967,189.102 304.682,188.713Z" style="fill:white;fill-rule:nonzero;"/>
            <path d="M311.169,193.191L314.216,193.191L314.216,191.918L311.153,191.918L311.153,189.679L314.823,189.679L315.04,188.416L309.605,188.416L309.605,197.07L315.171,197.07L315.171,195.755L311.169,195.755L311.169,193.191Z" style="fill:white;fill-rule:nonzero;"/>
            <path d="M322.88,188.416L321.323,188.416L321.323,197.07L326.29,197.07L326.538,195.803L322.88,195.803L322.88,188.416Z" style="fill:white;fill-rule:nonzero;"/>
            <rect x="328.183" y="188.416" width="1.565" height="8.654" style="fill:white;"/>
            <path d="M336.411,191.986L335.229,191.693C334.239,191.408 333.858,191.119 333.858,190.576C333.858,189.884 334.536,189.453 335.544,189.453C336.306,189.453 337.097,189.679 337.876,190.144L338.579,189.043C337.813,188.515 336.595,188.185 335.474,188.185C333.544,188.185 332.179,189.252 332.179,190.785C332.179,191.228 332.309,191.625 332.559,191.986C332.907,192.517 333.514,192.89 334.306,193.107L335.544,193.418C336.628,193.697 337.067,194.091 337.067,194.722C337.067,195.15 336.841,195.48 336.423,195.707C336.079,195.898 335.698,195.986 335.13,195.986C334.171,195.986 333.35,195.756 332.442,195.279L331.852,196.48C332.823,196.996 333.94,197.25 335.046,197.25C335.932,197.25 336.704,197.088 337.331,196.744C338.235,196.271 338.784,195.392 338.784,194.437C338.784,193.847 338.55,193.275 338.151,192.877C337.763,192.466 337.085,192.17 336.411,191.986Z" style="fill:white;fill-rule:nonzero;"/>
            <path d="M345.376,195.639C345.083,195.774 344.669,195.84 344.128,195.84L342.663,195.84L342.663,193.207L344.157,193.207C344.556,193.207 345.015,193.254 345.313,193.389C345.706,193.555 346.04,193.916 346.04,194.522C346.04,195.012 345.769,195.459 345.376,195.639ZM342.642,189.698L343.995,189.698C344.468,189.698 344.903,189.768 345.183,189.932C345.476,190.108 345.688,190.42 345.688,190.83C345.688,191.035 345.644,191.211 345.56,191.375C345.313,191.819 344.966,191.953 344.087,191.953L342.642,191.953L342.642,189.698ZM346.925,192.994C346.61,192.744 346.216,192.563 345.743,192.485C346.116,192.383 346.442,192.2 346.69,191.969C347.104,191.61 347.339,191.119 347.339,190.584C347.339,189.698 346.724,188.977 345.835,188.647C345.376,188.483 344.966,188.416 343.911,188.416L341.132,188.416L341.132,197.071L344.157,197.071C345.112,197.071 345.571,197.03 346.167,196.828C347.12,196.459 347.731,195.606 347.731,194.649C347.731,193.994 347.446,193.389 346.925,192.994Z" style="fill:white;fill-rule:nonzero;"/>
            <path d="M355.546,194.814C355.231,195.677 354.575,196.07 353.609,196.07C352.733,196.07 352.075,195.773 351.759,195.228C351.415,194.638 351.218,193.781 351.218,192.634C351.218,191.609 351.353,190.902 351.657,190.394C352.005,189.834 352.683,189.486 353.474,189.486C354.39,189.486 355.048,189.796 355.444,190.576C355.714,191.119 355.825,191.806 355.825,192.877C355.825,193.763 355.763,194.296 355.546,194.814ZM353.503,188.285C351.017,188.285 349.503,189.964 349.503,192.726C349.503,194.162 349.888,195.228 350.708,196.095C351.427,196.875 352.306,197.216 353.609,197.216C355.034,197.216 355.956,196.791 356.685,195.886C357.296,195.15 357.567,194.162 357.567,192.759C357.567,191.375 357.257,190.361 356.634,189.628C355.909,188.746 354.905,188.285 353.503,188.285Z" style="fill:white;fill-rule:nonzero;"/>
            <path d="M361.255,193.58C361.321,193.35 362.456,190.031 362.505,189.797C362.556,190.031 363.64,193.287 363.735,193.58L361.255,193.58ZM363.46,188.402L361.665,188.402L358.442,197.07L360.04,197.07L360.86,194.814L364.101,194.814L364.925,197.07L366.616,197.07L363.46,188.402Z" style="fill:white;fill-rule:nonzero;"/>
            <rect x="212.602" y="107.862" width="12.818" height="58.585" style="fill:white;"/>
            <path d="M263.022,130.538L255.643,128.604C250.549,127.253 248.879,125.733 248.879,122.703C248.879,118.74 252.395,115.961 257.405,115.961C261.975,115.961 266.099,117.225 271.64,120.427L277.436,112.002C272.075,108.289 264.52,106.101 257.049,106.101C244.133,106.101 235.176,113.521 235.176,124.219C235.176,127.504 236.051,130.538 237.725,133.154C239.922,136.69 243.698,138.972 249.762,140.566L256.53,142.341C261.975,143.688 264.52,146.133 264.52,149.929C264.52,155.146 260.833,157.93 253.801,157.93C247.649,157.93 242.731,156.08 237.022,153.213L232.452,162.404C238.604,165.773 246.335,167.707 253.274,167.707C268.475,167.707 278.491,159.873 278.491,147.986C278.491,139.298 273.046,133.154 263.022,130.538Z" style="fill:white;fill-rule:nonzero;"/>
            <path d="M300.19,140.654L317.501,140.654L317.501,131.049L300.02,131.049L300.02,117.471L319.434,117.471L322.51,107.862L287.719,107.862L287.719,166.447L323.297,166.447L323.297,156.328L300.19,156.328L300.19,140.654Z" style="fill:white;fill-rule:nonzero;"/>
            <path d="M344.743,156.67L344.743,107.862L332.178,107.862L332.178,166.447L363.536,166.447L366.616,156.67L344.743,156.67Z" style="fill:white;fill-rule:nonzero;"/>
            <path d="M178.714,180.502C166.401,194.836 148.179,203.965 127.888,203.965C90.958,203.965 60.829,173.838 60.829,136.883C60.829,99.965 90.958,69.844 127.888,69.844C148.179,69.844 166.401,78.963 178.714,93.302L178.714,89.933C166.038,76.222 147.944,67.596 127.888,67.596C89.71,67.596 58.581,98.722 58.581,136.883C58.581,175.078 89.71,206.211 127.888,206.211C147.944,206.211 166.038,197.582 178.714,183.867L178.714,180.502Z" style="fill:white;fill-rule:nonzero;"/>
            <path d="M129.528,104.138L129.223,103.678L129.223,104.389C127.704,105.653 126.305,107.068 125.038,108.578L120.192,105.264L119.296,106.561L119.061,106.365L122.313,100.137L117.593,100.137L117.593,73.992C119.292,73.711 121.003,73.502 122.745,73.364L122.745,106.996L124.096,107.917L124.096,73.272C125.352,73.197 126.62,73.162 127.887,73.162C128.343,73.162 128.784,73.162 129.223,73.175L129.223,97.283L126.294,99.196L129.528,104.138ZM136.405,108.578C139.876,106.256 143.913,104.699 148.215,104.188L147.885,124.445C146.571,125.157 145.501,126.278 144.843,127.63L129.679,115.116C131.52,112.563 133.805,110.34 136.405,108.578ZM151.032,137.93L151.032,156.168C150.313,156.381 149.68,156.813 149.215,157.383C144.491,157.01 140.114,155.414 136.405,152.905C133.911,151.214 131.718,149.1 129.934,146.702L136.405,143.077L147.614,136.883C148.61,137.491 149.794,137.871 151.032,137.93ZM150.739,165.176C151.753,165.196 152.782,165.18 153.774,165.108L153.774,195.137C147.563,197.909 140.829,199.725 133.776,200.381C134.655,199.326 135.434,198.176 136.108,196.924C136.309,196.547 136.497,196.159 136.677,195.774L146.403,195.774C149.09,195.774 152.376,193.434 150.614,190.119L135.212,161.166C135.61,161.383 136.008,161.588 136.405,161.782C137.866,162.467 139.368,163.086 140.901,163.576L139.704,169.311L146.768,170.787L147.969,165.02C148.885,165.129 149.802,165.176 150.739,165.176ZM155.842,163.301L160.253,163.301L160.253,191.772C158.821,192.621 157.356,193.418 155.842,194.155L155.842,163.301ZM162.35,163.301L166.76,163.301L166.76,187.358C165.335,188.453 163.86,189.5 162.35,190.471L162.35,163.301ZM168.829,163.301L173.257,163.301L173.257,181.582C171.85,183.018 170.368,184.385 168.829,185.674L168.829,163.301ZM127.491,168.85L106.577,156.274L108.356,152.901L112.663,144.718L112.663,130.099C112.663,129.061 112.323,128.116 111.741,127.354L125.368,127.429C124.829,128.182 124.507,129.099 124.507,130.099L124.507,144.727L149.09,190.932C149.878,192.412 148.669,194.045 146.403,194.045L137.368,194.045C140.628,184.637 136.383,174.211 127.491,168.85ZM99.362,177.317C96.678,182.356 96.323,188.031 97.884,193.125C95.081,191.613 92.397,189.893 89.852,188.002L103.376,162.35L110.524,167.678C105.887,169.352 101.86,172.67 99.362,177.317ZM88.471,186.934C88.02,186.578 87.577,186.223 87.141,185.86L89.27,185.403L88.471,186.934ZM80.206,179.137L81.993,176.76L90.401,183.268L90.288,183.481L85.563,184.49C83.671,182.817 81.884,181.026 80.206,179.137ZM73.643,170.315L80.671,175.746L79.093,177.848C77.1,175.471 75.276,172.959 73.643,170.315ZM70.684,164.983L77.635,157.963L88.53,165.326L81.675,174.424L71.479,166.535C71.212,166.026 70.944,165.502 70.684,164.983ZM69.6,162.668L69.495,153.996L71.776,153.996L76.233,157.01L69.927,163.383C69.813,163.145 69.706,162.907 69.6,162.668ZM69.413,147.518L71.19,147.518L69.436,149.296L69.413,147.518ZM69.344,142.019L73.764,144.919L73.241,145.451L69.395,145.451L69.344,142.019ZM69.253,134.539L70.018,134.539L72.098,135.879L69.307,138.926L69.253,134.539ZM69.178,128.116L70.839,129.249L69.208,130.957L69.178,128.116ZM69.11,122.106L69.872,122.892L69.128,123.976L69.11,122.106ZM69.048,117.531L70.512,118.393L71.307,120.791L70.831,121.491L69.073,119.669L69.048,117.531ZM69.01,114.149L69.735,116.007L69.022,115.584L69.01,114.149ZM66.483,153.996L67.831,153.996L67.884,158.387C67.366,156.948 66.901,155.487 66.483,153.996ZM65.038,147.518L67.755,147.518L67.805,151.924L65.938,151.924C65.594,150.473 65.29,149.008 65.038,147.518ZM64.276,141.014L67.675,141.014L67.729,145.451L64.719,145.451C64.524,143.994 64.374,142.508 64.276,141.014ZM64.139,136.883C64.139,136.105 64.158,135.318 64.188,134.539L67.596,134.539L67.645,138.947L64.18,138.947C64.151,138.26 64.139,137.578 64.139,136.883ZM64.754,128.061L67.52,128.061L67.571,132.472L64.297,132.472C64.403,130.987 64.55,129.526 64.754,128.061ZM67.374,116.866L67.487,125.99L65.081,125.99C65.624,122.871 66.395,119.816 67.374,116.866ZM81.407,93.348L81.407,125.99L75.413,125.99L69.604,111.111C72.538,104.532 76.54,98.538 81.407,93.348ZM81.553,153.996L84.55,153.996L88.057,162.994L78.829,156.758L81.553,153.996ZM79.214,153.996L77.423,155.801L74.749,153.996L79.214,153.996ZM77.727,147.518L82.52,150.665L81.264,151.924L71.688,151.924L70.178,150.908L73.53,147.518L77.727,147.518ZM77.616,141.014L74.962,143.705L70.86,141.014L77.616,141.014ZM73.522,136.795L76.841,138.947L71.552,138.947L73.522,136.795ZM73.333,134.539L73.241,134.64L73.087,134.539L73.333,134.539ZM76.962,134.539L78.264,137.884L74.657,135.552L75.589,134.539L76.962,134.539ZM81.407,132.472L77.938,132.472L77.803,132.12L77.87,132.041L77.741,131.953L76.218,128.061L81.407,128.061L81.407,132.472ZM80.466,138.947L78.741,134.539L94.012,134.539L94.075,138.947L80.466,138.947ZM77.61,145.451L76.376,144.643L79.62,141.358L81.219,145.451L77.61,145.451ZM82.022,147.518L82.454,148.627L80.762,147.518L82.022,147.518ZM83.743,151.924L83.612,151.924L83.704,151.836L83.743,151.924ZM89.393,151.924L85.53,151.924L83.809,147.518L87.973,147.518L86.376,149.686L89.393,151.924ZM94.188,147.518L94.214,148.836L92.016,147.518L94.188,147.518ZM82.997,145.451L81.272,141.014L94.1,141.014L94.159,145.451L82.997,145.451ZM73.387,128.982L74.259,128.061L74.434,128.061L75.302,130.287L73.387,128.982ZM75.346,132.334L75.229,132.472L70.077,132.472L72.225,130.2L75.346,132.334ZM72.003,122.716L72.216,122.394L72.585,123.315L72.003,122.716ZM72.852,125.99L69.764,125.99L71.044,124.115L72.852,125.99ZM93.598,177.203L91.184,181.778L82.993,175.434L89.526,166.762L93.598,177.203ZM86.329,153.996L92.167,153.996L94.305,155.586L94.579,175.112L94.704,175.112L94.628,175.266L86.329,153.996ZM83.069,92.013C85.512,89.569 88.137,87.334 90.958,85.321L103.266,95.479L103.266,100.137L99.651,100.137L89.091,91.436L89.091,127.207L105.116,127.303L106.624,130.203L107.958,127.663C109.364,127.726 110.415,128.839 110.415,130.099L110.415,131.774L83.069,131.631L83.069,92.013ZM103.266,78.122L103.266,93.319L92.159,84.161C95.628,81.797 99.344,79.772 103.266,78.122ZM98.772,115.158L104.241,125.633L90.757,125.554L90.757,94.968L97.04,100.137L90.917,100.137L98.772,115.158ZM104.614,96.596L108.903,100.137L104.614,100.137L104.614,96.596ZM104.614,77.566C106.288,76.909 107.995,76.315 109.741,75.795L109.741,98.663L104.614,94.437L104.614,77.566ZM126.759,131.857L126.759,130.099C126.759,128.797 127.784,127.458 129.264,127.458L130.182,127.458L132.856,127.479L130.182,125.274L129.71,124.893L115.509,113.195L118.278,107.871L147.475,131.957L126.759,131.857ZM109.401,124.893L114.487,115.158L114.721,114.701L127.096,124.893L109.401,124.893ZM126.231,133.519L138.708,133.581L136.405,134.841L126.444,140.408C126.364,140.219 126.302,140.034 126.231,139.842L126.231,133.519ZM104.962,138.947L103.768,134.539L110.946,134.539L110.946,138.947L104.962,138.947ZM102.659,147.518L105.552,147.518L106.536,151.171L102.659,147.518ZM96.624,138.947L95.737,138.947L95.675,134.539L101.311,134.539L96.624,138.947ZM99.052,138.947L102.387,135.816L103.237,138.947L99.052,138.947ZM104.259,142.739L104.991,145.451L100.985,145.451L104.259,142.739ZM99.491,144.522L96.307,141.525L96.85,141.014L103.723,141.014L99.491,144.522ZM95.88,147.518L95.858,147.539L95.858,147.518L95.88,147.518ZM95.829,145.451L95.8,143.328L98.048,145.451L95.829,145.451ZM96.063,162.539L95.985,156.842L99.344,159.346L96.063,162.539ZM98.124,168.616L96.206,172.26L96.122,166.711L98.124,168.616ZM96.327,164.614L100.696,160.354L101.977,161.303L98.93,167.092L96.327,164.614ZM104.844,153.996L104.061,154.762L102.794,153.996L104.844,153.996ZM99.354,151.924L95.887,149.845L95.887,149.682L98.491,147.518L100.241,147.518L104.907,151.924L99.354,151.924ZM109.239,147.518L107.936,149.992L107.28,147.518L109.239,147.518ZM106.712,145.451L105.514,141.014L110.946,141.014L110.946,144.295L110.331,145.451L106.712,145.451ZM111.118,75.407C112.796,74.946 114.505,74.548 116.245,74.222L116.245,100.137L111.516,100.137L111.118,99.806L111.118,75.407ZM155.432,104.318C159.516,104.962 163.317,106.54 166.585,108.809C173.645,113.722 178.237,121.967 178.083,131.196C178.057,132.384 177.952,133.56 177.78,134.699L164.895,134.699L158.549,130.89L158.549,130.844C158.571,128.241 157.202,125.893 155.081,124.587L155.432,104.318ZM127.887,70.907C91.522,70.907 61.891,100.564 61.891,136.883C61.891,173.244 91.522,202.901 127.887,202.901C148.317,202.901 166.594,193.5 178.714,178.832L178.714,175.237C177.633,176.655 176.52,178.053 175.325,179.375L175.325,163.301L178.714,163.301L178.714,161.631L150.083,161.639L150.075,159.659C150.075,158.592 150.973,157.684 152.046,157.684L178.714,157.684L178.714,156.026L152.698,156.026L152.698,136.356L178.714,136.356L178.714,108.415L177.952,108.905C176.604,107.277 175.12,105.775 173.516,104.418L176.835,99.58L170.891,95.516L167.577,100.363C167.243,100.196 166.911,100.036 166.585,99.852C165.024,99.09 163.421,98.451 161.76,97.918L162.956,92.205L155.921,90.724L154.723,96.466C153.807,96.366 152.883,96.312 151.94,96.312C150.739,96.29 149.567,96.312 148.395,96.416L147.329,90.678L140.26,92L141.335,97.793C139.624,98.299 137.991,98.94 136.405,99.701L135.493,100.162L132.307,95.27L129.278,97.244L130.546,96.387L130.546,73.213C150.182,74.017 167.561,83.826 178.714,98.576L178.714,94.968C166.594,80.307 148.317,70.907 127.887,70.907Z" style="fill:white;fill-rule:nonzero;"/>
        </g>
    </g>
</svg>
