<?xml version="1.0" encoding="UTF-8" standalone="no"?>
<!DOCTYPE svg PUBLIC "-//W3C//DTD SVG 1.1//EN" "http://www.w3.org/Graphics/SVG/1.1/DTD/svg11.dtd">
<svg width="100%" height="100%" viewBox="0 0 1817 278" version="1.1" xmlns="http://www.w3.org/2000/svg" xmlns:xlink="http://www.w3.org/1999/xlink" xml:space="preserve" xmlns:serif="http://www.serif.com/" style="fill-rule:evenodd;clip-rule:evenodd;stroke-linejoin:round;stroke-miterlimit:2;">
    <g transform="matrix(8.33333,0,0,8.33333,793.235,192.919)">
        <path d="M0,-6.484C0,-8.251 -0.027,-10.019 0.015,-11.785C0.029,-12.359 -0.143,-12.623 -0.705,-12.657C-1.558,-12.709 -2.41,-12.822 -3.262,-12.822C-5.239,-12.822 -6.363,-11.923 -6.718,-9.988C-7.106,-7.872 -7.032,-5.715 -6.808,-3.602C-6.552,-1.201 -5.362,-0.314 -2.959,-0.353C-2.25,-0.365 -1.538,-0.528 -0.834,-0.492C-0.068,-0.452 0.032,-0.781 0.015,-1.44C-0.03,-3.12 0,-4.802 0,-6.484M4.608,-5.116C4.608,-2.266 4.667,0.586 4.594,3.434C4.486,7.683 2.464,9.758 -1.803,10.043C-4.314,10.21 -6.803,9.982 -9.255,9.377C-10.001,9.193 -10.354,8.853 -10.313,8.023C-10.22,6.141 -10.831,5.773 -8.057,6.083C-6.134,6.299 -4.197,6.426 -2.255,6.336C-0.508,6.256 0.298,5.245 0.047,3.494C-0.017,3.044 -0.282,3.198 -0.503,3.221C-1.83,3.36 -3.14,3.576 -4.496,3.434C-8.105,3.059 -10.402,1.211 -11.176,-2.331C-11.776,-5.076 -11.764,-7.903 -11.205,-10.645C-10.44,-14.401 -7.925,-16.367 -3.92,-16.566C-1.318,-16.694 1.235,-16.253 3.765,-15.672C4.448,-15.515 4.641,-15.106 4.635,-14.438C4.611,-11.331 4.625,-8.223 4.625,-5.116L4.608,-5.116Z" style="fill:white;fill-rule:nonzero;"/>
    </g>
    <g transform="matrix(8.33333,0,0,8.33333,0.0833814,1.65827)">
        <path d="M0,30.588L0,27.541C0,21.61 0.005,15.68 -0.01,9.749C-0.011,9.23 0.118,8.855 0.5,8.477C3.178,5.833 5.832,3.164 8.487,0.497C8.775,0.207 9.043,0 9.504,0.001C16.347,0.019 23.19,0.013 30.033,0.014C30.136,0.014 30.238,0.027 30.365,0.036C30.276,0.397 30.013,0.541 29.822,0.733C27.267,3.298 24.696,5.849 22.152,8.426C21.741,8.843 21.33,9.026 20.738,9.024C15.092,9.003 9.447,9.027 3.801,8.993C3.003,8.988 2.744,9.15 2.75,10.006C2.793,15.652 2.764,21.297 2.785,26.943C2.787,27.53 2.645,27.961 2.208,28.363C1.498,29.016 0.845,29.729 0,30.588" style="fill:white;fill-rule:nonzero;"/>
    </g>
    <g transform="matrix(8.33333,0,0,8.33333,19.83,23.5849)">
        <path d="M0,30.323C0.979,29.406 1.803,28.665 2.586,27.883C2.9,27.569 3.25,27.611 3.613,27.611C9.312,27.609 15.012,27.595 20.711,27.627C21.457,27.631 21.666,27.452 21.662,26.688C21.627,21.017 21.651,15.346 21.63,9.675C21.628,9.085 21.805,8.672 22.221,8.259C24.792,5.711 27.337,3.138 29.892,0.575C30.084,0.383 30.292,0.204 30.623,-0.102L30.623,0.804C30.623,7.416 30.618,14.027 30.633,20.638C30.634,21.191 30.488,21.59 30.087,21.987C27.434,24.612 24.805,27.263 22.173,29.91C21.888,30.198 21.628,30.425 21.164,30.424C14.296,30.406 7.428,30.411 0.561,30.409C0.481,30.409 0.401,30.386 0,30.323" style="fill:white;fill-rule:nonzero;"/>
    </g>
    <g transform="matrix(8.33333,0,0,8.33333,1072.42,191.102)">
        <path d="M0,-6.427C0,-4.602 0.013,-2.777 -0.009,-0.952C-0.014,-0.5 0.075,-0.296 0.585,-0.291C1.553,-0.281 2.52,-0.148 3.486,-0.149C5.191,-0.15 6.31,-0.984 6.675,-2.654C7.199,-5.043 7.171,-7.476 6.726,-9.867C6.37,-11.781 5.238,-12.597 3.279,-12.607C2.455,-12.612 1.629,-12.481 0.805,-12.48C0.193,-12.48 -0.035,-12.3 -0.017,-11.645C0.032,-9.907 0,-8.167 0,-6.427M-4.611,-2.586C-4.611,-6.464 -4.608,-10.342 -4.615,-14.22C-4.616,-14.728 -4.612,-15.205 -3.992,-15.365C-0.887,-16.169 2.26,-16.719 5.457,-16.155C8.834,-15.558 10.781,-13.494 11.371,-9.775C11.777,-7.213 11.787,-4.59 11.238,-2.033C10.512,1.35 7.838,3.494 4.342,3.61C3.092,3.651 1.831,3.726 0.59,3.47C0.061,3.361 -0.016,3.585 -0.009,4.048C0.014,5.73 0.002,7.412 -0.001,9.095C-0.002,10.082 -0.165,10.253 -1.119,10.263C-1.917,10.271 -2.717,10.247 -3.515,10.269C-4.314,10.292 -4.625,9.934 -4.621,9.135C-4.6,5.228 -4.611,1.321 -4.611,-2.586" style="fill:white;fill-rule:nonzero;"/>
    </g>
    <g transform="matrix(8.33333,0,0,8.33333,1747.38,153.018)">
        <path d="M0,-3.483C1.024,-3.483 2.048,-3.476 3.072,-3.489C3.262,-3.492 3.513,-3.358 3.598,-3.732C3.938,-5.236 2.527,-7.404 0.942,-7.715C-1.622,-8.218 -3.448,-6.777 -3.654,-3.941C-3.684,-3.538 -3.503,-3.472 -3.158,-3.477C-2.105,-3.493 -1.053,-3.483 0,-3.483M2.162,-0.194C0.452,-0.193 -1.259,-0.158 -2.967,-0.212C-3.623,-0.233 -3.71,0.01 -3.66,0.563C-3.455,2.825 -2,4.229 0.356,4.235C2.119,4.24 3.882,4.082 5.645,3.994C6.015,3.975 6.384,3.948 6.752,3.918C7.293,3.875 7.553,4.126 7.543,4.663C7.543,4.692 7.543,4.721 7.544,4.749C7.684,7.479 7.692,7.534 5.002,7.935C2.748,8.271 0.465,8.413 -1.8,8.019C-5.242,7.42 -7.659,4.988 -8.089,1.534C-8.423,-1.147 -8.576,-3.862 -7.774,-6.507C-6.798,-9.732 -4.096,-11.723 -0.732,-11.829C1.394,-11.896 3.412,-11.618 5.156,-10.284C7.345,-8.61 8.081,-6.246 8.257,-3.635C8.311,-2.841 8.288,-2.041 8.287,-1.243C8.286,-0.531 8.009,-0.157 7.205,-0.179C5.525,-0.227 3.843,-0.194 2.162,-0.194" style="fill:white;fill-rule:nonzero;"/>
    </g>
    <g transform="matrix(8.33333,0,0,8.33333,571.971,135.496)">
        <path d="M0,0.277L-0.01,0.277C-0.01,1.103 -0.058,1.933 -0.001,2.756C0.139,4.781 1.454,6.23 3.213,6.361C5.236,6.512 6.634,5.483 7.036,3.301C7.398,1.338 7.393,-0.68 7.04,-2.643C6.663,-4.737 5.328,-5.794 3.477,-5.723C1.561,-5.65 0.233,-4.371 0.015,-2.286C-0.074,-1.44 0,-0.577 0,0.277M-4.618,0.294C-4.7,-1.3 -4.71,-2.894 -4.194,-4.433C-2.808,-8.568 0.852,-10.061 4.563,-9.626C9.191,-9.083 11.678,-6.245 11.803,-1.579C11.859,0.52 12.034,2.635 11.459,4.705C10.526,8.061 7.739,10.215 4.26,10.302C2.824,10.338 1.407,10.266 0.071,9.706C-2.883,8.467 -4.281,6.1 -4.604,3.026C-4.698,2.125 -4.618,1.205 -4.618,0.294" style="fill:white;fill-rule:nonzero;"/>
    </g>
    <g transform="matrix(8.33333,0,0,8.33333,902.651,135.868)">
        <path d="M0,0.179C0.032,1.416 -0.098,2.615 0.299,3.781C0.877,5.48 2,6.335 3.708,6.321C5.371,6.307 6.617,5.393 7.022,3.672C7.542,1.459 7.539,-0.802 7.04,-3.016C6.621,-4.878 5.298,-5.836 3.554,-5.77C1.77,-5.703 0.576,-4.613 0.163,-2.753C-0.058,-1.761 0.041,-0.767 0,0.179M-4.601,0.149C-4.641,-1.217 -4.646,-2.669 -4.241,-4.085C-2.958,-8.571 0.907,-10.146 4.732,-9.653C9.142,-9.084 11.339,-6.758 11.833,-2.291C12.097,0.086 12.152,2.486 11.473,4.825C10.527,8.078 7.732,10.159 4.326,10.26C2.102,10.325 0.009,9.992 -1.763,8.537C-3.672,6.971 -4.425,4.841 -4.592,2.46C-4.644,1.722 -4.601,0.978 -4.601,0.149" style="fill:white;fill-rule:nonzero;"/>
    </g>
    <g transform="matrix(8.33333,0,0,8.33333,1360.57,106.498)">
        <path d="M0,7.514C0,6.917 -0.032,6.318 0.009,5.723C0.045,5.197 -0.075,4.954 -0.67,5.005C-1.376,5.065 -2.091,5.018 -2.802,5.033C-5.428,5.084 -5.947,5.632 -5.852,8.231C-5.806,9.499 -5.274,10.025 -3.99,10.207C-2.879,10.364 -1.783,10.287 -0.676,10.199C-0.116,10.154 0.048,9.926 0.01,9.39C-0.034,8.767 0,8.139 0,7.514M4.609,5.852C4.609,7.904 4.588,9.955 4.623,12.006C4.633,12.592 4.449,12.892 3.882,13.038C0.558,13.898 -2.8,14.113 -6.169,13.42C-9.232,12.791 -10.66,10.795 -10.554,7.663C-10.421,3.701 -8.109,2.325 -4.361,1.988C-3.116,1.876 -1.857,1.887 -0.604,1.895C-0.117,1.899 0.002,1.758 0.012,1.278C0.074,-1.806 -0.485,-2.379 -3.552,-2.345C-5.176,-2.327 -6.8,-2.316 -8.415,-2.132C-9.219,-2.04 -9.502,-2.365 -9.43,-3.147C-9.381,-3.684 -9.398,-4.23 -9.427,-4.77C-9.454,-5.295 -9.191,-5.612 -8.726,-5.686C-5.83,-6.142 -2.927,-6.599 -0.005,-5.894C2.87,-5.201 4.566,-3.081 4.6,-0.131C4.622,1.863 4.604,3.858 4.604,5.852L4.609,5.852Z" style="fill:white;fill-rule:nonzero;"/>
    </g>
    <g transform="matrix(8.33333,0,0,8.33333,1484.59,52.3541)">
        <path d="M0,20.274C-1.743,20.295 -3.459,20.057 -5.169,19.747C-5.992,19.598 -6.388,19.204 -6.346,18.301C-6.253,16.352 -6.837,15.952 -4.09,16.291C-2.458,16.492 -0.8,16.607 0.856,16.513C2.083,16.444 2.702,15.892 2.654,14.919C2.621,14.242 2.172,13.839 1.661,13.515C0.245,12.618 -1.187,11.749 -2.61,10.863C-3.284,10.443 -3.984,10.06 -4.572,9.512C-6.264,7.939 -6.879,6.028 -6.271,3.791C-5.708,1.719 -4.13,0.784 -2.162,0.451C0.631,-0.021 3.393,0.342 6.132,0.943C6.293,0.978 6.467,1.036 6.595,1.136C6.928,1.395 7.005,3.957 6.695,4.256C6.468,4.474 6.19,4.435 5.896,4.408C4.083,4.24 2.273,4.009 0.447,4.018C0.248,4.019 0.044,3.998 -0.15,4.032C-0.85,4.156 -1.604,4.222 -1.824,5.092C-2.049,5.982 -1.348,6.289 -0.783,6.642C0.854,7.664 2.516,8.648 4.151,9.673C5.5,10.519 6.696,11.525 7.153,13.137C8.093,16.447 6.174,19.43 2.718,20.101C1.815,20.276 0.911,20.291 0,20.274" style="fill:white;fill-rule:nonzero;"/>
    </g>
    <g transform="matrix(8.33333,0,0,8.33333,396.548,137.927)">
        <path d="M0,-5.568C0,-8.646 -0.001,-11.725 0,-14.803C0.001,-15.792 0.151,-15.946 1.124,-15.957C1.921,-15.965 2.72,-15.961 3.518,-15.958C4.682,-15.955 4.801,-15.839 4.801,-14.704C4.802,-9.004 4.8,-3.303 4.802,2.398C4.803,5.396 5.311,5.898 8.334,5.899C10.073,5.899 11.812,5.92 13.55,5.889C14.291,5.876 14.593,6.17 14.552,6.901C14.521,7.469 14.517,8.042 14.554,8.61C14.59,9.161 14.384,9.498 13.84,9.578C10.792,10.021 7.723,10.397 4.676,9.726C1.642,9.057 0.048,6.947 0.014,3.753C-0.019,0.646 0.007,-2.461 0.007,-5.568L0,-5.568Z" style="fill:white;fill-rule:nonzero;"/>
    </g>
    <g transform="matrix(8.33333,0,0,8.33333,1575.4,134.261)">
        <path d="M0,-2.816C0,-5.781 0.012,-8.746 -0.009,-11.711C-0.014,-12.391 0.18,-12.772 0.915,-12.86C1.843,-12.972 2.76,-13.18 3.684,-13.336C4.348,-13.448 4.644,-13.119 4.647,-12.482C4.652,-11.627 4.678,-10.77 4.638,-9.917C4.614,-9.418 4.785,-9.297 5.263,-9.309C6.544,-9.341 7.828,-9.307 9.111,-9.325C9.854,-9.336 10.196,-9.049 10.185,-8.263C10.144,-5.559 10.459,-5.829 7.764,-5.826C6.909,-5.825 6.052,-5.798 5.198,-5.837C4.729,-5.858 4.639,-5.685 4.641,-5.256C4.656,-1.721 4.645,1.814 4.655,5.349C4.658,6.417 5.075,6.827 6.17,6.854C7.167,6.879 8.166,6.887 9.163,6.86C9.86,6.842 10.2,7.046 10.188,7.828C10.142,10.632 10.461,10.101 7.838,10.383C6.407,10.537 4.939,10.593 3.497,10.288C1.347,9.835 0.103,8.457 0.059,6.248C0,3.228 0.044,0.205 0.044,-2.816L0,-2.816Z" style="fill:white;fill-rule:nonzero;"/>
    </g>
    <g transform="matrix(8.33333,0,0,8.33333,1201.37,110.767)">
        <path d="M0,-0.255C0,-4.161 -0.001,-8.067 0.001,-11.972C0.001,-13.192 0.092,-13.279 1.311,-13.281C2.109,-13.283 2.909,-13.254 3.706,-13.29C4.381,-13.321 4.632,-12.989 4.642,-12.376C4.646,-12.177 4.644,-11.977 4.644,-11.777L4.644,11.486C4.644,12.961 4.542,13.06 3.037,13.061C2.41,13.061 1.783,13.066 1.155,13.059C0.219,13.05 0.006,12.848 0.003,11.89C-0.005,8.783 0,5.675 0,2.567L0,-0.255Z" style="fill:white;fill-rule:nonzero;"/>
    </g>
</svg>
