<?xml version="1.0" encoding="UTF-8" standalone="no"?>
<!DOCTYPE svg PUBLIC "-//W3C//DTD SVG 1.1//EN" "http://www.w3.org/Graphics/SVG/1.1/DTD/svg11.dtd">
<svg width="100%" height="100%" viewBox="0 0 993 521" version="1.1" xmlns="http://www.w3.org/2000/svg" xmlns:xlink="http://www.w3.org/1999/xlink" xml:space="preserve" xmlns:serif="http://www.serif.com/" style="fill-rule:evenodd;clip-rule:evenodd;stroke-linejoin:round;stroke-miterlimit:2;">
    <g transform="matrix(1,0,0,1,-0.0001,-0.0004)">
        <path id="path3601" d="M992.024,0L0,0L0,520.755L992.024,520.755L992.024,0ZM776.962,418.374C782.486,418.166 787.408,414.82 789.585,409.727L808.741,377.886L799.284,377.886L787.759,398.796L786.346,377.886L777.421,377.886L781.218,408.918C780.516,410.15 779.211,410.852 777.844,410.816C776.611,410.744 775.46,410.322 774.47,409.583L769.8,415.944C771.87,417.528 774.362,418.374 776.962,418.374ZM599.093,396.799L620.148,396.799C621.057,394.648 621.588,392.363 621.696,390.051C621.867,386.704 620.571,383.438 618.178,381.116C615.757,378.804 612.482,377.607 609.144,377.886C599.022,377.994 590.907,386.218 590.871,396.304C590.655,400.065 592.104,403.753 594.839,406.354C597.583,408.954 601.344,410.223 605.105,409.8C609.387,409.908 613.571,408.459 616.909,405.76L612.905,400.344C610.971,401.855 608.623,402.737 606.157,402.773C604.403,403.051 602.576,402.557 601.2,401.36C599.869,400.205 599.1,398.538 599.093,396.799ZM666.781,409.872C668.967,409.908 671.109,409.448 673.106,408.603L675.149,401.153C673.745,401.783 672.234,402.134 670.686,402.17C670.02,402.449 669.246,402.35 668.716,401.855C668.158,401.397 667.942,400.659 668.122,399.957C668.086,399.498 668.086,399.048 668.122,398.589L671.568,385.651L678.766,385.651L680.808,378.166L673.781,378.166L675.886,370.257L667.168,370.257L665.099,377.887L661.374,377.887L659.331,385.372L663.056,385.372L659.331,399.606C659.017,400.875 658.81,402.17 658.81,403.475C658.981,405.337 659.898,407.056 661.41,408.217C662.885,409.377 664.784,409.836 666.646,409.521L666.781,409.872ZM466.843,409.872C471.269,409.872 475.489,408.072 478.575,404.878L474.113,399.219C472.322,401.009 469.902,402.098 467.365,402.242C465.646,402.242 463.991,401.54 462.83,400.236C461.669,398.94 461.147,397.212 461.354,395.494C461.076,390.15 464.908,385.516 470.217,384.778C473.06,384.67 475.696,386.254 476.965,388.818L483.713,384.103C481.113,379.605 476.227,377.005 471.09,377.355C466.105,377.184 461.255,379.047 457.702,382.529C454.157,386.002 452.15,390.788 452.186,395.773C452.042,399.642 453.59,403.367 456.406,406.039C459.213,408.711 463.046,410.007 466.879,409.656L466.843,409.872ZM498.612,409.872C508.347,409.656 516.22,401.819 516.427,392.048C516.643,388.116 515.131,384.319 512.288,381.575C509.436,378.867 505.567,377.499 501.635,377.886C491.9,378.094 484.064,385.966 483.812,395.701C483.676,399.606 485.224,403.403 488.067,406.075C490.911,408.747 494.779,410.079 498.684,409.656L498.612,409.872ZM640.32,409.872C644.711,409.836 648.895,408.045 651.918,404.878L647.455,399.219C645.664,401.045 643.271,402.098 640.707,402.242C638.988,402.242 637.333,401.54 636.172,400.236C635.048,398.94 634.49,397.212 634.733,395.494C634.418,390.15 638.278,385.516 643.55,384.778C646.402,384.706 649.038,386.29 650.298,388.818L657.046,384.103C654.482,379.605 649.596,377.005 644.432,377.355C634.454,377.427 626.365,385.516 626.293,395.494C626.086,399.255 627.49,402.944 630.126,405.616C632.762,408.324 636.415,409.8 640.176,409.656L640.32,409.872ZM759.003,409.727C761.19,409.763 763.367,409.34 765.365,408.459L767.371,401.045C765.967,401.684 764.42,401.999 762.872,402.035C762.314,402.205 761.676,402.071 761.217,401.711C760.767,401.36 760.479,400.802 760.479,400.235C760.45,399.785 760.45,399.326 760.479,398.868L763.925,385.902L771.168,385.902L773.174,378.417L765.967,378.417L768.037,370.544L759.354,370.544L757.744,377.886L754.019,377.886L751.977,385.372L755.845,385.372L752.121,399.362C751.769,400.586 751.553,401.891 751.517,403.186C751.625,405.085 752.507,406.848 753.983,408.072C755.422,409.268 757.321,409.799 759.219,409.52L759.003,409.727ZM679.791,409.34L688.366,409.34L696.661,377.886L687.871,377.886L679.791,409.34ZM730.824,409.196L739.569,409.196L748.009,377.886L739.326,377.886L730.824,409.196ZM705.236,409.196L713.144,409.196L733.388,378.165L724.004,378.165L711.768,398.409L710.364,378.165L701.862,378.165L705.236,409.196ZM517.624,409.134L526.414,409.134L531.048,391.382C531.372,387.9 534.323,385.228 537.796,385.228C538.894,385.057 540.018,385.372 540.855,386.11C541.665,386.848 542.124,387.9 542.052,389.025C542.052,389.943 541.908,390.887 541.664,391.805L537.13,408.711L545.92,408.711L550.383,392.192C550.941,390.294 551.264,388.323 551.363,386.326C551.399,383.932 550.419,381.647 548.655,380.064C546.937,378.444 544.579,377.643 542.195,377.886C539.028,378.066 536.041,379.398 533.828,381.683L534.637,377.886L525.883,377.886L517.624,409.134ZM553.262,409.134L561.981,409.134L566.902,391.382C567.217,387.9 570.132,385.228 573.65,385.228C574.739,385.057 575.863,385.372 576.673,386.11C577.519,386.848 577.933,387.9 577.897,389.025C577.868,389.943 577.726,390.887 577.483,391.805L572.984,408.711L581.658,408.711L586.129,392.192C586.687,390.366 587.002,388.503 587.146,386.605C587.254,384.139 586.3,381.755 584.474,380.064C582.683,378.381 580.218,377.571 577.762,377.886C574.559,378.066 571.572,379.398 569.322,381.683L570.276,377.886L561.486,377.886L553.262,409.134ZM498.999,402.386C497.209,402.485 495.41,401.819 494.114,400.523C492.809,399.255 492.144,397.464 492.252,395.638C492.18,390.5 496.012,386.146 501.105,385.516C502.931,385.408 504.731,386.074 505.99,387.342C507.295,388.638 507.961,390.437 507.853,392.264C507.853,397.32 504.092,401.612 499.071,402.242L498.999,402.386ZM599.093,396.799L599.094,396.655L599.022,396.799L599.093,396.799ZM599.832,391.382C600.921,387.477 604.439,384.778 608.479,384.634C609.774,384.427 611.079,384.814 612.06,385.687C613.049,386.569 613.571,387.828 613.535,389.169C613.643,389.835 613.643,390.5 613.535,391.175L600.039,391.175L599.832,391.382ZM739.785,374.971L749.097,374.971L751.167,367.233L742.349,367.233L739.785,374.971ZM688.366,374.791L697.534,374.791L699.684,367.026L690.507,367.026L688.366,374.791ZM413.381,307.311C413.381,291.107 400.272,277.998 384.104,277.998L184.687,277.998C168.519,277.998 155.446,291.107 155.446,307.275C155.446,323.408 168.519,336.517 184.687,336.517L384.104,336.517C400.236,336.517 413.345,323.444 413.381,307.311ZM700.98,133.205L646.996,334.762L808.947,334.762L820.761,290.163L710.895,290.163L720.801,253.508L818.934,253.508L830.073,212.84L731.732,212.84L741.395,177.66L850.911,177.66L863.003,133.268L701.052,133.268L700.98,133.203L700.98,133.205ZM509.679,133.205L497.245,179.1L558.921,179.1L516.958,334.762L570.06,334.762L611.78,179.1L673.466,179.1L685.585,133.205L509.679,133.205ZM96.685,233.821C96.685,241.595 99.744,249.081 105.259,254.56C110.748,260.076 118.197,263.171 125.998,263.171L325.378,263.171C341.546,263.171 354.655,250.062 354.655,233.929C354.655,217.761 341.546,204.652 325.378,204.652L125.998,204.652C118.233,204.652 110.775,207.711 105.295,213.191C99.816,218.643 96.721,226.057 96.685,233.821ZM423.224,190.104L223.844,190.104C207.676,190.104 194.566,176.995 194.566,160.826C194.566,144.694 207.676,131.585 223.844,131.585L423.224,131.585C439.392,131.585 452.501,144.694 452.501,160.826C452.501,176.995 439.392,190.104 423.224,190.104Z" style="fill:white;"/>
    </g>
</svg>
