<?xml version="1.0" encoding="UTF-8" standalone="no"?>
<!DOCTYPE svg PUBLIC "-//W3C//DTD SVG 1.1//EN" "http://www.w3.org/Graphics/SVG/1.1/DTD/svg11.dtd">
<svg width="100%" height="100%" viewBox="0 0 501 393" version="1.1" xmlns="http://www.w3.org/2000/svg" xmlns:xlink="http://www.w3.org/1999/xlink" xml:space="preserve" xmlns:serif="http://www.serif.com/" style="fill-rule:evenodd;clip-rule:evenodd;stroke-linejoin:round;stroke-miterlimit:2;">
    <g transform="matrix(1,0,0,1,-8,-72)">
        <path d="M508.808,384L408,303.352L408,352L335.904,352C348.984,334.592 358.448,314.744 363.544,293.552L392,286.192L392,225.768L363.584,218.576C359.688,202.352 353.264,186.904 344.424,172.512L359.48,147.256L316.728,104.512L291.472,119.56C277.088,110.728 261.64,104.296 245.416,100.4L238.224,72L177.768,72L170.576,100.416C154.352,104.312 138.904,110.736 124.52,119.576L99.264,104.528L56.512,147.272L71.568,172.528C62.736,186.912 56.304,202.368 52.408,218.592L24,225.776L24,286.216L52.432,293.472C57.632,315.136 67.28,334.912 80.184,352L8,352L8,416L408,416L408,464.648L508.808,384ZM24,400L24,368L94.096,368C107.032,381.104 122.128,391.952 138.776,400L24,400ZM208,400C140.04,400 80.744,351.768 67,285.32L65.984,280.424L40,273.784L40,238.224L65.968,231.656L66.984,226.744C70.632,209.08 77.584,192.36 87.648,177.048L90.4,172.864L76.64,149.776L101.776,124.64L124.864,138.408L129.048,135.656C144.36,125.592 161.08,118.64 178.744,114.992L183.656,113.976L190.224,88L225.768,88L232.336,113.968L237.248,114.984C254.912,118.632 271.632,125.584 286.944,135.648L291.128,138.4L314.216,124.632L339.352,149.768L325.592,172.856L328.344,177.04C338.408,192.352 345.36,209.072 349.008,226.736L350.024,231.648L376,238.224L376,273.8L349.992,280.528L348.984,285.4C343.84,310.168 332.16,333.088 315.224,351.992L265.4,351.992C298.04,332.408 320,296.768 320,256C320,194.24 269.76,144 208,144C146.24,144 96,194.24 96,256C96,317.76 146.24,368 208,368L424,368L424,336.648L483.192,384L424,431.352L424,400L208,400ZM208,352C155.064,352 112,308.936 112,256C112,203.064 155.064,160 208,160C260.936,160 304,203.064 304,256C304,308.936 260.936,352 208,352Z" style="fill-rule:nonzero;"/>
        <path d="M148.568,232.184L133.712,226.248C131.512,231.752 129.928,237.504 128.992,243.344L144.8,245.856C145.536,241.192 146.808,236.592 148.568,232.184Z" style="fill-rule:nonzero;"/>
        <path d="M144.128,260.056L128.16,261.04C128.528,266.968 129.552,272.848 131.224,278.528L146.576,274.032C145.248,269.496 144.424,264.792 144.128,260.056Z" style="fill-rule:nonzero;"/>
        <path d="M138.08,294.896C140.968,300.072 144.432,304.928 148.376,309.336L160.296,298.664C157.136,295.136 154.36,291.248 152.056,287.104L138.08,294.896Z" style="fill-rule:nonzero;"/>
        <path d="M232,256C232,245.584 225.288,236.784 216,233.472L216,176L200,176L200,233.472C190.712,236.784 184,245.584 184,256C184,269.232 194.768,280 208,280C211.696,280 215.152,279.096 218.28,277.592L242.344,301.656L253.656,290.344L229.592,266.28C231.096,263.152 232,259.696 232,256ZM208,264C203.592,264 200,260.408 200,256C200,251.592 203.592,248 208,248C212.408,248 216,251.592 216,256C216,260.408 212.408,264 208,264Z" style="fill-rule:nonzero;"/>
    </g>
</svg>
