<svg xmlns="http://www.w3.org/2000/svg" xml:space="preserve" style="fill-rule:evenodd;clip-rule:evenodd;stroke-linejoin:round;stroke-miterlimit:2" viewBox="0 0 512 241"><path d="M392 286c-16.542 0-30 13.458-30 30s13.458 30 30 30 30-13.458 30-30-13.458-30-30-30m0 45c-8.271 0-15-6.729-15-15s6.729-15 15-15 15 6.729 15 15-6.729 15-15 15M120 346c16.542 0 30-13.458 30-30s-13.458-30-30-30-30 13.458-30 30 13.458 30 30 30m0-45c8.271 0 15 6.729 15 15s-6.729 15-15 15-15-6.729-15-15 6.729-15 15-15" style="fill-rule:nonzero" transform="translate(0 -135.999)"/><path d="m492 300.924-140.34-74.058a7.5 7.5 0 0 0-3.5-.867H263.5v-22.5c0-4.136 3.364-7.5 7.5-7.5a7.5 7.5 0 0 0 7.5-7.5v-45a7.5 7.5 0 0 0-7.5-7.5h-37.355a37.4 37.4 0 0 0-28.862 13.557l-77.667 93.62C124.522 225.012 108.87 211 90 211H7.5a7.5 7.5 0 0 0-7.5 7.5v75a7.5 7.5 0 0 0 7.5 7.5h54.399A60 60 0 0 0 60 316c0 33.084 26.916 60 60 60s60-26.916 60-60c0-17.908-7.896-33.997-20.377-45h192.754C339.896 282.003 332 298.092 332 316a59.6 59.6 0 0 0 8.072 30H193.474a7.5 7.5 0 0 0 0 15h158.903c10.578 9.325 24.446 15 39.623 15s29.045-5.675 39.623-15H504.5a7.5 7.5 0 0 0 7.5-7.5v-19.409a37.41 37.41 0 0 0-20-33.167M374.728 256H135.967l12.444-15h197.892zm-158.401-96.866A22.44 22.44 0 0 1 233.644 151H263.5v31.285c-8.73 3.095-15 11.437-15 21.215V226h-87.645zM15 286v-60h75c12.407 0 22.5 10.093 22.5 22.5v7.985c-18.983 2.38-35.229 13.654-44.428 29.515zm150 30c0 24.813-20.187 45-45 45s-45-20.187-45-45 20.187-45 45-45 45 20.187 45 45m227 45c-24.813 0-45-20.187-45-45s20.187-45 45-45 45 20.187 45 45-20.187 45-45 45m105-15h-53.072A59.6 59.6 0 0 0 452 316a59.7 59.7 0 0 0-3.916-21.29L485 314.191a22.45 22.45 0 0 1 12 19.9z" style="fill-rule:nonzero" transform="translate(0 -135.999)"/><path d="M256 316h-53.5a7.5 7.5 0 0 0 0 15H256a7.5 7.5 0 0 0 7.5-7.5 7.5 7.5 0 0 0-7.5-7.5M256 286h-56.619a7.5 7.5 0 0 0 0 15H256a7.5 7.5 0 0 0 7.5-7.5 7.5 7.5 0 0 0-7.5-7.5" style="fill-rule:nonzero" transform="translate(0 -135.999)"/></svg>