<svg xmlns="http://www.w3.org/2000/svg" xml:space="preserve" style="fill-rule:evenodd;clip-rule:evenodd;stroke-linejoin:round;stroke-miterlimit:2" viewBox="0 0 315 472"><path d="M456 144c13.255 0 24-10.745 24-24v-16c0-13.255-10.745-24-24-24h-96c-13.255 0-24 10.745-24 24v16c0 13.255 10.745 24 24 24h24v37.784L363.472 216h-98.888l-110.4-15.776L103.2 178.4 97.44 144H120c13.255 0 24-10.745 24-24v-16c0-13.255-10.745-24-24-24H24C10.745 80 0 90.745 0 104v16c0 13.255 10.745 24 24 24h22.56l-6.448 38.688a5 5 0 0 0 0 .616q-.074.345-.112.696v112q.054.352.144.696a5 5 0 0 0 0 .616L46.56 336H24c-13.255 0-24 10.745-24 24v16c0 13.255 10.745 24 24 24h96c13.255 0 24-10.745 24-24v-16c0-13.255-10.745-24-24-24H97.44l5.728-34.4 50.992-21.848L264.584 264h98.888L384 298.216V336h-24c-13.255 0-24 10.745-24 24v16c0 13.255 10.745 24 24 24h96c13.255 0 24-10.745 24-24v-16c0-13.255-10.745-24-24-24h-24V144zM24 128a8 8 0 0 1-8-8v-16a8 8 0 0 1 8-8h96a8 8 0 0 1 8 8v16a8 8 0 0 1-8 8zm62.552 48H57.448l5.328-32h18.448zM120 352a8 8 0 0 1 8 8v16a8 8 0 0 1-8 8H24a8 8 0 0 1-8-8v-16a8 8 0 0 1 8-8zm-62.552-48h29.104l-5.328 32H62.776zM144 266.728 94.4 288H56v-96h38.4l49.6 21.272zm112-17.664-96 13.712v-45.552l96 13.712zM360 248h-88v-16h88zm16 5.784v-27.568L396.528 192H416v96h-19.472zM400 176v-32h16v32zm16 128v32h-16v-32zm40 48a8 8 0 0 1 8 8v16a8 8 0 0 1-8 8h-96a8 8 0 0 1-8-8v-16a8 8 0 0 1 8-8zm-96-224a8 8 0 0 1-8-8v-16a8 8 0 0 1 8-8h96a8 8 0 0 1 8 8v16a8 8 0 0 1-8 8z" style="fill-rule:nonzero" transform="scale(.98225)rotate(-89.957 200.13 280)"/></svg>