<svg xmlns="http://www.w3.org/2000/svg" xml:space="preserve" style="fill-rule:evenodd;clip-rule:evenodd;stroke-linejoin:round;stroke-miterlimit:2" viewBox="0 0 481 480"><path d="M358.8 219.76A8.01 8.01 0 0 0 352 216h-88V96c-.026-4.371-3.629-7.953-8-7.953a8.01 8.01 0 0 0-7.12 4.353l-96 192a8 8 0 0 0-.856 3.6c0 4.38 3.596 7.987 7.976 8h88v120a8.02 8.02 0 0 0 6.16 7.76 7.3 7.3 0 0 0 1.84.24 8.01 8.01 0 0 0 7.12-4.4l96-192a8.06 8.06 0 0 0-.32-7.84M264 382.08V288c0-4.389-3.611-8-8-8h-83.04L248 129.92V224c0 4.389 3.611 8 8 8h83.04z" style="fill-rule:nonzero" transform="translate(-15.999 -16)"/><path d="M451.28 116.64c12.526-15.773 11.245-38.681-2.96-52.96l-22.64-22.64c-3.143-2.983-8.137-2.983-11.28 0l-5.68 5.68-22.64-22.64-11.28 11.28L397.44 58l-11.36 11.36-22.64-22.64L352.16 58l22.64 22.64-5.68 5.68c-3.081 3.1-3.081 8.18 0 11.28l22.64 22.64c12.416 12.519 31.783 15.276 47.2 6.72A221.46 221.46 0 0 1 480 256c-.11 122.917-101.283 223.999-224.2 223.999a224.2 224.2 0 0 1-84.76-16.639l-6.08 14.8A240.2 240.2 0 0 0 255.8 496c131.694 0 240.09-108.306 240.2-240a237.4 237.4 0 0 0-44.72-139.36m-14.24-7.68c-9.373 9.221-24.627 9.221-34 0l-16.96-17.04 34-33.92 16.96 16.96c9.297 9.339 9.297 24.661 0 34M256 16c-131.599.162-239.838 108.401-240 240a237.4 237.4 0 0 0 44.72 139.36c-12.526 15.773-11.245 38.681 2.96 52.96l22.64 22.64a7.74 7.74 0 0 0 5.6 2.32 7.93 7.93 0 0 0 5.68-2.32l5.68-5.68 22.64 22.64 11.28-11.28L114.56 454l11.36-11.36 22.64 22.64L159.84 454l-22.64-22.64 5.68-5.68c3.081-3.1 3.081-8.18 0-11.28l-22.64-22.64c-12.482-12.393-31.755-15.137-47.2-6.72A221.46 221.46 0 0 1 32 256c.136-122.831 101.169-223.864 224-224a221.9 221.9 0 0 1 84.96 16.72l6.08-14.88A239.45 239.45 0 0 0 256 16M74.96 403.04c9.373-9.221 24.627-9.221 34 0l16.96 17.04-34 33.92-16.96-16.96c-9.297-9.339-9.297-24.661 0-34" style="fill-rule:nonzero" transform="translate(-15.999 -16)"/></svg>