<?xml version="1.0" encoding="UTF-8" standalone="no"?>
<!DOCTYPE svg PUBLIC "-//W3C//DTD SVG 1.1//EN" "http://www.w3.org/Graphics/SVG/1.1/DTD/svg11.dtd">
<svg width="100%" height="100%" viewBox="0 0 683 683" version="1.1" xmlns="http://www.w3.org/2000/svg" xmlns:xlink="http://www.w3.org/1999/xlink" xml:space="preserve" style="fill-rule:evenodd;clip-rule:evenodd;stroke-linejoin:round;stroke-miterlimit:2;">
    <path d="M625.672,21L56.297,21C36.801,21.012 20.996,36.824 21,56.328L21,625.703C21.012,645.199 36.824,661.004 56.328,661L362.875,661L362.875,413.5L279.75,413.5L279.75,316.625L362.875,316.625L362.875,245.332C362.875,162.656 413.348,117.656 487.098,117.656C522.422,117.656 552.777,120.289 561.625,121.465L561.625,207.875L510.77,207.875C470.645,207.875 462.875,226.941 462.875,254.926L462.875,316.625L558.813,316.625L546.313,413.5L462.875,413.5L462.875,661L625.672,661C645.18,661.004 660.996,645.195 661,625.688L661,56.297C660.992,36.801 645.176,20.996 625.672,21Z" style="fill:white;fill-rule:nonzero;"/>
</svg>
