<svg xmlns="http://www.w3.org/2000/svg" xml:space="preserve" style="fill-rule:evenodd;clip-rule:evenodd;stroke-linejoin:round;stroke-miterlimit:2" viewBox="0 0 683 683"><path d="M625.672 21H56.297C36.801 21.012 20.996 36.824 21 56.328v569.375c.012 19.496 15.824 35.301 35.328 35.297h306.547V413.5H279.75v-96.875h83.125v-71.293c0-82.676 50.473-127.676 124.223-127.676 35.324 0 65.679 2.633 74.527 3.809v86.41H510.77c-40.125 0-47.895 19.066-47.895 47.051v61.699h95.938l-12.5 96.875h-83.438V661h162.797c19.508.004 35.324-15.805 35.328-35.312V56.297c-.008-19.496-15.824-35.301-35.328-35.297" style="fill:#fff;fill-rule:nonzero"/></svg>