<?xml version="1.0" encoding="UTF-8" standalone="no"?>
<!DOCTYPE svg PUBLIC "-//W3C//DTD SVG 1.1//EN" "http://www.w3.org/Graphics/SVG/1.1/DTD/svg11.dtd">
<svg width="100%" height="100%" viewBox="0 0 511 511" version="1.1" xmlns="http://www.w3.org/2000/svg" xmlns:xlink="http://www.w3.org/1999/xlink" xml:space="preserve" style="fill-rule:evenodd;clip-rule:evenodd;stroke-linejoin:round;stroke-miterlimit:2;">
    <path d="M510.5,150.235C509.303,123.084 504.912,104.418 498.623,88.243C492.134,71.074 482.152,55.703 469.073,42.924C456.295,29.947 440.822,19.863 423.852,13.476C407.584,7.187 389.015,2.796 361.863,1.599C334.509,0.3 325.825,-0 256.448,-0C187.07,-0 178.386,0.3 151.133,1.497C123.982,2.694 105.315,7.089 89.145,13.375C71.972,19.863 56.6,29.846 43.822,42.924C30.845,55.703 20.765,71.175 14.374,88.146C8.084,104.418 3.693,122.983 2.496,150.134C1.198,177.488 0.898,186.172 0.898,255.55C0.898,324.928 1.198,333.612 2.395,360.864C3.592,388.016 7.987,406.682 14.276,422.857C20.765,440.026 30.845,455.397 43.822,468.175C56.6,481.153 72.073,491.236 89.043,497.624C105.315,503.913 123.88,508.304 151.036,509.501C178.284,510.702 186.972,510.998 256.35,510.998C325.728,510.998 334.412,510.702 361.665,509.501C388.816,508.304 407.482,503.913 423.653,497.624C457.995,484.346 485.146,457.195 498.424,422.857C504.71,406.585 509.104,388.016 510.301,360.864C511.498,333.612 511.799,324.928 511.799,255.55C511.799,186.172 511.697,177.488 510.5,150.235ZM464.483,358.868C463.384,383.824 459.192,397.3 455.698,406.284C447.112,428.546 429.444,446.214 407.182,454.801C398.198,458.294 384.624,462.486 359.766,463.582C332.813,464.783 324.73,465.079 256.549,465.079C188.368,465.079 180.183,464.783 153.328,463.582C128.372,462.486 114.896,458.294 105.912,454.801C94.834,450.706 84.75,444.218 76.565,435.733C68.08,427.446 61.592,417.464 57.497,406.386C54.003,397.402 49.811,383.824 48.716,358.969C47.515,332.017 47.218,323.929 47.218,255.749C47.218,187.568 47.515,179.383 48.716,152.532C49.811,127.576 54.003,114.1 57.497,105.116C61.592,94.034 68.08,83.954 76.667,75.765C84.949,67.28 94.931,60.791 106.013,56.701C114.997,53.207 128.575,49.015 153.43,47.916C180.382,46.718 188.47,46.418 256.646,46.418C324.928,46.418 333.012,46.718 359.867,47.916C384.823,49.015 398.299,53.207 407.283,56.701C418.362,60.791 428.445,67.28 436.63,75.765C445.115,84.051 451.604,94.034 455.698,105.116C459.192,114.1 463.384,127.674 464.483,152.532C465.681,179.485 465.981,187.568 465.981,255.749C465.981,323.929 465.681,331.915 464.483,358.868Z" style="fill:white;fill-rule:nonzero;"/>
    <path d="M256.448,124.281C183.978,124.281 125.179,183.076 125.179,255.55C125.179,328.024 183.978,386.819 256.448,386.819C328.921,386.819 387.716,328.024 387.716,255.55C387.716,183.076 328.921,124.281 256.448,124.281ZM256.448,340.701C209.433,340.701 171.297,302.569 171.297,255.55C171.297,208.531 209.433,170.399 256.448,170.399C303.466,170.399 341.598,208.531 341.598,255.55C341.598,302.569 303.466,340.701 256.448,340.701Z" style="fill:white;fill-rule:nonzero;"/>
    <path d="M423.556,119.091C423.556,136.014 409.834,149.736 392.906,149.736C375.983,149.736 362.261,136.014 362.261,119.091C362.261,102.164 375.983,88.446 392.906,88.446C409.834,88.446 423.556,102.164 423.556,119.091Z" style="fill:white;fill-rule:nonzero;"/>
</svg>
