<svg xmlns="http://www.w3.org/2000/svg" xml:space="preserve" style="fill-rule:evenodd;clip-rule:evenodd;stroke-linejoin:round;stroke-miterlimit:2" viewBox="0 0 511 511"><path d="M510.5 150.235c-1.197-27.151-5.588-45.817-11.877-61.992-6.489-17.169-16.471-32.54-29.55-45.319-12.778-12.977-28.251-23.061-45.221-29.448-16.268-6.289-34.837-10.68-61.989-11.877C334.509.3 325.825 0 256.448 0s-78.062.3-105.315 1.497c-27.151 1.197-45.818 5.592-61.988 11.878C71.972 19.863 56.6 29.846 43.822 42.924 30.845 55.703 20.765 71.175 14.374 88.146c-6.29 16.272-10.681 34.837-11.878 61.988C1.198 177.488.898 186.172.898 255.55s.3 78.062 1.497 105.314c1.197 27.152 5.592 45.818 11.881 61.993 6.489 17.169 16.569 32.54 29.546 45.318 12.778 12.978 28.251 23.061 45.221 29.449 16.272 6.289 34.837 10.68 61.993 11.877 27.248 1.201 35.936 1.497 105.314 1.497s78.062-.296 105.315-1.497c27.151-1.197 45.817-5.588 61.988-11.877a130.7 130.7 0 0 0 74.771-74.767c6.286-16.272 10.68-34.841 11.877-61.993 1.197-27.252 1.498-35.936 1.498-105.314s-.102-78.062-1.299-105.315m-46.017 208.633c-1.099 24.956-5.291 38.432-8.785 47.416-8.586 22.262-26.254 39.93-48.516 48.517-8.984 3.493-22.558 7.685-47.416 8.781-26.953 1.201-35.036 1.497-103.217 1.497s-76.366-.296-103.221-1.497c-24.956-1.096-38.432-5.288-47.416-8.781-11.078-4.095-21.162-10.583-29.347-19.068-8.485-8.287-14.973-18.269-19.068-29.347-3.494-8.984-7.686-22.562-8.781-47.417-1.201-26.952-1.498-35.04-1.498-103.22s.297-76.366 1.498-103.217c1.095-24.956 5.287-38.432 8.781-47.416 4.095-11.082 10.583-21.162 19.17-29.351 8.282-8.485 18.264-14.974 29.346-19.064 8.984-3.494 22.562-7.686 47.417-8.785 26.952-1.198 35.04-1.498 103.216-1.498 68.282 0 76.366.3 103.221 1.498 24.956 1.099 38.432 5.291 47.416 8.785 11.079 4.09 21.162 10.579 29.347 19.064 8.485 8.286 14.974 18.269 19.068 29.351 3.494 8.984 7.686 22.558 8.785 47.416 1.198 26.953 1.498 35.036 1.498 103.217s-.3 76.166-1.498 103.119" style="fill:#fff;fill-rule:nonzero"/><path d="M256.448 124.281c-72.47 0-131.269 58.795-131.269 131.269s58.799 131.269 131.269 131.269c72.473 0 131.268-58.795 131.268-131.269s-58.795-131.269-131.268-131.269m0 216.42c-47.015 0-85.151-38.132-85.151-85.151s38.136-85.151 85.151-85.151c47.018 0 85.15 38.132 85.15 85.151s-38.132 85.151-85.15 85.151M423.556 119.091c0 16.923-13.722 30.645-30.65 30.645-16.923 0-30.645-13.722-30.645-30.645 0-16.927 13.722-30.645 30.645-30.645 16.928 0 30.65 13.718 30.65 30.645" style="fill:#fff;fill-rule:nonzero"/></svg>