<?xml version="1.0" encoding="UTF-8" standalone="no"?>
<!DOCTYPE svg PUBLIC "-//W3C//DTD SVG 1.1//EN" "http://www.w3.org/Graphics/SVG/1.1/DTD/svg11.dtd">
<svg width="100%" height="100%" viewBox="0 0 682 682" version="1.1" xmlns="http://www.w3.org/2000/svg" xmlns:xlink="http://www.w3.org/1999/xlink" xml:space="preserve" style="fill-rule:evenodd;clip-rule:evenodd;stroke-linejoin:round;stroke-miterlimit:2;">
    <path d="M98.517,34.632C51.633,34.632 20.979,65.418 20.979,105.882C20.979,145.453 50.72,177.117 96.718,177.117L97.608,177.117C145.409,177.117 175.157,145.453 175.157,105.882C174.263,65.418 145.409,34.632 98.517,34.632Z" style="fill:white;fill-rule:nonzero;"/>
    <rect x="29.081" y="233.418" width="137.061" height="412.355" style="fill:white;fill-rule:nonzero;"/>
    <path d="M502.563,223.74C428.624,223.74 379.044,293.219 379.044,293.219L379.044,233.418L241.978,233.418L241.978,645.772L379.036,645.772L379.036,415.497C379.036,403.17 379.929,390.861 383.551,382.046C393.459,357.429 416.007,331.927 453.873,331.927C503.469,331.927 523.305,369.741 523.305,425.176L523.305,645.772L660.354,645.772L660.354,409.336C660.354,282.678 592.733,223.74 502.563,223.74Z" style="fill:white;fill-rule:nonzero;"/>
</svg>
