<svg xmlns="http://www.w3.org/2000/svg" xml:space="preserve" style="fill-rule:evenodd;clip-rule:evenodd;stroke-linejoin:round;stroke-miterlimit:2" viewBox="0 0 682 682"><path d="M98.517 34.632c-46.884 0-77.538 30.786-77.538 71.25 0 39.571 29.741 71.235 75.739 71.235h.89c47.801 0 77.549-31.664 77.549-71.235-.894-40.464-29.748-71.25-76.64-71.25M29.081 233.418h137.061v412.355H29.081zM502.563 223.74c-73.939 0-123.519 69.479-123.519 69.479v-59.801H241.978v412.354h137.058V415.497c0-12.327.893-24.636 4.515-33.451 9.908-24.617 32.456-50.119 70.322-50.119 49.596 0 69.432 37.814 69.432 93.249v220.596h137.049V409.336c0-126.658-67.621-185.596-157.791-185.596" style="fill:#fff;fill-rule:nonzero"/></svg>