<svg xmlns="http://www.w3.org/2000/svg" xml:space="preserve" style="fill-rule:evenodd;clip-rule:evenodd;stroke-linejoin:round;stroke-miterlimit:2" viewBox="0 0 2048 2048"><path d="M422.203 416.524c-48.728-48.757-127.872-48.78-176.628-.053L68.894 593.047c-48.756 48.728-48.779 127.872-.052 176.628l861.292 861.805c48.727 48.75 127.876 48.78 176.626.05l176.68-176.58c48.76-48.72 48.78-127.87.05-176.62z" style="fill:#fff"/><path d="M1979.14 769.812c48.73-48.749 48.72-127.893-.03-176.628l-176.65-176.601c-48.75-48.735-127.89-48.723-176.63.027l-861.415 861.68c-48.735 48.75-48.723 127.89.026 176.62l176.655 176.61c48.749 48.73 127.894 48.72 176.624-.03z" style="fill:#fff"/></svg>