<svg xmlns="http://www.w3.org/2000/svg" xml:space="preserve" style="fill-rule:evenodd;clip-rule:evenodd;stroke-linejoin:round;stroke-miterlimit:2" viewBox="0 0 480 416"><path d="M456 144H280v-16h24c4.389 0 8-3.611 8-8V56c0-4.389-3.611-8-8-8h-16V32c0-4.389-3.611-8-8-8h-32c-4.389 0-8 3.611-8 8v16h-16V32c0-4.389-3.611-8-8-8h-32c-4.389 0-8 3.611-8 8v16h-16c-4.389 0-8 3.611-8 8v64c0 4.389 3.611 8 8 8h24v16h-80c-13.166 0-24 10.834-24 24v56H24c-4.389 0-8 3.611-8 8v48c0 4.389 3.611 8 8 8h56v64c0 13.166 10.834 24 24 24h64v16h-32c-4.389 0-8 3.611-8 8v32c0 4.389 3.611 8 8 8h272c4.389 0 8-3.611 8-8v-32c0-4.389-3.611-8-8-8h-32v-16h80c21.933-.026 39.974-18.067 40-40V184c-.026-21.933-18.067-39.974-40-40m-56 216H152V160h248zM256 40h16v8h-16zm-64 0h16v8h-16zm-24 24h128v48H168zm32 64h64v16h-64zM32 272v-32h48v32zm104 88h-32c-4.389 0-8-3.611-8-8V168c0-4.389 3.611-8 8-8h32zm264 64H144v-16h256zm-40-32H184v-16h176zm120-56c0 13.166-10.834 24-24 24h-40V160h40c13.166 0 24 10.834 24 24z" style="fill-rule:nonzero" transform="translate(-16 -24)"/><path d="M432 184h32v16h-32zM432 216h32v16h-32zM176 176v160c0 4.389 3.611 8 8 8h184c4.389 0 8-3.611 8-8V176c0-4.389-3.611-8-8-8H184c-4.389 0-8 3.611-8 8m16 56h168v48H192zm0 64h168v8H192zm168-80H192v-8h168zM192 328v-8h168v8zm168-144v8H192v-8z" style="fill-rule:nonzero" transform="translate(-16 -24)"/></svg>