<svg version="1.1" id="Layer_1" xmlns="http://www.w3.org/2000/svg" xmlns:xlink="http://www.w3.org/1999/xlink" x="0px" y="0px"
	 width="100%" viewBox="0 0 496 496" enable-background="new 0 0 496 496" xml:space="preserve">
<path fill="#000000" opacity="1.000000" stroke="none" 
	d="
M75.662521,291.999939 
	C75.662376,228.945816 75.662376,166.391724 75.662376,103.837624 
	C76.218658,103.669640 76.774933,103.501656 77.331215,103.333672 
	C83.275215,110.884155 92.676811,114.957382 92.498825,127.928658 
	C91.748871,182.584381 92.206635,237.256653 92.222404,291.922882 
	C92.223015,294.060242 92.222481,296.197601 92.222481,298.334930 
	C92.650391,298.558044 93.078300,298.781128 93.506210,299.004211 
	C115.848373,272.134949 138.190521,245.265701 161.186325,217.610352 
	C205.650314,271.267731 249.675415,324.395477 294.098480,378.003479 
	C299.184631,372.658264 303.866516,367.781494 308.497711,362.857025 
	C312.149902,358.973511 315.772308,355.060699 319.342926,351.102295 
	C321.042145,349.218506 322.500061,348.464294 324.680023,350.653534 
	C348.903351,374.979797 373.188293,399.244690 397.437073,423.545654 
	C397.862488,423.972015 398.046265,424.639526 398.358521,425.223907 
	C396.727356,426.955597 394.785767,426.295288 393.076141,426.295929 
	C289.410248,426.334473 185.744324,426.301270 82.078606,426.434448 
	C77.088821,426.440857 75.533478,425.110138 75.556480,419.997528 
	C75.747734,377.499023 75.663597,334.999298 75.662521,291.999939 
z"/>
<path fill="#000000" opacity="1.000000" stroke="none" 
	d="
M421.995087,396.014282 
	C398.175476,372.200836 374.666656,348.579437 350.963867,325.154327 
	C347.801666,322.029205 347.902069,320.212524 350.886017,317.127380 
	C359.569031,308.149872 367.957977,298.886597 376.394348,289.673187 
	C377.850983,288.082367 378.975250,286.187164 380.528137,284.054871 
	C391.336945,293.640320 399.145569,304.220551 408.840027,313.149506 
	C410.299835,310.992035 409.756042,309.115387 409.757233,307.367767 
	C409.804504,237.883530 409.813965,168.399261 409.823730,98.914986 
	C409.824677,92.191872 409.811157,92.179794 402.776184,92.179787 
	C310.630310,92.179710 218.484360,92.134079 126.338799,92.302986 
	C120.543327,92.313606 116.086121,91.077156 112.365631,86.521217 
	C109.600960,83.135727 106.241341,80.236084 103.049644,77.022293 
	C105.384827,75.135849 107.282272,75.712791 109.020859,75.712234 
	C212.497498,75.679138 315.974121,75.680168 419.450775,75.684357 
	C426.307648,75.684631 426.323669,75.707787 426.323944,82.542053 
	C426.327698,186.018692 426.326874,289.495331 426.327148,392.971985 
	C426.327148,394.614532 426.327179,396.257080 426.327179,397.745819 
	C424.002167,398.861664 423.355072,397.046906 421.995087,396.014282 
z"/>
<path fill="#000000" opacity="1.000000" stroke="none" 
	d="
M265.009888,277.990051 
	C194.671188,207.642288 124.581894,137.545212 54.494049,67.446671 
	C49.781651,62.733547 49.786709,62.728485 54.635296,57.876869 
	C62.729591,49.777519 62.725639,49.781479 70.940971,57.996761 
	C196.167114,183.222168 321.394318,308.446503 446.621552,433.670807 
	C452.187927,439.237091 452.194031,439.240540 446.744385,444.802307 
	C438.086517,453.638306 439.959686,452.890228 431.736694,444.675262 
	C376.224152,389.217163 320.747711,333.722900 265.009888,277.990051 
z"/>
<path fill="#000000" opacity="1.000000" stroke="none" 
	d="
M232.538467,189.585373 
	C220.609558,180.804199 216.154434,169.177475 219.032257,155.265228 
	C221.867432,141.559235 230.952332,133.285736 244.474396,130.183716 
	C261.040497,126.383362 278.177551,137.060623 282.652649,153.654556 
	C287.179626,170.440872 278.003174,187.906479 261.933289,193.364212 
	C251.609802,196.870270 241.980927,195.520386 232.538467,189.585373 
z"/>
</svg>