<svg xmlns="http://www.w3.org/2000/svg" xml:space="preserve" style="fill-rule:evenodd;clip-rule:evenodd;stroke-linejoin:round;stroke-miterlimit:2" viewBox="0 0 496 496"><path d="M496 440h-16V240c0-4.389-3.611-8-8-8h-48c-4.389 0-8 3.611-8 8v200h-16v-72c0-4.389-3.611-8-8-8h-48c-4.389 0-8 3.611-8 8v72h-16v-40c0-4.389-3.611-8-8-8h-48c-4.389 0-8 3.611-8 8v40h-32c-4.389 0-8 3.611-8 8v48c0 4.389 3.611 8 8 8h272c4.389 0 8-3.611 8-8v-48c0-4.389-3.611-8-8-8m-64-192h32v192h-32zm-80 128h32v64h-32zm-80 32h32v32h-32zm216 80H232v-32h256z" style="fill-rule:nonzero" transform="translate(-8 -8)"/><path d="m239.76 401.936 7.656-30.616a166.5 166.5 0 0 0 48.112-20l27.152 16.28a8.02 8.02 0 0 0 9.776-1.2l33.944-33.944a8.02 8.02 0 0 0 1.2-9.776l-16.28-27.152a166.5 166.5 0 0 0 20-48.112l30.616-7.656A8.02 8.02 0 0 0 408 232v-48a8.02 8.02 0 0 0-6.064-7.76l-30.616-7.656a166.5 166.5 0 0 0-20-48.112L367.6 93.32a8.02 8.02 0 0 0-1.2-9.776L332.456 49.6a8.02 8.02 0 0 0-9.776-1.2l-27.152 16.288a166.5 166.5 0 0 0-48.112-20l-7.656-30.624A8.02 8.02 0 0 0 232 8h-48a8.02 8.02 0 0 0-7.76 6.064l-7.656 30.616a166.5 166.5 0 0 0-48.112 20L93.32 48.408a8.02 8.02 0 0 0-9.776 1.2L49.6 83.544a8.02 8.02 0 0 0-1.2 9.776l16.28 27.152a166.5 166.5 0 0 0-20 48.112l-30.616 7.656A8.02 8.02 0 0 0 8 184v48a8.02 8.02 0 0 0 6.064 7.76l30.616 7.656a166.5 166.5 0 0 0 20 48.112L48.408 322.68a8.02 8.02 0 0 0 1.2 9.776L83.544 366.4a8.02 8.02 0 0 0 9.776 1.2l27.152-16.28a166.5 166.5 0 0 0 48.112 20l7.656 30.616A8.02 8.02 0 0 0 184 408h48a8.02 8.02 0 0 0 7.76-6.064M190.248 392l-7.344-29.344a8.01 8.01 0 0 0-6.104-5.856 150.8 150.8 0 0 1-51.848-21.6 8.01 8.01 0 0 0-8.488-.16l-26.016 15.608-25.112-25.096 15.608-26.016a8.01 8.01 0 0 0-.16-8.488A150.8 150.8 0 0 1 59.2 239.2a8.01 8.01 0 0 0-5.888-6.12L24 225.752v-35.504l29.344-7.344A8.01 8.01 0 0 0 59.2 176.8a150.8 150.8 0 0 1 21.6-51.848 8.01 8.01 0 0 0 .16-8.488L65.336 90.448l25.112-25.112 26.016 15.608a8.01 8.01 0 0 0 8.488-.16A150.8 150.8 0 0 1 176.8 59.2a8.01 8.01 0 0 0 6.12-5.888L190.248 24h35.504l7.344 29.344A8.01 8.01 0 0 0 239.2 59.2a150.8 150.8 0 0 1 51.848 21.6 7.96 7.96 0 0 0 8.488.16l26.016-15.608 25.112 25.112-15.608 26.016a8.01 8.01 0 0 0 .16 8.488A150.8 150.8 0 0 1 356.8 176.8a8.01 8.01 0 0 0 5.888 6.12L392 190.248v35.504l-29.344 7.344a8.01 8.01 0 0 0-5.888 6.12 150.8 150.8 0 0 1-21.568 51.832 8.01 8.01 0 0 0-.16 8.488l15.608 26.016-25.112 25.112-26.016-15.608a8.01 8.01 0 0 0-8.488.16A150.8 150.8 0 0 1 239.2 356.8a8.01 8.01 0 0 0-6.12 5.888L225.752 392z" style="fill-rule:nonzero" transform="translate(-8 -8)"/><path d="M320 208c0-61.441-50.559-112-112-112S96 146.559 96 208s50.559 112 112 112c61.417-.066 111.934-50.583 112-112m-112 96c-52.664 0-96-43.336-96-96s43.336-96 96-96 96 43.336 96 96c-.057 52.642-43.358 95.943-96 96" style="fill-rule:nonzero" transform="translate(-8 -8)"/><path d="M208 128c-43.887 0-80 36.113-80 80s36.113 80 80 80 80-36.113 80-80c-.048-43.868-36.132-79.952-80-80m0 144c-35.109 0-64-28.891-64-64s28.891-64 64-64 64 28.891 64 64c-.039 35.094-28.906 63.961-64 64" style="fill-rule:nonzero" transform="translate(-8 -8)"/><path d="M224 208a15.96 15.96 0 0 0-8-13.776V176h-16v18.224a15.97 15.97 0 0 0-7.992 13.824c0 8.751 7.201 15.952 15.952 15.952h.04a15.7 15.7 0 0 0 4.088-.6l22.256 22.256 11.312-11.312-22.256-22.256c.379-1.33.581-2.705.6-4.088M69.656 370.344c-3.103-3.102-8.209-3.102-11.312 0l-48 48A8 8 0 0 0 8.002 424c0 4.388 3.61 7.999 7.998 8h16v64c0 4.389 3.611 8 8 8h48c4.389 0 8-3.611 8-8v-64h16c4.388-.001 7.998-3.612 7.998-8a8 8 0 0 0-2.342-5.656zM88 416c-4.389 0-8 3.611-8 8v64H48v-64c0-4.389-3.611-8-8-8h-4.688L64 387.312 92.688 416zM424 216h48c4.389 0 8-3.611 8-8V72h16c4.388-.001 7.998-3.612 7.998-8a8 8 0 0 0-2.342-5.656l-48-48c-3.103-3.102-8.209-3.102-11.312 0l-48 48A8 8 0 0 0 392.002 64c0 4.388 3.61 7.999 7.998 8h16v136c0 4.389 3.611 8 8 8m24-188.688L476.688 56H472c-4.389 0-8 3.611-8 8v136h-32V64c0-4.389-3.611-8-8-8h-4.688z" style="fill-rule:nonzero" transform="translate(-8 -8)"/></svg>