<?xml version="1.0" encoding="UTF-8" standalone="no"?>
<!DOCTYPE svg PUBLIC "-//W3C//DTD SVG 1.1//EN" "http://www.w3.org/Graphics/SVG/1.1/DTD/svg11.dtd">
<svg width="100%" height="100%" viewBox="0 0 496 496" version="1.1" xmlns="http://www.w3.org/2000/svg" xmlns:xlink="http://www.w3.org/1999/xlink" xml:space="preserve" style="fill-rule:evenodd;clip-rule:evenodd;stroke-linejoin:round;stroke-miterlimit:2;">
    <g transform="matrix(1,0,0,1,-8,-8)">
        <path d="M496,440L480,440L480,240C480,235.611 476.389,232 472,232L424,232C419.611,232 416,235.611 416,240L416,440L400,440L400,368C400,363.611 396.389,360 392,360L344,360C339.611,360 336,363.611 336,368L336,440L320,440L320,400C320,395.611 316.389,392 312,392L264,392C259.611,392 256,395.611 256,400L256,440L224,440C219.611,440 216,443.611 216,448L216,496C216,500.389 219.611,504 224,504L496,504C500.389,504 504,500.389 504,496L504,448C504,443.611 500.389,440 496,440ZM432,248L464,248L464,440L432,440L432,248ZM352,376L384,376L384,440L352,440L352,376ZM272,408L304,408L304,440L272,440L272,408ZM488,488L232,488L232,456L488,456L488,488Z" style="fill-rule:nonzero;"/>
        <path d="M239.76,401.936L247.416,371.32C264.403,367.219 280.64,360.47 295.528,351.32L322.68,367.6C325.817,369.485 329.868,368.988 332.456,366.4L366.4,332.456C368.988,329.868 369.485,325.817 367.6,322.68L351.32,295.528C360.47,280.64 367.219,264.403 371.32,247.416L401.936,239.76C405.487,238.874 407.999,235.66 408,232L408,184C407.999,180.34 405.487,177.126 401.936,176.24L371.32,168.584C367.219,151.597 360.47,135.36 351.32,120.472L367.6,93.32C369.485,90.183 368.988,86.132 366.4,83.544L332.456,49.6C329.868,47.012 325.817,46.515 322.68,48.4L295.528,64.688C280.64,55.538 264.403,48.789 247.416,44.688L239.76,14.064C238.874,10.513 235.66,8.001 232,8L184,8C180.34,8.001 177.126,10.513 176.24,14.064L168.584,44.68C151.597,48.781 135.36,55.53 120.472,64.68L93.32,48.408C90.183,46.523 86.132,47.02 83.544,49.608L49.6,83.544C47.012,86.132 46.515,90.183 48.4,93.32L64.68,120.472C55.53,135.36 48.781,151.597 44.68,168.584L14.064,176.24C10.513,177.126 8.001,180.34 8,184L8,232C8.001,235.66 10.513,238.874 14.064,239.76L44.68,247.416C48.781,264.403 55.53,280.64 64.68,295.528L48.408,322.68C46.523,325.817 47.02,329.868 49.608,332.456L83.544,366.4C86.132,368.988 90.183,369.485 93.32,367.6L120.472,351.32C135.36,360.47 151.597,367.219 168.584,371.32L176.24,401.936C177.126,405.487 180.34,407.999 184,408L232,408C235.66,407.999 238.874,405.487 239.76,401.936ZM190.248,392L182.904,362.656C182.153,359.705 179.78,357.428 176.8,356.8C158.318,352.91 140.729,345.583 124.952,335.2C122.391,333.529 119.086,333.466 116.464,335.04L90.448,350.648L65.336,325.552L80.944,299.536C82.518,296.914 82.455,293.609 80.784,291.048C70.407,275.27 63.085,257.681 59.2,239.2C58.573,236.206 56.28,233.823 53.312,233.08L24,225.752L24,190.248L53.344,182.904C56.295,182.153 58.572,179.78 59.2,176.8C63.09,158.318 70.417,140.729 80.8,124.952C82.471,122.391 82.534,119.086 80.96,116.464L65.336,90.448L90.448,65.336L116.464,80.944C119.086,82.518 122.391,82.455 124.952,80.784C140.73,70.407 158.319,63.085 176.8,59.2C179.794,58.573 182.177,56.28 182.92,53.312L190.248,24L225.752,24L233.096,53.344C233.847,56.295 236.22,58.572 239.2,59.2C257.682,63.09 275.271,70.417 291.048,80.8C293.606,82.483 296.917,82.545 299.536,80.96L325.552,65.352L350.664,90.464L335.056,116.48C333.482,119.102 333.545,122.407 335.216,124.968C345.592,140.742 352.913,158.324 356.8,176.8C357.427,179.794 359.72,182.177 362.688,182.92L392,190.248L392,225.752L362.656,233.096C359.688,233.839 357.395,236.222 356.768,239.216C352.886,257.691 345.57,275.273 335.2,291.048C333.529,293.609 333.466,296.914 335.04,299.536L350.648,325.552L325.536,350.664L299.52,335.056C296.898,333.482 293.593,333.545 291.032,335.216C275.258,345.592 257.676,352.913 239.2,356.8C236.206,357.427 233.823,359.72 233.08,362.688L225.752,392L190.248,392Z" style="fill-rule:nonzero;"/>
        <path d="M320,208C320,146.559 269.441,96 208,96C146.559,96 96,146.559 96,208C96,269.441 146.559,320 208,320C269.417,319.934 319.934,269.417 320,208ZM208,304C155.336,304 112,260.664 112,208C112,155.336 155.336,112 208,112C260.664,112 304,155.336 304,208C303.943,260.642 260.642,303.943 208,304Z" style="fill-rule:nonzero;"/>
        <path d="M208,128C164.113,128 128,164.113 128,208C128,251.887 164.113,288 208,288C251.887,288 288,251.887 288,208C287.952,164.132 251.868,128.048 208,128ZM208,272C172.891,272 144,243.109 144,208C144,172.891 172.891,144 208,144C243.109,144 272,172.891 272,208C271.961,243.094 243.094,271.961 208,272Z" style="fill-rule:nonzero;"/>
        <path d="M224,208C223.983,202.316 220.928,197.056 216,194.224L216,176L200,176L200,194.224C195.062,197.068 192.008,202.349 192.008,208.048C192.008,216.799 199.209,224 207.96,224C207.973,224 207.987,224 208,224C209.383,223.981 210.758,223.779 212.088,223.4L234.344,245.656L245.656,234.344L223.4,212.088C223.779,210.758 223.981,209.383 224,208Z" style="fill-rule:nonzero;"/>
        <path d="M69.656,370.344C66.553,367.242 61.447,367.242 58.344,370.344L10.344,418.344C8.845,419.844 8.002,421.879 8.002,424C8.002,428.388 11.612,431.999 16,432L32,432L32,496C32,500.389 35.611,504 40,504L88,504C92.389,504 96,500.389 96,496L96,432L112,432C116.388,431.999 119.998,428.388 119.998,424C119.998,421.879 119.155,419.844 117.656,418.344L69.656,370.344ZM88,416C83.611,416 80,419.611 80,424L80,488L48,488L48,424C48,419.611 44.389,416 40,416L35.312,416L64,387.312L92.688,416L88,416Z" style="fill-rule:nonzero;"/>
        <path d="M424,216L472,216C476.389,216 480,212.389 480,208L480,72L496,72C500.388,71.999 503.998,68.388 503.998,64C503.998,61.879 503.155,59.844 501.656,58.344L453.656,10.344C450.553,7.242 445.447,7.242 442.344,10.344L394.344,58.344C392.845,59.844 392.002,61.879 392.002,64C392.002,68.388 395.612,71.999 400,72L416,72L416,208C416,212.389 419.611,216 424,216ZM448,27.312L476.688,56L472,56C467.611,56 464,59.611 464,64L464,200L432,200L432,64C432,59.611 428.389,56 424,56L419.312,56L448,27.312Z" style="fill-rule:nonzero;"/>
    </g>
</svg>
