<?xml version="1.0" encoding="UTF-8" standalone="no"?>
<!DOCTYPE svg PUBLIC "-//W3C//DTD SVG 1.1//EN" "http://www.w3.org/Graphics/SVG/1.1/DTD/svg11.dtd">
<svg width="100%" height="100%" viewBox="0 0 512 495" version="1.1" xmlns="http://www.w3.org/2000/svg" xmlns:xlink="http://www.w3.org/1999/xlink" xml:space="preserve" style="fill-rule:evenodd;clip-rule:evenodd;stroke-linejoin:round;stroke-miterlimit:2;">
    <g transform="matrix(1,0,0,1,0,-8.827)">
        <g>
            <g>
                <path d="M476.69,229.517L423.724,229.517L423.724,211.859C438.331,211.831 450.207,199.964 450.207,185.379C450.207,178.593 447.614,172.415 443.394,167.724C447.614,163.033 450.207,156.855 450.207,150.069C450.207,143.283 447.614,137.105 443.394,132.414C447.614,127.723 450.207,121.545 450.207,114.759C450.207,107.973 447.614,101.795 443.394,97.104C447.614,92.413 450.207,86.235 450.207,79.449C450.207,64.847 438.304,52.966 423.673,52.966L414.897,52.966L414.897,39.724C414.897,22.687 400.998,8.827 383.914,8.827L375.259,8.827C358.175,8.827 344.276,22.687 344.276,39.724L344.276,52.965L335.5,52.965C320.869,52.965 308.966,64.845 308.966,79.448C308.966,86.234 311.559,92.412 315.779,97.103C311.559,101.794 308.966,107.972 308.966,114.758C308.966,121.544 311.559,127.722 315.779,132.413C311.559,137.104 308.966,143.282 308.966,150.068C308.966,156.854 311.559,163.032 315.779,167.723C311.559,172.414 308.966,178.592 308.966,185.378C308.966,199.963 320.842,211.83 335.449,211.858L335.449,229.516L247.173,229.516L247.173,158.895C247.173,154.02 243.22,150.067 238.345,150.067L194.207,150.067L194.207,79.532C194.207,79.51 194.205,79.488 194.205,79.465C194.205,79.449 194.204,79.433 194.204,79.417C194.142,50.217 170.427,26.482 141.282,26.482L52.922,26.482C23.779,26.482 0.064,50.218 0.002,79.417C0.002,79.433 0.001,79.449 0.001,79.465C0.002,79.488 0,79.51 0,79.532L0,450.122C0,479.374 23.741,503.172 52.922,503.172L141.282,503.172C170.465,503.172 194.206,479.375 194.206,450.122L194.206,397.241L238.344,397.241C243.219,397.241 247.172,393.288 247.172,388.413L247.172,317.792L476.69,317.792C496.16,317.792 512,301.945 512,282.467L512,264.842C512,245.364 496.16,229.517 476.69,229.517ZM176.552,128.757L133.914,171.395C130.466,174.843 130.466,180.432 133.914,183.88C135.636,185.603 137.897,186.465 140.155,186.465C142.413,186.465 144.674,185.603 146.396,183.88L176.551,153.725L176.551,181.723L133.913,224.361C130.465,227.809 130.465,233.398 133.913,236.846C135.635,238.569 137.896,239.431 140.154,239.431C142.412,239.431 144.673,238.569 146.395,236.846L176.55,206.691L176.55,234.689L133.912,277.327C130.464,280.775 130.464,286.364 133.912,289.812C135.634,291.535 137.895,292.397 140.153,292.397C142.411,292.397 144.673,291.535 146.394,289.812L176.549,259.657L176.549,287.655L133.911,330.293C130.463,333.741 130.463,339.33 133.911,342.777C135.633,344.501 137.894,345.363 140.152,345.363C142.41,345.363 144.672,344.501 146.393,342.777L176.548,312.623L176.548,340.621L133.91,383.26C130.462,386.706 130.462,392.297 133.91,395.743C135.632,397.467 137.893,398.329 140.151,398.329C142.409,398.329 144.671,397.467 146.392,395.743L176.547,365.588L176.547,393.588L133.909,436.226C130.461,439.672 130.461,445.263 133.909,448.709C135.631,450.433 137.892,451.295 140.15,451.295C142.408,451.295 144.67,450.433 146.391,448.709L176.546,418.554L176.546,450.125C176.546,469.642 160.725,485.519 141.277,485.519L52.917,485.519C33.471,485.519 17.65,469.642 17.65,450.125L17.65,418.554L47.805,448.709C49.527,450.433 51.788,451.295 54.046,451.295C56.304,451.295 58.565,450.433 60.287,448.709C63.735,445.263 63.735,439.672 60.287,436.226L17.649,393.588L17.649,365.588L47.804,395.743C49.526,397.467 51.787,398.329 54.045,398.329C56.303,398.329 58.564,397.467 60.286,395.743C63.734,392.297 63.734,386.706 60.286,383.26L17.655,340.62L17.655,312.622L47.81,342.777C49.532,344.501 51.793,345.363 54.051,345.363C56.309,345.363 58.57,344.501 60.292,342.777C63.74,339.33 63.74,333.741 60.292,330.293L17.654,287.655L17.654,259.657L47.809,289.812C49.531,291.535 51.792,292.397 54.05,292.397C56.308,292.397 58.569,291.535 60.291,289.812C63.739,286.364 63.739,280.775 60.291,277.327L17.653,234.689L17.653,206.691L47.808,236.846C49.53,238.569 51.791,239.431 54.049,239.431C56.307,239.431 58.568,238.569 60.29,236.846C63.738,233.398 63.738,227.809 60.29,224.361L17.652,181.723L17.652,153.725L47.81,183.88C49.532,185.603 51.793,186.465 54.051,186.465C56.309,186.465 58.57,185.603 60.292,183.88C63.74,180.432 63.74,174.843 60.292,171.395L17.654,128.757L17.654,100.76L47.809,130.915C49.531,132.638 51.792,133.5 54.05,133.5C56.308,133.5 58.569,132.638 60.291,130.915C63.739,127.467 63.739,121.878 60.291,118.43L17.835,75.972C19.62,58.122 34.673,44.138 52.922,44.138L141.282,44.138C159.533,44.138 174.587,58.121 176.371,75.972L133.913,118.43C130.465,121.878 130.465,127.467 133.913,130.915C135.635,132.638 137.896,133.5 140.154,133.5C142.412,133.5 144.673,132.638 146.395,130.915L176.55,100.76L176.55,128.757L176.552,128.757ZM229.517,167.724L229.517,379.587L194.207,379.587L194.207,167.724L229.517,167.724ZM361.931,39.724C361.931,32.422 367.909,26.483 375.259,26.483L383.914,26.483C391.263,26.483 397.241,32.423 397.241,39.724L397.241,52.965L361.931,52.965L361.931,39.724ZM335.5,70.621L423.674,70.621C428.652,70.621 432.553,74.498 432.553,79.449C432.553,84.316 428.57,88.277 423.674,88.277L335.5,88.277C330.521,88.277 326.621,84.4 326.621,79.449C326.621,74.581 330.603,70.621 335.5,70.621ZM335.5,105.931L423.672,105.931C428.651,105.931 432.551,109.808 432.551,114.759C432.551,119.627 428.568,123.587 423.672,123.587L335.5,123.587C330.521,123.587 326.621,119.71 326.621,114.759C326.621,109.891 330.603,105.931 335.5,105.931ZM335.5,141.241L423.672,141.241C428.651,141.241 432.551,145.118 432.551,150.069C432.551,154.937 428.568,158.897 423.672,158.897L335.5,158.897C330.521,158.897 326.621,155.02 326.621,150.069C326.621,145.201 330.603,141.241 335.5,141.241ZM326.621,185.379C326.621,180.511 330.604,176.551 335.5,176.551L423.672,176.551C428.651,176.551 432.551,180.428 432.551,185.379C432.551,190.246 428.568,194.207 423.672,194.207L335.5,194.207C330.522,194.207 326.621,190.33 326.621,185.379ZM406.069,211.862L406.069,229.517L353.103,229.517L353.103,211.862L406.069,211.862ZM494.345,282.468C494.345,292.211 486.425,300.138 476.69,300.138L247.172,300.138L247.172,247.172L476.689,247.172C486.424,247.172 494.344,255.099 494.344,264.842L494.344,282.468L494.345,282.468Z" style="fill-rule:nonzero;"/>
            </g>
        </g>
    </g>
</svg>
