<svg xmlns="http://www.w3.org/2000/svg" xml:space="preserve" style="fill-rule:evenodd;clip-rule:evenodd;stroke-linejoin:round;stroke-miterlimit:2" viewBox="0 0 512 495"><path d="M476.69 229.517h-52.966v-17.658c14.607-.028 26.483-11.895 26.483-26.48 0-6.786-2.593-12.964-6.813-17.655 4.22-4.691 6.813-10.869 6.813-17.655s-2.593-12.964-6.813-17.655c4.22-4.691 6.813-10.869 6.813-17.655s-2.593-12.964-6.813-17.655c4.22-4.691 6.813-10.869 6.813-17.655 0-14.602-11.903-26.483-26.534-26.483h-8.776V39.724c0-17.037-13.899-30.897-30.983-30.897h-8.655c-17.084 0-30.983 13.86-30.983 30.897v13.241H335.5c-14.631 0-26.534 11.88-26.534 26.483 0 6.786 2.593 12.964 6.813 17.655-4.22 4.691-6.813 10.869-6.813 17.655s2.593 12.964 6.813 17.655c-4.22 4.691-6.813 10.869-6.813 17.655s2.593 12.964 6.813 17.655c-4.22 4.691-6.813 10.869-6.813 17.655 0 14.585 11.876 26.452 26.483 26.48v17.658h-88.276v-70.621a8.83 8.83 0 0 0-8.828-8.828h-44.138V79.532l-.002-.067-.001-.048c-.062-29.2-23.777-52.935-52.922-52.935h-88.36C23.779 26.482.064 50.218.002 79.417l-.001.048q0 .034-.001.067v370.59c0 29.252 23.741 53.05 52.922 53.05h88.36c29.183 0 52.924-23.797 52.924-53.05v-52.881h44.138a8.83 8.83 0 0 0 8.828-8.828v-70.621H476.69c19.47 0 35.31-15.847 35.31-35.325v-17.625c0-19.478-15.84-35.325-35.31-35.325m-300.138-100.76-42.638 42.638a8.828 8.828 0 0 0 12.482 12.485l30.155-30.155v27.998l-42.638 42.638a8.828 8.828 0 0 0 12.482 12.485l30.155-30.155v27.998l-42.638 42.638a8.828 8.828 0 0 0 12.482 12.485l30.155-30.155v27.998l-42.638 42.638a8.826 8.826 0 0 0 0 12.484 8.8 8.8 0 0 0 6.241 2.586c2.258 0 4.52-.862 6.241-2.586l30.155-30.154v27.998L133.91 383.26a8.825 8.825 0 0 0 0 12.483 8.8 8.8 0 0 0 6.241 2.586c2.258 0 4.52-.862 6.241-2.586l30.155-30.155v28l-42.638 42.638a8.825 8.825 0 0 0 0 12.483 8.8 8.8 0 0 0 6.241 2.586c2.258 0 4.52-.862 6.241-2.586l30.155-30.155v31.571c0 19.517-15.821 35.394-35.269 35.394h-88.36c-19.446 0-35.267-15.877-35.267-35.394v-31.571l30.155 30.155a8.8 8.8 0 0 0 6.241 2.586 8.8 8.8 0 0 0 6.241-2.586 8.825 8.825 0 0 0 0-12.483l-42.638-42.638v-28l30.155 30.155a8.8 8.8 0 0 0 6.241 2.586 8.8 8.8 0 0 0 6.241-2.586 8.825 8.825 0 0 0 0-12.483l-42.631-42.64v-27.998l30.155 30.155a8.8 8.8 0 0 0 6.241 2.586 8.8 8.8 0 0 0 6.241-2.586 8.826 8.826 0 0 0 0-12.484l-42.638-42.638v-27.998l30.155 30.155a8.8 8.8 0 0 0 6.241 2.585 8.828 8.828 0 0 0 6.241-15.07l-42.638-42.638v-27.998l30.155 30.155a8.8 8.8 0 0 0 6.241 2.585 8.828 8.828 0 0 0 6.241-15.07l-42.638-42.638v-27.998L47.81 183.88a8.8 8.8 0 0 0 6.241 2.585 8.828 8.828 0 0 0 6.241-15.07l-42.638-42.638V100.76l30.155 30.155a8.8 8.8 0 0 0 6.241 2.585 8.828 8.828 0 0 0 6.241-15.07L17.835 75.972c1.785-17.85 16.838-31.834 35.087-31.834h88.36c18.251 0 33.305 13.983 35.089 31.834l-42.458 42.458a8.828 8.828 0 0 0 12.482 12.485l30.155-30.155v27.997zm52.965 38.967v211.863h-35.31V167.724zm132.414-128c0-7.302 5.978-13.241 13.328-13.241h8.655c7.349 0 13.327 5.94 13.327 13.241v13.241h-35.31zM335.5 70.621h88.174c4.978 0 8.879 3.877 8.879 8.828 0 4.867-3.983 8.828-8.879 8.828H335.5c-4.979 0-8.879-3.877-8.879-8.828 0-4.868 3.982-8.828 8.879-8.828m0 35.31h88.172c4.979 0 8.879 3.877 8.879 8.828 0 4.868-3.983 8.828-8.879 8.828H335.5c-4.979 0-8.879-3.877-8.879-8.828 0-4.868 3.982-8.828 8.879-8.828m0 35.31h88.172c4.979 0 8.879 3.877 8.879 8.828 0 4.868-3.983 8.828-8.879 8.828H335.5c-4.979 0-8.879-3.877-8.879-8.828 0-4.868 3.982-8.828 8.879-8.828m-8.879 44.138c0-4.868 3.983-8.828 8.879-8.828h88.172c4.979 0 8.879 3.877 8.879 8.828 0 4.867-3.983 8.828-8.879 8.828H335.5c-4.978 0-8.879-3.877-8.879-8.828m79.448 26.483v17.655h-52.966v-17.655zm88.276 70.606c0 9.743-7.92 17.67-17.655 17.67H247.172v-52.966h229.517c9.735 0 17.655 7.927 17.655 17.67v17.626z" style="fill-rule:nonzero" transform="translate(0 -8.827)"/></svg>