<svg xmlns="http://www.w3.org/2000/svg" xml:space="preserve" style="fill-rule:evenodd;clip-rule:evenodd;stroke-linejoin:round;stroke-miterlimit:2" viewBox="0 0 681 681"><path d="M221.856 596.167c240.932 0 372.688-199.605 372.688-372.688 0-5.669-.117-11.314-.371-16.929a266.6 266.6 0 0 0 65.339-67.83c-23.469 10.437-48.73 17.453-75.221 20.627 27.041-16.223 47.805-41.874 57.597-72.453a262.7 262.7 0 0 1-83.174 31.793c-23.903-25.46-57.937-41.382-95.617-41.382-72.332 0-130.995 58.659-130.995 130.967 0 10.284 1.152 20.279 3.397 29.868-108.864-5.478-205.403-57.597-270-136.854-11.244 19.353-17.733 41.842-17.733 65.838 0 45.439 23.125 85.564 58.287 109.029-21.489-.66-41.674-6.56-59.322-16.379-.02.551-.02 1.085-.02 1.671 0 63.438 45.15 116.404 105.093 128.406a131.5 131.5 0 0 1-34.541 4.607c-8.426 0-16.641-.828-24.621-2.362 16.675 52.044 65.034 89.916 122.366 90.978-44.834 35.139-101.31 56.071-162.69 56.071-10.557 0-20.994-.606-31.246-1.816 57.971 37.158 126.808 58.842 200.788 58.842" style="fill:#fff;fill-rule:nonzero"/></svg>