<svg xmlns="http://www.w3.org/2000/svg" xml:space="preserve" style="fill-rule:evenodd;clip-rule:evenodd;stroke-linejoin:round;stroke-miterlimit:2" viewBox="0 0 504 512"><path d="M475.904 512H36.096a31.92 31.92 0 0 1-24.512-11.435c-6.101-7.253-8.64-16.789-6.997-26.133l56.469-320C63.744 139.115 77.013 128 92.565 128h326.87c15.552 0 28.821 11.115 31.509 26.432l56.469 320c1.643 9.344-.896 18.88-6.997 26.133A31.92 31.92 0 0 1 475.904 512M92.565 149.333c-5.184 0-9.6 3.712-10.517 8.811l-56.469 320c-.747 4.245 1.152 7.296 2.346 8.704 1.195 1.429 3.84 3.819 8.171 3.819h439.808c4.331 0 6.976-2.39 8.171-3.819 1.194-1.408 3.093-4.459 2.346-8.704l-56.469-320a10.684 10.684 0 0 0-10.517-8.811z" style="fill-rule:nonzero" transform="translate(-4.098)"/><path d="M256 149.333c-41.173 0-74.667-33.493-74.667-74.666C181.333 33.493 214.827 0 256 0s74.667 33.493 74.667 74.667-33.494 74.666-74.667 74.666m0-128c-29.397 0-53.333 23.936-53.333 53.334C202.667 104.064 226.603 128 256 128s53.333-23.936 53.333-53.333c0-29.398-23.936-53.334-53.333-53.334M138.667 405.333c-5.888 0-10.667-4.778-10.667-10.666V245.333c0-5.888 4.779-10.666 10.667-10.666s10.666 4.778 10.666 10.666v149.334c0 5.888-4.778 10.666-10.666 10.666M330.667 405.333c-29.398 0-53.334-23.914-53.334-53.333v-64c0-29.397 23.936-53.333 53.334-53.333C360.064 234.667 384 258.603 384 288c0 5.888-4.779 10.667-10.667 10.667s-10.666-4.779-10.666-10.667c0-17.643-14.358-32-32-32-17.643 0-32 14.357-32 32v64c0 17.643 14.357 32 32 32 17.642 0 32-14.357 32-32v-10.667h-32c-5.888 0-10.667-4.778-10.667-10.666S324.779 320 330.667 320h42.666c5.888 0 10.667 4.779 10.667 10.667V352c0 29.419-23.936 53.333-53.333 53.333" style="fill-rule:nonzero" transform="translate(-4.098)"/><path d="M224 406.656c-2.539 0-5.056-.896-7.104-2.709l-85.333-75.99a10.73 10.73 0 0 1-3.563-8 10.58 10.58 0 0 1 3.648-7.978l85.333-74.667c4.416-3.883 11.136-3.456 15.062 1.003 3.882 4.437 3.434 11.157-1.003 15.061l-76.245 66.688 76.309 67.989c4.395 3.926 4.8 10.646.875 15.062a10.73 10.73 0 0 1-7.979 3.541" style="fill-rule:nonzero" transform="translate(-4.098)"/></svg>