<?xml version="1.0" encoding="UTF-8" standalone="no"?>
<!DOCTYPE svg PUBLIC "-//W3C//DTD SVG 1.1//EN" "http://www.w3.org/Graphics/SVG/1.1/DTD/svg11.dtd">
<svg width="100%" height="100%" viewBox="0 0 504 512" version="1.1" xmlns="http://www.w3.org/2000/svg" xmlns:xlink="http://www.w3.org/1999/xlink" xml:space="preserve" style="fill-rule:evenodd;clip-rule:evenodd;stroke-linejoin:round;stroke-miterlimit:2;">
    <g transform="matrix(1,0,0,1,-4.09787,0)">
        <path d="M475.904,512L36.096,512C26.624,512 17.685,507.84 11.584,500.565C5.483,493.312 2.944,483.776 4.587,474.432L61.056,154.432C63.744,139.115 77.013,128 92.565,128L419.435,128C434.987,128 448.256,139.115 450.944,154.432L507.413,474.432C509.056,483.776 506.517,493.312 500.416,500.565C494.315,507.84 485.376,512 475.904,512ZM92.565,149.333C87.381,149.333 82.965,153.045 82.048,158.144L25.579,478.144C24.832,482.389 26.731,485.44 27.925,486.848C29.12,488.277 31.765,490.667 36.096,490.667L475.904,490.667C480.235,490.667 482.88,488.277 484.075,486.848C485.269,485.44 487.168,482.389 486.421,478.144L429.952,158.144C429.035,153.045 424.619,149.333 419.435,149.333L92.565,149.333Z" style="fill-rule:nonzero;"/>
        <path d="M256,149.333C214.827,149.333 181.333,115.84 181.333,74.667C181.333,33.493 214.827,0 256,0C297.173,0 330.667,33.493 330.667,74.667C330.667,115.84 297.173,149.333 256,149.333ZM256,21.333C226.603,21.333 202.667,45.269 202.667,74.667C202.667,104.064 226.603,128 256,128C285.397,128 309.333,104.064 309.333,74.667C309.333,45.269 285.397,21.333 256,21.333Z" style="fill-rule:nonzero;"/>
        <path d="M138.667,405.333C132.779,405.333 128,400.555 128,394.667L128,245.333C128,239.445 132.779,234.667 138.667,234.667C144.555,234.667 149.333,239.445 149.333,245.333L149.333,394.667C149.333,400.555 144.555,405.333 138.667,405.333Z" style="fill-rule:nonzero;"/>
        <path d="M330.667,405.333C301.269,405.333 277.333,381.419 277.333,352L277.333,288C277.333,258.603 301.269,234.667 330.667,234.667C360.064,234.667 384,258.603 384,288C384,293.888 379.221,298.667 373.333,298.667C367.445,298.667 362.667,293.888 362.667,288C362.667,270.357 348.309,256 330.667,256C313.024,256 298.667,270.357 298.667,288L298.667,352C298.667,369.643 313.024,384 330.667,384C348.309,384 362.667,369.643 362.667,352L362.667,341.333L330.667,341.333C324.779,341.333 320,336.555 320,330.667C320,324.779 324.779,320 330.667,320L373.333,320C379.221,320 384,324.779 384,330.667L384,352C384,381.419 360.064,405.333 330.667,405.333Z" style="fill-rule:nonzero;"/>
        <path d="M224,406.656C221.461,406.656 218.944,405.76 216.896,403.947L131.563,327.957C129.301,325.931 128,323.029 128,319.957C128,316.885 129.344,313.984 131.648,311.979L216.981,237.312C221.397,233.429 228.117,233.856 232.043,238.315C235.925,242.752 235.477,249.472 231.04,253.376L154.795,320.064L231.104,388.053C235.499,391.979 235.904,398.699 231.979,403.115C229.845,405.461 226.944,406.656 224,406.656Z" style="fill-rule:nonzero;"/>
    </g>
</svg>
