<?xml version="1.0" encoding="UTF-8"?>
<svg id="Layer_1" xmlns="http://www.w3.org/2000/svg" version="1.1" viewBox="0 0 56.7 16.9">
  <!-- Generator: Adobe Illustrator 29.5.0, SVG Export Plug-In . SVG Version: 2.1.0 Build 137)  -->
  <defs>
    <style>
      .st0 {
        fill: #f78f24;
      }

      .st1 {
        fill: #006a84;
      }
    </style>
  </defs>
  <g>
    <path class="st1" d="M6.1,6.9l-.6-1.7c-.1-.5-.8-.5-.9,0l-.6,1.8-.5,1.4-.4,1.3c0,.2-.3.3-.5.3h-.7c-.3,0-.6-.3-.5-.7L4,2.2c0-.2.3-.3.5-.3h1.2c.2,0,.4.1.5.3l2.5,7.2c.1.3-.1.7-.5.7h-.8c-.2,0-.4-.1-.5-.3l-.4-1.3-.4-1.4Z"/>
    <path class="st1" d="M11.2,1.8h.7c.3,0,.5.2.5.5v5.7c0,.3.2.5.5.5h3c.3,0,.5.2.5.5v.5c0,.3-.2.5-.5.5h-4.7c-.3,0-.5-.2-.5-.5V2.3c0-.3.2-.5.5-.5Z"/>
    <path class="st1" d="M23.5,2.3v.5c0,.3-.2.5-.5.5h-1.4c-.3,0-.5.2-.5.5v5.8c0,.3-.2.5-.5.5h-.7c-.3,0-.5-.2-.5-.5V3.8c0-.3-.2-.5-.5-.5h-1.4c-.3,0-.5-.2-.5-.5v-.5c0-.3.2-.5.5-.5h5.5c.3,0,.5.2.5.5Z"/>
    <path class="st1" d="M25.3,9.5V2.3c0-.3.2-.5.5-.5h.7c.3,0,.5.2.5.5v2.1c0,.3.2.5.5.5h2.1c.3,0,.5-.2.5-.5v-2.1c0-.3.2-.5.5-.5h.7c.3,0,.5.2.5.5v7.2c0,.3-.2.5-.5.5h-.7c-.3,0-.5-.2-.5-.5v-2.7c0-.3-.2-.5-.5-.5h-2.1c-.3,0-.5.2-.5.5v2.7c0,.3-.2.5-.5.5h-.7c-.3,0-.5-.2-.5-.5Z"/>
    <path class="st1" d="M35.3,10h-.7c-.3,0-.5-.2-.5-.5v-4.2c0-.3.2-.5.5-.5h.7c.3,0,.5.2.5.5v4.2c0,.3-.2.5-.5.5Z"/>
    <path class="st1" d="M44,1.8h1.5c.3,0,.5.2.5.5v7.2c0,.3-.2.5-.5.5h-.6c-.3,0-.5-.2-.5-.5v-5.1c0-.2,0-.4,0-.7,0-.3,0-.5,0-.7l-1.4,6.5c0,.2-.3.4-.5.4h-.8c-.2,0-.4-.2-.5-.4l-1.4-6.5c0,.2,0,.4,0,.7,0,.3,0,.5,0,.7v5.1c0,.3-.2.5-.5.5h-.6c-.3,0-.5-.2-.5-.5V2.3c0-.3.2-.5.5-.5h1.6c.2,0,.4.2.5.4l.9,3.9c.1.5.9.5,1,0l.9-3.9c0-.2.3-.4.5-.4Z"/>
    <path class="st1" d="M52.7,6.9l-.6-1.7c-.1-.5-.8-.5-.9,0l-.6,1.8-.5,1.4-.4,1.3c0,.2-.3.3-.5.3h-.7c-.3,0-.6-.3-.5-.7l2.5-7.2c0-.2.3-.3.5-.3h1.2c.2,0,.4.1.5.3l2.5,7.2c.1.3-.1.7-.5.7h-.8c-.2,0-.4-.1-.5-.3l-.4-1.3-.4-1.4Z"/>
  </g>
  <g>
    <circle class="st0" cx="5" cy="9" r=".8"/>
    <circle class="st0" cx="35" cy="2.6" r=".8"/>
    <circle class="st0" cx="51.7" cy="9.2" r=".8"/>
  </g>
  <g>
    <path class="st0" d="M3.1,13.2h-1.2v.5h1.1v.4h-1.1v.6h1.3v.4h-1.7v-2.3h1.7v.4Z"/>
    <path class="st0" d="M4.1,12.8h.5l.9,1.6v-1.6h.4v2.3h-.5l-.9-1.6v1.6h-.4v-2.3Z"/>
    <path class="st0" d="M8.6,13.5c0-.2-.1-.3-.3-.3,0,0-.2,0-.3,0-.2,0-.3,0-.5.2s-.2.3-.2.6,0,.5.2.6c.1.1.3.2.4.2s.3,0,.4-.1.2-.2.2-.4h-.5v-.4h.9v1.2h-.3v-.3c-.1.1-.2.2-.3.2-.1,0-.3.1-.5.1-.3,0-.5-.1-.7-.3-.2-.2-.3-.5-.3-.9s.1-.7.3-.9c.2-.2.5-.3.8-.3s.5,0,.7.2c.2.1.3.3.3.5h-.5Z"/>
    <path class="st0" d="M10.6,15h-.5v-2.3h.5v2.3Z"/>
    <path class="st0" d="M11.7,12.8h.5l.9,1.6v-1.6h.4v2.3h-.5l-.9-1.6v1.6h-.4v-2.3Z"/>
    <path class="st0" d="M16.3,13.2h-1.2v.5h1.1v.4h-1.1v.6h1.3v.4h-1.7v-2.3h1.7v.4Z"/>
    <path class="st0" d="M19,13.2h-1.2v.5h1.1v.4h-1.1v.6h1.3v.4h-1.7v-2.3h1.7v.4Z"/>
    <path class="st0" d="M21.6,12.8c0,0,.2,0,.2.2,0,0,0,.1.1.2,0,0,0,.1,0,.2s0,.2,0,.3c0,.1-.1.2-.3.2.1,0,.2.1.2.2,0,0,0,.2,0,.4v.2c0,.1,0,.2,0,.2,0,0,0,.1,0,.1h0c0,0-.5,0-.5,0,0,0,0,0,0-.1,0,0,0-.1,0-.2v-.2c0-.1,0-.2,0-.3,0,0-.1,0-.3,0h-.5v.9h-.5v-2.3h1.1c.2,0,.3,0,.4,0ZM20.6,13.2v.6h.5c.1,0,.2,0,.2,0,0,0,.1-.1.1-.3s0-.2-.1-.3c0,0-.1,0-.2,0h-.5Z"/>
    <path class="st0" d="M23.5,15h-.5v-2.3h.5v2.3Z"/>
    <path class="st0" d="M24.5,12.8h.5l.9,1.6v-1.6h.4v2.3h-.5l-.9-1.6v1.6h-.4v-2.3Z"/>
    <path class="st0" d="M29,13.5c0-.2-.1-.3-.3-.3,0,0-.2,0-.3,0-.2,0-.3,0-.5.2s-.2.3-.2.6,0,.5.2.6c.1.1.3.2.4.2s.3,0,.4-.1.2-.2.2-.4h-.5v-.4h.9v1.2h-.3v-.3c-.1.1-.2.2-.3.2-.1,0-.3.1-.5.1-.3,0-.5-.1-.7-.3-.2-.2-.3-.5-.3-.9s.1-.7.3-.9c.2-.2.5-.3.8-.3s.5,0,.7.2c.2.1.3.3.3.5h-.5Z"/>
    <path class="st0" d="M32.4,14.3c0,.1,0,.2,0,.2,0,0,.2.1.4.1s.2,0,.3,0c.1,0,.2-.1.2-.3s0-.1,0-.2c0,0-.2,0-.3-.1h-.2c-.2-.1-.4-.2-.5-.2-.2-.1-.2-.3-.2-.5s0-.4.2-.5.4-.2.7-.2.5,0,.6.2c.2.1.3.3.3.6h-.5c0-.1,0-.2-.2-.3,0,0-.2,0-.3,0s-.2,0-.3,0c0,0-.1.1-.1.2s0,.1.1.2c0,0,.1,0,.3,0h.4c.2.1.3.2.4.3.1.1.2.3.2.5s0,.4-.2.5c-.2.1-.4.2-.7.2s-.5,0-.7-.2c-.2-.1-.3-.3-.3-.6h.5Z"/>
    <path class="st0" d="M36.6,14.8c-.2.2-.4.3-.7.3s-.6,0-.7-.3c-.2-.2-.3-.5-.3-.9s.1-.7.3-.9c.2-.2.4-.3.7-.3s.6,0,.7.3c.2.2.3.5.3.9s-.1.7-.3.9ZM36.3,14.5c.1-.1.2-.3.2-.6s0-.5-.2-.6c-.1-.1-.3-.2-.4-.2s-.3,0-.5.2c-.1.1-.2.3-.2.6s0,.5.2.6c.1.1.3.2.5.2s.3,0,.4-.2Z"/>
    <path class="st0" d="M37.9,12.8h.5v1.9h1.1v.4h-1.6v-2.3Z"/>
    <path class="st0" d="M40.5,12.8h.5v1.4c0,.2,0,.3,0,.3,0,.1.2.2.4.2s.3,0,.4-.2c0,0,0-.2,0-.3v-1.4h.5v1.4c0,.2,0,.4-.1.6-.1.2-.4.4-.8.4s-.7-.1-.8-.4c0-.1-.1-.3-.1-.6v-1.4Z"/>
    <path class="st0" d="M45.1,12.8v.4h-.7v1.9h-.5v-1.9h-.7v-.4h1.8Z"/>
    <path class="st0" d="M46.4,15h-.5v-2.3h.5v2.3Z"/>
    <path class="st0" d="M49.2,14.8c-.2.2-.4.3-.7.3s-.6,0-.7-.3c-.2-.2-.3-.5-.3-.9s.1-.7.3-.9c.2-.2.4-.3.7-.3s.6,0,.7.3c.2.2.3.5.3.9s-.1.7-.3.9ZM48.9,14.5c.1-.1.2-.3.2-.6s0-.5-.2-.6c-.1-.1-.3-.2-.4-.2s-.3,0-.5.2c-.1.1-.2.3-.2.6s0,.5.2.6c.1.1.3.2.5.2s.3,0,.4-.2Z"/>
    <path class="st0" d="M50.6,12.8h.5l.9,1.6v-1.6h.4v2.3h-.5l-.9-1.6v1.6h-.4v-2.3Z"/>
    <path class="st0" d="M53.8,14.3c0,.1,0,.2,0,.2,0,0,.2.1.4.1s.2,0,.3,0c.1,0,.2-.1.2-.3s0-.1,0-.2c0,0-.2,0-.3-.1h-.2c-.2-.1-.4-.2-.5-.2-.2-.1-.2-.3-.2-.5s0-.4.2-.5.4-.2.7-.2.5,0,.6.2c.2.1.3.3.3.6h-.5c0-.1,0-.2-.2-.3,0,0-.2,0-.3,0s-.2,0-.3,0c0,0-.1.1-.1.2s0,.1.1.2c0,0,.1,0,.3,0h.4c.2.1.3.2.4.3.1.1.2.3.2.5s0,.4-.2.5c-.2.1-.4.2-.7.2s-.5,0-.7-.2c-.2-.1-.3-.3-.3-.6h.5Z"/>
  </g>
</svg>