<?xml version="1.0" encoding="UTF-8" standalone="no"?>
<!DOCTYPE svg PUBLIC "-//W3C//DTD SVG 1.1//EN" "http://www.w3.org/Graphics/SVG/1.1/DTD/svg11.dtd">
<svg width="100%" height="100%" viewBox="0 0 2048 2048" version="1.1" xmlns="http://www.w3.org/2000/svg" xmlns:xlink="http://www.w3.org/1999/xlink" xml:space="preserve" xmlns:serif="http://www.serif.com/" style="fill-rule:evenodd;clip-rule:evenodd;stroke-linejoin:round;stroke-miterlimit:2;">
    <g transform="matrix(10.7465,0,0,10.7427,2048,1361.53)">
        <path d="M0,9.684L-0.634,11.078L-7.861,11.078L-7.861,-1.451L-0.383,-1.451L-0.833,-0.108L-6.056,-0.108L-6.056,4.051L-1.339,4.051L-1.763,5.392L-6.056,5.392L-6.056,9.684L0,9.684ZM-17.073,-0.059L-20.639,-0.059L-20.639,-1.451L-11.034,-1.451L-11.585,-0.059L-15.267,-0.059L-15.267,11.078L-17.073,11.078L-17.073,-0.059ZM-25.871,-1.451L-24.067,-1.451L-24.067,11.078L-25.871,11.078L-25.871,-1.451ZM-36.015,9.684L-29.964,9.684L-30.604,11.078L-37.819,11.078L-37.819,-1.451L-30.351,-1.451L-30.797,-0.108L-36.015,-0.108L-36.015,4.051L-31.303,4.051L-31.727,5.392L-36.015,5.392L-36.015,9.684ZM-42.57,5.963L-47.09,5.963L-47.09,11.078L-48.897,11.078L-48.897,-1.451L-41.273,-1.451L-41.719,-0.108L-47.09,-0.108L-47.09,4.644L-42.121,4.644L-42.57,5.963ZM-57.516,9.684L-52.096,9.684L-52.627,11.078L-59.324,11.078L-59.324,-1.451L-57.516,-1.451L-57.516,9.684ZM-70.883,6.869L-68.535,1.433L-66.33,6.869L-70.883,6.869ZM-69.79,-1.451L-69.275,-0.236L-69.304,-0.168L-74.359,11.078L-72.667,11.078L-71.377,8.029L-65.861,8.029L-64.593,11.078L-62.659,11.078L-67.884,-1.451L-69.79,-1.451ZM-83.564,3.086C-85.5,3.086 -86.611,4.594 -86.611,6.703C-86.611,8.811 -85.514,10.321 -83.564,10.321C-81.627,10.321 -80.518,8.811 -80.518,6.703C-80.518,4.594 -81.627,3.086 -83.564,3.086M-83.564,11.446C-86.184,11.446 -88.066,9.507 -88.066,6.703C-88.066,3.927 -86.184,1.963 -83.564,1.963C-80.941,1.963 -79.064,3.927 -79.064,6.703C-79.064,9.481 -80.941,11.446 -83.564,11.446M-94.402,3L-95.442,3L-95.442,10.191C-95.159,10.264 -94.571,10.393 -94.063,10.393C-91.982,10.393 -90.799,8.61 -90.799,6.746C-90.799,4.537 -92.092,3 -94.402,3M-94.063,11.446C-95.159,11.446 -96.111,11.26 -96.794,11.076L-96.794,2.259C-96.052,2.116 -95.214,1.973 -94.046,1.973C-91.114,1.973 -89.348,3.809 -89.348,6.729C-89.348,9.521 -91.199,11.446 -94.063,11.446M-102.842,9.684L-103.378,11.078L-110.075,11.078L-110.075,-1.451L-108.266,-1.451L-108.266,9.684L-102.842,9.684ZM-121.63,6.869L-119.279,1.433L-117.075,6.869L-121.63,6.869ZM-120.534,-1.451L-120.017,-0.236L-120.048,-0.168L-125.102,11.078L-123.41,11.078L-122.12,8.029L-116.606,8.029L-115.339,11.078L-113.408,11.078L-118.63,-1.451L-120.534,-1.451ZM-137.034,-1.451L-129.535,7.494L-129.535,-1.451L-127.957,-1.451L-127.957,11.078L-128.777,11.078L-136.744,1.669L-136.744,11.078L-138.345,11.078L-138.345,-0.212L-139.347,-1.451L-137.034,-1.451ZM-148.49,9.684L-142.442,9.684L-143.075,11.078L-150.296,11.078L-150.296,-1.451L-142.823,-1.451L-143.271,-0.108L-148.49,-0.108L-148.49,4.051L-143.776,4.051L-144.202,5.392L-148.49,5.392L-148.49,9.684ZM-154.6,7.797C-154.6,9.881 -156.46,11.334 -159.12,11.334C-160.255,11.334 -161.384,11.148 -162.576,10.763L-162.865,8.768C-161.746,9.497 -160.669,9.969 -159.25,9.969C-157.922,9.969 -156.484,9.208 -156.484,7.979C-156.484,6.987 -157.321,6.265 -158.043,5.95L-159.931,5.149C-161.657,4.427 -162.534,3.344 -162.534,1.932C-162.534,-0.266 -160.677,-1.684 -157.806,-1.684C-156.676,-1.684 -155.355,-1.264 -154.757,-0.935L-154.757,0.881C-155.732,0.056 -156.736,-0.345 -157.806,-0.345C-159.225,-0.345 -160.75,0.298 -160.75,1.7C-160.75,2.733 -159.681,3.299 -159.225,3.493L-157.052,4.476C-155.999,4.951 -154.6,5.815 -154.6,7.797M-173.557,4.749L-173.741,4.749L-173.741,-0.449L-172.288,-0.449C-170.317,-0.449 -168.488,-0.156 -168.488,1.958C-168.488,3.665 -170.392,4.628 -170.607,4.729L-173.557,4.749ZM-169.46,5.301C-168.167,4.819 -166.657,3.604 -166.657,1.774C-166.657,-0.834 -169.247,-1.762 -171.67,-1.762C-173.147,-1.762 -174.217,-1.566 -175.166,-1.396L-175.543,-1.326L-175.543,11.078L-173.741,11.078L-173.741,6.015L-171.296,6.015L-167.34,11.078L-165.1,11.078L-169.696,5.392L-169.46,5.301ZM-187.102,6.869L-184.751,1.433L-182.551,6.869L-187.102,6.869ZM-186.009,-1.451L-185.491,-0.236L-185.523,-0.168L-190.574,11.078L-188.884,11.078L-187.592,8.029L-182.077,8.029L-180.812,11.078L-178.88,11.078L-184.105,-1.451L-186.009,-1.451Z" style="fill:white;fill-rule:nonzero;"/>
    </g>
    <g transform="matrix(10.7465,0,0,10.7427,944.208,563.508)">
        <path d="M0,57.716L14.842,57.716L-14.36,0L-29.215,0L0,57.716Z" style="fill:white;fill-rule:nonzero;"/>
    </g>
    <g transform="matrix(10.7465,0,0,10.7427,316.264,1127.15)">
        <path d="M0,5.248L14.844,5.248L12.191,0L-2.66,0L0,5.248Z" style="fill:white;fill-rule:nonzero;"/>
    </g>
    <g transform="matrix(-10.7465,0,0,10.7427,630.209,563.508)">
        <path d="M14.37,57.716L29.214,57.716L0.013,0L-14.844,0L14.37,57.716Z" style="fill:white;fill-rule:nonzero;"/>
    </g>
    <g transform="matrix(-10.7465,0,0,10.7427,710.007,1027.37)">
        <path d="M-58.433,-12.372L0,-12.372L-6.259,0L-52.171,0L-58.433,-12.372Z" style="fill:white;fill-rule:nonzero;"/>
    </g>
    <g transform="matrix(-10.7465,0,0,10.7427,1600.8,1127.15)">
        <path d="M-12.186,5.248L2.658,5.248L0.006,0L-14.844,0L-12.186,5.248Z" style="fill:white;fill-rule:nonzero;"/>
    </g>
    <g transform="matrix(10.7465,0,0,10.7427,1572.16,563.508)">
        <path d="M0,57.716L14.843,57.716L-14.357,0L-29.213,0L0,57.716Z" style="fill:white;fill-rule:nonzero;"/>
    </g>
    <g transform="matrix(-10.7465,0,0,10.7427,1258.22,563.508)">
        <path d="M14.376,57.716L29.216,57.716L0.016,0L-14.84,0L14.376,57.716Z" style="fill:white;fill-rule:nonzero;"/>
    </g>
</svg>
