<?xml version="1.0" encoding="UTF-8" standalone="no"?>
<!DOCTYPE svg PUBLIC "-//W3C//DTD SVG 1.1//EN" "http://www.w3.org/Graphics/SVG/1.1/DTD/svg11.dtd">
<svg width="100%" height="100%" viewBox="0 0 993 835" version="1.1" xmlns="http://www.w3.org/2000/svg" xmlns:xlink="http://www.w3.org/1999/xlink" xml:space="preserve" xmlns:serif="http://www.serif.com/" style="fill-rule:evenodd;clip-rule:evenodd;stroke-linejoin:round;stroke-miterlimit:2;">
    <g transform="matrix(8.33333,0,0,8.33333,469.267,628.676)">
        <path d="M0,-73.746C-4.273,-73.444 -8.493,-72.39 -12.405,-70.643C-20.558,-67.03 -27.301,-60.367 -31.008,-52.256C-34.898,-43.878 -35.445,-34.028 -32.56,-25.256C-29.944,-17.191 -24.443,-10.116 -17.299,-5.558C-13.102,-2.863 -8.351,-1.032 -3.427,-0.22C3.055,0.858 9.825,0.194 15.958,-2.173C24.131,-5.288 31.1,-11.417 35.255,-19.11C37.952,-24.052 39.479,-29.62 39.703,-35.243C39.954,-41.162 38.768,-47.138 36.244,-52.499C32.672,-60.158 26.392,-66.508 18.774,-70.169C12.974,-72.983 6.428,-74.213 0,-73.746M0.149,-75.36C6.459,-75.769 12.872,-74.629 18.63,-72.004C26.346,-68.521 32.843,-62.421 36.81,-54.942C39.322,-50.241 40.834,-45.011 41.223,-39.694C41.701,-33.409 40.627,-27.007 38.082,-21.237C34.625,-13.327 28.426,-6.655 20.793,-2.62C15.545,0.177 9.638,1.725 3.692,1.865C-2.009,2.023 -7.744,0.906 -12.958,-1.41C-20.892,-4.899 -27.565,-11.151 -31.578,-18.833C-35.001,-25.32 -36.48,-32.8 -35.842,-40.105C-35.417,-45.174 -33.971,-50.158 -31.61,-54.665C-27.507,-62.558 -20.594,-68.942 -12.396,-72.394C-8.421,-74.079 -4.159,-75.082 0.149,-75.36" style="fill:white;fill-rule:nonzero;"/>
    </g>
    <g transform="matrix(8.33333,0,0,8.33333,365.89,566.315)">
        <path d="M0,-58.996C6.652,-62.407 14.472,-63.427 21.789,-61.922C27.011,-60.862 31.96,-58.508 36.087,-55.141C39.46,-52.4 42.291,-48.993 44.364,-45.174C46.816,-40.67 48.197,-35.59 48.363,-30.463C48.587,-24.39 47.111,-18.261 44.116,-12.969C39.885,-5.397 32.583,0.389 24.229,2.738C18.519,4.366 12.375,4.431 6.631,2.928C2.162,1.756 -2.073,-0.348 -5.668,-3.254C-6.896,-5.28 -7.78,-7.507 -8.443,-9.778C-9.087,-11.966 -9.313,-14.274 -9.095,-16.544C-8.85,-19.283 -8.011,-21.923 -7.047,-24.483C-5.843,-27.684 -4.417,-30.804 -3.4,-34.073C-2.027,-38.558 -1.194,-43.204 -0.82,-47.876C0.959,-47.023 2.758,-46.184 4.656,-45.63C8.081,-44.743 11.614,-44.399 15.104,-43.853C17.593,-43.549 20.08,-43.018 22.366,-41.958C24.723,-40.858 26.959,-39.253 28.311,-36.987C24.969,-37.093 21.625,-37.156 18.281,-37.155C15.12,-37.11 11.958,-36.835 8.841,-36.3C9.245,-35.611 9.999,-35.249 10.645,-34.829C12.273,-33.775 14.296,-33.218 16.221,-33.643C17.034,-34.712 18.45,-35.005 19.702,-35.21C22.521,-35.557 25.381,-35.256 28.161,-34.754C30.939,-34.202 33.631,-33.132 35.949,-31.492C37.385,-30.472 38.704,-29.249 39.696,-27.784C36.498,-28.735 33.078,-29.048 29.78,-28.483C27.961,-28.177 26.222,-27.502 24.62,-26.596C22.505,-25.423 20.531,-23.874 19.229,-21.807C17.852,-19.66 17.363,-17.009 17.675,-14.493C18.007,-12.216 19.167,-10.12 20.704,-8.432C21.455,-7.638 22.281,-6.864 23.295,-6.424C23.461,-6.37 23.925,-6.182 23.872,-6.529C23.687,-7.115 23.269,-7.584 22.908,-8.069C22.21,-8.981 21.41,-9.816 20.745,-10.753C19.778,-12.418 19.225,-14.346 19.255,-16.275C19.281,-17.933 19.902,-19.582 21.039,-20.798C22.498,-22.385 24.538,-23.283 26.579,-23.859C32.097,-25.442 38.087,-25.452 43.571,-23.719C44.125,-23.543 44.668,-23.338 45.204,-23.111C45.489,-25.441 44.59,-27.723 43.506,-29.74C42.646,-31.41 41.281,-32.778 39.701,-33.777C38.059,-34.816 36.23,-35.56 34.334,-35.98C33.617,-38.059 32.183,-39.789 30.707,-41.378C29.313,-42.793 27.872,-44.235 26.057,-45.102C23.062,-46.57 19.687,-46.978 16.397,-47.187C13.068,-47.413 9.717,-47.255 6.404,-47.699C3.107,-48.189 -0.119,-49.159 -3.152,-50.537C-3.4,-47.24 -3.573,-43.903 -4.44,-40.696C-5.145,-37.669 -6.568,-34.879 -7.979,-32.13C-8.978,-30.166 -10.13,-28.28 -11.022,-26.262C-12.811,-22.274 -13.958,-17.989 -14.323,-13.631C-18.031,-20.545 -19.146,-28.788 -17.453,-36.444C-16.366,-41.447 -14.088,-46.18 -10.876,-50.164C-7.93,-53.832 -4.196,-56.865 0,-58.996" style="fill:white;fill-rule:nonzero;"/>
    </g>
    <g transform="matrix(8.33333,0,0,8.33333,25.753,792.953)">
        <path d="M0,-12.757C1.887,-13.96 4.253,-14.141 6.415,-13.793C7.643,-13.604 8.811,-13.159 9.934,-12.641C9.952,-11.863 9.937,-11.085 9.943,-10.306C9.591,-10.371 9.343,-10.658 9.044,-10.834C7.398,-12.006 5.301,-12.476 3.305,-12.226C2.234,-12.085 1.198,-11.601 0.457,-10.808C-0.494,-9.833 -0.951,-8.473 -1.039,-7.133C-1.13,-5.725 -0.978,-4.245 -0.282,-2.992C0.392,-1.768 1.619,-0.883 2.984,-0.603C4.665,-0.256 6.427,-0.514 8.023,-1.104C8.027,-2.303 8.024,-3.502 8.024,-4.701C6.717,-4.699 5.409,-4.701 4.102,-4.7C4.104,-5.27 4.104,-5.84 4.102,-6.41C6.049,-6.418 7.995,-6.403 9.941,-6.418C9.965,-4.322 9.942,-2.226 9.953,-0.13C8.038,0.708 5.969,1.384 3.852,1.211C1.791,1.099 -0.369,0.326 -1.633,-1.383C-3.025,-3.234 -3.277,-5.691 -2.979,-7.925C-2.727,-9.86 -1.662,-11.705 0,-12.757" style="fill:white;fill-rule:nonzero;stroke:white;stroke-width:0.12px;"/>
    </g>
    <g transform="matrix(8.33333,0,0,8.33333,320.04,809.105)">
        <path d="M0,-9.249C0.034,-7.174 -0.02,-5.099 0.027,-3.024C1.243,-2.48 2.677,-2.191 3.958,-2.673C5.038,-3.088 5.66,-4.204 5.819,-5.301C5.983,-6.438 5.964,-7.625 5.627,-8.73C5.391,-9.532 4.768,-10.253 3.923,-10.426C2.514,-10.759 1.094,-10.097 0,-9.249M0.006,-10.823C1.039,-11.654 2.299,-12.311 3.657,-12.272C4.807,-12.293 5.969,-11.791 6.654,-10.851C7.679,-9.511 7.872,-7.74 7.807,-6.105C7.73,-4.336 6.967,-2.494 5.438,-1.505C3.823,-0.436 1.646,-0.615 0.007,-1.538C0.011,-0.005 0.01,1.528 0.008,3.061C-0.609,3.062 -1.225,3.062 -1.842,3.059C-1.838,-1.948 -1.84,-6.957 -1.84,-11.966C-1.223,-11.967 -0.607,-11.966 0.01,-11.966C0.01,-11.586 0.008,-11.206 0.006,-10.823" style="fill:white;fill-rule:nonzero;stroke:white;stroke-width:0.12px;"/>
    </g>
    <g transform="matrix(8.33333,0,0,8.33333,435.551,790.613)">
        <path d="M0,-8.38C-0.619,-8.253 -1.183,-7.9 -1.566,-7.401C-2.215,-6.557 -2.358,-5.451 -2.382,-4.418C-2.392,-3.3 -2.266,-2.095 -1.579,-1.168C-0.494,0.337 2.088,0.321 3.156,-1.196C3.875,-2.199 3.966,-3.496 3.927,-4.69C3.877,-5.768 3.653,-6.957 2.823,-7.722C2.083,-8.429 0.97,-8.577 0,-8.38M-0.683,-9.875C0.674,-10.203 2.188,-10.108 3.406,-9.385C4.582,-8.684 5.359,-7.438 5.647,-6.115C5.926,-4.807 5.917,-3.427 5.582,-2.129C5.206,-0.673 4.174,0.649 2.748,1.19C1.007,1.823 -1.143,1.634 -2.551,0.356C-3.556,-0.546 -4.092,-1.867 -4.229,-3.191C-4.378,-4.623 -4.273,-6.134 -3.626,-7.443C-3.046,-8.621 -1.966,-9.561 -0.683,-9.875" style="fill:white;fill-rule:nonzero;stroke:white;stroke-width:0.12px;"/>
    </g>
    <g transform="matrix(8.33333,0,0,8.33333,132.846,800.24)">
        <path d="M0,-10.902C0.616,-10.902 1.233,-10.903 1.849,-10.902C1.848,-10.363 1.849,-9.823 1.85,-9.283C2.61,-9.881 3.417,-10.465 4.356,-10.739C5.167,-10.978 6.028,-10.929 6.852,-10.786C6.851,-10.149 6.854,-9.51 6.851,-8.872C5.76,-9.108 4.563,-9.226 3.517,-8.755C2.916,-8.491 2.365,-8.13 1.852,-7.726C1.846,-5.126 1.848,-2.527 1.85,0.073C1.234,0.076 0.619,0.075 0.003,0.075C-0.001,-3.584 0.004,-7.244 0,-10.902" style="fill:white;fill-rule:nonzero;stroke:white;stroke-width:0.12px;"/>
    </g>
    <g transform="matrix(8.33333,0,0,8.33333,200.851,804.199)">
        <path d="M0,-11.377C0.616,-11.378 1.233,-11.376 1.849,-11.378C1.852,-9.199 1.848,-7.018 1.852,-4.838C1.88,-4.042 1.877,-3.161 2.388,-2.498C2.831,-1.908 3.637,-1.832 4.319,-1.856C5.44,-1.94 6.456,-2.517 7.333,-3.183C7.334,-5.917 7.318,-8.652 7.341,-11.387C7.953,-11.369 8.566,-11.381 9.179,-11.377L9.179,-0.399C8.563,-0.402 7.946,-0.4 7.331,-0.4C7.331,-0.806 7.331,-1.212 7.332,-1.616C6.41,-0.913 5.384,-0.231 4.197,-0.124C3.033,0.01 1.729,-0.259 0.936,-1.184C0.222,-1.993 0.012,-3.114 0.003,-4.162C-0.004,-6.567 0.001,-8.972 0,-11.377" style="fill:white;fill-rule:nonzero;stroke:white;stroke-width:0.12px;"/>
    </g>
    <g transform="matrix(-8.1189,1.87826,1.87826,8.1189,1005.96,796.753)">
        <path d="M1.701,-14.92C0.595,-14.661 -0.512,-14.409 -1.618,-14.151C-0.509,-9.369 0.597,-4.588 1.701,0.196C2.808,-0.06 3.915,-0.317 5.023,-0.574C3.912,-5.357 2.81,-10.138 1.701,-14.92" style="fill:white;fill-rule:nonzero;stroke:white;stroke-width:0.12px;"/>
    </g>
    <g transform="matrix(8.33333,0,0,8.33333,784.331,803.665)">
        <path d="M0,-13.918C1.136,-13.919 2.27,-13.919 3.406,-13.918C3.405,-12.907 3.406,-11.895 3.405,-10.884C4.469,-10.882 5.533,-10.884 6.597,-10.884C6.599,-10.114 6.597,-9.344 6.597,-8.574C5.533,-8.572 4.469,-8.572 3.406,-8.574C3.41,-6.997 3.394,-5.42 3.414,-3.842C3.396,-3.248 3.702,-2.573 4.333,-2.44C5.105,-2.203 5.853,-2.565 6.597,-2.712C6.597,-1.923 6.599,-1.135 6.596,-0.345C5.481,-0.066 4.322,0.001 3.179,-0.082C2.317,-0.157 1.406,-0.389 0.783,-1.027C0.188,-1.666 0.024,-2.574 0.004,-3.417C-0.005,-5.136 0.005,-6.854 -0.001,-8.573L-1.402,-8.573C-1.402,-9.344 -1.402,-10.114 -1.4,-10.882C-0.935,-10.884 -0.467,-10.884 0,-10.884C0.001,-11.895 0.001,-12.907 0,-13.918" style="fill:white;fill-rule:nonzero;stroke:white;stroke-width:0.12px;"/>
    </g>
    <g transform="matrix(8.33333,0,0,8.33333,532.963,788.479)">
        <path d="M0,-7.892C1.035,-8.702 2.254,-9.454 3.626,-9.351C4.87,-9.358 6.021,-8.613 6.597,-7.524C7.551,-8.31 8.608,-9.076 9.848,-9.302C10.92,-9.46 12.135,-9.267 12.93,-8.474C13.702,-7.704 13.945,-6.57 13.96,-5.515C13.965,-3.154 13.961,-0.794 13.962,1.568C12.82,1.566 11.679,1.566 10.537,1.568C10.528,-0.526 10.556,-2.62 10.521,-4.713C10.503,-5.326 10.454,-6.128 9.818,-6.429C8.865,-6.826 7.803,-6.499 6.977,-5.963C6.985,-3.453 6.977,-0.944 6.981,1.566C5.84,1.568 4.697,1.564 3.556,1.568C3.548,-0.347 3.56,-2.263 3.551,-4.178C3.522,-4.813 3.579,-5.507 3.234,-6.071C2.912,-6.555 2.271,-6.613 1.741,-6.596C1.116,-6.593 0.566,-6.261 0.019,-6.001C-0.028,-3.48 0.01,-0.956 0,1.567L-3.411,1.567C-3.411,-1.975 -3.413,-5.517 -3.411,-9.06C-2.275,-9.061 -1.138,-9.061 -0.002,-9.06C-0.002,-8.671 -0.001,-8.282 0,-7.892" style="fill:white;fill-rule:nonzero;stroke:white;stroke-width:0.12px;"/>
    </g>
    <g transform="matrix(8.33333,0,0,8.33333,703.113,782.796)">
        <path d="M0,-6.027C-0.465,-5.635 -0.609,-5.013 -0.673,-4.435C0.808,-4.431 2.288,-4.426 3.769,-4.438C3.739,-5.193 3.491,-6.08 2.723,-6.39C1.84,-6.721 0.739,-6.651 0,-6.027M-2.629,-7.03C-1.675,-8.034 -0.31,-8.554 1.052,-8.669C2.339,-8.775 3.696,-8.701 4.867,-8.107C5.807,-7.635 6.509,-6.759 6.831,-5.764C7.203,-4.695 7.144,-3.549 7.145,-2.435C4.543,-2.433 1.939,-2.436 -0.665,-2.433C-0.621,-1.477 -0.053,-0.546 0.864,-0.202C2.682,0.494 4.785,0.094 6.386,-0.957C6.544,-1.096 6.752,-1.08 6.948,-1.087C6.942,-0.174 6.945,0.738 6.947,1.65C4.879,2.527 2.555,2.748 0.353,2.338C-0.994,2.077 -2.324,1.429 -3.143,0.296C-3.992,-0.861 -4.193,-2.366 -4.061,-3.762C-3.956,-4.968 -3.487,-6.163 -2.629,-7.03" style="fill:white;fill-rule:nonzero;stroke:white;stroke-width:0.12px;"/>
    </g>
    <g transform="matrix(8.33333,0,0,8.33333,884.411,749.197)">
        <path d="M0,1.816C-0.898,2.174 -1.012,3.7 -0.084,4.086C0.963,4.481 2.194,4.228 3.052,3.52C3.049,2.777 3.052,2.035 3.049,1.292C2.03,1.419 0.96,1.412 0,1.816M-3.249,-4.124C-1.137,-4.608 1.068,-4.836 3.217,-4.472C4.177,-4.296 5.187,-3.942 5.795,-3.133C6.271,-2.511 6.431,-1.709 6.432,-0.939C6.434,1.466 6.427,3.873 6.434,6.279C5.306,6.282 4.178,6.281 3.051,6.281C3.051,5.904 3.049,5.528 3.052,5.156C2.477,5.581 1.907,6.045 1.219,6.276C0.335,6.575 -0.633,6.652 -1.549,6.466C-2.79,6.204 -3.887,5.2 -4.112,3.929C-4.282,2.946 -4.143,1.831 -3.449,1.069C-2.737,0.263 -1.673,-0.095 -0.649,-0.303C0.577,-0.537 1.824,-0.618 3.068,-0.708C3.109,-1.271 2.798,-1.842 2.246,-2.02C0.959,-2.458 -0.476,-2.388 -1.754,-1.955C-2.254,-1.819 -2.724,-1.568 -3.247,-1.536C-3.254,-2.399 -3.25,-3.262 -3.249,-4.124" style="fill:white;fill-rule:nonzero;stroke:white;stroke-width:0.12px;"/>
    </g>
</svg>
