<?xml version="1.0" encoding="UTF-8" standalone="no"?>
<!DOCTYPE svg PUBLIC "-//W3C//DTD SVG 1.1//EN" "http://www.w3.org/Graphics/SVG/1.1/DTD/svg11.dtd">
<svg width="100%" height="100%" viewBox="0 0 1674 773" version="1.1" xmlns="http://www.w3.org/2000/svg" xmlns:xlink="http://www.w3.org/1999/xlink" xml:space="preserve" xmlns:serif="http://www.serif.com/" style="fill-rule:evenodd;clip-rule:evenodd;stroke-linejoin:round;stroke-miterlimit:2;">
    <g transform="matrix(443.639,2.29323,2.29323,-443.639,0.458751,458.111)">
        <path d="M0,-0.001L-0,-0.199C0.225,-0.056 0.473,0.001 0.709,0.001C0.813,0.001 0.911,-0.011 1,-0.035L1,0.163C0.911,0.188 0.813,0.199 0.709,0.199C0.706,0.199 0.704,0.199 0.701,0.199C0.467,0.198 0.222,0.141 0,-0.001Z" style="fill:white;fill-rule:nonzero;"/>
    </g>
    <g transform="matrix(231.203,326.156,326.156,-231.203,96.3041,51.0653)">
        <path d="M0.693,-0.785C0.694,-0.758 0.696,-0.731 0.699,-0.704C0.651,-0.656 0.6,-0.609 0.547,-0.564C0.483,-0.51 0.417,-0.459 0.35,-0.412C0.406,-0.398 0.463,-0.387 0.52,-0.377C0.591,-0.44 0.658,-0.505 0.72,-0.572C0.721,-0.572 0.72,-0.572 0.721,-0.572C0.727,-0.543 0.734,-0.514 0.742,-0.486C0.677,-0.418 0.608,-0.352 0.534,-0.289C0.47,-0.235 0.404,-0.184 0.337,-0.137C0.394,-0.123 0.453,-0.111 0.512,-0.102C0.609,-0.185 0.699,-0.274 0.781,-0.366C0.79,-0.342 0.8,-0.319 0.81,-0.296C0.723,-0.197 0.628,-0.103 0.523,-0.014C0.459,0.04 0.393,0.091 0.326,0.138C0.567,0.199 0.874,0.208 1.137,0.176C1.155,0.193 1.173,0.208 1.191,0.223L0.407,0.785L-0.24,-0.117L0.693,-0.785ZM0.72,-0.573C0.72,-0.573 0.721,-0.573 0.721,-0.572C0.72,-0.573 0.72,-0.573 0.72,-0.573Z" style="fill:white;fill-rule:nonzero;"/>
    </g>
    <g transform="matrix(-5.03917,974.857,974.857,5.03917,1121.17,-25.2648)">
        <path d="M0.505,-0.569L0.505,-0.569L0.522,-0.569C0.562,-0.514 0.593,-0.451 0.613,-0.386L0.034,-0.386L0.034,-0.569L0.505,-0.569ZM0.612,0.178L0.612,0.569L0.485,0.569L0.485,0.361L0.034,0.361L0.034,0.178L0.612,0.178ZM0.19,-0.169L0.163,-0.169L0.163,-0.323L0.735,-0.323C0.772,-0.272 0.8,-0.216 0.819,-0.155L0.618,-0.155C0.621,-0.14 0.624,-0.11 0.624,-0.086C0.624,0.052 0.564,0.132 0.405,0.132L0.366,0.132C0.205,0.132 0.151,0.066 0.151,-0.034C0.151,-0.034 0.151,-0.035 0.151,-0.035C0.151,-0.08 0.162,-0.127 0.19,-0.169ZM0.505,-0.105C0.505,-0.122 0.503,-0.14 0.499,-0.157L0.285,-0.157C0.274,-0.133 0.271,-0.113 0.271,-0.096C0.271,-0.052 0.289,-0.036 0.366,-0.036L0.405,-0.036C0.488,-0.036 0.505,-0.057 0.505,-0.104C0.505,-0.105 0.505,-0.105 0.505,-0.105Z" style="fill:white;fill-rule:nonzero;"/>
    </g>
</svg>
