{
  "accessors": [
    {
      "bufferView": 2,
      "componentType": 5126,
      "count": 20007,
      "max": [
        1.0196399688720703,
        3.2343099117279053,
        0.49103400111198425
      ],
      "min": [
        -1.019629955291748,
        -2.3637900352478027,
        -0.5191659927368164
      ],
      "type": "VEC3"
    },
    {
      "bufferView": 2,
      "byteOffset": 240084,
      "componentType": 5126,
      "count": 20007,
      "max": [
        1.0,
        1.0,
        0.999990701675415
      ],
      "min": [
        -1.0,
        -0.9999987483024597,
        -0.9999987483024597
      ],
      "type": "VEC3"
    },
    {
      "bufferView": 1,
      "componentType": 5126,
      "count": 20007,
      "max": [
        0.9968670010566711,
        0.9971680045127869
      ],
      "min": [
        0.004118199925869703,
        0.005798819940537214
      ],
      "type": "VEC2"
    },
    {
      "bufferView": 0,
      "componentType": 5125,
      "count": 59451,
      "type": "SCALAR"
    },
    {
      "bufferView": 2,
      "byteOffset": 480168,
      "componentType": 5126,
      "count": 1096,
      "max": [
        0.3181680142879486,
        0.9213039875030518,
        0.3395270109176636
      ],
      "min": [
        -0.3192319869995117,
        -0.35096800327301025,
        0.11180900037288666
      ],
      "type": "VEC3"
    },
    {
      "bufferView": 2,
      "byteOffset": 493320,
      "componentType": 5126,
      "count": 1096,
      "max": [
        0.9998843669891357,
        0.9999908804893494,
        0.9994676113128662
      ],
      "min": [
        -0.9998844265937805,
        -0.9761163592338562,
        -0.9996381402015686
      ],
      "type": "VEC3"
    },
    {
      "bufferView": 1,
      "byteOffset": 160056,
      "componentType": 5126,
      "count": 1096,
      "max": [
        0.9765530228614807,
        0.9871159791946411
      ],
      "min": [
        0.02840930037200451,
        0.009893660433590412
      ],
      "type": "VEC2"
    },
    {
      "bufferView": 0,
      "byteOffset": 237804,
      "componentType": 5125,
      "count": 4320,
      "type": "SCALAR"
    },
    {
      "bufferView": 2,
      "byteOffset": 506472,
      "componentType": 5126,
      "count": 7028,
      "max": [
        0.8836479783058167,
        3.3017098903656006,
        0.6286669969558716
      ],
      "min": [
        -0.883637011051178,
        -2.095289945602417,
        -0.452565997838974
      ],
      "type": "VEC3"
    },
    {
      "bufferView": 2,
      "byteOffset": 590808,
      "componentType": 5126,
      "count": 7028,
      "max": [
        1.0,
        1.0,
        0.9999992847442627
      ],
      "min": [
        -1.0,
        -1.0,
        -0.9999843835830688
      ],
      "type": "VEC3"
    },
    {
      "bufferView": 1,
      "byteOffset": 168824,
      "componentType": 5126,
      "count": 7028,
      "max": [
        0.985489010810852,
        0.9987999796867371
      ],
      "min": [
        0.0016250800108537078,
        0.0042199501767754555
      ],
      "type": "VEC2"
    },
    {
      "bufferView": 0,
      "byteOffset": 255084,
      "componentType": 5125,
      "count": 19851,
      "type": "SCALAR"
    },
    {
      "bufferView": 2,
      "byteOffset": 675144,
      "componentType": 5126,
      "count": 7168,
      "max": [
        0.9736379981040955,
        3.315809965133667,
        0.5156340003013611
      ],
      "min": [
        -0.9736329913139343,
        -2.3637900352478027,
        -0.4778589904308319
      ],
      "type": "VEC3"
    },
    {
      "bufferView": 2,
      "byteOffset": 761160,
      "componentType": 5126,
      "count": 7168,
      "max": [
        1.0,
        0.9998547434806824,
        0.9999982118606567
      ],
      "min": [
        -1.0,
        -0.9998512268066406,
        -0.9999448657035828
      ],
      "type": "VEC3"
    },
    {
      "bufferView": 1,
      "byteOffset": 225048,
      "componentType": 5126,
      "count": 7168,
      "max": [
        0.9917299747467041,
        0.9912160038948059
      ],
      "min": [
        0.003830550005659461,
        0.005437610205262899
      ],
      "type": "VEC2"
    },
    {
      "bufferView": 0,
      "byteOffset": 334488,
      "componentType": 5125,
      "count": 26499,
      "type": "SCALAR"
    },
    {
      "bufferView": 2,
      "byteOffset": 847176,
      "componentType": 5126,
      "count": 25190,
      "max": [
        1.0137100219726563,
        2.7400600910186768,
        -0.04508040100336075
      ],
      "min": [
        -1.0159499645233154,
        -1.3174999952316284,
        -0.4115320146083832
      ],
      "type": "VEC3"
    },
    {
      "bufferView": 2,
      "byteOffset": 1149456,
      "componentType": 5126,
      "count": 25190,
      "max": [
        0.9999998807907104,
        0.9999818801879883,
        0.9999799132347107
      ],
      "min": [
        -0.9999998807907104,
        -0.9999818801879883,
        -0.9999855160713196
      ],
      "type": "VEC3"
    },
    {
      "bufferView": 1,
      "byteOffset": 282392,
      "componentType": 5126,
      "count": 25190,
      "max": [
        0.9990630149841309,
        0.9682369828224182
      ],
      "min": [
        0.00012199999764561653,
        0.00017094600480049849
      ],
      "type": "VEC2"
    },
    {
      "bufferView": 0,
      "byteOffset": 440484,
      "componentType": 5125,
      "count": 89046,
      "type": "SCALAR"
    },
    {
      "bufferView": 2,
      "byteOffset": 1451736,
      "componentType": 5126,
      "count": 18101,
      "max": [
        0.14616799354553223,
        -0.018207000568509102,
        0.10191000252962112
      ],
      "min": [
        -0.14616799354553223,
        -0.12764400243759155,
        -0.06672360002994537
      ],
      "type": "VEC3"
    },
    {
      "bufferView": 2,
      "byteOffset": 1668948,
      "componentType": 5126,
      "count": 18101,
      "max": [
        1.0,
        1.0,
        1.0
      ],
      "min": [
        -1.0,
        -1.0,
        -1.0
      ],
      "type": "VEC3"
    },
    {
      "bufferView": 1,
      "byteOffset": 483912,
      "componentType": 5126,
      "count": 18101,
      "max": [
        0.9776110053062439,
        0.9989219903945923
      ],
      "min": [
        0.0008130070054903626,
        0.016229700297117233
      ],
      "type": "VEC2"
    },
    {
      "bufferView": 0,
      "byteOffset": 796668,
      "componentType": 5125,
      "count": 75204,
      "type": "SCALAR"
    },
    {
      "bufferView": 2,
      "byteOffset": 1886160,
      "componentType": 5126,
      "count": 4816,
      "max": [
        1.0170199871063232,
        2.890939950942993,
        0.10493600368499756
      ],
      "min": [
        -1.019260048866272,
        -1.4730199575424194,
        -0.5637120008468628
      ],
      "type": "VEC3"
    },
    {
      "bufferView": 2,
      "byteOffset": 1943952,
      "componentType": 5126,
      "count": 4816,
      "max": [
        0.9999979138374329,
        0.9953324794769287,
        0.9953290224075317
      ],
      "min": [
        -0.9999979138374329,
        -0.9953324794769287,
        -0.9953461289405823
      ],
      "type": "VEC3"
    },
    {
      "bufferView": 1,
      "byteOffset": 628720,
      "componentType": 5126,
      "count": 4816,
      "max": [
        4.000420093536377,
        1.0001399517059326
      ],
      "min": [
        -1.7517200831207447e-05,
        0.0005640389863401651
      ],
      "type": "VEC2"
    },
    {
      "bufferView": 0,
      "byteOffset": 1097484,
      "componentType": 5125,
      "count": 26496,
      "type": "SCALAR"
    },
    {
      "bufferView": 2,
      "byteOffset": 2001744,
      "componentType": 5126,
      "count": 960,
      "max": [
        0.5854840278625488,
        2.861870050430298,
        0.07648120075464249
      ],
      "min": [
        -0.587723970413208,
        2.2518999576568604,
        -0.5331529974937439
      ],
      "type": "VEC3"
    },
    {
      "bufferView": 2,
      "byteOffset": 2013264,
      "componentType": 5126,
      "count": 960,
      "max": [
        0.9993125796318054,
        0.7223661541938782,
        0.7245499491691589
      ],
      "min": [
        -0.9993125200271606,
        -0.72236567735672,
        -0.7192171812057495
      ],
      "type": "VEC3"
    },
    {
      "bufferView": 1,
      "byteOffset": 667248,
      "componentType": 5126,
      "count": 960,
      "max": [
        0.9993360042572021,
        0.9989870190620422
      ],
      "min": [
        0.0006275229970924556,
        0.001014470006339252
      ],
      "type": "VEC2"
    },
    {
      "bufferView": 0,
      "byteOffset": 1203468,
      "componentType": 5125,
      "count": 5376,
      "type": "SCALAR"
    }
  ],
  "asset": {
    "extras": {
      "author": "vecarz (https://sketchfab.com/heynic)",
      "license": "CC-BY-4.0 (http://creativecommons.org/licenses/by/4.0/)",
      "source": "https://sketchfab.com/3d-models/mclaren-35m-2021-wwwvecarzcom-5094ae7c57c544e7832fcd9ca39bba2f",
      "title": "Mclaren 35M 2021 | www.vecarz.com"
    },
    "generator": "Sketchfab-16.72.0",
    "version": "2.0"
  },
  "bufferViews": [
    {
      "buffer": 0,
      "byteLength": 1224972,
      "name": "floatBufferViews",
      "target": 34963
    },
    {
      "buffer": 0,
      "byteLength": 674928,
      "byteOffset": 1224972,
      "byteStride": 8,
      "name": "floatBufferViews",
      "target": 34962
    },
    {
      "buffer": 0,
      "byteLength": 2024784,
      "byteOffset": 1899900,
      "byteStride": 12,
      "name": "floatBufferViews",
      "target": 34962
    }
  ],
  "buffers": [
    {
      "byteLength": 3924684,
      "uri": "scene.bin"
    }
  ],
  "extensionsUsed": [
    "KHR_materials_clearcoat",
    "KHR_materials_specular"
  ],
  "images": [
    {
      "uri": "textures/mcl35m_c_png_baseColor.png"
    },
    {
      "uri": "textures/mcl35m_h_png_baseColor.png"
    },
    {
      "uri": "textures/mcl35m_m_png_baseColor.png"
    },
    {
      "uri": "textures/mcl35m_png_baseColor.png"
    },
    {
      "uri": "textures/st_wheel_png_baseColor.png"
    },
    {
      "uri": "textures/tread_png_baseColor.png"
    },
    {
      "uri": "textures/tyrewall_png_baseColor.png"
    }
  ],
  "materials": [
    {
      "extensions": {
        "KHR_materials_clearcoat": {
          "clearcoatFactor": 1.0,
          "clearcoatRoughnessFactor": 0.04
        }
      },
      "name": "mcl35m_c_png",
      "pbrMetallicRoughness": {
        "baseColorFactor": [
          0.5409540295741854,
          0.5409540295741854,
          0.5409540295741854,
          1.0
        ],
        "baseColorTexture": {
          "index": 0
        },
        "metallicFactor": 0.9615267398910168,
        "roughnessFactor": 0.693335446355646
      }
    },
    {
      "extensions": {
        "KHR_materials_clearcoat": {
          "clearcoatFactor": 1.0,
          "clearcoatRoughnessFactor": 0.04
        }
      },
      "name": "mcl35m_h_png",
      "pbrMetallicRoughness": {
        "baseColorFactor": [
          0.5287635162316685,
          0.5287635162316685,
          0.5287635162316685,
          1.0
        ],
        "baseColorTexture": {
          "index": 1
        },
        "roughnessFactor": 0.650668649656837
      }
    },
    {
      "name": "mcl35m_m_png",
      "pbrMetallicRoughness": {
        "baseColorTexture": {
          "index": 2
        },
        "metallicFactor": 0.7360022430544549,
        "roughnessFactor": 0.349
      }
    },
    {
      "extensions": {
        "KHR_materials_clearcoat": {
          "clearcoatFactor": 0.8274310931233314,
          "clearcoatRoughnessFactor": 0.041142982530994375
        },
        "KHR_materials_specular": {
          "specularColorFactor": [
            1.0,
            1.0,
            1.0
          ],
          "specularFactor": 0.059428752544769654
        }
      },
      "name": "mcl35m_png",
      "pbrMetallicRoughness": {
        "baseColorFactor": [
          0.5531445429167022,
          0.5531445429167022,
          0.5531445429167022,
          1.0
        ],
        "baseColorTexture": {
          "index": 3
        },
        "metallicFactor": 0.8761931464933987,
        "roughnessFactor": 0.894478916507174
      }
    },
    {
      "name": "rim_png",
      "pbrMetallicRoughness": {
        "baseColorFactor": [
          0.00560539,
          0.00560539,
          0.00560539,
          1.0
        ],
        "roughnessFactor": 0.334659
      }
    },
    {
      "name": "st_wheel_png",
      "pbrMetallicRoughness": {
        "baseColorTexture": {
          "index": 4
        },
        "metallicFactor": 0.234,
        "roughnessFactor": 0.349
      }
    },
    {
      "name": "tread_png",
      "pbrMetallicRoughness": {
        "baseColorTexture": {
          "index": 5
        },
        "metallicFactor": 0.887,
        "roughnessFactor": 0.586
      }
    },
    {
      "name": "tyrewall_png",
      "pbrMetallicRoughness": {
        "baseColorTexture": {
          "index": 6
        },
        "metallicFactor": 0.887,
        "roughnessFactor": 0.586
      }
    }
  ],
  "meshes": [
    {
      "name": "Object_0",
      "primitives": [
        {
          "attributes": {
            "NORMAL": 1,
            "POSITION": 0,
            "TEXCOORD_0": 2
          },
          "indices": 3,
          "material": 0,
          "mode": 4
        }
      ]
    },
    {
      "name": "Object_1",
      "primitives": [
        {
          "attributes": {
            "NORMAL": 5,
            "POSITION": 4,
            "TEXCOORD_0": 6
          },
          "indices": 7,
          "material": 1,
          "mode": 4
        }
      ]
    },
    {
      "name": "Object_2",
      "primitives": [
        {
          "attributes": {
            "NORMAL": 9,
            "POSITION": 8,
            "TEXCOORD_0": 10
          },
          "indices": 11,
          "material": 2,
          "mode": 4
        }
      ]
    },
    {
      "name": "Object_3",
      "primitives": [
        {
          "attributes": {
            "NORMAL": 13,
            "POSITION": 12,
            "TEXCOORD_0": 14
          },
          "indices": 15,
          "material": 3,
          "mode": 4
        }
      ]
    },
    {
      "name": "Object_4",
      "primitives": [
        {
          "attributes": {
            "NORMAL": 17,
            "POSITION": 16,
            "TEXCOORD_0": 18
          },
          "indices": 19,
          "material": 4,
          "mode": 4
        }
      ]
    },
    {
      "name": "Object_5",
      "primitives": [
        {
          "attributes": {
            "NORMAL": 21,
            "POSITION": 20,
            "TEXCOORD_0": 22
          },
          "indices": 23,
          "material": 5,
          "mode": 4
        }
      ]
    },
    {
      "name": "Object_6",
      "primitives": [
        {
          "attributes": {
            "NORMAL": 25,
            "POSITION": 24,
            "TEXCOORD_0": 26
          },
          "indices": 27,
          "material": 6,
          "mode": 4
        }
      ]
    },
    {
      "name": "Object_7",
      "primitives": [
        {
          "attributes": {
            "NORMAL": 29,
            "POSITION": 28,
            "TEXCOORD_0": 30
          },
          "indices": 31,
          "material": 7,
          "mode": 4
        }
      ]
    }
  ],
  "nodes": [
    {
      "children": [
        1
      ],
      "matrix": [
        1.0,
        0.0,
        0.0,
        0.0,
        0.0,
        2.220446049250313e-16,
        -1.0,
        0.0,
        0.0,
        1.0,
        2.220446049250313e-16,
        0.0,
        0.0,
        0.0,
        0.0,
        1.0
      ],
      "name": "Sketchfab_model"
    },
    {
      "children": [
        2
      ],
      "name": "root"
    },
    {
      "children": [
        3
      ],
      "matrix": [
        1.0,
        0.0,
        0.0,
        0.0,
        0.0,
        2.220446049250313e-16,
        1.0,
        0.0,
        0.0,
        -1.0,
        2.220446049250313e-16,
        0.0,
        0.0,
        0.0,
        0.0,
        1.0
      ],
      "name": "GLTF_SceneRootNode"
    },
    {
      "children": [
        4
      ],
      "matrix": [
        1.0,
        0.0,
        0.0,
        0.0,
        0.0,
        2.220446049250313e-16,
        -1.0,
        0.0,
        0.0,
        1.0,
        2.220446049250313e-16,
        0.0,
        0.0,
        0.0,
        0.0,
        1.0
      ],
      "name": "Sketchfab_model_0"
    },
    {
      "children": [
        5,
        7,
        9,
        11,
        13,
        15,
        17,
        19
      ],
      "name": "mcl35m_2.obj.cleaner.materialmerger.gles_1"
    },
    {
      "children": [
        6
      ],
      "name": "Object_2_2"
    },
    {
      "mesh": 0,
      "name": "Object_6"
    },
    {
      "children": [
        8
      ],
      "name": "Object_3_3"
    },
    {
      "mesh": 1,
      "name": "Object_8"
    },
    {
      "children": [
        10
      ],
      "name": "Object_4_4"
    },
    {
      "mesh": 2,
      "name": "Object_10"
    },
    {
      "children": [
        12
      ],
      "name": "Object_5_5"
    },
    {
      "mesh": 3,
      "name": "Object_12"
    },
    {
      "children": [
        14
      ],
      "name": "Object_6_6"
    },
    {
      "mesh": 4,
      "name": "Object_14"
    },
    {
      "children": [
        16
      ],
      "name": "Object_7_7"
    },
    {
      "mesh": 5,
      "name": "Object_16"
    },
    {
      "children": [
        18
      ],
      "name": "Object_8_8"
    },
    {
      "mesh": 6,
      "name": "Object_18"
    },
    {
      "children": [
        20
      ],
      "name": "Object_9_9"
    },
    {
      "mesh": 7,
      "name": "Object_20"
    }
  ],
  "samplers": [
    {
      "magFilter": 9729,
      "minFilter": 9987,
      "wrapS": 10497,
      "wrapT": 10497
    }
  ],
  "scene": 0,
  "scenes": [
    {
      "name": "Sketchfab_Scene",
      "nodes": [
        0
      ]
    }
  ],
  "textures": [
    {
      "sampler": 0,
      "source": 0
    },
    {
      "sampler": 0,
      "source": 1
    },
    {
      "sampler": 0,
      "source": 2
    },
    {
      "sampler": 0,
      "source": 3
    },
    {
      "sampler": 0,
      "source": 4
    },
    {
      "sampler": 0,
      "source": 5
    },
    {
      "sampler": 0,
      "source": 6
    }
  ]
}
