<?xml version="1.0" encoding="UTF-8" standalone="no"?>
<!DOCTYPE svg PUBLIC "-//W3C//DTD SVG 1.1//EN" "http://www.w3.org/Graphics/SVG/1.1/DTD/svg11.dtd">
<svg width="100%" height="100%" viewBox="0 0 682 682" version="1.1" xmlns="http://www.w3.org/2000/svg" xmlns:xlink="http://www.w3.org/1999/xlink" xml:space="preserve" xmlns:serif="http://www.serif.com/" style="fill-rule:evenodd;clip-rule:evenodd;stroke-linejoin:round;stroke-miterlimit:2;">
    <path d="M647.18,181.191C639.812,153.8 618.216,132.208 590.829,124.832C540.796,111.143 340.659,111.143 340.659,111.143C340.659,111.143 140.531,111.143 90.497,124.313C63.637,131.681 41.514,153.804 34.146,181.191C20.979,231.221 20.979,334.975 20.979,334.975C20.979,334.975 20.979,439.252 34.146,488.758C41.522,516.145 63.11,537.737 90.501,545.113C141.057,558.807 340.667,558.807 340.667,558.807C340.667,558.807 540.796,558.807 590.829,545.636C618.22,538.264 639.812,516.672 647.188,489.285C660.351,439.252 660.351,335.501 660.351,335.501C660.351,335.501 660.877,231.221 647.18,181.191ZM276.94,430.826L276.94,239.123L443.363,334.975L276.94,430.826Z" style="fill:white;fill-rule:nonzero;"/>
</svg>
