<?xml version="1.0" encoding="UTF-8" standalone="no"?>
<!DOCTYPE svg PUBLIC "-//W3C//DTD SVG 1.1//EN" "http://www.w3.org/Graphics/SVG/1.1/DTD/svg11.dtd">
<svg width="100%" height="100%" viewBox="0 0 2000 2000" version="1.1" xmlns="http://www.w3.org/2000/svg" xmlns:xlink="http://www.w3.org/1999/xlink" xml:space="preserve" xmlns:serif="http://www.serif.com/" style="fill-rule:evenodd;clip-rule:evenodd;stroke-linejoin:round;stroke-miterlimit:2;">
    <g transform="matrix(1.01519,0,0,1.87331,88.2023,268.921)">
        <path d="M1883.2,-36.791C1883.2,-95.715 1794.92,-143.554 1686.19,-143.554L110.125,-143.554C1.393,-143.554 -86.883,-95.715 -86.883,-36.791L-86.883,817.313C-86.883,876.237 1.393,924.076 110.125,924.076L1686.19,924.076C1794.92,924.076 1883.2,876.237 1883.2,817.313L1883.2,-36.791Z"/>
    </g>
    <g transform="matrix(1.06934,0,0,1.06934,-91.7052,-95.0013)">
        <g transform="matrix(1.24112,0,-0.403264,1.24112,40.9975,-179.418)">
            <g>
                <path d="M1791.65,1056.05C1791.65,1071.09 1789.75,1084.61 1785.94,1096.62C1782.13,1108.64 1777.1,1119.23 1770.85,1128.41C1764.6,1137.59 1757.28,1145.4 1748.88,1151.85C1740.48,1158.29 1731.79,1163.57 1722.81,1167.67C1713.82,1171.77 1704.69,1174.8 1695.41,1176.75C1686.14,1178.7 1677.4,1179.68 1669.19,1179.68L1375.35,1179.68L1375.35,1103.51L1669.19,1103.51C1683.84,1103.51 1695.22,1099.21 1703.32,1090.62C1711.43,1082.02 1715.48,1070.5 1715.48,1056.05C1715.48,1049.02 1714.41,1042.57 1712.26,1036.71C1710.11,1030.85 1707.04,1025.77 1703.03,1021.48C1699.03,1017.18 1694.14,1013.86 1688.38,1011.52C1682.62,1009.17 1676.23,1008 1669.19,1008L1494,1008C1481.69,1008 1468.41,1005.8 1454.15,1001.41C1439.9,997.015 1426.66,989.935 1414.46,980.169C1402.25,970.403 1392.09,957.61 1383.99,941.79C1375.88,925.97 1371.83,906.634 1371.83,883.782C1371.83,860.931 1375.88,841.644 1383.99,825.921C1392.09,810.198 1402.25,797.405 1414.46,787.542C1426.66,777.679 1439.9,770.55 1454.15,766.155C1468.41,761.761 1481.69,759.563 1494,759.563L1753.28,759.563L1753.28,835.735L1494,835.735C1479.55,835.735 1468.27,840.13 1460.16,848.919C1452.06,857.708 1448,869.329 1448,883.782C1448,898.431 1452.06,910.003 1460.16,918.499C1468.27,926.995 1479.55,931.243 1494,931.243L1669.78,931.243C1677.98,931.438 1686.67,932.561 1695.85,934.612C1705.03,936.663 1714.16,939.837 1723.25,944.134C1732.33,948.431 1740.97,953.851 1749.17,960.394C1757.38,966.936 1764.65,974.798 1771,983.977C1777.35,993.157 1782.38,1003.7 1786.09,1015.62C1789.8,1027.53 1791.65,1041.01 1791.65,1056.05Z" style="fill:white;fill-rule:nonzero;"/>
            </g>
        </g>
        <g transform="matrix(1.24112,0,-0.403264,1.24112,40.9975,-179.418)">
            <g>
                <path d="M1761.16,752.063L1761.16,843.235L1496.43,843.235C1483.76,843.235 1473.86,847.065 1466.75,854.77C1459.48,862.661 1455.89,873.123 1455.89,886.1C1455.89,898.081 1458.58,907.556 1465.21,914.505C1471.51,921.107 1480.33,923.743 1491.56,923.743L1666.76,923.743C1666.76,923.743 1667.34,923.743 1667.52,923.745C1676.24,923.953 1685.48,925.141 1695.24,927.321C1705.14,929.532 1714.99,932.954 1724.78,937.587C1734.67,942.266 1744.08,948.165 1753.01,955.289C1762.1,962.536 1770.17,971.229 1777.2,981.396C1784.09,991.356 1789.59,1002.79 1793.62,1015.72C1797.53,1028.28 1799.54,1042.51 1799.54,1058.37C1799.54,1074.05 1797.54,1088.15 1793.57,1100.68C1789.61,1113.17 1784.37,1124.18 1777.87,1133.73C1771.33,1143.33 1763.67,1151.5 1754.88,1158.24C1746.17,1164.92 1737.16,1170.38 1727.84,1174.64C1718.47,1178.92 1708.94,1182.07 1699.26,1184.11C1689.48,1186.17 1680.27,1187.18 1671.63,1187.18L1367.46,1187.18L1367.46,1096.01L1666.76,1096.01C1679.62,1096.01 1689.65,1092.28 1696.77,1084.73C1704.03,1077.03 1707.6,1066.68 1707.6,1053.73C1707.6,1047.65 1706.73,1042.09 1704.87,1037.03C1703.23,1032.55 1700.94,1028.65 1697.88,1025.37C1695.03,1022.3 1691.52,1019.98 1687.41,1018.31C1682.67,1016.38 1677.41,1015.5 1671.63,1015.5L1496.43,1015.5C1483.34,1015.5 1469.2,1013.18 1454.03,1008.5C1438.43,1003.7 1423.96,995.945 1410.61,985.262C1397.2,974.54 1385.96,960.542 1377.07,943.172C1368.45,926.348 1363.94,905.765 1363.94,881.465C1363.94,857.614 1368.22,837.505 1376.68,821.095C1385.1,804.756 1395.68,791.475 1408.36,781.225C1421.1,770.936 1434.91,763.517 1449.79,758.933C1464.73,754.328 1478.66,752.063 1491.56,752.063L1761.16,752.063ZM1745.39,767.063L1496.43,767.063C1484.72,767.063 1472.1,769.194 1458.52,773.377C1444.88,777.582 1432.23,784.421 1420.55,793.859C1408.83,803.335 1399.09,815.641 1391.3,830.746C1383.55,845.782 1379.72,864.247 1379.72,886.1C1379.72,907.503 1383.32,925.591 1390.91,940.408C1398.22,954.679 1407.3,966.267 1418.31,975.076C1429.37,983.924 1441.36,990.332 1454.28,994.314C1467.62,998.425 1480.05,1000.5 1491.56,1000.5L1666.76,1000.5C1675.04,1000.5 1682.58,1001.97 1689.36,1004.73C1696.77,1007.74 1703.03,1012.06 1708.18,1017.59C1713.13,1022.9 1717,1029.16 1719.65,1036.4C1722.09,1043.05 1723.37,1050.38 1723.37,1058.37C1723.37,1074.33 1718.83,1087.02 1709.88,1096.51C1700.79,1106.15 1688.06,1111.01 1671.63,1111.01L1383.23,1111.01L1383.23,1172.18L1666.76,1172.18C1674.52,1172.18 1682.79,1171.24 1691.57,1169.39C1700.45,1167.52 1709.18,1164.62 1717.77,1160.7C1726.42,1156.75 1734.79,1151.66 1742.88,1145.46C1750.89,1139.31 1757.88,1131.85 1763.84,1123.09C1769.84,1114.28 1774.66,1104.1 1778.31,1092.57C1781.96,1081.08 1783.77,1068.12 1783.77,1053.73C1783.77,1039.51 1782.06,1026.78 1778.56,1015.52C1775.16,1004.62 1770.61,994.958 1764.8,986.559C1759.13,978.366 1752.66,971.337 1745.34,965.498C1737.86,959.536 1729.99,954.595 1721.71,950.68C1713.34,946.72 1704.93,943.794 1696.47,941.904C1687.87,939.982 1679.72,938.924 1672.22,938.743L1496.43,938.743C1478.75,938.743 1465.03,932.888 1455.11,922.493C1445.53,912.447 1440.12,898.785 1440.12,881.465C1440.12,865.535 1444.63,852.755 1453.57,843.068C1462.67,833.195 1475.33,828.235 1491.56,828.235L1745.39,828.235L1745.39,767.063Z" style="fill:white;"/>
            </g>
        </g>
        <g transform="matrix(1.24112,0,-0.403264,1.24112,12.2363,-179.418)">
            <g>
                <path d="M1310.44,1008L1077.09,1008L1077.09,931.243L1310.44,931.243L1310.44,1008ZM1344.42,835.735L1039.15,835.735L1039.15,1179.68L962.975,1179.68L962.975,797.942C962.975,792.669 963.951,787.688 965.904,783.001C967.858,778.313 970.543,774.212 973.961,770.696C977.379,767.181 981.432,764.446 986.119,762.493C990.807,760.54 995.885,759.563 1001.35,759.563L1344.42,759.563L1344.42,835.735Z" style="fill:white;fill-rule:nonzero;"/>
            </g>
        </g>
        <g transform="matrix(1.24112,0,-0.403264,1.24112,12.2363,-179.418)">
            <g>
                <path d="M1352.31,843.235L1047.03,843.235L1047.03,1187.18L955.089,1187.18L955.089,795.625C955.089,789.594 956.195,783.894 958.429,778.533C960.616,773.285 963.625,768.693 967.452,764.756C971.33,760.768 975.93,757.668 981.248,755.452C986.683,753.188 992.575,752.063 998.917,752.063L1352.31,752.063L1352.31,843.235ZM1003.79,767.063C984.337,767.284 971.075,782.044 970.861,800.26L970.861,1172.18L1031.26,1172.18L1031.26,828.235L1336.53,828.235L1336.53,767.063L1003.79,767.063ZM1318.32,923.743L1318.32,1015.5L1069.21,1015.5L1069.21,923.743L1318.32,923.743ZM1084.98,938.743L1084.98,1000.5L1302.55,1000.5L1302.55,938.743L1084.98,938.743Z" style="fill:white;"/>
            </g>
        </g>
        <g transform="matrix(1.24112,0,-0.403264,1.24112,-13.9992,-179.418)">
            <g>
                <rect x="815.74" y="759.563" width="76.172" height="420.117" style="fill:white;"/>
            </g>
        </g>
        <g transform="matrix(1.24112,0,-0.403264,1.24112,-13.9992,-179.418)">
            <g>
                <path d="M899.798,1187.18L899.798,752.063L807.854,752.063L807.854,1187.18L899.798,1187.18ZM823.626,767.063L823.626,1172.18L884.026,1172.18L884.026,767.063L823.626,767.063Z" style="fill:white;"/>
            </g>
        </g>
        <g transform="matrix(0.570653,0,-0.324919,1,475.338,-0.00045168)">
            <g>
                <rect x="139.086" y="763.292" width="475.069" height="521.416" style="fill:rgb(255,85,0);"/>
            </g>
        </g>
        <g transform="matrix(0.570653,0,-0.324919,1,475.338,-0.00045168)">
            <g>
                <path d="M631.291,753.992L121.95,753.992L121.95,1294.01L631.291,1294.01L631.291,753.992ZM156.222,772.592L156.222,1275.41L597.019,1275.41L597.019,772.592L156.222,772.592Z" style="fill:rgb(255,85,0);"/>
            </g>
        </g>
    </g>
</svg>
