<svg xmlns="http://www.w3.org/2000/svg" xml:space="preserve" style="fill-rule:evenodd;clip-rule:evenodd;stroke-linejoin:round;stroke-miterlimit:2" viewBox="0 0 519 241"><path d="M0 1.256V-.066h1.08c.606 0 .826-.242.826-.716v-.474c0-.474-.22-.716-.826-.716H.76c-.606 0-.826.242-.826.716v.43h-1.597V-1.3c0-1.465.572-2.038 2.324-2.038h.518c1.751 0 2.324.573 2.324 2.038v.342c0 .947-.22 1.399-.903 1.564.661.11.958.518.958 1.432v.518c0 1.465-.573 2.038-2.324 2.038H.606c-1.752 0-2.325-.573-2.325-2.038v-.474h1.598v.43c0 .474.22.716.826.716h.43c.606 0 .826-.242.826-.716v-.54c0-.473-.22-.716-.826-.716z" style="fill:#4a4949;fill-rule:nonzero" transform="translate(255.037 75.445)scale(8.33333)"/><path d="M0-7.734c2.038 0 2.567.595 2.567 2.545v2.644C2.567-.595 2.038 0 0 0h-3.118v-7.734zm-.088 6.357c.804 0 1.024-.221 1.024-1.19v-2.6c0-.97-.22-1.19-1.024-1.19h-1.399v4.98z" style="fill:#4a4949;fill-rule:nonzero" transform="translate(323.637 112.903)scale(8.33333)"/><path d="M386.942 158.988h1.63v1.63h-1.63zm3.187-3.052h1.631v7.734h-1.631z" style="fill:#4a4949" transform="translate(-2866.52 -1251.013)scale(8.33333)"/><path d="M0 3.812c0 1.542-.507 2.06-2.402 2.06h-.528c-1.895 0-2.402-.518-2.402-2.06v-.54h1.63v.617c0 .518.188.672.816.672h.44c.628 0 .815-.154.815-.672v-.396c0-.529-.099-.628-.859-.816l-1.234-.308c-1.52-.375-1.74-.771-1.74-2.171V0c0-1.542.506-2.06 2.401-2.06h.518C-.65-2.06-.143-1.542-.143 0v.54h-1.631v-.617c0-.518-.187-.672-.815-.672h-.43c-.627 0-.815.154-.815.672V.21c0 .528.099.628.86.815l1.233.308C-.22 1.708 0 2.104 0 3.504z" style="fill:#4a4949;fill-rule:nonzero" transform="translate(456.645 64.795)scale(8.33333)"/><path d="M0-2.842c0-1.95.529-2.545 2.556-2.545h.749c2.027 0 2.556.595 2.556 2.545V0c0 1.95-.529 2.545-2.556 2.545h-.749C.529 2.545 0 1.95 0 0zm1.631 2.82c0 .97.22 1.19 1.013 1.19h.573c.793 0 1.014-.22 1.014-1.19V-2.82c0-.969-.221-1.19-1.014-1.19h-.573c-.793 0-1.013.221-1.013 1.19z" style="fill:#4a4949;fill-rule:nonzero" transform="translate(469.612 92.52)scale(8.33333)"/><path d="M0 .792v.771h-.253V-.771h.838c.475 0 .692.137.692.632V.16c0 .496-.217.632-.692.632zM.618.559c.31 0 .406-.1.406-.399v-.299c0-.299-.096-.399-.406-.399H0V.559z" style="fill:#4a4949;fill-rule:nonzero" transform="translate(242.82 141.17)scale(8.33333)"/><path d="M0 2.334h-.253V0h.838c.476 0 .692.136.692.632v.266c0 .389-.133.555-.419.611l.425.825h-.262l-.413-.805H0zm.618-1.037c.31 0 .406-.1.406-.399V.632c0-.3-.096-.399-.406-.399H0v1.064z" style="fill:#4a4949;fill-rule:nonzero" transform="translate(259.77 134.753)scale(8.33333)"/><path d="M0-2.38c.515 0 .695.156.695.755v.871C.695-.156.515 0 0 0h-.253c-.515 0-.695-.156-.695-.754v-.871c0-.599.18-.755.695-.755zM-.017-.232c.359 0 .459-.07.459-.522v-.871c0-.453-.1-.522-.459-.522h-.219c-.359 0-.459.069-.459.522v.871c0 .452.1.522.459.522z" style="fill:#4a4949;fill-rule:nonzero" transform="translate(282.237 154.395)scale(8.33333)"/><path d="M0 1.868c.21 0 .286-.053.286-.309V-.233h.253v1.802c0 .399-.117.532-.516.532h-.385v-.233z" style="fill:#4a4949;fill-rule:nonzero" transform="translate(294.254 136.695)scale(8.33333)"/><path d="M0 2.334V0h1.337v.233H.253v.814h.961v.233H.253v.821h1.1v.233z" style="fill:#4a4949;fill-rule:nonzero" transform="translate(303.812 134.753)scale(8.33333)"/><path d="M0-2.334h1.569v.233H.911V0H.658v-2.101H0z" style="fill:#4a4949;fill-rule:nonzero" transform="translate(317.795 154.203)scale(8.33333)"/><path d="M0-2.38c.515 0 .695.156.695.755v.871C.695-.156.515 0 0 0h-.253c-.515 0-.694-.156-.694-.754v-.871c0-.599.179-.755.694-.755zM-.017-.232c.359 0 .459-.07.459-.522v-.871c0-.453-.1-.522-.459-.522h-.219c-.359 0-.459.069-.459.522v.871c0 .452.1.522.459.522z" style="fill:#4a4949;fill-rule:nonzero" transform="translate(341.32 154.395)scale(8.33333)"/><path d="M0 2.334V0h1.337v.233H.253v.814h.961v.233H.253v.821h1.1v.233z" style="fill:#4a4949;fill-rule:nonzero" transform="translate(362.145 134.753)scale(8.33333)"/><path d="M0-.173C.459-.05.542.03.542.396v.176c0 .385-.15.532-.655.532h-.18c-.505 0-.655-.147-.655-.532V.326h.253v.233c0 .242.077.312.402.312h.18c.326 0 .402-.07.402-.312v-.15C.289.173.259.136-.08.046L-.439-.05c-.459-.123-.542-.203-.542-.569v-.126c0-.385.15-.532.655-.532h.18c.505 0 .655.147.655.532v.246H.256v-.232c0-.243-.076-.313-.402-.313h-.18c-.326 0-.402.07-.402.313v.099c0 .236.03.273.369.363z" style="fill:#4a4949;fill-rule:nonzero" transform="translate(395.637 145.195)scale(8.33333)"/><path d="M0-2.38c.515 0 .695.156.695.755v.871C.695-.156.515 0 0 0h-.253c-.515 0-.694-.156-.694-.754v-.871c0-.599.179-.755.694-.755zM-.016-.232c.359 0 .458-.07.458-.522v-.871c0-.453-.099-.522-.458-.522h-.22c-.359 0-.459.069-.459.522v.871c0 .452.1.522.459.522z" style="fill:#4a4949;fill-rule:nonzero" transform="translate(412.029 154.395)scale(8.33333)"/><path d="M0-2.334v2.101h1.077V0h-1.33v-2.334z" style="fill:#4a4949;fill-rule:nonzero" transform="translate(424.579 154.203)scale(8.33333)"/><path d="M0-2.357h.253v1.602C.253-.156.073 0-.442 0h-.253c-.515 0-.695-.156-.695-.755v-1.602h.253v1.602c0 .453.1.522.459.522h.219C-.1-.233 0-.302 0-.755z" style="fill:#4a4949;fill-rule:nonzero" transform="translate(448.012 154.395)scale(8.33333)"/><path d="M0 2.716c.05 0 .08-.02.08-.07v-.03c0-.049-.03-.069-.08-.069h-.113a.6.6 0 0 0-.173.026l-.07-.056.13-.33h-.003c-.516 0-.695-.156-.695-.754V.562c0-.599.179-.755.695-.755h.252c.516 0 .695.156.695.755v.139H.465V.562C.465.11.366.04.007.04h-.22c-.359 0-.459.07-.459.522v.871c0 .452.1.522.459.522h.22c.359 0 .458-.07.458-.522v-.14h.253v.14c0 .598-.179.754-.695.754h-.026l-.087.203a.17.17 0 0 1 .093-.026H.05c.196 0 .249.076.249.236v.06c0 .172-.083.249-.312.249h-.303v-.193z" style="fill:#4a4949;fill-rule:nonzero" transform="translate(462.362 136.17)scale(8.33333)"/><path d="M0-1.825c.515 0 .695.156.695.755v.871c0 .598-.18.754-.695.754h-.253c-.515 0-.694-.156-.694-.754v-.871c0-.599.179-.755.694-.755zM-.016.323c.359 0 .458-.07.458-.522v-.871c0-.453-.099-.522-.458-.522h-.22c-.359 0-.459.069-.459.522v.871c0 .452.1.522.459.522zm-.23-2.497c-.063 0-.09.033-.11.093l-.183-.057c.034-.146.12-.236.243-.236.133 0 .19.087.289.087.064 0 .09-.033.11-.093l.183.056c-.033.146-.12.236-.243.236-.133 0-.189-.086-.289-.086" style="fill:#4a4949;fill-rule:nonzero" transform="translate(480.395 149.77)scale(8.33333)"/><path d="M0 2.334V0h1.337v.233H.253v.814h.961v.233H.253v.821h1.1v.233z" style="fill:#4a4949;fill-rule:nonzero" transform="translate(490.837 134.753)scale(8.33333)"/><path d="M0-.173C.459-.05.542.03.542.396v.176c0 .385-.15.532-.655.532h-.18c-.505 0-.655-.147-.655-.532V.326h.253v.233c0 .242.077.312.402.312h.18c.326 0 .402-.07.402-.312v-.15C.289.173.259.136-.08.046L-.439-.05c-.459-.123-.542-.203-.542-.569v-.126c0-.385.15-.532.655-.532h.18c.505 0 .655.147.655.532v.246H.256v-.232c0-.243-.077-.313-.402-.313h-.18c-.326 0-.402.07-.402.313v.099c0 .236.03.273.369.363z" style="fill:#4a4949;fill-rule:nonzero" transform="translate(513.945 145.195)scale(8.33333)"/><path d="M0 2.334V0h.884c.516 0 .695.156.695.755v.824c0 .599-.179.755-.695.755zm.868-.233c.359 0 .459-.07.459-.522V.755c0-.452-.1-.522-.459-.522H.253v1.868z" style="fill:#4a4949;fill-rule:nonzero" transform="translate(274.837 167.228)scale(8.33333)"/><path d="M0 2.334V0h1.337v.233H.253v.814h.961v.233H.253v.821h1.1v.233z" style="fill:#4a4949;fill-rule:nonzero" transform="translate(292.645 167.228)scale(8.33333)"/><path d="M0 1.914-.755.368v1.756h-.252V-.21h.252L.11 1.558.974-.21h.253v2.334H.974V.368L.219 1.914z" style="fill:#4a4949;fill-rule:nonzero" transform="translate(326.745 168.987)scale(8.33333)"/><path d="M0 1.31h-.997l-.173.512h-.26l.805-2.334h.253l.804 2.334H.173zm-.921-.233h.841L-.499-.169z" style="fill:#4a4949;fill-rule:nonzero" transform="translate(352.145 171.495)scale(8.33333)"/><path d="M0-2.746c.515 0 .695.156.695.755v.871c0 .395-.08.595-.279.688L.678 0H.419L.193-.376q-.089.01-.193.01h-.253c-.515 0-.694-.156-.694-.754v-.871c0-.599.179-.755.694-.755zM-.017-.598c.359 0 .459-.07.459-.522v-.871c0-.452-.1-.522-.459-.522h-.219c-.359 0-.459.07-.459.522v.871c0 .452.1.522.459.522z" style="fill:#4a4949;fill-rule:nonzero" transform="translate(366.079 189.92)scale(8.33333)"/><path d="M0-2.357h.253v1.602C.253-.156.073 0-.442 0h-.253c-.515 0-.695-.156-.695-.755v-1.602h.253v1.602c0 .453.1.522.459.522h.219C-.1-.233 0-.302 0-.755z" style="fill:#4a4949;fill-rule:nonzero" transform="translate(387.995 186.87)scale(8.33333)"/><path d="M391.406 147.083h.253v2.334h-.253z" style="fill:#4a4949" transform="translate(-2866.52 -1058.463)scale(8.33333)"/><path d="M0 2.334V0h.219L1.27 1.812V0h.253v2.334h-.22L.253.522v1.812z" style="fill:#4a4949;fill-rule:nonzero" transform="translate(402.504 167.228)scale(8.33333)"/><path d="M0 1.31h-.997l-.173.512h-.26l.805-2.334h.253l.804 2.334H.173zm-.921-.233h.841L-.499-.169z" style="fill:#4a4949;fill-rule:nonzero" transform="translate(430.37 171.495)scale(8.33333)"/><path d="M0 2.716c.05 0 .08-.02.08-.07v-.03c0-.049-.03-.069-.08-.069h-.113a.6.6 0 0 0-.173.026l-.07-.056.13-.33H-.23c-.515 0-.694-.156-.694-.754V.562c0-.599.179-.755.694-.755h.253c.516 0 .695.156.695.755v.139H.465V.562C.465.11.366.04.007.04h-.22c-.359 0-.459.07-.459.522v.871c0 .452.1.522.459.522h.22c.359 0 .458-.07.458-.522v-.14h.253v.14c0 .598-.179.754-.695.754h-.026l-.087.203a.17.17 0 0 1 .093-.026H.05c.196 0 .249.076.249.236v.06c0 .172-.083.249-.312.249h-.303v-.193z" style="fill:#4a4949;fill-rule:nonzero" transform="translate(444.112 168.645)scale(8.33333)"/><path d="M0 1.888h-.997l-.173.512h-.26L-.625.066h.253L.432 2.4H.173zm-.921-.233h.841L-.499.409zm.303-1.961c-.064 0-.09.033-.11.093L-.911-.27c.033-.146.12-.236.243-.236.133 0 .189.087.289.087.063 0 .09-.034.11-.093l.183.056c-.034.146-.12.236-.243.236-.133 0-.19-.086-.289-.086" style="fill:#4a4949;fill-rule:nonzero" transform="translate(464.445 166.678)scale(8.33333)"/><path d="M0-2.38c.515 0 .695.156.695.755v.871C.695-.156.515 0 0 0h-.253c-.515 0-.694-.156-.694-.754v-.871c0-.599.179-.755.694-.755zM-.016-.232c.359 0 .458-.07.458-.522v-.871c0-.452-.099-.522-.458-.522h-.22c-.359 0-.459.07-.459.522v.871c0 .452.1.522.459.522z" style="fill:#4a4949;fill-rule:nonzero" transform="translate(478.37 186.87)scale(8.33333)"/><path d="m0-10.583-1.25-.722-7.916 4.571-7.915-4.571-1.25.722v1.443l7.916 4.57v9.141l1.249.721 1.25-.721V-4.57L0-9.14zm-9.166-9.14-12.498 7.216V1.925L-9.166 9.14 3.333 1.925v-14.432zM-19.164.481v-11.545l9.998-5.773 9.999 5.773V.481l-9.999 5.773z" style="fill:#009fe3;fill-rule:nonzero" transform="translate(180.537 164.353)scale(8.33333)"/><path d="M-4.575 4.575H9.857l7.216 12.498H2.641z" opacity=".2" style="fill:#1d1d1b;fill-rule:nonzero" transform="scale(8.33333 -8.33333)rotate(30.001 66.356 19.715)"/></svg>
