<?xml version="1.0" encoding="UTF-8" standalone="no"?>
<!DOCTYPE svg PUBLIC "-//W3C//DTD SVG 1.1//EN" "http://www.w3.org/Graphics/SVG/1.1/DTD/svg11.dtd">
<svg width="100%" height="100%" viewBox="0 0 519 241" version="1.1" xmlns="http://www.w3.org/2000/svg" xmlns:xlink="http://www.w3.org/1999/xlink" xml:space="preserve" style="fill-rule:evenodd;clip-rule:evenodd;stroke-linejoin:round;stroke-miterlimit:2;">
    <g transform="matrix(1,0,0,1,-2866.52,-5440.95)">
        <g transform="matrix(8.33333,0,0,8.33333,0,-162.136)">
            <g transform="matrix(1,0,0,1,374.587,681.424)">
                <path d="M0,1.256L0,-0.066L1.08,-0.066C1.686,-0.066 1.906,-0.308 1.906,-0.782L1.906,-1.256C1.906,-1.73 1.686,-1.972 1.08,-1.972L0.76,-1.972C0.154,-1.972 -0.066,-1.73 -0.066,-1.256L-0.066,-0.826L-1.663,-0.826L-1.663,-1.3C-1.663,-2.765 -1.091,-3.338 0.661,-3.338L1.179,-3.338C2.93,-3.338 3.503,-2.765 3.503,-1.3L3.503,-0.958C3.503,-0.011 3.283,0.441 2.6,0.606C3.261,0.716 3.558,1.124 3.558,2.038L3.558,2.556C3.558,4.021 2.985,4.594 1.234,4.594L0.606,4.594C-1.146,4.594 -1.719,4.021 -1.719,2.556L-1.719,2.082L-0.121,2.082L-0.121,2.512C-0.121,2.986 0.099,3.228 0.705,3.228L1.135,3.228C1.741,3.228 1.961,2.986 1.961,2.512L1.961,1.972C1.961,1.499 1.741,1.256 1.135,1.256L0,1.256Z" style="fill:rgb(74,73,73);fill-rule:nonzero;"/>
            </g>
        </g>
        <g transform="matrix(8.33333,0,0,8.33333,0,-162.136)">
            <g transform="matrix(1,0,0,1,382.819,685.919)">
                <path d="M0,-7.734C2.038,-7.734 2.567,-7.139 2.567,-5.189L2.567,-2.545C2.567,-0.595 2.038,0 0,0L-3.118,0L-3.118,-7.734L0,-7.734ZM-0.088,-1.377C0.716,-1.377 0.936,-1.598 0.936,-2.567L0.936,-5.167C0.936,-6.137 0.716,-6.357 -0.088,-6.357L-1.487,-6.357L-1.487,-1.377L-0.088,-1.377Z" style="fill:rgb(74,73,73);fill-rule:nonzero;"/>
            </g>
        </g>
        <g transform="matrix(8.33333,0,0,8.33333,0,-162.136)">
            <g transform="matrix(1,0,0,1,0,522.249)">
                <rect x="386.942" y="158.988" width="1.63" height="1.63" style="fill:rgb(74,73,73);"/>
            </g>
        </g>
        <g transform="matrix(8.33333,0,0,8.33333,0,-162.136)">
            <g transform="matrix(1,0,0,1,0,522.249)">
                <rect x="390.129" y="155.936" width="1.631" height="7.734" style="fill:rgb(74,73,73);"/>
            </g>
        </g>
        <g transform="matrix(8.33333,0,0,8.33333,0,-162.136)">
            <g transform="matrix(1,0,0,1,398.78,680.146)">
                <path d="M0,3.812C0,5.354 -0.507,5.872 -2.402,5.872L-2.93,5.872C-4.825,5.872 -5.332,5.354 -5.332,3.812L-5.332,3.272L-3.702,3.272L-3.702,3.889C-3.702,4.407 -3.514,4.561 -2.886,4.561L-2.446,4.561C-1.818,4.561 -1.631,4.407 -1.631,3.889L-1.631,3.493C-1.631,2.964 -1.73,2.865 -2.49,2.677L-3.724,2.369C-5.244,1.994 -5.464,1.598 -5.464,0.198L-5.464,0C-5.464,-1.542 -4.958,-2.06 -3.063,-2.06L-2.545,-2.06C-0.65,-2.06 -0.143,-1.542 -0.143,0L-0.143,0.54L-1.774,0.54L-1.774,-0.077C-1.774,-0.595 -1.961,-0.749 -2.589,-0.749L-3.019,-0.749C-3.646,-0.749 -3.834,-0.595 -3.834,-0.077L-3.834,0.21C-3.834,0.738 -3.735,0.838 -2.974,1.025L-1.741,1.333C-0.22,1.708 0,2.104 0,3.504L0,3.812Z" style="fill:rgb(74,73,73);fill-rule:nonzero;"/>
            </g>
        </g>
        <g transform="matrix(8.33333,0,0,8.33333,0,-162.136)">
            <g transform="matrix(1,0,0,1,400.336,683.473)">
                <path d="M0,-2.842C0,-4.792 0.529,-5.387 2.556,-5.387L3.305,-5.387C5.332,-5.387 5.861,-4.792 5.861,-2.842L5.861,0C5.861,1.95 5.332,2.545 3.305,2.545L2.556,2.545C0.529,2.545 0,1.95 0,0L0,-2.842ZM1.631,-0.022C1.631,0.948 1.851,1.168 2.644,1.168L3.217,1.168C4.01,1.168 4.231,0.948 4.231,-0.022L4.231,-2.82C4.231,-3.789 4.01,-4.01 3.217,-4.01L2.644,-4.01C1.851,-4.01 1.631,-3.789 1.631,-2.82L1.631,-0.022Z" style="fill:rgb(74,73,73);fill-rule:nonzero;"/>
            </g>
        </g>
        <g transform="matrix(8.33333,0,0,8.33333,0,-162.136)">
            <g transform="matrix(1,0,0,1,373.121,689.311)">
                <path d="M0,0.792L0,1.563L-0.253,1.563L-0.253,-0.771L0.585,-0.771C1.06,-0.771 1.277,-0.634 1.277,-0.139L1.277,0.16C1.277,0.656 1.06,0.792 0.585,0.792L0,0.792ZM0.618,0.559C0.928,0.559 1.024,0.459 1.024,0.16L1.024,-0.139C1.024,-0.438 0.928,-0.538 0.618,-0.538L0,-0.538L0,0.559L0.618,0.559Z" style="fill:rgb(74,73,73);fill-rule:nonzero;"/>
            </g>
        </g>
        <g transform="matrix(8.33333,0,0,8.33333,0,-162.136)">
            <g transform="matrix(1,0,0,1,375.155,688.541)">
                <path d="M0,2.334L-0.253,2.334L-0.253,0L0.585,0C1.061,0 1.277,0.136 1.277,0.632L1.277,0.898C1.277,1.287 1.144,1.453 0.858,1.509L1.283,2.334L1.021,2.334L0.608,1.529L0,1.529L0,2.334ZM0.618,1.297C0.928,1.297 1.024,1.197 1.024,0.898L1.024,0.632C1.024,0.332 0.928,0.233 0.618,0.233L0,0.233L0,1.297L0.618,1.297Z" style="fill:rgb(74,73,73);fill-rule:nonzero;"/>
            </g>
        </g>
        <g transform="matrix(8.33333,0,0,8.33333,0,-162.136)">
            <g transform="matrix(1,0,0,1,377.851,690.898)">
                <path d="M0,-2.38C0.515,-2.38 0.695,-2.224 0.695,-1.625L0.695,-0.754C0.695,-0.156 0.515,0 0,0L-0.253,0C-0.768,0 -0.948,-0.156 -0.948,-0.754L-0.948,-1.625C-0.948,-2.224 -0.768,-2.38 -0.253,-2.38L0,-2.38ZM-0.017,-0.232C0.342,-0.232 0.442,-0.302 0.442,-0.754L0.442,-1.625C0.442,-2.078 0.342,-2.147 -0.017,-2.147L-0.236,-2.147C-0.595,-2.147 -0.695,-2.078 -0.695,-1.625L-0.695,-0.754C-0.695,-0.302 -0.595,-0.232 -0.236,-0.232L-0.017,-0.232Z" style="fill:rgb(74,73,73);fill-rule:nonzero;"/>
            </g>
        </g>
        <g transform="matrix(8.33333,0,0,8.33333,0,-162.136)">
            <g transform="matrix(1,0,0,1,379.293,688.774)">
                <path d="M0,1.868C0.21,1.868 0.286,1.815 0.286,1.559L0.286,-0.233L0.539,-0.233L0.539,1.569C0.539,1.968 0.422,2.101 0.023,2.101L-0.362,2.101L-0.362,1.868L0,1.868Z" style="fill:rgb(74,73,73);fill-rule:nonzero;"/>
            </g>
        </g>
        <g transform="matrix(8.33333,0,0,8.33333,0,-162.136)">
            <g transform="matrix(1,0,0,1,380.44,688.541)">
                <path d="M0,2.334L0,0L1.337,0L1.337,0.233L0.253,0.233L0.253,1.047L1.214,1.047L1.214,1.28L0.253,1.28L0.253,2.101L1.353,2.101L1.353,2.334L0,2.334Z" style="fill:rgb(74,73,73);fill-rule:nonzero;"/>
            </g>
        </g>
        <g transform="matrix(8.33333,0,0,8.33333,0,-162.136)">
            <g transform="matrix(1,0,0,1,382.118,690.875)">
                <path d="M0,-2.334L1.569,-2.334L1.569,-2.101L0.911,-2.101L0.911,0L0.658,0L0.658,-2.101L0,-2.101L0,-2.334Z" style="fill:rgb(74,73,73);fill-rule:nonzero;"/>
            </g>
        </g>
        <g transform="matrix(8.33333,0,0,8.33333,0,-162.136)">
            <g transform="matrix(1,0,0,1,384.941,690.898)">
                <path d="M0,-2.38C0.515,-2.38 0.695,-2.224 0.695,-1.625L0.695,-0.754C0.695,-0.156 0.515,0 0,0L-0.253,0C-0.768,0 -0.947,-0.156 -0.947,-0.754L-0.947,-1.625C-0.947,-2.224 -0.768,-2.38 -0.253,-2.38L0,-2.38ZM-0.017,-0.232C0.342,-0.232 0.442,-0.302 0.442,-0.754L0.442,-1.625C0.442,-2.078 0.342,-2.147 -0.017,-2.147L-0.236,-2.147C-0.595,-2.147 -0.695,-2.078 -0.695,-1.625L-0.695,-0.754C-0.695,-0.302 -0.595,-0.232 -0.236,-0.232L-0.017,-0.232Z" style="fill:rgb(74,73,73);fill-rule:nonzero;"/>
            </g>
        </g>
        <g transform="matrix(8.33333,0,0,8.33333,0,-162.136)">
            <g transform="matrix(1,0,0,1,387.44,688.541)">
                <path d="M0,2.334L0,0L1.337,0L1.337,0.233L0.253,0.233L0.253,1.047L1.214,1.047L1.214,1.28L0.253,1.28L0.253,2.101L1.353,2.101L1.353,2.334L0,2.334Z" style="fill:rgb(74,73,73);fill-rule:nonzero;"/>
            </g>
        </g>
        <g transform="matrix(8.33333,0,0,8.33333,0,-162.136)">
            <g transform="matrix(1,0,0,1,391.459,689.794)">
                <path d="M0,-0.173C0.459,-0.05 0.542,0.03 0.542,0.396L0.542,0.572C0.542,0.957 0.392,1.104 -0.113,1.104L-0.293,1.104C-0.798,1.104 -0.948,0.957 -0.948,0.572L-0.948,0.326L-0.695,0.326L-0.695,0.559C-0.695,0.801 -0.618,0.871 -0.293,0.871L-0.113,0.871C0.213,0.871 0.289,0.801 0.289,0.559L0.289,0.409C0.289,0.173 0.259,0.136 -0.08,0.046L-0.439,-0.05C-0.898,-0.173 -0.981,-0.253 -0.981,-0.619L-0.981,-0.745C-0.981,-1.13 -0.831,-1.277 -0.326,-1.277L-0.146,-1.277C0.359,-1.277 0.509,-1.13 0.509,-0.745L0.509,-0.499L0.256,-0.499L0.256,-0.731C0.256,-0.974 0.18,-1.044 -0.146,-1.044L-0.326,-1.044C-0.652,-1.044 -0.728,-0.974 -0.728,-0.731L-0.728,-0.632C-0.728,-0.396 -0.698,-0.359 -0.359,-0.269L0,-0.173Z" style="fill:rgb(74,73,73);fill-rule:nonzero;"/>
            </g>
        </g>
        <g transform="matrix(8.33333,0,0,8.33333,0,-162.136)">
            <g transform="matrix(1,0,0,1,393.426,690.898)">
                <path d="M0,-2.38C0.515,-2.38 0.695,-2.224 0.695,-1.625L0.695,-0.754C0.695,-0.156 0.515,0 0,0L-0.253,0C-0.768,0 -0.947,-0.156 -0.947,-0.754L-0.947,-1.625C-0.947,-2.224 -0.768,-2.38 -0.253,-2.38L0,-2.38ZM-0.016,-0.232C0.343,-0.232 0.442,-0.302 0.442,-0.754L0.442,-1.625C0.442,-2.078 0.343,-2.147 -0.016,-2.147L-0.236,-2.147C-0.595,-2.147 -0.695,-2.078 -0.695,-1.625L-0.695,-0.754C-0.695,-0.302 -0.595,-0.232 -0.236,-0.232L-0.016,-0.232Z" style="fill:rgb(74,73,73);fill-rule:nonzero;"/>
            </g>
        </g>
        <g transform="matrix(8.33333,0,0,8.33333,0,-162.136)">
            <g transform="matrix(1,0,0,1,394.932,690.875)">
                <path d="M0,-2.334L0,-0.233L1.077,-0.233L1.077,0L-0.253,0L-0.253,-2.334L0,-2.334Z" style="fill:rgb(74,73,73);fill-rule:nonzero;"/>
            </g>
        </g>
        <g transform="matrix(8.33333,0,0,8.33333,0,-162.136)">
            <g transform="matrix(1,0,0,1,397.744,690.898)">
                <path d="M0,-2.357L0.253,-2.357L0.253,-0.755C0.253,-0.156 0.073,0 -0.442,0L-0.695,0C-1.21,0 -1.39,-0.156 -1.39,-0.755L-1.39,-2.357L-1.137,-2.357L-1.137,-0.755C-1.137,-0.302 -1.037,-0.233 -0.678,-0.233L-0.459,-0.233C-0.1,-0.233 0,-0.302 0,-0.755L0,-2.357Z" style="fill:rgb(74,73,73);fill-rule:nonzero;"/>
            </g>
        </g>
        <g transform="matrix(8.33333,0,0,8.33333,0,-162.136)">
            <g transform="matrix(1,0,0,1,399.466,688.711)">
                <path d="M0,2.716C0.05,2.716 0.08,2.696 0.08,2.646L0.08,2.616C0.08,2.567 0.05,2.547 0,2.547L-0.113,2.547C-0.17,2.547 -0.236,2.556 -0.286,2.573L-0.356,2.517L-0.226,2.187L-0.229,2.187C-0.745,2.187 -0.924,2.031 -0.924,1.433L-0.924,0.562C-0.924,-0.037 -0.745,-0.193 -0.229,-0.193L0.023,-0.193C0.539,-0.193 0.718,-0.037 0.718,0.562L0.718,0.701L0.465,0.701L0.465,0.562C0.465,0.11 0.366,0.04 0.007,0.04L-0.213,0.04C-0.572,0.04 -0.672,0.11 -0.672,0.562L-0.672,1.433C-0.672,1.885 -0.572,1.955 -0.213,1.955L0.007,1.955C0.366,1.955 0.465,1.885 0.465,1.433L0.465,1.293L0.718,1.293L0.718,1.433C0.718,2.031 0.539,2.187 0.023,2.187L-0.003,2.187L-0.09,2.39C-0.067,2.374 -0.033,2.364 0.003,2.364L0.05,2.364C0.246,2.364 0.299,2.44 0.299,2.6L0.299,2.66C0.299,2.832 0.216,2.909 -0.013,2.909L-0.316,2.909L-0.316,2.716L0,2.716Z" style="fill:rgb(74,73,73);fill-rule:nonzero;"/>
            </g>
        </g>
        <g transform="matrix(8.33333,0,0,8.33333,0,-162.136)">
            <g transform="matrix(1,0,0,1,401.63,690.343)">
                <path d="M0,-1.825C0.515,-1.825 0.695,-1.669 0.695,-1.07L0.695,-0.199C0.695,0.399 0.515,0.555 0,0.555L-0.253,0.555C-0.768,0.555 -0.947,0.399 -0.947,-0.199L-0.947,-1.07C-0.947,-1.669 -0.768,-1.825 -0.253,-1.825L0,-1.825ZM-0.016,0.323C0.343,0.323 0.442,0.253 0.442,-0.199L0.442,-1.07C0.442,-1.523 0.343,-1.592 -0.016,-1.592L-0.236,-1.592C-0.595,-1.592 -0.695,-1.523 -0.695,-1.07L-0.695,-0.199C-0.695,0.253 -0.595,0.323 -0.236,0.323L-0.016,0.323ZM-0.246,-2.174C-0.309,-2.174 -0.336,-2.141 -0.356,-2.081L-0.539,-2.138C-0.505,-2.284 -0.419,-2.374 -0.296,-2.374C-0.163,-2.374 -0.106,-2.287 -0.007,-2.287C0.057,-2.287 0.083,-2.32 0.103,-2.38L0.286,-2.324C0.253,-2.178 0.166,-2.088 0.043,-2.088C-0.09,-2.088 -0.146,-2.174 -0.246,-2.174" style="fill:rgb(74,73,73);fill-rule:nonzero;"/>
            </g>
        </g>
        <g transform="matrix(8.33333,0,0,8.33333,0,-162.136)">
            <g transform="matrix(1,0,0,1,402.883,688.541)">
                <path d="M0,2.334L0,0L1.337,0L1.337,0.233L0.253,0.233L0.253,1.047L1.214,1.047L1.214,1.28L0.253,1.28L0.253,2.101L1.353,2.101L1.353,2.334L0,2.334Z" style="fill:rgb(74,73,73);fill-rule:nonzero;"/>
            </g>
        </g>
        <g transform="matrix(8.33333,0,0,8.33333,0,-162.136)">
            <g transform="matrix(1,0,0,1,405.656,689.794)">
                <path d="M0,-0.173C0.459,-0.05 0.542,0.03 0.542,0.396L0.542,0.572C0.542,0.957 0.392,1.104 -0.113,1.104L-0.293,1.104C-0.798,1.104 -0.948,0.957 -0.948,0.572L-0.948,0.326L-0.695,0.326L-0.695,0.559C-0.695,0.801 -0.618,0.871 -0.293,0.871L-0.113,0.871C0.213,0.871 0.289,0.801 0.289,0.559L0.289,0.409C0.289,0.173 0.259,0.136 -0.08,0.046L-0.439,-0.05C-0.898,-0.173 -0.981,-0.253 -0.981,-0.619L-0.981,-0.745C-0.981,-1.13 -0.831,-1.277 -0.326,-1.277L-0.146,-1.277C0.359,-1.277 0.509,-1.13 0.509,-0.745L0.509,-0.499L0.256,-0.499L0.256,-0.731C0.256,-0.974 0.179,-1.044 -0.146,-1.044L-0.326,-1.044C-0.652,-1.044 -0.728,-0.974 -0.728,-0.731L-0.728,-0.632C-0.728,-0.396 -0.698,-0.359 -0.359,-0.269L0,-0.173Z" style="fill:rgb(74,73,73);fill-rule:nonzero;"/>
            </g>
        </g>
        <g transform="matrix(8.33333,0,0,8.33333,0,-162.136)">
            <g transform="matrix(1,0,0,1,376.963,692.438)">
                <path d="M0,2.334L0,0L0.884,0C1.4,0 1.579,0.156 1.579,0.755L1.579,1.579C1.579,2.178 1.4,2.334 0.884,2.334L0,2.334ZM0.868,2.101C1.227,2.101 1.327,2.031 1.327,1.579L1.327,0.755C1.327,0.303 1.227,0.233 0.868,0.233L0.253,0.233L0.253,2.101L0.868,2.101Z" style="fill:rgb(74,73,73);fill-rule:nonzero;"/>
            </g>
        </g>
        <g transform="matrix(8.33333,0,0,8.33333,0,-162.136)">
            <g transform="matrix(1,0,0,1,379.1,692.438)">
                <path d="M0,2.334L0,0L1.337,0L1.337,0.233L0.253,0.233L0.253,1.047L1.214,1.047L1.214,1.28L0.253,1.28L0.253,2.101L1.353,2.101L1.353,2.334L0,2.334Z" style="fill:rgb(74,73,73);fill-rule:nonzero;"/>
            </g>
        </g>
        <g transform="matrix(8.33333,0,0,8.33333,0,-162.136)">
            <g transform="matrix(1,0,0,1,383.192,692.649)">
                <path d="M0,1.914L-0.755,0.368L-0.755,2.124L-1.007,2.124L-1.007,-0.21L-0.755,-0.21L0.11,1.558L0.974,-0.21L1.227,-0.21L1.227,2.124L0.974,2.124L0.974,0.368L0.219,1.914L0,1.914Z" style="fill:rgb(74,73,73);fill-rule:nonzero;"/>
            </g>
        </g>
        <g transform="matrix(8.33333,0,0,8.33333,0,-162.136)">
            <g transform="matrix(1,0,0,1,386.24,692.95)">
                <path d="M0,1.31L-0.997,1.31L-1.17,1.822L-1.43,1.822L-0.625,-0.512L-0.372,-0.512L0.432,1.822L0.173,1.822L0,1.31ZM-0.921,1.077L-0.08,1.077L-0.499,-0.169L-0.921,1.077Z" style="fill:rgb(74,73,73);fill-rule:nonzero;"/>
            </g>
        </g>
        <g transform="matrix(8.33333,0,0,8.33333,0,-162.136)">
            <g transform="matrix(1,0,0,1,387.912,695.161)">
                <path d="M0,-2.746C0.515,-2.746 0.695,-2.59 0.695,-1.991L0.695,-1.12C0.695,-0.725 0.615,-0.525 0.416,-0.432L0.678,0L0.419,0L0.193,-0.376C0.133,-0.369 0.07,-0.366 0,-0.366L-0.253,-0.366C-0.768,-0.366 -0.947,-0.522 -0.947,-1.12L-0.947,-1.991C-0.947,-2.59 -0.768,-2.746 -0.253,-2.746L0,-2.746ZM-0.017,-0.598C0.342,-0.598 0.442,-0.668 0.442,-1.12L0.442,-1.991C0.442,-2.443 0.342,-2.513 -0.017,-2.513L-0.236,-2.513C-0.595,-2.513 -0.695,-2.443 -0.695,-1.991L-0.695,-1.12C-0.695,-0.668 -0.595,-0.598 -0.236,-0.598L-0.017,-0.598Z" style="fill:rgb(74,73,73);fill-rule:nonzero;"/>
            </g>
        </g>
        <g transform="matrix(8.33333,0,0,8.33333,0,-162.136)">
            <g transform="matrix(1,0,0,1,390.542,694.795)">
                <path d="M0,-2.357L0.253,-2.357L0.253,-0.755C0.253,-0.156 0.073,0 -0.442,0L-0.695,0C-1.21,0 -1.39,-0.156 -1.39,-0.755L-1.39,-2.357L-1.137,-2.357L-1.137,-0.755C-1.137,-0.302 -1.037,-0.233 -0.678,-0.233L-0.459,-0.233C-0.1,-0.233 0,-0.302 0,-0.755L0,-2.357Z" style="fill:rgb(74,73,73);fill-rule:nonzero;"/>
            </g>
        </g>
        <g transform="matrix(8.33333,0,0,8.33333,0,-162.136)">
            <g transform="matrix(1,0,0,1,0,545.355)">
                <rect x="391.406" y="147.083" width="0.253" height="2.334" style="fill:rgb(74,73,73);"/>
            </g>
        </g>
        <g transform="matrix(8.33333,0,0,8.33333,0,-162.136)">
            <g transform="matrix(1,0,0,1,392.283,692.438)">
                <path d="M0,2.334L0,0L0.219,0L1.27,1.812L1.27,0L1.523,0L1.523,2.334L1.303,2.334L0.253,0.522L0.253,2.334L0,2.334Z" style="fill:rgb(74,73,73);fill-rule:nonzero;"/>
            </g>
        </g>
        <g transform="matrix(8.33333,0,0,8.33333,0,-162.136)">
            <g transform="matrix(1,0,0,1,395.627,692.95)">
                <path d="M0,1.31L-0.997,1.31L-1.17,1.822L-1.43,1.822L-0.625,-0.512L-0.372,-0.512L0.432,1.822L0.173,1.822L0,1.31ZM-0.921,1.077L-0.08,1.077L-0.499,-0.169L-0.921,1.077Z" style="fill:rgb(74,73,73);fill-rule:nonzero;"/>
            </g>
        </g>
        <g transform="matrix(8.33333,0,0,8.33333,0,-162.136)">
            <g transform="matrix(1,0,0,1,397.276,692.608)">
                <path d="M0,2.716C0.05,2.716 0.08,2.696 0.08,2.646L0.08,2.616C0.08,2.567 0.05,2.547 0,2.547L-0.113,2.547C-0.17,2.547 -0.236,2.557 -0.286,2.573L-0.356,2.517L-0.226,2.187L-0.23,2.187C-0.745,2.187 -0.924,2.031 -0.924,1.433L-0.924,0.562C-0.924,-0.037 -0.745,-0.193 -0.23,-0.193L0.023,-0.193C0.539,-0.193 0.718,-0.037 0.718,0.562L0.718,0.701L0.465,0.701L0.465,0.562C0.465,0.11 0.366,0.04 0.007,0.04L-0.213,0.04C-0.572,0.04 -0.672,0.11 -0.672,0.562L-0.672,1.433C-0.672,1.885 -0.572,1.955 -0.213,1.955L0.007,1.955C0.366,1.955 0.465,1.885 0.465,1.433L0.465,1.293L0.718,1.293L0.718,1.433C0.718,2.031 0.539,2.187 0.023,2.187L-0.003,2.187L-0.09,2.39C-0.067,2.374 -0.033,2.364 0.003,2.364L0.05,2.364C0.246,2.364 0.299,2.44 0.299,2.6L0.299,2.66C0.299,2.832 0.216,2.909 -0.013,2.909L-0.316,2.909L-0.316,2.716L0,2.716Z" style="fill:rgb(74,73,73);fill-rule:nonzero;"/>
            </g>
        </g>
        <g transform="matrix(8.33333,0,0,8.33333,0,-162.136)">
            <g transform="matrix(1,0,0,1,399.716,692.372)">
                <path d="M0,1.888L-0.997,1.888L-1.17,2.4L-1.43,2.4L-0.625,0.066L-0.372,0.066L0.432,2.4L0.173,2.4L0,1.888ZM-0.921,1.655L-0.08,1.655L-0.499,0.409L-0.921,1.655ZM-0.618,-0.306C-0.682,-0.306 -0.708,-0.273 -0.728,-0.213L-0.911,-0.27C-0.878,-0.416 -0.791,-0.506 -0.668,-0.506C-0.535,-0.506 -0.479,-0.419 -0.379,-0.419C-0.316,-0.419 -0.289,-0.453 -0.269,-0.512L-0.086,-0.456C-0.12,-0.31 -0.206,-0.22 -0.329,-0.22C-0.462,-0.22 -0.519,-0.306 -0.618,-0.306" style="fill:rgb(74,73,73);fill-rule:nonzero;"/>
            </g>
        </g>
        <g transform="matrix(8.33333,0,0,8.33333,0,-162.136)">
            <g transform="matrix(1,0,0,1,401.387,694.795)">
                <path d="M0,-2.38C0.515,-2.38 0.695,-2.224 0.695,-1.625L0.695,-0.754C0.695,-0.156 0.515,0 0,0L-0.253,0C-0.768,0 -0.947,-0.156 -0.947,-0.754L-0.947,-1.625C-0.947,-2.224 -0.768,-2.38 -0.253,-2.38L0,-2.38ZM-0.016,-0.232C0.343,-0.232 0.442,-0.302 0.442,-0.754L0.442,-1.625C0.442,-2.077 0.343,-2.147 -0.016,-2.147L-0.236,-2.147C-0.595,-2.147 -0.695,-2.077 -0.695,-1.625L-0.695,-0.754C-0.695,-0.302 -0.595,-0.232 -0.236,-0.232L-0.016,-0.232Z" style="fill:rgb(74,73,73);fill-rule:nonzero;"/>
            </g>
        </g>
        <g transform="matrix(8.33333,0,0,8.33333,0,-162.136)">
            <g transform="matrix(1,0,0,1,365.647,692.093)">
                <path d="M0,-10.583L-1.25,-11.305L-9.166,-6.734L-17.081,-11.305L-18.331,-10.583L-18.331,-9.14L-10.415,-4.57L-10.415,4.571L-9.166,5.292L-7.916,4.571L-7.916,-4.57L0,-9.14L0,-10.583ZM-9.166,-19.723L-21.664,-12.507L-21.664,1.925L-9.166,9.14L3.333,1.925L3.333,-12.507L-9.166,-19.723ZM-19.164,0.481L-19.164,-11.064L-9.166,-16.837L0.833,-11.064L0.833,0.481L-9.166,6.254L-19.164,0.481Z" style="fill:rgb(0,159,227);fill-rule:nonzero;"/>
            </g>
        </g>
        <g transform="matrix(8.33333,0,0,8.33333,0,-162.136)">
            <g opacity="0.2">
                <g transform="matrix(0.866017,-0.500014,-0.500014,-0.866017,362.731,702.908)">
                    <path d="M-4.575,4.575L9.857,4.575L17.073,17.073L2.641,17.073L-4.575,4.575Z" style="fill:rgb(29,29,27);fill-rule:nonzero;"/>
                </g>
            </g>
        </g>
    </g>
</svg>
