<svg xmlns="http://www.w3.org/2000/svg" xml:space="preserve" style="fill-rule:evenodd;clip-rule:evenodd;stroke-linejoin:round;stroke-miterlimit:2" viewBox="0 0 219 49"><path d="M192.033 509.418h13.221l-11.752 46.875h-13.221zM211.531 509.953h13.221l-2.805 10.817h5.609l-2.003 8.013h-5.609l-4.14 16.96c-.534 1.869.401 2.805 2.538 2.671h2.27l-2.003 7.879c-2.671.268-5.209.401-7.479.401-4.007 0-6.811-.534-8.28-1.603-1.603-1.068-1.87-3.605-.801-7.345zM232.364 520.77h13.221l-8.814 35.523H223.55zM251.595 520.77h13.355l-5.877 23.504c-.801 2.805.134 4.274 2.538 4.274 2.671 0 4.274-1.469 5.075-4.274l5.875-23.504h13.221l-8.947 35.523h-13.22l1.067-4.273h-.134q-4.006 5.208-11.217 5.208c-3.071 0-5.476-.667-7.079-2.003-1.736-1.335-2.136-3.873-1.335-7.613zM344.01 521.838c-1.736-1.335-4.14-2.003-7.345-2.003-2.004 0-4.14.4-6.144 1.201-2.136.935-4.006 2.272-5.609 4.274-.267-1.736-1.202-3.205-2.537-4.14-1.335-.801-3.473-1.335-6.277-1.335-4.807 0-8.681 1.87-11.352 5.341h-.133l1.068-4.273h-13.355l-8.948 35.524H296.6l5.876-23.504c.801-2.805 2.404-4.274 4.941-4.14 2.538-.134 3.473 1.335 2.671 4.14l-5.876 23.504h13.221l5.877-23.504c.801-2.805 2.403-4.274 5.075-4.14 2.537-.134 3.472 1.335 2.67 4.14l-5.875 23.504h5.875c4.14 0 8.146-2.805 8.948-6.544l5.208-20.299c.801-3.739.401-6.276-1.201-7.746M177.476 556.293l-1.736-46.875h-7.879c-6.677.267-12.153 3.873-15.225 9.348l-20.165 37.527 15.224-.133 3.606-8.013h11.352l-.401 8.146zm-22.302-17.094 9.081-19.498-1.069 19.498z" style="fill:#1a67bb" transform="translate(-135.49 -521.03)scale(1.0228)"/></svg>
