<svg xmlns="http://www.w3.org/2000/svg" xml:space="preserve" style="fill-rule:evenodd;clip-rule:evenodd;stroke-linejoin:round;stroke-miterlimit:2" viewBox="0 0 456 142"><path d="M436.535 125.008 263.339 549.921h116.504l172.913-424.913z" style="fill:#ffb71b;fill-rule:nonzero" transform="translate(-69.785 -33.127)scale(.265)"/><path d="m521.575 281.48 110.551 268.441H756.85L581.102 138.614z" style="fill-rule:nonzero" transform="translate(-69.785 -33.127)scale(.265)"/><path d="M155.906 530.079q-8.292.001-14.882 3.345c-4.422 2.228-7.994 5.47-10.744 9.722v-11.14h-23.414v78.237h24.066v-43.937q.001-7.952 4.536-12.756c3.033-3.175 7.03-4.791 12.019-4.791 4.138 0 7.2 1.222 9.156 3.657q2.947 3.67 2.948 11.622v45.921h24.066v-47.055c0-11.055-2.288-19.304-6.86-24.775-4.564-5.471-11.537-8.192-20.891-8.192zM241.228 564.094l-13.209-3.033c-3.175-.847-5.414-1.746-6.69-2.707-1.267-.961-1.905-2.287-1.905-3.968q0-3.5 3.175-5.414c2.118-1.276 5.046-1.914 8.759-1.914 8.079 0 16.243 2.863 24.548 8.589l6.378-15.93c-4.252-3.09-9.042-5.471-14.343-7.172a53.6 53.6 0 0 0-16.413-2.551c-6.605 0-12.444 1.066-17.603 3.175-5.159 2.123-9.128 5.045-11.934 8.759-2.82 3.713-4.223 8.022-4.223 12.897 0 6.151 1.785 11.027 5.329 14.57 3.543 3.572 9.099 6.18 16.667 7.881l12.756 2.863c3.94.847 6.605 1.808 8.051 2.863 1.431 1.065 2.151 2.551 2.151 4.45 0 2.129-1.034 3.798-3.118 5.017q-3.104 1.832-8.674 1.831c-5.216 0-10.346-.793-15.449-2.383q-7.653-2.397-14.031-6.69l-6.378 16.554c4.337 3.09 9.524 5.443 15.534 7.087 6.009 1.641 12.614 2.466 19.842 2.466 10.517 0 18.766-2.152 24.775-6.463q9.014-6.463 9.014-17.773.001-9.398-5.499-14.882c-3.685-3.685-9.496-6.407-17.461-8.221zM419.528 572.598c-3.657-3.656-9.468-6.406-17.434-8.192l-13.237-3.033c-3.175-.847-5.414-1.746-6.69-2.707s-1.913-2.287-1.913-3.968c0-2.333 1.065-4.139 3.174-5.415s5.046-1.913 8.759-1.913c8.079 0 16.243 2.863 24.548 8.589l6.378-15.931c-4.252-3.089-9.042-5.471-14.343-7.171a53.6 53.6 0 0 0-16.413-2.551c-6.576 0-12.444 1.065-17.603 3.174-5.159 2.123-9.156 5.046-11.962 8.759-2.812 3.714-4.223 8.022-4.223 12.898 0 6.151 1.777 11.027 5.329 14.57 3.543 3.572 9.099 6.18 16.639 7.88l12.756 2.863c3.94.848 6.605 1.809 8.05 2.863 1.44 1.066 2.152 2.552 2.152 4.451 0 2.129-1.035 3.798-3.118 5.017q-3.105 1.832-8.674 1.831c-5.216 0-10.347-.793-15.449-2.384q-7.654-2.396-14.032-6.689l-6.378 16.554c4.366 3.09 9.525 5.442 15.534 7.087 6.01 1.641 12.614 2.466 19.843 2.466 10.516 0 18.765-2.152 24.775-6.463q9.014-6.463 9.014-17.774c-.014-6.264-1.846-11.225-5.499-14.91z" style="fill-rule:nonzero" transform="translate(29.995 -498.01)"/><path d="M1462.68 657.638h87.87l164.41-402.52h-87.87l-70.87 172.913-70.87-172.913h-87.87l113.39 280.63z" style="fill-rule:nonzero" transform="translate(-69.785 -33.127)scale(.265)"/></svg>