<svg xmlns="http://www.w3.org/2000/svg" xml:space="preserve" style="fill-rule:evenodd;clip-rule:evenodd;stroke-linejoin:round;stroke-miterlimit:2" viewBox="0 0 1119 503"><path d="m0 6.817-.447.982h-5.088v-8.822H-.27l-.317.946h-3.677v2.928h3.321l-.299.945h-3.022v3.021zm-12.02-6.86h-2.511v-.98h6.763l-.389.98h-2.592v7.842h-1.271zm-6.194-.98h1.27v8.821h-1.27zm-7.142 7.84h4.26l-.451.982h-5.08v-8.822h5.259l-.315.946h-3.673v2.928h3.317l-.298.945h-3.019zm-4.615-2.62h-3.182v3.602h-1.273v-8.822h5.368l-.314.946h-3.781v3.346h3.498zm-10.523 2.62h3.816l-.374.982h-4.715v-8.822h1.273zm-9.411-1.982 1.653-3.827 1.553 3.827zm.77-5.858.363.856-.021.048-3.559 7.918h1.192l.908-2.147h3.883l.892 2.147h1.362l-3.678-8.822zm-9.697 3.195c-1.364 0-2.146 1.061-2.146 2.546s.773 2.548 2.146 2.548c1.363 0 2.144-1.063 2.144-2.548s-.781-2.546-2.144-2.546m0 5.886c-1.845 0-3.171-1.365-3.171-3.34 0-1.954 1.326-3.337 3.171-3.337 1.846 0 3.168 1.383 3.168 3.337 0 1.956-1.322 3.34-3.168 3.34m-7.631-5.947h-.732v5.063c.199.052.613.142.97.142 1.466 0 2.299-1.255 2.299-2.567 0-1.556-.911-2.638-2.537-2.638m.238 5.947a7.5 7.5 0 0 1-1.922-.261V1.59a9.5 9.5 0 0 1 1.934-.202c2.065 0 3.308 1.293 3.308 3.349 0 1.966-1.303 3.321-3.32 3.321m-6.18-1.241-.377.982h-4.715v-8.822h1.273v7.84zm-13.227-1.982 1.654-3.827 1.553 3.827zm.771-5.858.364.856-.022.048-3.558 7.918h1.191l.909-2.147h3.881l.893 2.147h1.359l-3.676-8.822zm-11.616 0 5.279 6.298v-6.298h1.111v8.822h-.577l-5.609-6.625v6.625h-1.128V-.15l-.705-.873zm-8.066 7.84h4.258l-.446.982h-5.084v-8.822h5.262l-.316.946h-3.674v2.928h3.319l-.3.945h-3.019zm-4.302-1.328c0 1.467-1.31 2.49-3.182 2.49a7.8 7.8 0 0 1-2.433-.402l-.204-1.404c.788.512 1.546.845 2.545.845.935 0 1.947-.536 1.947-1.401 0-.698-.589-1.207-1.097-1.429l-1.329-.564c-1.215-.508-1.833-1.27-1.833-2.265 0-1.547 1.308-2.546 3.329-2.546.795 0 1.725.296 2.146.528V.62c-.686-.582-1.393-.864-2.146-.864-.999 0-2.073.453-2.073 1.44 0 .727.753 1.126 1.074 1.263l1.53.691c.741.335 1.726.943 1.726 2.339m-13.346-2.146h-.13v-3.66h1.023c1.387 0 2.675.206 2.675 1.695 0 1.202-1.34 1.88-1.492 1.95zm2.884.388c.91-.339 1.973-1.194 1.973-2.483 0-1.836-1.823-2.489-3.529-2.489-1.04 0-1.793.138-2.461.258l-.266.049v8.733h1.269V4.234h1.721l2.786 3.565h1.576l-3.235-4.003zm-12.421 1.104 1.655-3.827 1.55 3.827zm.77-5.858.365.856-.023.048-3.556 7.918h1.189l.911-2.147h3.882l.891 2.147h1.36l-3.678-8.822z" style="fill:#a9a99f;fill-rule:nonzero" transform="translate(1118.1 435.838)scale(8.33333)"/><path d="M0 40.634h10.45L-10.11 0h-10.459z" style="fill:#00577d;fill-rule:nonzero" transform="translate(515.487)scale(8.33333)"/><path d="M0 3.695h10.451L8.583 0H-1.873z" style="fill:#00577d;fill-rule:nonzero" transform="translate(172.662 307.825)scale(8.33333)"/><path d="M10.117 40.634h10.451L.009 0h-10.46z" style="fill:#043057;fill-rule:nonzero" transform="matrix(-8.33333 0 0 8.33333 344.059 0)"/><path d="M-41.139-8.71H0L-4.406 0H-36.73z" style="fill:#a9a99f;fill-rule:nonzero" transform="matrix(-8.33333 0 0 8.33333 387.628 253.331)"/><path d="M-8.58 3.695H1.871L.004 0h-10.455z" style="fill:#043057;fill-rule:nonzero" transform="matrix(-8.33333 0 0 8.33333 873.947 307.825)"/><path d="M0 40.634h10.45L-10.108 0h-10.46z" style="fill:#00577d;fill-rule:nonzero" transform="translate(858.316)scale(8.33333)"/><path d="M10.121 40.634h10.448L.011 0h-10.459z" style="fill:#043057;fill-rule:nonzero" transform="matrix(-8.33333 0 0 8.33333 686.918 0)"/></svg>