<svg xmlns="http://www.w3.org/2000/svg" xml:space="preserve" style="fill-rule:evenodd;clip-rule:evenodd;stroke-linejoin:round;stroke-miterlimit:2" viewBox="0 0 454 217"><path d="M0 5.802V-.065h53.885v5.867z" style="fill:#0097c4;fill-rule:nonzero" transform="translate(1.98 .545)scale(8.33333)"/><path d="M0 5.779V-.065h53.885v5.844z" style="fill:#0097c4;fill-rule:nonzero" transform="translate(1.989 168.237)scale(8.33333)"/><path d="M0 1.025c-.227.885-.741 1.919-1.44 1.919q-.239 0-.357-.159c-.221-.292-.174-.996.138-2.093.352-1.234.772-1.834 1.284-1.834q.194-.001.318.16C.196-.655.22.17 0 1.025m-10.773.029c-.27 1.151-.73 1.811-1.262 1.811-.416 0-.605-.392-.642-.478.039-.166.311-1.336.447-1.875.213-.842.7-1.476 1.134-1.476q.198 0 .317.15c.156.197.284.681.006 1.868m-5.473-.029c-.228.885-.741 1.919-1.441 1.919q-.237 0-.357-.159c-.22-.292-.174-.996.139-2.093.351-1.234.771-1.834 1.284-1.834q.194-.001.318.16c.253.327.276 1.152.057 2.007M.93-1.182c-.304-.404-.766-.627-1.301-.627-1.001 0-1.839.575-2.803 1.922-.82 1.147-1.84 2.574-2.588 2.574q-.267.001-.407-.181c-.231-.295-.229-.948.006-1.888.266-1.064.775-1.807 1.24-1.807.335 0 .458.188.502.303a.623.623 0 0 0-.658.64.68.68 0 0 0 .189.488.64.64 0 0 0 .462.181c.466 0 .792-.388.792-.944 0-.354-.133-.689-.363-.92q-.383-.381-1.066-.382c-1.111 0-2.09.951-2.574 1.518A30 30 0 0 1-9.11 1.273c.296-.985.231-1.905-.187-2.5a1.33 1.33 0 0 0-1.112-.588c-.687 0-1.143.309-1.376.521l.115-.428h-2.343l-.14.573h.653c-.303.993-1.134 1.908-1.531 2.303.049-.157.101-.379.124-.669.06-.737-.131-1.404-.523-1.83a1.41 1.41 0 0 0-1.059-.47c-1.171 0-2.188.711-3.022 2.112l-.252.434c-.54.942-1.098 1.917-2.004 1.917a.71.71 0 0 1-.596-.291c-.374-.493-.393-1.603-.05-2.828.433-1.546 1.361-3.11 2.297-3.11.158 0 .288.061.399.185.359.406.377 1.379.331 1.761l-.009.073h.682l.715-2.594h-.652l-.02.027-.266.365c-.152-.181-.627-.625-1.646-.625-1.163 0-3.204 1.247-3.894 3.924-.335 1.297-.189 2.437.41 3.21a2.18 2.18 0 0 0 1.73.868c1.137 0 2.152-.865 2.583-1.546.066.466.365 1.546 1.696 1.546 1.194 0 2.59-.904 4.048-2.617l-1.128 4.418h1.687l.556-2.277c.139.18.464.476 1.101.476.901 0 2.398-1.033 3.695-2.536-.178.75-.076 1.426.293 1.915.297.394.737.62 1.208.62 1.565 0 2.661-1.31 3.031-1.824-.008.477.147.927.44 1.261.318.363.777.563 1.293.563 1.372 0 2.57-.957 2.981-2.381.285-.99.208-1.847-.218-2.413" style="fill:#0097c4;fill-rule:nonzero" transform="translate(442.405 106.754)scale(8.33333)"/><path d="M0 2.166c-.33 1.265-.721 1.829-1.27 1.829a.35.35 0 0 1-.294-.148c-.24-.313-.231-1.083.023-2.007C-1.185.545-.735.37-.341.37a.37.37 0 0 1 .302.157c.222.286.236.884.039 1.639M-13.691.959h-1.675c.65-2.207 1.425-3.182 2.567-3.229zm19.675.429a.62.62 0 0 0 .448.177c.32 0 .663-.201.663-.765 0-.281-.105-.534-.304-.732-.289-.29-.759-.449-1.322-.449-1.127 0-1.908.46-2.199 1.295-.215.621.116 1.283.933 1.866l.111.078c.475.336.762.539.689.969-.057.342-.427.588-.88.584-.692-.006-.806-.365-.825-.489.123-.055.433-.234.433-.621a.6.6 0 0 0-.168-.446c-.171-.171-.41-.189-.504-.189-.223 0-.606.078-.667.607a1 1 0 0 0 .004.201c-.052.075-.27.363-.626.476a.29.29 0 0 1-.284-.065c-.113-.11-.134-.319-.058-.589.077-.274.898-3.596.898-3.596H.659L.532.155C.403-.053.085-.381-.647-.381c-1.121 0-2.067 1.097-2.537 2.036-.395.789-1.129 2.258-1.699 2.258a.17.17 0 0 1-.14-.064c-.061-.079-.137-.315.046-.998.15-.56 1.343-5.454 1.343-5.454H-6.48l-.153.671h1.068l-.737 2.952c-.543 2.135-1.493 2.893-2.141 2.893q-.203 0-.293-.114c-.174-.217-.059-.732.026-1.108.118-.525.493-2.038.563-2.319h1.179l.171-.683h-1.171l.406-1.659-.64-.001-.02.029C-9.063-.677-9.441-.269-10.7-.269h-.051l-.157.64H-9.9l-.16.769c-.556 2.098-1.62 2.968-2.066 2.968-.22 0-.341-.036-.408-.123-.11-.143-.096-.457.045-.99.254-.962 1.332-4.813 1.462-5.278h1.074l.197-.645-2.29-.006c-.823 0-1.792.07-2.74.586-1.186.645-2.044 1.854-2.55 3.596a58 58 0 0 1-.595 2.164c-.294.968-1.072 1.073-1.392 1.073-.199 0-.412-.097-.584-.266l-.111-.109v.871l.05.012a4.6 4.6 0 0 0 1.054.107c1.102 0 2.079-.796 2.582-1.478.41-.555.545-1.05.75-1.8l.045-.166h1.656c-.07.237-.278.943-.46 1.612-.156.573-.116 1.02.119 1.327.231.302.646.455 1.233.455.596 0 1.671-.146 2.401-1.08.018.229.088.525.307.752q.315.324.902.325c.904 0 1.926-.593 2.423-1.197.011.23.071.608.32.881.192.209.461.316.799.316 1.009 0 1.933-.808 2.354-1.464.073.437.372 1.464 1.587 1.464.778 0 1.353-.491 1.668-.848.067.271.29.848.995.848.745 0 1.489-.499 1.831-.889.317.614.675.889 1.887.889 1.151 0 2.102-.784 2.268-1.517.18-.792-.256-1.114-.98-1.647l-.088-.065-.149-.108c-.358-.258-.666-.48-.666-.861 0-.415.336-.6.669-.6.275 0 .427.109.492.171a.7.7 0 0 0-.23.507c0 .179.065.343.183.461" style="fill:#0097c4;fill-rule:nonzero" transform="translate(166.814 94.812)scale(8.33333)"/></svg>
