<?xml version="1.0" encoding="UTF-8" standalone="no"?>
<!DOCTYPE svg PUBLIC "-//W3C//DTD SVG 1.1//EN" "http://www.w3.org/Graphics/SVG/1.1/DTD/svg11.dtd">
<svg width="100%" height="100%" viewBox="0 0 454 217" version="1.1" xmlns="http://www.w3.org/2000/svg" xmlns:xlink="http://www.w3.org/1999/xlink" xml:space="preserve" style="fill-rule:evenodd;clip-rule:evenodd;stroke-linejoin:round;stroke-miterlimit:2;">
    <g transform="matrix(1,0,0,1,-2899.91,-5134.3)">
        <g transform="matrix(8.33333,0,0,8.33333,0,-162.136)">
            <g transform="matrix(1,0,0,1,348.227,635.638)">
                <path d="M0,5.802L0,-0.065L53.885,-0.065L53.885,5.802L0,5.802Z" style="fill:rgb(0,151,196);fill-rule:nonzero;"/>
            </g>
        </g>
        <g transform="matrix(8.33333,0,0,8.33333,0,-162.136)">
            <g transform="matrix(1,0,0,1,348.228,655.761)">
                <path d="M0,5.779L0,-0.065L53.885,-0.065L53.885,5.779L0,5.779Z" style="fill:rgb(0,151,196);fill-rule:nonzero;"/>
            </g>
        </g>
        <g transform="matrix(8.33333,0,0,8.33333,0,-162.136)">
            <g transform="matrix(1,0,0,1,401.078,648.383)">
                <path d="M0,1.025C-0.227,1.91 -0.741,2.944 -1.44,2.944C-1.6,2.944 -1.717,2.892 -1.797,2.785C-2.018,2.493 -1.971,1.789 -1.659,0.692C-1.307,-0.542 -0.887,-1.142 -0.375,-1.142C-0.245,-1.142 -0.141,-1.09 -0.057,-0.982C0.196,-0.655 0.22,0.17 0,1.025M-10.773,1.054C-11.043,2.205 -11.503,2.865 -12.035,2.865C-12.451,2.865 -12.64,2.473 -12.677,2.387C-12.638,2.221 -12.366,1.051 -12.23,0.512C-12.017,-0.33 -11.53,-0.964 -11.096,-0.964C-10.965,-0.964 -10.858,-0.914 -10.779,-0.814C-10.623,-0.617 -10.495,-0.133 -10.773,1.054M-16.246,1.025C-16.474,1.91 -16.987,2.944 -17.687,2.944C-17.846,2.944 -17.963,2.892 -18.044,2.785C-18.264,2.493 -18.218,1.789 -17.905,0.692C-17.554,-0.542 -17.134,-1.142 -16.621,-1.142C-16.491,-1.142 -16.387,-1.09 -16.303,-0.982C-16.05,-0.655 -16.027,0.17 -16.246,1.025M0.93,-1.182C0.626,-1.586 0.164,-1.809 -0.371,-1.809C-1.372,-1.809 -2.21,-1.234 -3.174,0.113C-3.994,1.26 -5.014,2.687 -5.762,2.687C-5.941,2.687 -6.074,2.628 -6.169,2.506C-6.4,2.211 -6.398,1.558 -6.163,0.618C-5.897,-0.446 -5.388,-1.189 -4.923,-1.189C-4.588,-1.189 -4.465,-1.001 -4.421,-0.886C-4.559,-0.895 -4.71,-0.852 -4.831,-0.763C-4.991,-0.645 -5.079,-0.461 -5.079,-0.246C-5.079,-0.053 -5.012,0.12 -4.89,0.242C-4.771,0.36 -4.612,0.423 -4.428,0.423C-3.962,0.423 -3.636,0.035 -3.636,-0.521C-3.636,-0.875 -3.769,-1.21 -3.999,-1.441C-4.253,-1.695 -4.611,-1.823 -5.065,-1.823C-6.176,-1.823 -7.155,-0.872 -7.639,-0.305C-8.183,0.332 -8.805,0.967 -9.11,1.273C-8.814,0.288 -8.879,-0.632 -9.297,-1.227C-9.563,-1.606 -9.958,-1.815 -10.409,-1.815C-11.096,-1.815 -11.552,-1.506 -11.785,-1.294L-11.67,-1.722L-14.013,-1.722L-14.153,-1.149L-13.5,-1.149C-13.803,-0.156 -14.634,0.759 -15.031,1.154C-14.982,0.997 -14.93,0.775 -14.907,0.485C-14.847,-0.252 -15.038,-0.919 -15.43,-1.345C-15.714,-1.652 -16.08,-1.815 -16.489,-1.815C-17.66,-1.815 -18.677,-1.104 -19.511,0.297L-19.763,0.731C-20.303,1.673 -20.861,2.648 -21.767,2.648C-22.016,2.648 -22.216,2.55 -22.363,2.357C-22.737,1.864 -22.756,0.754 -22.413,-0.471C-21.98,-2.017 -21.052,-3.581 -20.116,-3.581C-19.958,-3.581 -19.828,-3.52 -19.717,-3.396C-19.358,-2.99 -19.34,-2.017 -19.386,-1.635L-19.395,-1.562L-18.713,-1.562L-17.998,-4.156L-18.65,-4.156L-18.67,-4.129L-18.936,-3.764C-19.088,-3.945 -19.563,-4.389 -20.582,-4.389C-21.745,-4.389 -23.786,-3.142 -24.476,-0.465C-24.811,0.832 -24.665,1.972 -24.066,2.745C-23.638,3.297 -23.008,3.613 -22.336,3.613C-21.199,3.613 -20.184,2.748 -19.753,2.067C-19.687,2.533 -19.388,3.613 -18.057,3.613C-16.863,3.613 -15.467,2.709 -14.009,0.996L-15.137,5.414L-13.45,5.414L-12.894,3.137C-12.755,3.317 -12.43,3.613 -11.793,3.613C-10.892,3.613 -9.395,2.58 -8.098,1.077C-8.276,1.827 -8.174,2.503 -7.805,2.992C-7.508,3.386 -7.068,3.612 -6.597,3.612C-5.032,3.612 -3.936,2.302 -3.566,1.788C-3.574,2.265 -3.419,2.715 -3.126,3.049C-2.808,3.412 -2.349,3.612 -1.833,3.612C-0.461,3.612 0.737,2.655 1.148,1.231C1.433,0.241 1.356,-0.616 0.93,-1.182" style="fill:rgb(0,151,196);fill-rule:nonzero;"/>
            </g>
        </g>
        <g transform="matrix(8.33333,0,0,8.33333,0,-162.136)">
            <g transform="matrix(1,0,0,1,368.007,646.95)">
                <path d="M0,2.166C-0.33,3.431 -0.721,3.995 -1.27,3.995C-1.393,3.995 -1.489,3.947 -1.564,3.847C-1.804,3.534 -1.795,2.764 -1.541,1.84C-1.185,0.545 -0.735,0.37 -0.341,0.37C-0.221,0.37 -0.119,0.423 -0.039,0.527C0.183,0.813 0.197,1.411 0,2.166M-13.691,0.959L-15.366,0.959C-14.716,-1.248 -13.941,-2.223 -12.799,-2.27L-13.691,0.959ZM5.984,1.388C6.1,1.504 6.255,1.565 6.432,1.565C6.752,1.565 7.095,1.364 7.095,0.8C7.095,0.519 6.99,0.266 6.791,0.068C6.502,-0.222 6.032,-0.381 5.469,-0.381C4.342,-0.381 3.561,0.079 3.27,0.914C3.055,1.535 3.386,2.197 4.203,2.78L4.314,2.858C4.789,3.194 5.076,3.397 5.003,3.827C4.946,4.169 4.576,4.415 4.123,4.411C3.431,4.405 3.317,4.046 3.298,3.922C3.421,3.867 3.731,3.688 3.731,3.301C3.731,3.117 3.675,2.967 3.563,2.855C3.392,2.684 3.153,2.666 3.059,2.666C2.836,2.666 2.453,2.744 2.392,3.273C2.383,3.348 2.391,3.432 2.396,3.474C2.344,3.549 2.126,3.837 1.77,3.95C1.689,3.976 1.57,3.966 1.486,3.885C1.373,3.775 1.352,3.566 1.428,3.296C1.505,3.022 2.326,-0.3 2.326,-0.3L0.659,-0.3L0.532,0.155C0.403,-0.053 0.085,-0.381 -0.647,-0.381C-1.768,-0.381 -2.714,0.716 -3.184,1.655C-3.579,2.444 -4.313,3.913 -4.883,3.913C-4.944,3.913 -4.99,3.892 -5.023,3.849C-5.084,3.77 -5.16,3.534 -4.977,2.851C-4.827,2.291 -3.634,-2.603 -3.634,-2.603L-6.48,-2.603L-6.633,-1.932L-5.565,-1.932L-6.302,1.02C-6.845,3.155 -7.795,3.913 -8.443,3.913C-8.579,3.913 -8.675,3.876 -8.736,3.799C-8.91,3.582 -8.795,3.067 -8.71,2.691C-8.592,2.166 -8.217,0.653 -8.147,0.372L-6.968,0.372L-6.797,-0.311L-7.968,-0.311L-7.562,-1.97L-8.202,-1.971L-8.222,-1.942C-9.063,-0.677 -9.441,-0.269 -10.7,-0.269L-10.751,-0.269L-10.908,0.371L-9.9,0.371C-9.944,0.581 -10.061,1.143 -10.06,1.14C-10.616,3.238 -11.68,4.108 -12.126,4.108C-12.346,4.108 -12.467,4.072 -12.534,3.985C-12.644,3.842 -12.63,3.528 -12.489,2.995C-12.235,2.033 -11.157,-1.818 -11.027,-2.283L-9.953,-2.283L-9.756,-2.928L-12.046,-2.934C-12.869,-2.934 -13.838,-2.864 -14.786,-2.348C-15.972,-1.703 -16.83,-0.494 -17.336,1.248C-17.339,1.26 -17.652,2.494 -17.931,3.412C-18.225,4.38 -19.003,4.485 -19.323,4.485C-19.522,4.485 -19.735,4.388 -19.907,4.219L-20.018,4.11L-20.018,4.981L-19.968,4.993C-19.67,5.064 -19.315,5.1 -18.914,5.1C-17.812,5.1 -16.835,4.304 -16.332,3.622C-15.922,3.067 -15.787,2.572 -15.582,1.822L-15.537,1.656L-13.881,1.656C-13.951,1.893 -14.159,2.599 -14.341,3.268C-14.497,3.841 -14.457,4.288 -14.222,4.595C-13.991,4.897 -13.576,5.05 -12.989,5.05C-12.393,5.05 -11.318,4.904 -10.588,3.97C-10.57,4.199 -10.5,4.495 -10.281,4.722C-10.072,4.937 -9.769,5.047 -9.379,5.047C-8.475,5.047 -7.453,4.454 -6.956,3.85C-6.945,4.08 -6.885,4.458 -6.636,4.731C-6.444,4.94 -6.175,5.047 -5.837,5.047C-4.828,5.047 -3.904,4.239 -3.483,3.583C-3.41,4.02 -3.111,5.047 -1.896,5.047C-1.118,5.047 -0.543,4.556 -0.228,4.199C-0.161,4.47 0.062,5.047 0.767,5.047C1.512,5.047 2.256,4.548 2.598,4.158C2.915,4.772 3.273,5.047 4.485,5.047C5.636,5.047 6.587,4.263 6.753,3.53C6.933,2.738 6.497,2.416 5.773,1.883L5.685,1.818L5.536,1.71C5.178,1.452 4.87,1.23 4.87,0.849C4.87,0.434 5.206,0.249 5.539,0.249C5.814,0.249 5.966,0.358 6.031,0.42C5.948,0.499 5.801,0.673 5.801,0.927C5.801,1.106 5.866,1.27 5.984,1.388" style="fill:rgb(0,151,196);fill-rule:nonzero;"/>
            </g>
        </g>
    </g>
</svg>
