<svg xmlns="http://www.w3.org/2000/svg" width="276" height="41"><path fill="#f41d40" fill-rule="evenodd" d="M0 40.983h16.129l9.755-9.566 7.334 7.294L36.756 26.6l-4.805-4.74h9.453L35.9 40.933h11.5l5.489-19.076h4.74L68.7 10.975H46.732L57.909.015H41.777L30.6 10.975H5.418l12.458 12.478z"/><path fill="#313131" fill-rule="evenodd" d="M149.674 26.073c-.612.006-.7-.414-.557-.876l2.081-7.245a1.07 1.07 0 0 1 1.062-.877h12.637c.611-.006.7.414.556.877l-2.081 7.245a1.07 1.07 0 0 1-1.061.877zm-61.856-.024h-6.465l9.075-9.009zm-6.625.16 5.151 5.14h12.343l5.583-19.489H82.317L62.674 31.344l13.352-.007 5.167-5.129Zm162.842 5.079h26.388q.747-2.607 1.5-5.215h-17.976c-.612.006-.7-.414-.556-.876l2.082-7.245a1.07 1.07 0 0 1 1.062-.877h17.966c.489-1.7 1.108-3.842 1.5-5.216h-26.384a6.28 6.28 0 0 0-6.129 4.655l-2.907 10.115c-.762 2.855.482 4.593 3.453 4.656Zm-8.123.055h-12.4c2.985-10.391 4.631-16.119 5.6-19.483h12.425c-1.861 6.491-3.751 12.989-5.628 19.483Zm-42.77-12.514-3.595 12.515h-12.4l5.6-19.483h16.187l1.78 12.022 8.672-12.022h16.188L220 31.343h-12.4l3.578-12.515-9.026 12.515H195l-1.854-12.515Zm-77.883-1.753-4.1 14.268h12.4q2.046-7.136 4.093-14.266h8.877l1.5-5.217h-31.021l-1.495 5.217h9.746Zm24.5 14.213h29.468a6.28 6.28 0 0 0 6.128-4.656q1.452-5.056 2.907-10.115c.762-2.855-.481-4.593-3.453-4.655h-29.466a6.28 6.28 0 0 0-6.129 4.655q-1.453 5.061-2.907 10.115c-.762 2.855.482 4.593 3.453 4.656Z"/></svg>