<svg xmlns="http://www.w3.org/2000/svg" width="276" height="41"><path d="M0,40.983H16.129l9.755-9.566,7.334,7.294L36.756,26.6l-4.805-4.74,9.453,0L35.9,40.933H47.4l5.489-19.076h4.74L68.7,10.975H46.732L57.909,0.015H41.777L30.6,10.975H5.418L17.876,23.453,0,40.983H0Z" fill-rule="evenodd" fill="#f41d40"/><path d="M149.674,26.073c-0.612.006-.7-0.414-0.557-0.876q1.04-3.62,2.081-7.245a1.07,1.07,0,0,1,1.062-.877c4.846,0,7.787,0,12.637,0,0.611-.006.7,0.414,0.556,0.877q-1.041,3.627-2.081,7.245a1.068,1.068,0,0,1-1.061.877H149.674Zm-61.856-.024H81.353l9.075-9.009-2.611,9.009h0Zm-6.625.16,5.151,5.14,12.343,0L104.27,11.86H82.317L62.674,31.344l13.352-.007,5.167-5.129h0Zm162.842,5.079h26.388q0.747-2.607,1.5-5.215H253.947c-0.612.006-.7-0.414-0.556-0.876q1.04-3.62,2.082-7.245a1.068,1.068,0,0,1,1.062-.877l17.966,0c0.489-1.7,1.108-3.842,1.5-5.216H249.617a6.281,6.281,0,0,0-6.129,4.655q-1.455,5.061-2.907,10.115c-0.762,2.855.482,4.593,3.453,4.656h0Zm-8.123.055q-6.195,0-12.4,0c2.985-10.391,4.631-16.119,5.6-19.483h12.425c-1.861,6.491-3.751,12.989-5.628,19.483h0ZM193.142,18.829c-0.811,2.825-1.965,6.838-3.595,12.515h-12.4l5.6-19.483h16.187c0.718,4.843-1.074-7.26,1.78,12.022,13.91-19.283,5.179-7.179,8.672-12.022h16.188L220,31.343h-12.4c1.622-5.677,2.771-9.69,3.578-12.515l-9.026,12.515H195c-0.782-5.272-1.385-9.343-1.854-12.515h0Zm-77.883-1.753c-0.973,3.384-2.29,7.969-4.1,14.268,3.771,0,8.471,0,12.4,0q2.046-7.136,4.093-14.266l8.877,0,1.5-5.217H107.008l-1.495,5.217c3.243,0,6.5,0,9.746,0h0Zm24.5,14.213h29.468a6.281,6.281,0,0,0,6.128-4.656q1.452-5.056,2.907-10.115c0.762-2.855-.481-4.593-3.453-4.655H145.343a6.282,6.282,0,0,0-6.129,4.655q-1.453,5.061-2.907,10.115c-0.762,2.855.482,4.593,3.453,4.656h0Z" fill="#313131" fill-rule="evenodd"/></svg>