<svg xmlns="http://www.w3.org/2000/svg" xml:space="preserve" style="fill-rule:evenodd;clip-rule:evenodd;stroke-linejoin:round;stroke-miterlimit:2" viewBox="0 0 142 32"><path d="M49.5 3.7c1.3-.3 3-.5 4.8-.5 2.2 0 4.3.4 5.8 1.7 1.2 1.1 1.7 2.6 1.7 4.4 0 2.3-1.2 4.4-3.6 5.4v.1c2.8.8 4.4 3.1 4.4 6 0 2-.7 3.6-1.8 4.8-1.4 1.6-3.8 2.4-7.3 2.4-1.8 0-3.1-.1-4.1-.3v-24zm3.9 9.9h1.1c2 0 3.6-1.6 3.6-3.8 0-2-.9-3.6-3.3-3.6-.6 0-1.1 0-1.4.1zm0 11.3c.3.1.7.1 1.2.1 2.4 0 4.1-1.4 4.1-4.2 0-2.9-2-4.3-4.2-4.3h-1.1zM75.7 16.7h-5.8v7.8h6.6v3.4H66V3.4h10v3.4h-6.2v6.7h5.8v3.2zM79.6 27.9V3.4h3.6l4.1 10.5c.9 2.2 2.1 5.4 2.9 7.7h.1c-.2-3.1-.4-6.9-.4-11.3V3.4h3.4v24.5h-3.6l-4.2-10.4c-.9-2.3-2-5.2-2.7-7.8h-.1c.2 2.8.3 6.3.3 11.4v6.8zM97.6 3.7c1.1-.3 2.7-.5 4.4-.5 2.8 0 4.9.7 6.3 2 2 1.8 3.2 5 3.2 9.9 0 5.3-1.3 8.6-3.2 10.4-1.6 1.7-4 2.5-7.2 2.5-1.3 0-2.7-.1-3.6-.3v-24zm3.8 21.1c.3.1.7.1.9.1 2.7 0 5.1-2.3 5.1-9.7 0-5.6-1.6-8.8-4.9-8.8-.4 0-.8 0-1.1.1zM124.3 16.7h-5.8v7.8h6.6v3.4h-10.5V3.4h10.1v3.4h-6.2v6.7h5.8zM128.3 3.7c1.3-.3 3.1-.5 4.6-.5 2.5 0 4.7.4 6.1 1.8 1.4 1.3 1.9 2.9 1.9 5 0 2.8-1.4 5-3.9 6.2v.1c1.7.6 2.6 2.3 3.1 5.2.5 3 1.1 5.6 1.5 6.4h-4c-.3-.7-.8-3.1-1.2-6-.5-3.2-1.4-4.2-3.3-4.2h-.9v10.2h-3.9zm3.8 11h1c2.3 0 3.8-1.8 3.8-4.3 0-2.4-1-4-3.5-4.1-.5 0-1 0-1.3.1z" style="fill:#007d32;fill-rule:nonzero"/><path d="M42 14c0 5.7-2.8 10.8-7 14h7l-3.5 3.5h-14z" style="fill:#f9b000;fill-rule:nonzero"/><path d="M1.8 24.5h9.9L8.2 28h14.9l-3.5 3.5H3.5C1.6 31.5 0 30 0 28V3.5C0 1.6 1.6 0 3.5 0h22.8z" style="fill:#007d32;fill-rule:nonzero"/><path d="M27.2 14h9.9L26.6 24.5h-9.9l3.5-3.5h-9.9l21-21 4.9 5z" style="fill:#f9b000;fill-rule:nonzero"/></svg>
