<?xml version="1.0" encoding="UTF-8" standalone="no"?>
<!DOCTYPE svg PUBLIC "-//W3C//DTD SVG 1.1//EN" "http://www.w3.org/Graphics/SVG/1.1/DTD/svg11.dtd">
<svg width="100%" height="100%" viewBox="0 0 142 32" version="1.1" xmlns="http://www.w3.org/2000/svg" xmlns:xlink="http://www.w3.org/1999/xlink" xml:space="preserve" style="fill-rule:evenodd;clip-rule:evenodd;stroke-linejoin:round;stroke-miterlimit:2;">
    <g>
        <g>
            <g>
                <path d="M49.5,3.7C50.8,3.4 52.5,3.2 54.3,3.2C56.5,3.2 58.6,3.6 60.1,4.9C61.3,6 61.8,7.5 61.8,9.3C61.8,11.6 60.6,13.7 58.2,14.7L58.2,14.8C61,15.6 62.6,17.9 62.6,20.8C62.6,22.8 61.9,24.4 60.8,25.6C59.4,27.2 57,28 53.5,28C51.7,28 50.4,27.9 49.4,27.7L49.4,3.7L49.5,3.7ZM53.4,13.6L54.5,13.6C56.5,13.6 58.1,12 58.1,9.8C58.1,7.8 57.2,6.2 54.8,6.2C54.2,6.2 53.7,6.2 53.4,6.3L53.4,13.6ZM53.4,24.9C53.7,25 54.1,25 54.6,25C57,25 58.7,23.6 58.7,20.8C58.7,17.9 56.7,16.5 54.5,16.5L53.4,16.5L53.4,24.9Z" style="fill:rgb(0,125,50);fill-rule:nonzero;"/>
                <path d="M75.7,16.7L69.9,16.7L69.9,24.5L76.5,24.5L76.5,27.9L66,27.9L66,3.4L76,3.4L76,6.8L69.8,6.8L69.8,13.5L75.6,13.5L75.6,16.7L75.7,16.7Z" style="fill:rgb(0,125,50);fill-rule:nonzero;"/>
                <path d="M79.6,27.9L79.6,3.4L83.2,3.4L87.3,13.9C88.2,16.1 89.4,19.3 90.2,21.6L90.3,21.6C90.1,18.5 89.9,14.7 89.9,10.3L89.9,3.4L93.3,3.4L93.3,27.9L89.7,27.9L85.5,17.5C84.6,15.2 83.5,12.3 82.8,9.7L82.7,9.7C82.9,12.5 83,16 83,21.1L83,27.9L79.6,27.9Z" style="fill:rgb(0,125,50);fill-rule:nonzero;"/>
                <path d="M97.6,3.7C98.7,3.4 100.3,3.2 102,3.2C104.8,3.2 106.9,3.9 108.3,5.2C110.3,7 111.5,10.2 111.5,15.1C111.5,20.4 110.2,23.7 108.3,25.5C106.7,27.2 104.3,28 101.1,28C99.8,28 98.4,27.9 97.5,27.7L97.5,3.7L97.6,3.7ZM101.4,24.8C101.7,24.9 102.1,24.9 102.3,24.9C105,24.9 107.4,22.6 107.4,15.2C107.4,9.6 105.8,6.4 102.5,6.4C102.1,6.4 101.7,6.4 101.4,6.5L101.4,24.8Z" style="fill:rgb(0,125,50);fill-rule:nonzero;"/>
                <path d="M124.3,16.7L118.5,16.7L118.5,24.5L125.1,24.5L125.1,27.9L114.6,27.9L114.6,3.4L124.7,3.4L124.7,6.8L118.5,6.8L118.5,13.5L124.3,13.5L124.3,16.7Z" style="fill:rgb(0,125,50);fill-rule:nonzero;"/>
                <path d="M128.3,3.7C129.6,3.4 131.4,3.2 132.9,3.2C135.4,3.2 137.6,3.6 139,5C140.4,6.3 140.9,7.9 140.9,10C140.9,12.8 139.5,15 137,16.2L137,16.3C138.7,16.9 139.6,18.6 140.1,21.5C140.6,24.5 141.2,27.1 141.6,27.9L137.6,27.9C137.3,27.2 136.8,24.8 136.4,21.9C135.9,18.7 135,17.7 133.1,17.7L132.2,17.7L132.2,27.9L128.3,27.9L128.3,3.7ZM132.1,14.7L133.1,14.7C135.4,14.7 136.9,12.9 136.9,10.4C136.9,8 135.9,6.4 133.4,6.3C132.9,6.3 132.4,6.3 132.1,6.4L132.1,14.7Z" style="fill:rgb(0,125,50);fill-rule:nonzero;"/>
            </g>
            <g>
                <path d="M42,14C42,19.7 39.2,24.8 35,28L42,28L38.5,31.5L24.5,31.5L42,14Z" style="fill:rgb(249,176,0);fill-rule:nonzero;"/>
                <path d="M1.8,24.5L11.7,24.5L8.2,28L23.1,28L19.6,31.5L3.5,31.5C1.6,31.5 0,30 0,28L0,3.5C0,1.6 1.6,0 3.5,0L26.3,0L1.8,24.5Z" style="fill:rgb(0,125,50);fill-rule:nonzero;"/>
                <path d="M27.2,14L37.1,14L26.6,24.5L16.7,24.5L20.2,21L10.3,21L31.3,0L36.2,5L27.2,14Z" style="fill:rgb(249,176,0);fill-rule:nonzero;"/>
            </g>
        </g>
    </g>
</svg>
