<?xml version="1.0" encoding="UTF-8" standalone="no"?>
<!DOCTYPE svg PUBLIC "-//W3C//DTD SVG 1.1//EN" "http://www.w3.org/Graphics/SVG/1.1/DTD/svg11.dtd">
<svg width="100%" height="100%" viewBox="0 0 1015 154" version="1.1" xmlns="http://www.w3.org/2000/svg" xmlns:xlink="http://www.w3.org/1999/xlink" xml:space="preserve" style="fill-rule:evenodd;clip-rule:evenodd;stroke-linejoin:round;stroke-miterlimit:2;">
    <g transform="matrix(1,0,0,1,-4.60976,-4.67065)">
        <g id="layer1" transform="matrix(1,0,0,1,-1355.14,-2567.28)">
            <path id="path2682" d="M1359.75,2572.02L1402.54,2572.02L1402.54,2682.44L1469.77,2682.44L1469.77,2615.17L1417.05,2615.17L1453.34,2572.02L1512.54,2572.02L1512.54,2725.23L1359.75,2725.23L1359.75,2572.02" style="fill:rgb(237,28,36);"/>
            <path id="path2684" d="M1580.16,2571.95L1580.16,2725.3L1650.63,2725.3C1705.38,2724.89 1713.5,2654.89 1667.86,2642.57C1699.85,2628.27 1693.89,2577.71 1655.75,2572.1L1580.16,2571.95ZM1715.82,2571.95L1715.82,2725.61L1809.72,2725.61L1809.72,2689.29L1756.95,2689.29L1756.95,2664.14L1801.34,2664.14L1801.34,2630.46L1756.95,2630.46L1756.95,2608.27L1807.86,2608.27L1807.86,2571.95L1715.82,2571.95ZM1900.36,2571.95L1831.45,2572.1L1831.45,2725.3L1872.42,2725.3L1872.42,2669.89L1908.28,2725.3L1959.81,2725.3L1913.86,2662.9C1954.11,2648.77 1958.83,2573.97 1900.36,2571.95ZM1968.19,2571.95L1968.19,2725.3L2008.7,2725.3L2008.7,2645.05L2066.75,2725.3L2103.84,2725.3L2103.84,2571.95L2063.33,2571.95L2063.33,2650.02L2004.2,2571.95L1968.19,2571.95ZM2131.47,2571.95L2131.47,2725.14L2225.06,2725.3L2225.06,2689.29L2172.76,2689.29L2172.76,2664.14L2216.37,2664.14L2216.37,2630.46L2172.76,2630.46L2172.76,2608.27L2223.2,2608.27L2223.2,2571.95L2131.47,2571.95ZM2314.62,2571.95L2246.17,2572.1L2246.17,2725.3L2286.68,2725.3L2286.68,2668.64L2322.84,2725.3L2374.53,2725.3L2328.12,2662.9C2368.37,2648.77 2373.08,2573.97 2314.62,2571.95ZM1620.67,2602.22L1634.17,2602.37C1652.74,2603.02 1649.86,2631.04 1634.64,2630.15L1620.67,2630.15L1620.67,2602.22ZM1872.42,2606.1L1888.57,2606.1C1906.76,2607.62 1903.63,2636.58 1886.86,2637.45L1872.42,2637.29L1872.42,2606.1ZM2286.68,2606.1L2302.82,2606.1C2321.02,2607.62 2317.88,2636.58 2301.12,2637.45L2286.68,2637.29L2286.68,2606.1ZM1638.05,2661.35C1659.65,2662.36 1657.13,2691.9 1638.05,2692.7L1620.67,2692.7L1620.67,2661.51L1638.05,2661.35Z" style="fill:rgb(0,96,174);"/>
        </g>
    </g>
</svg>
