<svg xmlns="http://www.w3.org/2000/svg" xml:space="preserve" style="fill-rule:evenodd;clip-rule:evenodd;stroke-linejoin:round;stroke-miterlimit:2" viewBox="0 0 1015 154"><path d="M1359.75 2572.02h42.79v110.42h67.23v-67.27h-52.72l36.29-43.15h59.2v153.21h-152.79z" style="fill:#ed1c24" transform="translate(-1359.75 -2571.95)"/><path d="M1580.16 2571.95v153.35h70.47c54.75-.41 62.87-70.41 17.23-82.73 31.99-14.3 26.03-64.86-12.11-70.47zm135.66 0v153.66h93.9v-36.32h-52.77v-25.15h44.39v-33.68h-44.39v-22.19h50.91v-36.32zm184.54 0-68.91.15v153.2h40.97v-55.41l35.86 55.41h51.53l-45.95-62.4c40.25-14.13 44.97-88.93-13.5-90.95m67.83 0v153.35h40.51v-80.25l58.05 80.25h37.09v-153.35h-40.51v78.07l-59.13-78.07zm163.28 0v153.19l93.59.16v-36.01h-52.3v-25.15h43.61v-33.68h-43.61v-22.19h50.44v-36.32zm183.15 0-68.45.15v153.2h40.51v-56.66l36.16 56.66h51.69l-46.41-62.4c40.25-14.13 44.96-88.93-13.5-90.95m-693.95 30.27 13.5.15c18.57.65 15.69 28.67.47 27.78h-13.97zm251.75 3.88h16.15c18.19 1.52 15.06 30.48-1.71 31.35l-14.44-.16zm414.26 0h16.14c18.2 1.52 15.06 30.48-1.7 31.35l-14.44-.16zm-648.63 55.25c21.6 1.01 19.08 30.55 0 31.35h-17.38v-31.19z" style="fill:#0060ae" transform="translate(-1359.75 -2571.95)"/></svg>