<svg xmlns="http://www.w3.org/2000/svg" xml:space="preserve" style="fill-rule:evenodd;clip-rule:evenodd;stroke-linejoin:round;stroke-miterlimit:2" viewBox="0 0 500 110"><path d="M169.4 50.1h-49.8l6.4 7.6-1 5.9-1.3 7.6-1.2 6.6-1.5 8.7h44.1c4.1 0 7.7-3 8.4-7l.9-5.1c.6-3.5-2.1-6.6-5.6-6.6h-.5.4c3.1 0 5.7-2.2 6.3-5.3l.8-4.8c.7-4-2.3-7.6-6.4-7.6m-27.3 7.6h15.4c1.8 0 3.1 1.6 2.8 3.3v.2c-.2 1.4-1.4 2.4-2.8 2.4h-16.4zm-3.6 20.1 1.2-6.6h15.9c1.8 0 3.1 1.6 2.8 3.3l-.2.9c-.2 1.4-1.4 2.3-2.8 2.3h-16.9zM387.7 58.4l-5 28.1h-16l4.5-25.5c.3-1.7-1-3.3-2.8-3.3h-15.2l-5.1 28.8h-16l4.5-25.5c.3-1.7-1-3.3-2.8-3.3h-15.3l-5.1 28.8h-16l5.1-28.8-6.4-7.6h45.6c1.7 0 3.1 1.2 3.4 2.9l.1-.1c1.3-1.7 3.4-2.7 5.6-2.7h29.9c4.5-.1 7.8 3.8 7 8.2M189.2 50.1h16.1l-1.3 7.6-3.6 20.1-1.5 8.7h-16.1l1.5-8.7 3.6-20.1zM262.1 86.5h-42.5c-4.4 0-7.7-4-7-8.3l3.9-22.3c.6-3.4 3.5-5.9 7-5.9h36.2l-1.3 7.6h-23.7c-1.4 0-2.6 1-2.8 2.3l-3.1 17.7h26.1zM273.8 50.1h16.1l-1.4 7.6-3.5 20.1-1.6 8.7h-16l1.5-8.7 3.5-20.1zM400.9 50.1l-1.3 7.6h32.2l-1 5.9H403c-3.4 0-6.4 2.5-7 5.9l-1.5 8.8c-.8 4.3 2.6 8.3 7 8.3h41.3l5-28.1c.8-4.3-2.6-8.3-7-8.3h-39.9zm27.4 27.7h-14.4c-1.8 0-3.1-1.6-2.8-3.3l.2-.9c.2-1.4 1.4-2.3 2.8-2.3h15.4zM495.6 77.8l8 8.7h-14.7l-7.9-8.7-.8-.9-1 .9-9.7 8.7h-20.2l21.8-19.6-8.4-9.2-7-7.6h14.7l6.9 7.6 1.8 2 10.7-9.6H510l-8.5 7.6-13.3 12z" style="fill-rule:nonzero" transform="translate(-10 -9.5)"/><path d="M55.1 44.1h-7.3l5.3 11.5L46 95.7H34.3l5.2 11.5H28.9L10 84.7 21.2 21 11.5 9.5h49.7z" style="fill:url(#a);fill-rule:nonzero" transform="translate(-10 -9.5)"/><path d="m101.4 62.8-5.8 32.9-42 23.1-19.3-23.1h23.4l5.8-32.9-15.7-18.7h38z" style="fill:url(#b);fill-rule:nonzero" transform="translate(-10 -9.5)"/><defs><linearGradient id="a" x1="0" x2="1" y1="0" y2="0" gradientTransform="scale(48.8956)rotate(10 -5.935 1.013)" gradientUnits="userSpaceOnUse"><stop offset="0" style="stop-color:#c00d0d;stop-opacity:1"/><stop offset="1" style="stop-color:#db0812;stop-opacity:1"/></linearGradient><linearGradient id="b" x1="0" x2="1" y1="0" y2="0" gradientTransform="rotate(10 -414.325 253.76)scale(60.4396)" gradientUnits="userSpaceOnUse"><stop offset="0" style="stop-color:#c00d0d;stop-opacity:1"/><stop offset="1" style="stop-color:#db0812;stop-opacity:1"/></linearGradient></defs></svg>