<svg xmlns="http://www.w3.org/2000/svg" xml:space="preserve" style="fill-rule:evenodd;clip-rule:evenodd;stroke-linejoin:round;stroke-miterlimit:2" viewBox="0 0 528 387"><path d="M13.084-13.084C5.858-13.084 0-7.226 0 0s5.858 13.084 13.084 13.084S26.168 7.226 26.168 0 20.31-13.084 13.084-13.084" style="fill:#554e4b;fill-rule:nonzero" transform="matrix(0 8.33333 8.33333 0 254.797 0)"/><path d="M11.043-11.043C4.957-11.043.024-6.099.024 0s4.933 11.043 11.019 11.043S22.062 6.099 22.062 0s-4.933-11.043-11.019-11.043" style="fill:#aba6a5;fill-rule:nonzero" transform="matrix(0 8.33333 8.33333 0 254.381 17)"/><path d="M-8.872-8.872c-5.012 0-9.074 3.972-9.074 8.872s4.062 8.872 9.074 8.872S.202 4.9.202 0-3.86-8.872-8.872-8.872" style="fill:#554e4b;fill-rule:nonzero" transform="matrix(0 -8.33333 -8.33333 0 241.124 21.244)"/><path d="M-7.374-7.374c-4.183 0-7.574 3.302-7.574 7.374 0 4.073 3.391 7.374 7.574 7.374S.2 4.073.2 0s-3.391-7.374-7.574-7.374" style="fill:#aba6a5;fill-rule:nonzero" transform="matrix(0 -8.33333 -8.33333 0 226.758 34.873)"/><path d="M0 7.801c0 .559-.414 1.013-.925 1.013h-7.126c-.511 0-.925-.454-.925-1.013V0c0-.56.414-1.013.925-1.013h7.126C-.414-1.013 0-.56 0 0z" style="fill:#554e4b;fill-rule:nonzero" transform="translate(288.208 61.227)scale(8.33333)"/><path d="M0 6.501c0 .466-.37.844-.826.844h-6.367a.835.835 0 0 1-.826-.844V0c0-.466.37-.844.826-.844h6.367C-.37-.844 0-.466 0 0z" style="fill:#9cb8d1;fill-rule:nonzero" transform="translate(288.208 65.61)scale(8.33333)"/><path d="M.315-.202.112.271l.203.09C.352.19.463.021.433-.158z" style="fill:#95908e;fill-rule:nonzero" transform="scale(8.33333 -8.33333)rotate(-80.287 -21.73 -26.594)"/><path d="M.304-.219Q.21.019.102.25q.099.053.202.106l.154-.494z" style="fill:#95908e;fill-rule:nonzero" transform="scale(8.33333 -8.33333)rotate(-79.784 -5.642 -46.17)"/><path d="M0-1.146c.016-.233.254-.382.47-.396.284-.032.588-.062.86.048.21.106.19.37.207.57l-.252.001c-.027-.131.032-.339-.137-.387-.174-.056-.362-.034-.541-.024-.135.013-.318.023-.34.193C.221-.727.225-.3.318.109c.301.111.658.12.957-.001q.016-.195.036-.388c.061-.001.186-.002.247-.004-.007.234.018.604-.287.656C.941.422.579.458.26.338.063.283.027.059.003-.112A5 5 0 0 1 0-1.146" style="fill:#95908e;fill-rule:nonzero" transform="translate(.203 380.552)scale(8.33333)"/><path d="M0-1.495a.18.18 0 0 0-.176.169c-.049.39-.049.789.006 1.178.08.19.329.138.494.155.188-.014.413.035.567-.099.09-.329.062-.676.061-1.012-.009-.138-.006-.336-.173-.377A1.9 1.9 0 0 0 0-1.495m-.164-.175c.342-.114.723-.102 1.069-.015.298.101.271.475.299.729-.003.341.032.719-.139 1.026C.798.289.418.224.097.222-.098.204-.355.145-.396-.082c-.082-.357-.066-.729-.055-1.093.003-.199.086-.421.287-.495" style="fill:#95908e;fill-rule:nonzero" transform="translate(22.293 382.062)scale(8.33333)"/><path d="M0-1.953a2.6 2.6 0 0 1 .428.015c.193.538.43 1.059.643 1.59.196-.541.436-1.064.641-1.601q.214-.01.427.002c-.007.646.006 1.294-.007 1.94l-.248.012a39 39 0 0 1-.004-1.683c-.238.556-.458 1.121-.697 1.677L.965.007C.707-.532.508-1.096.259-1.637.258-1.091.268-.545.254.001L.002-.003c-.005-.65 0-1.3-.002-1.95" style="fill:#95908e;fill-rule:nonzero" transform="translate(38.6 383.912)scale(8.33333)"/><path d="M0-1.964q.63-.005 1.262-.002l.001.225c-.332 0-.665.005-.997-.005q-.011.308-.006.617.48-.002.961 0l-.003.223q-.48 0-.959.001-.001.332.001.667c.337.007.677-.021 1.013.017l-.006.198C.846.004.425-.017.004-.011-.01-.662-.002-1.314 0-1.964" style="fill:#95908e;fill-rule:nonzero" transform="translate(62.958 384.003)scale(8.33333)"/><path d="M0-1.466q.007.35.001.703c.278.015.561.032.836-.017.204-.043.153-.297.157-.449a.203.203 0 0 0-.198-.239A4.6 4.6 0 0 0 0-1.466m-.26-.232c.365-.008.731-.023 1.094.006.182.007.359.134.393.318.048.252.063.572-.175.734.268.216.138.589.171.884L.971.247c-.017-.235.055-.5-.074-.712C.624-.596.298-.498.005-.524c0 .259.002.52-.011.779L-.255.242c-.009-.647 0-1.294-.005-1.94" style="fill:#95908e;fill-rule:nonzero" transform="translate(82.144 381.832)scale(8.33333)"/><path d="M0-.995c-.021-.258.221-.453.461-.468.286-.034.587-.06.865.035.215.111.205.376.214.583l-.253-.004c-.029-.128.03-.335-.13-.388-.277-.064-.569-.029-.842.038C.192-.751.252-.277.316.176c.246.127.531.091.797.073.228-.015.187-.295.201-.453l.254.001c-.011.191.012.413-.122.569C1.224.528.931.479.674.488.444.488.13.451.058.188-.047-.196-.01-.602 0-.995" style="fill:#95908e;fill-rule:nonzero" transform="translate(98.938 379.911)scale(8.33333)"/><path d="m.138-1.953-.262.026C-.037-1.279.038-.63.138.016l.249-.045C.313-.672.22-1.312.138-1.953" style="fill:#95908e;fill-rule:nonzero" transform="scale(-8.33333 8.33333)rotate(7.5 -358.48 -88.123)"/><path d="M0-1.398A3.4 3.4 0 0 0-.005-.009C.277.106.594.077.89.046c.236-.03.188-.331.209-.501-.019-.313.059-.646-.083-.938A1.9 1.9 0 0 0 0-1.398m.007-.22a1.9 1.9 0 0 1 1.072.01c.247.106.245.419.262.646-.001.358.045.745-.116 1.078C1.022.32.701.288.437.295.208.283-.102.293-.223.054-.356-.294-.297-.677-.309-1.04c-.016-.231.079-.499.316-.578" style="fill:#95908e;fill-rule:nonzero" transform="translate(129.313 381.538)scale(8.33333)"/><path d="M0-1.51c-.017.502-.006 1.005-.007 1.508.283-.011.572.028.851-.035.299-.077.246-.46.258-.696-.019-.239.051-.565-.174-.722C.629-1.547.308-1.486 0-1.51m-.268-.219c.424.016.86-.052 1.276.055.367.143.339.608.344.933-.02.324.007.807-.383.919C.566.271.146.206-.264.225-.277-.426-.27-1.078-.268-1.729" style="fill:#95908e;fill-rule:nonzero" transform="translate(165.058 382.039)scale(8.33333)"/><path d="M0-1.941c.422-.012.844-.005 1.267-.005l-.001.224c-.332.003-.666-.002-.999.004q-.002.299-.008.599c.326.023.654-.012.979.024l-.012.204c-.32.009-.64.001-.96.007q-.006.332.003.666l.998-.001-.001.226C.846.008.425.012.004.005c-.01-.649 0-1.298-.004-1.946" style="fill:#95908e;fill-rule:nonzero" transform="translate(182.248 383.842)scale(8.33333)"/><path d="M0-.247c-.152-.266-.124-.771.242-.84.287-.053.592-.063.874.02.214.07.229.326.241.515h-.255q-.027-.15-.052-.296C.778-.908.459-.956.209-.809.127-.67.178-.504.186-.352c.344.133.74.018 1.069.198.174.185.134.474.1.705-.049.233-.318.301-.526.301C.572.846.277.903.055.743-.112.619-.081.392-.105.212L.158.21C.169.35.134.568.313.615Q.645.651.98.613c.216-.082.16-.383.116-.557C.761-.142.258.117 0-.247" style="fill:#95908e;fill-rule:nonzero" transform="translate(199.373 376.858)scale(8.33333)"/><path d="m.127-1.963-.246.032c.08.646.159 1.293.246 1.938C.188 0 .309-.017.37-.025.292-.671.208-1.317.127-1.963" style="fill:#95908e;fill-rule:nonzero" transform="scale(-8.33333 8.33333)rotate(7.172 -380.607 -188.01)"/><path d="M0-1.247a.44.44 0 0 1 .333-.331c.334-.071.689-.07 1.022.01.224.08.217.354.239.548l-.259.007q-.027-.167-.052-.331c-.323-.062-.685-.117-.992.028-.073.123-.07.27-.076.409-.003.316-.021.638.051.95.321.119.697.128 1.021.015q.046-.238.045-.48C1.128-.424.923-.428.719-.426l.004-.227c.287-.001.574-.003.861.006-.016.298.061.677-.175.905C1.075.402.684.368.333.316c-.3-.041-.357-.381-.37-.627-.009-.311-.033-.63.037-.936" style="fill:#95908e;fill-rule:nonzero" transform="translate(226.383 381.036)scale(8.33333)"/><path d="M0-1.961q.195.001.392.01.497.84 1.02 1.665c-.012-.558-.006-1.115-.004-1.672l.259.003c-.003.65.002 1.299-.002 1.949q-.187 0-.37.005C.939-.545.618-1.11.263-1.655.255-1.107.264-.559.259-.011L.005 0C-.01-.654-.001-1.308 0-1.961" style="fill:#95908e;fill-rule:nonzero" transform="translate(246.044 383.947)scale(8.33333)"/><path d="M0-1.955h.249C.247-1.304.252-.653.246-.001L.001 0C-.004-.652-.001-1.303 0-1.955" style="fill:#95908e;fill-rule:nonzero" transform="translate(283.194 383.916)scale(8.33333)"/><path d="m0-1.949.372-.006q.526.826 1.022 1.672c.024-.555.006-1.11.011-1.665l.262-.001c-.002.652.008 1.304-.005 1.955l-.382-.01C.944-.565.592-1.116.257-1.677.26-1.117.266-.556.253.005L0 0q-.001-.975 0-1.949" style="fill:#95908e;fill-rule:nonzero" transform="translate(292.603 383.885)scale(8.33333)"/><path d="M0-1.484c-.007.5-.003 1-.001 1.5.287-.008.58.031.863-.038.238-.057.224-.353.248-.543-.005-.275.034-.592-.12-.832-.3-.158-.664-.064-.99-.087M-.264.239c.007-.653-.024-1.307.016-1.959.378.027.76-.019 1.137.033.259.033.435.277.445.528.019.366.053.751-.075 1.103C1.188.152.955.226.756.237c-.34.018-.68.006-1.02.002" style="fill:#95908e;fill-rule:nonzero" transform="translate(315.967 381.877)scale(8.33333)"/><path d="m0-1.988.257.001c.021.552-.042 1.11.037 1.66.301.113.662.117.96-.008.078-.548.016-1.104.037-1.656l.263.007c-.003.455.002.908 0 1.362-.005.202-.049.475-.276.538-.291.087-.606.068-.904.03a.425.425 0 0 1-.372-.42C-.006-.979.003-1.483 0-1.988" style="fill:#95908e;fill-rule:nonzero" transform="translate(333.908 384.203)scale(8.33333)"/><path d="M0-1.838a1.75 1.75 0 0 1 1.001-.02c.207.079.213.329.24.515q-.135-.005-.268-.007l-.039-.28c-.269-.081-.584-.106-.841.02-.081.126-.053.323-.011.466.312.136.676.029.987.167.241.127.186.442.175.667-.006.236-.241.362-.451.365C.504.059.186.111-.075-.042c-.157-.133-.13-.359-.147-.541l.261.009c.022.14-.035.359.156.398C.43-.162.68-.133.909-.2c.144-.121.133-.38.06-.531C.657-.935.191-.692-.087-.989c-.181-.239-.179-.669.087-.849" style="fill:#95908e;fill-rule:nonzero" transform="translate(355.06 383.453)scale(8.33333)"/><path d="M0-1.949c.493-.004.988.002 1.482-.004q.006.123.016.247c-.208.005-.417.012-.625.009C.872-1.13.875-.563.872.004H.626C.622-.563.625-1.129.624-1.696a25 25 0 0 0-.615-.002z" style="fill:#95908e;fill-rule:nonzero" transform="translate(370.509 383.872)scale(8.33333)"/><path d="M0-1.485q-.006.36 0 .723c.303.003.61.021.909-.039.128-.197.106-.447.017-.653C.619-1.509.309-1.485 0-1.485m-.262-.226c.367.003.736-.022 1.103.014a.41.41 0 0 1 .389.392c.02.229.042.521-.192.652.274.218.161.588.178.889L.968.248C.946.029.982-.198.924-.411.908-.513.787-.523.707-.531c-.236-.013-.472 0-.708-.002 0 .259 0 .518-.008.777l-.25-.002C-.266-.409-.26-1.06-.262-1.711" style="fill:#95908e;fill-rule:nonzero" transform="translate(390.959 381.898)scale(8.33333)"/><path d="m.125-1.965-.257.039c.088.643.166 1.287.257 1.929l.252-.027C.305-.673.212-1.319.125-1.965" style="fill:#95908e;fill-rule:nonzero" transform="scale(-8.33333 8.33333)rotate(7.504 -375.748 -353.336)"/><path d="M0-1.443q-.197.542-.391 1.086.388-.005.775-.002C.259-.722.118-1.078 0-1.443m-.173-.252.312-.012c.27.643.494 1.306.743 1.958L.628.264a6 6 0 0 1-.166-.418c-.306.002-.612.005-.917-.002q-.09.203-.167.414L-.884.255c.228-.653.472-1.301.711-1.95" style="fill:#95908e;fill-rule:nonzero" transform="translate(423.53 381.771)scale(8.33333)"/><path d="m0-1.958.249-.001C.252-1.391.244-.823.253-.255q.49-.003.98-.002l-.01.258C.816-.01.409-.001.002-.005-.004-.656-.001-1.307 0-1.958" style="fill:#95908e;fill-rule:nonzero" transform="translate(436.692 383.947)scale(8.33333)"/><path d="m0-1.969.25.001C.254-1.401.248-.835.252-.267h.969l.018.239C.827 0 .414-.019.002-.016-.002-.667.001-1.318 0-1.969" style="fill:#95908e;fill-rule:nonzero" transform="translate(478.123 384.032)scale(8.33333)"/><path d="M0-1.51c-.006.498.001.996-.004 1.495C.318-.028.67.05.971-.096c.163-.169.12-.435.139-.65-.024-.231.037-.522-.142-.702C.66-1.564.321-1.497 0-1.51m-.262-.226c.369.002.739-.021 1.108.014.19.013.384.13.44.321.12.386.095.805.016 1.197a.48.48 0 0 1-.389.391C.524.247.13.206-.261.215q-.001-.976-.001-1.951" style="fill:#95908e;fill-rule:nonzero" transform="translate(496.383 382.107)scale(8.33333)"/><path d="M0 .724q.386-.004.772 0C.652.363.509.012.394-.351.249.002.13.365 0 .724m-.496.603C-.257.68-.024.032.217-.614L.538-.62q.381.977.732 1.964l-.28-.021A13 13 0 0 0 .858.931c-.3.005-.601-.015-.9.004-.113.096-.126.274-.187.407-.09-.008-.179-.01-.267-.015" style="fill:#95908e;fill-rule:nonzero" transform="translate(516.994 372.757)scale(8.33333)"/><path d="M.28-.632.029-.659c-.035.221-.115.642.251.588L.173-.28A.74.74 0 0 0 .28-.632" style="fill:#95908e;fill-rule:nonzero" transform="scale(-8.33334 8.33334)rotate(-5.619 445.704 578.978)"/><path d="M0-13.536c2.035-.317 4.101-.303 6.154-.305 1.46-.002 2.932-.005 4.373.255.654.13 1.335.285 1.879.695.581.448.922 1.14 1.102 1.837.157.779.133 1.579.159 2.369-1.074.025-2.148.003-3.222.011-.328-.009-.657.021-.984-.018-.006-.367-.051-.759-.28-1.061-.18-.238-.472-.352-.752-.425-.5-.129-1.021-.103-1.532-.106-1.432.002-2.864-.008-4.294.031-.444.003-.918.051-1.283.328-.486.337-.606.958-.638 1.51A26 26 0 0 0 .715-5.01c.024.465.188.947.557 1.251.447.377 1.058.463 1.624.464l5.107-.001c.485.001 1.02-.134 1.326-.54.304-.388.339-.901.32-1.375q2.097.002 4.194-.001c.014.933.011 1.879-.205 2.792-.114.449-.261.918-.604 1.249-.672.697-1.649.96-2.572 1.133-1.741.283-3.511.263-5.27.298C3.35.228 1.482.317-.326-.103c-.608-.168-1.245-.343-1.732-.765-.764-.679-1.228-1.657-1.333-2.669-.252-2.086-.187-4.197-.038-6.289.034-.685.283-1.345.604-1.944.575-1.018 1.702-1.589 2.825-1.766" style="fill:#9fb9cf;fill-rule:nonzero" transform="translate(29.846 351.141)scale(8.33333)"/><path d="M0-6.887c-.559.083-1.086.502-1.207 1.068-.153.629-.174 1.28-.201 1.924-.016.766-.048 1.538.077 2.298.07.384.172.782.428 1.086.169.202.428.29.676.349.524.117 1.064.138 1.6.153C2.877.009 4.381.03 5.886.042c.541-.013 1.091.001 1.622-.126.513-.126.911-.561 1.041-1.067.207-.773.218-1.581.236-2.374-.001-.694.016-1.396-.127-2.079-.094-.471-.404-.918-.869-1.081-.588-.195-1.213-.245-1.829-.242-1.986-.015-3.977-.086-5.96.04m-.366-3.535c1.737-.096 3.477-.078 5.216-.08 1.233.002 2.467-.017 3.698.08.697.059 1.409.125 2.06.4.832.331 1.537.983 1.89 1.811.416.91.401 1.93.448 2.908.011 1.674.118 3.356-.068 5.025-.142 1.033-.516 2.094-1.296 2.82-.694.65-1.646.954-2.581 1.007-2.297.083-4.595.032-6.892.027-.933-.007-1.866-.006-2.798-.03-.688-.031-1.392.001-2.055-.213-.849-.25-1.579-.83-2.07-1.559-.303-.484-.442-1.048-.548-1.602-.218-1.22-.238-2.463-.238-3.698-.012-1.605-.053-3.269.573-4.781.422-.977 1.381-1.649 2.406-1.866.743-.148 1.5-.207 2.255-.249" style="fill:#9fb9cf;fill-rule:nonzero" transform="translate(204.096 323.317)scale(8.33333)"/><path d="M0-6.668Q-.002-3.336 0-.005q3.818.005 7.637 0c.619-.019 1.349-.093 1.756-.622.388-.544.453-1.242.45-1.891-.01-1.011.055-2.044-.213-3.03-.148-.541-.655-.903-1.184-1.019-.678-.163-1.382-.083-2.071-.102Q3.188-6.671 0-6.668m-4.2-3.558 12.721-.001c.731.009 1.469.008 2.192.122.836.223 1.692.618 2.192 1.357.676.944.981 2.106 1.039 3.255.115 1.58.14 3.171.027 4.752-.119 1.278-.537 2.667-1.629 3.449-1.106.782-2.516.83-3.82.842-4.241.009-8.481.002-12.722.003z" style="fill:#9fb9cf;fill-rule:nonzero" transform="translate(359.659 322.361)scale(8.33333)"/><path d="M2.103-14.08c-1.344.394-2.679.814-4.019 1.22Q.091-6.27 2.103.32c1.339-.41 2.68-.809 4.016-1.23q-2.01-6.584-4.016-13.17" style="fill:#9fb9cf;fill-rule:nonzero" transform="scale(-8.33334 8.33334)rotate(16.959 -171.18 -198.065)"/></svg>
