<?xml version="1.0" encoding="UTF-8" standalone="no"?>
<!DOCTYPE svg PUBLIC "-//W3C//DTD SVG 1.1//EN" "http://www.w3.org/Graphics/SVG/1.1/DTD/svg11.dtd">
<svg width="100%" height="100%" viewBox="0 0 528 387" version="1.1" xmlns="http://www.w3.org/2000/svg" xmlns:xlink="http://www.w3.org/1999/xlink" xml:space="preserve" xmlns:serif="http://www.serif.com/" style="fill-rule:evenodd;clip-rule:evenodd;stroke-linejoin:round;stroke-miterlimit:2;">
    <g transform="matrix(0,8.33333,8.33333,0,254.797,0)">
        <path d="M13.084,-13.084C5.858,-13.084 0,-7.226 0,0C0,7.226 5.858,13.084 13.084,13.084C20.31,13.084 26.168,7.226 26.168,0C26.168,-7.226 20.31,-13.084 13.084,-13.084" style="fill:rgb(85,78,75);fill-rule:nonzero;"/>
    </g>
    <g transform="matrix(0,8.33333,8.33333,0,254.381,16.9992)">
        <path d="M11.043,-11.043C4.957,-11.043 0.024,-6.099 0.024,0C0.024,6.099 4.957,11.043 11.043,11.043C17.129,11.043 22.062,6.099 22.062,0C22.062,-6.099 17.129,-11.043 11.043,-11.043" style="fill:rgb(171,166,165);fill-rule:nonzero;"/>
    </g>
    <g transform="matrix(0,-8.33333,-8.33333,0,241.124,21.2442)">
        <path d="M-8.872,-8.872C-13.884,-8.872 -17.946,-4.9 -17.946,0C-17.946,4.9 -13.884,8.872 -8.872,8.872C-3.86,8.872 0.202,4.9 0.202,0C0.202,-4.9 -3.86,-8.872 -8.872,-8.872" style="fill:rgb(85,78,75);fill-rule:nonzero;"/>
    </g>
    <g transform="matrix(0,-8.33333,-8.33333,0,226.758,34.8725)">
        <path d="M-7.374,-7.374C-11.557,-7.374 -14.948,-4.072 -14.948,0C-14.948,4.073 -11.557,7.374 -7.374,7.374C-3.191,7.374 0.2,4.073 0.2,0C0.2,-4.072 -3.191,-7.374 -7.374,-7.374" style="fill:rgb(171,166,165);fill-rule:nonzero;"/>
    </g>
    <g transform="matrix(8.33333,0,0,8.33333,288.208,61.2267)">
        <path d="M0,7.801C0,8.36 -0.414,8.814 -0.925,8.814L-8.051,8.814C-8.562,8.814 -8.976,8.36 -8.976,7.801L-8.976,0C-8.976,-0.56 -8.562,-1.013 -8.051,-1.013L-0.925,-1.013C-0.414,-1.013 0,-0.56 0,0L0,7.801Z" style="fill:rgb(85,78,75);fill-rule:nonzero;"/>
    </g>
    <g transform="matrix(8.33333,0,0,8.33333,288.208,65.6092)">
        <path d="M0,6.501C0,6.967 -0.37,7.345 -0.826,7.345L-7.193,7.345C-7.649,7.345 -8.019,6.967 -8.019,6.501L-8.019,-0C-8.019,-0.466 -7.649,-0.844 -7.193,-0.844L-0.826,-0.844C-0.37,-0.844 0,-0.466 0,-0L0,6.501Z" style="fill:rgb(156,184,209);fill-rule:nonzero;"/>
    </g>
    <g transform="matrix(1.40598,8.21387,8.21387,-1.40598,67.9093,362.713)">
        <path d="M0.315,-0.202C0.248,-0.045 0.179,0.113 0.112,0.271C0.179,0.301 0.246,0.331 0.315,0.361C0.352,0.19 0.463,0.021 0.433,-0.158C0.404,-0.169 0.344,-0.191 0.315,-0.202" style="fill:rgb(149,144,142);fill-rule:nonzero;"/>
    </g>
    <g transform="matrix(1.47796,8.20122,8.20122,-1.47796,339.975,362.785)">
        <path d="M0.304,-0.219C0.241,-0.06 0.174,0.095 0.102,0.25C0.168,0.285 0.235,0.321 0.304,0.356C0.355,0.192 0.407,0.027 0.458,-0.138C0.42,-0.158 0.342,-0.198 0.304,-0.219" style="fill:rgb(149,144,142);fill-rule:nonzero;"/>
    </g>
    <g transform="matrix(8.33333,0,0,8.33333,0.203408,380.552)">
        <path d="M0,-1.146C0.016,-1.379 0.254,-1.528 0.47,-1.542C0.754,-1.574 1.058,-1.604 1.33,-1.494C1.54,-1.388 1.52,-1.124 1.537,-0.924C1.474,-0.924 1.348,-0.924 1.285,-0.923C1.258,-1.054 1.317,-1.262 1.148,-1.31C0.974,-1.366 0.786,-1.344 0.607,-1.334C0.472,-1.321 0.289,-1.311 0.267,-1.141C0.221,-0.727 0.225,-0.3 0.318,0.109C0.619,0.22 0.976,0.229 1.275,0.108C1.286,-0.021 1.298,-0.152 1.311,-0.28C1.372,-0.281 1.497,-0.282 1.558,-0.284C1.551,-0.05 1.576,0.32 1.271,0.372C0.941,0.422 0.579,0.458 0.26,0.338C0.063,0.283 0.027,0.059 0.003,-0.112C-0.032,-0.456 -0.034,-0.803 0,-1.146" style="fill:rgb(149,144,142);fill-rule:nonzero;"/>
    </g>
    <g transform="matrix(8.33333,0,0,8.33333,22.2934,382.062)">
        <path d="M0,-1.495C-0.096,-1.493 -0.168,-1.421 -0.176,-1.326C-0.225,-0.936 -0.225,-0.537 -0.17,-0.148C-0.09,0.042 0.159,-0.01 0.324,0.007C0.512,-0.007 0.737,0.042 0.891,-0.092C0.981,-0.421 0.953,-0.768 0.952,-1.104C0.943,-1.242 0.946,-1.44 0.779,-1.481C0.525,-1.545 0.256,-1.539 0,-1.495M-0.164,-1.67C0.178,-1.784 0.559,-1.772 0.905,-1.685C1.203,-1.584 1.176,-1.21 1.204,-0.956C1.201,-0.615 1.236,-0.237 1.065,0.07C0.798,0.289 0.418,0.224 0.097,0.222C-0.098,0.204 -0.355,0.145 -0.396,-0.082C-0.478,-0.439 -0.462,-0.811 -0.451,-1.175C-0.448,-1.374 -0.365,-1.596 -0.164,-1.67" style="fill:rgb(149,144,142);fill-rule:nonzero;"/>
    </g>
    <g transform="matrix(8.33333,0,0,8.33333,38.6001,383.912)">
        <path d="M0,-1.953C0.143,-1.96 0.286,-1.955 0.428,-1.938C0.621,-1.4 0.858,-0.879 1.071,-0.348C1.267,-0.889 1.507,-1.412 1.712,-1.949C1.854,-1.956 1.997,-1.955 2.139,-1.947C2.132,-1.301 2.145,-0.653 2.132,-0.007C2.07,-0.004 1.946,0.002 1.884,0.005C1.867,-0.556 1.873,-1.117 1.88,-1.678C1.642,-1.122 1.422,-0.557 1.183,-0.001C1.128,0.001 1.02,0.004 0.965,0.007C0.707,-0.532 0.508,-1.096 0.259,-1.637C0.258,-1.091 0.268,-0.545 0.254,0.001C0.191,-0 0.065,-0.002 0.002,-0.003C-0.003,-0.653 0.002,-1.303 0,-1.953" style="fill:rgb(149,144,142);fill-rule:nonzero;"/>
    </g>
    <g transform="matrix(8.33333,0,0,8.33333,62.9584,384.003)">
        <path d="M0,-1.964C0.42,-1.968 0.841,-1.967 1.262,-1.966C1.262,-1.909 1.263,-1.798 1.263,-1.741C0.931,-1.741 0.598,-1.736 0.266,-1.746C0.259,-1.541 0.256,-1.335 0.26,-1.129C0.581,-1.13 0.9,-1.131 1.221,-1.129C1.22,-1.074 1.219,-0.962 1.218,-0.906C0.898,-0.905 0.579,-0.907 0.259,-0.905C0.258,-0.684 0.259,-0.461 0.26,-0.238C0.597,-0.231 0.937,-0.259 1.273,-0.221C1.272,-0.171 1.268,-0.072 1.267,-0.023C0.846,0.004 0.425,-0.017 0.004,-0.011C-0.01,-0.662 -0.002,-1.314 0,-1.964" style="fill:rgb(149,144,142);fill-rule:nonzero;"/>
    </g>
    <g transform="matrix(8.33333,0,0,8.33333,82.1442,381.832)">
        <path d="M0,-1.466C0.005,-1.232 0.004,-0.998 0.001,-0.763C0.279,-0.748 0.562,-0.731 0.837,-0.78C1.041,-0.823 0.99,-1.077 0.994,-1.229C1.015,-1.354 0.922,-1.466 0.796,-1.468C0.531,-1.493 0.265,-1.487 0,-1.466M-0.26,-1.698C0.105,-1.706 0.471,-1.721 0.834,-1.692C1.016,-1.685 1.193,-1.558 1.227,-1.374C1.275,-1.122 1.29,-0.802 1.052,-0.64C1.32,-0.424 1.19,-0.051 1.223,0.244C1.16,0.245 1.034,0.246 0.971,0.247C0.954,0.012 1.026,-0.253 0.897,-0.465C0.624,-0.596 0.298,-0.498 0.005,-0.524C0.005,-0.265 0.007,-0.004 -0.006,0.255C-0.068,0.252 -0.192,0.245 -0.255,0.242C-0.264,-0.405 -0.255,-1.052 -0.26,-1.698" style="fill:rgb(149,144,142);fill-rule:nonzero;"/>
    </g>
    <g transform="matrix(8.33333,0,0,8.33333,98.9376,379.911)">
        <path d="M0,-0.995C-0.021,-1.253 0.221,-1.448 0.461,-1.463C0.747,-1.497 1.048,-1.523 1.326,-1.428C1.541,-1.317 1.531,-1.052 1.54,-0.845C1.477,-0.846 1.35,-0.848 1.287,-0.849C1.258,-0.977 1.317,-1.184 1.157,-1.237C0.88,-1.301 0.588,-1.266 0.315,-1.199C0.192,-0.751 0.252,-0.277 0.316,0.176C0.562,0.303 0.847,0.267 1.113,0.249C1.341,0.234 1.3,-0.046 1.314,-0.204C1.378,-0.204 1.505,-0.203 1.568,-0.203C1.557,-0.012 1.58,0.21 1.446,0.366C1.224,0.528 0.931,0.479 0.674,0.488C0.444,0.488 0.13,0.451 0.058,0.188C-0.047,-0.196 -0.01,-0.602 0,-0.995" style="fill:rgb(149,144,142);fill-rule:nonzero;"/>
    </g>
    <g transform="matrix(-8.26203,1.08778,1.08778,8.26203,121.419,383.665)">
        <path d="M0.138,-1.953C0.072,-1.946 -0.058,-1.933 -0.124,-1.927C-0.037,-1.279 0.038,-0.63 0.138,0.016C0.2,0.005 0.325,-0.018 0.387,-0.029C0.313,-0.672 0.22,-1.312 0.138,-1.953" style="fill:rgb(149,144,142);fill-rule:nonzero;"/>
    </g>
    <g transform="matrix(8.33333,0,0,8.33333,129.313,381.538)">
        <path d="M0,-1.398C-0.098,-0.943 -0.096,-0.466 -0.005,-0.009C0.277,0.106 0.594,0.077 0.89,0.046C1.126,0.016 1.078,-0.285 1.099,-0.455C1.08,-0.768 1.158,-1.101 1.016,-1.393C0.686,-1.49 0.332,-1.484 0,-1.398M0.007,-1.618C0.353,-1.716 0.736,-1.718 1.079,-1.608C1.326,-1.502 1.324,-1.189 1.341,-0.962C1.34,-0.604 1.386,-0.217 1.225,0.116C1.022,0.32 0.701,0.288 0.437,0.295C0.208,0.283 -0.102,0.293 -0.223,0.054C-0.356,-0.294 -0.297,-0.677 -0.309,-1.04C-0.325,-1.271 -0.23,-1.539 0.007,-1.618" style="fill:rgb(149,144,142);fill-rule:nonzero;"/>
    </g>
    <g transform="matrix(8.33333,0,0,8.33333,165.058,382.039)">
        <path d="M0,-1.51C-0.017,-1.008 -0.006,-0.505 -0.007,-0.002C0.276,-0.013 0.565,0.026 0.844,-0.037C1.143,-0.114 1.09,-0.497 1.102,-0.733C1.083,-0.972 1.153,-1.298 0.928,-1.455C0.629,-1.547 0.308,-1.486 0,-1.51M-0.268,-1.729C0.156,-1.713 0.592,-1.781 1.008,-1.674C1.375,-1.531 1.347,-1.066 1.352,-0.741C1.332,-0.417 1.359,0.066 0.969,0.178C0.566,0.271 0.146,0.206 -0.264,0.225C-0.277,-0.426 -0.27,-1.078 -0.268,-1.729" style="fill:rgb(149,144,142);fill-rule:nonzero;"/>
    </g>
    <g transform="matrix(8.33333,0,0,8.33333,182.248,383.842)">
        <path d="M0,-1.941C0.422,-1.953 0.844,-1.946 1.267,-1.946C1.267,-1.89 1.266,-1.778 1.266,-1.722C0.934,-1.719 0.6,-1.724 0.267,-1.718C0.266,-1.519 0.263,-1.319 0.259,-1.119C0.585,-1.096 0.913,-1.131 1.238,-1.095C1.236,-1.044 1.229,-0.942 1.226,-0.891C0.906,-0.882 0.586,-0.89 0.266,-0.884C0.262,-0.662 0.263,-0.441 0.269,-0.218C0.601,-0.219 0.934,-0.219 1.267,-0.219C1.267,-0.163 1.266,-0.049 1.266,0.007C0.846,0.008 0.425,0.012 0.004,0.005C-0.006,-0.644 0.004,-1.293 0,-1.941" style="fill:rgb(149,144,142);fill-rule:nonzero;"/>
    </g>
    <g transform="matrix(8.33333,0,0,8.33333,199.373,376.858)">
        <path d="M0,-0.247C-0.152,-0.513 -0.124,-1.018 0.242,-1.087C0.529,-1.14 0.834,-1.15 1.116,-1.067C1.33,-0.997 1.345,-0.741 1.357,-0.552L1.102,-0.552C1.083,-0.652 1.067,-0.751 1.05,-0.848C0.778,-0.908 0.459,-0.956 0.209,-0.809C0.127,-0.67 0.178,-0.504 0.186,-0.352C0.53,-0.219 0.926,-0.334 1.255,-0.154C1.429,0.031 1.389,0.32 1.355,0.551C1.306,0.784 1.037,0.852 0.829,0.852C0.572,0.846 0.277,0.903 0.055,0.743C-0.112,0.619 -0.081,0.392 -0.105,0.212C-0.039,0.212 0.092,0.211 0.158,0.21C0.169,0.35 0.134,0.568 0.313,0.615C0.533,0.639 0.758,0.639 0.98,0.613C1.196,0.531 1.14,0.23 1.096,0.056C0.761,-0.142 0.258,0.117 0,-0.247" style="fill:rgb(149,144,142);fill-rule:nonzero;"/>
    </g>
    <g transform="matrix(-8.26813,1.04039,1.04039,8.26813,220.419,383.722)">
        <path d="M0.127,-1.963C0.066,-1.955 -0.057,-1.939 -0.119,-1.931C-0.039,-1.285 0.04,-0.638 0.127,0.007C0.188,-0 0.309,-0.017 0.37,-0.025C0.292,-0.671 0.208,-1.317 0.127,-1.963" style="fill:rgb(149,144,142);fill-rule:nonzero;"/>
    </g>
    <g transform="matrix(8.33333,0,0,8.33333,226.383,381.036)">
        <path d="M0,-1.247C0.039,-1.41 0.167,-1.545 0.333,-1.578C0.667,-1.649 1.022,-1.648 1.355,-1.568C1.579,-1.488 1.572,-1.214 1.594,-1.02C1.529,-1.018 1.4,-1.015 1.335,-1.013C1.316,-1.125 1.3,-1.234 1.283,-1.344C0.96,-1.406 0.598,-1.461 0.291,-1.316C0.218,-1.193 0.221,-1.046 0.215,-0.907C0.212,-0.591 0.194,-0.269 0.266,0.043C0.587,0.162 0.963,0.171 1.287,0.058C1.319,-0.1 1.332,-0.261 1.332,-0.422C1.128,-0.424 0.923,-0.428 0.719,-0.426C0.72,-0.483 0.722,-0.596 0.723,-0.653C1.01,-0.654 1.297,-0.656 1.584,-0.647C1.568,-0.349 1.645,0.03 1.409,0.258C1.075,0.402 0.684,0.368 0.333,0.316C0.033,0.275 -0.024,-0.065 -0.037,-0.311C-0.046,-0.622 -0.07,-0.941 0,-1.247" style="fill:rgb(149,144,142);fill-rule:nonzero;"/>
    </g>
    <g transform="matrix(8.33333,0,0,8.33333,246.044,383.947)">
        <path d="M0,-1.961C0.13,-1.96 0.261,-1.957 0.392,-1.951C0.723,-1.391 1.063,-0.836 1.412,-0.286C1.4,-0.844 1.406,-1.401 1.408,-1.958C1.472,-1.957 1.602,-1.956 1.667,-1.955C1.664,-1.305 1.669,-0.656 1.665,-0.006C1.541,-0.006 1.417,-0.005 1.295,-0.001C0.939,-0.545 0.618,-1.11 0.263,-1.655C0.255,-1.107 0.264,-0.559 0.259,-0.011C0.195,-0.009 0.068,-0.003 0.005,0C-0.01,-0.654 -0.001,-1.308 0,-1.961" style="fill:rgb(149,144,142);fill-rule:nonzero;"/>
    </g>
    <g transform="matrix(8.33333,0,0,8.33333,283.194,383.916)">
        <path d="M0,-1.955L0.249,-1.955C0.247,-1.304 0.252,-0.653 0.246,-0.001C0.185,-0.001 0.063,0 0.001,0C-0.004,-0.652 -0.001,-1.303 0,-1.955" style="fill:rgb(149,144,142);fill-rule:nonzero;"/>
    </g>
    <g transform="matrix(8.33333,0,0,8.33333,292.603,383.885)">
        <path d="M0,-1.949C0.123,-1.951 0.248,-1.953 0.372,-1.955C0.722,-1.404 1.064,-0.848 1.394,-0.283C1.418,-0.838 1.4,-1.393 1.405,-1.948C1.47,-1.948 1.602,-1.949 1.667,-1.949C1.665,-1.297 1.675,-0.645 1.662,0.006C1.534,0.002 1.406,-0.001 1.28,-0.004C0.944,-0.565 0.592,-1.116 0.257,-1.677C0.26,-1.117 0.266,-0.556 0.253,0.005C0.19,0.004 0.064,0.001 0,0C-0.002,-0.65 0,-1.3 0,-1.949" style="fill:rgb(149,144,142);fill-rule:nonzero;"/>
    </g>
    <g transform="matrix(8.33333,0,0,8.33333,315.967,381.877)">
        <path d="M0,-1.484C-0.007,-0.984 -0.003,-0.484 -0.001,0.016C0.286,0.008 0.579,0.047 0.862,-0.022C1.1,-0.079 1.086,-0.375 1.11,-0.565C1.105,-0.84 1.144,-1.157 0.99,-1.397C0.69,-1.555 0.326,-1.461 0,-1.484M-0.264,0.239C-0.257,-0.414 -0.288,-1.068 -0.248,-1.72C0.13,-1.693 0.512,-1.739 0.889,-1.687C1.148,-1.654 1.324,-1.41 1.334,-1.159C1.353,-0.793 1.387,-0.408 1.259,-0.056C1.188,0.152 0.955,0.226 0.756,0.237C0.416,0.255 0.076,0.243 -0.264,0.239" style="fill:rgb(149,144,142);fill-rule:nonzero;"/>
    </g>
    <g transform="matrix(8.33333,0,0,8.33333,333.908,384.203)">
        <path d="M0,-1.988C0.064,-1.988 0.192,-1.988 0.257,-1.987C0.278,-1.435 0.215,-0.877 0.294,-0.327C0.595,-0.214 0.956,-0.21 1.254,-0.335C1.332,-0.883 1.27,-1.439 1.291,-1.991C1.357,-1.989 1.489,-1.985 1.554,-1.984C1.551,-1.529 1.556,-1.076 1.554,-0.622C1.549,-0.42 1.505,-0.147 1.278,-0.084C0.987,0.003 0.672,-0.016 0.374,-0.054C0.166,-0.082 -0.003,-0.261 0.002,-0.474C-0.006,-0.979 0.003,-1.483 0,-1.988" style="fill:rgb(149,144,142);fill-rule:nonzero;"/>
    </g>
    <g transform="matrix(8.33333,0,0,8.33333,355.06,383.453)">
        <path d="M0,-1.838C0.317,-1.949 0.677,-1.942 1.001,-1.858C1.208,-1.779 1.214,-1.529 1.241,-1.343C1.151,-1.346 1.062,-1.349 0.973,-1.35C0.959,-1.444 0.946,-1.537 0.934,-1.63C0.665,-1.711 0.35,-1.736 0.093,-1.61C0.012,-1.484 0.04,-1.287 0.082,-1.144C0.394,-1.008 0.758,-1.115 1.069,-0.977C1.31,-0.85 1.255,-0.535 1.244,-0.31C1.238,-0.074 1.003,0.052 0.793,0.055C0.504,0.059 0.186,0.111 -0.075,-0.042C-0.232,-0.175 -0.205,-0.401 -0.222,-0.583C-0.157,-0.581 -0.027,-0.577 0.039,-0.574C0.061,-0.434 0.004,-0.215 0.195,-0.176C0.43,-0.162 0.68,-0.133 0.909,-0.2C1.053,-0.321 1.042,-0.58 0.969,-0.731C0.657,-0.935 0.191,-0.692 -0.087,-0.989C-0.268,-1.228 -0.266,-1.658 0,-1.838" style="fill:rgb(149,144,142);fill-rule:nonzero;"/>
    </g>
    <g transform="matrix(8.33333,0,0,8.33333,370.509,383.872)">
        <path d="M0,-1.949C0.493,-1.953 0.988,-1.947 1.482,-1.953C1.486,-1.871 1.492,-1.789 1.498,-1.706C1.29,-1.701 1.081,-1.694 0.873,-1.697C0.872,-1.13 0.875,-0.563 0.872,0.004L0.626,0.004C0.622,-0.563 0.625,-1.129 0.624,-1.696C0.418,-1.699 0.213,-1.7 0.009,-1.698C0.007,-1.761 0.002,-1.886 0,-1.949" style="fill:rgb(149,144,142);fill-rule:nonzero;"/>
    </g>
    <g transform="matrix(8.33333,0,0,8.33333,390.959,381.898)">
        <path d="M0,-1.485C-0.004,-1.245 -0.004,-1.003 0,-0.762C0.303,-0.759 0.61,-0.741 0.909,-0.801C1.037,-0.998 1.015,-1.248 0.926,-1.454C0.619,-1.509 0.309,-1.485 0,-1.485M-0.262,-1.711C0.105,-1.708 0.474,-1.733 0.841,-1.697C1.047,-1.689 1.224,-1.513 1.23,-1.305C1.25,-1.076 1.272,-0.784 1.038,-0.653C1.312,-0.435 1.199,-0.065 1.216,0.236C1.154,0.24 1.03,0.245 0.968,0.248C0.946,0.029 0.982,-0.198 0.924,-0.411C0.908,-0.513 0.787,-0.523 0.707,-0.531C0.471,-0.544 0.235,-0.531 -0.001,-0.533C-0.001,-0.274 -0.001,-0.015 -0.009,0.244C-0.072,0.243 -0.197,0.242 -0.259,0.242C-0.266,-0.409 -0.26,-1.06 -0.262,-1.711" style="fill:rgb(149,144,142);fill-rule:nonzero;"/>
    </g>
    <g transform="matrix(-8.26196,1.08833,1.08833,8.26196,411.365,383.719)">
        <path d="M0.125,-1.965C0.061,-1.956 -0.068,-1.936 -0.132,-1.926C-0.044,-1.283 0.034,-0.639 0.125,0.003C0.188,-0.004 0.314,-0.017 0.377,-0.024C0.305,-0.673 0.212,-1.319 0.125,-1.965" style="fill:rgb(149,144,142);fill-rule:nonzero;"/>
    </g>
    <g transform="matrix(8.33333,0,0,8.33333,423.53,381.771)">
        <path d="M0,-1.443C-0.132,-1.082 -0.261,-0.719 -0.391,-0.357C-0.133,-0.36 0.126,-0.361 0.384,-0.359C0.259,-0.722 0.118,-1.078 0,-1.443M-0.173,-1.695C-0.07,-1.698 0.034,-1.702 0.139,-1.707C0.409,-1.064 0.633,-0.401 0.882,0.251C0.818,0.254 0.692,0.261 0.628,0.264C0.567,0.126 0.511,-0.013 0.462,-0.154C0.156,-0.152 -0.15,-0.149 -0.455,-0.156C-0.515,-0.021 -0.57,0.118 -0.622,0.258C-0.71,0.256 -0.797,0.256 -0.884,0.255C-0.656,-0.398 -0.412,-1.046 -0.173,-1.695" style="fill:rgb(149,144,142);fill-rule:nonzero;"/>
    </g>
    <g transform="matrix(8.33333,0,0,8.33333,436.692,383.947)">
        <path d="M0,-1.958C0.062,-1.958 0.187,-1.959 0.249,-1.959C0.252,-1.391 0.244,-0.823 0.253,-0.255C0.579,-0.258 0.907,-0.257 1.233,-0.257C1.23,-0.172 1.227,-0.086 1.223,0.001C0.816,-0.01 0.409,-0.001 0.002,-0.005C-0.004,-0.656 -0.001,-1.307 0,-1.958" style="fill:rgb(149,144,142);fill-rule:nonzero;"/>
    </g>
    <g transform="matrix(8.33333,0,0,8.33333,478.123,384.032)">
        <path d="M0,-1.969C0.063,-1.969 0.187,-1.969 0.25,-1.968C0.254,-1.401 0.248,-0.835 0.252,-0.267L1.221,-0.267C1.226,-0.188 1.232,-0.108 1.239,-0.028C0.827,0 0.414,-0.019 0.002,-0.016C-0.002,-0.667 0.001,-1.318 0,-1.969" style="fill:rgb(149,144,142);fill-rule:nonzero;"/>
    </g>
    <g transform="matrix(8.33333,0,0,8.33333,496.383,382.107)">
        <path d="M0,-1.51C-0.006,-1.012 0.001,-0.514 -0.004,-0.015C0.318,-0.028 0.67,0.05 0.971,-0.096C1.134,-0.265 1.091,-0.531 1.11,-0.746C1.086,-0.977 1.147,-1.268 0.968,-1.448C0.66,-1.564 0.321,-1.497 0,-1.51M-0.262,-1.736C0.107,-1.734 0.477,-1.757 0.846,-1.722C1.036,-1.709 1.23,-1.592 1.286,-1.401C1.406,-1.015 1.381,-0.596 1.302,-0.204C1.269,-0.009 1.111,0.158 0.913,0.187C0.524,0.247 0.13,0.206 -0.261,0.215C-0.263,-0.436 -0.261,-1.086 -0.262,-1.736" style="fill:rgb(149,144,142);fill-rule:nonzero;"/>
    </g>
    <g transform="matrix(8.33333,0,0,8.33333,516.994,372.757)">
        <path d="M0,0.724C0.257,0.722 0.515,0.72 0.772,0.724C0.652,0.363 0.509,0.012 0.394,-0.351C0.249,0.002 0.13,0.365 0,0.724M-0.496,1.327C-0.257,0.68 -0.024,0.032 0.217,-0.614C0.323,-0.616 0.431,-0.618 0.538,-0.62C0.791,0.031 1.037,0.686 1.27,1.344C1.176,1.337 1.083,1.329 0.99,1.323C0.948,1.191 0.904,1.061 0.858,0.931C0.558,0.936 0.257,0.916 -0.042,0.935C-0.155,1.031 -0.168,1.209 -0.229,1.342C-0.319,1.334 -0.408,1.332 -0.496,1.327" style="fill:rgb(149,144,142);fill-rule:nonzero;"/>
    </g>
    <g transform="matrix(-8.29329,-0.815976,-0.815976,8.29329,454.584,386.869)">
        <path d="M0.28,-0.632C0.217,-0.638 0.092,-0.653 0.029,-0.659C-0.006,-0.438 -0.086,-0.017 0.28,-0.071C0.254,-0.122 0.2,-0.227 0.173,-0.28C0.243,-0.386 0.27,-0.509 0.28,-0.632" style="fill:rgb(149,144,142);fill-rule:nonzero;"/>
    </g>
    <g transform="matrix(8.33333,0,0,8.33333,29.8459,351.141)">
        <path d="M0,-13.536C2.035,-13.853 4.101,-13.839 6.154,-13.841C7.614,-13.843 9.086,-13.846 10.527,-13.586C11.181,-13.456 11.862,-13.301 12.406,-12.891C12.987,-12.443 13.328,-11.751 13.508,-11.054C13.665,-10.275 13.641,-9.475 13.667,-8.685C12.593,-8.66 11.519,-8.682 10.445,-8.674C10.117,-8.683 9.788,-8.653 9.461,-8.692C9.455,-9.059 9.41,-9.451 9.181,-9.753C9.001,-9.991 8.709,-10.105 8.429,-10.178C7.929,-10.307 7.408,-10.281 6.897,-10.284C5.465,-10.282 4.033,-10.292 2.603,-10.253C2.159,-10.25 1.685,-10.202 1.32,-9.925C0.834,-9.588 0.714,-8.967 0.682,-8.415C0.615,-7.281 0.633,-6.142 0.715,-5.01C0.739,-4.545 0.903,-4.063 1.272,-3.759C1.719,-3.382 2.33,-3.296 2.896,-3.295C4.599,-3.296 6.3,-3.295 8.003,-3.296C8.488,-3.295 9.023,-3.43 9.329,-3.836C9.633,-4.224 9.668,-4.737 9.649,-5.211C11.047,-5.211 12.445,-5.209 13.843,-5.212C13.857,-4.279 13.854,-3.333 13.638,-2.42C13.524,-1.971 13.377,-1.502 13.034,-1.171C12.362,-0.474 11.385,-0.211 10.462,-0.038C8.721,0.245 6.951,0.225 5.192,0.26C3.35,0.228 1.482,0.317 -0.326,-0.103C-0.934,-0.271 -1.571,-0.446 -2.058,-0.868C-2.822,-1.547 -3.286,-2.525 -3.391,-3.537C-3.643,-5.623 -3.578,-7.734 -3.429,-9.826C-3.395,-10.511 -3.146,-11.171 -2.825,-11.77C-2.25,-12.788 -1.123,-13.359 0,-13.536" style="fill:rgb(159,185,207);fill-rule:nonzero;"/>
    </g>
    <g transform="matrix(8.33333,0,0,8.33333,204.096,323.317)">
        <path d="M0,-6.887C-0.559,-6.804 -1.086,-6.385 -1.207,-5.819C-1.36,-5.19 -1.381,-4.539 -1.408,-3.895C-1.424,-3.129 -1.456,-2.357 -1.331,-1.597C-1.261,-1.213 -1.159,-0.815 -0.903,-0.511C-0.734,-0.309 -0.475,-0.221 -0.227,-0.162C0.297,-0.045 0.837,-0.024 1.373,-0.009C2.877,0.009 4.381,0.03 5.886,0.042C6.427,0.029 6.977,0.043 7.508,-0.084C8.021,-0.21 8.419,-0.645 8.549,-1.151C8.756,-1.924 8.767,-2.732 8.785,-3.525C8.784,-4.219 8.801,-4.921 8.658,-5.604C8.564,-6.075 8.254,-6.522 7.789,-6.685C7.201,-6.88 6.576,-6.93 5.96,-6.927C3.974,-6.942 1.983,-7.013 0,-6.887M-0.366,-10.422C1.371,-10.518 3.111,-10.5 4.85,-10.502C6.083,-10.5 7.317,-10.519 8.548,-10.422C9.245,-10.363 9.957,-10.297 10.608,-10.022C11.44,-9.691 12.145,-9.039 12.498,-8.211C12.914,-7.301 12.899,-6.281 12.946,-5.303C12.957,-3.629 13.064,-1.947 12.878,-0.278C12.736,0.755 12.362,1.816 11.582,2.542C10.888,3.192 9.936,3.496 9.001,3.549C6.704,3.632 4.406,3.581 2.109,3.576C1.176,3.569 0.243,3.57 -0.689,3.546C-1.377,3.515 -2.081,3.547 -2.744,3.333C-3.593,3.083 -4.323,2.503 -4.814,1.774C-5.117,1.29 -5.256,0.726 -5.362,0.172C-5.58,-1.048 -5.6,-2.291 -5.6,-3.526C-5.612,-5.131 -5.653,-6.795 -5.027,-8.307C-4.605,-9.284 -3.646,-9.956 -2.621,-10.173C-1.878,-10.321 -1.121,-10.38 -0.366,-10.422" style="fill:rgb(159,185,207);fill-rule:nonzero;"/>
    </g>
    <g transform="matrix(8.33333,0,0,8.33333,359.659,322.361)">
        <path d="M0,-6.668C-0.002,-4.447 -0.001,-2.225 0,-0.005C2.545,-0.002 5.091,-0.002 7.637,-0.005C8.256,-0.024 8.986,-0.098 9.393,-0.627C9.781,-1.171 9.846,-1.869 9.843,-2.518C9.833,-3.529 9.898,-4.562 9.63,-5.548C9.482,-6.089 8.975,-6.451 8.446,-6.567C7.768,-6.73 7.064,-6.65 6.375,-6.669C4.25,-6.669 2.125,-6.671 0,-6.668M-4.2,-10.226C0.041,-10.227 4.281,-10.227 8.521,-10.227C9.252,-10.218 9.99,-10.219 10.713,-10.105C11.549,-9.882 12.405,-9.487 12.905,-8.748C13.581,-7.804 13.886,-6.642 13.944,-5.493C14.059,-3.913 14.084,-2.322 13.971,-0.741C13.852,0.537 13.434,1.926 12.342,2.708C11.236,3.49 9.826,3.538 8.522,3.55C4.281,3.559 0.041,3.552 -4.2,3.553L-4.2,-10.226" style="fill:rgb(159,185,207);fill-rule:nonzero;"/>
    </g>
    <g transform="matrix(-7.97096,2.4307,2.4307,7.97096,543.468,344.311)">
        <path d="M2.103,-14.08C0.759,-13.686 -0.576,-13.266 -1.916,-12.86C-0.578,-8.466 0.761,-4.073 2.103,0.32C3.442,-0.09 4.783,-0.489 6.119,-0.91C4.779,-5.299 3.44,-9.689 2.103,-14.08" style="fill:rgb(159,185,207);fill-rule:nonzero;"/>
    </g>
</svg>
