<svg xmlns="http://www.w3.org/2000/svg" xml:space="preserve" style="fill-rule:evenodd;clip-rule:evenodd;stroke-linejoin:round;stroke-miterlimit:2" viewBox="0 0 675 160"><path d="M0-7.615c-1.412 0-2.825.003-4.237-.004-.21-.001-.296.064-.291.316q.02.98 0 1.96c-.004.24.08.305.277.305q4.237-.005 8.474.001c.203.001.279-.07.275-.303-.01-.645-.003-1.29-.004-1.934 0-.336-.005-.341-.304-.341zm2.695 5.194c.071.057.149.103.21.171Q4.714-.23 6.52 1.796c.066.075.136.15.184.239.118.216.028.418-.199.421-.733.012-1.467.02-2.2.006-.282-.005-.524-.151-.729-.381C2.268.609.955-.856-.352-2.328a.5.5 0 0 0-.414-.195c-1.167.007-2.335.008-3.503-.005-.213-.002-.258.069-.26.298-.006.846.055 1.695-.035 2.54-.109 1.03-.825 1.905-1.73 2.131-.368.092-.497-.021-.497-.439q-.001-4.928.001-9.856c.001-1.085.63-1.978 1.567-2.225.182-.048.376-.055.564-.055q4.403-.012 8.805-.013c.88.001 1.662.281 2.24 1.077q.37.51.368 1.172c-.002 1.06.003 2.119-.002 3.179-.004 1.177-.884 2.178-1.933 2.197-.616.012-1.231.003-1.847.003h-.228z" style="fill:#1a2744;fill-rule:nonzero" transform="translate(319.95 84.577)scale(8.33333)"/><path d="M0-7.613c-1.428 0-2.856.003-4.284-.004-.182-.001-.252.054-.249.268q.014 1.02.001 2.04c-.003.204.051.278.242.278q4.284-.008 8.568-.001c.174.001.232-.058.229-.257-.009-.68-.013-1.36.002-2.04.005-.245-.073-.29-.272-.289-1.412.009-2.825.005-4.237.005m.068-2.524q2.166-.001 4.332.001c1.17.002 2.059.765 2.307 1.987.036.179.049.368.05.552q.005 4.81.007 9.619c0 .421-.102.509-.479.418C5.277 2.194 4.522 1.17 4.506.01a96 96 0 0 1 0-2.279c.002-.194-.048-.26-.227-.259q-4.297.008-8.594-.001c-.188 0-.22.081-.219.266.006.759.011 1.519-.004 2.279-.023 1.172-.743 2.152-1.755 2.418-.393.103-.489.021-.489-.421 0-2.879.003-5.759-.001-8.638-.002-.826.117-1.615.502-2.332.423-.787 1.035-1.193 1.875-1.184 1.491.016 2.982.005 4.474.004" style="fill:#1a2744;fill-rule:nonzero" transform="translate(451.526 84.577)scale(8.33333)"/><path d="M0-12.641q2.214-.001 4.427.001c.276 0 .552.016.82.098.87.264 1.268.972 1.429 1.903.06.348.077.702.078 1.054q.006 3.419 0 6.837C6.752-1.522 6.199-.575 5.277-.194a2.5 2.5 0 0 1-.384.122c-.284.068-.398-.037-.398-.362v-9.328c0-.355-.001-.355-.328-.355-.923 0-1.847.007-2.77-.005-.232-.004-.297.085-.297.337.006 2.95.004 5.9.004 8.85 0 .214.001.427-.125.606-.128.184-.294.289-.507.29-.308 0-.615.007-.923.001-.452-.008-.693-.283-.693-.796q-.002-3.697-.001-7.393c0-.539-.006-1.078.003-1.617.003-.207-.061-.278-.247-.277q-1.444.014-2.888-.001c-.211-.002-.267.078-.267.307.006 3.135.004 6.271.004 9.407 0 .357-.06.411-.38.344-1.051-.219-1.84-1.195-1.855-2.401a228 228 0 0 1 .009-7.392 3.9 3.9 0 0 1 .403-1.695c.416-.827 1.088-1.092 1.889-1.09 1.491.004 2.983.001 4.474.001" style="fill:#1a2744;fill-rule:nonzero" transform="translate(188.392 105.443)scale(8.33333)"/><path d="M0 .042c1.614 1.849 3.219 3.686 4.823 5.525.088.101.181.201.249.318.127.221.028.438-.207.441-.733.009-1.468.017-2.201 0-.272-.006-.509-.15-.706-.377C.826 4.644-.313 3.346-1.443 2.038c-.123-.143-.18-.144-.304-.001-1.12 1.294-2.25 2.577-3.371 3.87-.253.291-.545.432-.904.429-.647-.006-1.294-.005-1.941-.005-.138 0-.278.006-.341-.166-.07-.191.043-.317.148-.438q1.653-1.897 3.307-3.792C-4.348 1.36-3.85.78-3.34.215c.127-.141.119-.212-.002-.35-1.576-1.795-3.147-3.597-4.719-5.397q-.034-.038-.066-.076c-.111-.135-.255-.262-.175-.478s.263-.156.414-.157c.623-.008 1.247-.008 1.87-.012.357-.002.651.142.903.432C-4-4.536-2.874-3.26-1.762-1.97c.147.169.211.137.34-.013 1.12-1.294 2.249-2.578 3.371-3.87a1.09 1.09 0 0 1 .867-.401l1.941.009c.133.001.283-.023.347.154.066.184-.031.319-.139.443l-2.53 2.901z" style="fill:#1a2744;fill-rule:nonzero" transform="translate(595.967 52.294)scale(8.33333)"/><path d="M0 .787c-1.633 0-3.266.004-4.899-.005-.203-.001-.287.053-.27.293.017.237.008.477.001.715-.013.428-.255.725-.633.735q-.9.02-1.799.001c-.332-.007-.592-.238-.624-.6-.051-.595-.098-1.2.042-1.789.268-1.138 1.138-1.867 2.297-1.873a783 783 0 0 1 8.804.001c1.169.007 2.021.749 2.294 1.913q.018.076.029.154c.045.351-.031.454-.343.455H0" style="fill:#1a2744;fill-rule:nonzero" transform="translate(68.95 14.56)scale(8.33333)"/><path d="M0 4.228c-1.53 0-3.061.022-4.591-.007-1.232-.023-2.171-1.139-2.176-2.517q-.004-.464.008-.927c.014-.516.272-.795.73-.796q.828-.004 1.657 0c.434.002.686.281.696.769.005.229.013.46-.002.688-.015.23.074.288.263.285.576-.009 1.152-.003 1.727-.003h8.023c.405 0 .473.095.389.537C6.52 3.335 5.631 4.203 4.638 4.22c-1.545.025-3.092.007-4.638.007z" style="fill:#1a2744;fill-rule:nonzero" transform="translate(56.526 69.844)scale(8.33333)"/><path d="M1.372 2.517h-7.335c-.574 0-.795-.249-.796-.895 0-.309-.006-.619.005-.927.014-.392.247-.655.594-.689q.071-.007.142-.007L6.05-.002c.239-.001.454.05.61.274.201.288.205 1.673.003 1.966-.153.224-.363.282-.605.281-1.562-.004-3.124-.002-4.686-.002" style="fill:#1a2744;fill-rule:nonzero" transform="translate(56.367 42.144)scale(8.33333)"/><path d="M0-2.687V.701c0 .071.004.143-.004.212-.015.131-.106.175-.204.172-.1-.003-.182-.055-.18-.193q.002-.318 0-.636-.003-1.801.002-3.603c0-.131-.055-.306.11-.365.181-.064.283.08.355.231.31.652.613 1.309.918 1.963l.11.236c.082-.032.092-.119.122-.183q.426-.911.848-1.826c.037-.078.07-.158.113-.231.077-.132.175-.245.329-.193.147.05.128.204.128.335q0 2.08.002 4.159c.001.173-.032.31-.209.306-.167-.004-.186-.143-.186-.3q.003-1.576.002-3.153v-.295c-.115.027-.121.131-.154.199-.268.558-.529 1.12-.794 1.68-.043.091-.08.203-.2.192-.102-.009-.134-.11-.173-.195L.044-2.698z" style="fill:#1e2c49;fill-rule:nonzero" transform="translate(432.6 149.743)scale(8.33333)"/><path d="M0 2.54V1.281Q.001.195-.001-.89c-.001-.156.037-.256.196-.257.144-.002.192.074.192.227q-.003 2.172 0 4.343c0 .107-.021.188-.121.227-.099.038-.175-.007-.23-.084a1.6 1.6 0 0 1-.146-.269C-.626 2.181-1.139 1.064-1.658-.064c-.07.06-.043.133-.043.192-.002 1.086 0 2.171-.002 3.257 0 .23-.108.327-.27.26-.13-.054-.113-.171-.113-.285V-.373q.001-.266-.001-.53c-.001-.093.004-.182.091-.224.095-.045.186-.023.262.056.1.105.157.241.217.375l1.47 3.243z" style="fill:#1a2744;fill-rule:nonzero" transform="translate(42.01 128.26)scale(8.33333)"/><path d="M0-2.591V.635c0 .071-.004.142.001.212.012.164-.056.259-.198.263-.151.004-.192-.103-.191-.262.005-.803.002-1.606.002-2.409l.001-1.854c0-.102-.026-.224.094-.27.119-.045.221.002.29.113q.107.174.192.362.684 1.503 1.367 3.008c.034.074.048.165.144.228v-.745q.002-1.364-.001-2.727c-.001-.156.028-.256.192-.253.159.002.195.1.195.256q-.003 2.145 0 4.29c0 .115-.015.207-.127.25-.109.042-.188-.012-.246-.1a2 2 0 0 1-.154-.295L.042-2.599z" style="fill:#1a2744;fill-rule:nonzero" transform="translate(67.2 149.527)scale(8.33333)"/><path d="M0-2.193q.001.383-.001.766c0 .095 0 .176.119.173.315-.01.632.012.943-.025.419-.049.638-.406.625-.955-.012-.488-.247-.799-.659-.835-.29-.026-.582-.013-.873-.027-.13-.006-.159.06-.156.19.006.237.002.475.002.713M1.159-.924c.285.612.564 1.21.841 1.81.036.077.085.149.076.245-.01.104-.075.156-.149.187-.098.041-.169-.023-.214-.114q-.175-.358-.34-.722C1.2.107 1.021-.265.861-.647.788-.821.699-.89.522-.886.001-.873.001-.883 0-.308c0 .45-.003.9.002 1.35.002.155-.037.269-.186.273-.159.005-.208-.107-.208-.278q.004-2.13.002-4.261c0-.129.003-.271.158-.267.471.01.946-.061 1.414.04.575.125.867.503.886 1.115.024.794-.208 1.194-.803 1.383-.029.009-.058.016-.106.029" style="fill:#1e2c49;fill-rule:nonzero" transform="translate(586.292 147.827)scale(8.33333)"/><path d="M0 .49C0-.046.001-.417-.001-.788c-.001-.07-.016-.14-.027-.21q-.113-.722-.829-.703c-.474.012-.758.263-.79.751a20 20 0 0 0 0 2.54c.031.482.313.743.762.758q.738.027.856-.701C.042 1.208-.015.765 0 .49M.389.421C.366.792.433 1.278.35 1.76c-.095.549-.434.903-.927.966a2 2 0 0 1-.566-.006c-.49-.08-.83-.451-.883-1.011-.083-.87-.07-1.746-.017-2.614.055-.895.682-1.356 1.488-1.177.609.135.923.555.942 1.28.01.37.002.741.002 1.223" style="fill:#1e2c49;fill-rule:nonzero" transform="translate(120.01 136.227)scale(8.33333)"/><path d="M0 .06c.023.449-.032.901.039 1.349.075.469.359.703.84.692.452-.01.741-.267.774-.742a19 19 0 0 0 .001-2.566c-.033-.485-.322-.734-.797-.742-.477-.007-.749.227-.822.713C-.03-.806.022-.372 0 .06m-.382.003V-.969c.003-1.238.817-1.479 1.506-1.356.584.103.893.466.929 1.171.045.869.068 1.745-.019 2.614-.058.588-.427.958-.954 1.021a1.7 1.7 0 0 1-.611-.024C-.072 2.32-.359 1.894-.379 1.2-.389.821-.381.442-.381.063z" style="fill:#1e2c49;fill-rule:nonzero" transform="translate(476.084 138.285)scale(8.33333)"/><path d="M0 .134q-.001.57.001 1.139c.001.07.016.14.027.21.076.47.359.704.839.693.453-.01.743-.267.776-.741q.087-1.283 0-2.567c-.032-.485-.321-.734-.796-.742-.477-.008-.749.226-.823.712C-.041-.732.012-.298 0 .134m-.393.022c0-.353-.003-.706.001-1.058.012-.991.639-1.549 1.513-1.351.553.125.86.448.907 1.077.069.904.076 1.815-.006 2.719-.052.573-.424.947-.936 1.011a1.7 1.7 0 0 1-.635-.024q-.813-.217-.841-1.263C-.399.897-.391.526-.391.156z" style="fill:#1e2c49;fill-rule:nonzero" transform="translate(547.592 137.66)scale(8.33333)"/><path d="M0-3.469c-.241.89-.458 1.701-.682 2.509-.042.152.039.139.121.139.362 0 .725-.01 1.087.004.177.007.174-.075.135-.218q-.21-.768-.418-1.538zm.005-.708c.185-.003.234.146.276.304l.957 3.504c.068.253.128.508.205.757.051.164-.021.228-.138.274-.123.049-.196-.009-.232-.141C1.002.26.924.002.864-.262.834-.396.784-.451.656-.449q-.662.01-1.325.001c-.115-.002-.164.043-.193.169-.061.264-.144.521-.21.783-.037.148-.108.206-.243.157-.13-.047-.167-.129-.125-.282q.602-2.164 1.193-4.333c.042-.151.12-.218.252-.223" style="fill:#1e2c49;fill-rule:nonzero" transform="translate(186.742 153.143)scale(8.33333)"/><path d="M0-.034c0-.688.006-1.377-.003-2.065-.003-.238.067-.332.286-.328.631.011 1.262.005 1.893.003.126-.001.243-.003.238.197-.004.186-.112.206-.242.205-.528-.001-1.057.006-1.585-.004-.157-.003-.201.053-.197.224q.012.702 0 1.403c-.002.151.043.201.177.195.228-.01.457 0 .686-.004.118-.001.202.035.206.186.004.158-.09.191-.203.192C1.02.172.783.178.547.168.419.162.388.215.39.349c.006.485.009.971-.001 1.456-.003.166.063.181.182.18.497-.005.994-.002 1.49-.002h.166q.185.005.187.216c.002.154-.079.197-.197.198L.23 2.396c-.187 0-.234-.122-.232-.312C.003 1.378 0 .672 0-.034" style="fill:#1e2c49;fill-rule:nonzero" transform="translate(306.45 138.893)scale(8.33333)"/><path d="M0-.003C0-.691.007-1.38-.004-2.068c-.004-.248.063-.35.295-.345.623.012 1.246.003 1.869.005.115 0 .25-.033.256.174.006.223-.128.227-.271.227-.513-.001-1.025.008-1.538-.005-.177-.005-.23.051-.224.251.013.459.009.918.001 1.377-.002.151.042.201.176.195.228-.011.457.001.686-.005.131-.003.221.045.215.204-.005.152-.109.175-.22.175-.229 0-.458.009-.686-.003C.417.175.382.229.384.378q.012.714 0 1.429c-.002.152.04.195.173.193.529-.008 1.057-.002 1.585-.004.145 0 .28.009.272.228-.007.214-.154.186-.277.187q-.912.002-1.822 0C.037 2.41 0 2.368 0 2.062z" style="fill:#1e2c49;fill-rule:nonzero" transform="translate(363.609 138.777)scale(8.33333)"/><path d="M0 4.907c-.36-.014-.705-.085-.99-.358a1 1 0 0 1-.161-.191c-.077-.125-.068-.261.033-.358.112-.108.191.006.255.092.258.346.598.435.977.398.385-.037.617-.245.709-.62.102-.419-.028-.848-.325-1.079-.248-.193-.536-.289-.812-.414-.322-.145-.624-.323-.726-.73-.159-.633-.026-1.378.79-1.561Q.32-.044.866.168a.7.7 0 0 1 .167.096c.098.072.131.161.069.292C1.035.695.953.685.848.627.53.451.201.365-.156.464c-.338.094-.516.279-.55.596-.04.375.103.679.416.837.271.138.556.241.825.386.583.313.824.921.672 1.652-.132.637-.543.968-1.207.972" style="fill:#1e2c49;fill-rule:nonzero" transform="translate(628.359 118.327)scale(8.33333)"/><path d="M0 3.451.887.147c.059-.219.123-.436.176-.656.038-.157.125-.199.249-.147.116.049.166.125.121.287a759 759 0 0 0-1.182 4.31c-.039.145-.107.228-.248.23-.15.002-.219-.083-.263-.242q-.581-2.13-1.174-4.257c-.044-.157-.052-.278.11-.336.167-.058.223.06.263.21Q-.582 1.34-.1 3.133c.023.088.054.174.1.318" style="fill:#1e2c49;fill-rule:nonzero" transform="translate(278.426 124.327)scale(8.33333)"/><path d="M0 3.457C.353 2.134.688.871 1.028-.391c.031-.115.029-.278.198-.284s.251.133.193.343q-.422 1.55-.847 3.1c-.106.387-.214.772-.315 1.16-.041.153-.111.245-.264.244s-.216-.099-.258-.251Q-.845 1.805-1.431-.31c-.042-.155-.067-.304.118-.357.168-.049.211.077.252.228.327 1.229.66 2.456.991 3.684.013.05.032.097.07.212" style="fill:#1e2c49;fill-rule:nonzero" transform="translate(151.1 124.335)scale(8.33333)"/><path d="M0 .28c0 .644-.002 1.289.002 1.933.001.174-.013.335-.208.333-.188-.002-.187-.165-.187-.323C-.391.952-.398-.319-.387-1.59c.002-.226-.057-.289-.25-.271-.212.019-.426.001-.639.005-.131.002-.241-.021-.244-.204-.003-.182.098-.208.235-.207q1.087.007 2.176 0c.128-.001.222.028.226.19.005.172-.086.226-.228.222-.237-.007-.474.009-.71-.006-.149-.009-.184.048-.182.208C.005-1.009 0-.364 0 .28" style="fill:#1e2c49;fill-rule:nonzero" transform="translate(520.542 137.577)scale(8.33333)"/><path d="M0 .322C0-.323-.006-.967.004-1.611c.003-.189-.05-.244-.214-.235-.235.014-.473.003-.709.004-.13.001-.214-.049-.213-.211 0-.169.091-.199.219-.198q1.1.006 2.2-.001c.135-.001.22.049.221.201.001.148-.079.215-.216.211-.228-.007-.458.011-.686-.006-.172-.013-.225.036-.223.242C.392-.333.388.938.387 2.21c0 .078.008.165-.018.234-.037.098-.125.131-.218.115-.127-.022-.153-.12-.153-.251C.002 1.646 0 .984 0 .322" style="fill:#1e2c49;fill-rule:nonzero" transform="translate(218.659 137.443)scale(8.33333)"/><path d="M0 .002C0 .7-.002 1.397.002 2.095c.001.168-.023.314-.203.312-.184-.002-.194-.156-.194-.32q.002-2.092.001-4.186c0-.158.001-.308.201-.306.206.002.193.162.193.314z" style="fill:#1e2c49;fill-rule:nonzero" transform="translate(5.91 138.735)scale(8.33333)"/><path d="M0-.024v-2.093c-.001-.162.007-.306.206-.3.186.006.188.146.188.295Q.393-.016.396 2.09c0 .173-.032.309-.21.305-.168-.004-.188-.142-.187-.299Q.002 1.036 0-.024" style="fill:#1e2c49;fill-rule:nonzero" transform="translate(246.926 138.835)scale(8.33333)"/><path d="M0-2.451c-.61-.001-1.097.539-1.1 1.219-.002.681.483 1.226 1.093 1.226.609.001 1.102-.543 1.103-1.218C1.098-1.9.607-2.45 0-2.451M1.254-1.23C1.255-.446.699.187.004.194-.693.2-1.27-.45-1.267-1.237c.002-.773.578-1.414 1.266-1.409.699.004 1.255.632 1.255 1.416" style="fill:#1e2c49;fill-rule:nonzero" transform="translate(663.784 22.085)scale(8.33333)"/><path d="M0 .382h-.683c-.107 0-.213-.004-.212-.17.001-.143.075-.209.194-.21Q.017-.001.736.003c.108.001.176.068.177.198C.915.34.839.382.73.382z" style="fill:#1e2c49;fill-rule:nonzero" transform="translate(404.192 143.927)scale(8.33333)"/><path d="M0-1.346c-.07.041-.222-.082-.245.072-.029.193-.057.412.017.594.054.133.58-.003.645-.154.128-.3-.037-.511-.417-.512M.681.119C.443.212.409.003.332-.123.225-.301.161-.518-.103-.472c-.12.021-.165.05-.154.185.008.105 0 .212.002.317.001.075-.024.111-.096.114C-.425.146-.447.11-.446.035q.003-.727-.001-1.454c-.001-.107.042-.133.128-.131.173.006.347-.008.519.008.218.02.36.161.424.395.063.229.004.429-.162.562-.106.085-.11.137-.041.246.091.141.168.294.26.458" style="fill:#1e2c49;fill-rule:nonzero" transform="translate(663.2 17.694)scale(8.33333)"/></svg>