<?xml version="1.0" encoding="UTF-8" standalone="no"?>
<!DOCTYPE svg PUBLIC "-//W3C//DTD SVG 1.1//EN" "http://www.w3.org/Graphics/SVG/1.1/DTD/svg11.dtd">
<svg width="100%" height="100%" viewBox="0 0 675 160" version="1.1" xmlns="http://www.w3.org/2000/svg" xmlns:xlink="http://www.w3.org/1999/xlink" xml:space="preserve" xmlns:serif="http://www.serif.com/" style="fill-rule:evenodd;clip-rule:evenodd;stroke-linejoin:round;stroke-miterlimit:2;">
    <g transform="matrix(1,0,0,1,-2186.44,-5153.21)">
        <g transform="matrix(8.33333,0,0,8.33333,0,-162.136)">
            <g transform="matrix(1,0,0,1,300.767,647.991)">
                <path d="M0,-7.615C-1.412,-7.615 -2.825,-7.612 -4.237,-7.619C-4.447,-7.62 -4.533,-7.555 -4.528,-7.303C-4.514,-6.65 -4.515,-5.996 -4.528,-5.343C-4.532,-5.103 -4.448,-5.038 -4.251,-5.038C-1.426,-5.041 1.398,-5.042 4.223,-5.037C4.426,-5.036 4.502,-5.107 4.498,-5.34C4.488,-5.985 4.495,-6.63 4.494,-7.274C4.494,-7.61 4.489,-7.615 4.19,-7.615L0,-7.615M2.695,-2.421C2.766,-2.364 2.844,-2.318 2.905,-2.25C4.111,-0.903 5.316,0.446 6.52,1.796C6.586,1.871 6.656,1.946 6.704,2.035C6.822,2.251 6.732,2.453 6.505,2.456C5.772,2.468 5.038,2.476 4.305,2.462C4.023,2.457 3.781,2.311 3.576,2.081C2.268,0.609 0.955,-0.856 -0.352,-2.328C-0.472,-2.464 -0.593,-2.524 -0.766,-2.523C-1.933,-2.516 -3.101,-2.515 -4.269,-2.528C-4.482,-2.53 -4.527,-2.459 -4.529,-2.23C-4.535,-1.384 -4.474,-0.535 -4.564,0.31C-4.673,1.34 -5.389,2.215 -6.294,2.441C-6.662,2.533 -6.791,2.42 -6.791,2.002C-6.791,-1.283 -6.792,-4.569 -6.79,-7.854C-6.789,-8.939 -6.16,-9.832 -5.223,-10.079C-5.041,-10.127 -4.847,-10.134 -4.659,-10.134C-1.724,-10.141 1.211,-10.148 4.146,-10.147C5.026,-10.146 5.808,-9.866 6.386,-9.07C6.632,-8.73 6.755,-8.339 6.754,-7.898C6.752,-6.838 6.757,-5.779 6.752,-4.719C6.748,-3.542 5.868,-2.541 4.819,-2.522C4.203,-2.51 3.588,-2.519 2.972,-2.519L2.744,-2.519L2.695,-2.421Z" style="fill:rgb(26,39,68);fill-rule:nonzero;"/>
            </g>
        </g>
        <g transform="matrix(8.33333,0,0,8.33333,0,-162.136)">
            <g transform="matrix(1,0,0,1,316.556,647.991)">
                <path d="M0,-7.613C-1.428,-7.613 -2.856,-7.61 -4.284,-7.617C-4.466,-7.618 -4.536,-7.563 -4.533,-7.349C-4.523,-6.669 -4.524,-5.989 -4.532,-5.309C-4.535,-5.105 -4.481,-5.031 -4.29,-5.031C-1.434,-5.037 1.422,-5.036 4.278,-5.032C4.452,-5.031 4.51,-5.09 4.507,-5.289C4.498,-5.969 4.494,-6.649 4.509,-7.329C4.514,-7.574 4.436,-7.619 4.237,-7.618C2.825,-7.609 1.412,-7.613 0,-7.613M0.068,-10.137C1.512,-10.137 2.956,-10.138 4.4,-10.136C5.57,-10.134 6.459,-9.371 6.707,-8.149C6.743,-7.97 6.756,-7.781 6.757,-7.597C6.761,-4.391 6.762,-1.184 6.764,2.022C6.764,2.443 6.662,2.531 6.285,2.44C5.277,2.194 4.522,1.17 4.506,0.01C4.496,-0.749 4.498,-1.509 4.506,-2.269C4.508,-2.463 4.458,-2.529 4.279,-2.528C1.414,-2.523 -1.45,-2.523 -4.315,-2.529C-4.503,-2.529 -4.535,-2.448 -4.534,-2.263C-4.528,-1.504 -4.523,-0.744 -4.538,0.016C-4.561,1.188 -5.281,2.168 -6.293,2.434C-6.686,2.537 -6.782,2.455 -6.782,2.013C-6.782,-0.866 -6.779,-3.746 -6.783,-6.625C-6.785,-7.451 -6.666,-8.24 -6.281,-8.957C-5.858,-9.744 -5.246,-10.15 -4.406,-10.141C-2.915,-10.125 -1.424,-10.136 0.068,-10.137" style="fill:rgb(26,39,68);fill-rule:nonzero;"/>
            </g>
        </g>
        <g transform="matrix(8.33333,0,0,8.33333,0,-162.136)">
            <g transform="matrix(1,0,0,1,284.98,650.495)">
                <path d="M0,-12.641C1.476,-12.641 2.951,-12.642 4.427,-12.64C4.703,-12.64 4.979,-12.624 5.247,-12.542C6.117,-12.278 6.515,-11.57 6.676,-10.639C6.736,-10.291 6.753,-9.937 6.754,-9.585C6.757,-7.306 6.759,-5.027 6.754,-2.748C6.752,-1.522 6.199,-0.575 5.277,-0.194C5.153,-0.142 5.023,-0.103 4.893,-0.072C4.609,-0.004 4.495,-0.109 4.495,-0.434C4.494,-3.543 4.495,-6.653 4.495,-9.762C4.495,-10.117 4.494,-10.117 4.167,-10.117C3.244,-10.117 2.32,-10.11 1.397,-10.122C1.165,-10.126 1.1,-10.037 1.1,-9.785C1.106,-6.835 1.104,-3.885 1.104,-0.935C1.104,-0.721 1.105,-0.508 0.979,-0.329C0.851,-0.145 0.685,-0.04 0.472,-0.039C0.164,-0.039 -0.143,-0.032 -0.451,-0.038C-0.903,-0.046 -1.144,-0.321 -1.144,-0.834C-1.146,-3.299 -1.145,-5.763 -1.145,-8.227C-1.145,-8.766 -1.151,-9.305 -1.142,-9.844C-1.139,-10.051 -1.203,-10.122 -1.389,-10.121C-2.352,-10.113 -3.314,-10.111 -4.277,-10.122C-4.488,-10.124 -4.544,-10.044 -4.544,-9.815C-4.538,-6.68 -4.54,-3.544 -4.54,-0.408C-4.54,-0.051 -4.6,0.003 -4.92,-0.064C-5.971,-0.283 -6.76,-1.259 -6.775,-2.465C-6.806,-4.929 -6.815,-7.393 -6.766,-9.857C-6.754,-10.448 -6.628,-11.026 -6.363,-11.552C-5.947,-12.379 -5.275,-12.644 -4.474,-12.642C-2.983,-12.638 -1.491,-12.641 0,-12.641" style="fill:rgb(26,39,68);fill-rule:nonzero;"/>
            </g>
        </g>
        <g transform="matrix(8.33333,0,0,8.33333,0,-162.136)">
            <g transform="matrix(1,0,0,1,333.889,644.117)">
                <path d="M0,0.042C1.614,1.891 3.219,3.728 4.823,5.567C4.911,5.668 5.004,5.768 5.072,5.885C5.199,6.106 5.1,6.323 4.865,6.326C4.132,6.335 3.397,6.343 2.664,6.326C2.392,6.32 2.155,6.176 1.958,5.949C0.826,4.644 -0.313,3.346 -1.443,2.038C-1.566,1.895 -1.623,1.894 -1.747,2.037C-2.867,3.331 -3.997,4.614 -5.118,5.907C-5.371,6.198 -5.663,6.339 -6.022,6.336C-6.669,6.33 -7.316,6.331 -7.963,6.331C-8.101,6.331 -8.241,6.337 -8.304,6.165C-8.374,5.974 -8.261,5.848 -8.156,5.727C-7.054,4.463 -5.952,3.198 -4.849,1.935C-4.348,1.36 -3.85,0.78 -3.34,0.215C-3.213,0.074 -3.221,0.003 -3.342,-0.135C-4.918,-1.93 -6.489,-3.732 -8.061,-5.532C-8.083,-5.558 -8.106,-5.582 -8.127,-5.608C-8.238,-5.743 -8.382,-5.87 -8.302,-6.086C-8.221,-6.301 -8.039,-6.242 -7.888,-6.243C-7.265,-6.251 -6.641,-6.251 -6.018,-6.255C-5.661,-6.257 -5.367,-6.113 -5.115,-5.823C-4,-4.536 -2.874,-3.26 -1.762,-1.97C-1.615,-1.801 -1.551,-1.833 -1.422,-1.983C-0.302,-3.277 0.827,-4.561 1.949,-5.853C2.19,-6.131 2.478,-6.255 2.816,-6.254C3.463,-6.252 4.11,-6.249 4.757,-6.245C4.89,-6.244 5.04,-6.268 5.104,-6.091C5.17,-5.907 5.073,-5.772 4.965,-5.648C4.121,-4.681 3.278,-3.713 2.435,-2.747C1.625,-1.819 0.814,-0.891 0,0.042" style="fill:rgb(26,39,68);fill-rule:nonzero;"/>
            </g>
        </g>
        <g transform="matrix(8.33333,0,0,8.33333,0,-162.136)">
            <g transform="matrix(1,0,0,1,270.647,639.589)">
                <path d="M0,0.787C-1.633,0.787 -3.266,0.791 -4.899,0.782C-5.102,0.781 -5.186,0.835 -5.169,1.075C-5.152,1.312 -5.161,1.552 -5.168,1.79C-5.181,2.218 -5.423,2.515 -5.801,2.525C-6.401,2.54 -7,2.538 -7.6,2.526C-7.932,2.519 -8.192,2.288 -8.224,1.926C-8.275,1.331 -8.322,0.726 -8.182,0.137C-7.914,-1.001 -7.044,-1.73 -5.885,-1.736C-2.95,-1.751 -0.016,-1.753 2.919,-1.735C4.088,-1.728 4.94,-0.986 5.213,0.178C5.225,0.229 5.235,0.28 5.242,0.332C5.287,0.683 5.211,0.786 4.899,0.787C4.291,0.788 3.684,0.787 3.076,0.787L0,0.787Z" style="fill:rgb(26,39,68);fill-rule:nonzero;"/>
            </g>
        </g>
        <g transform="matrix(8.33333,0,0,8.33333,0,-162.136)">
            <g transform="matrix(1,0,0,1,269.156,646.223)">
                <path d="M0,4.228C-1.53,4.228 -3.061,4.25 -4.591,4.221C-5.823,4.198 -6.762,3.082 -6.767,1.704C-6.769,1.395 -6.768,1.085 -6.759,0.777C-6.745,0.261 -6.487,-0.018 -6.029,-0.019C-5.477,-0.022 -4.925,-0.022 -4.372,-0.019C-3.938,-0.017 -3.686,0.262 -3.676,0.75C-3.671,0.979 -3.663,1.21 -3.678,1.438C-3.693,1.668 -3.604,1.726 -3.415,1.723C-2.839,1.714 -2.263,1.72 -1.688,1.72L6.335,1.72C6.74,1.72 6.808,1.815 6.724,2.257C6.52,3.335 5.631,4.203 4.638,4.22C3.093,4.245 1.546,4.227 0,4.227L0,4.228Z" style="fill:rgb(26,39,68);fill-rule:nonzero;"/>
            </g>
        </g>
        <g transform="matrix(8.33333,0,0,8.33333,0,-162.136)">
            <g transform="matrix(1,0,0,1,269.137,642.899)">
                <path d="M1.372,2.517L-5.963,2.517C-6.537,2.517 -6.758,2.268 -6.759,1.622C-6.759,1.313 -6.765,1.003 -6.754,0.695C-6.74,0.303 -6.507,0.04 -6.16,0.006C-6.113,0.002 -6.065,-0.001 -6.018,-0.001C-1.996,-0.001 2.027,-0.001 6.05,-0.002C6.289,-0.003 6.504,0.048 6.66,0.272C6.861,0.56 6.865,1.945 6.663,2.238C6.51,2.462 6.3,2.52 6.058,2.519C4.496,2.515 2.934,2.517 1.372,2.517Z" style="fill:rgb(26,39,68);fill-rule:nonzero;"/>
            </g>
        </g>
        <g transform="matrix(8.33333,0,0,8.33333,0,-162.136)">
            <g transform="matrix(1,0,0,1,314.285,655.811)">
                <path d="M0,-2.687L0,0.701C0,0.772 0.004,0.844 -0.004,0.913C-0.019,1.044 -0.11,1.088 -0.208,1.085C-0.308,1.082 -0.39,1.03 -0.388,0.892C-0.386,0.68 -0.388,0.468 -0.388,0.256C-0.389,-0.945 -0.39,-2.146 -0.386,-3.347C-0.386,-3.478 -0.441,-3.653 -0.276,-3.712C-0.095,-3.776 0.007,-3.632 0.079,-3.481C0.389,-2.829 0.692,-2.172 0.997,-1.518C1.033,-1.44 1.069,-1.362 1.107,-1.282C1.189,-1.314 1.199,-1.401 1.229,-1.465C1.513,-2.072 1.795,-2.682 2.077,-3.291C2.114,-3.369 2.147,-3.449 2.19,-3.522C2.267,-3.654 2.365,-3.767 2.519,-3.715C2.666,-3.665 2.647,-3.511 2.647,-3.38C2.648,-1.994 2.646,-0.607 2.649,0.779C2.65,0.952 2.617,1.089 2.44,1.085C2.273,1.081 2.254,0.942 2.254,0.785C2.257,-0.266 2.256,-1.317 2.256,-2.368L2.256,-2.663C2.141,-2.636 2.135,-2.532 2.102,-2.464C1.834,-1.906 1.573,-1.344 1.308,-0.784C1.265,-0.693 1.228,-0.581 1.108,-0.592C1.006,-0.601 0.974,-0.702 0.935,-0.787C0.637,-1.424 0.341,-2.061 0.044,-2.698C0.029,-2.694 0.015,-2.691 0,-2.687" style="fill:rgb(30,44,73);fill-rule:nonzero;"/>
            </g>
        </g>
        <g transform="matrix(8.33333,0,0,8.33333,0,-162.136)">
            <g transform="matrix(1,0,0,1,267.414,653.233)">
                <path d="M0,2.54L0,1.281C0,0.557 0.001,-0.166 -0.001,-0.89C-0.002,-1.046 0.036,-1.146 0.195,-1.147C0.339,-1.149 0.387,-1.073 0.387,-0.92C0.385,0.528 0.385,1.975 0.387,3.423C0.387,3.53 0.366,3.611 0.266,3.65C0.167,3.688 0.091,3.643 0.036,3.566C-0.023,3.485 -0.067,3.39 -0.11,3.297C-0.626,2.181 -1.139,1.064 -1.658,-0.064C-1.728,-0.004 -1.701,0.069 -1.701,0.128C-1.703,1.214 -1.701,2.299 -1.703,3.385C-1.703,3.615 -1.811,3.712 -1.973,3.645C-2.103,3.591 -2.086,3.474 -2.086,3.36L-2.086,-0.373C-2.086,-0.55 -2.085,-0.727 -2.087,-0.903C-2.088,-0.996 -2.083,-1.085 -1.996,-1.127C-1.901,-1.172 -1.81,-1.15 -1.734,-1.071C-1.634,-0.966 -1.577,-0.83 -1.517,-0.696C-1.027,0.385 -0.537,1.466 -0.047,2.547L0,2.54Z" style="fill:rgb(26,39,68);fill-rule:nonzero;"/>
            </g>
        </g>
        <g transform="matrix(8.33333,0,0,8.33333,0,-162.136)">
            <g transform="matrix(1,0,0,1,270.437,655.785)">
                <path d="M0,-2.591L0,0.635C0,0.706 -0.004,0.777 0.001,0.847C0.013,1.011 -0.055,1.106 -0.197,1.11C-0.348,1.114 -0.389,1.007 -0.388,0.848C-0.383,0.045 -0.386,-0.758 -0.386,-1.561C-0.386,-2.179 -0.386,-2.797 -0.385,-3.415C-0.385,-3.517 -0.411,-3.639 -0.291,-3.685C-0.172,-3.73 -0.07,-3.683 -0.001,-3.572C0.071,-3.457 0.134,-3.335 0.191,-3.21C0.648,-2.208 1.102,-1.205 1.558,-0.202C1.592,-0.128 1.606,-0.037 1.702,0.026L1.702,-0.719C1.702,-1.628 1.704,-2.537 1.701,-3.446C1.7,-3.602 1.729,-3.702 1.893,-3.699C2.052,-3.697 2.088,-3.599 2.088,-3.443C2.086,-2.013 2.086,-0.583 2.088,0.847C2.088,0.962 2.073,1.054 1.961,1.097C1.852,1.139 1.773,1.085 1.715,0.997C1.654,0.906 1.607,0.803 1.561,0.702C1.054,-0.398 0.548,-1.499 0.042,-2.599L0,-2.591Z" style="fill:rgb(26,39,68);fill-rule:nonzero;"/>
            </g>
        </g>
        <g transform="matrix(8.33333,0,0,8.33333,0,-162.136)">
            <g transform="matrix(1,0,0,1,332.728,655.581)">
                <path d="M0,-2.193C0,-1.938 0.001,-1.682 -0.001,-1.427C-0.001,-1.332 -0.001,-1.251 0.118,-1.254C0.433,-1.264 0.75,-1.242 1.061,-1.279C1.48,-1.328 1.699,-1.685 1.686,-2.234C1.674,-2.722 1.439,-3.033 1.027,-3.069C0.737,-3.095 0.445,-3.082 0.154,-3.096C0.024,-3.102 -0.005,-3.036 -0.002,-2.906C0.004,-2.669 0,-2.431 0,-2.193M1.159,-0.924C1.444,-0.312 1.723,0.286 2,0.886C2.036,0.963 2.085,1.035 2.076,1.131C2.066,1.235 2.001,1.287 1.927,1.318C1.829,1.359 1.758,1.295 1.713,1.204C1.596,0.966 1.484,0.724 1.373,0.482C1.2,0.107 1.021,-0.265 0.861,-0.647C0.788,-0.821 0.699,-0.89 0.522,-0.886C0.001,-0.873 0.001,-0.883 0,-0.308C0,0.142 -0.003,0.592 0.002,1.042C0.004,1.197 -0.035,1.311 -0.184,1.315C-0.343,1.32 -0.392,1.208 -0.392,1.037C-0.388,-0.383 -0.39,-1.803 -0.39,-3.224C-0.39,-3.353 -0.387,-3.495 -0.232,-3.491C0.239,-3.481 0.714,-3.552 1.182,-3.451C1.757,-3.326 2.049,-2.948 2.068,-2.336C2.092,-1.542 1.86,-1.142 1.265,-0.953C1.236,-0.944 1.207,-0.937 1.159,-0.924" style="fill:rgb(30,44,73);fill-rule:nonzero;"/>
            </g>
        </g>
        <g transform="matrix(8.33333,0,0,8.33333,0,-162.136)">
            <g transform="matrix(1,0,0,1,276.774,654.189)">
                <path d="M0,0.49C0,-0.046 0.001,-0.417 -0.001,-0.788C-0.002,-0.858 -0.017,-0.928 -0.028,-0.998C-0.104,-1.48 -0.379,-1.713 -0.857,-1.701C-1.331,-1.689 -1.615,-1.438 -1.647,-0.95C-1.701,-0.104 -1.7,0.744 -1.647,1.59C-1.616,2.072 -1.334,2.333 -0.885,2.348C-0.392,2.365 -0.108,2.133 -0.029,1.647C0.042,1.208 -0.015,0.765 0,0.49M0.389,0.421C0.366,0.792 0.433,1.278 0.35,1.76C0.255,2.309 -0.084,2.663 -0.577,2.726C-0.766,2.751 -0.955,2.751 -1.143,2.72C-1.633,2.64 -1.973,2.269 -2.026,1.709C-2.109,0.839 -2.096,-0.037 -2.043,-0.905C-1.988,-1.8 -1.361,-2.261 -0.555,-2.082C0.054,-1.947 0.368,-1.527 0.387,-0.802C0.397,-0.432 0.389,-0.061 0.389,0.421" style="fill:rgb(30,44,73);fill-rule:nonzero;"/>
            </g>
        </g>
        <g transform="matrix(8.33333,0,0,8.33333,0,-162.136)">
            <g transform="matrix(1,0,0,1,319.503,654.436)">
                <path d="M0,0.06C0.023,0.509 -0.032,0.961 0.039,1.409C0.114,1.878 0.398,2.112 0.879,2.101C1.331,2.091 1.62,1.834 1.653,1.359C1.712,0.505 1.712,-0.353 1.654,-1.207C1.621,-1.692 1.332,-1.941 0.857,-1.949C0.38,-1.956 0.108,-1.722 0.035,-1.236C-0.03,-0.806 0.022,-0.372 0,0.06M-0.382,0.063C-0.382,-0.281 -0.383,-0.625 -0.382,-0.969C-0.379,-2.207 0.435,-2.448 1.124,-2.325C1.708,-2.222 2.017,-1.859 2.053,-1.154C2.098,-0.285 2.121,0.591 2.034,1.46C1.976,2.048 1.607,2.418 1.08,2.481C0.874,2.506 0.669,2.508 0.469,2.457C-0.072,2.32 -0.359,1.894 -0.379,1.2C-0.389,0.821 -0.381,0.442 -0.381,0.063L-0.382,0.063Z" style="fill:rgb(30,44,73);fill-rule:nonzero;"/>
            </g>
        </g>
        <g transform="matrix(8.33333,0,0,8.33333,0,-162.136)">
            <g transform="matrix(1,0,0,1,328.084,654.361)">
                <path d="M0,0.134C0,0.514 -0.001,0.893 0.001,1.273C0.002,1.343 0.017,1.413 0.028,1.483C0.104,1.953 0.387,2.187 0.867,2.176C1.32,2.166 1.61,1.909 1.643,1.435C1.701,0.58 1.701,-0.277 1.643,-1.132C1.611,-1.617 1.322,-1.866 0.847,-1.874C0.37,-1.882 0.098,-1.648 0.024,-1.162C-0.041,-0.732 0.012,-0.298 0,0.134M-0.393,0.156C-0.393,-0.197 -0.396,-0.55 -0.392,-0.902C-0.38,-1.893 0.247,-2.451 1.121,-2.253C1.674,-2.128 1.981,-1.805 2.028,-1.176C2.097,-0.272 2.104,0.639 2.022,1.543C1.97,2.116 1.598,2.49 1.086,2.554C0.873,2.581 0.659,2.585 0.451,2.53C-0.09,2.386 -0.372,1.963 -0.39,1.267C-0.399,0.897 -0.391,0.526 -0.391,0.156L-0.393,0.156Z" style="fill:rgb(30,44,73);fill-rule:nonzero;"/>
            </g>
        </g>
        <g transform="matrix(8.33333,0,0,8.33333,0,-162.136)">
            <g transform="matrix(1,0,0,1,284.782,656.219)">
                <path d="M0,-3.469C-0.241,-2.579 -0.458,-1.768 -0.682,-0.96C-0.724,-0.808 -0.643,-0.821 -0.561,-0.821C-0.199,-0.821 0.164,-0.831 0.526,-0.817C0.703,-0.81 0.7,-0.892 0.661,-1.035C0.52,-1.547 0.382,-2.06 0.243,-2.573C0.169,-2.846 0.095,-3.119 0,-3.469M0.005,-4.177C0.19,-4.18 0.239,-4.031 0.281,-3.873C0.6,-2.705 0.919,-1.537 1.238,-0.369C1.306,-0.116 1.366,0.139 1.443,0.388C1.494,0.552 1.422,0.616 1.305,0.662C1.182,0.711 1.109,0.653 1.073,0.521C1.002,0.26 0.924,0.002 0.864,-0.262C0.834,-0.396 0.784,-0.451 0.656,-0.449C0.214,-0.441 -0.227,-0.443 -0.669,-0.448C-0.784,-0.45 -0.833,-0.405 -0.862,-0.279C-0.923,-0.015 -1.006,0.242 -1.072,0.504C-1.109,0.652 -1.18,0.71 -1.315,0.661C-1.445,0.614 -1.482,0.532 -1.44,0.379C-1.039,-1.064 -0.641,-2.508 -0.247,-3.954C-0.205,-4.105 -0.127,-4.172 0.005,-4.177" style="fill:rgb(30,44,73);fill-rule:nonzero;"/>
            </g>
        </g>
        <g transform="matrix(8.33333,0,0,8.33333,0,-162.136)">
            <g transform="matrix(1,0,0,1,299.147,654.509)">
                <path d="M0,-0.034C0,-0.722 0.006,-1.411 -0.003,-2.099C-0.006,-2.337 0.064,-2.431 0.283,-2.427C0.914,-2.416 1.545,-2.422 2.176,-2.424C2.302,-2.425 2.419,-2.427 2.414,-2.227C2.41,-2.041 2.302,-2.021 2.172,-2.022C1.644,-2.023 1.115,-2.016 0.587,-2.026C0.43,-2.029 0.386,-1.973 0.39,-1.802C0.399,-1.334 0.397,-0.866 0.39,-0.399C0.388,-0.248 0.433,-0.198 0.567,-0.204C0.795,-0.214 1.024,-0.204 1.253,-0.208C1.371,-0.209 1.455,-0.173 1.459,-0.022C1.463,0.136 1.369,0.169 1.256,0.17C1.02,0.172 0.783,0.178 0.547,0.168C0.419,0.162 0.388,0.215 0.39,0.349C0.396,0.834 0.399,1.32 0.389,1.805C0.386,1.971 0.452,1.986 0.571,1.985C1.068,1.98 1.565,1.983 2.061,1.983C2.116,1.983 2.172,1.982 2.227,1.983C2.351,1.987 2.412,2.058 2.414,2.199C2.416,2.353 2.335,2.396 2.217,2.397C1.555,2.397 0.893,2.397 0.23,2.396C0.043,2.396 -0.004,2.274 -0.002,2.084C0.003,1.378 0,0.672 0,-0.034" style="fill:rgb(30,44,73);fill-rule:nonzero;"/>
            </g>
        </g>
        <g transform="matrix(8.33333,0,0,8.33333,0,-162.136)">
            <g transform="matrix(1,0,0,1,306.006,654.495)">
                <path d="M0,-0.003C0,-0.691 0.007,-1.38 -0.004,-2.068C-0.008,-2.316 0.059,-2.418 0.291,-2.413C0.914,-2.401 1.537,-2.41 2.16,-2.408C2.275,-2.408 2.41,-2.441 2.416,-2.234C2.422,-2.011 2.288,-2.007 2.145,-2.007C1.632,-2.008 1.12,-1.999 0.607,-2.012C0.43,-2.017 0.377,-1.961 0.383,-1.761C0.396,-1.302 0.392,-0.843 0.384,-0.384C0.382,-0.233 0.426,-0.183 0.56,-0.189C0.788,-0.2 1.017,-0.188 1.246,-0.194C1.377,-0.197 1.467,-0.149 1.461,0.01C1.456,0.162 1.352,0.185 1.241,0.185C1.012,0.185 0.783,0.194 0.555,0.182C0.417,0.175 0.382,0.229 0.384,0.378C0.392,0.854 0.392,1.331 0.384,1.807C0.382,1.959 0.424,2.002 0.557,2C1.086,1.992 1.614,1.998 2.142,1.996C2.287,1.996 2.422,2.005 2.414,2.224C2.407,2.438 2.26,2.41 2.137,2.411C1.529,2.412 0.922,2.413 0.315,2.411C0.037,2.41 0,2.368 0,2.062L0,-0.003" style="fill:rgb(30,44,73);fill-rule:nonzero;"/>
            </g>
        </g>
        <g transform="matrix(8.33333,0,0,8.33333,0,-162.136)">
            <g transform="matrix(1,0,0,1,337.776,652.041)">
                <path d="M0,4.907C-0.36,4.893 -0.705,4.822 -0.99,4.549C-1.049,4.492 -1.108,4.43 -1.151,4.358C-1.228,4.233 -1.219,4.097 -1.118,4C-1.006,3.892 -0.927,4.006 -0.863,4.092C-0.605,4.438 -0.265,4.527 0.114,4.49C0.499,4.453 0.731,4.245 0.823,3.87C0.925,3.451 0.795,3.022 0.498,2.791C0.25,2.598 -0.038,2.502 -0.314,2.377C-0.636,2.232 -0.938,2.054 -1.04,1.647C-1.199,1.014 -1.066,0.269 -0.25,0.086C0.13,0 0.501,0.025 0.866,0.168C0.925,0.191 0.981,0.225 1.033,0.264C1.131,0.336 1.164,0.425 1.102,0.556C1.035,0.695 0.953,0.685 0.848,0.627C0.53,0.451 0.201,0.365 -0.156,0.464C-0.494,0.558 -0.672,0.743 -0.706,1.06C-0.746,1.435 -0.603,1.739 -0.29,1.897C-0.019,2.035 0.266,2.138 0.535,2.283C1.118,2.596 1.359,3.204 1.207,3.935C1.075,4.572 0.664,4.903 0,4.907" style="fill:rgb(30,44,73);fill-rule:nonzero;"/>
            </g>
        </g>
        <g transform="matrix(8.33333,0,0,8.33333,0,-162.136)">
            <g transform="matrix(1,0,0,1,295.784,652.761)">
                <path d="M0,3.451C0.307,2.309 0.597,1.228 0.887,0.147C0.946,-0.072 1.01,-0.289 1.063,-0.509C1.101,-0.666 1.188,-0.708 1.312,-0.656C1.428,-0.607 1.478,-0.531 1.433,-0.369C1.034,1.065 0.642,2.503 0.251,3.941C0.212,4.086 0.144,4.169 0.003,4.171C-0.147,4.173 -0.216,4.088 -0.26,3.929C-0.647,2.509 -1.039,1.089 -1.434,-0.328C-1.478,-0.485 -1.486,-0.606 -1.324,-0.664C-1.157,-0.722 -1.101,-0.604 -1.061,-0.454C-0.742,0.742 -0.421,1.937 -0.1,3.133C-0.077,3.221 -0.046,3.307 0,3.451" style="fill:rgb(30,44,73);fill-rule:nonzero;"/>
            </g>
        </g>
        <g transform="matrix(8.33333,0,0,8.33333,0,-162.136)">
            <g transform="matrix(1,0,0,1,280.505,652.762)">
                <path d="M0,3.457C0.353,2.134 0.688,0.871 1.028,-0.391C1.059,-0.506 1.057,-0.669 1.226,-0.675C1.395,-0.68 1.477,-0.542 1.419,-0.332C1.138,0.702 0.855,1.735 0.572,2.768C0.466,3.155 0.358,3.54 0.257,3.928C0.216,4.081 0.146,4.173 -0.007,4.172C-0.161,4.171 -0.223,4.073 -0.265,3.921C-0.651,2.51 -1.041,1.1 -1.431,-0.31C-1.473,-0.465 -1.498,-0.614 -1.313,-0.667C-1.145,-0.716 -1.102,-0.59 -1.061,-0.439C-0.734,0.79 -0.401,2.017 -0.07,3.245C-0.057,3.295 -0.038,3.342 0,3.457" style="fill:rgb(30,44,73);fill-rule:nonzero;"/>
            </g>
        </g>
        <g transform="matrix(8.33333,0,0,8.33333,0,-162.136)">
            <g transform="matrix(1,0,0,1,324.838,654.351)">
                <path d="M0,0.28C0,0.924 -0.002,1.569 0.002,2.213C0.003,2.387 -0.011,2.548 -0.206,2.546C-0.394,2.544 -0.393,2.381 -0.393,2.223C-0.391,0.952 -0.398,-0.319 -0.387,-1.59C-0.385,-1.816 -0.444,-1.879 -0.637,-1.861C-0.849,-1.842 -1.063,-1.86 -1.276,-1.856C-1.407,-1.854 -1.517,-1.877 -1.52,-2.06C-1.523,-2.242 -1.422,-2.268 -1.285,-2.267C-0.56,-2.263 0.165,-2.262 0.891,-2.267C1.019,-2.268 1.113,-2.239 1.117,-2.077C1.122,-1.905 1.031,-1.851 0.889,-1.855C0.652,-1.862 0.415,-1.846 0.179,-1.861C0.03,-1.87 -0.005,-1.813 -0.003,-1.653C0.005,-1.009 0,-0.364 0,0.28" style="fill:rgb(30,44,73);fill-rule:nonzero;"/>
            </g>
        </g>
        <g transform="matrix(8.33333,0,0,8.33333,0,-162.136)">
            <g transform="matrix(1,0,0,1,288.612,654.335)">
                <path d="M0,0.322C0,-0.323 -0.006,-0.967 0.004,-1.611C0.007,-1.8 -0.046,-1.855 -0.21,-1.846C-0.445,-1.832 -0.683,-1.843 -0.919,-1.842C-1.049,-1.841 -1.133,-1.891 -1.132,-2.053C-1.132,-2.222 -1.041,-2.252 -0.913,-2.251C-0.18,-2.248 0.554,-2.247 1.287,-2.252C1.422,-2.253 1.507,-2.203 1.508,-2.051C1.509,-1.903 1.429,-1.836 1.292,-1.84C1.064,-1.847 0.834,-1.829 0.606,-1.846C0.434,-1.859 0.381,-1.81 0.383,-1.604C0.392,-0.333 0.388,0.938 0.387,2.21C0.387,2.288 0.395,2.375 0.369,2.444C0.332,2.542 0.244,2.575 0.151,2.559C0.024,2.537 -0.002,2.439 -0.002,2.308C0.002,1.646 0,0.984 0,0.322" style="fill:rgb(30,44,73);fill-rule:nonzero;"/>
            </g>
        </g>
        <g transform="matrix(8.33333,0,0,8.33333,0,-162.136)">
            <g transform="matrix(1,0,0,1,263.082,654.49)">
                <path d="M0,0.002C0,0.7 -0.002,1.397 0.002,2.095C0.003,2.263 -0.021,2.409 -0.201,2.407C-0.385,2.405 -0.395,2.251 -0.395,2.087C-0.393,0.692 -0.394,-0.703 -0.394,-2.099C-0.394,-2.257 -0.393,-2.407 -0.193,-2.405C0.013,-2.403 0,-2.243 0,-2.091L0,0.002" style="fill:rgb(30,44,73);fill-rule:nonzero;"/>
            </g>
        </g>
        <g transform="matrix(8.33333,0,0,8.33333,0,-162.136)">
            <g transform="matrix(1,0,0,1,292.004,654.502)">
                <path d="M0,-0.024C0,-0.722 0.001,-1.419 0,-2.117C-0.001,-2.279 0.007,-2.423 0.206,-2.417C0.392,-2.411 0.394,-2.271 0.394,-2.122C0.394,-0.718 0.393,0.686 0.396,2.09C0.396,2.263 0.364,2.399 0.186,2.395C0.018,2.391 -0.002,2.253 -0.001,2.096C0.002,1.389 0,0.683 0,-0.024" style="fill:rgb(30,44,73);fill-rule:nonzero;"/>
            </g>
        </g>
        <g transform="matrix(8.33333,0,0,8.33333,0,-162.136)">
            <g transform="matrix(1,0,0,1,342.027,640.492)">
                <path d="M0,-2.451C-0.61,-2.452 -1.097,-1.912 -1.1,-1.232C-1.102,-0.551 -0.617,-0.006 -0.007,-0.006C0.602,-0.005 1.095,-0.549 1.096,-1.224C1.098,-1.9 0.607,-2.45 0,-2.451M1.254,-1.23C1.255,-0.446 0.699,0.187 0.004,0.194C-0.693,0.2 -1.27,-0.45 -1.267,-1.237C-1.265,-2.01 -0.689,-2.651 -0.001,-2.646C0.698,-2.642 1.254,-2.014 1.254,-1.23" style="fill:rgb(30,44,73);fill-rule:nonzero;"/>
            </g>
        </g>
        <g transform="matrix(8.33333,0,0,8.33333,0,-162.136)">
            <g transform="matrix(1,0,0,1,310.876,655.113)">
                <path d="M0,0.382L-0.683,0.382C-0.79,0.382 -0.896,0.378 -0.895,0.212C-0.894,0.069 -0.82,0.003 -0.701,0.002C-0.222,0 0.257,0 0.736,0.003C0.844,0.004 0.912,0.071 0.913,0.201C0.915,0.34 0.839,0.382 0.73,0.382L0,0.382" style="fill:rgb(30,44,73);fill-rule:nonzero;"/>
            </g>
        </g>
        <g transform="matrix(8.33333,0,0,8.33333,0,-162.136)">
            <g transform="matrix(1,0,0,1,341.957,639.965)">
                <path d="M0,-1.346C-0.07,-1.305 -0.222,-1.428 -0.245,-1.274C-0.274,-1.081 -0.302,-0.862 -0.228,-0.68C-0.174,-0.547 0.352,-0.683 0.417,-0.834C0.545,-1.134 0.38,-1.345 0,-1.346M0.681,0.119C0.443,0.212 0.409,0.003 0.332,-0.123C0.225,-0.301 0.161,-0.518 -0.103,-0.472C-0.223,-0.451 -0.268,-0.422 -0.257,-0.287C-0.249,-0.182 -0.257,-0.075 -0.255,0.03C-0.254,0.105 -0.279,0.141 -0.351,0.144C-0.425,0.146 -0.447,0.11 -0.446,0.035C-0.445,-0.45 -0.444,-0.934 -0.447,-1.419C-0.448,-1.526 -0.405,-1.552 -0.319,-1.55C-0.146,-1.544 0.028,-1.558 0.2,-1.542C0.418,-1.522 0.56,-1.381 0.624,-1.147C0.687,-0.918 0.628,-0.718 0.462,-0.585C0.356,-0.5 0.352,-0.448 0.421,-0.339C0.512,-0.198 0.589,-0.045 0.681,0.119" style="fill:rgb(30,44,73);fill-rule:nonzero;"/>
            </g>
        </g>
    </g>
</svg>
