<svg xmlns="http://www.w3.org/2000/svg" xml:space="preserve" style="fill-rule:evenodd;clip-rule:evenodd;stroke-linejoin:round;stroke-miterlimit:2" viewBox="0 0 1078 161"><path d="M0-10.853v.009c-1.509 0-3.019-.035-4.527.01-1.706.05-2.455.74-2.602 2.443-.249 2.871-.05 5.752-.114 8.628-.008.362.16.421.462.418a162 162 0 0 1 3.413.003c.325.005.454-.084.44-.429-.025-.626.03-1.256-.018-1.879-.04-.512.154-.599.621-.593 2.228.024 4.457.002 6.686.019.383.003.536-.082.514-.494a14 14 0 0 1 .003-1.879c.047-.558-.145-.688-.685-.68-2.159.032-4.318.018-6.477.006-.206-.002-.504.169-.577-.271-.272-1.65.316-2.358 2.004-2.363 1.811-.005 3.622-.035 5.432-.006.474.008.535-.164.518-.556a19 19 0 0 1 .002-1.81c.024-.44-.088-.6-.568-.589-1.508.035-3.018.013-4.527.013m22.852 5.627v2.995c0 1.764.469 2.411 2.219 2.822 2.467.58 4.978.441 7.479.316 1.016-.051 2.027-.185 2.982-.586.809-.34 1.261-.907 1.252-1.809-.007-.673-.016-1.347.011-2.02.015-.373-.123-.474-.48-.468a89 89 0 0 1-3.343-.001c-.389-.008-.503.116-.529.505-.065.945-.426 1.349-1.343 1.482-.85.123-1.716.137-2.565-.021-.956-.178-1.32-.589-1.35-1.561a61 61 0 0 1-.002-3.273c.018-.821.397-1.231 1.201-1.365a8.4 8.4 0 0 1 2.768-.014c.844.141 1.187.432 1.32 1.267.056.353.174.46.524.453a83 83 0 0 1 3.343.002c.381.008.473-.125.456-.478-.03-.625-.017-1.253-.027-1.879-.01-.694-.363-1.181-.948-1.512a4.3 4.3 0 0 0-1.366-.483c-2.646-.483-5.308-.406-7.97-.2-.809.062-1.609.198-2.361.527-.852.372-1.286 1.012-1.274 1.958.014 1.114.003 2.228.003 3.343m30.931.155c0-1.16-.019-2.32.006-3.48.019-.932-.427-1.524-1.242-1.894a5.4 5.4 0 0 0-1.319-.407c-2.365-.42-4.748-.395-7.135-.285-1.322.061-2.641.152-3.865.714-.736.337-1.254.877-1.255 1.755-.004 2.367 0 4.734-.002 7.1 0 .658.3 1.149.823 1.522.461.328.984.51 1.53.62 2.544.514 5.112.467 7.684.32 1.159-.066 2.312-.172 3.4-.609.898-.36 1.419-.977 1.384-2.015-.039-1.112-.009-2.227-.009-3.341m-46.99.847c0 1.461.015 2.922-.01 4.382-.007.423.105.559.541.546a54 54 0 0 1 3.269 0c.45.013.554-.15.532-.561-.031-.578.04-1.164-.021-1.737-.066-.63.159-.841.775-.826q2.295.055 4.589.039c.4-.003.449.165.44.494-.018.672.021 1.346-.014 2.017-.025.467.145.587.595.573a59 59 0 0 1 3.2-.001c.409.01.569-.084.566-.531-.019-2.922-.011-5.844-.009-8.766 0-.852-.396-1.454-1.148-1.828a4.8 4.8 0 0 0-1.311-.431c-2.829-.495-5.672-.399-8.517-.198a7 7 0 0 0-1.832.364c-1.135.396-1.634 1.086-1.643 2.29-.01 1.391-.002 2.782-.002 4.174m61.245-5.452c-.3-.917-.955-1.181-1.687-1.315-1.698-.312-3.413-.311-5.128-.229-1.063.051-2.127.129-3.141.509-1.066.4-1.644 1.131-1.652 2.241-.019 2.9 0 5.8-.014 8.701-.001.372.121.476.48.469 1.044-.02 2.09-.041 3.132.006.564.026.746-.109.735-.708-.039-2.157-.017-4.315-.014-6.473.002-1.096.371-1.524 1.462-1.757.737-.157 1.475-.146 2.211-.037 1.318.194 1.573.493 1.574 1.8.001 2.157.015 4.315-.011 6.473-.006.513.083.736.667.704a30 30 0 0 1 2.992-.002c.553.026.697-.141.69-.69-.033-2.227-.019-4.455-.012-6.682.004-1.029.326-1.422 1.332-1.623.618-.124 1.248-.085 1.873-.059 1.369.058 1.82.526 1.823 1.888.005 2.134.015 4.269-.01 6.403-.005.458.118.594.576.58a49 49 0 0 1 3.201.002c.482.017.566-.158.563-.593-.018-2.692-.009-5.383-.009-8.075 0-1.796-.469-2.454-2.254-2.861-2.422-.553-4.871-.529-7.318-.138-.883.141-1.65.471-2.061 1.466m15.811-5.216c0 6.149-.006 12.297.012 18.446.002.501-.078.653-.627.653-31.648-.017-63.297-.015-94.945-.015.007-.254.021-.509.021-.764.002-5.824-.001-11.649.003-17.473.001-1.015-.138-.903.869-.903q46.956-.003 93.911.001c.252 0 .504.036.756.055" style="fill:#2c2624;fill-rule:nonzero" transform="translate(378.636 125.375)scale(8.33333)"/><path d="M0 6.201c.595.994 1.129 1.851 1.624 2.73.185.329.407.43.775.43q8.637-.017 17.272.001c.4.001.62-.126.82-.466a262 262 0 0 1 3.044-5.062c.226-.366.236-.623.008-.991a225 225 0 0 1-3.046-5.062c-.219-.378-.468-.491-.886-.489-2.949.016-5.897.009-8.845.009-4.295 0-8.59.007-12.885-.01-.514-.002-.768.081-.711.674.057.598.056 1.21 0 1.809-.054.582.182.677.704.675C1.983.429 6.092.438 10.201.438h.731c-.263 1.016-.799 1.337-1.813 1.316-3.689-.077-7.382-.03-11.073-.03h-.822c.613.988 1.165 1.84 1.675 2.717.213.367.464.485.887.482 3.087-.02 6.175-.011 9.262-.011 1.303 0 1.303 0 1.853 1.289zm26.002 6.511c-10.633 0-21.267-.004-31.9.014-.477 0-.572-.094-.571-.571q.032-9.054 0-18.109c-.001-.477.094-.571.571-.571 10.633.018 21.267.014 31.9.014-.01 4.625-.023 9.251-.027 13.877-.001 1.782.017 3.564.027 5.346" style="fill:#e30c18;fill-rule:nonzero" transform="translate(53.908 54.375)scale(8.33333)"/><path d="M0-8.534c.41-.995 1.178-1.326 2.06-1.467 2.447-.391 4.896-.415 7.318.138 1.786.408 2.254 1.066 2.254 2.862.001 2.691-.009 5.383.01 8.074.003.436-.082.61-.563.593a48 48 0 0 0-3.201-.001c-.459.014-.582-.122-.576-.58.025-2.134.014-4.269.009-6.404-.003-1.362-.453-1.829-1.822-1.887-.625-.026-1.255-.065-1.874.058-1.005.201-1.328.594-1.331 1.624-.007 2.227-.021 4.455.011 6.682.008.549-.136.715-.689.69a29 29 0 0 0-2.992.002c-.585.032-.673-.191-.667-.704.025-2.158.011-4.316.01-6.474-.001-1.306-.255-1.605-1.573-1.8-.737-.108-1.475-.119-2.212.038-1.09.232-1.46.661-1.462 1.757-.003 2.157-.025 4.316.015 6.473.011.599-.171.734-.736.708-1.042-.047-2.088-.026-3.131-.007-.359.007-.482-.096-.48-.469.013-2.9-.005-5.8.014-8.701.007-1.109.586-1.84 1.652-2.24 1.013-.381 2.078-.458 3.141-.509 1.715-.082 3.43-.083 5.128.229.732.134 1.386.398 1.687 1.315" style="fill:#fcfcfc;fill-rule:nonzero" transform="translate(945.623 115.862)scale(8.33333)"/><path d="M0-.092h1.527c1.43 0 1.43 0 1.396-1.409-.022-.888-.3-1.24-1.172-1.445C.7-3.193-.372-3.158-1.423-3.018c-1.221.162-1.439.492-1.44 1.748 0 .254.022.511-.005.763-.037.351.117.429.439.421C-1.62-.105-.81-.092 0-.092m-7.187 1.138c0-1.392-.008-2.783.002-4.174.009-1.204.508-1.894 1.643-2.29a7 7 0 0 1 1.832-.364c2.845-.201 5.688-.297 8.517.198q.687.12 1.311.431c.752.374 1.148.976 1.148 1.828-.002 2.922-.01 5.844.009 8.766.003.447-.156.541-.566.531a59 59 0 0 0-3.2.001c-.45.014-.619-.106-.595-.573.035-.671-.004-1.345.014-2.017.01-.329-.04-.497-.44-.494q-2.294.017-4.589-.039c-.616-.015-.841.196-.775.826.061.573-.01 1.159.021 1.737.022.411-.082.574-.532.561a54 54 0 0 0-3.269 0c-.436.012-.548-.123-.541-.546.025-1.46.01-2.921.01-4.382" style="fill:#fcfcfc;fill-rule:nonzero" transform="translate(495.135 81.458)scale(8.33333)"/><path d="M0-.066q-.002.731.001 1.462c.005.936.34 1.394 1.231 1.565a9.7 9.7 0 0 0 3.733.002c.865-.172 1.226-.625 1.236-1.498.011-1.045-.001-2.09.003-3.134.002-.701-.35-1.164-1.005-1.322a8.9 8.9 0 0 0-4.198.002c-.64.152-1.018.609-1.003 1.321C.009-1.134 0-.6 0-.066m10.487.055c0 1.113-.03 2.228.009 3.34.036 1.038-.485 1.655-1.383 2.016-1.089.437-2.242.542-3.401.608-2.572.147-5.139.194-7.683-.319-.547-.111-1.07-.293-1.531-.621-.522-.372-.823-.864-.822-1.522.001-2.366-.002-4.733.001-7.099.002-.878.519-1.418 1.256-1.756 1.223-.561 2.542-.652 3.865-.713 2.387-.11 4.769-.136 7.134.284q.684.12 1.319.407c.815.37 1.261.962 1.242 1.894-.024 1.16-.006 2.321-.006 3.481" style="fill:#fcfcfc;fill-rule:nonzero" transform="translate(739.433 83.214)scale(8.33333)"/><path d="M0-.286C0-1.4.011-2.515-.003-3.629c-.012-.946.422-1.585 1.274-1.958.752-.329 1.552-.465 2.361-.527 2.662-.206 5.324-.283 7.97.2.48.088.941.242 1.366.483.585.331.938.818.949 1.512.009.627-.004 1.254.026 1.879.017.354-.075.486-.456.478a81 81 0 0 0-3.343-.001c-.35.006-.468-.101-.524-.453-.133-.836-.476-1.126-1.32-1.268a8.4 8.4 0 0 0-2.768.014c-.804.135-1.183.544-1.201 1.366a61 61 0 0 0 .002 3.273c.03.971.394 1.382 1.35 1.56.849.158 1.715.144 2.565.021.917-.133 1.278-.537 1.343-1.481.026-.39.141-.514.529-.506 1.114.023 2.229.02 3.343.001.357-.006.495.095.48.468-.027.673-.018 1.347-.011 2.02.009.902-.443 1.469-1.252 1.809-.955.401-1.966.536-2.982.586-2.501.126-5.012.264-7.479-.316C.469 5.12 0 4.474 0 2.709z" style="fill:#fcfcfc;fill-rule:nonzero" transform="translate(569.069 84.208)scale(8.33333)"/><path d="M0-11.49c1.509 0 3.019.022 4.527-.013.48-.011.592.149.568.589a19 19 0 0 0-.002 1.81c.017.392-.044.564-.518.556-1.81-.029-3.621.001-5.432.006-1.688.005-2.276.713-2.004 2.363.073.44.371.269.577.271 2.159.012 4.318.026 6.477-.006.54-.008.732.122.685.68a14 14 0 0 0-.003 1.879c.022.412-.131.497-.514.494-2.229-.017-4.458.005-6.686-.019-.467-.006-.661.081-.621.593.048.623-.007 1.253.018 1.879.014.345-.115.434-.44.429A162 162 0 0 0-6.781.018c-.302.003-.47-.056-.462-.418.064-2.876-.135-5.757.114-8.628.147-1.703.896-2.393 2.602-2.443 1.508-.045 3.018-.01 4.527-.01z" style="fill:#fcfcfc;fill-rule:nonzero" transform="translate(378.636 130.683)scale(8.33333)"/><path d="M0 .055a2.916 2.916 0 0 0 2.967 2.931c1.648-.021 2.928-1.335 2.915-2.993C5.87-1.65 4.521-2.986 2.908-2.952 1.253-2.918-.006-1.616 0 .055m-13.728 2.848h10.902c-.55-1.289-.55-1.289-1.853-1.289-3.088 0-6.175-.009-9.263.011-.422.002-.673-.115-.887-.482-.509-.877-1.061-1.729-1.675-2.718h.823c3.691 0 7.383-.046 11.073.03 1.014.021 1.55-.299 1.812-1.315h-.73c-4.109 0-8.218-.009-12.327.011-.522.002-.758-.093-.704-.676a9.7 9.7 0 0 0 0-1.808c-.057-.593.196-.677.711-.674 4.295.017 8.589.01 12.884.01 2.949 0 5.897.007 8.845-.009.418-.002.667.111.887.488A225 225 0 0 0 9.815-.455c.229.368.219.625-.008.991a257 257 0 0 0-3.043 5.062c-.2.34-.421.467-.82.466q-8.637-.018-17.272-.001c-.369 0-.59-.101-.776-.43-.495-.879-1.028-1.736-1.624-2.73" style="fill:#fcfcfc;fill-rule:nonzero" transform="translate(168.305 81.86)scale(8.33333)"/><path d="M0 3.087c-.81 0-1.62-.013-2.429.006-.322.008-.476-.07-.439-.421.027-.252.005-.509.005-.763.001-1.256.219-1.586 1.44-1.748C-.372.021.7-.014 1.751.233c.872.205 1.15.557 1.172 1.445.034 1.409.034 1.409-1.396 1.409z" style="fill:#2c2624;fill-rule:nonzero" transform="translate(495.135 54.966)scale(8.33333)"/><path d="M0-.017c0-.534.009-1.068-.002-1.602-.016-.712.363-1.169 1.003-1.321a8.9 8.9 0 0 1 4.198-.002c.655.158 1.007.621 1.005 1.322C6.2-.576 6.212.469 6.201 1.514c-.01.873-.371 1.326-1.236 1.498a9.7 9.7 0 0 1-3.733-.002C.341 2.839.006 2.381 0 1.445-.003.958 0 .47 0-.017" style="fill:#2c2624;fill-rule:nonzero" transform="translate(739.434 82.806)scale(8.33333)"/><path d="M2.958-2.9C1.287-2.889-.002-1.616-.018.039c-.017 1.613 1.333 2.948 2.976 2.943C4.616 2.978 5.916 1.684 5.92.036A2.915 2.915 0 0 0 2.958-2.9" style="fill:#e30c18;fill-rule:nonzero" transform="scale(8.33333 -8.33333)rotate(-89.396 8.051 -15.1)"/></svg>