<?xml version="1.0" encoding="UTF-8" standalone="no"?>
<!DOCTYPE svg PUBLIC "-//W3C//DTD SVG 1.1//EN" "http://www.w3.org/Graphics/SVG/1.1/DTD/svg11.dtd">
<svg width="100%" height="100%" viewBox="0 0 1078 161" version="1.1" xmlns="http://www.w3.org/2000/svg" xmlns:xlink="http://www.w3.org/1999/xlink" xml:space="preserve" xmlns:serif="http://www.serif.com/" style="fill-rule:evenodd;clip-rule:evenodd;stroke-linejoin:round;stroke-miterlimit:2;">
    <g transform="matrix(1,0,0,1,-6.47248e-13,-0.183161)">
        <g transform="matrix(8.33333,0,0,8.33333,378.636,125.558)">
            <path d="M0,-10.853L0,-10.844C-1.509,-10.844 -3.019,-10.879 -4.527,-10.834C-6.233,-10.784 -6.982,-10.094 -7.129,-8.391C-7.378,-5.52 -7.179,-2.639 -7.243,0.237C-7.251,0.599 -7.083,0.658 -6.781,0.655C-5.643,0.647 -4.506,0.642 -3.368,0.658C-3.043,0.663 -2.914,0.574 -2.928,0.229C-2.953,-0.397 -2.898,-1.027 -2.946,-1.65C-2.986,-2.162 -2.792,-2.249 -2.325,-2.243C-0.097,-2.219 2.132,-2.241 4.361,-2.224C4.744,-2.221 4.897,-2.306 4.875,-2.718C4.841,-3.343 4.826,-3.975 4.878,-4.597C4.925,-5.155 4.733,-5.285 4.193,-5.277C2.034,-5.245 -0.125,-5.259 -2.284,-5.271C-2.49,-5.273 -2.788,-5.102 -2.861,-5.542C-3.133,-7.192 -2.545,-7.9 -0.857,-7.905C0.954,-7.91 2.765,-7.94 4.575,-7.911C5.049,-7.903 5.11,-8.075 5.093,-8.467C5.068,-9.07 5.062,-9.675 5.095,-10.277C5.119,-10.717 5.007,-10.877 4.527,-10.866C3.019,-10.831 1.509,-10.853 0,-10.853M22.852,-5.226L22.852,-2.231C22.852,-0.467 23.321,0.18 25.071,0.591C27.538,1.171 30.049,1.032 32.55,0.907C33.566,0.856 34.577,0.722 35.532,0.321C36.341,-0.019 36.793,-0.586 36.784,-1.488C36.777,-2.161 36.768,-2.835 36.795,-3.508C36.81,-3.881 36.672,-3.982 36.315,-3.976C35.201,-3.957 34.086,-3.954 32.972,-3.977C32.583,-3.985 32.469,-3.861 32.443,-3.472C32.378,-2.527 32.017,-2.123 31.1,-1.99C30.25,-1.867 29.384,-1.853 28.535,-2.011C27.579,-2.189 27.215,-2.6 27.185,-3.572C27.151,-4.662 27.158,-5.754 27.183,-6.845C27.201,-7.666 27.58,-8.076 28.384,-8.21C29.305,-8.363 30.228,-8.379 31.152,-8.224C31.996,-8.083 32.339,-7.792 32.472,-6.957C32.528,-6.604 32.646,-6.497 32.996,-6.504C34.11,-6.524 35.225,-6.527 36.339,-6.502C36.72,-6.494 36.812,-6.627 36.795,-6.98C36.765,-7.605 36.778,-8.233 36.768,-8.859C36.758,-9.553 36.405,-10.04 35.82,-10.371C35.395,-10.612 34.934,-10.766 34.454,-10.854C31.808,-11.337 29.146,-11.26 26.484,-11.054C25.675,-10.992 24.875,-10.856 24.123,-10.527C23.271,-10.155 22.837,-9.515 22.849,-8.569C22.863,-7.455 22.852,-6.341 22.852,-5.226M53.783,-5.071C53.783,-6.231 53.764,-7.391 53.789,-8.551C53.808,-9.483 53.362,-10.075 52.547,-10.445C52.124,-10.638 51.684,-10.772 51.228,-10.852C48.863,-11.272 46.48,-11.247 44.093,-11.137C42.771,-11.076 41.452,-10.985 40.228,-10.423C39.492,-10.086 38.974,-9.546 38.973,-8.668C38.969,-6.301 38.973,-3.934 38.971,-1.568C38.971,-0.91 39.271,-0.419 39.794,-0.046C40.255,0.282 40.778,0.464 41.324,0.574C43.868,1.088 46.436,1.041 49.008,0.894C50.167,0.828 51.32,0.722 52.408,0.285C53.306,-0.075 53.827,-0.692 53.792,-1.73C53.753,-2.842 53.783,-3.957 53.783,-5.071M6.793,-4.224C6.793,-2.763 6.808,-1.302 6.783,0.158C6.776,0.581 6.888,0.717 7.324,0.704C8.413,0.671 9.504,0.671 10.593,0.704C11.043,0.717 11.147,0.554 11.125,0.143C11.094,-0.435 11.165,-1.021 11.104,-1.594C11.038,-2.224 11.263,-2.435 11.879,-2.42C13.408,-2.382 14.939,-2.371 16.468,-2.381C16.868,-2.384 16.917,-2.216 16.908,-1.887C16.89,-1.215 16.929,-0.541 16.894,0.13C16.869,0.597 17.039,0.717 17.489,0.703C18.555,0.671 19.622,0.676 20.689,0.702C21.098,0.712 21.258,0.618 21.255,0.171C21.236,-2.751 21.244,-5.673 21.246,-8.595C21.246,-9.447 20.85,-10.049 20.098,-10.423C19.683,-10.63 19.244,-10.774 18.787,-10.854C15.958,-11.349 13.115,-11.253 10.27,-11.052C9.647,-11.008 9.03,-10.894 8.438,-10.688C7.303,-10.292 6.804,-9.602 6.795,-8.398C6.785,-7.007 6.793,-5.616 6.793,-4.224M68.038,-9.676C67.738,-10.593 67.083,-10.857 66.351,-10.991C64.653,-11.303 62.938,-11.302 61.223,-11.22C60.16,-11.169 59.096,-11.091 58.082,-10.711C57.016,-10.311 56.438,-9.58 56.43,-8.47C56.411,-5.57 56.43,-2.67 56.416,0.231C56.415,0.603 56.537,0.707 56.896,0.7C57.94,0.68 58.986,0.659 60.028,0.706C60.592,0.732 60.774,0.597 60.763,-0.002C60.724,-2.159 60.746,-4.317 60.749,-6.475C60.751,-7.571 61.12,-7.999 62.211,-8.232C62.948,-8.389 63.686,-8.378 64.422,-8.269C65.74,-8.075 65.995,-7.776 65.996,-6.469C65.997,-4.312 66.011,-2.154 65.985,0.004C65.979,0.517 66.068,0.74 66.652,0.708C67.647,0.653 68.648,0.66 69.644,0.706C70.197,0.732 70.341,0.565 70.334,0.016C70.301,-2.211 70.315,-4.439 70.322,-6.666C70.326,-7.695 70.648,-8.088 71.654,-8.289C72.272,-8.413 72.902,-8.374 73.527,-8.348C74.896,-8.29 75.347,-7.822 75.35,-6.46C75.355,-4.326 75.365,-2.191 75.34,-0.057C75.335,0.401 75.458,0.537 75.916,0.523C76.983,0.491 78.051,0.487 79.117,0.525C79.599,0.542 79.683,0.367 79.68,-0.068C79.662,-2.76 79.671,-5.451 79.671,-8.143C79.671,-9.939 79.202,-10.597 77.417,-11.004C74.995,-11.557 72.546,-11.533 70.099,-11.142C69.216,-11.001 68.449,-10.671 68.038,-9.676M83.849,-14.892C83.849,-8.743 83.843,-2.595 83.861,3.554C83.863,4.055 83.783,4.207 83.234,4.207C51.586,4.19 19.937,4.192 -11.711,4.192C-11.704,3.938 -11.69,3.683 -11.69,3.428C-11.688,-2.396 -11.691,-8.221 -11.687,-14.045C-11.686,-15.06 -11.825,-14.948 -10.818,-14.948C20.486,-14.95 51.79,-14.95 83.093,-14.947C83.345,-14.947 83.597,-14.911 83.849,-14.892" style="fill:rgb(44,38,36);fill-rule:nonzero;"/>
        </g>
        <g transform="matrix(8.33333,0,0,8.33333,53.9084,54.5582)">
            <path d="M0,6.201C0.595,7.195 1.129,8.052 1.624,8.931C1.809,9.26 2.031,9.361 2.399,9.361C8.157,9.35 13.914,9.349 19.671,9.362C20.071,9.363 20.291,9.236 20.491,8.896C21.489,7.199 22.499,5.508 23.535,3.834C23.761,3.468 23.771,3.211 23.543,2.843C22.506,1.169 21.49,-0.518 20.497,-2.219C20.278,-2.597 20.029,-2.71 19.611,-2.708C16.662,-2.692 13.714,-2.699 10.766,-2.699C6.471,-2.699 2.176,-2.692 -2.119,-2.709C-2.633,-2.711 -2.887,-2.628 -2.83,-2.035C-2.773,-1.437 -2.774,-0.825 -2.83,-0.226C-2.884,0.356 -2.648,0.451 -2.126,0.449C1.983,0.429 6.092,0.438 10.201,0.438L10.932,0.438C10.669,1.454 10.133,1.775 9.119,1.754C5.43,1.677 1.737,1.724 -1.954,1.724L-2.776,1.724C-2.163,2.712 -1.611,3.564 -1.101,4.441C-0.888,4.808 -0.637,4.926 -0.214,4.923C2.873,4.903 5.961,4.912 9.048,4.912C10.351,4.912 10.351,4.912 10.901,6.201L0,6.201ZM26.002,12.712C15.369,12.712 4.735,12.708 -5.898,12.726C-6.375,12.726 -6.47,12.632 -6.469,12.155C-6.448,6.119 -6.448,0.082 -6.469,-5.954C-6.47,-6.431 -6.375,-6.525 -5.898,-6.525C4.735,-6.507 15.369,-6.511 26.002,-6.511C25.992,-1.886 25.979,2.74 25.975,7.366C25.974,9.148 25.992,10.93 26.002,12.712" style="fill:rgb(227,12,24);fill-rule:nonzero;"/>
        </g>
        <g transform="matrix(8.33333,0,0,8.33333,945.623,116.045)">
            <path d="M0,-8.534C0.41,-9.529 1.178,-9.86 2.06,-10.001C4.507,-10.392 6.956,-10.416 9.378,-9.863C11.164,-9.455 11.632,-8.797 11.632,-7.001C11.633,-4.31 11.623,-1.618 11.642,1.073C11.645,1.509 11.56,1.683 11.079,1.666C10.013,1.628 8.944,1.632 7.878,1.665C7.419,1.679 7.296,1.543 7.302,1.085C7.327,-1.049 7.316,-3.184 7.311,-5.319C7.308,-6.681 6.858,-7.148 5.489,-7.206C4.864,-7.232 4.234,-7.271 3.615,-7.148C2.61,-6.947 2.287,-6.554 2.284,-5.524C2.277,-3.297 2.263,-1.069 2.295,1.158C2.303,1.707 2.159,1.873 1.606,1.848C0.61,1.801 -0.391,1.795 -1.386,1.85C-1.971,1.882 -2.059,1.659 -2.053,1.146C-2.028,-1.012 -2.042,-3.17 -2.043,-5.328C-2.044,-6.634 -2.298,-6.933 -3.616,-7.128C-4.353,-7.236 -5.091,-7.247 -5.828,-7.09C-6.918,-6.858 -7.288,-6.429 -7.29,-5.333C-7.293,-3.176 -7.315,-1.017 -7.275,1.14C-7.264,1.739 -7.446,1.874 -8.011,1.848C-9.053,1.801 -10.099,1.822 -11.142,1.841C-11.501,1.848 -11.624,1.745 -11.622,1.372C-11.609,-1.528 -11.627,-4.428 -11.608,-7.329C-11.601,-8.438 -11.022,-9.169 -9.956,-9.569C-8.943,-9.95 -7.878,-10.027 -6.815,-10.078C-5.1,-10.16 -3.385,-10.161 -1.687,-9.849C-0.955,-9.715 -0.301,-9.451 0,-8.534" style="fill:rgb(252,252,252);fill-rule:nonzero;"/>
        </g>
        <g transform="matrix(8.33333,0,0,8.33333,495.135,81.6415)">
            <path d="M0,-0.092L1.527,-0.092C2.957,-0.092 2.957,-0.092 2.923,-1.501C2.901,-2.389 2.623,-2.741 1.751,-2.946C0.7,-3.193 -0.372,-3.158 -1.423,-3.018C-2.644,-2.856 -2.862,-2.526 -2.863,-1.27C-2.863,-1.016 -2.841,-0.759 -2.868,-0.507C-2.905,-0.156 -2.751,-0.078 -2.429,-0.086C-1.62,-0.105 -0.81,-0.092 0,-0.092M-7.187,1.046C-7.187,-0.346 -7.195,-1.737 -7.185,-3.128C-7.176,-4.332 -6.677,-5.022 -5.542,-5.418C-4.95,-5.624 -4.333,-5.738 -3.71,-5.782C-0.865,-5.983 1.978,-6.079 4.807,-5.584C5.264,-5.504 5.703,-5.36 6.118,-5.153C6.87,-4.779 7.266,-4.177 7.266,-3.325C7.264,-0.403 7.256,2.519 7.275,5.441C7.278,5.888 7.119,5.982 6.709,5.972C5.643,5.946 4.575,5.941 3.509,5.973C3.059,5.987 2.89,5.867 2.914,5.4C2.949,4.729 2.91,4.055 2.928,3.383C2.938,3.054 2.888,2.886 2.488,2.889C0.959,2.899 -0.571,2.888 -2.101,2.85C-2.717,2.835 -2.942,3.046 -2.876,3.676C-2.815,4.249 -2.886,4.835 -2.855,5.413C-2.833,5.824 -2.937,5.987 -3.387,5.974C-4.476,5.941 -5.567,5.941 -6.656,5.974C-7.092,5.986 -7.204,5.851 -7.197,5.428C-7.172,3.968 -7.187,2.507 -7.187,1.046" style="fill:rgb(252,252,252);fill-rule:nonzero;"/>
        </g>
        <g transform="matrix(8.33333,0,0,8.33333,739.433,83.3973)">
            <path d="M0,-0.066C0,0.421 -0.002,0.909 0.001,1.396C0.006,2.332 0.341,2.79 1.232,2.961C2.473,3.199 3.724,3.211 4.965,2.963C5.83,2.791 6.191,2.338 6.201,1.465C6.212,0.42 6.2,-0.625 6.204,-1.669C6.206,-2.37 5.854,-2.833 5.199,-2.991C3.806,-3.326 2.392,-3.321 1.001,-2.989C0.361,-2.837 -0.017,-2.38 -0.002,-1.668C0.009,-1.134 0,-0.6 0,-0.066M10.487,-0.011C10.487,1.102 10.457,2.217 10.496,3.329C10.532,4.367 10.011,4.984 9.113,5.345C8.024,5.782 6.871,5.887 5.712,5.953C3.14,6.1 0.573,6.147 -1.971,5.634C-2.518,5.523 -3.041,5.341 -3.502,5.013C-4.024,4.641 -4.325,4.149 -4.324,3.491C-4.323,1.125 -4.326,-1.242 -4.323,-3.608C-4.321,-4.486 -3.804,-5.026 -3.067,-5.364C-1.844,-5.925 -0.525,-6.016 0.798,-6.077C3.185,-6.187 5.567,-6.213 7.932,-5.793C8.388,-5.712 8.828,-5.578 9.251,-5.386C10.066,-5.016 10.512,-4.424 10.493,-3.492C10.469,-2.332 10.487,-1.171 10.487,-0.011" style="fill:rgb(252,252,252);fill-rule:nonzero;"/>
        </g>
        <g transform="matrix(8.33333,0,0,8.33333,569.069,84.3907)">
            <path d="M0,-0.286C0,-1.4 0.011,-2.515 -0.003,-3.629C-0.015,-4.575 0.419,-5.214 1.271,-5.587C2.023,-5.916 2.823,-6.052 3.632,-6.114C6.294,-6.32 8.956,-6.397 11.602,-5.914C12.082,-5.826 12.543,-5.672 12.968,-5.431C13.553,-5.1 13.906,-4.613 13.917,-3.919C13.926,-3.292 13.913,-2.665 13.943,-2.04C13.96,-1.686 13.868,-1.554 13.487,-1.562C12.373,-1.587 11.258,-1.584 10.144,-1.563C9.794,-1.557 9.676,-1.664 9.62,-2.016C9.487,-2.852 9.144,-3.142 8.3,-3.284C7.376,-3.439 6.453,-3.423 5.532,-3.27C4.728,-3.135 4.349,-2.726 4.331,-1.904C4.306,-0.814 4.299,0.279 4.333,1.369C4.363,2.34 4.727,2.751 5.683,2.929C6.532,3.087 7.398,3.073 8.248,2.95C9.165,2.817 9.526,2.413 9.591,1.469C9.617,1.079 9.732,0.955 10.12,0.963C11.234,0.986 12.349,0.983 13.463,0.964C13.82,0.958 13.958,1.059 13.943,1.432C13.916,2.105 13.925,2.779 13.932,3.452C13.941,4.354 13.489,4.921 12.68,5.261C11.725,5.662 10.714,5.797 9.698,5.847C7.197,5.973 4.686,6.111 2.219,5.531C0.469,5.12 0,4.474 0,2.709L0,-0.286" style="fill:rgb(252,252,252);fill-rule:nonzero;"/>
        </g>
        <g transform="matrix(8.33333,0,0,8.33333,378.636,130.866)">
            <path d="M0,-11.49C1.509,-11.49 3.019,-11.468 4.527,-11.503C5.007,-11.514 5.119,-11.354 5.095,-10.914C5.062,-10.312 5.068,-9.707 5.093,-9.104C5.11,-8.712 5.049,-8.54 4.575,-8.548C2.765,-8.577 0.954,-8.547 -0.857,-8.542C-2.545,-8.537 -3.133,-7.829 -2.861,-6.179C-2.788,-5.739 -2.49,-5.91 -2.284,-5.908C-0.125,-5.896 2.034,-5.882 4.193,-5.914C4.733,-5.922 4.925,-5.792 4.878,-5.234C4.826,-4.612 4.841,-3.98 4.875,-3.355C4.897,-2.943 4.744,-2.858 4.361,-2.861C2.132,-2.878 -0.097,-2.856 -2.325,-2.88C-2.792,-2.886 -2.986,-2.799 -2.946,-2.287C-2.898,-1.664 -2.953,-1.034 -2.928,-0.408C-2.914,-0.063 -3.043,0.026 -3.368,0.021C-4.506,0.005 -5.643,0.01 -6.781,0.018C-7.083,0.021 -7.251,-0.038 -7.243,-0.4C-7.179,-3.276 -7.378,-6.157 -7.129,-9.028C-6.982,-10.731 -6.233,-11.421 -4.527,-11.471C-3.019,-11.516 -1.509,-11.481 0,-11.481L0,-11.49Z" style="fill:rgb(252,252,252);fill-rule:nonzero;"/>
        </g>
        <g transform="matrix(8.33333,0,0,8.33333,168.305,82.0423)">
            <path d="M0,0.055C0.006,1.706 1.323,3.007 2.967,2.986C4.615,2.965 5.895,1.651 5.882,-0.007C5.87,-1.65 4.521,-2.986 2.908,-2.952C1.253,-2.918 -0.006,-1.616 0,0.055M-13.728,2.903L-2.826,2.903C-3.376,1.614 -3.376,1.614 -4.679,1.614C-7.767,1.614 -10.854,1.605 -13.942,1.625C-14.364,1.627 -14.615,1.51 -14.829,1.143C-15.338,0.266 -15.89,-0.586 -16.504,-1.575L-15.681,-1.575C-11.99,-1.575 -8.298,-1.621 -4.608,-1.545C-3.594,-1.524 -3.058,-1.844 -2.796,-2.86L-3.526,-2.86C-7.635,-2.86 -11.744,-2.869 -15.853,-2.849C-16.375,-2.847 -16.611,-2.942 -16.557,-3.525C-16.501,-4.123 -16.5,-4.735 -16.557,-5.333C-16.614,-5.926 -16.361,-6.01 -15.846,-6.007C-11.551,-5.99 -7.257,-5.997 -2.962,-5.997C-0.013,-5.997 2.935,-5.99 5.883,-6.006C6.301,-6.008 6.55,-5.895 6.77,-5.518C7.762,-3.817 8.779,-2.129 9.815,-0.455C10.044,-0.087 10.034,0.17 9.807,0.536C8.771,2.21 7.761,3.901 6.764,5.598C6.564,5.938 6.343,6.065 5.944,6.064C0.186,6.051 -5.571,6.052 -11.328,6.063C-11.697,6.063 -11.918,5.962 -12.104,5.633C-12.599,4.754 -13.132,3.897 -13.728,2.903" style="fill:rgb(252,252,252);fill-rule:nonzero;"/>
        </g>
        <g transform="matrix(8.33333,0,0,8.33333,495.135,55.149)">
            <path d="M0,3.087C-0.81,3.087 -1.62,3.074 -2.429,3.093C-2.751,3.101 -2.905,3.023 -2.868,2.672C-2.841,2.42 -2.863,2.163 -2.863,1.909C-2.862,0.653 -2.644,0.323 -1.423,0.161C-0.372,0.021 0.7,-0.014 1.751,0.233C2.623,0.438 2.901,0.79 2.923,1.678C2.957,3.087 2.957,3.087 1.527,3.087L0,3.087" style="fill:rgb(44,38,36);fill-rule:nonzero;"/>
        </g>
        <g transform="matrix(8.33333,0,0,8.33333,739.434,82.989)">
            <path d="M0,-0.017C0,-0.551 0.009,-1.085 -0.002,-1.619C-0.018,-2.331 0.361,-2.788 1.001,-2.94C2.392,-3.272 3.805,-3.277 5.199,-2.942C5.854,-2.784 6.206,-2.321 6.204,-1.62C6.2,-0.576 6.212,0.469 6.201,1.514C6.191,2.387 5.83,2.84 4.965,3.012C3.724,3.26 2.472,3.248 1.232,3.01C0.341,2.839 0.006,2.381 0,1.445C-0.003,0.958 0,0.47 0,-0.017" style="fill:rgb(44,38,36);fill-rule:nonzero;"/>
        </g>
        <g transform="matrix(0.0878337,8.33287,8.33287,-0.0878337,192.213,57.5976)">
            <path d="M2.958,-2.9C1.287,-2.889 -0.002,-1.616 -0.018,0.039C-0.035,1.652 1.315,2.987 2.958,2.982C4.616,2.978 5.916,1.684 5.92,0.036C5.924,-1.608 4.609,-2.912 2.958,-2.9" style="fill:rgb(227,12,24);fill-rule:nonzero;"/>
        </g>
    </g>
</svg>
