<svg xmlns="http://www.w3.org/2000/svg" xml:space="preserve" style="fill-rule:evenodd;clip-rule:evenodd;stroke-linejoin:round;stroke-miterlimit:2" viewBox="0 0 626 216"><path d="M0-3.996h1.281c.191.042.38.093.574.123.942.149 1.901.409 2.693.989C5.46-2.151 6.112-1.11 6.545 0c-.389-.007-.779-.001-1.166-.049-.582-.062-1.169.016-1.75-.06-.595-.094-1.198-.001-1.795-.074C1.215-.266.587-.175-.032-.255c-.619-.093-1.245-.001-1.864-.074-.62-.081-1.248.008-1.867-.073-.572-.089-1.153-.002-1.726-.071-.45-.059-.903-.031-1.354-.043 1.096-.808 2.252-1.521 3.42-2.205.673-.439 1.415-.747 2.172-.982.409-.132.841-.16 1.251-.293" style="fill:#fed200;fill-rule:nonzero" transform="translate(565.91 33.302)scale(8.33333)"/><path d="M0-6.712c.128-.084.248-.209.408-.208a7 7 0 0 1 1.017.028c.637.103 1.283.009 1.922.08.661.082 1.332-.013 1.993.081.515.074 1.035.005 1.552.053.746.095 1.499.008 2.245.09.506.065 1.016.009 1.522.074.643.076 1.294-.021 1.936.073.534.081 1.075.001 1.611.059.658.087 1.324.01 1.984.068.068.3.105.606.18.904v1.612c-.097.327-.094.674-.158 1.008-.17 1.027-.396 2.055-.792 3.013-.085-.296-.069-.609-.125-.91-.132-.7-.377-1.382-.77-1.966-.696-1.125-1.816-1.906-3.02-2.298-1.065-.333-2.187-.369-3.29-.327a10.5 10.5 0 0 0-3.439.898A49.8 49.8 0 0 1-4.1-1.429c-.834.186-1.679.338-2.533.377-.531.006-1.062-.003-1.593.002-1.024.027-2.04-.145-3.04-.361a12.35 12.35 0 0 1-6.506-3.835c-.232-.254-.481-.503-.622-.83.551.399 1.047.881 1.632 1.229 1.815 1.196 3.963 1.725 6.084 1.827.542.085 1.085-.021 1.628-.028 1.568-.137 3.108-.55 4.568-1.163A22.3 22.3 0 0 0 0-6.712" style="fill:#fed200;fill-rule:nonzero" transform="translate(489.403 99.127)scale(8.33333)"/><path d="M0-13.015q3.1.005 6.201.001.01.564.004 1.129c-1.657.008-3.314-.01-4.97.008-.012 3.958.007 7.916-.01 11.874C.817-.003.408-.005 0 0z" style="fill:#fed200;fill-rule:nonzero" transform="translate(-.006 213.16)scale(8.33333)"/><path d="M1.876-2.398c-.29 1.221-.588 2.441-.868 3.665.287.071.575.144.868.189.319-1.207.578-2.429.884-3.64a30 30 0 0 0-.884-.214" style="fill:#fed200;fill-rule:nonzero" transform="scale(-8.33333 8.33333)rotate(76.602 -13.428 5.473)"/><path d="M0-10.869c-1.245.203-2.398.927-3.186 1.96-1.387 1.709-1.555 4.338-.525 6.285C-3.105-1.512-2.138-.617-1-.156.417.38 2.048.313 3.391-.429a5.57 5.57 0 0 0 2.166-2.243c.824-1.594.838-3.606.087-5.232C5.072-9.051 4.138-10.009 3-10.512c-.938-.439-1.994-.484-3-.357m-.023-1.184c1.35-.176 2.768.014 3.985.678.929.49 1.718 1.248 2.336 2.124 1.173 1.688 1.425 3.967.864 5.951C6.619-1.472 5.258.036 3.608.807c-.624.305-1.307.414-1.975.553H.363C-.983 1.223-2.326.727-3.351-.227c-.983-.868-1.753-2.036-2.065-3.358-.351-1.484-.275-3.099.31-4.507.899-2.12 2.886-3.706 5.083-3.961" style="fill:#656364;fill-rule:nonzero" transform="translate(559.22 203.785)scale(8.33333)"/><path d="M0-13.044c.407.003.815 0 1.222.003.002 4.342-.002 8.684.002 13.026C.801-.003.377 0-.046-.018c.016-3.983.002-7.966.007-11.949.006-.359-.028-.723.039-1.077" style="fill:#656364;fill-rule:nonzero" transform="translate(68.536 213.36)scale(8.33333)"/><path d="M0-10.648Q-.008-5.311.001.026C.882.029 1.762.025 2.643.029c.414-.011.831-.08 1.222-.232a2.18 2.18 0 0 0 1.273-1.222c.308-.768.278-1.698-.142-2.414-.376-.594-1.002-.971-1.657-1.111-.341-.087-.696-.068-1.041-.128a74 74 0 0 1-.003-1.157c.717-.018 1.488-.256 1.95-.869.462-.681.517-1.637.154-2.379-.246-.52-.75-.847-1.261-1.016-.471-.166-.974-.156-1.465-.156-.557.005-1.115-.008-1.673.007m-1.24-1.194c1.157.004 2.314-.001 3.47.002.933.05 1.917.253 2.65.905.49.399.805 1.001.93 1.635.163.781.085 1.628-.256 2.346-.236.49-.654.832-1.047 1.172.821.361 1.576 1.026 1.869 1.936.235.646.238 1.354.176 2.033-.101.852-.522 1.655-1.18 2.167-.736.599-1.684.791-2.592.839q-2.018.002-4.037 0c-.011-4.083-.001-8.166-.005-12.25-.002-.262-.006-.524.022-.785" style="fill:#656364;fill-rule:nonzero" transform="translate(109.836 203.352)scale(8.33333)"/><path d="M0-13.044q1.856 0 3.711-.001c1.129.002 2.32.212 3.247.936.793.609 1.301 1.587 1.384 2.616.085.89.01 1.837-.412 2.63-.443.91-1.303 1.523-2.214 1.814-.321.11-.654.169-.983.242.737 1.061 1.53 2.08 2.279 3.132.394.561.831 1.088 1.203 1.665-.526-.003-1.052.011-1.578-.009-.869-1.292-1.816-2.523-2.694-3.808a65 65 0 0 1-1.011-1.408c-.164-.234-.356-.452-.471-.721.168.008.337.016.506.007.659-.027 1.329.05 1.976-.122.724-.182 1.436-.604 1.816-1.302.326-.567.391-1.253.34-1.901-.06-.804-.476-1.587-1.132-2.012-.626-.423-1.382-.579-2.117-.571-.875.003-1.75-.011-2.624.007-.002 3.947 0 7.893-.002 11.84-.409 0-.818.005-1.226-.006C.001-4.359-.003-8.701 0-13.044" style="fill:#656364;fill-rule:nonzero" transform="translate(178.628 213.385)scale(8.33333)"/><path d="M0-13.028q.689-.01 1.379.001c1.076 2.699 2.182 5.385 3.278 8.075A733 733 0 0 0 6.675 0c-.456.004-.913.007-1.37-.002a4412 4412 0 0 1-3.478-8.739c-.393-.97-.766-1.95-1.173-2.912-.141.255-.228.537-.338.808C-1.125-7.233-2.542-3.609-3.995-.001Q-4.646.008-5.299 0C-3.539-4.346-1.755-8.681 0-13.028" style="fill:#656364;fill-rule:nonzero" transform="translate(299.103 213.277)scale(8.33333)"/><path d="M0-13.254c.411.001.822.004 1.233.001.011 2.912 0 5.824.005 8.737.048.975.374 1.983 1.08 2.646.463.475 1.118.674 1.749.706.79.036 1.625-.221 2.177-.84.653-.724.882-1.763.884-2.736.003-2.837 0-5.674.001-8.511q.62-.005 1.24.001c.03.406.017.813.018 1.219v5.469c-.007 1.319.076 2.687-.377 3.945C7.658-1.568 6.879-.659 5.874-.288c-.337.136-.696.191-1.043.289H3.765C2.756-.092 1.759-.552 1.101-1.38.353-2.306.015-3.537-.007-4.738 0-7.577-.014-10.415 0-13.254" style="fill:#656364;fill-rule:nonzero" transform="translate(366.786 215.11)scale(8.33333)"/><path d="M0-13.035q3.448.002 6.898-.001c.009.39.006.78.005 1.169-.944.042-1.889 0-2.832.027-.002 3.947.002 7.893-.002 11.839q-.62.003-1.241 0-.002-5.935-.001-11.869c-.942.044-1.887.022-2.831.008-.003-.391-.006-.782.004-1.173" style="fill:#656364;fill-rule:nonzero" transform="translate(447.96 213.302)scale(8.33333)"/></svg>
