<?xml version="1.0" encoding="UTF-8" standalone="no"?>
<!DOCTYPE svg PUBLIC "-//W3C//DTD SVG 1.1//EN" "http://www.w3.org/Graphics/SVG/1.1/DTD/svg11.dtd">
<svg width="100%" height="100%" viewBox="0 0 345 256" version="1.1" xmlns="http://www.w3.org/2000/svg" xmlns:xlink="http://www.w3.org/1999/xlink" xml:space="preserve" style="fill-rule:evenodd;clip-rule:evenodd;stroke-linejoin:round;stroke-miterlimit:2;">
    <path d="M284.979,255.579C286.375,223.175 254.996,228.746 214.158,230.433C166.942,232.413 112.25,216.796 92.233,156.529C86.075,138.2 86.221,116.425 90.692,97.146C87.1,88.492 85.267,78.888 85.267,68.404C85.267,62.246 86.075,56.308 87.612,50.588L68.113,50.588L68.113,35.925L46.704,35.925L46.704,58.508L75.371,58.508L75.371,86.808L46.704,86.808L46.704,110.854L59.167,110.854L59.167,137.175L0,137.175L0,110.854L13.196,110.854L13.196,35.925L0,35.925L0,9.75L98.025,9.75L98.025,28.813C100.371,25.588 103.008,22.508 105.942,19.65C119.358,6.6 136.221,0 155.579,0C173.979,0 190.771,6.746 203.967,19.796C217.825,33.213 225.083,50.442 225.083,68.771C225.083,88.054 218.192,105.283 205.358,118.554C202.867,121.121 200.154,123.467 197.367,125.592C198.25,132.704 201.621,137.1 208.733,141.208C233.658,155.946 255.95,143.7 283.883,157.117C322.446,175.667 323.254,237.4 284.979,255.579ZM293.558,238.646C282.929,200.008 197.075,237.033 176.912,204.188C203.529,211.371 230.067,207.121 256.683,208.658C257.563,190.108 216.429,197.15 204.921,183.729C227.062,187.471 249.792,183.512 272.225,185.346C268.854,166.063 232.779,177.133 218.262,156.238C234.467,161.075 247.958,162.175 263.058,162.983C288.279,164.304 302.8,183.658 304.704,203.529C305.804,215.771 300.746,228.821 293.558,238.646ZM164.229,212.983C129.112,202.575 101.837,164.229 99.783,129.258C98.246,104.696 106.017,71.996 120.458,56.529C146.046,29.108 183.292,33.358 189.158,57.479C192.971,72.95 187.912,92.308 186.371,109.463C184.979,124.346 188.571,139.596 203.746,150.592C208.954,161.883 215.404,172.296 228.233,176.108C213.425,176.692 199.054,174.129 184.904,169.508C191.942,186.075 206.167,197.15 231.021,200.229C202.942,203.746 177.279,197.733 152.938,186.958C154.7,196.783 157.558,204.775 164.229,212.983ZM262.4,111L279.042,93.258L295.1,111L287.183,111L287.183,137.175L344.075,137.175L344.075,111L333.958,111L299.058,72.513L333.737,35.925L342.829,35.925L342.829,9.75L285.933,9.75L285.933,35.925L293.925,35.925L279.629,50.588L266.358,35.925L274.058,35.925L274.058,9.75L217.162,9.75L217.162,35.925L226.254,35.925L259.613,71.925L222.517,111L213.204,111L213.204,137.175L270.1,137.175L270.1,111L262.4,111Z" style="fill:rgb(255,102,0);"/>
</svg>
