<svg xmlns="http://www.w3.org/2000/svg" xml:space="preserve" style="fill-rule:evenodd;clip-rule:evenodd;stroke-linejoin:round;stroke-miterlimit:2" viewBox="0 0 345 256"><path d="M284.979 255.579c1.396-32.404-29.983-26.833-70.821-25.146-47.216 1.98-101.908-13.637-121.925-73.904-6.158-18.329-6.012-40.104-1.541-59.383-3.592-8.654-5.425-18.258-5.425-28.742a68.4 68.4 0 0 1 2.345-17.816H68.113V35.925H46.704v22.583h28.667v28.3H46.704v24.046h12.463v26.321H0v-26.321h13.196V35.925H0V9.75h98.025v19.063a71.5 71.5 0 0 1 7.917-9.163C119.358 6.6 136.221 0 155.579 0c18.4 0 35.192 6.746 48.388 19.796 13.858 13.417 21.116 30.646 21.116 48.975 0 19.283-6.891 36.512-19.725 49.783-2.491 2.567-5.204 4.913-7.991 7.038.883 7.112 4.254 11.508 11.366 15.616 24.925 14.738 47.217 2.492 75.15 15.909 38.563 18.55 39.371 80.283 1.096 98.462m8.579-16.933c-10.629-38.638-96.483-1.613-116.646-34.458 26.617 7.183 53.155 2.933 79.771 4.47.88-18.55-40.254-11.508-51.762-24.929 22.141 3.742 44.871-.217 67.304 1.617-3.371-19.283-39.446-8.213-53.963-29.108 16.205 4.837 29.696 5.937 44.796 6.745 25.221 1.321 39.742 20.675 41.646 40.546 1.1 12.242-3.958 25.292-11.146 35.117m-129.329-25.663c-35.117-10.408-62.392-48.754-64.446-83.725-1.537-24.562 6.234-57.262 20.675-72.729 25.588-27.421 62.834-23.171 68.7.95 3.813 15.471-1.246 34.829-2.787 51.984-1.392 14.883 2.2 30.133 17.375 41.129 5.208 11.291 11.658 21.704 24.487 25.516-14.808.584-29.179-1.979-43.329-6.6 7.038 16.567 21.263 27.642 46.117 30.721-28.079 3.517-53.742-2.496-78.083-13.271 1.762 9.825 4.62 17.817 11.291 26.025M262.4 111l16.642-17.742L295.1 111h-7.917v26.175h56.892V111h-10.117l-34.9-38.487 34.679-36.588h9.092V9.75h-56.896v26.175h7.992l-14.296 14.663-13.271-14.663h7.7V9.75h-56.896v26.175h9.092l33.359 36L222.517 111h-9.313v26.175H270.1V111z" style="fill:#f60"/></svg>