<svg xmlns="http://www.w3.org/2000/svg" xml:space="preserve" style="fill-rule:evenodd;clip-rule:evenodd;stroke-linejoin:round;stroke-miterlimit:2" viewBox="0 0 531 524"><path d="M0-.652a.96.96 0 0 1 .23-.518q.234-.251.632-.189a.65.65 0 0 1 .547.447q.105.292.043.678a2 2 0 0 1-.07.306l-.209.036a1.2 1.2 0 0 0 .067-.26 1.15 1.15 0 0 0-.03-.572.51.51 0 0 0-.428-.351q-.233-.036-.375.122a.74.74 0 0 0-.186.405L.127.043 2.719.45l-.047.298L-.152.304z" style="fill:#0f4395;fill-rule:nonzero" transform="translate(7.737 214.722)scale(8.33333)"/><path d="M0-.873 2.498.03l.471-1.284.189.068L2.583.381-.104-.59z" style="fill:#0f4395;fill-rule:nonzero" transform="translate(14.206 189.996)scale(8.33333)"/><path d="m0-2.241.763.965.425-.866zm-.254.061.162-.328 3.07.226-.148.302-1.431-.136-.486.988.959 1.097-.146.298z" style="fill:#0f4395" transform="translate(28.418 170.175)scale(8.33333)"/><path d="M0 .386Q-.29.213-.275-.1q.013-.25.199-.559.093-.153.207-.293.062-.077.135-.148l.219.092A2.3 2.3 0 0 0 .1-.545q-.14.23-.103.424.031.172.178.26.23.137.65-.004.375-.141.747-.287.444-.131.722.035a.6.6 0 0 1 .281.41.73.73 0 0 1-.106.546 3 3 0 0 1-.278.394 1.2 1.2 0 0 1-.273.253l-.249-.109q.137-.077.296-.225.155-.15.254-.313a.65.65 0 0 0 .114-.393Q2.314.238 2.087.101q-.179-.107-.601.038L.713.41Q.253.538 0 .386" style="fill:#0f4395;fill-rule:nonzero" transform="translate(41.234 130.068)scale(8.33333)"/><path d="M0 .812-.158.689 1.123-.94l.159.123-.556.706 2.095 1.625-.186.238L.539.126z" style="fill:#0f4395;fill-rule:nonzero" transform="translate(53.295 101.592)scale(8.33333)"/><path d="M-.463-1.213h2.849v.302H-.463z" style="fill:#0f4395" transform="scale(8.33334 -8.33334)rotate(-41.8 -7.49 -17.535)"/><path d="M0-2.28a4 4 0 0 1 .557-.407l.251.175a3 3 0 0 0-.362.204 2 2 0 0 0-.299.222q-.404.36-.446.776-.05.466.377.937.448.495.945.497.433.002.83-.354.146-.13.267-.29.123-.162.224-.349l.155.222q-.24.34-.5.572Q1.45.416.888.387.328.352-.148-.172q-.503-.555-.443-1.111Q-.537-1.8 0-2.28" style="fill:#0f4395;fill-rule:nonzero" transform="translate(94.875 80.333)scale(8.33333)"/><path d="M-.815-1.446h2.843v.303H-.815z" style="fill:#0f4395" transform="scale(8.33333 -8.33333)rotate(-58.819 4.917 -17.583)"/><path d="M0-1.887 2.731-.316l-1.04-2.319.246-.108L3.1-.149l-.34.15L.046-1.545 1.073.747.827.856-.336-1.739z" style="fill:#0f4395;fill-rule:nonzero" transform="translate(152.323 40.445)scale(8.33333)"/><path d="M0-3.109.603-1.02q.1.347-.044.6-.143.248-.512.353a1.8 1.8 0 0 1-.582.064l-.097-.215q.155 0 .311-.013.16-.015.276-.048.237-.067.329-.213.108-.168.028-.445l-.604-2.089z" style="fill:#0f4395;fill-rule:nonzero" transform="translate(193.879 35.252)scale(8.33333)"/><path d="m0-3.076.031.197-1.422.224.174 1.09 1.291-.203.032.197-1.292.203.179 1.123L.382-.463l.032.197L-1.275 0l-.448-2.805z" style="fill:#0f4395;fill-rule:nonzero" transform="translate(225.818 28.447)scale(8.33333)"/><path d="M0-2.978q.29-.015.691.032l.084.293a3 3 0 0 0-.784-.082q-.542.028-.839.324-.333.331-.3.963.035.666.42.977.336.272.869.244.196-.01.391-.058.198-.05.395-.131l-.02.268a3.3 3.3 0 0 1-.751.133Q-.582.023-1-.35q-.414-.378-.451-1.082-.039-.746.359-1.141.37-.368 1.092-.405" style="fill:#0f4395;fill-rule:nonzero" transform="translate(254.272 24.846)scale(8.33333)"/><path d="m0-2.499.01-.199 2.079.108-.01.199-.901-.047L1.039.199.736.183l.139-2.636z" style="fill:#0f4395;fill-rule:nonzero" transform="translate(273.806 22.859)scale(8.33333)"/><path d="M-1.794-1.531h2.841v.304h-2.841z" style="fill:#0f4395" transform="scale(-8.33333 8.33333)rotate(80.946 -20.39 -21.004)"/><path d="M0-2.401q-.585-.146-1.002.15-.385.272-.522.816a1.2 1.2 0 0 0 .053.77q.208.502.835.657Q.011.152.42-.162q.328-.252.453-.75.144-.576-.093-.963-.232-.39-.78-.526m.086-.219q.676.167.965.632.288.466.132 1.087a2 2 0 0 1-.223.553 1.3 1.3 0 0 1-.558.523q-.44.206-1.033.059-.743-.184-1.025-.705-.265-.49-.089-1.19.14-.56.628-.837.519-.292 1.203-.122" style="fill:#0f4395" transform="translate(336.188 31.827)scale(8.33333)"/><path d="M0-3.315.543-.228l1.121-2.281.242.117L.652.16.318-.002-.235-3.06-1.342-.805l-.242-.118L-.33-3.475z" style="fill:#0f4395;fill-rule:nonzero" transform="translate(369.448 49.87)scale(8.33333)"/><path d="M0-3.534-.752-.896l2.396-1.363.343.267L.227.246.015.081 1.57-1.896-.807-.557l-.236-.183.733-2.614-1.555 1.977-.212-.165 1.76-2.238z" style="fill:#0f4395;fill-rule:nonzero" transform="translate(421.983 82.455)scale(8.33333)"/><path d="M0-1.667q-.403-.445-.915-.432-.474.01-.893.386a1.2 1.2 0 0 0-.389.668q-.11.532.322 1.009.446.492.963.459.413-.027.797-.371.445-.397.466-.85.027-.453-.351-.869m.195-.134q.466.514.443 1.06-.022.546-.502.975A2 2 0 0 1-.36.569a1.3 1.3 0 0 1-.757.122q-.48-.072-.89-.524-.512-.564-.453-1.154.056-.553.596-1.035.432-.387.993-.346.594.047 1.066.567" style="fill:#0f4395" transform="translate(458.818 103.75)scale(8.33333)"/><path d="m0 .853-1.645.982q-.451.269-.816.135-.362-.136-.689-.678-.262-.433-.229-.815.04-.435.462-.686l1.671-.997.156.258-1.645.982q-.384.229-.402.596a.98.98 0 0 0 .159.559q.203.335.465.456.334.156.712-.069L-.156.595z" style="fill:#0f4395;fill-rule:nonzero" transform="translate(489.955 123.267)scale(8.33333)"/><path d="m0-2.129-2.429 1.074.56 1.248-.184.082-.683-1.524 2.613-1.155z" style="fill:#0f4395;fill-rule:nonzero" transform="translate(499.473 165.634)scale(8.33333)"/><path d="m0-.691.23.626q.252.69.722.855.376.13.926-.068.518-.187.698-.492.21-.356 0-.93l-.298-.814zm2.8.018q.208.57.022.99-.202.457-.848.691a2 2 0 0 1-.561.121 1.22 1.22 0 0 1-.74-.184Q.251.677.02.047l-.333-.91 2.687-.971z" style="fill:#0f4395" transform="translate(489.249 186.547)scale(8.33333)"/><path d="M0-1.841q.333-.052.525.197.153.2.21.556a2.5 2.5 0 0 1 .023.555l-.227.07a2.3 2.3 0 0 0-.005-.601Q.484-1.328.33-1.455a.37.37 0 0 0-.304-.085q-.265.042-.496.417-.195.35-.386.697-.255.384-.576.435a.61.61 0 0 1-.48-.135.73.73 0 0 1-.272-.486 3 3 0 0 1-.042-.479 1.1 1.1 0 0 1 .045-.368l.261-.076a1.6 1.6 0 0 0-.081.361q-.022.214.008.403a.65.65 0 0 0 .167.373q.15.149.411.107.207-.032.437-.412l.416-.701q.27-.391.562-.437" style="fill:#0f4395;fill-rule:nonzero" transform="translate(514.884 224.242)scale(8.33333)"/><path d="M26.828-26.828C12.114-26.828.186-14.817.186 0s11.928 26.828 26.642 26.828S53.47 14.817 53.47 0 41.542-26.828 26.828-26.828" style="fill:#fff;fill-rule:nonzero" transform="matrix(0 8.33333 8.33333 0 265.606 36.272)"/><path d="M0-1.723q-1.112.561-2.281 1.021l-.02-.046Q-1.134-1.205 0-1.723M-2.773-.515A27 27 0 0 1-4.75.13a44 44 0 0 0 1.957-.689zm-8.623 1.659q-.37.01-.743.01-1.252 0-2.475-.112a6 6 0 0 1-.346-.139c.967-.12 1.968-.287 2.991-.498.329.251.67.482 1.014.678zm-6.257-.553a27 27 0 0 1-3.146-.856q-.288-.164-.684-.425c.86-.012 1.81-.074 2.835-.187A15.6 15.6 0 0 0-16.733.547q-.467.031-.92.044m14.189-2.719.465 1.087A44 44 0 0 1-6.157.018q-.159-.157-.363-.377-.24-.258-.478-.536a59 59 0 0 0 3.534-1.233m-4.08 1.402q.317.377.636.722l.175.186a36 36 0 0 1-3.333.759 7 7 0 0 1-.63-.318 9 9 0 0 1-.585-.365 52 52 0 0 0 3.737-.984M-15.828.473a14.3 14.3 0 0 1-2.106-1.435 48 48 0 0 0 3.805-.656l.049.055c.442.488.984 1.035 1.58 1.541a36 36 0 0 1-3.328.495M.956-2.876v.12A45 45 0 0 1-2.507-1.23l-.466-1.089q.69-.272 1.371-.558zm-3.943 0q-.095.037-.191.075l-.032-.075zm-.795 0 .113.266c-1.226.47-2.462.899-3.693 1.28q-.589-.726-1.164-1.546zm-5.382 0c.414.605.835 1.178 1.26 1.711a50 50 0 0 1-3.945 1.011 14.3 14.3 0 0 1-1.712-1.588 62 62 0 0 0 4.327-1.135zm-1.983 0q-1.45.39-2.816.686a21 21 0 0 1-.572-.687zm-4.03 0q.333.43.653.806c-1.407.29-2.733.505-3.951.647a19 19 0 0 1-1.454-1.452zm-5.451 0q.696.812 1.457 1.527c-1.13.11-2.155.153-3.053.133a18 18 0 0 1-1.461-1.233c-.028-.116-.2-.252-.414-.425zm-5.154 0c.594.352 1.195.63 1.596.676q.511.49 1.056.939l-.232-.021a27 27 0 0 1-2.972-1.595z" style="fill:#ffd500" transform="translate(366.765 472.238)scale(8.33333)"/><path d="M0 1.709A27 27 0 0 1-1.094.863c-.46-.498-.894-1.03-1.303-1.587.804.686 2.275 1.809 3.201 2.552A11 11 0 0 1 0 1.709m32.884-2.03a10 10 0 0 1-.164.698 6 6 0 0 1-.223.668 38 38 0 0 1-2.962 1.679c-.004-.328-.02-.736-.06-1.23a54 54 0 0 0 3.409-1.815M26.45 2.87q1.277-.542 2.515-1.13c.033.461.044.836.043 1.13zm-1.608 0-.773-1.823.407-.162a67 67 0 0 0 4.15-1.829 30 30 0 0 1 .292 2.125 61 61 0 0 1-3.853 1.688zm-5.316 0-.125-.18a68 68 0 0 0 4.177-1.452l.692 1.632zm-.708 0 .057-.019.013.02zm-5.301 0a28 28 0 0 1-1.228-1.677c1.525-.348 3.12-.77 4.76-1.269.494.86 1.001 1.69 1.52 2.472q-.843.252-1.664.473zm-5.394 0a22 22 0 0 1-.671-.782 55 55 0 0 0 4.296-.774q.58.855 1.127 1.557zm-4.17 0-.13-.105a20 20 0 0 1-.316-.329 36 36 0 0 0 3.335-.269q.285.36.582.704zm-2.235 0a31 31 0 0 1-.777-.502q.303.028.629.048c.223.156.461.31.7.452zm33.421-4.03A27 27 0 0 1 33.424.442l-.214.14c.097-.338.19-.752.263-1.251q.408-.244.802-.493zm-2.123 0-.021.166A52 52 0 0 1 29.423.935a32 32 0 0 0-.3-2.093zm-5.157 0A66 66 0 0 1 24.278.399l-.413.165-.724-1.724zm-5.29 0 .805 1.915a67 67 0 0 1-4.281 1.482 44 44 0 0 1-1.53-2.472 74 74 0 0 0 2.774-.925zm-3.84 0q-.721.239-1.431.46l-.256-.459zm-2.285 0q.168.312.34.617A69 69 0 0 1 11.979.726a38 38 0 0 1-1.151-1.886zm-6.226 0Q10.84-.068 11.437.846c-1.546.333-3.01.587-4.364.764a28 28 0 0 1-1.875-2.771zm-5.63 0c.577.99 1.203 1.947 1.881 2.845a34 34 0 0 1-3.123.232c.042-.344.224-.698-.051-1.048C2.857.311 2.309-.517 2.18-1.094l-.011-.055.13-.012z" style="fill:#ffd500" transform="translate(132.998 424.359)scale(8.33333)"/><path d="M0 4.03a41 41 0 0 0 1.86-1.244l-.097.279q-.437.494-.899.963zm-5.152 0-.004-.024A63 63 0 0 0-1.17 1.868c.02.751-.007 1.475-.089 2.163zm-5.982 0-.382-.908.435-.172a78 78 0 0 0 2.435-1.027q.121.168.232.357c.496.849.899.544 1.277.916s.621.619 1.187.287q.075-.045.143-.09l.052.267.009.051q-.332.161-.67.319zm-2.804 0q.96-.341 1.931-.716l.301.716zm-9.509 0a46 46 0 0 1-.715-1.299 76 76 0 0 0 4.964-1.34c.44.893.896 1.778 1.367 2.64zm-5.63 0-.188-.322a62 62 0 0 0 4.562-.853q.325.613.646 1.175zm-2.899 0a47 47 0 0 0 2.15-.242l.139.241zM4.113 0q-.303.464-.626.912c-.236.176-.474.351-.701.529.093-.425.178-.905.244-1.441zM2.512 0a15 15 0 0 1-.391 1.948A39 39 0 0 1-.723 3.86c.06-.646.085-1.404.049-2.285A53 53 0 0 0 1.804 0zM.856 0Q.106.491-.707.982-.74.512-.795.001zm-2.162 0q.074.648.111 1.274a62 62 0 0 1-4.06 2.196l-.088-.448c.231-.197.483-.395.936-.577.817-.328.083-.833.88-1.468.592-.47 1.123-.57 1.358-.977zm-9.36 0c.092.377.254.682.495.74.379.091.798.355 1.181.762q-1.122.494-2.289.962l-.439.175Q-12.235 1.404-12.819 0zm-2.724 0q.629 1.512 1.181 2.83a74 74 0 0 1-3.337 1.199l-1.687.001a70 70 0 0 1-1.457-2.796 81 81 0 0 0 3.64-1.235zm-3.232 0q-1.163.403-2.301.758-.183-.378-.363-.757zm-3.245 0q.216.458.437.915a75 75 0 0 1-4.983 1.336c-.385-.745-.753-1.5-1.101-2.252zm-6.245 0q.585 1.27 1.157 2.374c-1.617.36-3.154.641-4.587.846A38 38 0 0 1-31.135.001zm-5.599 0a40 40 0 0 0 1.609 3.296q-1.01.133-1.944.214c.1-.362.246-.763-.006-1.383-.39-.958-.749-1.062-1.621-1.131-.479-.038-1.174-.37-1.871-.732a97 97 0 0 0 2.556-.263zm-8.875 0 .017.029c.344.558 1.21 1.603 2.053 2.546q.227.399.467.787l-.217-.051A27 27 0 0 1-40.838 0z" style="fill:#ffd500" transform="translate(418.623 381.11)scale(8.33333)"/><path d="M0 4.03q.054-.438.089-.925a34 34 0 0 0 2.352-1.874l-.059.34q-.04.21-.089.432a27 27 0 0 1-1.209 2.028zm-1.226 0q.395-.268.771-.533-.027.267-.063.532zm-14.623 0-.304-.733.478-.19a81 81 0 0 0 2.052-.855.8.8 0 0 1-.055.233c-.137.319-.149 1.005-.018 1.545zm-2.231 0q.715-.262 1.437-.541l.224.539zm-10.464 0a77 77 0 0 1-.559-1.24 78 78 0 0 0 5.03-1.362 98 98 0 0 0 1.177 2.602zm-5.621 0-.103-.235a65 65 0 0 0 4.627-.88q.25.573.5 1.115zm-1.853 0q.592-.07 1.21-.157l.067.156zm-7.85 0-.061-.095q.144.036.297.068l.016.027zM2.602 0q-.02.21-.045.42A30 30 0 0 1 .126 2.425C.153 1.69.142.882.077 0zM-.432 0c.074.949.088 1.889.032 2.812q-.835.604-1.773 1.218h-1.652a30 30 0 0 0-.285-1.957A59 59 0 0 0-.848 0zm-1.356 0a60 60 0 0 1-2.425 1.524l-.022-.11-.005.045c-.055.398-.273.669-.472.966l.128-.074q.152.851.248 1.68l-.863-.001c.081-.141.127-.319.127-.561 0-.459.171-.763.36-1.044.199-.297.417-.568.472-.966l.005-.045c.057-.58-.355-.873-.126-1.415zm-13.454 0c.268.113.508.214.674.297.429.216.773.842.899 1.404q-1.083.47-2.203.921l-.481.191q-.556-1.34-1.162-2.811zm-2.844 0q.65 1.576 1.242 3.005-1.417.547-2.807 1.026l-2.664-.001a99 99 0 0 1-1.253-2.758A86 86 0 0 0-19.819.001zm-3.295 0a86 86 0 0 1-2.396.789q-.171-.397-.336-.789zm-3.302 0q.196.47.401.945c-1.735.529-3.42.981-5.033 1.357a78 78 0 0 1-.948-2.303zm-6.157 0q.496 1.277.988 2.425a64 64 0 0 1-4.628.872A49 49 0 0 1-35.72.001zm-5.436 0c.368 1.106.786 2.24 1.257 3.374-1.37.189-2.644.31-3.802.366A41 41 0 0 1-40.234 0zm-4.512 0a41 41 0 0 0 1.403 3.763l-.195.005a10 10 0 0 0-.597-.282c-1.019-.429-1.009-.5-1.43-1.274-.42-.774-.569-1.658-1.641-1.961a1.8 1.8 0 0 1-.506-.226l-.007-.024zm-4.988 0c.548 1.085 1.28 2.476 1.785 3.38a6 6 0 0 1-.359-.112A26 26 0 0 1-46.045.002z" style="fill:#ffd500" transform="translate(443.869 347.529)scale(8.33333)"/><path d="M0-.775c.407-.406.9-.305 1.53.116.481.321.273 1.137.2 1.717l-.339.136-.502.2zm23.706-1.274a26.3 26.3 0 0 1-1.322 4.195c-.128.139-.242.26-.332.35.069-.847.096-1.839.038-2.967a22 22 0 0 0 1.616-1.578M-25.18 1.474a39 39 0 0 1-.559-2.352 33 33 0 0 1-.379-2.217c.841.072 1.794.088 2.842.047q.198 1.164.473 2.33c.175.735.372 1.486.593 2.244a23 23 0 0 1-2.97-.052m44.173 1.161a23 23 0 0 0-.053-.611 40 40 0 0 0 2.659-2.067c.029.899.005 1.794-.081 2.679zm-.926 0 .393-.272q.013.136.023.272zm-3.512 0a1.8 1.8 0 0 1 .367-.527c.882-.944 1.226-1.396 1.041-2.37a1.6 1.6 0 0 0-.131-.383 62 62 0 0 0 1.889-1.244 29 29 0 0 1 .678 3.654q-.613.432-1.272.87zm-13.155 0-.312-.756.501-.199.184-.074c.231.336 1.171.724 1.901 1.029zm-2.304 0q.748-.273 1.502-.564l.232.563zm-4.294 0q-.307-.731-.594-1.437c.256-.159.537-.29.854-.31.882-.054.907-.364 1.728-1.142.82-.778 1.528-.688 2.1-.394.296.153.491.205.662.169l.846 2.065q-1.445.558-2.864 1.049zm-6.149 0a93 93 0 0 1-.789-2.082q.633-.148 1.277-.312l.476.431c1.198 1.091 2.893 1.165 3.425 1.177.223.004.459-.154.723-.344q.227.558.468 1.131zm-5.458 0a63 63 0 0 1-.356-1.096 65 65 0 0 0 4.504-.865q.366 1.017.733 1.961zm-4.513 0a40 40 0 0 1-.196-.62c1.177-.068 2.459-.2 3.826-.397q.157.504.327 1.017zm-3.528 0q-.096-.315-.186-.629c.88.069 1.878.082 2.975.036q.09.296.185.591zm-2.283 0q-.235-.54-.447-1.095l.209.067c.131.276.306.632.507 1.029zM23.97-3.41l.001.021-.05.284c-.484.607-1.113 1.268-1.874 1.966a27 27 0 0 0-.276-2.27zm-2.723 0q.233 1.351.32 2.702a38 38 0 0 1-2.693 2.132 30 30 0 0 0-.686-3.638q.861-.604 1.637-1.197zm-2.299 0a45 45 0 0 1-.901.654 35 35 0 0 0-.183-.653zm-1.646 0q.147.488.278.98a60 60 0 0 1-2.009 1.329c-.472-.727-1.169-1.512-1.062-2.31zm-30.197 0q.07.118.122.244c.288.708-.267 1.012-.11 1.398.115.281.753.868 1.554 1.587q-.497.124-.986.238a93 93 0 0 1-.765-2.229q-.203-.615-.389-1.237zm-1.125 0q.21.705.439 1.4.372 1.134.746 2.187a64 64 0 0 1-4.481.856 56 56 0 0 1-.566-2.008q-.314-1.202-.571-2.433zm-4.971 0q.267 1.299.599 2.566.247.948.549 1.955a45 45 0 0 1-3.826.39 45 45 0 0 1-.62-2.339 36 36 0 0 1-.456-2.234 42 42 0 0 0 3.428-.339zm-9.069 0q.624.164 1.403.259.155 1.182.401 2.377c.147.714.318 1.446.514 2.187l-.108-.015a11 11 0 0 0-.64-.961c-.835-1.103-1.313-.244-1.135.532l-.19-.081-.108-.314a30 30 0 0 1-.634-3.982z" style="fill:#ffd500" transform="translate(286.24 325.576)scale(8.33333)"/><path d="M0 1.137C.177.365.35-.46.456-1.179q.335.776.649 1.576-.538.37-1.105.74M9.257-.588a27 27 0 0 1-.076 1.736q-.092-.65-.234-1.371.162-.185.31-.365M-44.332.993a27 27 0 0 1-.04-3.054l.079.034-.02.414a40 40 0 0 0-.019 2.606m.619 1.873a40 40 0 0 1-.073-4.458l.011-.248a9.6 9.6 0 0 0 1.772.332 31.4 31.4 0 0 0 .187 4.836c-.773-.099-1.412-.255-1.897-.462m2.435.52a31 31 0 0 1-.199-4.849c.781.053 1.659.059 2.619.014q.027 2.426.405 4.886c-1.056.04-2.004.022-2.825-.051m3.355.026a34 34 0 0 1-.408-4.889 41 41 0 0 0 3.444-.372c.145 1.643.379 3.275.69 4.881a43 43 0 0 1-3.726.38m44.6.18q-.108-.66-.257-1.362A27 27 0 0 0 8.503.266q.059.321.107.628c.164 1.047.239 1.954.267 2.697zm-1.945 0q.648-.498 1.235-.982.102.491.186.982zm-1.962 0A39 39 0 0 0 1.759.583a49 49 0 0 0 2.997-2.256A33 33 0 0 1 5.84 2.033q-.91.763-1.986 1.561zm-3.355 0q.008-.058.021-.115c.084-.361.23-.937.39-1.602q.76-.488 1.472-.974c.332.881.639 1.78.911 2.69zm-27.978 0a48 48 0 0 1-.302-1.043l.081-.019c.143.336.539.638.795 1.064zm-4.983 0-.026-.123a62 62 0 0 0 4.193-.802q.129.465.265.924zm-.865 0 .317-.045.009.046zm-9.24 0-.015-.16q.24.085.513.159zM9.212-2.456q.03.5.04 1.005c-.148.207-.299.407-.441.579a30 30 0 0 0-.401-1.585zm-1.35 0q.315 1.102.517 2.083A24 24 0 0 1 6.29 1.649a34 34 0 0 0-1.094-3.688q.248-.21.484-.417zm-3.392 0 .096.26c-.89.736-1.894 1.5-3.002 2.275Q1.115-1.06.56-2.272a4 4 0 0 0-.001-.183zm-31.285 0c-.336.528-1.003 1.25-1.057 1.648-.069.498-.727 2.082-.916 2.802l-.215.05a51 51 0 0 1-.984-4.501zm-3.707 0c.265 1.56.602 3.103 1.005 4.618-1.458.328-2.85.591-4.158.792a47 47 0 0 1-.69-4.883c.91-.145 1.859-.32 2.838-.527zm-3.86 0q-.013 0-.025.003l-.001-.004zm-.554 0 .006.084c-1.22.181-2.36.304-3.403.372q.001-.228.006-.455zm-3.919 0q-.005.244-.005.485c-.96.047-1.829.043-2.593-.009l.03-.474zm-3.096 0q-.015.216-.028.432c-.696-.072-1.288-.188-1.764-.347l.007-.086z" style="fill:#ffd500" transform="translate(412.023 267.227)scale(8.33333)"/><path d="M0-3.081c-.04.226-.098.43-.28.531a1.5 1.5 0 0 1-1.166.137q.734-.33 1.446-.668M13.995.251c-.64.57-1.095.574-1.257.176-.22-.54-.647-.645-1.411-.967s-.692-.665-1.711-1.095a3 3 0 0 1-.392-.196q.422-.256.83-.513c.863.372 1.203.567 1.783 1.076.656.575.996 1.41 1.46.738a3 3 0 0 0 .15-.237q.275.497.548 1.018M8.811-2.194c-.152-.177-.3-.354-.815-.571-.251-.106-.551-.222-.854-.346a53 53 0 0 0-.886-1.424c.238.141.581.329 1.113.488 1.344.402 1.199.98 2.104 1.447q-.326.204-.662.406m-2.53-1.304c-.561-.291-.952-.614-.767-.958q.04-.072.074-.125.354.539.693 1.083m-35.402 5.814q.094-1.442.338-2.837.096-.11.2-.219c-.213 1-.367 2.034-.452 3.101zm2.26-4.496q.229-.155.435-.28c.351-.213.521-.404.626-.632q-.135.505-.252 1.016a11 11 0 0 1-.809-.104m1.251-1.591c.07-.312.166-.702.385-1.218q-.205.604-.385 1.218m45.834 6.15a41 41 0 0 0-1.889-4.25 29 29 0 0 0 2.163-1.991A35 35 0 0 1 22.379.343a27 27 0 0 1-2.155 2.036M-11.5-3.696c-.04.328-.119.73-.16.991-.064.399-.335.658-.334 1.032.001.37.573.144 1.026.326.342.144.448.219.574.128a1 1 0 0 0 .168-.184c.245-.323.362-.22.961-.617s.153-.735.307-1.47c.153-.735.529-.736.592-1.136.013-.079.017-.164.023-.25a66 66 0 0 0 1.29-.482l.926 2.353c-.405.142-.88.31-1.308.482-.777.312-1.126.751-1.604 1.242-.479.492-.759.005-1.056.2a.7.7 0 0 0-.204.247l-.095-.385c-.126.091-.232.016-.561-.123.083.393.183.796.288 1.203a1.2 1.2 0 0 1-.28.297c-.152.11-.264.299-.342.518-1.24.365-2.449.685-3.616.961a49 49 0 0 1-.474-4.394 64 64 0 0 0 3.854-1.054zm35.13 6.183a31 31 0 0 0-.648-2.028q.613-.68 1.045-1.297.306 1.631.406 3.325zm-2.73 0A27 27 0 0 0 22.577.894q.285.822.505 1.592zm-5.121 0-.001-.032C15.752 1.827 15.75.912 15.67.19a46 46 0 0 0 2.245-1.714 42 42 0 0 1 1.775 4.013zm-30.546 0-.055-.332a69 69 0 0 0 3.403-.896 2.4 2.4 0 0 0 .011.731c.026.115-.055.292-.186.498zm-1.539 0q.48-.1.969-.213l.036.215zm-2.881 0a42 42 0 0 1-.104-4.456 53 53 0 0 0 3.391-.666q.142 2.208.48 4.391a58 58 0 0 1-3.742.73zm-3.92 0a33 33 0 0 1 .328-4.046 37 37 0 0 0 2.959-.328 43 43 0 0 0 .104 4.374zm-3.095 0q.148-2.045.569-4.014c.694.042 1.471.042 2.317 0a33 33 0 0 0-.318 4.016zm-2.314 0c.103-1.348.318-2.642.624-3.88q.23-.197.464-.377.564.132 1.264.201a30 30 0 0 0-.567 4.056zm50.684-8.055a35 35 0 0 1 1.566 3.366q.077.316.146.634-.416.682-1.103 1.47a36 36 0 0 0-1.897-4.167q.628-.682 1.079-1.303zm-.858 0q-.31.394-.692.819-.225-.407-.466-.821zm-1.768 0q.367.618.698 1.224a28 28 0 0 1-2.152 1.997 48 48 0 0 0-1.278-2.268 38 38 0 0 0-.59-.953zm-3.95 0q.393.6.764 1.221.678 1.13 1.314 2.347a46 46 0 0 1-2.095 1.611c-.134-.564-.376-.791-.825-.201a7 7 0 0 1-.365.447q-.315-.594-.657-1.203c.19-.462.32-.944.465-1.391.234-.723.232-1.246.521-1.572.249-.28-.158-.761-.024-1.259zm-10.67 0 .124.18c-.383.3-.882.688-1.732 1.097-.449.215-.918.254-1.369.252A70 70 0 0 0 4.782-5.57zm-1.212 0A73 73 0 0 1 .786-4.044q-.114.011-.222.033l-.053.013A87 87 0 0 0-.4-5.569zm-6.848 0c.193.3.004.57-.448.82-.492.273-.154.362.342.469.495.107.294-.574.565-.832.154-.147.167-.284.115-.458l1.565.001q.553.93 1.081 1.867-1.091.525-2.236 1.03c-.417-.05-.74.282-1.33.209-.714-.087-.456-.565-.951-1.04s-.512.056-.901.212a10 10 0 0 1-.293.11l-.933-2.369.048-.019zm-6.681 0c.097.205.23.399.202.586q-.516.178-1.027.343l-.232-.027a1 1 0 0 0-.286.001 62 62 0 0 1-.177-.902zm-2.057 0q.115.61.244 1.242c-1.299.4-2.563.745-3.777 1.038a47 47 0 0 1-.059-2.282zm-4.119 0q0 1.2.064 2.403a53 53 0 0 1-3.34.662q.068-1.54.261-3.064zm-3.546 0a38 38 0 0 0-.261 3.148 37 37 0 0 1-2.896.332q.286-1.765.766-3.482zm-2.938 0a32 32 0 0 0-.758 3.515c-.84.046-1.605.05-2.283.014q.303-1.302.722-2.567c.002.313.038.594.168.692.455.341.89-.148 1.033-.833q.063-.308.206-.822z" style="fill:#ffd500" transform="translate(285.185 226.035)scale(8.33333)"/><path d="M0 .798C.18.591.369.407.581.385c.238-.025.397.08.583.196Q.819.724.469.864l-.383.153zM2.013.223 1.949.211c-.403-.063-.663-.333-.703-.616-.04-.284 1.116.15 1.622.097q.164-.017.33.008-.585.264-1.185.523m10.414.795a3 3 0 0 1-.158.262l-.083-.121zm9.332-.406a1 1 0 0 0-.092-.247l.144.205zm7.04.874.119-.168.089.167zm-7.27 0 .006-.022q.295-.232.574-.461.163.24.322.483zm-9.907 0q.05-.031.099-.058l.04.058zm-7.347 0c-.039-.134-.116-.288-.196-.484-.183-.45-.274-.489-.935-.448A1.4 1.4 0 0 1 2.669.51a72 72 0 0 0 1.248-.563c.212.103.447.232.718.383.261.146.45.178.592.142q.31.505.613 1.014zm-3.949 0 .341-.136q.624-.25 1.235-.51.072.004.153.002c.817-.029 1.298.227 1.585.561a1 1 0 0 1 .061.082zm-12.497 0q.072-.563.161-1.124a51 51 0 0 0 2.887-.671 45 45 0 0 0-.033 1.794zm-2.922 0q.092-.331.191-.658a34 34 0 0 0 2.342-.36q-.078.508-.142 1.019zm-1.459 0q.068-.245.152-.531.447-.023.93-.068-.088.298-.17.598zm45.18-2.015q.181.369.351.745l-.034.066a33 33 0 0 0-.477-.81zm-.778 0q.42.679.786 1.334a10 10 0 0 1-.487.68l-1.157.001A40 40 0 0 0 25.737-.53zm-2.749 0q.278.405.548.827.384.599.732 1.186l-3.322.002a40 40 0 0 0-.541-.822q.722-.61 1.337-1.192zm-2.012 0q-.411.374-.869.759-.27-.387-.546-.761zm-2.078 0q.216.286.428.577a1.4 1.4 0 0 0-.406-.303c-.477-.228-.749-.119-1.221-.244l-.129-.031zm-1.743 0c-.126.058-.175.207-.109.501.129.577-.123.993-.997.401-.339-.23-.897-.403-1.437-.56l-.262-.342zm-3.5 0 .056.07a4 4 0 0 1-.186-.07zm-4.38 0c.248.468.21.845.89.718.178-.033.274.02.312.123q-.349.209-.706.416-.457-.645-.921-1.257zm-3.788 0c.108.326.152.622.466.755.364.153.816-.402 1.257-.43.234-.014.487-.142.702-.326l.265.001q.579.752 1.128 1.526-.428.244-.868.487l-4.111.002A82 82 0 0 0 5.598.097c.044-.093.08-.19.118-.275A.77.77 0 0 1 6-.53zm-11.077 0c-.332.418-.578.883-.249 1.071.393.223.598.358.664.706.016.081.046.16.082.237l-1.52.001a80 80 0 0 1-.323-1.81.74.74 0 0 0 .326-.104q.061-.044.123-.101zm-2.732 0c.05.083.147.131.331.057q.069-.028.129-.057h.357q.16.976.355 2.013l-3.592.002q-.002-.971.04-1.938l.28-.077zm-4.2 0a47 47 0 0 1-1.507.336l.061-.335zm-1.981 0q-.042.222-.08.446c-.803.154-1.56.276-2.261.364q.13-.405.273-.809zm-2.626 0q-.151.437-.29.877-.488.051-.935.08.135-.441.303-.958z" style="fill:#ffd500" transform="translate(228.193 167.252)scale(8.33333)"/><path d="m0-.003.119-.04C.19.34.17.447.086.551zm33.484 1.01q-.329-.544-.695-1.101.209.103.393.2.24.444.463.9zm-4.613 0q.39-.37.736-.728.258.357.51.726zm-7.392 0a43 43 0 0 0-.533-.675l.153-.105c.391 0 .846.08 1.238.133.781.106 1.528.644 1.671-.042s.778-.162.94-.542a.4.4 0 0 1 .041-.071q.533.635 1.038 1.302h-1.328c-.173-.038-.317-.047-.415-.002zm-.825 0c-.173-.071-.306-.144-.376-.224l.213-.142.293.366zm-5.613 0q.08-.07.152-.148c.122-.133.223-.282.29-.435.224-.425.631.064.897.538q.013.022.024.043l-.425.002a46 46 0 0 0-.478-.621c-.085.191-.186.34-.308.473l.113.147zm-4.025 0c.172-.118.419-.199.804-.311.674-.195.478-.491.179-.67l-.048-.033a63 63 0 0 0 1.757-.958l.18.212c-.356.172-.293.653-.825.801-.609.17-.66.415-.503.801q.031.079.057.156zm-11.748 0q.2-.095.322-.216l.034.214zm-2.561 0Q-2.209.706-1.08.349c-.093.186-.16.342-.16.342s-.027.195.047.316zm34.052-2.015c.36.148.735.31 1.098.475q.541.78 1.009 1.539l-2.113.001a35 35 0 0 0-.778-1.12q.42-.46.756-.894zm-.687 0q-.192.23-.41.47a36 36 0 0 0-.359-.471zm-1.445 0q.34.423.668.863a23 23 0 0 1-1.19 1.151l-1.415.001a35 35 0 0 0-1.327-1.693c.12-.106.259-.216.407-.323zm-14.028 0a1.3 1.3 0 0 1-.156.091l-.077-.091zm-1.893 0q-.525.29-1.068.574a2.8 2.8 0 0 1-.203-.573zm-11.408 0L.769-.82c.201.137.385.249.516.372a67 67 0 0 0 1.513-.559l.345-.001.002.006a2 2 0 0 0-.154.22c-.22.387-.84 1.085-1.253 1.551a5 5 0 0 0-.199.236l-.897.002c.201-.183.415-.466.704-.83.204-.257.124-.451-.061-.625C1.154-.571.97-.683.798-.8a2 2 0 0 1-.245-.209zm-1.975 0q.044.321.091.647a64 64 0 0 1-2.961.894q.043-.773.113-1.543zm-3.287 0q-.076.84-.118 1.685-.67.177-1.311.33h-1.446q.19-1.015.444-2.014zm-4.224 0q.045.005.095-.001l1.155.001a33 33 0 0 0-.436 2.014l-2.068.001q.36-1.018.79-2.014zm-1.037 0A32 32 0 0 0-10 1.007h-.922a93 93 0 0 1 .471-1.417q.115-.335.223-.599z" style="fill:#ffd500" transform="translate(186.392 154.455)scale(8.33333)"/><path d="M0 .2a1 1 0 0 1 .067.104zm27.376.908.007-.008.021.008zm-1.428 0q-.258-.333-.52-.653c.262.02.809.196 1.457.446q-.081.102-.168.206zm-3.533 0c.521-.378 1.146-.704 1.432-.584.348.147.688.15 1.013.08q.208.248.412.503zm-11.404 0L10.82.883a60 60 0 0 0 1.486-.89c.015.214-.124.468-.366.602-.299.165-.475.365-.696.513zm-2.93 0A2 2 0 0 1 8.03.817C7.976.314 8.612.209 9.196.349 9.41.4 9.538.365 9.6.292l.403.454q-.322.182-.652.363zm-8.637 0 .3-.114.044.114zm-10.892 0c.202-.026.463-.199.582-.476.12-.283.475-.597.865-.909l.093-.021a31 31 0 0 0-.384 1.405zm-.559 0q.236-.547.493-1.086l.249-.043q-.124.208-.238.385c-.319.487-.237.713-.039.742zm-1.575 0c.158-.387.307-.668.451-.886q.469-.033.991-.105a31 31 0 0 0-.439.99zM17.086-.907c.294.432.343.951-.207 1.172-.855.343-1.318-.147-1.7-.827a1.8 1.8 0 0 0-.242-.347zm-6.771 0q.021.016.042.035c.235.205.55.609 1.347.514a1 1 0 0 1 .183-.006q-.686.422-1.416.843Q9.875-.201 9.28-.83a1 1 0 0 1 .033-.078zm-9.604 0c.126.226.218.444.456.43.114-.008.123-.175.081-.429l1.546-.001q-.071.06-.145.13-.978.433-2.006.85C.565.002.476-.099.357-.228c-.284-.307-.509-.193-.499.063l-.245-.63a.6.6 0 0 0 .064-.112zm-1.933 0c.07.123.181.205.32.241L-.446.505q-.815.316-1.611.602l-.744.001C-3.068.84-3.241.548-3.52.43l-.073-.031a82 82 0 0 1-.155-1.305zm-3.056 0q.104.964.247 2.016l-2.758-.001q.093-1.013.234-2.016zm-2.81 0q-.139 1.003-.23 2.014l-2.432.001q.198-.778.435-1.546a45 45 0 0 0 1.76-.468zm-3.685 0-.145.271-.301.056.167-.327zm-.871 0q-.11.217-.216.434-.38.059-.729.099c.204-.167.411-.306.637-.533z" style="fill:#ffd500" transform="translate(214.346 136.823)scale(8.33333)"/><path d="M0 6.392s-.088-.166-.156-.364Q.738 6.736 1.59 7.5a5 5 0 0 0-.504-.243C.073 6.83 0 6.392 0 6.392m-.105-.999c.372-.149 1.726-.172 2.088.203.362.376.366 1.674 1.269 1.832l.302.056q-.329.233-.672.467A37 37 0 0 0-.105 5.393m-5.602-7.676c.071.178.15.372.23.567a40 40 0 0 0-3.789.047 3 3 0 0 0 .288-.31 27 27 0 0 1 3.271-.304m.516 1.229.087.187-.242-.034q.081-.078.155-.153m.404.745c.04.21-.088.548-.296.798A35 35 0 0 0-6.601.084q.405-.275.74-.542.54.066 1.074.149M-5.573.875c-.215.177-.208.342-.135.67a.9.9 0 0 1-.003.347A31 31 0 0 0-7.92.909q.382-.222.733-.441.815.183 1.614.407m-.28 1.508a6 6 0 0 1-.419.864q-.479.25-.984.503a42 42 0 0 0-2.597-1.813 36 36 0 0 0 1.363-.708q1.35.511 2.637 1.154m-1.293 2.09c-.101.072-.235.161-.425.289-.403.271-.715.24-.874.122q.577-.266 1.135-.538zm-.976-.3c-.019-.206-.212-.437-.4-.452-.229-.018-1.085.134-1.685.551a61 61 0 0 0-1.337-1.544q.585-.258 1.147-.527 1.35.846 2.631 1.8zm-2.459.445a1.2 1.2 0 0 0-.13.206q-.162.33-.293.643-.57.24-1.161.478l-.253.101-.983-2.54q.685-.27 1.357-.56.744.82 1.463 1.672m-.653 1.486c-.098.328-.146.619-.124.851.033.344-.25.327-.511.503l-.368-.948q.503-.2 1.003-.406m2.897.5c.119-.031.253-.065.409-.127.438-.176.38.548.172.893q-.294-.393-.581-.766m-11.676 1.928c.118-.11.217-.215.285-.314.398-.579 1.287-.726 1.722-1.215q.157-.18.303-.435-.135.699-.245 1.401-1.083.32-2.065.563m3.649-4.505c.22-.288.305-.394-.094-.432q.103-.366.214-.73c.189-.072.398-.11.63-.138q.004.488.022 1.042-.394.135-.772.258m-.631-.468c-.369-.05-.228-.169.1-.354zm1.907-.882c.234-.021.488-.047.766-.094l.245.635q-.505.194-.993.368-.014-.48-.018-.909m1.289-.204q.237-.06.497-.148a2 2 0 0 0 .47-.228l.419.447q-.474.203-.972.402l-.201.08zm1.366-.715c.148-.161.273-.343.376-.537q.572.318 1.133.656-.477.225-.984.448a49 49 0 0 0-.525-.567m.585-1.018q.088-.25.144-.506 1.302.316 2.554.754-.576.31-1.219.623A38 38 0 0 0-11.848.74m.426-2.224a27 27 0 0 1 1.555-.342 7 7 0 0 1-.287.22q-.67.055-1.268.122M-17.387 7.8q.255-1.568.638-3.106.58-.18 1.176-.385c.035.848.092 1.797.182 2.84q-1.03.355-1.996.651m2.51-.83a61 61 0 0 1-.175-2.842q.578-.207 1.161-.43l.983 2.54q-1.006.39-1.969.732m4.301-7.682a35 35 0 0 1 3.949.169q-.315.224-.687.462a34 34 0 0 0-3.362-.571zM-8.557.663a28 28 0 0 0-2.703-.854q1.687.169 3.318.498-.294.176-.615.356m2.521-1.652c-.845-.1-1.653-.164-2.415-.202a39 39 0 0 1 2.677-.02 8 8 0 0 1-.262.222M3.972 8.675c-.195-.211-.394-.262-.686-.334.315-.246.638-.473.951-.699.427.117.807.26 1.228.46.254.121.493.334.656.573zm-5.624 0a.56.56 0 0 1 .187-.22c.28-.183.585.022.815.218zm-8.065 0c-.12-.724-.656-2.157-.341-2.616.276-.401.696 1.524 1.018 1.02.078-.12.152-.206.227-.269q.432.56.855 1.131c.063.215.194.422.194.422s-.18.118-.407.312zm-1.57 0c.11-.239.137-.543.52-.454.272.063.405.261.513.454zm-3.425 0a69 69 0 0 1-.106-1.039l-.014-.15q1.049-.373 2.104-.783l.506 1.301c-.077.283-.056.511.036.671zm-2.808 0q.022-.156.045-.31c.697-.215 1.41-.449 2.132-.68q.045.482.1.989zm-1 0q.242-.069.487-.142l-.019.141zm-3.497 0a32 32 0 0 1 1.845-3.124l.041-.007c-.162.331-.332.686-.498.978-.2.353-.643 1.277-1.108 2.153zm-.9 0 .027-.027c.288-.295.655-.81 1.039-1.382q-.396.698-.758 1.409z" style="fill:#ffd500" transform="translate(305.718 56.973)scale(8.33333)"/><path d="M0-4.039a3 3 0 0 0-.58-.25 10 10 0 0 0-.913-.25 10 10 0 0 0-1.062-.188 9 9 0 0 0-1.062-.063q-.846 0-1.543.188t-1.246.563a2.83 2.83 0 0 0-.959 1.077q-.32.638-.319 1.478 0 .572.184 1.046.185.474.554.848.377.367.877.55t1.12.183q.226 0 .468-.027.243-.026.504-.08V.053h-1.134v-3.109H.414v6.755q-1.323.249-2.533.375-1.21.125-2.308.125-1.952 0-3.432-.402-1.481-.402-2.488-1.206A5.1 5.1 0 0 1-11.845.652q-.5-1.135-.5-2.6 0-1.59.604-2.801.601-1.21 1.808-2.042a7.7 7.7 0 0 1 2.415-1.086q1.365-.361 3.037-.361.504 0 1.026.035t1.061.107q.541.072 1.067.17t1.039.224l.144 1.831z" style="fill:#0f4395;fill-rule:nonzero" transform="translate(148.772 284.897)scale(8.33333)"/><path d="M0-11.955v3.235h-5.92v1.268h4.93v3.092h-4.93v1.269H0V0h-10.599v-11.955z" style="fill:#0f4395;fill-rule:nonzero" transform="translate(255.992 318.102)scale(8.33333)"/><path d="M0-4.949a7 7 0 0 0-1.255-.375 6.6 6.6 0 0 0-1.282-.125 5.6 5.6 0 0 0-1.499.183q-.66.183-1.146.549-.532.402-.797.979-.265.576-.265 1.327 0 .768.225 1.331t.674.92q.405.322.977.483.57.16 1.309.16.674 0 1.44-.129A13 13 0 0 0 0-.035l-.144 3.378a9 9 0 0 1-1.358.281q-.72.093-1.521.093-1.575 0-2.893-.33a8.3 8.3 0 0 1-2.38-.992Q-9.6 1.584-10.253.376q-.651-1.206-.652-2.805 0-1.653.625-2.886.626-1.234 1.876-2.046a7.6 7.6 0 0 1 2.291-.979q1.282-.326 2.838-.326.405 0 .783.022.377.023.728.067a11 11 0 0 1 1.476.251l.144 1.688z" style="fill:#0f4395;fill-rule:nonzero" transform="translate(353.912 289.055)scale(8.33333)"/><path d="M0 .035q0 .716.202 1.269a2.5 2.5 0 0 0 1.436 1.483 2.8 2.8 0 0 0 1.007.179q.558 0 1.03-.179.473-.179.86-.536.431-.393.647-.92.217-.528.216-1.189 0-.696-.216-1.26a2.8 2.8 0 0 0-.647-.991 2.7 2.7 0 0 0-.878-.59 2.7 2.7 0 0 0-1.048-.197q-.522 0-.967.179a2.5 2.5 0 0 0-.814.536 2.6 2.6 0 0 0-.621.956Q0-.67 0 .035M10.329-.09q0 1.269-.467 2.35-.469 1.08-1.405 1.975a6.7 6.7 0 0 1-2.42 1.487q-1.385.496-3.122.496-1.862 0-3.329-.478-1.467-.479-2.537-1.434-.972-.875-1.458-1.961t-.485-2.381q0-1.251.462-2.306a5.8 5.8 0 0 1 1.391-1.911A6.8 6.8 0 0 1-.558-5.701q1.44-.482 3.275-.482 1.827 0 3.262.473a6.8 6.8 0 0 1 2.478 1.421q.937.848 1.405 1.898t.467 2.301" style="fill:#0f4395" transform="translate(403.097 268.815)scale(8.33333)"/><g transform="translate(-3321.84 -3926.8)scale(8.33333)"><clipPath id="a"><path d="M443.467 507.029q.055.052.111.103a7 7 0 0 0 2.538 1.433q1.466.48 3.329.479 1.735 0 3.122-.496a6.75 6.75 0 0 0 2.42-1.488q.016-.014.03-.031zm-11.972.002q.377.333.836.619a8.3 8.3 0 0 0 2.38.992q1.318.33 2.892.33.803 0 1.521-.094.72-.094 1.359-.281l.067-1.568zm-13.218-.002v1.711h10.6v-1.711zm-12.976 0q.172.164.362.318 1.008.803 2.488 1.206 1.48.4 3.432.401 1.097 0 2.308-.125a31 31 0 0 0 2.533-.374v-1.426z" clip-rule="nonzero"/></clipPath><g clip-path="url(#a)"><path d="M403.666 334.816h53.191v.242h-53.191z" style="fill:#dadcf0" transform="translate(0 171.981)"/><path d="M403.666 334.565h53.191v.242h-53.191z" style="fill:#e0e0f2" transform="translate(0 172.483)"/><path d="M403.666 334.315h53.191v.242h-53.191z" style="fill:#e4e4f4" transform="translate(0 172.983)"/><path d="M403.666 334.064h53.191v.242h-53.191z" style="fill:#e8e9f6" transform="translate(0 173.485)"/><path d="M403.666 333.814h53.191v.242h-53.191z" style="fill:#edeef8" transform="translate(0 173.985)"/><path d="M403.666 333.563h53.191v.242h-53.191z" style="fill:#f1f2fa" transform="translate(0 174.487)"/><path d="M403.666 333.313h53.191v.242h-53.191z" style="fill:#f6f6fc" transform="translate(0 174.987)"/><path d="M403.666 333.062h53.191v.242h-53.191z" style="fill:#fbfbfd" transform="translate(0 175.489)"/><path d="M403.666 332.812h53.191v.242h-53.191z" style="fill:#fff" transform="translate(0 175.989)"/></g></g><g transform="translate(-3321.84 -3926.8)scale(8.33333)"><clipPath id="b"><path d="M408.493 496.879a7.7 7.7 0 0 0-2.416 1.085q-1.205.832-1.809 2.042-.602 1.21-.603 2.801 0 1.466.5 2.6.405.92 1.136 1.622h11.123v-5.33H410.9v3.11h1.134v.982a6 6 0 0 1-.505.081 4 4 0 0 1-.468.027 3.3 3.3 0 0 1-1.12-.183 2.5 2.5 0 0 1-.877-.55 2.5 2.5 0 0 1-.553-.849 2.9 2.9 0 0 1-.185-1.046q0-.839.319-1.477a2.84 2.84 0 0 1 .958-1.078q.55-.375 1.247-.562a6 6 0 0 1 1.543-.188q.53 0 1.063.063a9 9 0 0 1 1.061.187q.539.125.913.25.372.126.581.25l-.145-1.831-.144-1.832a20 20 0 0 0-2.105-.393 16 16 0 0 0-2.088-.143q-1.673 0-3.036.362m26.021.036a7.6 7.6 0 0 0-2.291.978q-1.251.812-1.875 2.046-.626 1.233-.626 2.886 0 1.6.652 2.805.423.784 1.121 1.399h9.055l.005-.121.072-1.688q-.854.259-1.62.388-.764.129-1.44.129-.737 0-1.308-.16a2.8 2.8 0 0 1-.977-.482 2.2 2.2 0 0 1-.675-.921q-.224-.563-.224-1.331 0-.75.266-1.327.265-.577.795-.978a3.4 3.4 0 0 1 1.148-.55q.66-.183 1.497-.183.648 0 1.283.126.634.124 1.255.374l-.144-1.688-.144-1.689a12 12 0 0 0-.747-.152 10 10 0 0 0-.729-.098 11.5 11.5 0 0 0-1.511-.089q-1.555 0-2.838.326m11.458.209a6.8 6.8 0 0 0-2.484 1.448 5.8 5.8 0 0 0-1.39 1.912 5.65 5.65 0 0 0-.463 2.306q0 1.295.485 2.38a5.8 5.8 0 0 0 1.347 1.859l11.55.002a6.1 6.1 0 0 0 1.374-1.945 5.9 5.9 0 0 0 .468-2.35q0-1.251-.468-2.301t-1.404-1.898a6.8 6.8 0 0 0-2.479-1.422q-1.435-.473-3.261-.473-1.836 0-3.275.482m2.196 8.489a2.5 2.5 0 0 1-.828-.536 2.5 2.5 0 0 1-.609-.947 3.7 3.7 0 0 1-.201-1.269q0-.707.207-1.26.205-.555.621-.956.368-.357.813-.536t.968-.179q.567 0 1.047.197.483.196.878.589.432.43.648.992t.216 1.26q0 .661-.216 1.188a2.5 2.5 0 0 1-.648.921 2.6 2.6 0 0 1-.86.536 2.9 2.9 0 0 1-1.029.178q-.55 0-1.007-.178m-19.291-8.828h-10.6v10.244h10.6v-1.381h-5.92v-1.268h4.929v-3.091h-4.929v-1.269h5.92z" clip-rule="nonzero"/></clipPath><g clip-path="url(#b)"><path d="M403.666 345.087h53.191v.242h-53.191z" style="fill:#0f4395" transform="translate(0 151.439)"/><path d="M403.666 344.837h53.191v.242h-53.191z" style="fill:#144697" transform="translate(0 151.939)"/><path d="M403.666 344.586h53.191v.242h-53.191z" style="fill:#1c4899" transform="translate(0 152.441)"/><path d="M403.666 344.336h53.191v.242h-53.191z" style="fill:#284b9b" transform="translate(0 152.941)"/><path d="M403.666 344.085h53.191v.242h-53.191z" style="fill:#2b4e9d" transform="translate(0 153.443)"/><path d="M403.666 343.835h53.191v.242h-53.191z" style="fill:#30519f" transform="translate(0 153.943)"/><path d="M403.666 343.584h53.191v.242h-53.191z" style="fill:#3654a1" transform="translate(0 154.445)"/><path d="M403.666 343.334h53.191v.242h-53.191z" style="fill:#3a57a3" transform="translate(0 154.945)"/><path d="M403.666 343.083h53.191v.242h-53.191z" style="fill:#405aa5" transform="translate(0 155.447)"/><path d="M403.666 342.833h53.191v.242h-53.191z" style="fill:#445ea8" transform="translate(0 155.947)"/><path d="M403.666 342.582h53.191v.242h-53.191z" style="fill:#4961aa" transform="translate(0 156.449)"/><path d="M403.666 342.332h53.191v.242h-53.191z" style="fill:#4d64ac" transform="translate(0 156.949)"/><path d="M403.666 342.081h53.191v.242h-53.191z" style="fill:#5267af" transform="translate(0 157.451)"/><path d="M403.666 341.831h53.191v.242h-53.191z" style="fill:#586bb1" transform="translate(0 157.951)"/><path d="M403.666 341.58h53.191v.242h-53.191z" style="fill:#5c6eb3" transform="translate(0 158.453)"/><path d="M403.666 341.33h53.191v.242h-53.191z" style="fill:#6172b5" transform="translate(0 158.953)"/><path d="M403.666 341.079h53.191v.242h-53.191z" style="fill:#6675b7" transform="translate(0 159.455)"/><path d="M403.666 340.829h53.191v.242h-53.191z" style="fill:#6a79ba" transform="translate(0 159.955)"/><path d="M403.666 340.578h53.191v.242h-53.191z" style="fill:#707dbc" transform="translate(0 160.457)"/><path d="M403.666 340.327h53.191v.242h-53.191z" style="fill:#7481bf" transform="translate(0 160.959)"/><path d="M403.666 340.077h53.191v.242h-53.191z" style="fill:#7985c1" transform="translate(0 161.459)"/><path d="M403.666 339.826h53.191v.242h-53.191z" style="fill:#7e89c3" transform="translate(0 161.961)"/><path d="M403.666 339.576h53.191v.242h-53.191z" style="fill:#828cc5" transform="translate(0 162.461)"/><path d="M403.666 339.325h53.191v.242h-53.191z" style="fill:#8891c8" transform="translate(0 162.963)"/><path d="M403.666 339.075h53.191v.242h-53.191z" style="fill:#8d94ca" transform="translate(0 163.463)"/><path d="M403.666 338.824h53.191v.242h-53.191z" style="fill:#9198cc" transform="translate(0 163.965)"/><path d="M403.666 338.574h53.191v.242h-53.191z" style="fill:#959cce" transform="translate(0 164.465)"/><path d="M403.666 338.323h53.191v.242h-53.191z" style="fill:#9ba1d1" transform="translate(0 164.967)"/><path d="M403.666 338.073h53.191v.242h-53.191z" style="fill:#9fa5d3" transform="translate(0 165.467)"/><path d="M403.666 337.822h53.191v.242h-53.191z" style="fill:#a4a9d6" transform="translate(0 165.969)"/><path d="M403.666 337.572h53.191v.242h-53.191z" style="fill:#a8add8" transform="translate(0 166.469)"/><path d="M403.666 337.321h53.191v.242h-53.191z" style="fill:#adb1da" transform="translate(0 166.971)"/><path d="M403.666 337.071h53.191v.242h-53.191z" style="fill:#b2b6dc" transform="translate(0 167.471)"/><path d="M403.666 336.82h53.191v.242h-53.191z" style="fill:#b7badf" transform="translate(0 167.973)"/><path d="M403.666 336.57h53.191v.242h-53.191z" style="fill:#bbbee1" transform="translate(0 168.473)"/><path d="M403.666 336.319h53.191v.242h-53.191z" style="fill:#bfc2e3" transform="translate(0 168.975)"/><path d="M403.666 336.068h53.191v.242h-53.191z" style="fill:#c4c6e5" transform="translate(0 169.477)"/><path d="M403.666 335.818h53.191v.242h-53.191z" style="fill:#c9cbe8" transform="translate(0 169.977)"/><path d="M403.666 335.567h53.191v.242h-53.191z" style="fill:#cdcfea" transform="translate(0 170.479)"/><path d="M403.666 335.317h53.191v.242h-53.191z" style="fill:#d2d3ec" transform="translate(0 170.979)"/><path d="M403.666 335.066h53.191v.242h-53.191z" style="fill:#d6d7ee" transform="translate(0 171.481)"/><path d="M403.666 334.816h53.191v.242h-53.191z" style="fill:#dadcf0" transform="translate(0 171.981)"/></g></g><g transform="translate(-3321.84 -3926.8)scale(8.33333)"><clipPath id="c"><path d="M458.194 502.402c0 15.216-12.417 27.553-27.738 27.562l-.017 4.037c17.575 0 31.821-14.147 31.821-31.599l-.001-.092-4.065-.002z" clip-rule="nonzero"/></clipPath><g clip-path="url(#c)"><path d="M430.464 307.865h31.794v.242h-31.794z" style="fill:#0f4395" transform="matrix(-1 0 0 1 892.722 225.883)"/><path d="M430.464 308.116h31.794v.242h-31.794z" style="fill:#124496" transform="matrix(-1 0 0 1 892.722 225.381)"/><path d="M430.464 308.368h31.794v.242h-31.794z" style="fill:#134597" transform="matrix(-1 0 0 1 892.722 224.877)"/><path d="M430.464 308.619h31.794v.242h-31.794z" style="fill:#164697" transform="matrix(-1 0 0 1 892.722 224.375)"/><path d="M430.464 308.871h31.794v.242h-31.794z" style="fill:#194798" transform="matrix(-1 0 0 1 892.722 223.871)"/><path d="M430.464 309.122h31.794v.242h-31.794z" style="fill:#1c4899" transform="matrix(-1 0 0 1 892.722 223.369)"/><path d="M430.464 309.374h31.794v.242h-31.794z" style="fill:#20499a" transform="matrix(-1 0 0 1 892.722 222.865)"/><path d="M430.464 309.626h31.794v.242h-31.794z" style="fill:#234b9b" transform="matrix(-1 0 0 1 892.722 222.361)"/><path d="M430.464 309.877h31.794v.242h-31.794z" style="fill:#274c9c" transform="matrix(-1 0 0 1 892.722 221.859)"/><path d="M430.464 310.129h31.794v.242h-31.794z" style="fill:#294d9c" transform="matrix(-1 0 0 1 892.722 221.355)"/><path d="M430.464 310.38h31.794v.242h-31.794z" style="fill:#2a4e9d" transform="matrix(-1 0 0 1 892.722 220.853)"/><path d="M430.464 310.632h31.794v.242h-31.794z" style="fill:#2c4f9e" transform="matrix(-1 0 0 1 892.722 220.349)"/><path d="M430.464 310.883h31.794v.242h-31.794z" style="fill:#2e509f" transform="matrix(-1 0 0 1 892.722 219.847)"/><path d="M430.464 311.135h31.794v.242h-31.794z" style="fill:#32519f" transform="matrix(-1 0 0 1 892.722 219.343)"/><path d="M430.464 311.386h31.794v.242h-31.794z" style="fill:#3352a0" transform="matrix(-1 0 0 1 892.722 218.841)"/><path d="M430.464 311.638h31.794v.242h-31.794z" style="fill:#3654a1" transform="matrix(-1 0 0 1 892.722 218.337)"/><path d="M430.464 311.889h31.794v.242h-31.794z" style="fill:#3855a2" transform="matrix(-1 0 0 1 892.722 217.835)"/><path d="M430.464 312.141h31.794v.242h-31.794z" style="fill:#3956a3" transform="matrix(-1 0 0 1 892.722 217.331)"/><path d="M430.464 312.392h31.794v.242h-31.794z" style="fill:#3b57a4" transform="matrix(-1 0 0 1 892.722 216.829)"/><path d="M430.464 312.644h31.794v.242h-31.794z" style="fill:#3d58a4" transform="matrix(-1 0 0 1 892.722 216.325)"/><path d="M430.464 312.896h31.794v.242h-31.794z" style="fill:#3e5aa5" transform="matrix(-1 0 0 1 892.722 215.821)"/><path d="M430.464 313.147h31.794v.242h-31.794z" style="fill:#415ba6" transform="matrix(-1 0 0 1 892.722 215.319)"/><path d="M430.464 313.399h31.794v.242h-31.794z" style="fill:#425ca7" transform="matrix(-1 0 0 1 892.722 214.815)"/><path d="M430.464 313.65h31.794v.242h-31.794z" style="fill:#445ea8" transform="matrix(-1 0 0 1 892.722 214.313)"/><path d="M430.464 313.902h31.794v.242h-31.794z" style="fill:#465fa9" transform="matrix(-1 0 0 1 892.722 213.809)"/><path d="M430.464 314.153h31.794v.242h-31.794z" style="fill:#4860aa" transform="matrix(-1 0 0 1 892.722 213.307)"/><path d="M430.464 314.405h31.794v.242h-31.794z" style="fill:#4a61aa" transform="matrix(-1 0 0 1 892.722 212.803)"/><path d="M430.464 314.656h31.794v.242h-31.794z" style="fill:#4c63ab" transform="matrix(-1 0 0 1 892.722 212.301)"/><path d="M430.464 314.908h31.794v.242h-31.794z" style="fill:#4d64ac" transform="matrix(-1 0 0 1 892.722 211.797)"/><path d="M430.464 315.159h31.794v.242h-31.794z" style="fill:#4f65ad" transform="matrix(-1 0 0 1 892.722 211.295)"/><path d="M430.464 315.411h31.794v.242h-31.794z" style="fill:#5167ae" transform="matrix(-1 0 0 1 892.722 210.791)"/><path d="M430.464 315.663h31.794v.242h-31.794z" style="fill:#5368af" transform="matrix(-1 0 0 1 892.722 210.287)"/><path d="M430.464 315.914h31.794v.242h-31.794z" style="fill:#5569b0" transform="matrix(-1 0 0 1 892.722 209.785)"/><path d="M430.464 316.166h31.794v.242h-31.794z" style="fill:#576bb1" transform="matrix(-1 0 0 1 892.722 209.281)"/><path d="M430.464 316.417h31.794v.242h-31.794z" style="fill:#596cb1" transform="matrix(-1 0 0 1 892.722 208.779)"/><path d="M430.464 316.669h31.794v.242h-31.794z" style="fill:#5a6db2" transform="matrix(-1 0 0 1 892.722 208.275)"/><path d="M430.464 316.92h31.794v.242h-31.794z" style="fill:#5c6fb3" transform="matrix(-1 0 0 1 892.722 207.773)"/><path d="M430.464 317.172h31.794v.242h-31.794z" style="fill:#5e70b4" transform="matrix(-1 0 0 1 892.722 207.269)"/><path d="M430.464 317.423h31.794v.242h-31.794z" style="fill:#6172b5" transform="matrix(-1 0 0 1 892.722 206.767)"/><path d="M430.464 317.675h31.794v.242h-31.794z" style="fill:#6373b6" transform="matrix(-1 0 0 1 892.722 206.263)"/><path d="M430.464 317.926h31.794v.242h-31.794z" style="fill:#6575b7" transform="matrix(-1 0 0 1 892.722 205.761)"/><path d="M430.464 318.178h31.794v.242h-31.794z" style="fill:#6776b8" transform="matrix(-1 0 0 1 892.722 205.257)"/><path d="M430.464 318.43h31.794v.242h-31.794z" style="fill:#6877b9" transform="matrix(-1 0 0 1 892.722 204.753)"/><path d="M430.464 318.681h31.794v.242h-31.794z" style="fill:#6a79ba" transform="matrix(-1 0 0 1 892.722 204.251)"/><path d="M430.464 318.933h31.794v.242h-31.794z" style="fill:#6c7aba" transform="matrix(-1 0 0 1 892.722 203.747)"/><path d="M430.464 319.184h31.794v.242h-31.794z" style="fill:#6e7cbb" transform="matrix(-1 0 0 1 892.722 203.245)"/><path d="M430.464 319.436h31.794v.242h-31.794z" style="fill:#707dbc" transform="matrix(-1 0 0 1 892.722 202.741)"/><path d="M430.464 319.687h31.794v.242h-31.794z" style="fill:#727ebd" transform="matrix(-1 0 0 1 892.722 202.239)"/><path d="M430.464 319.939h31.794v.242h-31.794z" style="fill:#7480be" transform="matrix(-1 0 0 1 892.722 201.735)"/><path d="M430.464 320.19h31.794v.242h-31.794z" style="fill:#7582bf" transform="matrix(-1 0 0 1 892.722 201.233)"/><path d="M430.464 320.442h31.794v.242h-31.794z" style="fill:#7783c0" transform="matrix(-1 0 0 1 892.722 200.729)"/><path d="M430.464 320.693h31.794v.242h-31.794z" style="fill:#7985c1" transform="matrix(-1 0 0 1 892.722 200.227)"/><path d="M430.464 320.945h31.794v.242h-31.794z" style="fill:#7b86c1" transform="matrix(-1 0 0 1 892.722 199.723)"/><path d="M430.464 321.196h31.794v.242h-31.794z" style="fill:#7d88c2" transform="matrix(-1 0 0 1 892.722 199.221)"/><path d="M430.464 321.448h31.794v.242h-31.794z" style="fill:#7f89c4" transform="matrix(-1 0 0 1 892.722 198.717)"/><path d="M430.464 321.7h31.794v.242h-31.794z" style="fill:#818bc4" transform="matrix(-1 0 0 1 892.722 198.213)"/><path d="M430.464 321.951h31.794v.242h-31.794z" style="fill:#828cc5" transform="matrix(-1 0 0 1 892.722 197.711)"/><path d="M430.464 322.203h31.794v.242h-31.794z" style="fill:#848ec6" transform="matrix(-1 0 0 1 892.722 197.207)"/><path d="M430.464 322.454h31.794v.242h-31.794z" style="fill:#868fc7" transform="matrix(-1 0 0 1 892.722 196.705)"/><path d="M430.464 322.706h31.794v.242h-31.794z" style="fill:#8891c8" transform="matrix(-1 0 0 1 892.722 196.201)"/><path d="M430.464 322.957h31.794v.242h-31.794z" style="fill:#8a92c9" transform="matrix(-1 0 0 1 892.722 195.699)"/><path d="M430.464 323.209h31.794v.242h-31.794z" style="fill:#8c94ca" transform="matrix(-1 0 0 1 892.722 195.195)"/><path d="M430.464 323.46h31.794v.242h-31.794z" style="fill:#8d96cb" transform="matrix(-1 0 0 1 892.722 194.693)"/><path d="M430.464 323.712h31.794v.242h-31.794z" style="fill:#9097cc" transform="matrix(-1 0 0 1 892.722 194.189)"/><path d="M430.464 323.963h31.794v.242h-31.794z" style="fill:#9299cd" transform="matrix(-1 0 0 1 892.722 193.687)"/><path d="M430.464 324.215h31.794v.242h-31.794z" style="fill:#949bcd" transform="matrix(-1 0 0 1 892.722 193.183)"/><path d="M430.464 324.467h31.794v.242h-31.794z" style="fill:#959cce" transform="matrix(-1 0 0 1 892.722 192.679)"/><path d="M430.464 324.718h31.794v.242h-31.794z" style="fill:#979ecf" transform="matrix(-1 0 0 1 892.722 192.177)"/><path d="M430.464 324.97h31.794v.242h-31.794z" style="fill:#999fd0" transform="matrix(-1 0 0 1 892.722 191.673)"/><path d="M430.464 325.221h31.794v.242h-31.794z" style="fill:#9ba1d1" transform="matrix(-1 0 0 1 892.722 191.171)"/><path d="M430.464 325.473h31.794v.242h-31.794z" style="fill:#9da2d2" transform="matrix(-1 0 0 1 892.722 190.667)"/><path d="M430.464 325.724h31.794v.242h-31.794z" style="fill:#9ea4d3" transform="matrix(-1 0 0 1 892.722 190.165)"/><path d="M430.464 325.976h31.794v.242h-31.794z" style="fill:#a0a6d4" transform="matrix(-1 0 0 1 892.722 189.661)"/><path d="M430.464 326.227h31.794v.242h-31.794z" style="fill:#a2a7d5" transform="matrix(-1 0 0 1 892.722 189.159)"/><path d="M430.464 326.479h31.794v.242h-31.794z" style="fill:#a4a9d6" transform="matrix(-1 0 0 1 892.722 188.655)"/><path d="M430.464 326.73h31.794v.242h-31.794z" style="fill:#a5aad6" transform="matrix(-1 0 0 1 892.722 188.153)"/><path d="M430.464 326.982h31.794v.242h-31.794z" style="fill:#a7acd7" transform="matrix(-1 0 0 1 892.722 187.649)"/><path d="M430.464 327.234h31.794v.242h-31.794z" style="fill:#a9aed8" transform="matrix(-1 0 0 1 892.722 187.145)"/><path d="M430.464 327.485h31.794v.242h-31.794z" style="fill:#abafd9" transform="matrix(-1 0 0 1 892.722 186.643)"/><path d="M430.464 327.737h31.794v.242h-31.794z" style="fill:#adb1da" transform="matrix(-1 0 0 1 892.722 186.139)"/><path d="M430.464 327.988h31.794v.242h-31.794z" style="fill:#aeb3db" transform="matrix(-1 0 0 1 892.722 185.637)"/><path d="M430.464 328.24h31.794v.242h-31.794z" style="fill:#b0b4dc" transform="matrix(-1 0 0 1 892.722 185.133)"/><path d="M430.464 328.491h31.794v.242h-31.794z" style="fill:#b2b6dd" transform="matrix(-1 0 0 1 892.722 184.631)"/><path d="M430.464 328.743h31.794v.242h-31.794z" style="fill:#b4b7dd" transform="matrix(-1 0 0 1 892.722 184.127)"/><path d="M430.464 328.994h31.794v.242h-31.794z" style="fill:#b6b9df" transform="matrix(-1 0 0 1 892.722 183.625)"/><path d="M430.464 329.246h31.794v.242h-31.794z" style="fill:#b7bbdf" transform="matrix(-1 0 0 1 892.722 183.121)"/><path d="M430.464 329.497h31.794v.242h-31.794z" style="fill:#b9bde0" transform="matrix(-1 0 0 1 892.722 182.619)"/><path d="M430.464 329.749h31.794v.242h-31.794z" style="fill:#bbbee1" transform="matrix(-1 0 0 1 892.722 182.115)"/><path d="M430.464 330h31.794v.242h-31.794z" style="fill:#bec0e2" transform="matrix(-1 0 0 1 892.722 181.613)"/><path d="M430.464 330.252h31.794v.242h-31.794z" style="fill:#bfc2e3" transform="matrix(-1 0 0 1 892.722 181.109)"/><path d="M430.464 330.504h31.794v.242h-31.794z" style="fill:#c1c4e4" transform="matrix(-1 0 0 1 892.722 180.605)"/><path d="M430.464 330.755h31.794v.242h-31.794z" style="fill:#c3c5e5" transform="matrix(-1 0 0 1 892.722 180.103)"/><path d="M430.464 331.007h31.794v.242h-31.794z" style="fill:#c5c7e6" transform="matrix(-1 0 0 1 892.722 179.599)"/><path d="M430.464 331.258h31.794v.242h-31.794z" style="fill:#c7c8e6" transform="matrix(-1 0 0 1 892.722 179.097)"/><path d="M430.464 331.51h31.794v.242h-31.794z" style="fill:#c8cae7" transform="matrix(-1 0 0 1 892.722 178.593)"/><path d="M430.464 331.761h31.794v.242h-31.794z" style="fill:#cacce8" transform="matrix(-1 0 0 1 892.722 178.091)"/><path d="M430.464 332.013h31.794v.242h-31.794z" style="fill:#cccde9" transform="matrix(-1 0 0 1 892.722 177.587)"/><path d="M430.464 332.264h31.794v.242h-31.794z" style="fill:#cdcfea" transform="matrix(-1 0 0 1 892.722 177.085)"/><path d="M430.464 332.516h31.794v.242h-31.794z" style="fill:#cfd1ea" transform="matrix(-1 0 0 1 892.722 176.581)"/><path d="M430.464 332.767h31.794v.242h-31.794z" style="fill:#d1d2eb" transform="matrix(-1 0 0 1 892.722 176.079)"/><path d="M430.464 333.019h31.794v.242h-31.794z" style="fill:#d2d4ec" transform="matrix(-1 0 0 1 892.722 175.575)"/><path d="M430.464 333.271h31.794v.242h-31.794z" style="fill:#d4d6ed" transform="matrix(-1 0 0 1 892.722 175.071)"/><path d="M430.464 333.522h31.794v.242h-31.794z" style="fill:#d6d7ee" transform="matrix(-1 0 0 1 892.722 174.569)"/><path d="M430.464 333.774h31.794v.242h-31.794z" style="fill:#d8d9ef" transform="matrix(-1 0 0 1 892.722 174.065)"/><path d="M430.464 334.025h31.794v.242h-31.794z" style="fill:#d9dbef" transform="matrix(-1 0 0 1 892.722 173.563)"/><path d="M430.464 334.277h31.794v.242h-31.794z" style="fill:#dbddf0" transform="matrix(-1 0 0 1 892.722 173.059)"/><path d="M430.464 334.528h31.794v.242h-31.794z" style="fill:#dddef1" transform="matrix(-1 0 0 1 892.722 172.557)"/><path d="M430.464 334.78h31.794v.242h-31.794z" style="fill:#dfe0f2" transform="matrix(-1 0 0 1 892.722 172.053)"/><path d="M430.464 335.031h31.794v.242h-31.794z" style="fill:#e0e2f3" transform="matrix(-1 0 0 1 892.722 171.551)"/><path d="M430.464 335.283h31.794v.242h-31.794z" style="fill:#e2e3f3" transform="matrix(-1 0 0 1 892.722 171.047)"/><path d="M430.464 335.534h31.794v.242h-31.794z" style="fill:#e4e5f4" transform="matrix(-1 0 0 1 892.722 170.545)"/><path d="M430.464 335.786h31.794v.242h-31.794z" style="fill:#e6e7f5" transform="matrix(-1 0 0 1 892.722 170.041)"/><path d="M430.464 336.038h31.794v.242h-31.794z" style="fill:#e8e8f6" transform="matrix(-1 0 0 1 892.722 169.537)"/><path d="M430.464 336.289h31.794v.242h-31.794z" style="fill:#eaebf7" transform="matrix(-1 0 0 1 892.722 169.035)"/><path d="M430.464 336.541h31.794v.242h-31.794z" style="fill:#ececf7" transform="matrix(-1 0 0 1 892.722 168.531)"/><path d="M430.464 336.792h31.794v.242h-31.794z" style="fill:#eeeef8" transform="matrix(-1 0 0 1 892.722 168.029)"/><path d="M430.464 337.044h31.794v.242h-31.794z" style="fill:#efeff9" transform="matrix(-1 0 0 1 892.722 167.525)"/><path d="M430.464 337.295h31.794v.242h-31.794z" style="fill:#f1f1fa" transform="matrix(-1 0 0 1 892.722 167.023)"/><path d="M430.464 337.547h31.794v.242h-31.794z" style="fill:#f3f3fa" transform="matrix(-1 0 0 1 892.722 166.519)"/><path d="M430.464 337.798h31.794v.242h-31.794z" style="fill:#f5f5fb" transform="matrix(-1 0 0 1 892.722 166.017)"/><path d="M430.464 338.05h31.794v.242h-31.794z" style="fill:#f6f6fc" transform="matrix(-1 0 0 1 892.722 165.513)"/><path d="M430.464 338.301h31.794v.242h-31.794z" style="fill:#f8f8fd" transform="matrix(-1 0 0 1 892.722 165.011)"/><path d="M430.464 338.553h31.794v.242h-31.794z" style="fill:#fafafd" transform="matrix(-1 0 0 1 892.722 164.507)"/><path d="M430.464 338.804h31.794v.242h-31.794z" style="fill:#fcfcfe" transform="matrix(-1 0 0 1 892.722 164.005)"/><path d="M430.464 339.056h31.794v.242h-31.794z" style="fill:#fdfdfe" transform="matrix(-1 0 0 1 892.722 163.501)"/><path d="M430.464 339.308h31.794v.242h-31.794z" style="fill:#fff" transform="matrix(-1 0 0 1 892.722 162.997)"/></g></g><g transform="translate(-3321.84 -3926.8)scale(8.33333)"><clipPath id="d"><path d="M398.62 502.339v.063c0 17.44 14.227 31.58 31.784 31.599l.052-4.037c-15.345 0-27.771-12.339-27.771-27.562v-.073z" clip-rule="nonzero"/></clipPath><g clip-path="url(#d)"><path d="M398.621 339.274h31.854v.242h-31.854z" style="fill:#0f4395" transform="translate(0 163.065)"/><path d="M398.621 339.023h31.854v.242h-31.854z" style="fill:#124496" transform="translate(0 163.567)"/><path d="M398.621 338.771h31.854v.242h-31.854z" style="fill:#134597" transform="translate(0 164.071)"/><path d="M398.621 338.52h31.854v.242h-31.854z" style="fill:#164697" transform="translate(0 164.573)"/><path d="M398.621 338.269h31.854v.242h-31.854z" style="fill:#194798" transform="translate(0 165.075)"/><path d="M398.621 338.017h31.854v.242h-31.854z" style="fill:#1c4899" transform="translate(0 165.579)"/><path d="M398.621 337.766h31.854v.242h-31.854z" style="fill:#20499a" transform="translate(0 166.081)"/><path d="M398.621 337.514h31.854v.242h-31.854z" style="fill:#234b9b" transform="translate(0 166.585)"/><path d="M398.621 337.263h31.854v.242h-31.854z" style="fill:#274c9c" transform="translate(0 167.087)"/><path d="M398.621 337.012h31.854v.242h-31.854z" style="fill:#294d9c" transform="translate(0 167.589)"/><path d="M398.621 336.76h31.854v.242h-31.854z" style="fill:#2a4e9d" transform="translate(0 168.093)"/><path d="M398.621 336.509h31.854v.242h-31.854z" style="fill:#2c4f9e" transform="translate(0 168.595)"/><path d="M398.621 336.258h31.854v.242h-31.854z" style="fill:#2e509f" transform="translate(0 169.097)"/><path d="M398.621 336.006h31.854v.242h-31.854z" style="fill:#32519f" transform="translate(0 169.601)"/><path d="M398.621 335.755h31.854v.242h-31.854z" style="fill:#3352a0" transform="translate(0 170.103)"/><path d="M398.621 335.504h31.854v.242h-31.854z" style="fill:#3654a1" transform="translate(0 170.605)"/><path d="M398.621 335.252h31.854v.242h-31.854z" style="fill:#3855a2" transform="translate(0 171.109)"/><path d="M398.621 335.001h31.854v.242h-31.854z" style="fill:#3956a3" transform="translate(0 171.611)"/><path d="M398.621 334.75h31.854v.242h-31.854z" style="fill:#3b57a4" transform="translate(0 172.113)"/><path d="M398.621 334.498h31.854v.242h-31.854z" style="fill:#3d58a4" transform="translate(0 172.617)"/><path d="M398.621 334.247h31.854v.242h-31.854z" style="fill:#3e5aa5" transform="translate(0 173.119)"/><path d="M398.621 333.995h31.854v.242h-31.854z" style="fill:#415ba6" transform="translate(0 173.623)"/><path d="M398.621 333.744h31.854v.242h-31.854z" style="fill:#425ca7" transform="translate(0 174.125)"/><path d="M398.621 333.493h31.854v.242h-31.854z" style="fill:#445ea8" transform="translate(0 174.627)"/><path d="M398.621 333.241h31.854v.242h-31.854z" style="fill:#465fa9" transform="translate(0 175.131)"/><path d="M398.621 332.99h31.854v.242h-31.854z" style="fill:#4860aa" transform="translate(0 175.633)"/><path d="M398.621 332.739h31.854v.242h-31.854z" style="fill:#4a61aa" transform="translate(0 176.135)"/><path d="M398.621 332.487h31.854v.242h-31.854z" style="fill:#4c63ab" transform="translate(0 176.639)"/><path d="M398.621 332.236h31.854v.242h-31.854z" style="fill:#4d64ac" transform="translate(0 177.141)"/><path d="M398.621 331.985h31.854v.242h-31.854z" style="fill:#4f65ad" transform="translate(0 177.643)"/><path d="M398.621 331.733h31.854v.242h-31.854z" style="fill:#5167ae" transform="translate(0 178.147)"/><path d="M398.621 331.482h31.854v.242h-31.854z" style="fill:#5368af" transform="translate(0 178.649)"/><path d="M398.621 331.23h31.854v.242h-31.854z" style="fill:#5569b0" transform="translate(0 179.153)"/><path d="M398.621 330.979h31.854v.242h-31.854z" style="fill:#576bb1" transform="translate(0 179.655)"/><path d="M398.621 330.728h31.854v.242h-31.854z" style="fill:#596cb1" transform="translate(0 180.157)"/><path d="M398.621 330.476h31.854v.242h-31.854z" style="fill:#5a6db2" transform="translate(0 180.661)"/><path d="M398.621 330.225h31.854v.242h-31.854z" style="fill:#5c6fb3" transform="translate(0 181.163)"/><path d="M398.621 329.974h31.854v.242h-31.854z" style="fill:#5e70b4" transform="translate(0 181.665)"/><path d="M398.621 329.722h31.854v.242h-31.854z" style="fill:#6172b5" transform="translate(0 182.169)"/><path d="M398.621 329.471h31.854v.242h-31.854z" style="fill:#6373b6" transform="translate(0 182.671)"/><path d="M398.621 329.22h31.854v.242h-31.854z" style="fill:#6575b7" transform="translate(0 183.173)"/><path d="M398.621 328.968h31.854v.242h-31.854z" style="fill:#6776b8" transform="translate(0 183.677)"/><path d="M398.621 328.717h31.854v.242h-31.854z" style="fill:#6877b9" transform="translate(0 184.179)"/><path d="M398.621 328.466h31.854v.242h-31.854z" style="fill:#6a79ba" transform="translate(0 184.681)"/><path d="M398.621 328.214h31.854v.242h-31.854z" style="fill:#6c7aba" transform="translate(0 185.185)"/><path d="M398.621 327.963h31.854v.242h-31.854z" style="fill:#6e7cbb" transform="translate(0 185.687)"/><path d="M398.621 327.711h31.854v.242h-31.854z" style="fill:#707dbc" transform="translate(0 186.191)"/><path d="M398.621 327.46h31.854v.242h-31.854z" style="fill:#727ebd" transform="translate(0 186.693)"/><path d="M398.621 327.209h31.854v.242h-31.854z" style="fill:#7480be" transform="translate(0 187.195)"/><path d="M398.621 326.957h31.854v.242h-31.854z" style="fill:#7582bf" transform="translate(0 187.699)"/><path d="M398.621 326.706h31.854v.242h-31.854z" style="fill:#7783c0" transform="translate(0 188.201)"/><path d="M398.621 326.455h31.854v.242h-31.854z" style="fill:#7985c1" transform="translate(0 188.703)"/><path d="M398.621 326.203h31.854v.242h-31.854z" style="fill:#7b86c1" transform="translate(0 189.207)"/><path d="M398.621 325.952h31.854v.242h-31.854z" style="fill:#7d88c2" transform="translate(0 189.709)"/><path d="M398.621 325.701h31.854v.242h-31.854z" style="fill:#7f89c4" transform="translate(0 190.211)"/><path d="M398.621 325.449h31.854v.242h-31.854z" style="fill:#818bc4" transform="translate(0 190.715)"/><path d="M398.621 325.198h31.854v.242h-31.854z" style="fill:#828cc5" transform="translate(0 191.217)"/><path d="M398.621 324.947h31.854v.242h-31.854z" style="fill:#848ec6" transform="translate(0 191.719)"/><path d="M398.621 324.695h31.854v.242h-31.854z" style="fill:#868fc7" transform="translate(0 192.223)"/><path d="M398.621 324.444h31.854v.242h-31.854z" style="fill:#8891c8" transform="translate(0 192.725)"/><path d="M398.621 324.192h31.854v.242h-31.854z" style="fill:#8a92c9" transform="translate(0 193.229)"/><path d="M398.621 323.941h31.854v.242h-31.854z" style="fill:#8c94ca" transform="translate(0 193.731)"/><path d="M398.621 323.69h31.854v.242h-31.854z" style="fill:#8d96cb" transform="translate(0 194.233)"/><path d="M398.621 323.438h31.854v.242h-31.854z" style="fill:#9097cc" transform="translate(0 194.737)"/><path d="M398.621 323.187h31.854v.242h-31.854z" style="fill:#9299cd" transform="translate(0 195.239)"/><path d="M398.621 322.936h31.854v.242h-31.854z" style="fill:#949bcd" transform="translate(0 195.741)"/><path d="M398.621 322.684h31.854v.242h-31.854z" style="fill:#959cce" transform="translate(0 196.245)"/><path d="M398.621 322.433h31.854v.242h-31.854z" style="fill:#979ecf" transform="translate(0 196.747)"/><path d="M398.621 322.182h31.854v.242h-31.854z" style="fill:#999fd0" transform="translate(0 197.249)"/><path d="M398.621 321.93h31.854v.242h-31.854z" style="fill:#9ba1d1" transform="translate(0 197.753)"/><path d="M398.621 321.679h31.854v.242h-31.854z" style="fill:#9da2d2" transform="translate(0 198.255)"/><path d="M398.621 321.428h31.854v.242h-31.854z" style="fill:#9ea4d3" transform="translate(0 198.757)"/><path d="M398.621 321.176h31.854v.242h-31.854z" style="fill:#a0a6d4" transform="translate(0 199.261)"/><path d="M398.621 320.925h31.854v.242h-31.854z" style="fill:#a2a7d5" transform="translate(0 199.763)"/><path d="M398.621 320.673h31.854v.242h-31.854z" style="fill:#a4a9d6" transform="translate(0 200.267)"/><path d="M398.621 320.422h31.854v.242h-31.854z" style="fill:#a5aad6" transform="translate(0 200.769)"/><path d="M398.621 320.171h31.854v.242h-31.854z" style="fill:#a7acd7" transform="translate(0 201.271)"/><path d="M398.621 319.919h31.854v.242h-31.854z" style="fill:#a9aed8" transform="translate(0 201.775)"/><path d="M398.621 319.668h31.854v.242h-31.854z" style="fill:#abafd9" transform="translate(0 202.277)"/><path d="M398.621 319.417h31.854v.242h-31.854z" style="fill:#adb1da" transform="translate(0 202.779)"/><path d="M398.621 319.165h31.854v.242h-31.854z" style="fill:#aeb3db" transform="translate(0 203.283)"/><path d="M398.621 318.914h31.854v.242h-31.854z" style="fill:#b0b4dc" transform="translate(0 203.785)"/><path d="M398.621 318.663h31.854v.242h-31.854z" style="fill:#b2b6dd" transform="translate(0 204.287)"/><path d="M398.621 318.411h31.854v.242h-31.854z" style="fill:#b4b7dd" transform="translate(0 204.791)"/><path d="M398.621 318.16h31.854v.242h-31.854z" style="fill:#b6b9df" transform="translate(0 205.293)"/><path d="M398.621 317.909h31.854v.242h-31.854z" style="fill:#b7bbdf" transform="translate(0 205.795)"/><path d="M398.621 317.657h31.854v.242h-31.854z" style="fill:#b9bde0" transform="translate(0 206.299)"/><path d="M398.621 317.406h31.854v.242h-31.854z" style="fill:#bbbee1" transform="translate(0 206.801)"/><path d="M398.621 317.154h31.854v.242h-31.854z" style="fill:#bec0e2" transform="translate(0 207.305)"/><path d="M398.621 316.903h31.854v.242h-31.854z" style="fill:#bfc2e3" transform="translate(0 207.807)"/><path d="M398.621 316.652h31.854v.242h-31.854z" style="fill:#c1c4e4" transform="translate(0 208.309)"/><path d="M398.621 316.4h31.854v.242h-31.854z" style="fill:#c3c5e5" transform="translate(0 208.813)"/><path d="M398.621 316.149h31.854v.242h-31.854z" style="fill:#c5c7e6" transform="translate(0 209.315)"/><path d="M398.621 315.898h31.854v.242h-31.854z" style="fill:#c7c8e6" transform="translate(0 209.817)"/><path d="M398.621 315.646h31.854v.242h-31.854z" style="fill:#c8cae7" transform="translate(0 210.321)"/><path d="M398.621 315.395h31.854v.242h-31.854z" style="fill:#cacce8" transform="translate(0 210.823)"/><path d="M398.621 315.144h31.854v.242h-31.854z" style="fill:#cccde9" transform="translate(0 211.325)"/><path d="M398.621 314.892h31.854v.242h-31.854z" style="fill:#cdcfea" transform="translate(0 211.829)"/><path d="M398.621 314.641h31.854v.242h-31.854z" style="fill:#cfd1ea" transform="translate(0 212.331)"/><path d="M398.621 314.389h31.854v.242h-31.854z" style="fill:#d1d2eb" transform="translate(0 212.835)"/><path d="M398.621 314.138h31.854v.242h-31.854z" style="fill:#d2d4ec" transform="translate(0 213.337)"/><path d="M398.621 313.887h31.854v.242h-31.854z" style="fill:#d4d6ed" transform="translate(0 213.839)"/><path d="M398.621 313.635h31.854v.242h-31.854z" style="fill:#d6d7ee" transform="translate(0 214.343)"/><path d="M398.621 313.384h31.854v.242h-31.854z" style="fill:#d8d9ef" transform="translate(0 214.845)"/><path d="M398.621 313.133h31.854v.242h-31.854z" style="fill:#d9dbef" transform="translate(0 215.347)"/><path d="M398.621 312.881h31.854v.242h-31.854z" style="fill:#dbddf0" transform="translate(0 215.851)"/><path d="M398.621 312.63h31.854v.242h-31.854z" style="fill:#dddef1" transform="translate(0 216.353)"/><path d="M398.621 312.379h31.854v.242h-31.854z" style="fill:#dfe0f2" transform="translate(0 216.855)"/><path d="M398.621 312.127h31.854v.242h-31.854z" style="fill:#e0e2f3" transform="translate(0 217.359)"/><path d="M398.621 311.876h31.854v.242h-31.854z" style="fill:#e2e3f3" transform="translate(0 217.861)"/><path d="M398.621 311.625h31.854v.242h-31.854z" style="fill:#e4e5f4" transform="translate(0 218.363)"/><path d="M398.621 311.373h31.854v.242h-31.854z" style="fill:#e6e7f5" transform="translate(0 218.867)"/><path d="M398.621 311.122h31.854v.242h-31.854z" style="fill:#e8e8f6" transform="translate(0 219.369)"/><path d="M398.621 310.87h31.854v.242h-31.854z" style="fill:#eaebf7" transform="translate(0 219.873)"/><path d="M398.621 310.619h31.854v.242h-31.854z" style="fill:#ececf7" transform="translate(0 220.375)"/><path d="M398.621 310.368h31.854v.242h-31.854z" style="fill:#eeeef8" transform="translate(0 220.877)"/><path d="M398.621 310.116h31.854v.242h-31.854z" style="fill:#efeff9" transform="translate(0 221.381)"/><path d="M398.621 309.865h31.854v.242h-31.854z" style="fill:#f1f1fa" transform="translate(0 221.883)"/><path d="M398.621 309.614h31.854v.242h-31.854z" style="fill:#f3f3fa" transform="translate(0 222.385)"/><path d="M398.621 309.362h31.854v.242h-31.854z" style="fill:#f5f5fb" transform="translate(0 222.889)"/><path d="M398.621 309.111h31.854v.242h-31.854z" style="fill:#f6f6fc" transform="translate(0 223.391)"/><path d="M398.621 308.86h31.854v.242h-31.854z" style="fill:#f8f8fd" transform="translate(0 223.893)"/><path d="M398.621 308.608h31.854v.242h-31.854z" style="fill:#fafafd" transform="translate(0 224.397)"/><path d="M398.621 308.357h31.854v.242h-31.854z" style="fill:#fcfcfe" transform="translate(0 224.899)"/><path d="M398.621 308.106h31.854v.242h-31.854z" style="fill:#fdfdfe" transform="translate(0 225.401)"/><path d="M398.621 307.854h31.854v.242h-31.854z" style="fill:#fff" transform="translate(0 225.905)"/></g></g></svg>
