<?xml version="1.0" encoding="UTF-8" standalone="no"?>
<!DOCTYPE svg PUBLIC "-//W3C//DTD SVG 1.1//EN" "http://www.w3.org/Graphics/SVG/1.1/DTD/svg11.dtd">
<svg width="100%" height="100%" viewBox="0 0 684 575" version="1.1" xmlns="http://www.w3.org/2000/svg" xmlns:xlink="http://www.w3.org/1999/xlink" xml:space="preserve" style="fill-rule:evenodd;clip-rule:evenodd;stroke-linejoin:round;stroke-miterlimit:2;">
    <g transform="matrix(8.33333,0,0,8.33333,251.898,393.357)">
        <path d="M0,-41.033C-2.889,-39.566 -5.459,-37.478 -7.488,-34.953C-9.699,-32.21 -11.267,-28.951 -12.016,-25.507C-13.181,-20.236 -12.414,-14.562 -9.861,-9.802C-9.61,-12.802 -8.819,-15.752 -7.588,-18.497C-6.974,-19.886 -6.181,-21.185 -5.493,-22.537C-4.522,-24.43 -3.542,-26.351 -3.057,-28.434C-2.46,-30.642 -2.341,-32.94 -2.17,-35.209C-0.082,-34.261 2.139,-33.593 4.409,-33.256C6.689,-32.95 8.997,-33.059 11.289,-32.903C13.554,-32.759 15.877,-32.479 17.939,-31.468C19.189,-30.871 20.181,-29.878 21.14,-28.904C22.156,-27.81 23.144,-26.619 23.637,-25.188C24.943,-24.898 26.202,-24.386 27.332,-23.671C28.42,-22.983 29.36,-22.041 29.952,-20.891C30.698,-19.503 31.317,-17.932 31.121,-16.328C30.752,-16.484 30.378,-16.626 29.997,-16.747C26.221,-17.939 22.097,-17.933 18.298,-16.843C16.893,-16.446 15.488,-15.828 14.484,-14.736C13.701,-13.899 13.274,-12.763 13.256,-11.622C13.236,-10.293 13.616,-8.967 14.282,-7.82C14.74,-7.175 15.29,-6.601 15.771,-5.972C16.019,-5.638 16.307,-5.316 16.435,-4.912C16.471,-4.673 16.152,-4.802 16.038,-4.84C15.34,-5.143 14.771,-5.675 14.254,-6.222C13.196,-7.384 12.397,-8.827 12.168,-10.395C11.954,-12.127 12.29,-13.952 13.238,-15.43C14.135,-16.854 15.494,-17.92 16.95,-18.727C18.053,-19.351 19.25,-19.816 20.502,-20.027C22.773,-20.415 25.127,-20.2 27.328,-19.545C26.646,-20.554 25.738,-21.395 24.749,-22.098C23.153,-23.227 21.3,-23.963 19.388,-24.343C17.473,-24.689 15.504,-24.897 13.564,-24.658C12.702,-24.516 11.727,-24.315 11.167,-23.579C9.842,-23.286 8.449,-23.669 7.328,-24.395C6.884,-24.685 6.365,-24.934 6.087,-25.408C8.233,-25.776 10.409,-25.966 12.586,-25.997C14.888,-25.997 17.19,-25.954 19.491,-25.881C18.56,-27.441 17.021,-28.546 15.398,-29.304C13.824,-30.033 12.112,-30.399 10.398,-30.608C7.996,-30.984 5.563,-31.221 3.206,-31.831C1.899,-32.213 0.66,-32.79 -0.564,-33.378C-0.822,-30.161 -1.396,-26.963 -2.341,-23.875C-3.041,-21.624 -4.023,-19.476 -4.851,-17.273C-5.515,-15.51 -6.092,-13.692 -6.262,-11.807C-6.411,-10.244 -6.256,-8.655 -5.813,-7.149C-5.356,-5.585 -4.747,-4.052 -3.902,-2.658C-1.427,-0.657 1.488,0.792 4.565,1.599C8.519,2.634 12.749,2.589 16.68,1.468C22.432,-0.149 27.459,-4.133 30.371,-9.346C32.434,-12.989 33.45,-17.209 33.295,-21.39C33.181,-24.919 32.231,-28.417 30.542,-31.517C29.115,-34.146 27.167,-36.492 24.844,-38.379C22.003,-40.697 18.595,-42.318 15,-43.048C9.963,-44.083 4.58,-43.381 0,-41.033M8.54,-46.036C12.966,-46.358 17.472,-45.511 21.466,-43.573C26.71,-41.052 31.033,-36.681 33.492,-31.408C35.23,-27.717 36.046,-23.603 35.874,-19.528C35.72,-15.657 34.669,-11.824 32.812,-8.422C29.951,-3.125 25.154,1.094 19.527,3.239C15.304,4.869 10.644,5.325 6.181,4.583C2.791,4.024 -0.48,2.764 -3.369,0.908C-8.288,-2.23 -12.074,-7.101 -13.875,-12.653C-15.862,-18.692 -15.486,-25.473 -12.807,-31.241C-10.255,-36.825 -5.613,-41.412 0,-43.899C2.693,-45.102 5.599,-45.828 8.54,-46.036" style="fill:white;fill-rule:nonzero;"/>
    </g>
    <g transform="matrix(8.33333,0,0,8.33333,323.069,432.808)">
        <path d="M0,-50.77C-2.942,-50.562 -5.847,-49.837 -8.54,-48.634C-14.153,-46.146 -18.795,-41.559 -21.347,-35.975C-24.026,-30.207 -24.403,-23.426 -22.416,-17.387C-20.615,-11.835 -16.828,-6.964 -11.91,-3.826C-9.02,-1.971 -5.749,-0.71 -2.36,-0.151C2.103,0.591 6.764,0.134 10.987,-1.495C16.613,-3.64 21.411,-7.859 24.271,-13.156C26.128,-16.558 27.18,-20.391 27.333,-24.263C27.506,-28.338 26.69,-32.452 24.952,-36.143C22.493,-41.415 18.17,-45.787 12.925,-48.307C8.932,-50.245 4.426,-51.092 0,-50.77M0.102,-51.881C4.447,-52.163 8.861,-51.378 12.826,-49.571C18.138,-47.173 22.611,-42.973 25.342,-37.825C27.071,-34.588 28.112,-30.987 28.38,-27.327C28.709,-23 27.97,-18.592 26.217,-14.62C23.837,-9.174 19.57,-4.581 14.315,-1.803C10.702,0.122 6.635,1.188 2.542,1.284C-1.383,1.393 -5.331,0.624 -8.921,-0.97C-14.383,-3.373 -18.978,-7.676 -21.74,-12.965C-24.097,-17.431 -25.115,-22.581 -24.676,-27.61C-24.383,-31.1 -23.387,-34.53 -21.762,-37.634C-18.938,-43.067 -14.178,-47.463 -8.534,-49.839C-5.798,-51 -2.864,-51.69 0.102,-51.881" style="fill:rgb(34,33,73);fill-rule:nonzero;"/>
    </g>
    <g transform="matrix(8.33333,0,0,8.33333,251.898,389.89)">
        <path d="M0,-40.617C4.58,-42.965 9.963,-43.667 15,-42.632C18.595,-41.902 22.003,-40.281 24.844,-37.963C27.167,-36.076 29.115,-33.73 30.542,-31.101C32.231,-28.001 33.181,-24.503 33.295,-20.974C33.45,-16.793 32.434,-12.573 30.371,-8.93C27.459,-3.717 22.432,0.267 16.68,1.884C12.749,3.005 8.519,3.05 4.565,2.015C1.488,1.208 -1.427,-0.241 -3.902,-2.242C-4.747,-3.636 -5.356,-5.169 -5.813,-6.733C-6.256,-8.239 -6.411,-9.828 -6.262,-11.391C-6.092,-13.276 -5.515,-15.094 -4.851,-16.857C-4.023,-19.06 -3.041,-21.208 -2.341,-23.459C-1.396,-26.547 -0.822,-29.745 -0.564,-32.962C0.66,-32.374 1.899,-31.797 3.206,-31.415C5.563,-30.805 7.996,-30.568 10.398,-30.192C12.112,-29.983 13.824,-29.617 15.398,-28.888C17.021,-28.13 18.56,-27.025 19.491,-25.465C17.19,-25.538 14.888,-25.581 12.586,-25.581C10.409,-25.55 8.233,-25.36 6.087,-24.992C6.365,-24.518 6.884,-24.269 7.328,-23.979C8.449,-23.253 9.842,-22.87 11.167,-23.163C11.727,-23.899 12.702,-24.1 13.564,-24.242C15.504,-24.481 17.473,-24.273 19.388,-23.927C21.3,-23.547 23.153,-22.811 24.749,-21.682C25.738,-20.979 26.646,-20.138 27.328,-19.129C25.127,-19.784 22.773,-19.999 20.502,-19.611C19.25,-19.4 18.053,-18.935 16.95,-18.311C15.494,-17.504 14.135,-16.438 13.238,-15.014C12.29,-13.536 11.954,-11.711 12.168,-9.979C12.397,-8.411 13.196,-6.968 14.254,-5.806C14.771,-5.259 15.34,-4.727 16.038,-4.424C16.152,-4.386 16.471,-4.257 16.435,-4.496C16.307,-4.9 16.019,-5.222 15.771,-5.556C15.29,-6.185 14.74,-6.759 14.282,-7.404C13.616,-8.551 13.236,-9.877 13.256,-11.206C13.274,-12.347 13.701,-13.483 14.484,-14.32C15.488,-15.412 16.893,-16.03 18.298,-16.427C22.097,-17.517 26.221,-17.523 29.997,-16.331C30.378,-16.21 30.752,-16.068 31.121,-15.912C31.317,-17.516 30.698,-19.087 29.952,-20.475C29.36,-21.625 28.42,-22.567 27.332,-23.255C26.202,-23.97 24.943,-24.482 23.637,-24.772C23.144,-26.203 22.156,-27.394 21.14,-28.488C20.181,-29.462 19.189,-30.455 17.939,-31.052C15.877,-32.063 13.554,-32.343 11.289,-32.487C8.997,-32.643 6.689,-32.534 4.409,-32.84C2.139,-33.177 -0.082,-33.845 -2.17,-34.793C-2.341,-32.524 -2.46,-30.226 -3.057,-28.018C-3.542,-25.935 -4.522,-24.014 -5.493,-22.121C-6.181,-20.769 -6.974,-19.47 -7.588,-18.081C-8.819,-15.336 -9.61,-12.386 -9.861,-9.386C-12.414,-14.146 -13.181,-19.82 -12.016,-25.091C-11.267,-28.535 -9.699,-31.794 -7.488,-34.537C-5.459,-37.062 -2.889,-39.15 0,-40.617" style="fill:rgb(34,33,73);fill-rule:nonzero;"/>
    </g>
    <g transform="matrix(8.33333,0,0,8.33333,17.7303,545.905)">
        <path d="M0,-8.782C1.299,-9.61 2.928,-9.735 4.416,-9.495C5.261,-9.365 6.066,-9.059 6.839,-8.702C6.851,-8.167 6.841,-7.631 6.846,-7.095C6.603,-7.139 6.432,-7.337 6.226,-7.458C5.093,-8.265 3.649,-8.589 2.275,-8.417C1.538,-8.319 0.825,-7.986 0.314,-7.44C-0.34,-6.769 -0.655,-5.833 -0.715,-4.911C-0.778,-3.941 -0.673,-2.922 -0.194,-2.059C0.27,-1.217 1.115,-0.608 2.055,-0.415C3.211,-0.176 4.425,-0.353 5.524,-0.759C5.526,-1.585 5.524,-2.411 5.524,-3.236C4.624,-3.234 3.724,-3.236 2.824,-3.235C2.825,-3.628 2.825,-4.02 2.824,-4.412C4.164,-4.418 5.504,-4.408 6.844,-4.418C6.86,-2.975 6.845,-1.532 6.852,-0.089C5.534,0.488 4.109,0.953 2.652,0.834C1.233,0.757 -0.254,0.225 -1.124,-0.952C-2.083,-2.226 -2.256,-3.918 -2.051,-5.455C-1.877,-6.788 -1.145,-8.058 0,-8.782" style="fill:rgb(18,17,12);fill-rule:nonzero;"/>
    </g>
    <g transform="matrix(8.33333,0,0,8.33333,220.334,557.027)">
        <path d="M0,-6.367C0.023,-4.939 -0.014,-3.51 0.019,-2.082C0.855,-1.707 1.843,-1.508 2.725,-1.84C3.468,-2.126 3.896,-2.894 4.006,-3.649C4.119,-4.432 4.106,-5.249 3.874,-6.01C3.711,-6.562 3.282,-7.059 2.701,-7.178C1.73,-7.406 0.753,-6.951 0,-6.367M0.004,-7.451C0.715,-8.023 1.582,-8.475 2.518,-8.449C3.309,-8.463 4.109,-8.117 4.581,-7.47C5.286,-6.547 5.419,-5.328 5.375,-4.203C5.322,-2.985 4.796,-1.716 3.744,-1.036C2.632,-0.3 1.133,-0.423 0.005,-1.058C0.007,-0.003 0.007,1.052 0.006,2.107C-0.419,2.108 -0.843,2.108 -1.268,2.107C-1.265,-1.341 -1.267,-4.789 -1.267,-8.238C-0.842,-8.239 -0.418,-8.238 0.007,-8.238C0.007,-7.976 0.006,-7.714 0.004,-7.451" style="fill:rgb(18,17,12);fill-rule:nonzero;"/>
    </g>
    <g transform="matrix(8.33333,0,0,8.33333,299.856,544.295)">
        <path d="M0,-5.769C-0.426,-5.682 -0.814,-5.438 -1.078,-5.095C-1.525,-4.514 -1.623,-3.752 -1.64,-3.041C-1.647,-2.271 -1.56,-1.442 -1.087,-0.803C-0.34,0.232 1.437,0.221 2.173,-0.823C2.667,-1.514 2.731,-2.406 2.704,-3.228C2.669,-3.971 2.515,-4.789 1.943,-5.316C1.434,-5.802 0.668,-5.905 0,-5.769M-0.47,-6.798C0.464,-7.024 1.506,-6.958 2.345,-6.461C3.155,-5.978 3.689,-5.12 3.888,-4.21C4.08,-3.309 4.073,-2.359 3.843,-1.465C3.584,-0.463 2.874,0.447 1.892,0.82C0.694,1.255 -0.787,1.125 -1.756,0.245C-2.448,-0.376 -2.817,-1.285 -2.912,-2.196C-3.014,-3.183 -2.942,-4.223 -2.496,-5.124C-2.097,-5.934 -1.354,-6.582 -0.47,-6.798" style="fill:rgb(18,17,12);fill-rule:nonzero;"/>
    </g>
    <g transform="matrix(8.33333,0,0,8.33333,91.4578,550.93)">
        <path d="M0,-7.506C0.424,-7.506 0.849,-7.507 1.273,-7.506C1.272,-7.135 1.273,-6.763 1.274,-6.391C1.797,-6.803 2.352,-7.205 2.999,-7.394C3.557,-7.558 4.15,-7.525 4.717,-7.426C4.717,-6.987 4.718,-6.547 4.717,-6.109C3.965,-6.27 3.142,-6.352 2.421,-6.028C2.007,-5.846 1.628,-5.597 1.275,-5.319C1.271,-3.53 1.272,-1.74 1.274,0.05C0.85,0.052 0.426,0.051 0.002,0.051C-0.001,-2.468 0.003,-4.987 0,-7.506" style="fill:rgb(18,17,12);fill-rule:nonzero;"/>
    </g>
    <g transform="matrix(8.33333,0,0,8.33333,138.278,553.647)">
        <path d="M0,-7.832C0.424,-7.833 0.849,-7.831 1.273,-7.833C1.275,-6.332 1.272,-4.831 1.275,-3.33C1.294,-2.782 1.292,-2.176 1.644,-1.719C1.949,-1.313 2.504,-1.261 2.973,-1.277C3.745,-1.335 4.444,-1.732 5.048,-2.19C5.049,-4.073 5.038,-5.956 5.054,-7.839C5.475,-7.826 5.897,-7.835 6.319,-7.832L6.319,-0.274C5.895,-0.276 5.471,-0.275 5.047,-0.275L5.047,-1.112C4.412,-0.628 3.707,-0.158 2.89,-0.085C2.088,0.007 1.19,-0.178 0.644,-0.814C0.152,-1.371 0.008,-2.143 0.002,-2.864C-0.003,-4.52 0.001,-6.176 0,-7.832" style="fill:rgb(18,17,12);fill-rule:nonzero;"/>
    </g>
    <g transform="matrix(-8.11883,1.87857,1.87857,8.11883,692.556,548.524)">
        <path d="M1.171,-10.272C0.41,-10.093 -0.353,-9.92 -1.114,-9.742C-0.351,-6.45 0.411,-3.158 1.171,0.135C1.934,-0.041 2.696,-0.218 3.458,-0.395C2.694,-3.687 1.935,-6.979 1.171,-10.272" style="fill:rgb(238,115,2);fill-rule:nonzero;"/>
    </g>
    <g transform="matrix(8.33333,0,0,8.33333,539.974,553.284)">
        <path d="M0,-9.582C0.782,-9.583 1.563,-9.583 2.345,-9.582C2.344,-8.886 2.345,-8.189 2.344,-7.493C3.076,-7.492 3.809,-7.493 4.542,-7.493C4.543,-6.963 4.542,-6.433 4.542,-5.903C3.809,-5.901 3.076,-5.901 2.345,-5.903C2.348,-4.817 2.336,-3.731 2.35,-2.645C2.338,-2.236 2.548,-1.771 2.983,-1.68C3.514,-1.517 4.029,-1.766 4.542,-1.867C4.542,-1.324 4.543,-0.781 4.541,-0.237C3.774,-0.046 2.975,0.001 2.189,-0.056C1.595,-0.108 0.968,-0.268 0.539,-0.707C0.129,-1.147 0.017,-1.772 0.003,-2.352C-0.004,-3.536 0.004,-4.719 -0.001,-5.902L-0.965,-5.902C-0.965,-6.433 -0.965,-6.963 -0.964,-7.492C-0.643,-7.493 -0.322,-7.493 0,-7.493C0.001,-8.189 0.001,-8.886 0,-9.582" style="fill:rgb(238,115,2);fill-rule:nonzero;"/>
    </g>
    <g transform="matrix(8.33333,0,0,8.33333,366.92,542.836)">
        <path d="M0,-5.434C0.712,-5.992 1.552,-6.51 2.496,-6.439C3.353,-6.444 4.145,-5.93 4.542,-5.181C5.198,-5.722 5.926,-6.249 6.78,-6.405C7.518,-6.513 8.355,-6.38 8.901,-5.835C9.433,-5.305 9.6,-4.524 9.611,-3.798C9.614,-2.173 9.612,-0.547 9.612,1.079C8.826,1.077 8.04,1.077 7.254,1.079C7.248,-0.363 7.267,-1.804 7.243,-3.245C7.23,-3.668 7.197,-4.22 6.759,-4.427C6.103,-4.7 5.372,-4.475 4.803,-4.106C4.809,-2.378 4.803,-0.651 4.806,1.077C4.02,1.079 3.234,1.076 2.448,1.079C2.442,-0.24 2.451,-1.559 2.444,-2.877C2.425,-3.314 2.464,-3.792 2.227,-4.181C2.005,-4.514 1.563,-4.554 1.198,-4.541C0.768,-4.54 0.39,-4.311 0.013,-4.132C-0.02,-2.397 0.007,-0.659 0,1.078L-2.348,1.078C-2.348,-1.361 -2.349,-3.8 -2.348,-6.238C-1.567,-6.239 -0.784,-6.239 -0.002,-6.238C-0.002,-5.97 -0.001,-5.703 0,-5.434" style="fill:rgb(238,115,2);fill-rule:nonzero;"/>
    </g>
    <g transform="matrix(8.33333,0,0,8.33333,484.059,538.915)">
        <path d="M0,-4.149C-0.32,-3.879 -0.419,-3.451 -0.463,-3.053C0.556,-3.05 1.575,-3.047 2.595,-3.055C2.574,-3.574 2.403,-4.185 1.874,-4.399C1.267,-4.627 0.509,-4.579 0,-4.149M-1.81,-4.84C-1.153,-5.531 -0.213,-5.889 0.724,-5.968C1.61,-6.041 2.545,-5.99 3.351,-5.581C3.998,-5.256 4.481,-4.653 4.703,-3.968C4.959,-3.232 4.918,-2.443 4.919,-1.676C3.128,-1.675 1.335,-1.677 -0.457,-1.675C-0.428,-1.017 -0.036,-0.375 0.595,-0.139C1.846,0.341 3.294,0.065 4.397,-0.659C4.505,-0.755 4.649,-0.743 4.783,-0.748C4.78,-0.12 4.782,0.508 4.783,1.137C3.359,1.74 1.759,1.892 0.243,1.61C-0.684,1.43 -1.6,0.984 -2.163,0.204C-2.748,-0.593 -2.887,-1.628 -2.796,-2.59C-2.723,-3.42 -2.401,-4.243 -1.81,-4.84" style="fill:rgb(238,115,2);fill-rule:nonzero;"/>
    </g>
    <g transform="matrix(8.33333,0,0,8.33333,608.875,515.779)">
        <path d="M0,1.251C-0.618,1.497 -0.696,2.548 -0.058,2.814C0.663,3.085 1.511,2.911 2.101,2.424C2.099,1.913 2.101,1.402 2.099,0.89C1.397,0.978 0.661,0.973 0,1.251M-2.237,-2.839C-0.783,-3.172 0.735,-3.329 2.215,-3.078C2.876,-2.957 3.571,-2.713 3.989,-2.156C4.318,-1.728 4.427,-1.176 4.428,-0.646C4.429,1.01 4.425,2.667 4.429,4.324C3.653,4.326 2.877,4.325 2.1,4.325C2.1,4.065 2.099,3.807 2.101,3.55C1.705,3.843 1.313,4.163 0.84,4.322C0.231,4.527 -0.436,4.58 -1.066,4.452C-1.921,4.272 -2.676,3.581 -2.831,2.706C-2.948,2.029 -2.852,1.261 -2.375,0.737C-1.885,0.182 -1.152,-0.065 -0.447,-0.208C0.397,-0.369 1.256,-0.424 2.112,-0.487C2.14,-0.874 1.926,-1.268 1.546,-1.39C0.66,-1.692 -0.327,-1.643 -1.208,-1.345C-1.552,-1.252 -1.875,-1.079 -2.235,-1.057C-2.241,-1.651 -2.238,-2.245 -2.237,-2.839" style="fill:rgb(238,115,2);fill-rule:nonzero;"/>
    </g>
</svg>
