<?xml version="1.0" encoding="UTF-8"?>
<svg clip-rule="evenodd" stroke-linejoin="round" stroke-miterlimit="2" viewBox="0 0 684 575" xml:space="preserve" xmlns="http://www.w3.org/2000/svg"><path transform="translate(251.9 393.36) scale(8.3333)" d="M0-41.033a23 23 0 0 0-7.488 6.08 22.86 22.86 0 0 0-4.528 9.446c-1.165 5.271-.398 10.945 2.155 15.705.251-3 1.042-5.95 2.273-8.695.614-1.389 1.407-2.688 2.095-4.04.971-1.893 1.951-3.814 2.436-5.897.597-2.208.716-4.506.887-6.775a24.7 24.7 0 0 0 6.579 1.953c2.28.306 4.588.197 6.88.353 2.265.144 4.588.424 6.65 1.435 1.25.597 2.242 1.59 3.201 2.564 1.016 1.094 2.004 2.285 2.497 3.716 1.306.29 2.565.802 3.695 1.517 1.088.688 2.028 1.63 2.62 2.78.746 1.388 1.365 2.959 1.169 4.563a13 13 0 0 0-1.124-.419c-3.776-1.192-7.9-1.186-11.699-.096-1.405.397-2.81 1.015-3.814 2.107-.783.837-1.21 1.973-1.228 3.114-.02 1.329.36 2.655 1.026 3.802.458.645 1.008 1.219 1.489 1.848.248.334.536.656.664 1.06.036.239-.283.11-.397.072-.698-.303-1.267-.835-1.784-1.382-1.058-1.162-1.857-2.605-2.086-4.173-.214-1.732.122-3.557 1.07-5.035.897-1.424 2.256-2.49 3.712-3.297 1.103-.624 2.3-1.089 3.552-1.3 2.271-.388 4.625-.173 6.826.482-.682-1.009-1.59-1.85-2.579-2.553-1.596-1.129-3.449-1.865-5.361-2.245-1.915-.346-3.884-.554-5.824-.315-.862.142-1.837.343-2.397 1.079-1.325.293-2.718-.09-3.839-.816-.444-.29-.963-.539-1.241-1.013a42 42 0 0 1 6.499-.589c2.302 0 4.604.043 6.905.116-.931-1.56-2.47-2.665-4.093-3.423-1.574-.729-3.286-1.095-5-1.304-2.402-.376-4.835-.613-7.192-1.223-1.307-.382-2.546-.959-3.77-1.547-.258 3.217-.832 6.415-1.777 9.503-.7 2.251-1.682 4.399-2.51 6.602-.664 1.763-1.241 3.581-1.411 5.466a12.4 12.4 0 0 0 .449 4.658c.457 1.564 1.066 3.097 1.911 4.491a22.6 22.6 0 0 0 8.467 4.257 23.1 23.1 0 0 0 12.115-.131C22.432-.149 27.459-4.133 30.371-9.346a22.86 22.86 0 0 0 2.924-12.044 22.8 22.8 0 0 0-2.753-10.127 23 23 0 0 0-5.698-6.862A22.84 22.84 0 0 0 15-43.048c-5.037-1.035-10.42-.333-15 2.015m8.54-5.003c4.426-.322 8.932.525 12.926 2.463 5.244 2.521 9.567 6.892 12.026 12.165a25.5 25.5 0 0 1 2.382 11.88 25.4 25.4 0 0 1-3.062 11.106c-2.861 5.297-7.658 9.516-13.285 11.661-4.223 1.63-8.883 2.086-13.346 1.344A25.4 25.4 0 0 1-3.369.908c-4.919-3.138-8.705-8.009-10.506-13.561-1.987-6.039-1.611-12.82 1.068-18.588C-10.255-36.825-5.613-41.412 0-43.899a25.4 25.4 0 0 1 8.54-2.137" fill="#fff"/><path transform="translate(323.07 432.81) scale(8.3333)" d="M0-50.77a25.4 25.4 0 0 0-8.54 2.136c-5.613 2.488-10.255 7.075-12.807 12.659-2.679 5.768-3.056 12.549-1.069 18.588 1.801 5.552 5.588 10.423 10.506 13.561A25.4 25.4 0 0 0-2.36-.151c4.463.742 9.124.285 13.347-1.344 5.626-2.145 10.424-6.364 13.284-11.661a25.4 25.4 0 0 0 3.062-11.107 25.5 25.5 0 0 0-2.381-11.88c-2.459-5.272-6.782-9.644-12.027-12.164C8.932-50.245 4.426-51.092 0-50.77m.102-1.111c4.345-.282 8.759.503 12.724 2.31 5.312 2.398 9.785 6.598 12.516 11.746a26.5 26.5 0 0 1 3.038 10.498 26.6 26.6 0 0 1-2.163 12.707C23.837-9.174 19.57-4.581 14.315-1.803A26.5 26.5 0 0 1 2.542 1.284 26.5 26.5 0 0 1-8.921-.97c-5.462-2.403-10.057-6.706-12.819-11.995-2.357-4.466-3.375-9.616-2.936-14.645a26.5 26.5 0 0 1 2.914-10.024c2.824-5.433 7.584-9.829 13.228-12.205a26.5 26.5 0 0 1 8.636-2.042" fill="#222149"/><path transform="translate(251.9 389.89) scale(8.3333)" d="M0-40.617c4.58-2.348 9.963-3.05 15-2.015a22.84 22.84 0 0 1 9.844 4.669 23 23 0 0 1 5.698 6.862 22.8 22.8 0 0 1 2.753 10.127A22.86 22.86 0 0 1 30.371-8.93C27.459-3.717 22.432.267 16.68 1.884a23.1 23.1 0 0 1-12.115.131 22.6 22.6 0 0 1-8.467-4.257c-.845-1.394-1.454-2.927-1.911-4.491a12.4 12.4 0 0 1-.449-4.658c.17-1.885.747-3.703 1.411-5.466.828-2.203 1.81-4.351 2.51-6.602.945-3.088 1.519-6.286 1.777-9.503 1.224.588 2.463 1.165 3.77 1.547 2.357.61 4.79.847 7.192 1.223 1.714.209 3.426.575 5 1.304 1.623.758 3.162 1.863 4.093 3.423a218 218 0 0 0-6.905-.116 42 42 0 0 0-6.499.589c.278.474.797.723 1.241 1.013 1.121.726 2.514 1.109 3.839.816.56-.736 1.535-.937 2.397-1.079 1.94-.239 3.909-.031 5.824.315 1.912.38 3.765 1.116 5.361 2.245.989.703 1.897 1.544 2.579 2.553-2.201-.655-4.555-.87-6.826-.482-1.252.211-2.449.676-3.552 1.3-1.456.807-2.815 1.873-3.712 3.297-.948 1.478-1.284 3.303-1.07 5.035.229 1.568 1.028 3.011 2.086 4.173.517.547 1.086 1.079 1.784 1.382.114.038.433.167.397-.072-.128-.404-.416-.726-.664-1.06-.481-.629-1.031-1.203-1.489-1.848-.666-1.147-1.046-2.473-1.026-3.802.018-1.141.445-2.277 1.228-3.114 1.004-1.092 2.409-1.71 3.814-2.107 3.799-1.09 7.923-1.096 11.699.096q.571.183 1.124.419c.196-1.604-.423-3.175-1.169-4.563-.592-1.15-1.532-2.092-2.62-2.78a11.7 11.7 0 0 0-3.695-1.517c-.493-1.431-1.481-2.622-2.497-3.716-.959-.974-1.951-1.967-3.201-2.564-2.062-1.011-4.385-1.291-6.65-1.435-2.292-.156-4.6-.047-6.88-.353a24.7 24.7 0 0 1-6.579-1.953c-.171 2.269-.29 4.567-.887 6.775-.485 2.083-1.465 4.004-2.436 5.897-.688 1.352-1.481 2.651-2.095 4.04-1.231 2.745-2.022 5.695-2.273 8.695-2.553-4.76-3.32-10.434-2.155-15.705a22.86 22.86 0 0 1 4.528-9.446A23 23 0 0 1 0-40.617" fill="#222149"/><path transform="translate(17.73 545.9) scale(8.3333)" d="M0-8.782c1.299-.828 2.928-.953 4.416-.713.845.13 1.65.436 2.423.793.012.535.002 1.071.007 1.607-.243-.044-.414-.242-.62-.363-1.133-.807-2.577-1.131-3.951-.959-.737.098-1.45.431-1.961.977-.654.671-.969 1.607-1.029 2.529-.063.97.042 1.989.521 2.852A3.37 3.37 0 0 0 2.055-.415c1.156.239 2.37.062 3.469-.344q.001-1.24 0-2.477-1.35.001-2.7.001v-1.177c1.34-.006 2.68.004 4.02-.006.016 1.443.001 2.886.008 4.329-1.318.577-2.743 1.042-4.2.923C1.233.757-.254.225-1.124-.952c-.959-1.274-1.132-2.966-.927-4.503.174-1.333.906-2.603 2.051-3.327" fill="#12110c"/><path transform="translate(220.33 557.03) scale(8.3333)" d="M0-6.367C.023-4.939-.014-3.51.019-2.082c.836.375 1.824.574 2.706.242.743-.286 1.171-1.054 1.281-1.809.113-.783.1-1.6-.132-2.361-.163-.552-.592-1.049-1.173-1.168C1.73-7.406.753-6.951 0-6.367m.004-1.084c.711-.572 1.578-1.024 2.514-.998.791-.014 1.591.332 2.063.979.705.923.838 2.142.794 3.267-.053 1.218-.579 2.487-1.631 3.167C2.632-.3 1.133-.423.005-1.058Q.008.524.006 2.107h-1.274q.003-5.172.001-10.345H.007z" fill="#12110c"/><path transform="translate(299.86 544.3) scale(8.3333)" d="M0-5.769a1.84 1.84 0 0 0-1.078.674c-.447.581-.545 1.343-.562 2.054-.007.77.08 1.599.553 2.238C-.34.232 1.437.221 2.173-.823c.494-.691.558-1.583.531-2.405-.035-.743-.189-1.561-.761-2.088C1.434-5.802.668-5.905 0-5.769m-.47-1.029c.934-.226 1.976-.16 2.815.337.81.483 1.344 1.341 1.543 2.251a6 6 0 0 1-.045 2.745C3.584-.463 2.874.447 1.892.82c-1.198.435-2.679.305-3.648-.575-.692-.621-1.061-1.53-1.156-2.441-.102-.987-.03-2.027.416-2.928.399-.81 1.142-1.458 2.026-1.674" fill="#12110c"/><path transform="translate(91.458 550.93)scale(8.33333)" d="M0-7.506h1.273q-.001.557.001 1.115c.523-.412 1.078-.814 1.725-1.003.558-.164 1.151-.131 1.718-.032v1.317c-.752-.161-1.575-.243-2.296.081a5.3 5.3 0 0 0-1.146.709Q1.27-2.635 1.274.05.638.052.002.051C-.001-2.468.003-4.987 0-7.506" fill="#12110c"/><path transform="translate(138.28 553.65) scale(8.3333)" d="M0-7.832q.637 0 1.273-.001c.002 1.501-.001 3.002.002 4.503.019.548.017 1.154.369 1.611.305.406.86.458 1.329.442.772-.058 1.471-.455 2.075-.913.001-1.883-.01-3.766.006-5.649.421.013.843.004 1.265.007v7.558q-.636-.002-1.272-.001v-.837c-.635.484-1.34.954-2.157 1.027-.802.092-1.7-.093-2.246-.729-.492-.557-.636-1.329-.642-2.05C-.003-4.52.001-6.176 0-7.832" fill="#12110c"/><path transform="scale(-8.3333 8.3333) rotate(13.028 -329.79 -331)" d="M1.171-10.272c-.761.179-1.524.352-2.285.53Q.031-4.804 1.171.135l2.287-.53c-.764-3.292-1.523-6.584-2.287-9.877" fill="#ee7302"/><path transform="translate(539.97 553.28) scale(8.3333)" d="M0-9.582h2.345l-.001 2.089h2.198v1.59q-1.1.003-2.197 0c.003 1.086-.009 2.172.005 3.258-.012.409.198.874.633.965.531.163 1.046-.086 1.559-.187q.001.814-.001 1.63a7.5 7.5 0 0 1-2.352.181C1.595-.108.968-.268.539-.707c-.41-.44-.522-1.065-.536-1.645-.007-1.184.001-2.367-.004-3.55h-.964l.001-1.59L0-7.493z" fill="#ee7302"/><path transform="translate(366.92 542.84) scale(8.3333)" d="M0-5.434c.712-.558 1.552-1.076 2.496-1.005.857-.005 1.649.509 2.046 1.258.656-.541 1.384-1.068 2.238-1.224.738-.108 1.575.025 2.121.57.532.53.699 1.311.71 2.037q.003 2.438.001 4.877-1.179-.003-2.358 0c-.006-1.442.013-2.883-.011-4.324-.013-.423-.046-.975-.484-1.182-.656-.273-1.387-.048-1.956.321.006 1.728 0 3.455.003 5.183-.786.002-1.572-.001-2.358.002-.006-1.319.003-2.638-.004-3.956-.019-.437.02-.915-.217-1.304-.222-.333-.664-.373-1.029-.36-.43.001-.808.23-1.185.409C-.02-2.397.007-.659 0 1.078h-2.348v-7.316h2.346z" fill="#ee7302"/><path transform="translate(484.06 538.92) scale(8.3333)" d="M0-4.149c-.32.27-.419.698-.463 1.096 1.019.003 2.038.006 3.058-.002-.021-.519-.192-1.13-.721-1.344-.607-.228-1.365-.18-1.874.25m-1.81-.691c.657-.691 1.597-1.049 2.534-1.128.886-.073 1.821-.022 2.627.387.647.325 1.13.928 1.352 1.613.256.736.215 1.525.216 2.292q-2.687 0-5.376.001c.029.658.421 1.3 1.052 1.536 1.251.48 2.699.204 3.802-.52.108-.096.252-.084.386-.089q-.003.942 0 1.885a7.97 7.97 0 0 1-4.54.473C-.684 1.43-1.6.984-2.163.204c-.585-.797-.724-1.832-.633-2.794.073-.83.395-1.653.986-2.25" fill="#ee7302"/><path transform="translate(608.88 515.78) scale(8.3333)" d="M0 1.251c-.618.246-.696 1.297-.058 1.563.721.271 1.569.097 2.159-.39Q2.1 1.658 2.099.89C1.397.978.661.973 0 1.251m-2.237-4.09c1.454-.333 2.972-.49 4.452-.239.661.121 1.356.365 1.774.922.329.428.438.98.439 1.51.001 1.656-.003 3.313.001 4.97q-1.164.002-2.329.001-.001-.39.001-.775c-.396.293-.788.613-1.261.772a3.7 3.7 0 0 1-1.906.13c-.855-.18-1.61-.871-1.765-1.746-.117-.677-.021-1.445.456-1.969.49-.555 1.223-.802 1.928-.945.844-.161 1.703-.216 2.559-.279.028-.387-.186-.781-.566-.903-.886-.302-1.873-.253-2.754.045-.344.093-.667.266-1.027.288-.006-.594-.003-1.188-.002-1.782" fill="#ee7302"/></svg>
