<svg clip-rule="evenodd" stroke-linejoin="round" stroke-miterlimit="2" viewBox="0 0 684 575" xml:space="preserve" xmlns="http://www.w3.org/2000/svg"><path d="M251.9 51.4a192 192 0 0 0-62.4 50.7 191 191 0 0 0-37.7 78.7c-9.7 44-3.3 91.2 18 130.9 2-25 8.6-49.6 18.9-72.5 5-11.6 11.7-22.4 17.4-33.6a215 215 0 0 0 20.3-49.2c5-18.4 6-37.5 7.4-56.4a206 206 0 0 0 54.8 16.2c19 2.6 38.3 1.7 57.4 3 18.8 1.2 38.2 3.5 55.4 12a99 99 0 0 1 26.7 21.3c8.4 9.1 16.7 19 20.8 31a97 97 0 0 1 30.8 12.6c9 5.7 16.9 13.6 21.8 23.2 6.2 11.5 11.4 24.6 9.7 38a108 108 0 0 0-9.3-3.5c-31.5-10-65.9-9.9-97.5-.8a67 67 0 0 0-31.8 17.6c-6.5 7-10 16.4-10.2 26-.2 11 3 22 8.5 31.6 3.8 5.4 8.4 10.2 12.4 15.4 2 2.8 4.5 5.5 5.6 8.8.3 2-2.4 1-3.4.6a67 67 0 0 1-32.2-46.3 64 64 0 0 1 9-42 84 84 0 0 1 30.8-27.4q13.9-8 29.6-10.8a126 126 0 0 1 57 4 85 85 0 0 0-21.6-21.3 117 117 0 0 0-44.6-18.7 162 162 0 0 0-48.6-2.6c-7.2 1.2-15.3 2.8-20 9-11 2.4-22.6-.8-32-6.8-3.6-2.4-8-4.5-10.3-8.5a350 350 0 0 1 54.2-4.9q28.8 0 57.5 1a76 76 0 0 0-34-28.5 141 141 0 0 0-41.8-11c-20-3-40.2-5-59.9-10.1a208 208 0 0 1-31.4-12.9c-2.1 26.8-7 53.5-14.8 79.2-5.8 18.8-14 36.7-21 55a175 175 0 0 0-11.7 45.6 103 103 0 0 0 3.8 38.8c3.8 13 8.8 25.8 15.9 37.4a188 188 0 0 0 70.5 35.5 193 193 0 0 0 101-1.1c48-13.5 89.8-46.7 114-90.1A191 191 0 0 0 529.5 215a190 190 0 0 0-23-84.4A192 192 0 0 0 459 73.5a190 190 0 0 0-82-38.9c-42-8.6-86.8-2.7-125 16.8m71.2-41.7a213 213 0 0 1 207.9 122 213 213 0 0 1 19.8 99 212 212 0 0 1-25.5 92.5 214 214 0 0 1-110.7 97.2 213 213 0 0 1-111.2 11.2 212 212 0 0 1-79.6-30.7 214 214 0 0 1-87.5-113 213 213 0 0 1 8.9-154.9A214 214 0 0 1 252 27.5a212 212 0 0 1 71.2-17.8" fill="#fff"/><path d="M323 9.7a212 212 0 0 0-71 17.8A214 214 0 0 0 145.2 133a213 213 0 0 0-9 155c15 46.2 46.6 86.8 87.6 113a212 212 0 0 0 79.6 30.6 215 215 0 0 0 111.2-11.2c47-18 86.9-53 110.7-97.2a212 212 0 0 0 25.5-92.6 213 213 0 0 0-19.8-99A213 213 0 0 0 323 9.7m1-9.2a222 222 0 0 1 210.3 117.1 221 221 0 0 1 25.3 87.5 222 222 0 0 1-18 105.9 223 223 0 0 1-99.2 106.8 221 221 0 0 1-98.1 25.7 221 221 0 0 1-95.6-18.8 222 222 0 0 1-131.3-222 221 221 0 0 1 24.3-83.5C165.3 73.9 205 37.2 252 17.5a221 221 0 0 1 72-17" fill="#222149"/><path d="M251.9 51.4c38.2-19.6 83-25.4 125-16.8a190 190 0 0 1 82 39 192 192 0 0 1 47.5 57.1 190 190 0 0 1 23 84.4A191 191 0 0 1 505 315.5a192 192 0 0 1-114.1 90 193 193 0 0 1-101 1.2 188 188 0 0 1-70.5-35.5c-7-11.6-12.1-24.4-16-37.4a103 103 0 0 1-3.7-38.8c1.4-15.7 6.2-30.9 11.8-45.6 6.9-18.3 15-36.2 20.9-55a373 373 0 0 0 14.8-79.2 208 208 0 0 0 31.4 12.9c19.7 5 40 7 60 10.2 14.2 1.7 28.5 4.8 41.6 10.9a76 76 0 0 1 34.1 28.5 1817 1817 0 0 0-57.5-1 350 350 0 0 0-54.2 5c2.3 3.9 6.7 6 10.4 8.4 9.3 6 21 9.2 32 6.8 4.6-6.2 12.7-7.8 20-9 16.1-2 32.5-.3 48.5 2.6 15.9 3.2 31.3 9.3 44.6 18.7a85 85 0 0 1 21.5 21.3 126 126 0 0 0-56.9-4 91 91 0 0 0-29.6 10.8 84 84 0 0 0-30.9 27.5 64 64 0 0 0-8.9 42 67 67 0 0 0 32.2 46.2c1 .3 3.7 1.4 3.4-.6-1.1-3.3-3.5-6-5.6-8.8-4-5.3-8.6-10-12.4-15.4a62 62 0 0 1-8.5-31.7c.1-9.5 3.7-19 10.2-26a67 67 0 0 1 31.8-17.5c31.6-9 66-9.1 97.5.8q4.7 1.5 9.3 3.5c1.7-13.4-3.5-26.5-9.7-38a61 61 0 0 0-21.8-23.2 98 98 0 0 0-30.8-12.6 91 91 0 0 0-20.8-31 99 99 0 0 0-26.7-21.4c-17.2-8.4-36.6-10.7-55.4-12-19.1-1.2-38.4-.3-57.4-2.9a206 206 0 0 1-54.8-16.3c-1.4 19-2.4 38.1-7.4 56.5-4 17.4-12.2 33.4-20.3 49.1-5.7 11.3-12.3 22.1-17.4 33.7a223 223 0 0 0-19 72.5 192 192 0 0 1-18-130.9 191 191 0 0 1 37.8-78.7 192 192 0 0 1 62.4-50.7" fill="#222149"/><path d="M17.7 472.7a53 53 0 0 1 36.8-6q10.5 2 20.2 6.7v13.4c-2-.4-3.4-2-5-3a47 47 0 0 0-33-8c-6.2.8-12.1 3.6-16.4 8.1-5.4 5.6-8 13.4-8.5 21-.6 8.2.3 16.7 4.3 23.8A28 28 0 0 0 35 542.4a53 53 0 0 0 28.9-2.8v-20.7H41.3v-9.8h33.5v36a74 74 0 0 1-35 7.7c-11.8-.6-24.2-5-31.4-14.8a51 51 0 0 1-7.8-37.6 39 39 0 0 1 17.1-27.7M220.3 504l.2 35.7a30 30 0 0 0 22.5 2c6.2-2.4 9.8-8.8 10.7-15q1.6-10-1-19.8c-1.4-4.6-5-8.7-9.9-9.7-8-1.9-16.2 2-22.5 6.8m0-9c6-4.8 13.2-8.6 21-8.4 6.6 0 13.3 2.8 17.2 8.2 5.9 7.7 7 17.8 6.6 27.2a33 33 0 0 1-13.6 26.4c-9.2 6.1-21.7 5.1-31.1-.2v26.4h-10.6v-86.2h10.6zm79.6 1.2a15 15 0 0 0-9 5.6 29 29 0 0 0-4.7 17.2 31 31 0 0 0 4.6 18.6c6.2 8.6 21 8.5 27.2-.2a32 32 0 0 0 4.4-20c-.3-6.2-1.6-13-6.3-17.4-4.3-4-10.7-5-16.2-3.8m-4-8.5a32 32 0 0 1 23.5 2.8 29 29 0 0 1 12.9 18.7 50 50 0 0 1-.4 22.9c-2.2 8.3-8 16-16.3 19a31 31 0 0 1-30.4-4.8 32 32 0 0 1-9.6-20.3c-.9-8.2-.3-16.9 3.5-24.4a26 26 0 0 1 16.8-14m-204.4.8H102v9.3c4.3-3.5 9-6.8 14.3-8.4 4.7-1.4 9.6-1 14.4-.3v11a31 31 0 0 0-19.2.7 44 44 0 0 0-9.5 6v44.6H91.5zm46.8 0h10.6v37.5c.2 4.6.1 9.6 3 13.4 2.6 3.4 7.2 3.8 11.2 3.7 6.4-.5 12.2-3.8 17.2-7.6l.1-47h10.5v63h-10.6v-7a36 36 0 0 1-18 8.5c-6.6.8-14.1-.7-18.7-6-4-4.7-5.3-11.1-5.3-17.1z" fill="#12110c"/><path d="M663.7 467.3h19.6v84.5h-19.6zM540 473.4h19.5v17.4h18.3v13.3h-18.3v27.1c0 3.4 1.7 7.3 5.3 8 4.5 1.4 8.7-.6 13-1.5v13.6a63 63 0 0 1-19.6 1.5c-5-.4-10.2-1.8-13.7-5.4s-4.4-8.9-4.5-13.7V504h-8v-13.3h8zm-173 24.2c5.9-4.7 12.9-9 20.7-8.4 7.2 0 13.8 4.2 17 10.5a42 42 0 0 1 18.7-10.2c6.2-1 13.1.2 17.7 4.7 4.4 4.4 5.8 11 6 17v40.6h-19.7l-.1-36c-.1-3.5-.4-8.1-4-9.9-5.5-2.2-11.6-.4-16.4 2.7v43.2h-19.6v-33c-.2-3.6.2-7.6-1.8-10.8-1.9-2.8-5.6-3.1-8.6-3-3.6 0-6.7 2-9.9 3.4q-.2 21.8 0 43.4h-19.6v-61h19.5zm117 6.7c-2.6 2.3-3.4 5.9-3.8 9.2h25.5c-.2-4.4-1.6-9.5-6-11.2a16 16 0 0 0-15.6 2m-15.1-5.7a33 33 0 0 1 21-9.4c7.5-.6 15.3-.2 22 3.2a23 23 0 0 1 11.3 13.5c2 6 1.7 12.7 1.8 19h-44.8c.2 5.5 3.5 10.9 8.7 12.9 10.4 4 22.5 1.7 31.7-4.4.9-.8 2.1-.7 3.2-.7v15.7a66 66 0 0 1-37.8 4 32 32 0 0 1-20-11.8 33 33 0 0 1-5.3-23.3c.6-6.9 3.3-13.7 8.2-18.7m139.9 27.6c-5.2 2-5.8 10.8-.5 13 6 2.3 13 .8 18-3.2v-12.8c-5.9.7-12 .7-17.5 3m-18.7-34a91 91 0 0 1 37.1-2c5.5 1 11.3 3 14.8 7.6 2.8 3.6 3.7 8.2 3.7 12.6v41.4h-19.4v-6.4c-3.3 2.4-6.6 5-10.5 6.4a31 31 0 0 1-15.9 1 19 19 0 0 1-14.7-14.5c-1-5.6-.2-12 3.8-16.4 4-4.6 10.2-6.7 16-7.9q10.6-1.7 21.4-2.3c.2-3.2-1.6-6.5-4.7-7.5a36 36 0 0 0-23 .4c-2.9.7-5.5 2.2-8.5 2.4z" fill="#ee7302"/></svg>