<svg id="Camada_1" data-name="Camada 1" xmlns="http://www.w3.org/2000/svg" viewBox="0 0 443.17 155.58"><defs><style>.cls-1{fill:#ffd100;}.cls-2{fill:#58595b;}</style></defs><polygon class="cls-1" points="415.02 155.58 0 155.58 5.03 133.15 419.69 133.14 415.02 155.58"/><path class="cls-2" d="M437.58,106.62h-.07a9.13,9.13,0,0,0-8.46,7,6.69,6.69,0,0,0-.16,1.47v0a5.35,5.35,0,0,0,5.63,5.46h0a9.18,9.18,0,0,0,8.47-7,8.11,8.11,0,0,0,.15-1.45,5.32,5.32,0,0,0-5.59-5.48m4.48,6.74a8.21,8.21,0,0,1-7.51,6.24h0c-3,0-4.63-1.87-4.68-4.51a5.12,5.12,0,0,1,.15-1.27,8.17,8.17,0,0,1,7.46-6.24c3,0,4.68,1.86,4.74,4.52a5.76,5.76,0,0,1-.15,1.26"/><path class="cls-2" d="M437,110.25h-3l-1.42,6.68h1.47l.46-2.15h1.17l1,2.15h1.73l-1.13-2.39a2.75,2.75,0,0,0,1.89-2.09c.29-1.39-.56-2.2-2.16-2.2m.64,2.29a1.27,1.27,0,0,1-1.36,1h-1.46l.41-2h1.44c.73,0,1.11.34,1,1"/><path d="M315.1,96.58c-3.71-4-1.49-11.93.41-20.89L322,45.26h26.61l4.82-22.65H326.79L331.51,0H306.42L290,77.78c-2.48,11.62-3.41,20.7,1.64,30.49,4.69,9.1,20.7,17.79,41,12.3l4.48-21c-13.75,1.7-19.27-.09-22-3"/><polygon points="102.66 0 90.68 56.17 46.66 56.17 58.6 0 33.28 0 7.68 120.57 32.98 120.57 41.82 78.79 85.87 78.79 77 120.57 102.09 120.57 127.72 0 102.66 0"/><path d="M247.2,31.12c-8.78,7.34-13.77,16.94-17,32.09L218,120.57h25.11L253.24,73c2.39-11.12,4.22-18.08,8.4-22.37,5.75-5.87,14.08-6.2,24.08-5.37l4.83-22.65c-17.64-4.49-33.05-.09-43.35,8.51"/><polygon points="443.17 22.61 364.81 22.61 360 45.26 405.47 45.26 348.6 98.79 343.98 120.57 422.35 120.57 427.18 97.93 381.45 97.93 438.6 44.16 443.17 22.61"/><path d="M178.68,20.81c-8.48,0-20.08,2.62-31.47,11.57-25.7,20.15-38.45,90,16.72,90,14.3,0,30.22-4.51,41.26-12.85l-10-16.86c-8.35,6.42-50.41,20.39-46-13.7H215c0-.07,8.38-27.33-3.67-43.82-10.27-14.06-29.18-14.3-32.63-14.3M195,58.19H154.76c1.41-5.42,10-18.75,25.84-17.29C197.67,42.47,195,58.19,195,58.19"/></svg>