<?xml version="1.0" encoding="UTF-8" standalone="no"?>
<!-- Created with Inkscape (http://www.inkscape.org/) -->

<svg
   version="1.1"
   id="svg2"
   xml:space="preserve"
   width="590.89331"
   height="207.44"
   viewBox="0 0 590.89331 207.44"
   sodipodi:docname="Logo_Hertz_2018.eps"
   xmlns:inkscape="http://www.inkscape.org/namespaces/inkscape"
   xmlns:sodipodi="http://sodipodi.sourceforge.net/DTD/sodipodi-0.dtd"
   xmlns="http://www.w3.org/2000/svg"
   xmlns:svg="http://www.w3.org/2000/svg"><defs
     id="defs6" /><sodipodi:namedview
     id="namedview4"
     pagecolor="#ffffff"
     bordercolor="#666666"
     borderopacity="1.0"
     inkscape:pageshadow="2"
     inkscape:pageopacity="0.0"
     inkscape:pagecheckerboard="0" /><g
     id="g8"
     inkscape:groupmode="layer"
     inkscape:label="ink_ext_XXXXXX"
     transform="matrix(1.3333333,0,0,-1.3333333,0,207.44)"><g
       id="g10"
       transform="scale(0.1)"><path
         d="M 4150.18,0 H 0 L 50.3008,224.27 4196.9,224.352 4150.18,0"
         style="fill:#fcce06;fill-opacity:1;fill-rule:nonzero;stroke:none"
         id="path12" /><path
         d="m 4420.65,422.172 c -6.84,-33.32 -41.51,-62.641 -75.15,-62.434 h -0.11 c -29.47,0.543 -46.25,18.774 -46.78,45.121 0,4.082 0.44,8.391 1.44,12.77 6.66,33.152 40.98,62.293 74.65,62.391 30.05,-0.579 46.81,-18.68 47.4,-45.27 0,-3.82 -0.5,-8.129 -1.45,-12.578 m -44.82,67.398 c -0.12,0 -0.3,0.032 -0.69,0.032 -39.05,-0.231 -76.47,-31.852 -84.65,-70.071 -1.06,-4.883 -1.54,-9.793 -1.54,-14.672 v -0.129 c 0.06,-30.96 22.44,-54.539 56.26,-54.628 0.18,0 0.29,0.089 0.29,0.089 39.03,0.207 76.36,32 84.68,70.071 0.95,4.937 1.51,9.828 1.51,14.488 0.18,31.109 -22.32,54.648 -55.86,54.82"
         style="fill:#4f4c4c;fill-opacity:1;fill-rule:nonzero;stroke:none"
         id="path14" /><path
         d="m 4376.51,430.371 c -1.25,-5.672 -6.13,-9.699 -13.57,-9.699 h -14.65 l 4.12,19.558 h 14.35 c 7.35,0 11.11,-3.339 9.75,-9.859 m -6.37,22.859 h -29.75 l -14.22,-66.761 h 14.77 l 4.53,21.562 h 11.7 l 9.59,-21.562 h 17.36 l -11.32,23.902 c 9.29,3.109 16.52,9.988 18.89,20.891 2.9,13.886 -5.56,21.968 -21.55,21.968"
         style="fill:#4f4c4c;fill-opacity:1;fill-rule:nonzero;stroke:none"
         id="path16" /><path
         d="m 3151,590.027 c -37.05,39.875 -14.89,119.25 4.09,208.848 l 64.74,304.305 h 266.1 l 48.21,226.51 h -266.28 l 47.19,226.09 H 3064.19 L 2899.81,778.016 c -24.8,-116.211 -34.08,-207.078 16.35,-304.946 46.89,-91.019 207.08,-177.879 409.84,-122.98 l 44.82,210.23 c -137.5,-17.011 -192.74,0.86 -219.82,29.707"
         style="fill:#0a0806;fill-opacity:1;fill-rule:nonzero;stroke:none"
         id="path18" /><path
         d="M 1026.56,1555.78 906.84,994.09 H 466.598 l 119.41,561.69 H 332.813 L 76.7852,350.09 H 329.836 l 88.383,417.75 H 858.684 L 769.977,350.09 h 250.943 l 256.26,1205.69 h -250.62"
         style="fill:#0a0806;fill-opacity:1;fill-rule:nonzero;stroke:none"
         id="path20" /><path
         d="M 2472.05,1244.54 C 2384.24,1171.18 2334.34,1075.2 2301.99,923.633 L 2180.11,350.09 h 251.08 l 101.2,475.652 c 23.89,111.27 42.18,180.848 83.98,223.688 57.48,58.76 140.8,62 240.82,53.75 l 48.3,226.51 c -176.43,44.87 -330.51,0.92 -433.44,-85.15"
         style="fill:#0a0806;fill-opacity:1;fill-rule:nonzero;stroke:none"
         id="path22" /><path
         d="m 4431.69,1329.71 h -783.64 l -48.03,-226.54 h 454.64 L 3486.02,567.879 3439.79,350.102 h 783.7 l 48.32,226.343 H 3814.5 l 571.45,537.755 45.74,215.51"
         style="fill:#0a0806;fill-opacity:1;fill-rule:nonzero;stroke:none"
         id="path24" /><path
         d="m 1950.1,973.855 h -402.51 c 14.16,54.215 99.62,187.555 258.41,172.965 170.69,-15.76 144.1,-172.965 144.1,-172.965 m -163.27,373.865 c -84.8,0 -200.79,-26.25 -314.77,-115.72 -256.92,-201.56 -384.51,-899.648 167.28,-899.648 143,0 302.17,45.168 412.59,128.546 L 1952.1,629.473 C 1868.57,565.254 1447.96,425.57 1492.29,766.512 h 657.49 c 0.28,0.664 83.86,273.298 -36.65,438.148 -102.7,140.57 -291.79,143.06 -326.3,143.06"
         style="fill:#0a0806;fill-opacity:1;fill-rule:nonzero;stroke:none"
         id="path26" /></g></g></svg>
