<?xml version="1.0" encoding="UTF-8" standalone="no"?>
<svg
   version="1.1"
   width="1768.9645"
   height="342.27991"
   id="svg18"
   viewBox="0 0 1768.9644 342.2799"
   sodipodi:docname="cc527357ab705fc74c9f51f80e41ffc1.cdr"
   xmlns:inkscape="http://www.inkscape.org/namespaces/inkscape"
   xmlns:sodipodi="http://sodipodi.sourceforge.net/DTD/sodipodi-0.dtd"
   xmlns="http://www.w3.org/2000/svg"
   xmlns:svg="http://www.w3.org/2000/svg">
  <defs
     id="defs22" />
  <sodipodi:namedview
     id="namedview20"
     pagecolor="#ffffff"
     bordercolor="#666666"
     borderopacity="1.0"
     inkscape:pageshadow="2"
     inkscape:pageopacity="0.0"
     inkscape:pagecheckerboard="0" />
  <g
     id="Layer1000"
     transform="translate(792.14472,125.5977)">
    <path
       d="m -627.1663,-104.0369 c 84.0642,0 152.236,67.6611 152.236,151.091 0,83.4315 -68.1718,151.0926 -152.236,151.0926 -84.0643,0 -152.2361,-67.6611 -152.2361,-151.0926 0,-83.4299 68.1718,-151.091 152.2361,-151.091 z"
       style="fill:#ffffff;fill-rule:evenodd;stroke:#1b1918;stroke-width:0.216;stroke-linecap:butt;stroke-linejoin:miter;stroke-dasharray:none"
       id="path2" />
    <path
       d="m -670.8556,-112.8682 c 87.9727,-24.3191 179.0374,27.3017 203.3565,115.2743 24.3191,87.9726 -27.3018,179.0371 -115.2745,203.3562 -87.9728,24.319 -179.0374,-27.3017 -203.3565,-115.2743 -24.3191,-87.9727 27.3017,-179.0372 115.2745,-203.3562 z m 7.1131,25.7311 c 73.7648,-20.3914 150.1207,22.8916 170.5122,96.6563 20.3915,73.7647 -22.8916,150.1205 -96.6564,170.5119 -73.7648,20.3915 -150.1208,-22.8915 -170.5122,-96.6562 -20.3915,-73.7647 22.8916,-150.1205 96.6564,-170.512 z"
       style="fill:#aaaaaa;fill-rule:evenodd"
       id="path4" />
    <path
       d="m -662.0261,-80.9287 c 70.3361,-19.4441 143.1433,21.8285 162.5875,92.1645 19.4442,70.3361 -21.8285,143.1432 -92.1647,162.5873 -70.3361,19.4441 -143.1434,-21.8285 -162.5875,-92.1645 -19.4442,-70.3361 21.8285,-143.1448 92.1647,-162.5873 z"
       style="fill:#2d96d2;fill-rule:evenodd"
       id="path6" />
    <path
       d="m -582.3371,206.6385 c 46.9668,-13.4216 77.5107,-59.8362 63.6336,-110.0359 -23.8538,-86.2893 -119.2221,-117.4667 -151.2473,-206.9006 18.4577,93.1845 -47.356,168.9188 -23.5022,255.208 13.8771,50.1997 63.9241,74.336 111.1159,61.7285 z"
       style="fill:#2d96d2;fill-rule:evenodd;stroke:#ffffff;stroke-width:13.5675;stroke-linecap:round;stroke-linejoin:round;stroke-dasharray:none"
       id="path8" />
    <path
       d="m -680.9247,61.8533 c -20.616,79.1587 20.1571,138.4262 79.1043,137.1733 -60.2683,-45.2617 -57.3995,-61.8274 -34.4274,-145.1424 -21.4188,21.8397 -30.9438,16.4404 -44.6769,7.9691 z"
       style="fill:#ffffff;fill-rule:evenodd"
       id="path10" />
  </g>
  <g
     id="Layer1001"
     transform="translate(792.14472,125.5977)">
    <path
       d="M -383.0978,99.7768 V -64.3007 h 38.1989 V 99.7768 Z m 84.7734,0 V -64.3007 h 26.0663 l 115.5484,96.6873 c 3.9207,3.2317 7.3646,6.2514 10.3843,9.1129 3.0197,2.8603 5.7218,5.7745 8.2118,8.7415 -0.5835,-9.2184 -1.0065,-15.7347 -1.2186,-19.55 -0.2121,-3.8142 -0.3176,-6.7811 -0.3176,-8.847 v -86.1447 h 34.2771 V 99.7768 H -131.439 L -251.9136,-1.5729 c -2.9142,-2.5966 -5.457,-4.9273 -7.6295,-6.9932 -2.1725,-2.0669 -4.1856,-4.1856 -6.0394,-6.358 0.4769,5.0328 0.9,9.8546 1.1648,14.3578 0.2649,4.5032 0.3714,8.3712 0.3714,11.7084 v 88.6347 z m 239.6855,0 V -64.3007 h 165.9327 v 28.7146 H -20.44 V 7.5928 H 48.6449 V 37.526 H -20.44 V 99.7768 Z M 155.8825,-64.3007 V 68.8899 H 264.6498 V -64.3007 h 38.0396 V 60.9956 c 0,14.9929 -2.8087,25.219 -8.3712,30.6222 -5.6163,5.4569 -16.371,8.159 -32.3178,8.159 H 158.3726 c -15.8413,0 -26.596,-2.7021 -32.2123,-8.159 -5.668,-5.4032 -8.4767,-15.6293 -8.4767,-30.6222 V -64.3007 Z m 336.0026,28.7146 H 384.4958 v 35.2319 h 102.251 c 16.0523,0 26.9135,2.7548 32.5288,8.2118 5.669,5.5097 8.4766,15.682 8.4766,30.6222 v 22.5158 c 0,14.8875 -2.8076,25.0597 -8.4766,30.5694 -5.6153,5.457 -16.4765,8.2118 -32.5288,8.2118 H 385.4497 c -16.0534,0 -26.9136,-2.7548 -32.5299,-8.2118 -5.6691,-5.5097 -8.4767,-15.6819 -8.4767,-30.5694 v -4.5032 l 33.6947,-6.9932 V 68.8899 H 494.0576 V 31.4866 h -102.251 c -15.9468,0 -26.7014,-2.7549 -32.3166,-8.2119 -5.5636,-5.5097 -8.3712,-15.6819 -8.3712,-30.6221 v -18.1193 c 0,-14.9402 2.8076,-25.1124 8.3712,-30.6221 5.6152,-5.457 16.3698,-8.2119 32.3166,-8.2119 h 93.0853 c 15.4172,0 26.0663,2.6483 31.8936,7.8943 5.8812,5.2977 8.7954,14.6754 8.7954,28.1321 v 3.39 l -33.6958,7.9471 z m 120.1637,69.8803 h 71.8408 L 648.4994,-32.4599 Z M 538.619,99.7768 631.4394,-64.3007 h 36.7682 L 762.2994,99.7768 H 719.4391 L 699.7309,63.9625 H 595.7316 l -19.0731,35.8143 z m 158.9394,-225.3745 c -2.3845,12.1853 -6.0394,21.0851 -11.0194,26.7014 -4.9801,5.5624 -11.603,8.3712 -19.8676,8.3712 -1.5362,0 -3.2318,-0.1066 -5.0328,-0.3715 -1.8549,-0.2648 -3.7626,-0.7417 -5.8284,-1.3241 l -12.8744,-3.7614 c -2.1714,-0.5835 -4.0263,-1.0066 -5.5097,-1.2187 -1.5363,-0.2121 -3.0197,-0.3186 -4.4505,-0.3186 -3.39,0 -6.1976,0.8483 -8.3701,2.5438 -2.1724,1.6945 -3.8152,4.3439 -4.98,7.8405 h -15.5238 c 2.067,-11.3909 5.5636,-19.8676 10.4909,-25.4828 4.9263,-5.6691 11.3371,-8.4767 19.3369,-8.4767 1.9603,0 4.0262,0.1583 6.1987,0.5297 2.1724,0.3703 4.4504,0.9 6.8349,1.6417 l 13.8271,3.868 c 1.2187,0.3176 2.4901,0.5824 3.7615,0.7418 1.3252,0.1593 2.7021,0.212 4.1328,0.212 3.2845,0 6.146,-1.0065 8.4767,-2.9669 2.3307,-1.9604 3.9208,-4.8207 4.8735,-8.5294 z m 77.1978,100.131 c 0,-14.9402 2.8077,-25.1124 8.3701,-30.6221 5.6164,-5.457 16.371,-8.2119 32.3178,-8.2119 h 120.6878 c 15.9468,0 26.7014,2.7549 32.3178,8.2119 5.5624,5.5097 8.3701,15.6819 8.3701,30.6221 v 86.4623 c 0,14.9929 -2.8077,25.219 -8.3701,30.6222 -5.6164,5.4569 -16.371,8.159 -32.3178,8.159 H 815.4441 c -15.9468,0 -26.7014,-2.7021 -32.3178,-8.159 -5.5624,-5.4032 -8.3701,-15.6293 -8.3701,-30.6222 z m 38.1979,94.3566 H 938.7813 V -34.9499 H 812.9541 Z"
       style="fill:#2d96d2;fill-rule:evenodd"
       id="path13" />
    <path
       d="m -364.5224,148.0515 h -26.0153 v 8.5349 h 24.77 c 3.8896,0 6.5205,0.6673 7.8811,1.9895 1.3731,1.3346 2.0529,3.7981 2.0529,7.4175 v 5.455 c 0,3.6058 -0.6798,6.0704 -2.0529,7.405 -1.3606,1.3222 -3.9915,1.9895 -7.8811,1.9895 h -24.5383 c -3.8896,0 -6.5204,-0.6673 -7.881,-1.9895 -1.3732,-1.3346 -2.053,-3.7992 -2.053,-7.405 v -1.0914 l 8.1628,-1.6933 v 4.6973 h 28.0807 v -9.0609 h -24.77 c -3.8626,0 -6.4685,-0.6683 -7.8292,-1.9895 -1.3471,-1.3346 -2.0269,-3.7992 -2.0269,-7.4185 v -4.3896 c 0,-3.6193 0.6798,-6.0828 2.0269,-7.4175 1.3607,-1.3222 3.9666,-1.9895 7.8292,-1.9895 h 22.5498 c 3.7347,0 6.3146,0.6414 7.7262,1.9126 1.4251,1.2827 2.1309,3.5549 2.1309,6.8146 v 0.8212 l -8.1628,1.925 z m 19.2059,8.5224 c 0,-2.8886 0.5384,-4.8646 1.6298,-5.93 1.0779,-1.0655 3.1703,-1.5914 6.2627,-1.5914 h 23.3969 c 3.0934,0 5.1723,0.5259 6.2502,1.5914 1.0915,1.0654 1.6299,3.0414 1.6299,5.93 v 16.7486 c 0,2.9126 -0.5384,4.8896 -1.6299,5.9415 -1.0779,1.053 -3.1568,1.5789 -6.2502,1.5789 h -23.3969 c -3.0924,0 -5.1848,-0.5259 -6.2627,-1.5789 -1.0914,-1.0519 -1.6298,-3.0289 -1.6298,-5.9415 z m 7.405,18.288 h 24.3979 v -20.1236 h -24.3979 z m 41.3835,5.981 v -31.7904 h 7.4051 v 25.8094 h 23.8584 v 5.981 z m 43.5259,-5.981 h 9.5619 c 5.0954,0 8.7012,-0.7951 10.8321,-2.3741 2.1173,-1.5913 3.1828,-4.2097 3.1828,-7.854 0,-3.2472 -0.8856,-5.7118 -2.6444,-7.3801 -1.7712,-1.6818 -4.3761,-2.5154 -7.8156,-2.5154 h -13.1168 z m -7.405,5.981 v -31.7904 h 20.4574 c 5.8271,0 10.3186,1.3606 13.4504,4.0944 3.1444,2.7202 4.7098,6.5963 4.7098,11.6023 0,2.9645 -0.6154,5.6462 -1.8347,8.0214 -1.2192,2.3741 -2.952,4.2482 -5.1723,5.6078 -1.3866,0.8607 -3.1058,1.4895 -5.1598,1.8741 -2.0529,0.3981 -4.6837,0.5904 -7.8925,0.5904 z m 53.2811,-12.6927 h 13.9379 l -6.8666,-12.9369 z m -14.2207,12.6927 17.9814,-31.7904 h 7.1358 l 18.2247,31.7904 h -8.3042 l -3.8117,-6.9435 h -20.1632 l -3.6963,6.9435 z m 55.0263,-5.981 h 9.5619 c 5.0954,0 8.7012,-0.7951 10.8321,-2.3741 2.1173,-1.5913 3.1828,-4.2097 3.1828,-7.854 0,-3.2472 -0.8857,-5.7118 -2.6444,-7.3801 -1.7712,-1.6818 -4.3761,-2.5154 -7.8156,-2.5154 h -13.1168 z m -7.405,5.981 v -31.7904 h 20.4573 c 5.8272,0 10.3186,1.3606 13.4505,4.0944 3.1443,2.7202 4.7097,6.5963 4.7097,11.6023 0,2.9645 -0.6153,5.6462 -1.8346,8.0214 -1.2193,2.3741 -2.952,4.2482 -5.1723,5.6078 -1.3866,0.8607 -3.1058,1.4895 -5.1598,1.8741 -2.0529,0.3981 -4.6838,0.5904 -7.8925,0.5904 z m 53.6272,-31.7904 v 25.8094 h 21.0862 v -25.8094 h 7.3676 v 24.27 c 0,2.9126 -0.5394,4.8896 -1.6298,5.9415 -1.079,1.053 -3.1579,1.5789 -6.2502,1.5789 h -20.0863 c -3.0799,0 -5.1588,-0.5259 -6.2502,-1.5789 -1.0904,-1.0519 -1.6423,-3.0289 -1.6423,-5.9415 v -24.27 z m 62.6881,5.5059 h -16.6457 v 8.8426 h 16.6457 c 1.2837,0 2.1558,-0.1798 2.6308,-0.5519 0.475,-0.3722 0.7058,-1.027 0.7058,-1.976 v -3.8117 c 0,-0.924 -0.2308,-1.5789 -0.7058,-1.951 -0.475,-0.3721 -1.3471,-0.552 -2.6308,-0.552 z m -23.9229,26.2845 v -31.7904 h 27.1951 c 2.5289,0 4.3511,0.4875 5.4934,1.4635 1.1299,0.9626 1.6943,2.5404 1.6943,4.7098 v 7.4569 c 0,2.1434 -0.5644,3.7088 -1.6943,4.6838 -1.1423,0.9885 -2.9645,1.476 -5.4934,1.476 h -4.1454 l 14.6698,12.0004 h -10.6138 l -12.8216,-12.0004 h -7.0069 v 12.0004 z m 49.3665,-12.6927 h 13.938 l -6.8666,-12.9369 z m -14.2207,12.6927 17.9814,-31.7904 h 7.1358 l 18.2247,31.7904 h -8.3042 l -3.8116,-6.9435 h -20.1632 l -3.6963,6.9435 z m 71.4725,0 V 149.0525 H 57.846 v 5.4165 H 32.6903 v 7.0974 h 14.6822 v 5.4155 H 32.6903 v 7.88 h 25.4509 v 5.981 z m 66.4155,0 v -39.7474 h 40.1965 v 6.956 H 100.954 v 10.4599 h 16.7362 v 7.2512 H 100.954 v 15.0803 z m 43.6673,0 v -31.7904 h 7.405 v 25.8094 h 23.8584 v 5.981 z m 44.6682,-31.7904 v 25.8094 h 21.0862 v -25.8094 h 7.3676 v 24.27 c 0,2.9126 -0.5394,4.8896 -1.6298,5.9415 -1.079,1.053 -3.1579,1.5789 -6.2502,1.5789 h -20.0863 c -3.0799,0 -5.1588,-0.5259 -6.2502,-1.5789 -1.0904,-1.0519 -1.6424,-3.0289 -1.6424,-5.9415 v -24.27 z m 38.7652,31.7904 v -31.7904 h 7.405 v 31.7904 z m -0.7193,-35.153 6.1348,-10.408 h 6.6743 l -8.8686,10.408 z m 25.8022,29.172 h 9.5619 c 5.0954,0 8.7012,-0.7951 10.8321,-2.3741 2.1173,-1.5913 3.1828,-4.2097 3.1828,-7.854 0,-3.2472 -0.8856,-5.7118 -2.6444,-7.3801 -1.7712,-1.6818 -4.3761,-2.5154 -7.8156,-2.5154 h -13.1168 z m -7.405,5.981 v -31.7904 h 20.4573 c 5.8272,0 10.3187,1.3606 13.4505,4.0944 3.1443,2.7202 4.7098,6.5963 4.7098,11.6023 0,2.9645 -0.6154,5.6462 -1.8347,8.0214 -1.2192,2.3741 -2.952,4.2482 -5.1723,5.6078 -1.3866,0.8607 -3.1058,1.4895 -5.1598,1.8741 -2.0529,0.3981 -4.6837,0.5904 -7.8925,0.5904 z m 45.5548,-24.269 c 0,-2.8886 0.5385,-4.8646 1.6299,-5.93 1.0779,-1.0655 3.1703,-1.5914 6.2627,-1.5914 h 23.3969 c 3.0934,0 5.1723,0.5259 6.2502,1.5914 1.0914,1.0654 1.6299,3.0414 1.6299,5.93 v 16.7486 c 0,2.9126 -0.5385,4.8896 -1.6299,5.9415 -1.0779,1.053 -3.1568,1.5789 -6.2502,1.5789 h -23.3969 c -3.0924,0 -5.1848,-0.5259 -6.2627,-1.5789 -1.0914,-1.0519 -1.6299,-3.0289 -1.6299,-5.9415 z m 7.4051,18.288 h 24.3979 v -20.1236 h -24.3979 z m 68.9383,-20.239 h -20.8171 v 6.8146 h 19.8285 c 3.1059,0 5.1983,0.526 6.2897,1.5914 1.0904,1.0654 1.6424,3.0414 1.6424,5.93 v 4.3636 c 0,2.8876 -0.552,4.8636 -1.6424,5.929 -1.0914,1.0655 -3.1838,1.5914 -6.2897,1.5914 h -19.6486 c -3.1059,0 -5.2108,-0.5259 -6.3022,-1.5914 -1.0904,-1.0654 -1.6424,-3.0414 -1.6424,-5.929 v -0.8731 l 6.533,-1.3606 v 3.7731 h 22.4593 v -7.2636 h -19.816 c -3.0799,0 -5.1723,-0.527 -6.2502,-1.5914 -1.0904,-1.0654 -1.6299,-3.0289 -1.6299,-5.9165 v -3.5165 c 0,-2.8886 0.5395,-4.8646 1.6299,-5.93 1.0779,-1.0655 3.1703,-1.5914 6.2502,-1.5914 h 18.0583 c 2.977,0 5.0434,0.5135 6.1733,1.5404 1.1424,1.0135 1.7068,2.8357 1.7068,5.4415 v 0.6674 l -6.5329,1.5269 z m 42.2099,26.22 v -39.7474 h 9.2532 v 39.7474 z m 21.5031,0 v -31.7904 h 5.0569 l 22.3699,18.7381 c 0.7703,0.6164 1.4376,1.2068 2.0145,1.7577 0.5904,0.5519 1.1174,1.1174 1.5914,1.6943 -0.1154,-1.7837 -0.1923,-3.0414 -0.2308,-3.7857 -0.0384,-0.7442 -0.0644,-1.3097 -0.0644,-1.7067 v -16.6977 h 6.6483 v 31.7904 h -5.0559 L 431.087,161.2067 c -0.5644,-0.501 -1.0519,-0.95 -1.476,-1.3606 -0.4231,-0.3981 -0.8077,-0.8087 -1.1673,-1.2317 0.0894,0.9874 0.1663,1.9115 0.2182,2.7846 0.051,0.8732 0.077,1.6299 0.077,2.2712 v 17.1727 z m 55.0512,-5.981 h 9.5619 c 5.0954,0 8.7012,-0.7951 10.8321,-2.3741 2.1174,-1.5913 3.1828,-4.2097 3.1828,-7.854 0,-3.2472 -0.8856,-5.7118 -2.6444,-7.3801 -1.7712,-1.6818 -4.376,-2.5154 -7.8156,-2.5154 h -13.1168 z m -7.405,5.981 v -31.7904 h 20.4574 c 5.8271,0 10.3186,1.3606 13.4504,4.0944 3.1444,2.7202 4.7098,6.5963 4.7098,11.6023 0,2.9645 -0.6154,5.6462 -1.8347,8.0214 -1.2192,2.3741 -2.952,4.2482 -5.1722,5.6078 -1.3867,0.8607 -3.1059,1.4895 -5.1599,1.8741 -2.0529,0.3981 -4.6837,0.5904 -7.8925,0.5904 z m 53.6272,-31.7904 v 25.8094 h 21.0863 v -25.8094 h 7.3676 v 24.27 c 0,2.9126 -0.5395,4.8896 -1.6299,5.9415 -1.0789,1.053 -3.1578,1.5789 -6.2502,1.5789 h -20.0863 c -3.0799,0 -5.1588,-0.5259 -6.2502,-1.5789 -1.0904,-1.0519 -1.6423,-3.0289 -1.6423,-5.9415 v -24.27 z m 66.3199,5.5704 h -20.817 v 6.8146 h 19.8285 c 3.1059,0 5.1983,0.526 6.2897,1.5914 1.0904,1.0654 1.6424,3.0414 1.6424,5.93 v 4.3636 c 0,2.8876 -0.552,4.8636 -1.6424,5.929 -1.0914,1.0655 -3.1838,1.5914 -6.2897,1.5914 h -19.6487 c -3.1058,0 -5.2107,-0.5259 -6.3021,-1.5914 -1.0904,-1.0654 -1.6424,-3.0414 -1.6424,-5.929 v -0.8731 l 6.533,-1.3606 v 3.7731 h 22.4593 v -7.2636 h -19.816 c -3.0799,0 -5.1723,-0.527 -6.2502,-1.5914 -1.0904,-1.0654 -1.6299,-3.0289 -1.6299,-5.9165 v -3.5165 c 0,-2.8886 0.5395,-4.8646 1.6299,-5.93 1.0779,-1.0655 3.1703,-1.5914 6.2502,-1.5914 h 18.0583 c 2.977,0 5.0434,0.5135 6.1733,1.5404 1.1423,1.0135 1.7068,2.8357 1.7068,5.4415 v 0.6674 l -6.533,1.5269 z m 31.1284,0.1154 v 26.1046 h -7.405 v -26.1046 h -14.5928 v -5.6858 h 36.6415 v 5.6858 z m 41.6663,-0.1799 h -16.6457 v 8.8426 h 16.6457 c 1.2837,0 2.1558,-0.1798 2.6308,-0.5519 0.4751,-0.3722 0.7058,-1.027 0.7058,-1.976 v -3.8117 c 0,-0.924 -0.2307,-1.5789 -0.7058,-1.951 -0.475,-0.3721 -1.3471,-0.552 -2.6308,-0.552 z m -23.9229,26.2845 v -31.7904 h 27.1951 c 2.5289,0 4.3511,0.4875 5.4935,1.4635 1.1298,0.9626 1.6943,2.5404 1.6943,4.7098 v 7.4569 c 0,2.1434 -0.5645,3.7088 -1.6943,4.6838 -1.1424,0.9885 -2.9646,1.476 -5.4935,1.476 h -4.1453 l 14.6697,12.0004 h -10.6138 l -12.8216,-12.0004 h -7.0069 v 12.0004 z m 43.424,0 v -31.7904 h 7.405 v 31.7904 z m 25.8147,-12.6927 h 13.9379 l -6.8666,-12.9369 z m -14.2207,12.6927 17.9814,-31.7904 h 7.1358 l 18.2247,31.7904 h -8.3042 l -3.8116,-6.9435 h -20.1633 l -3.6962,6.9435 z m 47.6213,0 v -31.7904 h 7.405 v 31.7904 z m 45.2326,-26.22 h -20.817 v 6.8146 h 19.8285 c 3.1059,0 5.1983,0.526 6.2897,1.5914 1.0904,1.0654 1.6423,3.0414 1.6423,5.93 v 4.3636 c 0,2.8876 -0.5519,4.8636 -1.6423,5.929 -1.0914,1.0655 -3.1838,1.5914 -6.2897,1.5914 h -19.6487 c -3.1059,0 -5.2107,-0.5259 -6.3022,-1.5914 -1.0904,-1.0654 -1.6423,-3.0414 -1.6423,-5.929 v -0.8731 l 6.5329,-1.3606 v 3.7731 h 22.4594 v -7.2636 h -19.816 c -3.0799,0 -5.1723,-0.527 -6.2503,-1.5914 -1.0903,-1.0654 -1.6298,-3.0289 -1.6298,-5.9165 v -3.5165 c 0,-2.8886 0.5395,-4.8646 1.6298,-5.93 1.078,-1.0655 3.1704,-1.5914 6.2503,-1.5914 h 18.0583 c 2.977,0 5.0434,0.5135 6.1733,1.5404 1.1423,1.0135 1.7067,2.8357 1.7067,5.4415 v 0.6674 l -6.5329,1.5269 z m 23.6974,14.2965 h 1.2702 c 0.7058,0 1.1943,0.1934 1.476,0.578 0.2702,0.3981 0.4106,1.1423 0.4106,2.2462 v 7.931 l -7.6358,11.3975 h -4.5435 l 6.533,-11.6927 h -4.3896 c -0.6798,0 -1.1548,-0.2048 -1.4376,-0.6029 -0.2692,-0.3981 -0.4105,-1.1548 -0.4105,-2.2587 v -4.7742 c 0,-1.2068 0.1413,-1.977 0.4365,-2.3107 0.2817,-0.3461 1.1933,-0.5135 2.7203,-0.5135 z m 38.0386,11.9235 v -39.7474 h 9.2531 v 32.2655 h 29.8135 v 7.4819 z m 52.0223,-5.981 h 9.5619 c 5.0954,0 8.7012,-0.7951 10.8321,-2.3741 2.1173,-1.5913 3.1828,-4.2097 3.1828,-7.854 0,-3.2472 -0.8857,-5.7118 -2.6444,-7.3801 -1.7712,-1.6818 -4.3761,-2.5154 -7.8156,-2.5154 h -13.1168 z m -7.405,5.981 v -31.7904 h 20.4573 c 5.8272,0 10.3186,1.3606 13.4505,4.0944 3.1443,2.7202 4.7097,6.5963 4.7097,11.6023 0,2.9645 -0.6153,5.6462 -1.8346,8.0214 -1.2193,2.3741 -2.952,4.2482 -5.1723,5.6078 -1.3866,0.8607 -3.1058,1.4895 -5.1598,1.8741 -2.0529,0.3981 -4.6838,0.5904 -7.8925,0.5904 z m 53.281,-12.6927 h 13.938 l -6.8666,-12.9369 z m -14.2206,12.6927 17.9814,-31.7904 h 7.1358 l 18.2246,31.7904 h -8.3041 l -3.8117,-6.9435 h -20.1632 l -3.6963,6.9435 z"
       style="fill:#484d4d;fill-rule:evenodd"
       id="path15" />
  </g>
</svg>
