<svg xmlns="http://www.w3.org/2000/svg" width="1768.965" height="342.28" viewBox="0 0 1768.964 342.28"><path d="M-627.166-104.037c84.064 0 152.236 67.661 152.236 151.091 0 83.432-68.172 151.093-152.236 151.093-84.065 0-152.236-67.661-152.236-151.093 0-83.43 68.171-151.09 152.236-151.09z" style="fill:#fff;fill-rule:evenodd;stroke:#1b1918;stroke-width:.216;stroke-linecap:butt;stroke-linejoin:miter;stroke-dasharray:none" transform="translate(792.145 125.598)"/><path d="M-670.856-112.868c87.973-24.32 179.038 27.301 203.357 115.274s-27.302 179.037-115.275 203.356c-87.972 24.32-179.037-27.301-203.356-115.274-24.32-87.973 27.302-179.037 115.274-203.356m7.114 25.73c73.764-20.39 150.12 22.893 170.512 96.657 20.391 73.765-22.892 150.12-96.657 170.512-73.764 20.392-150.12-22.891-170.512-96.656s22.892-150.12 96.657-170.512" style="fill:#0d0f0f;fill-rule:evenodd" transform="translate(792.145 125.598)"/><path d="M-662.026-80.929C-591.69-100.373-518.883-59.1-499.44 11.236c19.445 70.336-21.828 143.143-92.164 162.587s-143.144-21.828-162.588-92.164 21.829-143.145 92.165-162.588" style="fill:#0d0f0f;fill-rule:evenodd" transform="translate(792.145 125.598)"/><path d="M-582.337 206.639c46.967-13.422 77.51-59.837 63.634-110.036-23.854-86.29-119.223-117.467-151.248-206.901 18.458 93.185-47.356 168.919-23.502 255.208 13.877 50.2 63.924 74.336 111.116 61.729" style="fill:#0d0f0f;fill-rule:evenodd;stroke:#fff;stroke-width:13.5675;stroke-linecap:round;stroke-linejoin:round;stroke-dasharray:none" transform="translate(792.145 125.598)"/><path d="M-680.925 61.853c-20.616 79.159 20.157 138.426 79.105 137.174-60.269-45.262-57.4-61.828-34.428-145.143-21.419 21.84-30.944 16.44-44.677 7.97" style="fill:#fff;fill-rule:evenodd" transform="translate(792.145 125.598)"/><path d="M-383.098 99.777V-64.301h38.2V99.777Zm84.774 0V-64.301h26.066l115.548 96.688c3.921 3.231 7.365 6.251 10.385 9.113a105 105 0 0 1 8.211 8.741c-.583-9.218-1.006-15.735-1.218-19.55-.212-3.814-.318-6.781-.318-8.847v-86.145h34.277V99.777h-26.066L-251.914-1.573a323 323 0 0 1-7.63-6.993 84 84 0 0 1-6.038-6.358c.476 5.033.9 9.854 1.164 14.358.265 4.503.372 8.37.372 11.708v88.635zm239.685 0V-64.301h165.933v28.715H-20.44V7.593h69.085v29.933H-20.44v62.25ZM155.883-64.301V68.89H264.65V-64.3h38.04V60.996c0 14.993-2.81 25.219-8.372 30.622-5.616 5.457-16.37 8.159-32.318 8.159H158.373c-15.842 0-26.596-2.702-32.213-8.16-5.668-5.402-8.476-15.628-8.476-30.621V-64.301Zm336.002 28.715h-107.39V-.354h102.252c16.052 0 26.913 2.755 32.529 8.212 5.669 5.51 8.476 15.682 8.476 30.622v22.516c0 14.887-2.807 25.06-8.476 30.569-5.616 5.457-16.477 8.212-32.53 8.212H385.45c-16.054 0-26.914-2.755-32.53-8.212-5.67-5.51-8.477-15.682-8.477-30.57v-4.503l33.695-6.993v19.39h115.92V31.488H391.807c-15.947 0-26.702-2.755-32.317-8.212-5.564-5.51-8.371-15.682-8.371-30.622v-18.12c0-14.94 2.807-25.112 8.371-30.622 5.615-5.457 16.37-8.212 32.317-8.212h93.085c15.417 0 26.066 2.649 31.894 7.895 5.88 5.297 8.795 14.675 8.795 28.132v3.39l-33.696 7.947zm120.164 69.88h71.84L648.5-32.46Zm-73.43 65.483 92.82-164.078h36.769l94.091 164.078h-42.86l-19.708-35.814h-104l-19.073 35.814zm158.94-225.375c-2.385 12.186-6.04 21.085-11.02 26.702-4.98 5.562-11.603 8.37-19.868 8.37-1.536 0-3.231-.106-5.032-.37-1.855-.265-3.763-.742-5.829-1.325l-12.874-3.761c-2.172-.584-4.027-1.007-5.51-1.219a33 33 0 0 0-4.45-.318c-3.39 0-6.198.848-8.37 2.543-2.173 1.695-3.816 4.344-4.98 7.84h-15.524c2.067-11.39 5.563-19.867 10.49-25.482 4.927-5.669 11.338-8.477 19.337-8.477 1.96 0 4.027.159 6.2.53 2.172.37 4.45.9 6.834 1.642l13.827 3.868c1.219.317 2.49.582 3.762.742 1.325.159 2.702.212 4.132.212 3.285 0 6.146-1.007 8.477-2.967 2.33-1.96 3.921-4.821 4.874-8.53zm77.197 100.131c0-14.94 2.808-25.112 8.37-30.622 5.617-5.457 16.371-8.212 32.318-8.212h120.688c15.947 0 26.701 2.755 32.318 8.212 5.562 5.51 8.37 15.682 8.37 30.622v86.463c0 14.992-2.808 25.219-8.37 30.622-5.617 5.457-16.371 8.159-32.318 8.159H815.444c-15.947 0-26.701-2.702-32.318-8.16-5.562-5.402-8.37-15.629-8.37-30.621zm38.198 94.357h125.827V-34.95H812.954Zm-1177.476 79.162h-26.016v8.534h24.77c3.89 0 6.52.668 7.881 1.99 1.373 1.334 2.053 3.798 2.053 7.417v5.455c0 3.606-.68 6.07-2.053 7.405-1.36 1.323-3.991 1.99-7.88 1.99h-24.539c-3.89 0-6.52-.667-7.881-1.99-1.373-1.334-2.053-3.799-2.053-7.405v-1.091l8.163-1.693v4.697h28.08v-9.06h-24.77c-3.862 0-6.468-.67-7.829-1.99-1.347-1.335-2.027-3.8-2.027-7.419v-4.39c0-3.619.68-6.082 2.027-7.417 1.361-1.322 3.967-1.99 7.83-1.99h22.55c3.734 0 6.314.642 7.726 1.913 1.425 1.283 2.13 3.555 2.13 6.815v.82l-8.162 1.926zm19.205 8.522c0-2.889.539-4.865 1.63-5.93 1.078-1.066 3.17-1.592 6.263-1.592h23.397c3.093 0 5.172.526 6.25 1.592 1.092 1.065 1.63 3.041 1.63 5.93v16.748c0 2.913-.538 4.89-1.63 5.942-1.078 1.053-3.157 1.579-6.25 1.579h-23.397c-3.092 0-5.185-.526-6.263-1.579-1.091-1.052-1.63-3.029-1.63-5.941zm7.405 18.288h24.398v-20.124h-24.398zm41.384 5.98v-31.79h7.405v25.81h23.858v5.98zm43.526-5.98h9.562c5.095 0 8.701-.795 10.832-2.374 2.117-1.591 3.183-4.21 3.183-7.854 0-3.247-.886-5.712-2.645-7.38-1.77-1.682-4.376-2.516-7.815-2.516h-13.117zm-7.405 5.98v-31.79h20.457c5.827 0 10.319 1.361 13.45 4.095 3.145 2.72 4.71 6.596 4.71 11.602 0 2.965-.615 5.646-1.834 8.022-1.22 2.374-2.952 4.248-5.173 5.607-1.386.861-3.105 1.49-5.16 1.875-2.052.398-4.683.59-7.892.59zm53.281-12.692h13.938l-6.867-12.937zm-14.22 12.693 17.98-31.79h7.137l18.224 31.79h-8.304l-3.812-6.944h-20.163l-3.696 6.944zm55.026-5.981h9.561c5.096 0 8.702-.795 10.833-2.374 2.117-1.591 3.182-4.21 3.182-7.854 0-3.247-.885-5.712-2.644-7.38-1.771-1.682-4.376-2.516-7.816-2.516h-13.116zm-7.405 5.98v-31.79h20.457c5.827 0 10.318 1.361 13.45 4.095 3.145 2.72 4.71 6.596 4.71 11.602 0 2.965-.615 5.646-1.834 8.022-1.22 2.374-2.952 4.248-5.173 5.607-1.386.861-3.106 1.49-5.16 1.875-2.052.398-4.683.59-7.892.59zm53.627-31.79v25.81h21.086v-25.81h7.368v24.27c0 2.913-.54 4.89-1.63 5.942-1.08 1.053-3.158 1.579-6.25 1.579h-20.087c-3.08 0-5.159-.526-6.25-1.579-1.09-1.052-1.642-3.029-1.642-5.941v-24.27zm62.688 5.506h-16.646v8.843h16.646c1.284 0 2.156-.18 2.63-.552.476-.372.707-1.027.707-1.976v-3.812c0-.924-.231-1.578-.706-1.95-.475-.373-1.347-.553-2.631-.553m-23.923 26.285v-31.79h27.195c2.529 0 4.351.487 5.493 1.463 1.13.963 1.695 2.54 1.695 4.71v7.457c0 2.143-.565 3.709-1.694 4.684-1.143.988-2.965 1.476-5.494 1.476h-4.145l14.67 12h-10.614l-12.822-12h-7.007v12zm49.367-12.693h13.938l-6.867-12.937zm-14.221 12.693 17.981-31.79h7.136l18.225 31.79h-8.304l-3.812-6.944h-20.163l-3.697 6.944zm71.472 0v-31.79h32.561v5.416H32.69v7.097h14.683v5.416H32.69v7.88h25.451v5.98zm66.416 0v-39.747h40.196v6.956h-30.943v10.46h16.736v7.25h-16.736v15.08zm43.667 0v-31.79h7.405v25.809h23.858v5.98zm44.668-31.79v25.809h21.086v-25.81h7.368v24.27c0 2.913-.54 4.89-1.63 5.942-1.079 1.053-3.158 1.579-6.25 1.579h-20.086c-3.08 0-5.159-.526-6.25-1.579-1.09-1.052-1.643-3.029-1.643-5.941v-24.27zm38.765 31.79v-31.79h7.405v31.79zm-.719-35.153 6.135-10.408h6.674l-8.868 10.408zm25.802 29.172h9.562c5.096 0 8.701-.795 10.832-2.374 2.118-1.591 3.183-4.21 3.183-7.854 0-3.247-.885-5.712-2.644-7.38-1.771-1.682-4.376-2.516-7.816-2.516h-13.117zm-7.405 5.98v-31.79h20.458c5.827 0 10.318 1.361 13.45 4.095 3.144 2.72 4.71 6.596 4.71 11.602 0 2.965-.615 5.646-1.835 8.022-1.219 2.374-2.952 4.248-5.172 5.607-1.387.861-3.106 1.49-5.16 1.875-2.053.398-4.684.59-7.892.59zm45.555-24.268c0-2.889.539-4.865 1.63-5.93 1.078-1.066 3.17-1.592 6.263-1.592h23.397c3.093 0 5.172.526 6.25 1.592 1.091 1.065 1.63 3.041 1.63 5.93v16.748c0 2.913-.539 4.89-1.63 5.942-1.078 1.053-3.157 1.579-6.25 1.579h-23.397c-3.093 0-5.185-.526-6.263-1.579-1.091-1.052-1.63-3.029-1.63-5.941zm7.405 18.288h24.398v-20.124H289.44zm68.939-20.24H337.56v6.816h19.829c3.106 0 5.198.526 6.29 1.59 1.09 1.066 1.642 3.042 1.642 5.93v4.365c0 2.887-.552 4.863-1.642 5.929-1.092 1.065-3.184 1.59-6.29 1.59H337.74c-3.106 0-5.21-.525-6.302-1.59-1.09-1.066-1.642-3.042-1.642-5.93v-.873l6.533-1.36v3.773h22.46v-7.264h-19.817c-3.08 0-5.172-.527-6.25-1.591-1.09-1.065-1.63-3.029-1.63-5.917v-3.516c0-2.889.54-4.865 1.63-5.93 1.078-1.066 3.17-1.592 6.25-1.592h18.058c2.977 0 5.044.514 6.174 1.54 1.142 1.014 1.706 2.837 1.706 5.442v.668l-6.532 1.527zm42.21 26.22v-39.746h9.253v39.747zm21.503 0v-31.79h5.056l22.37 18.739c.77.616 1.438 1.206 2.015 1.757.59.552 1.117 1.118 1.591 1.695a340 340 0 0 1-.23-3.786 38 38 0 0 1-.065-1.707v-16.697h6.648v31.79h-5.055l-23.334-19.636a47 47 0 0 1-1.476-1.36 15 15 0 0 1-1.167-1.233c.09.988.166 1.912.218 2.785a40 40 0 0 1 .077 2.271v17.173zm55.05-5.98h9.563c5.095 0 8.7-.795 10.832-2.374 2.117-1.591 3.183-4.21 3.183-7.854 0-3.247-.886-5.712-2.645-7.38-1.771-1.682-4.376-2.516-7.815-2.516h-13.117zm-7.404 5.98v-31.79h20.457c5.827 0 10.319 1.361 13.45 4.095 3.145 2.72 4.71 6.596 4.71 11.602 0 2.965-.615 5.646-1.834 8.022-1.22 2.374-2.952 4.248-5.173 5.607-1.386.861-3.105 1.49-5.16 1.875-2.052.398-4.683.59-7.892.59zm53.627-31.79v25.81h21.086v-25.81h7.368v24.27c0 2.913-.54 4.89-1.63 5.942-1.079 1.053-3.158 1.579-6.25 1.579h-20.086c-3.08 0-5.16-.526-6.25-1.579-1.091-1.052-1.643-3.029-1.643-5.941v-24.27zm66.32 5.57h-20.817v6.816h19.828c3.106 0 5.199.526 6.29 1.59 1.09 1.066 1.642 3.042 1.642 5.93v4.365c0 2.887-.552 4.863-1.642 5.929-1.091 1.065-3.184 1.59-6.29 1.59h-19.648c-3.106 0-5.211-.525-6.302-1.59-1.09-1.066-1.643-3.042-1.643-5.93v-.873l6.533-1.36v3.773h22.46v-7.264h-19.817c-3.08 0-5.172-.527-6.25-1.591-1.09-1.065-1.63-3.029-1.63-5.917v-3.516c0-2.889.54-4.865 1.63-5.93 1.078-1.066 3.17-1.592 6.25-1.592h18.059c2.977 0 5.043.514 6.173 1.54 1.142 1.014 1.707 2.837 1.707 5.442v.668l-6.533 1.527zm31.128.116v26.105h-7.405v-26.105h-14.593v-5.685h36.642v5.685zm41.667-.18h-16.646v8.843h16.646c1.283 0 2.155-.18 2.63-.552s.706-1.027.706-1.976v-3.812c0-.924-.23-1.578-.706-1.95-.475-.373-1.347-.553-2.63-.553m-23.923 26.285v-31.79h27.195c2.529 0 4.35.487 5.493 1.463 1.13.963 1.695 2.54 1.695 4.71v7.457c0 2.143-.565 3.709-1.695 4.684-1.142.988-2.964 1.476-5.493 1.476h-4.146l14.67 12h-10.614l-12.821-12h-7.007v12zm43.424 0v-31.79h7.405v31.79zm25.814-12.693h13.938l-6.866-12.937zm-14.22 12.693 17.981-31.79h7.136l18.225 31.79h-8.305l-3.811-6.944h-20.164l-3.696 6.944zm47.621 0v-31.79h7.405v31.79zm45.233-26.22H765.61v6.815h19.828c3.106 0 5.198.526 6.29 1.59 1.09 1.066 1.642 3.042 1.642 5.93v4.365c0 2.887-.552 4.863-1.642 5.929-1.092 1.065-3.184 1.59-6.29 1.59H765.79c-3.106 0-5.21-.525-6.302-1.59-1.09-1.066-1.642-3.042-1.642-5.93v-.873l6.533-1.36v3.773h22.46v-7.264h-19.817c-3.08 0-5.172-.527-6.25-1.591-1.09-1.065-1.63-3.029-1.63-5.917v-3.516c0-2.889.54-4.865 1.63-5.93 1.078-1.066 3.17-1.592 6.25-1.592h18.058c2.977 0 5.044.514 6.174 1.54 1.142 1.014 1.706 2.837 1.706 5.442v.668l-6.532 1.527zm23.697 14.296h1.27c.706 0 1.194.194 1.476.578.27.399.41 1.143.41 2.247v7.93l-7.635 11.398h-4.543l6.533-11.693h-4.39c-.68 0-1.155-.204-1.438-.602-.269-.399-.41-1.155-.41-2.26v-4.773c0-1.207.141-1.977.436-2.311.282-.346 1.194-.514 2.72-.514zm38.039 11.924v-39.747h9.253v32.265h29.813v7.482zm52.022-5.981h9.562c5.095 0 8.701-.795 10.832-2.374 2.117-1.591 3.183-4.21 3.183-7.854 0-3.247-.886-5.712-2.645-7.38-1.77-1.682-4.376-2.516-7.815-2.516h-13.117zm-7.405 5.98v-31.79h20.457c5.827 0 10.319 1.361 13.45 4.095 3.145 2.72 4.71 6.596 4.71 11.602 0 2.965-.615 5.646-1.834 8.022-1.22 2.374-2.952 4.248-5.173 5.607-1.386.861-3.105 1.49-5.16 1.875-2.052.398-4.683.59-7.892.59zm53.28-12.692H960l-6.867-12.937zm-14.22 12.693 17.982-31.79h7.135l18.225 31.79h-8.304l-3.812-6.944h-20.163l-3.696 6.944z" style="fill:#0d0f0f;fill-rule:evenodd" transform="translate(792.145 125.598)"/></svg>