<svg xmlns="http://www.w3.org/2000/svg" xml:space="preserve" style="fill-rule:evenodd;clip-rule:evenodd;stroke-miterlimit:2" viewBox="0 0 3755 939"><path d="M258.903 71.543c-2.905 0-5.69 0-8.814-.102v28.208h-14.617V21.442c7.633-.416 14.733-.517 22.471-.517 19.555 0 35.044 3.677 35.147 24.516v1.165c0 21.039-15.592 24.937-34.187 24.937m19.465-26.102c-.117-12.109-8.813-12.109-26.127-12.109h-2.152v25.686c2.802.114 5.704.114 8.607.114 13.113 0 19.672-2.221 19.672-12.526z" style="fill:#00aeef;fill-rule:nonzero" transform="translate(0 .796)scale(4.16667)"/><path d="M258.903 71.543c-2.905 0-5.69 0-8.814-.102v28.208h-14.617V21.442c7.633-.416 14.733-.517 22.471-.517 19.555 0 35.044 3.677 35.147 24.516v1.165c0 21.039-15.592 24.937-34.187 24.937Zm19.465-26.102c-.117-12.109-8.813-12.109-26.127-12.109h-2.152v25.686c2.802.114 5.704.114 8.607.114 13.113 0 19.672-2.221 19.672-12.526z" style="fill:none;stroke:#00aeef;stroke-width:1px" transform="translate(0 .796)scale(4.16667)"/><path d="M334.482 101.334c-20.32 0-32.787-10.846-32.787-36.213v-9.148c0-25.267 12.584-36.103 32.787-36.103 20.208 0 32.893 10.836 32.893 36.103v9.148c0 25.367-12.571 36.213-32.893 36.213m17.952-45.26c0-17.475-6.985-23.363-17.952-23.363-10.859 0-17.844 5.888-17.844 23.363v9.047c0 17.587 7.102 23.476 17.844 23.476 10.864 0 17.952-5.889 17.952-23.476z" style="fill:#00aeef;fill-rule:nonzero" transform="translate(0 .796)scale(4.16667)"/><path d="M334.482 101.334c-20.32 0-32.787-10.846-32.787-36.213v-9.148c0-25.267 12.584-36.103 32.787-36.103 20.208 0 32.893 10.836 32.893 36.103v9.148c0 25.367-12.571 36.213-32.893 36.213Zm17.952-45.26c0-17.475-6.985-23.363-17.952-23.363-10.859 0-17.844 5.888-17.844 23.363v9.047c0 17.587 7.102 23.476 17.844 23.476 10.864 0 17.952-5.889 17.952-23.476z" style="fill:none;stroke:#00aeef;stroke-width:1px" transform="translate(0 .796)scale(4.16667)"/><path d="M380.907 99.649V21.442h15.044v65.786h33.867v12.421z" style="fill:#00aeef;fill-rule:nonzero" transform="translate(0 .796)scale(4.16667)"/><path d="M380.907 99.649V21.442h15.044v65.786h33.867v12.421z" style="fill:none;stroke:#00aeef;stroke-width:1px" transform="translate(0 .796)scale(4.16667)"/><path d="M440.572 21.442h15.051v78.207h-15.051z" style="fill:#00aeef;fill-rule:nonzero" transform="translate(0 .796)scale(4.16667)"/><path d="M440.572 21.442h15.051v78.207h-15.051z" style="fill:none;stroke:#00aeef;stroke-width:1px" transform="translate(0 .796)scale(4.16667)"/><path d="M505.503 33.65v65.999h-15.048V33.65h-23.871V21.442h62.78V33.65z" style="fill:#00aeef;fill-rule:nonzero" transform="translate(0 .796)scale(4.16667)"/><path d="M505.503 33.65v65.999h-15.048V33.65h-23.871V21.442h62.78V33.65z" style="fill:none;stroke:#00aeef;stroke-width:1px" transform="translate(0 .796)scale(4.16667)"/><path d="M540.325 99.649V21.442h50.855V33.65h-35.807v19.896h33.541v11.791h-33.541v22.205h35.807v12.107zm30.96-83.042h-13.541l14.09-15.68h16.442z" style="fill:#00aeef;fill-rule:nonzero" transform="translate(0 .796)scale(4.16667)"/><path d="M540.325 99.649V21.442h50.855V33.65h-35.807v19.896h33.541v11.791h-33.541v22.205h35.807v12.107zm30.96-83.042h-13.541l14.09-15.68h16.442z" style="fill:none;stroke:#00aeef;stroke-width:1px" transform="translate(0 .796)scale(4.16667)"/><path d="M634.814 101.334c-20.542 0-34.084-7.574-34.084-35.581V55.336c0-27.994 13.542-35.466 34.084-35.466 6.988 0 16.448 1.259 20.102 2.106V33.65c-5.277-.417-12.911-.939-19.142-.939-13.439 0-19.98 4.632-19.98 22.625v10.417c0 18.011 6.541 22.739 19.98 22.739 6.231 0 13.865-.531 19.142-.95v11.79c-3.654.839-13.114 2.002-20.102 2.002" style="fill:#00aeef;fill-rule:nonzero" transform="translate(0 .796)scale(4.16667)"/><path d="M634.814 101.334c-20.542 0-34.084-7.574-34.084-35.581V55.336c0-27.994 13.542-35.466 34.084-35.466 6.988 0 16.448 1.259 20.102 2.106V33.65c-5.277-.417-12.911-.939-19.142-.939-13.439 0-19.98 4.632-19.98 22.625v10.417c0 18.011 6.541 22.739 19.98 22.739 6.231 0 13.865-.531 19.142-.95v11.79c-3.654.839-13.114 2.002-20.102 2.002Z" style="fill:none;stroke:#00aeef;stroke-width:1px" transform="translate(0 .796)scale(4.16667)"/><path d="m711.354 99.649-25.58-46.418c-1.931-3.579-4.2-7.79-6.026-11.688h-.207c.207 4.429.425 9.264.425 14.009v44.097h-13.763V21.442h17.419l25.478 45.47c1.935 3.576 4.407 8.105 6.132 11.9h.206c-.323-4.63-.428-10.111-.428-14.845V21.442h13.869v78.207z" style="fill:#00aeef;fill-rule:nonzero" transform="translate(0 .796)scale(4.16667)"/><path d="m711.354 99.649-25.58-46.418c-1.931-3.579-4.2-7.79-6.026-11.688h-.207c.207 4.429.425 9.264.425 14.009v44.097h-13.763V21.442h17.419l25.478 45.47c1.935 3.576 4.407 8.105 6.132 11.9h.206c-.323-4.63-.428-10.111-.428-14.845V21.442h13.869v78.207z" style="fill:none;stroke:#00aeef;stroke-width:1px" transform="translate(0 .796)scale(4.16667)"/><path d="M745.311 21.442h15.045v78.207h-15.045z" style="fill:#00aeef;fill-rule:nonzero" transform="translate(0 .796)scale(4.16667)"/><path d="M745.311 21.442h15.045v78.207h-15.045z" style="fill:none;stroke:#00aeef;stroke-width:1px" transform="translate(0 .796)scale(4.16667)"/><path d="M808 101.334c-20.542 0-34.083-7.574-34.083-35.581V55.336c0-27.994 13.541-35.466 34.083-35.466 6.985 0 16.442 1.259 20.098 2.106V33.65c-5.276-.417-12.904-.939-19.14-.939-13.441 0-19.985 4.632-19.985 22.625v10.417c0 18.011 6.544 22.739 19.985 22.739 6.236 0 13.864-.531 19.14-.95v11.79c-3.656.839-13.113 2.002-20.098 2.002" style="fill:#00aeef;fill-rule:nonzero" transform="translate(0 .796)scale(4.16667)"/><path d="M808 101.334c-20.542 0-34.083-7.574-34.083-35.581V55.336c0-27.994 13.541-35.466 34.083-35.466 6.985 0 16.442 1.259 20.098 2.106V33.65c-5.276-.417-12.904-.939-19.14-.939-13.441 0-19.985 4.632-19.985 22.625v10.417c0 18.011 6.544 22.739 19.985 22.739 6.236 0 13.864-.531 19.14-.95v11.79c-3.656.839-13.113 2.002-20.098 2.002Z" style="fill:none;stroke:#00aeef;stroke-width:1px" transform="translate(0 .796)scale(4.16667)"/><path d="M867.109 101.334c-20.323 0-32.791-10.846-32.791-36.213v-9.148c0-25.267 12.585-36.103 32.791-36.103C887.311 19.87 900 30.706 900 55.973v9.148c0 25.367-12.572 36.213-32.891 36.213m17.948-45.26c0-17.475-6.988-23.363-17.948-23.363-10.862 0-17.848 5.888-17.848 23.363v9.047c0 17.587 7.103 23.476 17.848 23.476 10.858 0 17.948-5.889 17.948-23.476z" style="fill:#00aeef;fill-rule:nonzero" transform="translate(0 .796)scale(4.16667)"/><path d="M867.109 101.334c-20.323 0-32.791-10.846-32.791-36.213v-9.148c0-25.267 12.585-36.103 32.791-36.103C887.311 19.87 900 30.706 900 55.973v9.148c0 25.367-12.572 36.213-32.891 36.213Zm17.948-45.26c0-17.475-6.988-23.363-17.948-23.363-10.862 0-17.848 5.888-17.848 23.363v9.047c0 17.587 7.103 23.476 17.848 23.476 10.858 0 17.948-5.889 17.948-23.476z" style="fill:none;stroke:#00aeef;stroke-width:1px" transform="translate(0 .796)scale(4.16667)"/><path d="M260.415 209.921c-9.78 0-15.263-.215-24.943-.636v-78.204c9.68-.419 14.41-.633 24.943-.633 25.909 0 36.873 11.787 36.873 34.63v9.893c0 23.048-10.33 34.95-36.873 34.95m21.933-44.843c0-17.043-6.883-22.107-22.252-22.107h-9.891v54.526h9.891c15.369 0 22.252-5.47 22.252-22.526z" style="fill:#00aeef;fill-rule:nonzero" transform="translate(0 .796)scale(4.16667)"/><path d="M260.415 209.921c-9.78 0-15.263-.215-24.943-.636v-78.204c9.68-.419 14.41-.633 24.943-.633 25.909 0 36.873 11.787 36.873 34.63v9.893c0 23.048-10.33 34.95-36.873 34.95Zm21.933-44.843c0-17.043-6.883-22.107-22.252-22.107h-9.891v54.526h9.891c15.369 0 22.252-5.47 22.252-22.526z" style="fill:none;stroke:#00aeef;stroke-width:1px" transform="translate(0 .796)scale(4.16667)"/><path d="M310.835 209.285v-78.204h50.851v12.207h-35.807v19.896h33.541v11.787h-33.541v22.209h35.807v12.105z" style="fill:#00aeef;fill-rule:nonzero" transform="translate(0 .796)scale(4.16667)"/><path d="M310.835 209.285v-78.204h50.851v12.207h-35.807v19.896h33.541v11.787h-33.541v22.209h35.807v12.105z" style="fill:none;stroke:#00aeef;stroke-width:1px" transform="translate(0 .796)scale(4.16667)"/><path d="M395.757 209.285v-78.204h15.047v65.783h33.865v12.421z" style="fill:#00aeef;fill-rule:nonzero" transform="translate(0 .796)scale(4.16667)"/><path d="M395.757 209.285v-78.204h15.047v65.783h33.865v12.421z" style="fill:none;stroke:#00aeef;stroke-width:1px" transform="translate(0 .796)scale(4.16667)"/><path d="M455.411 131.081h15.044v78.204h-15.044z" style="fill:#00aeef;fill-rule:nonzero" transform="translate(0 .796)scale(4.16667)"/><path d="M455.411 131.081h15.044v78.204h-15.044z" style="fill:none;stroke:#00aeef;stroke-width:1px" transform="translate(0 .796)scale(4.16667)"/><path d="M510.997 210.973c-10.418 0-21.176-1.368-25.156-2.421v-11.269c6.561.63 13.983 1.266 23.976 1.266 9.67 0 14.297-2.626 14.297-9.679 0-5.051-2.036-7.895-9.994-11.155l-12.038-4.848c-11.833-4.732-18.168-11.37-18.168-22.725 0-15.168 9.664-20.635 28.586-20.635 10.111 0 19.572 1.574 23.329 2.524v11.154c-6.132-.521-14.296-1.369-22.679-1.369-9.356 0-14.401 1.587-14.401 7.894 0 4.745 2.255 7.157 10.216 10.314l10.842 4.314c13.983 5.585 19.573 11.155 19.573 24.426 0 14.203-10.431 22.209-28.383 22.209" style="fill:#00aeef;fill-rule:nonzero" transform="translate(0 .796)scale(4.16667)"/><path d="M510.997 210.973c-10.418 0-21.176-1.368-25.156-2.421v-11.269c6.561.63 13.983 1.266 23.976 1.266 9.67 0 14.297-2.626 14.297-9.679 0-5.051-2.036-7.895-9.994-11.155l-12.038-4.848c-11.833-4.732-18.168-11.37-18.168-22.725 0-15.168 9.664-20.635 28.586-20.635 10.111 0 19.572 1.574 23.329 2.524v11.154c-6.132-.521-14.296-1.369-22.679-1.369-9.356 0-14.401 1.587-14.401 7.894 0 4.745 2.255 7.157 10.216 10.314l10.842 4.314c13.983 5.585 19.573 11.155 19.573 24.426 0 14.203-10.431 22.209-28.383 22.209Z" style="fill:none;stroke:#00aeef;stroke-width:1px" transform="translate(0 .796)scale(4.16667)"/><path d="M575.705 209.921c-9.134 0-13.012-.215-23.119-.636v-78.204c10.535-.419 14.41-.633 23.55-.633 21.382 0 34.61 3.691 34.61 21.268v.949c0 6.728-3.018 13.26-10.105 16.42 7.515 3.046 10.536 9.786 10.536 16.525v1.053c0 19.564-14.841 23.258-35.472 23.258m20.412-57.686c0-8.947-7.194-9.68-19.981-9.68h-8.934v21.15h13.544c12.366 0 15.371-3.999 15.371-10.517zm.327 33.261c-.108-6.843-3.332-11.155-15.58-11.155h-13.662v23.473h4.083c16.342 0 25.159-.1 25.159-11.151z" style="fill:#00aeef;fill-rule:nonzero" transform="translate(0 .796)scale(4.16667)"/><path d="M575.705 209.921c-9.134 0-13.012-.215-23.119-.636v-78.204c10.535-.419 14.41-.633 23.55-.633 21.382 0 34.61 3.691 34.61 21.268v.949c0 6.728-3.018 13.26-10.105 16.42 7.515 3.046 10.536 9.786 10.536 16.525v1.053c0 19.564-14.841 23.258-35.472 23.258Zm20.412-57.686c0-8.947-7.194-9.68-19.981-9.68h-8.934v21.15h13.544c12.366 0 15.371-3.999 15.371-10.517zm.327 33.261c-.108-6.843-3.332-11.155-15.58-11.155h-13.662v23.473h4.083c16.342 0 25.159-.1 25.159-11.151z" style="fill:none;stroke:#00aeef;stroke-width:1px" transform="translate(0 .796)scale(4.16667)"/><path d="M654.504 210.973c-20.321 0-32.794-10.85-32.794-36.216v-9.149c0-25.264 12.587-36.101 32.794-36.101 20.202 0 32.89 10.837 32.89 36.101v9.149c0 25.366-12.57 36.216-32.89 36.216m17.948-45.266c0-17.471-6.986-23.357-17.948-23.357-10.86 0-17.848 5.886-17.848 23.357v9.05c0 17.587 7.099 23.476 17.848 23.476 10.858 0 17.948-5.889 17.948-23.476z" style="fill:#00aeef;fill-rule:nonzero" transform="translate(0 .796)scale(4.16667)"/><path d="M654.504 210.973c-20.321 0-32.794-10.85-32.794-36.216v-9.149c0-25.264 12.587-36.101 32.794-36.101 20.202 0 32.89 10.837 32.89 36.101v9.149c0 25.366-12.57 36.216-32.89 36.216Zm17.948-45.266c0-17.471-6.986-23.357-17.948-23.357-10.86 0-17.848 5.886-17.848 23.357v9.05c0 17.587 7.099 23.476 17.848 23.476 10.858 0 17.948-5.889 17.948-23.476z" style="fill:none;stroke:#00aeef;stroke-width:1px" transform="translate(0 .796)scale(4.16667)"/><path d="m747.27 209.285-6.883-21.887h-25.7l-7.09 21.887H692.23l24.179-78.204h22.475l24.183 78.204zm-16.461-55.567c-1.179-3.895-2.035-8.105-2.787-12.321h-.974c-.852 4.216-1.603 8.426-2.783 12.321l-6.782 21.573h20z" style="fill:#00aeef;fill-rule:nonzero" transform="translate(0 .796)scale(4.16667)"/><path d="m747.27 209.285-6.883-21.887h-25.7l-7.09 21.887H692.23l24.179-78.204h22.475l24.183 78.204zm-16.461-55.567c-1.179-3.895-2.035-8.105-2.787-12.321h-.974c-.852 4.216-1.603 8.426-2.783 12.321l-6.782 21.573h20z" style="fill:none;stroke:#00aeef;stroke-width:1px" transform="translate(0 .796)scale(4.16667)"/><path d="M185.777 159.036V.927H0v187.98a234 234 0 0 1 11.712-6.875c1.761-11.072 3.24-22.277 4.178-33.68 1.13-13.723 1.588-27.296 1.495-40.734 7.348 6.083 14.429 12.59 21.27 19.397-1.576 15.405-3.978 30.492-7.004 45.276-.014.012-.023.012-.037.02a240 240 0 0 1 13.916-5.431c2.912-15.191 5.172-30.676 6.481-46.542a453 453 0 0 0 1.482-40.727c7.543 6.258 14.817 12.915 21.822 19.916-1.842 20.968-5.146 41.39-9.685 61.193a230 230 0 0 1 12.408-2.862c4.916-21.06 8.504-42.775 10.345-65.163a458 458 0 0 0 1.506-40.723c31.708 26.26 62.943 66.298 84.256 104.399 3.948.774 7.835 1.63 11.632 2.665" style="fill:#003d71;fill-rule:nonzero" transform="translate(0 .796)scale(4.16667)"/><path d="M185.777 195.122v-36.086c-16.584-4.476-34.666-6.575-54.061-6.575-43.87 0-89.955 10.278-131.691 36.438v36.1c41.736-26.162 87.821-36.432 131.691-36.432 19.395 0 37.491 2.075 54.061 6.555" style="fill:#003d71;fill-rule:nonzero" transform="translate(0 .796)scale(4.16667)"/></svg>