<?xml version="1.0" encoding="UTF-8" standalone="no"?>
<!DOCTYPE svg PUBLIC "-//W3C//DTD SVG 1.1//EN" "http://www.w3.org/Graphics/SVG/1.1/DTD/svg11.dtd">
<svg width="100%" height="100%" viewBox="0 0 3755 939" version="1.1" xmlns="http://www.w3.org/2000/svg" xmlns:xlink="http://www.w3.org/1999/xlink" xml:space="preserve" style="fill-rule:evenodd;clip-rule:evenodd;stroke-miterlimit:2;">
    <g transform="matrix(1,0,0,1,0,0.795969)">
        <g transform="matrix(4.16667,0,0,4.16667,0,0)">
            <path d="M258.903,71.543C255.998,71.543 253.213,71.543 250.089,71.441L250.089,99.649L235.472,99.649L235.472,21.442C243.105,21.026 250.205,20.925 257.943,20.925C277.498,20.925 292.987,24.602 293.09,45.441L293.09,46.606C293.09,67.645 277.498,71.543 258.903,71.543ZM278.368,45.441C278.251,33.332 269.555,33.332 252.241,33.332L250.089,33.332L250.089,59.018C252.891,59.132 255.793,59.132 258.696,59.132C271.809,59.132 278.368,56.911 278.368,46.606L278.368,45.441Z" style="fill:rgb(0,174,239);fill-rule:nonzero;"/>
            <path d="M258.903,71.543C255.998,71.543 253.213,71.543 250.089,71.441L250.089,99.649L235.472,99.649L235.472,21.442C243.105,21.026 250.205,20.925 257.943,20.925C277.498,20.925 292.987,24.602 293.09,45.441L293.09,46.606C293.09,67.645 277.498,71.543 258.903,71.543ZM278.368,45.441C278.251,33.332 269.555,33.332 252.241,33.332L250.089,33.332L250.089,59.018C252.891,59.132 255.793,59.132 258.696,59.132C271.809,59.132 278.368,56.911 278.368,46.606L278.368,45.441Z" style="fill:none;stroke:rgb(0,174,239);stroke-width:1px;"/>
            <path d="M334.482,101.334C314.162,101.334 301.695,90.488 301.695,65.121L301.695,55.973C301.695,30.706 314.279,19.87 334.482,19.87C354.69,19.87 367.375,30.706 367.375,55.973L367.375,65.121C367.375,90.488 354.804,101.334 334.482,101.334ZM352.434,56.074C352.434,38.599 345.449,32.711 334.482,32.711C323.623,32.711 316.638,38.599 316.638,56.074L316.638,65.121C316.638,82.708 323.74,88.597 334.482,88.597C345.346,88.597 352.434,82.708 352.434,65.121L352.434,56.074Z" style="fill:rgb(0,174,239);fill-rule:nonzero;"/>
            <path d="M334.482,101.334C314.162,101.334 301.695,90.488 301.695,65.121L301.695,55.973C301.695,30.706 314.279,19.87 334.482,19.87C354.69,19.87 367.375,30.706 367.375,55.973L367.375,65.121C367.375,90.488 354.804,101.334 334.482,101.334ZM352.434,56.074C352.434,38.599 345.449,32.711 334.482,32.711C323.623,32.711 316.638,38.599 316.638,56.074L316.638,65.121C316.638,82.708 323.74,88.597 334.482,88.597C345.346,88.597 352.434,82.708 352.434,65.121L352.434,56.074Z" style="fill:none;stroke:rgb(0,174,239);stroke-width:1px;"/>
            <path d="M380.907,99.649L380.907,21.442L395.951,21.442L395.951,87.228L429.818,87.228L429.818,99.649L380.907,99.649Z" style="fill:rgb(0,174,239);fill-rule:nonzero;"/>
            <path d="M380.907,99.649L380.907,21.442L395.951,21.442L395.951,87.228L429.818,87.228L429.818,99.649L380.907,99.649Z" style="fill:none;stroke:rgb(0,174,239);stroke-width:1px;"/>
            <rect x="440.572" y="21.442" width="15.051" height="78.207" style="fill:rgb(0,174,239);fill-rule:nonzero;"/>
            <rect x="440.572" y="21.442" width="15.051" height="78.207" style="fill:none;stroke:rgb(0,174,239);stroke-width:1px;"/>
            <path d="M505.503,33.65L505.503,99.649L490.455,99.649L490.455,33.65L466.584,33.65L466.584,21.442L529.364,21.442L529.364,33.65L505.503,33.65Z" style="fill:rgb(0,174,239);fill-rule:nonzero;"/>
            <path d="M505.503,33.65L505.503,99.649L490.455,99.649L490.455,33.65L466.584,33.65L466.584,21.442L529.364,21.442L529.364,33.65L505.503,33.65Z" style="fill:none;stroke:rgb(0,174,239);stroke-width:1px;"/>
            <path d="M540.325,99.649L540.325,21.442L591.18,21.442L591.18,33.65L555.373,33.65L555.373,53.546L588.914,53.546L588.914,65.337L555.373,65.337L555.373,87.542L591.18,87.542L591.18,99.649L540.325,99.649ZM571.285,16.607L557.744,16.607L571.834,0.927L588.276,0.927L571.285,16.607Z" style="fill:rgb(0,174,239);fill-rule:nonzero;"/>
            <path d="M540.325,99.649L540.325,21.442L591.18,21.442L591.18,33.65L555.373,33.65L555.373,53.546L588.914,53.546L588.914,65.337L555.373,65.337L555.373,87.542L591.18,87.542L591.18,99.649L540.325,99.649ZM571.285,16.607L557.744,16.607L571.834,0.927L588.276,0.927L571.285,16.607Z" style="fill:none;stroke:rgb(0,174,239);stroke-width:1px;"/>
            <path d="M634.814,101.334C614.272,101.334 600.73,93.76 600.73,65.753L600.73,55.336C600.73,27.342 614.272,19.87 634.814,19.87C641.802,19.87 651.262,21.129 654.916,21.976L654.916,33.65C649.639,33.233 642.005,32.711 635.774,32.711C622.335,32.711 615.794,37.343 615.794,55.336L615.794,65.753C615.794,83.764 622.335,88.492 635.774,88.492C642.005,88.492 649.639,87.961 654.916,87.542L654.916,99.332C651.262,100.171 641.802,101.334 634.814,101.334Z" style="fill:rgb(0,174,239);fill-rule:nonzero;"/>
            <path d="M634.814,101.334C614.272,101.334 600.73,93.76 600.73,65.753L600.73,55.336C600.73,27.342 614.272,19.87 634.814,19.87C641.802,19.87 651.262,21.129 654.916,21.976L654.916,33.65C649.639,33.233 642.005,32.711 635.774,32.711C622.335,32.711 615.794,37.343 615.794,55.336L615.794,65.753C615.794,83.764 622.335,88.492 635.774,88.492C642.005,88.492 649.639,87.961 654.916,87.542L654.916,99.332C651.262,100.171 641.802,101.334 634.814,101.334Z" style="fill:none;stroke:rgb(0,174,239);stroke-width:1px;"/>
            <path d="M711.354,99.649L685.774,53.231C683.843,49.652 681.574,45.441 679.748,41.543L679.541,41.543C679.748,45.972 679.966,50.807 679.966,55.552L679.966,99.649L666.203,99.649L666.203,21.442L683.622,21.442L709.1,66.912C711.035,70.488 713.507,75.017 715.232,78.812L715.438,78.812C715.115,74.182 715.01,68.701 715.01,63.967L715.01,21.442L728.879,21.442L728.879,99.649L711.354,99.649Z" style="fill:rgb(0,174,239);fill-rule:nonzero;"/>
            <path d="M711.354,99.649L685.774,53.231C683.843,49.652 681.574,45.441 679.748,41.543L679.541,41.543C679.748,45.972 679.966,50.807 679.966,55.552L679.966,99.649L666.203,99.649L666.203,21.442L683.622,21.442L709.1,66.912C711.035,70.488 713.507,75.017 715.232,78.812L715.438,78.812C715.115,74.182 715.01,68.701 715.01,63.967L715.01,21.442L728.879,21.442L728.879,99.649L711.354,99.649Z" style="fill:none;stroke:rgb(0,174,239);stroke-width:1px;"/>
            <rect x="745.311" y="21.442" width="15.045" height="78.207" style="fill:rgb(0,174,239);fill-rule:nonzero;"/>
            <rect x="745.311" y="21.442" width="15.045" height="78.207" style="fill:none;stroke:rgb(0,174,239);stroke-width:1px;"/>
            <path d="M808,101.334C787.458,101.334 773.917,93.76 773.917,65.753L773.917,55.336C773.917,27.342 787.458,19.87 808,19.87C814.985,19.87 824.442,21.129 828.098,21.976L828.098,33.65C822.822,33.233 815.194,32.711 808.958,32.711C795.517,32.711 788.973,37.343 788.973,55.336L788.973,65.753C788.973,83.764 795.517,88.492 808.958,88.492C815.194,88.492 822.822,87.961 828.098,87.542L828.098,99.332C824.442,100.171 814.985,101.334 808,101.334Z" style="fill:rgb(0,174,239);fill-rule:nonzero;"/>
            <path d="M808,101.334C787.458,101.334 773.917,93.76 773.917,65.753L773.917,55.336C773.917,27.342 787.458,19.87 808,19.87C814.985,19.87 824.442,21.129 828.098,21.976L828.098,33.65C822.822,33.233 815.194,32.711 808.958,32.711C795.517,32.711 788.973,37.343 788.973,55.336L788.973,65.753C788.973,83.764 795.517,88.492 808.958,88.492C815.194,88.492 822.822,87.961 828.098,87.542L828.098,99.332C824.442,100.171 814.985,101.334 808,101.334Z" style="fill:none;stroke:rgb(0,174,239);stroke-width:1px;"/>
            <path d="M867.109,101.334C846.786,101.334 834.318,90.488 834.318,65.121L834.318,55.973C834.318,30.706 846.903,19.87 867.109,19.87C887.311,19.87 900,30.706 900,55.973L900,65.121C900,90.488 887.428,101.334 867.109,101.334ZM885.057,56.074C885.057,38.599 878.069,32.711 867.109,32.711C856.247,32.711 849.261,38.599 849.261,56.074L849.261,65.121C849.261,82.708 856.364,88.597 867.109,88.597C877.967,88.597 885.057,82.708 885.057,65.121L885.057,56.074Z" style="fill:rgb(0,174,239);fill-rule:nonzero;"/>
            <path d="M867.109,101.334C846.786,101.334 834.318,90.488 834.318,65.121L834.318,55.973C834.318,30.706 846.903,19.87 867.109,19.87C887.311,19.87 900,30.706 900,55.973L900,65.121C900,90.488 887.428,101.334 867.109,101.334ZM885.057,56.074C885.057,38.599 878.069,32.711 867.109,32.711C856.247,32.711 849.261,38.599 849.261,56.074L849.261,65.121C849.261,82.708 856.364,88.597 867.109,88.597C877.967,88.597 885.057,82.708 885.057,65.121L885.057,56.074Z" style="fill:none;stroke:rgb(0,174,239);stroke-width:1px;"/>
            <path d="M260.415,209.921C250.635,209.921 245.152,209.706 235.472,209.285L235.472,131.081C245.152,130.662 249.882,130.448 260.415,130.448C286.324,130.448 297.288,142.235 297.288,165.078L297.288,174.971C297.288,198.019 286.958,209.921 260.415,209.921ZM282.348,165.078C282.348,148.035 275.465,142.971 260.096,142.971L250.205,142.971L250.205,197.497L260.096,197.497C275.465,197.497 282.348,192.027 282.348,174.971L282.348,165.078Z" style="fill:rgb(0,174,239);fill-rule:nonzero;"/>
            <path d="M260.415,209.921C250.635,209.921 245.152,209.706 235.472,209.285L235.472,131.081C245.152,130.662 249.882,130.448 260.415,130.448C286.324,130.448 297.288,142.235 297.288,165.078L297.288,174.971C297.288,198.019 286.958,209.921 260.415,209.921ZM282.348,165.078C282.348,148.035 275.465,142.971 260.096,142.971L250.205,142.971L250.205,197.497L260.096,197.497C275.465,197.497 282.348,192.027 282.348,174.971L282.348,165.078Z" style="fill:none;stroke:rgb(0,174,239);stroke-width:1px;"/>
            <path d="M310.835,209.285L310.835,131.081L361.686,131.081L361.686,143.288L325.879,143.288L325.879,163.184L359.42,163.184L359.42,174.971L325.879,174.971L325.879,197.18L361.686,197.18L361.686,209.285L310.835,209.285Z" style="fill:rgb(0,174,239);fill-rule:nonzero;"/>
            <path d="M310.835,209.285L310.835,131.081L361.686,131.081L361.686,143.288L325.879,143.288L325.879,163.184L359.42,163.184L359.42,174.971L325.879,174.971L325.879,197.18L361.686,197.18L361.686,209.285L310.835,209.285Z" style="fill:none;stroke:rgb(0,174,239);stroke-width:1px;"/>
            <path d="M395.757,209.285L395.757,131.081L410.804,131.081L410.804,196.864L444.669,196.864L444.669,209.285L395.757,209.285Z" style="fill:rgb(0,174,239);fill-rule:nonzero;"/>
            <path d="M395.757,209.285L395.757,131.081L410.804,131.081L410.804,196.864L444.669,196.864L444.669,209.285L395.757,209.285Z" style="fill:none;stroke:rgb(0,174,239);stroke-width:1px;"/>
            <rect x="455.411" y="131.081" width="15.044" height="78.204" style="fill:rgb(0,174,239);fill-rule:nonzero;"/>
            <rect x="455.411" y="131.081" width="15.044" height="78.204" style="fill:none;stroke:rgb(0,174,239);stroke-width:1px;"/>
            <path d="M510.997,210.973C500.579,210.973 489.821,209.605 485.841,208.552L485.841,197.283C492.402,197.913 499.824,198.549 509.817,198.549C519.487,198.549 524.114,195.923 524.114,188.87C524.114,183.819 522.078,180.975 514.12,177.715L502.082,172.867C490.249,168.135 483.914,161.497 483.914,150.142C483.914,134.974 493.578,129.507 512.5,129.507C522.611,129.507 532.072,131.081 535.829,132.031L535.829,143.185C529.697,142.664 521.533,141.816 513.15,141.816C503.794,141.816 498.749,143.403 498.749,149.71C498.749,154.455 501.004,156.867 508.965,160.024L519.807,164.338C533.79,169.923 539.38,175.493 539.38,188.764C539.38,202.967 528.949,210.973 510.997,210.973Z" style="fill:rgb(0,174,239);fill-rule:nonzero;"/>
            <path d="M510.997,210.973C500.579,210.973 489.821,209.605 485.841,208.552L485.841,197.283C492.402,197.913 499.824,198.549 509.817,198.549C519.487,198.549 524.114,195.923 524.114,188.87C524.114,183.819 522.078,180.975 514.12,177.715L502.082,172.867C490.249,168.135 483.914,161.497 483.914,150.142C483.914,134.974 493.578,129.507 512.5,129.507C522.611,129.507 532.072,131.081 535.829,132.031L535.829,143.185C529.697,142.664 521.533,141.816 513.15,141.816C503.794,141.816 498.749,143.403 498.749,149.71C498.749,154.455 501.004,156.867 508.965,160.024L519.807,164.338C533.79,169.923 539.38,175.493 539.38,188.764C539.38,202.967 528.949,210.973 510.997,210.973Z" style="fill:none;stroke:rgb(0,174,239);stroke-width:1px;"/>
            <path d="M575.705,209.921C566.571,209.921 562.693,209.706 552.586,209.285L552.586,131.081C563.121,130.662 566.996,130.448 576.136,130.448C597.518,130.448 610.746,134.139 610.746,151.716L610.746,152.665C610.746,159.393 607.728,165.925 600.641,169.085C608.156,172.131 611.177,178.871 611.177,185.61L611.177,186.663C611.177,206.227 596.336,209.921 575.705,209.921ZM596.117,152.235C596.117,143.288 588.923,142.555 576.136,142.555L567.202,142.555L567.202,163.705L580.746,163.705C593.112,163.705 596.117,159.706 596.117,153.188L596.117,152.235ZM596.444,185.496C596.336,178.653 593.112,174.341 580.864,174.341L567.202,174.341L567.202,197.814L571.285,197.814C587.627,197.814 596.444,197.714 596.444,186.663L596.444,185.496Z" style="fill:rgb(0,174,239);fill-rule:nonzero;"/>
            <path d="M575.705,209.921C566.571,209.921 562.693,209.706 552.586,209.285L552.586,131.081C563.121,130.662 566.996,130.448 576.136,130.448C597.518,130.448 610.746,134.139 610.746,151.716L610.746,152.665C610.746,159.393 607.728,165.925 600.641,169.085C608.156,172.131 611.177,178.871 611.177,185.61L611.177,186.663C611.177,206.227 596.336,209.921 575.705,209.921ZM596.117,152.235C596.117,143.288 588.923,142.555 576.136,142.555L567.202,142.555L567.202,163.705L580.746,163.705C593.112,163.705 596.117,159.706 596.117,153.188L596.117,152.235ZM596.444,185.496C596.336,178.653 593.112,174.341 580.864,174.341L567.202,174.341L567.202,197.814L571.285,197.814C587.627,197.814 596.444,197.714 596.444,186.663L596.444,185.496Z" style="fill:none;stroke:rgb(0,174,239);stroke-width:1px;"/>
            <path d="M654.504,210.973C634.183,210.973 621.71,200.123 621.71,174.757L621.71,165.608C621.71,140.344 634.297,129.507 654.504,129.507C674.706,129.507 687.394,140.344 687.394,165.608L687.394,174.757C687.394,200.123 674.824,210.973 654.504,210.973ZM672.452,165.707C672.452,148.236 665.466,142.35 654.504,142.35C643.644,142.35 636.656,148.236 636.656,165.707L636.656,174.757C636.656,192.344 643.755,198.233 654.504,198.233C665.362,198.233 672.452,192.344 672.452,174.757L672.452,165.707Z" style="fill:rgb(0,174,239);fill-rule:nonzero;"/>
            <path d="M654.504,210.973C634.183,210.973 621.71,200.123 621.71,174.757L621.71,165.608C621.71,140.344 634.297,129.507 654.504,129.507C674.706,129.507 687.394,140.344 687.394,165.608L687.394,174.757C687.394,200.123 674.824,210.973 654.504,210.973ZM672.452,165.707C672.452,148.236 665.466,142.35 654.504,142.35C643.644,142.35 636.656,148.236 636.656,165.707L636.656,174.757C636.656,192.344 643.755,198.233 654.504,198.233C665.362,198.233 672.452,192.344 672.452,174.757L672.452,165.707Z" style="fill:none;stroke:rgb(0,174,239);stroke-width:1px;"/>
            <path d="M747.27,209.285L740.387,187.398L714.687,187.398L707.597,209.285L692.23,209.285L716.409,131.081L738.884,131.081L763.067,209.285L747.27,209.285ZM730.809,153.718C729.63,149.823 728.774,145.613 728.022,141.397L727.048,141.397C726.196,145.613 725.445,149.823 724.265,153.718L717.483,175.291L737.483,175.291L730.809,153.718Z" style="fill:rgb(0,174,239);fill-rule:nonzero;"/>
            <path d="M747.27,209.285L740.387,187.398L714.687,187.398L707.597,209.285L692.23,209.285L716.409,131.081L738.884,131.081L763.067,209.285L747.27,209.285ZM730.809,153.718C729.63,149.823 728.774,145.613 728.022,141.397L727.048,141.397C726.196,145.613 725.445,149.823 724.265,153.718L717.483,175.291L737.483,175.291L730.809,153.718Z" style="fill:none;stroke:rgb(0,174,239);stroke-width:1px;"/>
            <path d="M185.777,159.036L185.777,0.927L0,0.927L0,188.907C3.87,186.479 7.776,184.194 11.712,182.032C13.473,170.96 14.952,159.755 15.89,148.352C17.02,134.629 17.478,121.056 17.385,107.618C24.733,113.701 31.814,120.208 38.655,127.015C37.079,142.42 34.677,157.507 31.651,172.291C31.637,172.303 31.628,172.303 31.614,172.311C36.224,170.338 40.863,168.543 45.53,166.88C48.442,151.689 50.702,136.204 52.011,120.338C53.136,106.624 53.603,93.032 53.493,79.611C61.036,85.869 68.31,92.526 75.315,99.527C73.473,120.495 70.169,140.917 65.63,160.72C69.757,159.647 73.897,158.693 78.038,157.858C82.954,136.798 86.542,115.083 88.383,92.695C89.51,78.974 89.982,65.391 89.889,51.972C121.597,78.232 152.832,118.27 174.145,156.371C178.093,157.145 181.98,158.001 185.777,159.036Z" style="fill:rgb(0,61,113);fill-rule:nonzero;"/>
            <path d="M185.777,195.122L185.777,159.036C169.193,154.56 151.111,152.461 131.716,152.461C87.846,152.461 41.761,162.739 0.025,188.899L0.025,224.999C41.761,198.837 87.846,188.567 131.716,188.567C151.111,188.567 169.207,190.642 185.777,195.122Z" style="fill:rgb(0,61,113);fill-rule:nonzero;"/>
        </g>
    </g>
</svg>
