<?xml version="1.0" encoding="UTF-8"?>
<svg id="Layer_2" data-name="Layer 2" xmlns="http://www.w3.org/2000/svg" viewBox="0 0 683.57 76.14">
  <defs>
    <style>
      .cls-1 {
        fill: #194070;
      }

      .cls-1, .cls-2, .cls-3, .cls-4, .cls-5 {
        stroke-width: 0px;
      }

      .cls-2 {
        fill: #2bace2;
      }

      .cls-3 {
        fill: #6ebd98;
      }

      .cls-4 {
        fill: #8567aa;
      }

      .cls-5 {
        fill: #8566ab;
      }
    </style>
  </defs>
  <g id="Layer_1-2" data-name="Layer 1">
    <g>
      <g>
        <g>
          <path class="cls-3" d="M500.16,55.85v1.36h-7.91v-10.91h7.7v1.36h-6.14v3.35h5.47v1.32h-5.47v3.52h6.36Z"/>
          <path class="cls-3" d="M502.6,52.5v-6.2h1.56v6.14c0,2.42,1.11,3.51,3.07,3.51s3.08-1.09,3.08-3.51v-6.14h1.51v6.2c0,3.16-1.73,4.83-4.61,4.83s-4.61-1.67-4.61-4.83Z"/>
          <path class="cls-3" d="M522.31,57.2l-2.35-3.35c-.22.01-.45.03-.69.03h-2.7v3.32h-1.56v-10.91h4.25c2.84,0,4.55,1.43,4.55,3.8,0,1.68-.87,2.9-2.4,3.44l2.59,3.66h-1.7ZM522.26,50.1c0-1.56-1.04-2.45-3.04-2.45h-2.65v4.91h2.65c1.99,0,3.04-.9,3.04-2.46Z"/>
          <path class="cls-3" d="M525.45,51.75c0-3.19,2.46-5.58,5.81-5.58s5.78,2.37,5.78,5.58-2.46,5.58-5.78,5.58-5.81-2.38-5.81-5.58ZM535.49,51.75c0-2.41-1.81-4.19-4.22-4.19s-4.25,1.78-4.25,4.19,1.81,4.19,4.25,4.19,4.22-1.78,4.22-4.19Z"/>
          <path class="cls-3" d="M548.23,50.1c0,2.37-1.71,3.8-4.55,3.8h-2.7v3.3h-1.56v-10.91h4.25c2.84,0,4.55,1.43,4.55,3.8ZM546.67,50.1c0-1.56-1.04-2.45-3.04-2.45h-2.65v4.89h2.65c1.99,0,3.04-.89,3.04-2.45Z"/>
          <path class="cls-3" d="M558.44,55.85v1.36h-7.91v-10.91h7.7v1.36h-6.14v3.35h5.47v1.32h-5.47v3.52h6.36Z"/>
          <path class="cls-3" d="M567.91,54.48h-5.8l-1.2,2.73h-1.6l4.94-10.91h1.54l4.95,10.91h-1.64l-1.2-2.73ZM567.37,53.23l-2.35-5.34-2.35,5.34h4.7Z"/>
          <path class="cls-3" d="M581.75,46.3v10.91h-1.28l-6.54-8.13v8.13h-1.56v-10.91h1.28l6.54,8.13v-8.13h1.56Z"/>
          <path class="cls-3" d="M589.12,52.5v-6.2h1.56v6.14c0,2.42,1.11,3.51,3.07,3.51s3.08-1.09,3.08-3.51v-6.14h1.51v6.2c0,3.16-1.73,4.83-4.61,4.83s-4.61-1.67-4.61-4.83Z"/>
          <path class="cls-3" d="M610.91,46.3v10.91h-1.28l-6.54-8.13v8.13h-1.56v-10.91h1.28l6.54,8.13v-8.13h1.56Z"/>
          <path class="cls-3" d="M614.19,46.3h1.56v10.91h-1.56v-10.91Z"/>
          <path class="cls-3" d="M628.38,46.3l-4.78,10.91h-1.54l-4.8-10.91h1.68l3.93,8.96,3.96-8.96h1.56Z"/>
          <path class="cls-3" d="M637.68,55.85v1.36h-7.91v-10.91h7.7v1.36h-6.14v3.35h5.47v1.32h-5.47v3.52h6.36Z"/>
          <path class="cls-3" d="M647.5,57.2l-2.35-3.35c-.22.01-.45.03-.69.03h-2.7v3.32h-1.56v-10.91h4.25c2.84,0,4.55,1.43,4.55,3.8,0,1.68-.87,2.9-2.4,3.44l2.59,3.66h-1.7ZM647.45,50.1c0-1.56-1.04-2.45-3.04-2.45h-2.65v4.91h2.65c1.99,0,3.04-.9,3.04-2.46Z"/>
          <path class="cls-3" d="M650.54,55.96l.58-1.22c.81.73,2.2,1.26,3.6,1.26,1.89,0,2.7-.73,2.7-1.68,0-2.66-6.61-.98-6.61-5.03,0-1.68,1.31-3.12,4.18-3.12,1.28,0,2.6.34,3.51.97l-.51,1.25c-.95-.61-2.03-.89-2.99-.89-1.85,0-2.65.78-2.65,1.73,0,2.66,6.61,1,6.61,5,0,1.67-1.34,3.1-4.22,3.1-1.67,0-3.3-.56-4.17-1.37Z"/>
          <path class="cls-3" d="M661.21,46.3h1.56v10.91h-1.56v-10.91Z"/>
          <path class="cls-3" d="M668.21,47.65h-3.74v-1.36h9.02v1.36h-3.74v9.55h-1.54v-9.55Z"/>
          <path class="cls-3" d="M679.24,53.43v3.77h-1.54v-3.8l-4.33-7.1h1.67l3.49,5.75,3.51-5.75h1.54l-4.33,7.14Z"/>
        </g>
        <g>
          <g>
            <path class="cls-4" d="M529.64,25.31v-15.86h5.22v15.66c0,5.78,2.61,8.27,7.15,8.27s7.11-2.49,7.11-8.27v-15.66h5.14v15.86c0,8.19-4.62,12.65-12.29,12.65s-12.33-4.46-12.33-12.65Z"/>
            <path class="cls-3" d="M560.16,34.71c0-1.73,1.37-3.09,3.25-3.09s3.17,1.36,3.17,3.09-1.32,3.13-3.17,3.13-3.25-1.41-3.25-3.13ZM560.44,9.45h5.94l-1,18.79h-3.98l-.96-18.79Z"/>
            <path class="cls-4" d="M591.12,37.56l-5.74-8.23c-.36.04-.72.04-1.08.04h-6.35v8.19h-5.22V9.45h11.57c7.39,0,11.97,3.77,11.97,10,0,4.26-2.17,7.39-5.98,8.88l6.46,9.24h-5.62ZM584.06,13.87h-6.1v11.2h6.1c4.58,0,6.95-2.09,6.95-5.62s-2.37-5.58-6.95-5.58Z"/>
            <path class="cls-4" d="M623.17,33.18v4.38h-21.08V9.45h20.52v4.38h-15.3v7.31h13.57v4.3h-13.57v7.75h15.86Z"/>
            <path class="cls-4" d="M638.67,25.79l-4.46,4.58v7.19h-5.22V9.45h5.22v14.42l13.9-14.42h5.86l-11.81,12.57,12.53,15.54h-6.1l-9.92-11.77Z"/>
            <path class="cls-4" d="M675.3,31.05h-14.06l-2.77,6.51h-5.38l12.65-28.11h5.14l12.69,28.11h-5.46l-2.81-6.51ZM673.57,26.96l-5.3-12.29-5.26,12.29h10.56Z"/>
          </g>
          <g>
            <g>
              <path class="cls-5" d="M510.19,38.17v-12.25c0-.42-.23-.79-.61-.97-.38-.18-.81-.13-1.14.14l-4.51,3.71v9.37l.73.3v-9.32l4.25-3.49c.15-.13.32-.07.36-.04.05.02.2.11.2.31v12.25h.73Z"/>
              <path class="cls-5" d="M504.73,38.58l-.87-.36v-9.45l.03-.02,4.51-3.71c.34-.28.81-.34,1.21-.15.4.19.66.59.66,1.03v12.32h-.87v-12.32c0-.16-.12-.23-.15-.24-.05-.02-.16-.06-.29.04l-4.22,3.47v9.39ZM504,38.12l.59.24v-9.25l.03-.02,4.25-3.49c.18-.15.38-.08.44-.05.06.03.24.13.24.37v12.17h.59v-12.17c0-.39-.22-.74-.57-.9-.35-.17-.76-.12-1.06.13l-4.49,3.68v9.28Z"/>
            </g>
            <g>
              <path class="cls-5" d="M502.29,37.64v-14.68l-4.51-3.71c-.32-.27-.76-.32-1.14-.14-.38.18-.61.55-.61.97v13.73l.73.5v-14.22c0-.2.15-.29.2-.31.05-.02.21-.08.36.05l4.25,3.49v13.98l.73.36Z"/>
              <path class="cls-5" d="M502.36,37.75l-.88-.43v-13.99l-4.22-3.46c-.12-.1-.24-.06-.29-.04-.04.02-.15.09-.15.24v14.36l-.87-.59v-13.77c0-.45.25-.84.65-1.03.4-.19.87-.14,1.21.15l4.54,3.73v14.83ZM501.63,37.23l.59.29v-14.53l-4.49-3.68c-.3-.25-.71-.3-1.06-.13-.35.17-.57.51-.57.9v13.69l.59.4v-14.09c0-.24.18-.35.24-.37.06-.03.25-.1.44.05l4.27,3.51v13.97Z"/>
            </g>
            <g>
              <path class="cls-5" d="M518.14,34.08v-17.28c0-.42-.23-.79-.61-.97-.38-.18-.82-.12-1.14.14l-4.51,3.71v18.06l.73-.06v-17.66l4.25-3.49c.15-.13.32-.07.36-.05.05.02.2.11.2.31v18.26l.73-.97Z"/>
              <path class="cls-5" d="M511.8,37.81v-18.17l.03-.02,4.51-3.71c.34-.28.81-.34,1.21-.15.4.19.65.59.65,1.03v17.33s-.87,1.15-.87,1.15v-18.47c0-.16-.12-.23-.15-.24-.06-.02-.17-.06-.29.04l-4.22,3.46v17.69l-.87.07ZM511.95,19.71v17.95l.59-.05v-17.62l.03-.02,4.25-3.49c.18-.15.36-.09.44-.06.12.05.24.18.24.37v18.04l.59-.78v-17.26c0-.39-.22-.74-.57-.9-.36-.17-.76-.12-1.06.13l-4.49,3.68Z"/>
            </g>
            <path class="cls-5" d="M507.38,38.94c-8.49,0-15.39-6.91-15.39-15.39s6.91-15.39,15.39-15.39,15.39,6.91,15.39,15.39-6.91,15.39-15.39,15.39ZM507.38,8.73c-8.17,0-14.82,6.65-14.82,14.82s6.65,14.82,14.82,14.82,14.82-6.65,14.82-14.82-6.65-14.82-14.82-14.82Z"/>
          </g>
        </g>
      </g>
      <g>
        <rect class="cls-1" x="290.6" y="6.44" width="1.23" height="56.63"/>
        <g>
          <path class="cls-2" d="M82.24,21.93c-.88,0-1.73,0-2.68-.03v8.76h-4.45V6.37c2.32-.13,4.48-.16,6.83-.16,5.95,0,10.66,1.14,10.69,7.62v.36c0,6.54-4.74,7.75-10.4,7.75ZM88.16,13.83c-.03-3.76-2.68-3.76-7.94-3.76h-.65v7.98c.85.03,1.73.03,2.61.03,3.99,0,5.98-.69,5.98-3.89v-.36Z"/>
          <path class="cls-2" d="M105.37,31.18c-6.18,0-9.97-3.37-9.97-11.24v-2.84c0-7.85,3.82-11.21,9.97-11.21s10,3.37,10,11.21v2.84c0,7.88-3.83,11.24-10,11.24ZM110.83,17.13c0-5.43-2.13-7.26-5.46-7.26s-5.43,1.83-5.43,7.26v2.81c0,5.46,2.16,7.29,5.43,7.29s5.46-1.83,5.46-7.29v-2.81Z"/>
          <path class="cls-2" d="M119.21,30.66V6.37h4.58v20.43h10.3v3.86h-14.87Z"/>
          <path class="cls-2" d="M137.17,30.66V6.37h4.58v24.29h-4.58Z"/>
          <path class="cls-2" d="M156.66,10.17v20.5h-4.58V10.17h-7.26v-3.79h19.09v3.79h-7.26Z"/>
          <path class="cls-2" d="M167.05,30.66V6.37h15.46v3.79h-10.89v6.18h10.2v3.66h-10.2v6.9h10.89v3.76h-15.46ZM176.46,4.87h-4.12l4.28-4.87h5l-5.16,4.87Z"/>
          <path class="cls-2" d="M195.58,31.18c-6.24,0-10.36-2.35-10.36-11.05v-3.24c0-8.7,4.12-11.02,10.36-11.02,2.13,0,5,.39,6.11.65v3.63c-1.6-.13-3.92-.29-5.82-.29-4.09,0-6.08,1.44-6.08,7.03v3.24c0,5.59,1.99,7.06,6.08,7.06,1.9,0,4.22-.16,5.82-.29v3.66c-1.11.26-3.99.62-6.11.62Z"/>
          <path class="cls-2" d="M218.59,30.66l-7.78-14.42c-.59-1.11-1.27-2.42-1.83-3.63h-.07c.07,1.37.13,2.88.13,4.35v13.7h-4.18V6.37h5.3l7.75,14.12c.59,1.11,1.34,2.52,1.86,3.69h.07c-.1-1.44-.13-3.14-.13-4.61V6.37h4.22v24.29h-5.33Z"/>
          <path class="cls-2" d="M228.46,30.66V6.37h4.58v24.29h-4.58Z"/>
          <path class="cls-2" d="M247.25,31.18c-6.24,0-10.36-2.35-10.36-11.05v-3.24c0-8.7,4.12-11.02,10.36-11.02,2.13,0,5,.39,6.11.65v3.63c-1.6-.13-3.92-.29-5.82-.29-4.09,0-6.08,1.44-6.08,7.03v3.24c0,5.59,1.99,7.06,6.08,7.06,1.9,0,4.22-.16,5.82-.29v3.66c-1.11.26-3.99.62-6.11.62Z"/>
          <path class="cls-2" d="M265.43,31.18c-6.18,0-9.97-3.37-9.97-11.24v-2.84c0-7.85,3.82-11.21,9.97-11.21s10,3.37,10,11.21v2.84c0,7.88-3.83,11.24-10,11.24ZM270.89,17.13c0-5.43-2.13-7.26-5.46-7.26s-5.43,1.83-5.43,7.26v2.81c0,5.46,2.16,7.29,5.43,7.29s5.46-1.83,5.46-7.29v-2.81Z"/>
          <path class="cls-2" d="M82.7,63.32c-2.98,0-4.64-.07-7.58-.2v-24.29c2.94-.13,4.38-.2,7.58-.2,7.88,0,11.21,3.66,11.21,10.75v3.07c0,7.16-3.14,10.85-11.21,10.85ZM89.37,49.39c0-5.3-2.09-6.86-6.77-6.86h-3.01v16.93h3.01c4.67,0,6.77-1.7,6.77-7v-3.07Z"/>
          <path class="cls-2" d="M97.75,63.12v-24.29h15.46v3.79h-10.89v6.18h10.2v3.66h-10.2v6.9h10.89v3.76h-15.46Z"/>
          <path class="cls-2" d="M123.9,63.12v-24.29h4.58v20.43h10.3v3.86h-14.87Z"/>
          <path class="cls-2" d="M141.86,63.12v-24.29h4.58v24.29h-4.58Z"/>
          <path class="cls-2" d="M158.16,63.65c-3.17,0-6.44-.43-7.65-.75v-3.5c1.99.2,4.25.39,7.29.39s4.35-.82,4.35-3.01c0-1.57-.62-2.45-3.04-3.47l-3.66-1.5c-3.6-1.47-5.52-3.53-5.52-7.06,0-4.71,2.94-6.41,8.7-6.41,3.07,0,5.95.49,7.09.78v3.47c-1.86-.16-4.35-.43-6.9-.43-2.84,0-4.38.49-4.38,2.45,0,1.47.69,2.22,3.11,3.2l3.3,1.34c4.25,1.73,5.95,3.46,5.95,7.58,0,4.41-3.17,6.9-8.63,6.9Z"/>
          <path class="cls-2" d="M177.28,63.32c-2.78,0-3.96-.07-7.03-.2v-24.29c3.2-.13,4.38-.2,7.16-.2,6.51,0,10.53,1.14,10.53,6.6v.29c0,2.09-.92,4.12-3.07,5.1,2.29.95,3.2,3.04,3.2,5.13v.33c0,6.08-4.51,7.22-10.79,7.22ZM183.49,45.4c0-2.78-2.19-3.01-6.08-3.01h-2.71v6.57h4.12c3.76,0,4.67-1.24,4.67-3.27v-.29ZM183.59,55.73c-.03-2.13-1.01-3.47-4.74-3.47h-4.15v7.29h1.24c4.97,0,7.65-.03,7.65-3.47v-.36Z"/>
          <path class="cls-2" d="M201.04,63.65c-6.18,0-9.97-3.37-9.97-11.25v-2.84c0-7.85,3.82-11.21,9.97-11.21s10,3.37,10,11.21v2.84c0,7.88-3.83,11.25-10,11.25ZM206.5,49.59c0-5.43-2.13-7.26-5.46-7.26s-5.43,1.83-5.43,7.26v2.81c0,5.46,2.16,7.29,5.43,7.29s5.46-1.83,5.46-7.29v-2.81Z"/>
          <path class="cls-2" d="M229.27,63.12l-2.09-6.8h-7.81l-2.16,6.8h-4.67l7.35-24.29h6.83l7.36,24.29h-4.8ZM224.27,45.86c-.36-1.21-.62-2.52-.85-3.82h-.29c-.26,1.31-.49,2.62-.85,3.82l-2.06,6.7h6.08l-2.03-6.7Z"/>
        </g>
        <path class="cls-1" d="M0,2.64v73.49c13.71-8.59,28.84-11.96,43.24-11.96,6.37,0,12.31.68,17.75,2.15V2.64H0ZM17.56,28.47c2.47,2.05,4.86,4.24,7.16,6.54-.6,6.86-1.68,13.55-3.16,20.03-2.21.58-4.41,1.26-6.6,2.04.95-4.97,1.69-10.04,2.12-15.24.37-4.5.52-8.96.49-13.37ZM5.71,37.66c2.41,2,4.74,4.13,6.98,6.37-.52,5.04-1.3,9.98-2.29,14.82-2.21.95-4.39,2.02-6.55,3.2.57-3.62,1.06-7.28,1.36-11.01.37-4.5.52-8.96.49-13.37ZM43.24,52.32c-5.8,0-11.71.56-17.61,1.77,1.61-6.89,2.78-14,3.38-21.33.37-4.5.53-8.96.5-13.37,10.39,8.6,20.62,21.71,27.61,34.19-4.36-.85-8.99-1.27-13.88-1.27Z"/>
        <g>
          <path class="cls-1" d="M313.76,15.14c-.48,0-.95,0-1.46-.02v4.79h-2.43V6.64c1.27-.07,2.45-.09,3.73-.09,3.25,0,5.82.62,5.84,4.16v.2c0,3.57-2.59,4.23-5.68,4.23ZM316.99,10.72c-.02-2.05-1.46-2.05-4.34-2.05h-.36v4.36c.46.02.95.02,1.43.02,2.18,0,3.27-.38,3.27-2.13v-.2Z"/>
          <path class="cls-1" d="M326.4,20.2c-3.38,0-5.45-1.84-5.45-6.15v-1.55c0-4.29,2.09-6.13,5.45-6.13s5.47,1.84,5.47,6.13v1.55c0,4.31-2.09,6.15-5.47,6.15ZM329.39,12.52c0-2.97-1.16-3.97-2.98-3.97s-2.96,1-2.96,3.97v1.54c0,2.98,1.18,3.98,2.96,3.98s2.98-1,2.98-3.98v-1.54Z"/>
          <path class="cls-1" d="M334.21,19.91V6.64h2.5v11.16h5.63v2.11h-8.13Z"/>
          <path class="cls-1" d="M347.99,14.95v4.97h-2.43v-4.97l-4.43-8.31h2.61l2.09,3.84c.32.61.68,1.39.93,2.05h.11c.23-.66.64-1.45.96-2.05l2.09-3.84h2.5l-4.43,8.31Z"/>
          <path class="cls-1" d="M359.69,8.71v11.2h-2.5v-11.2h-3.97v-2.07h10.43v2.07h-3.97Z"/>
          <path class="cls-1" d="M365.57,19.91V6.64h8.45v2.07h-5.95v3.38h5.57v2h-5.57v3.77h5.95v2.05h-8.45Z"/>
          <path class="cls-1" d="M381.36,20.2c-3.41,0-5.66-1.29-5.66-6.04v-1.77c0-4.75,2.25-6.02,5.66-6.02,1.16,0,2.73.21,3.34.36v1.98c-.87-.07-2.14-.16-3.18-.16-2.23,0-3.32.79-3.32,3.84v1.77c0,3.05,1.09,3.86,3.32,3.86,1.04,0,2.3-.09,3.18-.16v2c-.61.14-2.18.34-3.34.34Z"/>
          <path class="cls-1" d="M394.97,19.91v-5.84h-5.81v5.84h-2.5V6.64h2.5v5.29h5.81v-5.29h2.5v13.27h-2.5Z"/>
          <path class="cls-1" d="M407.79,19.91l-4.25-7.88c-.32-.61-.7-1.32-1-1.98h-.04c.04.75.07,1.57.07,2.38v7.48h-2.29V6.64h2.89l4.23,7.72c.32.61.73,1.38,1.02,2.02h.04c-.05-.79-.07-1.71-.07-2.52v-7.22h2.3v13.27h-2.91Z"/>
          <path class="cls-1" d="M413.52,19.91V6.64h2.5v13.27h-2.5Z"/>
          <path class="cls-1" d="M424.02,20.2c-3.41,0-5.66-1.29-5.66-6.04v-1.77c0-4.75,2.25-6.02,5.66-6.02,1.16,0,2.73.21,3.34.36v1.98c-.87-.07-2.14-.16-3.18-.16-2.23,0-3.32.79-3.32,3.84v1.77c0,3.05,1.09,3.86,3.32,3.86,1.04,0,2.3-.09,3.18-.16v2c-.61.14-2.18.34-3.34.34Z"/>
          <path class="cls-1" d="M314.99,41.63c-3.38,0-5.22-1.89-5.22-5.72v-7.84h2.47v7.72c0,2.68.62,3.7,2.75,3.7s2.75-1.02,2.75-3.7v-7.72h2.45v7.84c0,3.82-1.84,5.72-5.2,5.72Z"/>
          <path class="cls-1" d="M330.42,41.35l-4.25-7.88c-.32-.61-.7-1.32-1-1.98h-.04c.04.75.07,1.57.07,2.38v7.48h-2.29v-13.27h2.89l4.23,7.72c.32.61.73,1.38,1.02,2.02h.04c-.05-.79-.07-1.71-.07-2.52v-7.22h2.3v13.27h-2.91Z"/>
          <path class="cls-1" d="M336.15,41.35v-13.27h2.5v13.27h-2.5Z"/>
          <path class="cls-1" d="M348.23,41.35h-3.64l-4-13.27h2.57l2.73,9.2c.23.77.36,1.68.54,2.38h.04c.14-.71.3-1.61.54-2.38l2.73-9.2h2.52l-4.02,13.27Z"/>
          <path class="cls-1" d="M354.17,41.35v-13.27h8.45v2.07h-5.95v3.38h5.57v2h-5.57v3.77h5.95v2.05h-8.45Z"/>
          <path class="cls-1" d="M372.71,41.35l-2.93-4.91c-.36.02-.75.02-1.16.02h-1.23v4.89h-2.43v-13.27c1.18-.05,2.38-.09,3.72-.09,3.2,0,5.84.64,5.84,4.14v.12c0,2.02-.88,3.07-2.29,3.68l3.13,5.41h-2.64ZM372.07,32.16c0-2.05-1.43-2.07-4.68-2.07v4.36c.46.02.91.02,1.38.02,2.29,0,3.3-.48,3.3-2.2v-.11Z"/>
          <path class="cls-1" d="M381.05,41.63c-1.73,0-3.52-.23-4.18-.41v-1.91c1.09.11,2.32.21,3.98.21s2.38-.45,2.38-1.64c0-.86-.34-1.34-1.66-1.89l-2-.82c-1.96-.8-3.02-1.93-3.02-3.86,0-2.57,1.61-3.5,4.75-3.5,1.68,0,3.25.27,3.88.43v1.89c-1.02-.09-2.38-.23-3.77-.23-1.55,0-2.39.27-2.39,1.34,0,.8.37,1.21,1.7,1.75l1.8.73c2.32.95,3.25,1.89,3.25,4.14,0,2.41-1.73,3.77-4.72,3.77Z"/>
          <path class="cls-1" d="M388.05,41.35v-13.27h2.5v13.27h-2.5Z"/>
          <path class="cls-1" d="M398.93,30.15v11.2h-2.5v-11.2h-3.97v-2.07h10.43v2.07h-3.97Z"/>
          <path class="cls-1" d="M410.56,36.38v4.97h-2.43v-4.97l-4.43-8.31h2.61l2.09,3.84c.32.61.68,1.39.93,2.05h.11c.23-.66.64-1.45.96-2.05l2.09-3.84h2.5l-4.43,8.31Z"/>
          <path class="cls-1" d="M314.83,63.06c-3.38,0-5.45-1.84-5.45-6.14v-1.55c0-4.29,2.09-6.13,5.45-6.13s5.47,1.84,5.47,6.13v1.55c0,4.3-2.09,6.14-5.47,6.14ZM317.81,55.38c0-2.97-1.16-3.97-2.98-3.97s-2.96,1-2.96,3.97v1.54c0,2.98,1.18,3.98,2.96,3.98s2.98-1,2.98-3.98v-1.54Z"/>
          <path class="cls-1" d="M325.13,51.6v3.36h5.57v2h-5.57v5.82h-2.5v-13.27h8.45v2.09h-5.95Z"/>
          <path class="cls-1" d="M336.74,62.78v-13.27h2.5v11.16h5.63v2.11h-8.13Z"/>
          <path class="cls-1" d="M346.74,62.78v-13.27h2.5v13.27h-2.5Z"/>
          <path class="cls-1" d="M356.07,63.06c-1.73,0-3.52-.23-4.18-.41v-1.91c1.09.11,2.32.21,3.98.21s2.38-.45,2.38-1.64c0-.86-.34-1.34-1.66-1.89l-2-.82c-1.96-.8-3.02-1.93-3.02-3.86,0-2.57,1.61-3.5,4.75-3.5,1.68,0,3.25.27,3.88.43v1.89c-1.02-.09-2.38-.23-3.77-.23-1.55,0-2.39.27-2.39,1.34,0,.8.37,1.21,1.7,1.75l1.8.73c2.32.95,3.25,1.89,3.25,4.14,0,2.41-1.73,3.77-4.72,3.77Z"/>
          <path class="cls-1" d="M366.91,62.89c-1.52,0-2.16-.04-3.84-.11v-13.27c1.75-.07,2.39-.11,3.91-.11,3.55,0,5.75.63,5.75,3.61v.16c0,1.14-.5,2.25-1.68,2.79,1.25.52,1.75,1.66,1.75,2.8v.18c0,3.32-2.46,3.95-5.89,3.95ZM370.3,53.1c0-1.52-1.2-1.64-3.32-1.64h-1.48v3.59h2.25c2.05,0,2.55-.68,2.55-1.79v-.16ZM370.36,58.74c-.02-1.16-.55-1.89-2.59-1.89h-2.27v3.98h.68c2.71,0,4.18-.02,4.18-1.89v-.2Z"/>
          <path class="cls-1" d="M380.09,63.06c-3.38,0-5.45-1.84-5.45-6.14v-1.55c0-4.29,2.09-6.13,5.45-6.13s5.47,1.84,5.47,6.13v1.55c0,4.3-2.09,6.14-5.47,6.14ZM383.07,55.38c0-2.97-1.16-3.97-2.98-3.97s-2.96,1-2.96,3.97v1.54c0,2.98,1.18,3.98,2.96,3.98s2.98-1,2.98-3.98v-1.54Z"/>
          <path class="cls-1" d="M395.39,62.78l-4.25-7.88c-.32-.61-.7-1.32-1-1.98h-.04c.04.75.07,1.57.07,2.38v7.48h-2.29v-13.27h2.89l4.23,7.72c.32.61.73,1.38,1.02,2.02h.04c-.05-.79-.07-1.71-.07-2.52v-7.22h2.3v13.27h-2.91Z"/>
        </g>
      </g>
    </g>
  </g>
</svg>