<?xml version="1.0" encoding="UTF-8" standalone="no"?>
<!DOCTYPE svg PUBLIC "-//W3C//DTD SVG 1.1//EN" "http://www.w3.org/Graphics/SVG/1.1/DTD/svg11.dtd">
<svg width="100%" height="100%" viewBox="0 0 1284 771" version="1.1" xmlns="http://www.w3.org/2000/svg" xmlns:xlink="http://www.w3.org/1999/xlink" xml:space="preserve" style="fill-rule:evenodd;clip-rule:evenodd;stroke-linejoin:round;stroke-miterlimit:2;">
    <g transform="matrix(1,0,0,1,-244.088,-243.15)">
        <g transform="matrix(4.16667,0,0,4.16667,0,0)">
            <rect x="178.714" y="58.356" width="3.08" height="184.816" style="fill:rgb(161,40,21);fill-rule:nonzero;"/>
            <rect x="212.632" y="175.918" width="1.56" height="8.656" style="fill:rgb(161,40,21);fill-rule:nonzero;"/>
            <path d="M221.978,184.574L223.571,184.574L223.571,175.918L222.091,175.918L222.14,179.97C222.157,180.986 222.271,182.091 222.292,182.285C222.169,182.062 221.765,181.162 221.253,180.279L218.733,175.918L216.989,175.918L216.989,184.574L218.521,184.574L218.454,180.422C218.437,179.338 218.39,178.451 218.353,178.007C218.419,178.173 218.997,179.392 219.503,180.246L221.978,184.574Z" style="fill:rgb(161,40,21);fill-rule:nonzero;"/>
            <path d="M232.444,181.945C232.444,181.347 232.214,180.769 231.813,180.381C231.419,179.97 230.745,179.672 230.071,179.488L228.888,179.191C227.899,178.916 227.519,178.613 227.519,178.074C227.519,177.382 228.192,176.953 229.2,176.953C229.976,176.953 230.759,177.181 231.536,177.646L232.243,176.547C231.47,176.015 230.247,175.687 229.134,175.687C227.204,175.687 225.841,176.759 225.841,178.283C225.841,178.73 225.97,179.125 226.222,179.488C226.569,180.011 227.175,180.396 227.958,180.605L229.2,180.92C230.28,181.201 230.729,181.601 230.729,182.216C230.729,182.652 230.503,182.982 230.089,183.209C229.741,183.406 229.36,183.486 228.79,183.486C227.833,183.486 227.009,183.259 226.108,182.783L225.509,183.984C226.485,184.49 227.603,184.757 228.702,184.757C229.595,184.757 230.364,184.59 230.993,184.248C231.896,183.765 232.444,182.894 232.444,181.945Z" style="fill:rgb(161,40,21);fill-rule:nonzero;"/>
            <path d="M240.388,175.918L233.675,175.918L233.675,177.181L236.14,177.181L236.14,184.574L237.673,184.574L237.673,177.181L240.179,177.181L240.388,175.918Z" style="fill:rgb(161,40,21);fill-rule:nonzero;"/>
            <rect x="242.017" y="175.918" width="1.56" height="8.656" style="fill:rgb(161,40,21);fill-rule:nonzero;"/>
            <path d="M247.905,184.574L249.437,184.574L249.437,177.181L251.935,177.181L252.153,175.918L245.44,175.918L245.44,177.181L247.905,177.181L247.905,184.574Z" style="fill:rgb(161,40,21);fill-rule:nonzero;"/>
            <path d="M259.394,183.896C259.983,183.359 260.167,182.879 260.167,181.494L260.167,175.918L258.599,175.918L258.599,181.429C258.599,182.271 258.519,182.568 258.269,182.894C258.005,183.242 257.501,183.439 256.823,183.439C255.987,183.439 255.362,183.113 255.128,182.548C255.032,182.318 254.995,181.857 254.995,181.242L254.995,175.918L253.45,175.918L253.45,181.523C253.45,182.502 253.53,182.861 253.794,183.359C254.226,184.113 255.146,184.724 256.808,184.724C258.005,184.724 258.812,184.443 259.394,183.896Z" style="fill:rgb(161,40,21);fill-rule:nonzero;"/>
            <path d="M265.938,184.574L265.938,177.181L268.438,177.181L268.655,175.918L261.937,175.918L261.937,177.181L264.403,177.181L264.403,184.574L265.938,184.574Z" style="fill:rgb(161,40,21);fill-rule:nonzero;"/>
            <path d="M275.255,182.318C274.946,183.179 274.28,183.568 273.31,183.568C272.438,183.568 271.778,183.275 271.468,182.728C271.12,182.138 270.919,181.279 270.919,180.129C270.919,179.111 271.058,178.404 271.368,177.89C271.71,177.334 272.39,176.986 273.181,176.986C274.101,176.986 274.757,177.298 275.155,178.074C275.419,178.613 275.532,179.308 275.532,180.381C275.532,181.271 275.466,181.791 275.255,182.318ZM276.39,183.392C276.997,182.652 277.276,181.664 277.276,180.263C277.276,178.877 276.964,177.861 276.331,177.132C275.612,176.25 274.606,175.781 273.21,175.781C270.728,175.781 269.212,177.466 269.212,180.234C269.212,181.664 269.593,182.728 270.413,183.603C271.138,184.373 272.009,184.724 273.31,184.724C274.741,184.724 275.665,184.3 276.39,183.392Z" style="fill:rgb(161,40,21);fill-rule:nonzero;"/>
            <path d="M289.171,181.945C289.171,181.347 288.937,180.769 288.548,180.381C288.151,179.97 287.478,179.672 286.804,179.488L285.618,179.191C284.626,178.916 284.245,178.613 284.245,178.074C284.245,177.382 284.923,176.953 285.929,176.953C286.706,176.953 287.493,177.181 288.263,177.646L288.966,176.547C288.2,176.015 286.983,175.687 285.86,175.687C283.937,175.687 282.571,176.759 282.571,178.283C282.571,178.73 282.696,179.125 282.952,179.488C283.296,180.011 283.903,180.396 284.688,180.605L285.929,180.92C287.017,181.201 287.456,181.601 287.456,182.216C287.456,182.652 287.226,182.982 286.815,183.209C286.476,183.406 286.091,183.486 285.515,183.486C284.563,183.486 283.743,183.259 282.839,182.783L282.245,183.984C283.212,184.49 284.333,184.757 285.438,184.757C286.325,184.757 287.101,184.59 287.724,184.248C288.632,183.765 289.171,182.894 289.171,181.945Z" style="fill:rgb(161,40,21);fill-rule:nonzero;"/>
            <path d="M296.462,181.429C296.462,182.271 296.378,182.568 296.128,182.894C295.864,183.242 295.349,183.439 294.679,183.439C293.843,183.439 293.22,183.113 292.989,182.548C292.884,182.318 292.858,181.857 292.858,181.242L292.858,175.918L291.306,175.918L291.306,181.523C291.306,182.502 291.386,182.861 291.657,183.359C292.085,184.113 293.001,184.724 294.663,184.724C295.864,184.724 296.671,184.443 297.253,183.896C297.843,183.359 298.019,182.879 298.019,181.494L298.019,175.918L296.462,175.918L296.462,181.429Z" style="fill:rgb(161,40,21);fill-rule:nonzero;"/>
            <path d="M302.267,177.166L303.401,177.166C304.108,177.166 304.585,177.25 304.929,177.529C305.226,177.777 305.397,178.125 305.397,178.613C305.397,179.033 305.284,179.371 305.034,179.652C304.761,179.931 304.368,180.088 303.644,180.088L302.267,180.088L302.267,177.166ZM302.267,181.318L303.677,181.318C304.761,181.318 305.276,181.187 305.899,180.722C306.616,180.293 307.085,179.539 307.085,178.521C307.085,177.558 306.595,176.777 305.753,176.328C305.243,176.035 304.8,175.918 303.247,175.918L300.731,175.918L300.731,184.574L302.267,184.574L302.267,181.318Z" style="fill:rgb(161,40,21);fill-rule:nonzero;"/>
            <path d="M314.659,183.259L310.663,183.259L310.663,180.693L313.702,180.693L313.702,179.429L310.646,179.429L310.646,177.181L314.317,177.181L314.53,175.918L309.097,175.918L309.097,184.574L314.659,184.574L314.659,183.259Z" style="fill:rgb(161,40,21);fill-rule:nonzero;"/>
            <path d="M319.351,179.789L318.511,179.789L318.511,177.158L319.464,177.158C319.958,177.158 320.306,177.181 320.599,177.283C321.13,177.451 321.44,177.881 321.44,178.422C321.44,178.877 321.276,179.224 320.991,179.437C320.665,179.689 320.206,179.789 319.351,179.789ZM323.579,184.574C323.55,184.523 322.792,183.509 322.29,182.795C321.833,182.187 321.339,181.547 321.06,181.201C320.942,181.054 320.778,180.902 320.632,180.802C322.097,180.744 323.034,179.814 323.034,178.388C323.034,177.584 322.653,176.884 322.046,176.445C321.536,176.068 320.866,175.918 319.556,175.918L316.974,175.918L316.974,184.574L318.511,184.574L318.511,180.873C318.804,180.902 319.017,180.97 319.259,181.187C319.694,181.513 320.138,182.062 320.874,183.242C321.173,183.72 321.456,184.15 321.7,184.574L323.579,184.574Z" style="fill:rgb(161,40,21);fill-rule:nonzero;"/>
            <rect x="325.55" y="175.918" width="1.564" height="8.656" style="fill:rgb(161,40,21);fill-rule:nonzero;"/>
            <path d="M331.622,182.728C331.274,182.138 331.079,181.279 331.079,180.129C331.079,179.111 331.208,178.404 331.526,177.89C331.86,177.334 332.544,176.986 333.335,176.986C334.255,176.986 334.913,177.298 335.31,178.074C335.569,178.613 335.687,179.308 335.687,180.381C335.687,181.271 335.62,181.791 335.405,182.318C335.093,183.179 334.431,183.568 333.464,183.568C332.593,183.568 331.933,183.275 331.622,182.728ZM336.54,183.392C337.155,182.652 337.433,181.664 337.433,180.263C337.433,178.877 337.118,177.861 336.489,177.132C335.767,176.25 334.767,175.781 333.364,175.781C330.878,175.781 329.366,177.466 329.366,180.234C329.366,181.664 329.747,182.728 330.567,183.603C331.296,184.373 332.167,184.724 333.464,184.724C334.899,184.724 335.815,184.3 336.54,183.392Z" style="fill:rgb(161,40,21);fill-rule:nonzero;"/>
            <path d="M341.241,177.158L342.202,177.158C342.692,177.158 343.04,177.181 343.333,177.283C343.864,177.451 344.179,177.881 344.179,178.422C344.179,178.877 344.015,179.224 343.735,179.437C343.403,179.689 342.935,179.789 342.085,179.789L341.241,179.789L341.241,177.158ZM341.241,180.873C341.538,180.902 341.755,180.97 342.003,181.187C342.437,181.513 342.876,182.062 343.618,183.242C343.911,183.72 344.194,184.15 344.438,184.574L346.313,184.574C346.284,184.523 345.526,183.509 345.032,182.795C344.567,182.187 344.077,181.547 343.794,181.201C343.685,181.054 343.517,180.902 343.37,180.802C344.835,180.744 345.769,179.814 345.769,178.388C345.769,177.584 345.392,176.884 344.786,176.445C344.274,176.068 343.601,175.918 342.3,175.918L339.718,175.918L339.718,184.574L341.241,184.574L341.241,180.873Z" style="fill:rgb(161,40,21);fill-rule:nonzero;"/>
            <path d="M353.315,177.158L354.341,177.158C355.231,177.158 355.81,177.334 356.319,177.949C356.78,178.488 356.96,179.224 356.96,180.363C356.96,182.187 356.271,182.996 355.345,183.226C355.114,183.293 354.806,183.326 354.528,183.326L353.315,183.326L353.315,177.158ZM355.839,184.465C356.909,184.226 358.655,183.041 358.655,180.246C358.655,177.675 357.458,176.613 356.169,176.211C355.462,175.918 354.62,175.918 353.716,175.918L351.774,175.918L351.774,184.574L354.294,184.574C354.938,184.574 355.462,184.556 355.839,184.465Z" style="fill:rgb(161,40,21);fill-rule:nonzero;"/>
            <path d="M366.489,183.259L362.493,183.259L362.493,180.693L365.532,180.693L365.532,179.429L362.468,179.429L362.468,177.181L366.147,177.181L366.353,175.918L360.923,175.918L360.923,184.574L366.489,184.574L366.489,183.259Z" style="fill:rgb(161,40,21);fill-rule:nonzero;"/>
            <path d="M214.159,193.191L217.202,193.191L217.202,191.918L214.151,191.918L214.151,189.679L217.81,189.679L218.026,188.416L212.603,188.416L212.603,197.07L218.155,197.07L218.155,195.756L214.159,195.756L214.159,193.191Z" style="fill:rgb(161,40,21);fill-rule:nonzero;"/>
            <path d="M225.79,192.466C225.812,193.484 225.925,194.59 225.94,194.785C225.823,194.554 225.413,193.664 224.903,192.781L222.388,188.416L220.638,188.416L220.638,197.07L222.169,197.07L222.106,192.923C222.091,191.843 222.036,190.947 222.007,190.504C222.073,190.675 222.651,191.884 223.161,192.744L225.626,197.07L227.226,197.07L227.226,188.416L225.743,188.416L225.79,192.466Z" style="fill:rgb(161,40,21);fill-rule:nonzero;"/>
            <path d="M233.521,193.605L235.257,193.605L235.257,195.773C234.923,195.941 234.466,196.037 233.972,196.037C233.396,196.037 232.817,195.886 232.378,195.627C231.632,195.175 231.257,194.279 231.257,192.847C231.257,192.023 231.368,191.328 231.603,190.756C231.925,189.951 232.687,189.521 233.792,189.521C234.663,189.521 235.224,189.785 235.864,190.211L236.638,189.24C235.763,188.595 234.854,188.298 233.776,188.298C232.767,188.298 231.946,188.554 231.222,189.043C230.118,189.814 229.565,191.035 229.565,192.744C229.565,194.125 229.921,195.15 230.7,195.953C231.448,196.761 232.495,197.187 233.884,197.187C234.978,197.187 235.944,196.953 236.802,196.459L236.802,192.345L233.294,192.345L233.521,193.605Z" style="fill:rgb(161,40,21);fill-rule:nonzero;"/>
            <path d="M240.866,193.191L243.907,193.191L243.907,191.918L240.849,191.918L240.849,189.679L244.515,189.679L244.737,188.416L239.3,188.416L239.3,197.07L244.866,197.07L244.866,195.756L240.866,195.756L240.866,193.191Z" style="fill:rgb(161,40,21);fill-rule:nonzero;"/>
            <path d="M252.491,192.466C252.513,193.484 252.63,194.59 252.647,194.785C252.534,194.554 252.12,193.664 251.612,192.781L249.085,188.416L247.349,188.416L247.349,197.07L248.88,197.07L248.813,192.923C248.792,191.843 248.741,190.947 248.712,190.504C248.776,190.675 249.356,191.884 249.864,192.744L252.333,197.07L253.927,197.07L253.927,188.416L252.446,188.416L252.491,192.466Z" style="fill:rgb(161,40,21);fill-rule:nonzero;"/>
            <path d="M261.808,191.855L258.351,191.855L258.351,188.416L256.808,188.416L256.808,197.07L258.351,197.07L258.351,193.125L261.808,193.125L261.808,197.07L263.356,197.07L263.356,188.416L261.808,188.416L261.808,191.855Z" style="fill:rgb(161,40,21);fill-rule:nonzero;"/>
            <path d="M267.798,193.58C267.864,193.349 268.999,190.031 269.05,189.797C269.103,190.031 270.187,193.287 270.288,193.58L267.798,193.58ZM268.212,188.402L264.985,197.07L266.583,197.07L267.403,194.814L270.647,194.814L271.468,197.07L273.163,197.07L270.011,188.402L268.212,188.402Z" style="fill:rgb(161,40,21);fill-rule:nonzero;"/>
            <path d="M277.188,192.283L276.353,192.283L276.353,189.65L277.302,189.65C277.804,189.65 278.151,189.679 278.444,189.785C278.976,189.951 279.282,190.371 279.282,190.918C279.282,191.375 279.118,191.726 278.843,191.935C278.507,192.181 278.052,192.283 277.188,192.283ZM278.909,193.697C278.792,193.554 278.62,193.4 278.478,193.3C279.942,193.242 280.88,192.316 280.88,190.884C280.88,190.078 280.499,189.39 279.894,188.943C279.382,188.562 278.704,188.416 277.403,188.416L274.815,188.416L274.815,197.07L276.353,197.07L276.353,193.367C276.646,193.4 276.862,193.47 277.11,193.681C277.536,194.011 277.979,194.554 278.726,195.744C279.019,196.213 279.298,196.644 279.546,197.07L281.425,197.07C281.392,197.029 280.634,196.004 280.14,195.293C279.675,194.689 279.187,194.045 278.909,193.697Z" style="fill:rgb(161,40,21);fill-rule:nonzero;"/>
            <rect x="283.56" y="188.416" width="1.564" height="8.654" style="fill:rgb(161,40,21);fill-rule:nonzero;"/>
            <path d="M289.616,193.58C289.683,193.349 290.817,190.031 290.866,189.797C290.917,190.031 291.997,193.287 292.101,193.58L289.616,193.58ZM290.021,188.402L286.798,197.07L288.394,197.07L289.226,194.814L292.466,194.814L293.286,197.07L294.978,197.07L291.817,188.402L290.021,188.402Z" style="fill:rgb(161,40,21);fill-rule:nonzero;"/>
            <path d="M303.862,195.722C303.628,195.791 303.317,195.824 303.042,195.824L301.841,195.824L301.841,189.65L302.853,189.65C303.745,189.65 304.317,189.834 304.829,190.441C305.284,190.976 305.474,191.726 305.474,192.855C305.474,194.689 304.782,195.488 303.862,195.722ZM304.683,188.713C303.97,188.416 303.13,188.416 302.229,188.416L300.292,188.416L300.292,197.07L302.808,197.07C303.452,197.07 303.97,197.054 304.351,196.953C305.431,196.728 307.173,195.539 307.173,192.744C307.173,190.177 305.968,189.101 304.683,188.713Z" style="fill:rgb(161,40,21);fill-rule:nonzero;"/>
            <path d="M311.169,193.191L314.216,193.191L314.216,191.918L311.153,191.918L311.153,189.679L314.823,189.679L315.04,188.416L309.604,188.416L309.604,197.07L315.171,197.07L315.171,195.756L311.169,195.756L311.169,193.191Z" style="fill:rgb(161,40,21);fill-rule:nonzero;"/>
            <path d="M322.88,188.416L321.323,188.416L321.323,197.07L326.29,197.07L326.538,195.802L322.88,195.802L322.88,188.416Z" style="fill:rgb(161,40,21);fill-rule:nonzero;"/>
            <rect x="328.183" y="188.416" width="1.564" height="8.654" style="fill:rgb(161,40,21);fill-rule:nonzero;"/>
            <path d="M336.411,191.986L335.229,191.693C334.239,191.408 333.858,191.119 333.858,190.576C333.858,189.884 334.536,189.453 335.544,189.453C336.306,189.453 337.097,189.679 337.876,190.144L338.579,189.043C337.813,188.515 336.595,188.185 335.474,188.185C333.544,188.185 332.179,189.252 332.179,190.785C332.179,191.228 332.31,191.625 332.56,191.986C332.907,192.517 333.515,192.89 334.306,193.107L335.544,193.418C336.628,193.697 337.067,194.091 337.067,194.722C337.067,195.15 336.841,195.48 336.423,195.707C336.079,195.898 335.698,195.986 335.13,195.986C334.171,195.986 333.351,195.756 332.442,195.279L331.853,196.48C332.823,196.996 333.94,197.25 335.046,197.25C335.933,197.25 336.704,197.088 337.331,196.744C338.235,196.271 338.784,195.392 338.784,194.437C338.784,193.847 338.55,193.275 338.151,192.877C337.763,192.466 337.085,192.17 336.411,191.986Z" style="fill:rgb(161,40,21);fill-rule:nonzero;"/>
            <path d="M345.376,195.638C345.083,195.773 344.669,195.84 344.128,195.84L342.663,195.84L342.663,193.207L344.157,193.207C344.556,193.207 345.015,193.254 345.313,193.388C345.706,193.554 346.04,193.916 346.04,194.521C346.04,195.011 345.769,195.459 345.376,195.638ZM342.642,189.697L343.995,189.697C344.468,189.697 344.903,189.767 345.183,189.931C345.476,190.107 345.688,190.42 345.688,190.83C345.688,191.035 345.644,191.211 345.56,191.375C345.313,191.818 344.966,191.953 344.087,191.953L342.642,191.953L342.642,189.697ZM346.925,192.994C346.61,192.744 346.216,192.562 345.743,192.484C346.116,192.382 346.442,192.199 346.69,191.968C347.104,191.609 347.339,191.119 347.339,190.584C347.339,189.697 346.724,188.976 345.835,188.646C345.376,188.482 344.966,188.416 343.911,188.416L341.132,188.416L341.132,197.07L344.157,197.07C345.112,197.07 345.571,197.029 346.167,196.828C347.12,196.459 347.731,195.605 347.731,194.648C347.731,193.994 347.446,193.388 346.925,192.994Z" style="fill:rgb(161,40,21);fill-rule:nonzero;"/>
            <path d="M355.546,194.814C355.231,195.677 354.575,196.07 353.608,196.07C352.733,196.07 352.075,195.773 351.759,195.228C351.415,194.638 351.218,193.781 351.218,192.634C351.218,191.609 351.353,190.902 351.657,190.394C352.005,189.834 352.683,189.486 353.474,189.486C354.39,189.486 355.048,189.797 355.444,190.576C355.714,191.119 355.825,191.806 355.825,192.877C355.825,193.763 355.763,194.297 355.546,194.814ZM353.503,188.285C351.017,188.285 349.503,189.965 349.503,192.726C349.503,194.162 349.888,195.228 350.708,196.095C351.427,196.875 352.306,197.216 353.608,197.216C355.034,197.216 355.956,196.791 356.685,195.886C357.296,195.15 357.567,194.162 357.567,192.759C357.567,191.375 357.257,190.361 356.634,189.629C355.909,188.746 354.905,188.285 353.503,188.285Z" style="fill:rgb(161,40,21);fill-rule:nonzero;"/>
            <path d="M361.255,193.58C361.321,193.349 362.456,190.031 362.505,189.797C362.556,190.031 363.64,193.287 363.735,193.58L361.255,193.58ZM363.46,188.402L361.665,188.402L358.442,197.07L360.04,197.07L360.86,194.814L364.101,194.814L364.925,197.07L366.616,197.07L363.46,188.402Z" style="fill:rgb(161,40,21);fill-rule:nonzero;"/>
            <rect x="212.603" y="107.862" width="12.818" height="58.585" style="fill:rgb(161,40,21);fill-rule:nonzero;"/>
            <path d="M263.022,130.538L255.644,128.604C250.55,127.253 248.88,125.733 248.88,122.703C248.88,118.74 252.396,115.961 257.405,115.961C261.976,115.961 266.099,117.224 271.64,120.426L277.437,112.002C272.075,108.289 264.521,106.1 257.049,106.1C244.134,106.1 235.177,113.521 235.177,124.218C235.177,127.504 236.052,130.538 237.726,133.154C239.923,136.69 243.698,138.971 249.763,140.566L256.53,142.34C261.976,143.688 264.521,146.132 264.521,149.928C264.521,155.146 260.833,157.929 253.802,157.929C247.649,157.929 242.731,156.08 237.022,153.213L232.452,162.404C238.604,165.773 246.335,167.707 253.274,167.707C268.476,167.707 278.491,159.873 278.491,147.986C278.491,139.298 273.046,133.154 263.022,130.538Z" style="fill:rgb(161,40,21);fill-rule:nonzero;"/>
            <path d="M300.19,140.654L317.501,140.654L317.501,131.048L300.021,131.048L300.021,117.471L319.435,117.471L322.511,107.862L287.72,107.862L287.72,166.447L323.298,166.447L323.298,156.328L300.19,156.328L300.19,140.654Z" style="fill:rgb(161,40,21);fill-rule:nonzero;"/>
            <path d="M344.743,156.67L344.743,107.862L332.179,107.862L332.179,166.447L363.536,166.447L366.616,156.67L344.743,156.67Z" style="fill:rgb(161,40,21);fill-rule:nonzero;"/>
            <path d="M178.714,180.502C166.401,194.836 148.179,203.965 127.888,203.965C90.958,203.965 60.829,173.838 60.829,136.882C60.829,99.965 90.958,69.844 127.888,69.844C148.179,69.844 166.401,78.963 178.714,93.302L178.714,89.933C166.038,76.222 147.944,67.596 127.888,67.596C89.71,67.596 58.581,98.722 58.581,136.882C58.581,175.078 89.71,206.211 127.888,206.211C147.944,206.211 166.038,197.582 178.714,183.867L178.714,180.502Z" style="fill:rgb(161,40,21);fill-rule:nonzero;"/>
            <path d="M129.528,104.137L129.224,103.677L129.224,104.388C127.704,105.652 126.306,107.067 125.038,108.578L120.192,105.263L119.296,106.56L119.062,106.364L122.313,100.137L117.593,100.137L117.593,73.991C119.292,73.711 121.003,73.502 122.745,73.363L122.745,106.996L124.097,107.917L124.097,73.272C125.353,73.196 126.62,73.162 127.888,73.162C128.345,73.162 128.784,73.162 129.224,73.175L129.224,97.282L126.294,99.195L129.528,104.137ZM136.405,108.578C139.876,106.256 143.913,104.698 148.216,104.187L147.886,124.444C146.571,125.156 145.501,126.277 144.843,127.63L129.681,115.115C131.521,112.562 133.806,110.34 136.405,108.578ZM151.032,137.929L151.032,156.168C150.313,156.381 149.681,156.812 149.216,157.382C144.491,157.009 140.114,155.414 136.405,152.904C133.911,151.214 131.718,149.099 129.935,146.702L136.405,143.077L147.614,136.882C148.61,137.49 149.794,137.871 151.032,137.929ZM150.739,165.175C151.753,165.195 152.782,165.179 153.774,165.107L153.774,195.136C147.563,197.908 140.829,199.724 133.776,200.381C134.655,199.326 135.435,198.175 136.108,196.923C136.31,196.547 136.497,196.158 136.677,195.773L146.403,195.773C149.091,195.773 152.376,193.433 150.614,190.119L135.212,161.166C135.61,161.382 136.009,161.588 136.405,161.781C137.866,162.466 139.368,163.086 140.901,163.576L139.704,169.31L146.769,170.787L147.97,165.019C148.886,165.129 149.802,165.175 150.739,165.175ZM155.843,163.3L160.253,163.3L160.253,191.771C158.821,192.621 157.356,193.418 155.843,194.154L155.843,163.3ZM162.351,163.3L166.761,163.3L166.761,187.357C165.335,188.453 163.86,189.5 162.351,190.47L162.351,163.3ZM168.829,163.3L173.257,163.3L173.257,181.582C171.851,183.017 170.368,184.384 168.829,185.673L168.829,163.3ZM127.491,168.849L106.577,156.273L108.356,152.9L112.663,144.717L112.663,130.098C112.663,129.06 112.323,128.115 111.741,127.353L125.368,127.428C124.829,128.181 124.507,129.098 124.507,130.098L124.507,144.726L149.091,190.931C149.878,192.412 148.669,194.045 146.403,194.045L137.368,194.045C140.628,184.636 136.384,174.211 127.491,168.849ZM99.362,177.316C96.678,182.355 96.323,188.031 97.883,193.125C95.081,191.613 92.397,189.892 89.852,188.002L103.376,162.349L110.524,167.677C105.888,169.351 101.86,172.67 99.362,177.316ZM88.471,186.933C88.02,186.578 87.577,186.222 87.141,185.859L89.27,185.402L88.471,186.933ZM80.206,179.136L81.993,176.759L90.401,183.267L90.288,183.48L85.563,184.49C83.67,182.816 81.883,181.025 80.206,179.136ZM73.643,170.314L80.67,175.746L79.092,177.847C77.1,175.47 75.276,172.959 73.643,170.314ZM70.684,164.982L77.635,157.963L88.53,165.326L81.674,174.423L71.479,166.535C71.211,166.025 70.944,165.502 70.684,164.982ZM69.6,162.668L69.495,153.996L71.776,153.996L76.233,157.009L69.926,163.382C69.813,163.144 69.706,162.906 69.6,162.668ZM69.413,147.517L71.19,147.517L69.436,149.296L69.413,147.517ZM69.344,142.018L73.764,144.919L73.241,145.45L69.395,145.45L69.344,142.018ZM69.252,134.539L70.018,134.539L72.098,135.879L69.307,138.925L69.252,134.539ZM69.178,128.115L70.838,129.249L69.208,130.957L69.178,128.115ZM69.11,122.105L69.872,122.891L69.127,123.975L69.11,122.105ZM69.047,117.53L70.512,118.392L71.307,120.791L70.831,121.49L69.073,119.669L69.047,117.53ZM69.01,114.148L69.735,116.006L69.022,115.584L69.01,114.148ZM66.483,153.996L67.831,153.996L67.883,158.386C67.366,156.947 66.901,155.486 66.483,153.996ZM65.038,147.517L67.754,147.517L67.805,151.923L65.938,151.923C65.594,150.472 65.29,149.007 65.038,147.517ZM64.276,141.013L67.674,141.013L67.729,145.45L64.719,145.45C64.524,143.994 64.374,142.507 64.276,141.013ZM64.139,136.882C64.139,136.104 64.159,135.317 64.188,134.539L67.596,134.539L67.645,138.946L64.18,138.946C64.151,138.259 64.139,137.578 64.139,136.882ZM64.754,128.06L67.52,128.06L67.571,132.471L64.297,132.471C64.403,130.986 64.549,129.525 64.754,128.06ZM67.374,116.865L67.487,125.989L65.081,125.989C65.624,122.871 66.395,119.815 67.374,116.865ZM81.407,93.348L81.407,125.989L75.413,125.989L69.604,111.11C72.538,104.531 76.54,98.538 81.407,93.348ZM81.553,153.996L84.549,153.996L88.057,162.994L78.829,156.757L81.553,153.996ZM79.213,153.996L77.422,155.8L74.749,153.996L79.213,153.996ZM77.727,147.517L82.52,150.665L81.264,151.923L71.688,151.923L70.178,150.907L73.53,147.517L77.727,147.517ZM77.616,141.013L74.961,143.705L70.86,141.013L77.616,141.013ZM73.522,136.795L76.84,138.946L71.551,138.946L73.522,136.795ZM73.333,134.539L73.241,134.639L73.086,134.539L73.333,134.539ZM76.961,134.539L78.264,137.883L74.657,135.551L75.588,134.539L76.961,134.539ZM81.407,132.471L77.938,132.471L77.803,132.12L77.87,132.041L77.741,131.953L76.217,128.06L81.407,128.06L81.407,132.471ZM80.465,138.946L78.741,134.539L94.012,134.539L94.075,138.946L80.465,138.946ZM77.61,145.45L76.376,144.642L79.62,141.357L81.219,145.45L77.61,145.45ZM82.022,147.517L82.454,148.627L80.762,147.517L82.022,147.517ZM83.743,151.923L83.612,151.923L83.704,151.836L83.743,151.923ZM89.393,151.923L85.53,151.923L83.809,147.517L87.973,147.517L86.376,149.685L89.393,151.923ZM94.188,147.517L94.213,148.836L92.016,147.517L94.188,147.517ZM82.997,145.45L81.272,141.013L94.1,141.013L94.159,145.45L82.997,145.45ZM73.387,128.981L74.258,128.06L74.434,128.06L75.301,130.287L73.387,128.981ZM75.346,132.334L75.229,132.471L70.077,132.471L72.225,130.199L75.346,132.334ZM72.002,122.715L72.215,122.393L72.585,123.314L72.002,122.715ZM72.852,125.989L69.764,125.989L71.043,124.114L72.852,125.989ZM93.598,177.203L91.184,181.777L82.993,175.433L89.526,166.761L93.598,177.203ZM86.329,153.996L92.167,153.996L94.305,155.586L94.579,175.111L94.704,175.111L94.627,175.265L86.329,153.996ZM83.069,92.013C85.512,89.568 88.137,87.334 90.958,85.32L103.267,95.479L103.267,100.137L99.651,100.137L89.09,91.436L89.09,127.207L105.116,127.302L106.624,130.203L107.958,127.663C109.364,127.725 110.415,128.839 110.415,130.098L110.415,131.773L83.069,131.631L83.069,92.013ZM103.267,78.122L103.267,93.318L92.159,84.161C95.627,81.797 99.344,79.772 103.267,78.122ZM98.772,115.157L104.241,125.632L90.756,125.553L90.756,94.968L97.04,100.137L90.917,100.137L98.772,115.157ZM104.614,96.596L108.903,100.137L104.614,100.137L104.614,96.596ZM104.614,77.566C106.288,76.908 107.995,76.315 109.741,75.795L109.741,98.663L104.614,94.437L104.614,77.566ZM126.759,131.856L126.759,130.098C126.759,128.797 127.784,127.458 129.265,127.458L130.183,127.458L132.856,127.478L130.183,125.273L129.71,124.892L115.509,113.194L118.278,107.871L147.476,131.957L126.759,131.856ZM109.401,124.892L114.487,115.157L114.722,114.701L127.097,124.892L109.401,124.892ZM126.231,133.518L138.708,133.581L136.405,134.84L126.444,140.407C126.364,140.218 126.302,140.034 126.231,139.841L126.231,133.518ZM104.962,138.946L103.769,134.539L110.946,134.539L110.946,138.946L104.962,138.946ZM102.659,147.517L105.552,147.517L106.536,151.171L102.659,147.517ZM96.624,138.946L95.737,138.946L95.674,134.539L101.312,134.539L96.624,138.946ZM99.051,138.946L102.388,135.815L103.237,138.946L99.051,138.946ZM104.259,142.738L104.991,145.45L100.985,145.45L104.259,142.738ZM99.491,144.521L96.307,141.524L96.85,141.013L103.724,141.013L99.491,144.521ZM95.879,147.517L95.858,147.539L95.858,147.517L95.879,147.517ZM95.829,145.45L95.799,143.328L98.047,145.45L95.829,145.45ZM96.063,162.539L95.985,156.841L99.344,159.345L96.063,162.539ZM98.124,168.615L96.206,172.259L96.122,166.711L98.124,168.615ZM96.327,164.613L100.696,160.353L101.978,161.302L98.93,167.091L96.327,164.613ZM104.845,153.996L104.062,154.761L102.794,153.996L104.845,153.996ZM99.354,151.923L95.887,149.844L95.887,149.681L98.491,147.517L100.241,147.517L104.907,151.923L99.354,151.923ZM109.239,147.517L107.937,149.991L107.28,147.517L109.239,147.517ZM106.712,145.45L105.515,141.013L110.946,141.013L110.946,144.295L110.331,145.45L106.712,145.45ZM111.118,75.406C112.796,74.945 114.505,74.548 116.245,74.222L116.245,100.137L111.517,100.137L111.118,99.806L111.118,75.406ZM155.433,104.317C159.517,104.962 163.317,106.54 166.585,108.808C173.646,113.721 178.237,121.966 178.083,131.195C178.058,132.383 177.952,133.559 177.78,134.698L164.896,134.698L158.55,130.889L158.55,130.843C158.571,128.24 157.202,125.892 155.081,124.587L155.433,104.317ZM127.888,70.906C91.522,70.906 61.891,100.563 61.891,136.882C61.891,173.244 91.522,202.9 127.888,202.9C148.317,202.9 166.595,193.5 178.714,178.832L178.714,175.236C177.634,176.654 176.521,178.052 175.325,179.375L175.325,163.3L178.714,163.3L178.714,161.631L150.083,161.638L150.075,159.658C150.075,158.591 150.974,157.683 152.046,157.683L178.714,157.683L178.714,156.025L152.698,156.025L152.698,136.355L178.714,136.355L178.714,108.415L177.952,108.904C176.604,107.276 175.12,105.774 173.517,104.418L176.835,99.58L170.892,95.516L167.577,100.362C167.243,100.195 166.911,100.036 166.585,99.852C165.024,99.09 163.421,98.45 161.761,97.918L162.956,92.205L155.921,90.724L154.724,96.466C153.808,96.365 152.884,96.312 151.94,96.312C150.739,96.29 149.567,96.312 148.396,96.416L147.329,90.678L140.261,92L141.335,97.793C139.624,98.299 137.991,98.94 136.405,99.701L135.493,100.162L132.308,95.27L129.278,97.244L130.546,96.387L130.546,73.213C150.183,74.017 167.562,83.826 178.714,98.575L178.714,94.968C166.595,80.307 148.317,70.906 127.888,70.906Z" style="fill:rgb(161,40,21);fill-rule:nonzero;"/>
        </g>
    </g>
</svg>
