<svg xmlns="http://www.w3.org/2000/svg" xml:space="preserve" style="fill-rule:evenodd;clip-rule:evenodd;stroke-linejoin:round;stroke-miterlimit:2" viewBox="0 0 1284 771"><path d="M178.714 58.356h3.08v184.816h-3.08zm33.918 117.562h1.56v8.656h-1.56zm9.346 8.656h1.593v-8.656h-1.48l.049 4.052c.017 1.016.131 2.121.152 2.315-.123-.223-.527-1.123-1.039-2.006l-2.52-4.361h-1.744v8.656h1.532l-.067-4.152a40 40 0 0 0-.101-2.415c.066.166.644 1.385 1.15 2.239zm10.466-2.629c0-.598-.23-1.176-.631-1.564-.394-.411-1.068-.709-1.742-.893l-1.183-.297c-.989-.275-1.369-.578-1.369-1.117 0-.692.673-1.121 1.681-1.121.776 0 1.559.228 2.336.693l.707-1.099c-.773-.532-1.996-.86-3.109-.86-1.93 0-3.293 1.072-3.293 2.596 0 .447.129.842.381 1.205.347.523.953.908 1.736 1.117l1.242.315c1.08.281 1.529.681 1.529 1.296 0 .436-.226.766-.64.993-.348.197-.729.277-1.299.277-.957 0-1.781-.227-2.682-.703l-.599 1.201a7 7 0 0 0 3.193.773c.893 0 1.662-.167 2.291-.509.903-.483 1.451-1.354 1.451-2.303m7.944-6.027h-6.713v1.263h2.465v7.393h1.533v-7.393h2.506zm1.629 0h1.56v8.656h-1.56zm5.888 8.656h1.532v-7.393h2.498l.218-1.263h-6.713v1.263h2.465zm11.489-.678c.589-.537.773-1.017.773-2.402v-5.576h-1.568v5.511c0 .842-.08 1.139-.33 1.465-.264.348-.768.545-1.446.545-.836 0-1.461-.326-1.695-.891-.096-.23-.133-.691-.133-1.306v-5.324h-1.545v5.605c0 .979.08 1.338.344 1.836.432.754 1.352 1.365 3.014 1.365 1.197 0 2.004-.281 2.586-.828m6.544.678v-7.393h2.5l.217-1.263h-6.718v1.263h2.466v7.393zm9.317-2.256c-.309.861-.975 1.25-1.945 1.25-.872 0-1.532-.293-1.842-.84-.348-.59-.549-1.449-.549-2.599 0-1.018.139-1.725.449-2.239.342-.556 1.022-.904 1.813-.904.92 0 1.576.312 1.974 1.088.264.539.377 1.234.377 2.307 0 .89-.066 1.41-.277 1.937m1.135 1.074c.607-.74.886-1.728.886-3.129 0-1.386-.312-2.402-.945-3.131-.719-.882-1.725-1.351-3.121-1.351-2.482 0-3.998 1.685-3.998 4.453 0 1.43.381 2.494 1.201 3.369.725.77 1.596 1.121 2.897 1.121 1.431 0 2.355-.424 3.08-1.332m12.781-1.447c0-.598-.234-1.176-.623-1.564-.397-.411-1.07-.709-1.744-.893l-1.186-.297c-.992-.275-1.373-.578-1.373-1.117 0-.692.678-1.121 1.684-1.121.777 0 1.564.228 2.334.693l.703-1.099c-.766-.532-1.983-.86-3.106-.86-1.923 0-3.289 1.072-3.289 2.596 0 .447.125.842.381 1.205.344.523.951.908 1.736 1.117l1.241.315c1.088.281 1.527.681 1.527 1.296 0 .436-.23.766-.641.993-.339.197-.724.277-1.3.277-.952 0-1.772-.227-2.676-.703l-.594 1.201a6.96 6.96 0 0 0 3.193.773c.887 0 1.663-.167 2.286-.509.908-.483 1.447-1.354 1.447-2.303m7.291-.516c0 .842-.084 1.139-.334 1.465-.264.348-.779.545-1.449.545-.836 0-1.459-.326-1.69-.891-.105-.23-.131-.691-.131-1.306v-5.324h-1.552v5.605c0 .979.08 1.338.351 1.836.428.754 1.344 1.365 3.006 1.365 1.201 0 2.008-.281 2.59-.828.59-.537.766-1.017.766-2.402v-5.576h-1.557zm5.805-4.263h1.134c.707 0 1.184.084 1.528.363.297.248.468.596.468 1.084 0 .42-.113.758-.363 1.039-.273.279-.666.436-1.39.436h-1.377zm0 4.152h1.41c1.084 0 1.599-.131 2.222-.596.717-.429 1.186-1.183 1.186-2.201 0-.963-.49-1.744-1.332-2.193-.51-.293-.953-.41-2.506-.41h-2.516v8.656h1.536zm12.392 1.941h-3.996v-2.566h3.039v-1.264h-3.056v-2.248h3.671l.213-1.263h-5.433v8.656h5.562zm4.692-3.47h-.84v-2.631h.953c.494 0 .842.023 1.135.125.531.168.841.598.841 1.139 0 .455-.164.802-.449 1.015-.326.252-.785.352-1.64.352m4.228 4.785c-.029-.051-.787-1.065-1.289-1.779a70 70 0 0 0-1.23-1.594 2.1 2.1 0 0 0-.428-.399c1.465-.058 2.402-.988 2.402-2.414 0-.804-.381-1.504-.988-1.943-.51-.377-1.18-.527-2.49-.527h-2.582v8.656h1.537v-3.701c.293.029.506.097.748.314.435.326.879.875 1.615 2.055.299.478.582.908.826 1.332zm1.971-8.656h1.564v8.656h-1.564zm6.072 6.81c-.348-.59-.543-1.449-.543-2.599 0-1.018.129-1.725.447-2.239.334-.556 1.018-.904 1.809-.904.92 0 1.578.312 1.975 1.088.259.539.377 1.234.377 2.307 0 .89-.067 1.41-.282 1.937-.312.861-.974 1.25-1.941 1.25-.871 0-1.531-.293-1.842-.84m4.918.664c.615-.74.893-1.728.893-3.129 0-1.386-.315-2.402-.944-3.131-.722-.882-1.722-1.351-3.125-1.351-2.486 0-3.998 1.685-3.998 4.453 0 1.43.381 2.494 1.201 3.369.729.77 1.6 1.121 2.897 1.121 1.435 0 2.351-.424 3.076-1.332m4.701-6.234h.961c.49 0 .838.023 1.131.125.531.168.846.598.846 1.139 0 .455-.164.802-.444 1.015-.332.252-.8.352-1.65.352h-.844zm0 3.715c.297.029.514.097.762.314.434.326.873.875 1.615 2.055.293.478.576.908.82 1.332h1.875c-.029-.051-.787-1.065-1.281-1.779a79 79 0 0 0-1.238-1.594 1.9 1.9 0 0 0-.424-.399c1.465-.058 2.399-.988 2.399-2.414 0-.804-.377-1.504-.983-1.943-.512-.377-1.185-.527-2.486-.527h-2.582v8.656h1.523zm12.074-3.715h1.026c.89 0 1.469.176 1.978.791.461.539.641 1.275.641 2.414 0 1.824-.689 2.633-1.615 2.863-.231.067-.539.1-.817.1h-1.213zm2.524 7.307c1.07-.239 2.816-1.424 2.816-4.219 0-2.571-1.197-3.633-2.486-4.035-.707-.293-1.549-.293-2.453-.293h-1.942v8.656h2.52c.644 0 1.168-.018 1.545-.109m10.65-1.206h-3.996v-2.566h3.039v-1.264h-3.064v-2.248h3.679l.206-1.263h-5.43v8.656h5.566zm-152.33 9.932h3.043v-1.273h-3.051v-2.239h3.659l.216-1.263h-5.423v8.654h5.552v-1.314h-3.996zm11.631-.725c.022 1.018.135 2.124.15 2.319-.117-.231-.527-1.121-1.037-2.004l-2.515-4.365h-1.75v8.654h1.531l-.063-4.147a47 47 0 0 0-.099-2.419c.066.171.644 1.38 1.154 2.24l2.465 4.326h1.6v-8.654h-1.483zm7.731 1.139h1.736v2.168c-.334.168-.791.264-1.285.264-.576 0-1.155-.151-1.594-.41-.746-.452-1.121-1.348-1.121-2.78 0-.824.111-1.519.346-2.091.322-.805 1.084-1.235 2.189-1.235.871 0 1.432.264 2.072.69l.774-.971c-.875-.645-1.784-.942-2.862-.942-1.009 0-1.83.256-2.554.745-1.104.771-1.657 1.992-1.657 3.701 0 1.381.356 2.406 1.135 3.209.748.808 1.795 1.234 3.184 1.234 1.094 0 2.06-.234 2.918-.728v-4.114h-3.508zm7.345-.414h3.041v-1.273h-3.058v-2.239h3.666l.222-1.263H239.3v8.654h5.566v-1.314h-4zm11.625-.725c.022 1.018.139 2.124.156 2.319-.113-.231-.527-1.121-1.035-2.004l-2.527-4.365h-1.736v8.654h1.531l-.067-4.147a54 54 0 0 0-.101-2.419c.064.171.644 1.38 1.152 2.24l2.469 4.326h1.594v-8.654h-1.481zm9.317-.611h-3.457v-3.439h-1.543v8.654h1.543v-3.945h3.457v3.945h1.548v-8.654h-1.548zm5.99 1.725c.066-.231 1.201-3.549 1.252-3.783.053.234 1.137 3.49 1.238 3.783zm.414-5.178-3.227 8.668h1.598l.82-2.256h3.244l.821 2.256h1.695l-3.152-8.668zm8.976 3.881h-.835v-2.633h.949c.502 0 .849.029 1.142.135.532.166.838.586.838 1.133 0 .457-.164.808-.439 1.017-.336.246-.791.348-1.655.348m1.721 1.414a2.4 2.4 0 0 0-.431-.397c1.464-.058 2.402-.984 2.402-2.416 0-.806-.381-1.494-.986-1.941-.512-.381-1.19-.527-2.491-.527h-2.588v8.654h1.538v-3.703c.293.033.509.103.757.314.426.33.869.873 1.616 2.063.293.469.572.9.82 1.326h1.879a78 78 0 0 1-1.285-1.777c-.465-.604-.953-1.248-1.231-1.596m4.651-5.281h1.564v8.654h-1.564zm6.056 5.164c.067-.231 1.201-3.549 1.25-3.783.051.234 1.131 3.49 1.235 3.783zm.405-5.178-3.223 8.668h1.596l.832-2.256h3.24l.82 2.256h1.692l-3.161-8.668zm13.841 7.32a3 3 0 0 1-.82.102h-1.201v-6.174h1.012c.892 0 1.464.184 1.976.791.455.535.645 1.285.645 2.414 0 1.834-.692 2.633-1.612 2.867m.821-7.009c-.713-.297-1.553-.297-2.454-.297h-1.937v8.654h2.516c.644 0 1.162-.016 1.543-.117 1.08-.225 2.822-1.414 2.822-4.209 0-2.567-1.205-3.643-2.49-4.031m6.486 4.478h3.047v-1.273h-3.063v-2.239h3.67l.217-1.263h-5.436v8.654h5.567v-1.314h-4.002zm11.711-4.775h-1.557v8.654h4.967l.248-1.268h-3.658zm5.303 0h1.564v8.654h-1.564zm8.228 3.57-1.182-.293c-.99-.285-1.371-.574-1.371-1.117 0-.692.678-1.123 1.686-1.123.762 0 1.553.226 2.332.691l.703-1.101c-.766-.528-1.984-.858-3.105-.858-1.93 0-3.295 1.067-3.295 2.6 0 .443.131.84.381 1.201.347.531.955.904 1.746 1.121l1.238.311c1.084.279 1.523.673 1.523 1.304 0 .428-.226.758-.644.985-.344.191-.725.279-1.293.279-.959 0-1.779-.23-2.688-.707l-.589 1.201c.97.516 2.087.77 3.193.77.887 0 1.658-.162 2.285-.506.904-.473 1.453-1.352 1.453-2.307a2.22 2.22 0 0 0-.633-1.56c-.388-.411-1.066-.707-1.74-.891m8.965 3.652q-.438.202-1.248.202h-1.465v-2.633h1.494c.399 0 .858.047 1.156.181.393.166.727.528.727 1.133 0 .49-.271.938-.664 1.117m-2.734-5.941h1.353c.473 0 .908.07 1.188.234.293.176.505.489.505.899 0 .205-.044.381-.128.545-.247.443-.594.578-1.473.578h-1.445zm4.283 3.297a2.54 2.54 0 0 0-1.182-.51 2.3 2.3 0 0 0 .947-.516c.414-.359.649-.849.649-1.384 0-.887-.615-1.608-1.504-1.938-.459-.164-.869-.23-1.924-.23h-2.779v8.654h3.025c.955 0 1.414-.041 2.01-.242.953-.369 1.564-1.223 1.564-2.18 0-.654-.285-1.26-.806-1.654m8.621 1.82c-.315.863-.971 1.256-1.938 1.256-.875 0-1.533-.297-1.849-.842-.344-.59-.541-1.447-.541-2.594 0-1.025.135-1.732.439-2.24.348-.56 1.026-.908 1.817-.908.916 0 1.574.311 1.97 1.09.27.543.381 1.23.381 2.301 0 .886-.062 1.42-.279 1.937m-2.043-6.529c-2.486 0-4 1.68-4 4.441 0 1.436.385 2.502 1.205 3.369.719.78 1.598 1.121 2.9 1.121 1.426 0 2.348-.425 3.077-1.33.611-.736.882-1.724.882-3.127 0-1.384-.31-2.398-.933-3.13-.725-.883-1.729-1.344-3.131-1.344m7.752 5.295c.066-.231 1.201-3.549 1.25-3.783.051.234 1.135 3.49 1.23 3.783zm2.205-5.178h-1.795l-3.223 8.668h1.598l.82-2.256h3.241l.824 2.256h1.691zm-150.857-80.54h12.818v58.585h-12.818zm50.419 22.676-7.378-1.934c-5.094-1.351-6.764-2.871-6.764-5.901 0-3.963 3.516-6.742 8.525-6.742 4.571 0 8.694 1.263 14.235 4.465l5.797-8.424c-5.362-3.713-12.916-5.902-20.388-5.902-12.915 0-21.872 7.421-21.872 18.118 0 3.286.875 6.32 2.549 8.936 2.197 3.536 5.972 5.817 12.037 7.412l6.767 1.774c5.446 1.348 7.991 3.792 7.991 7.588 0 5.218-3.688 8.001-10.719 8.001-6.153 0-11.071-1.849-16.78-4.716l-4.57 9.191c6.152 3.369 13.883 5.303 20.822 5.303 15.202 0 25.217-7.834 25.217-19.721 0-8.688-5.445-14.832-15.469-17.448m37.168 10.116h17.311v-9.606h-17.48v-13.577h19.414l3.076-9.609H287.72v58.585h35.578v-10.119H300.19zm44.553 16.016v-48.808h-12.564v58.585h31.357l3.08-9.777zm-166.029 23.832c-12.313 14.334-30.535 23.463-50.826 23.463-36.93 0-67.059-30.127-67.059-67.083 0-36.917 30.129-67.038 67.059-67.038 20.291 0 38.513 9.119 50.826 23.458v-3.369c-12.676-13.711-30.77-22.337-50.826-22.337-38.178 0-69.307 31.126-69.307 69.286 0 38.196 31.129 69.329 69.307 69.329 20.056 0 38.15-8.629 50.826-22.344z" style="fill:#a12815;fill-rule:nonzero" transform="translate(-244.088 -243.15)scale(4.16667)"/><path d="m129.528 104.137-.304-.46v.711a33 33 0 0 0-4.186 4.19l-4.846-3.315-.896 1.297-.234-.196 3.251-6.227h-4.72V73.991a62 62 0 0 1 5.152-.628v33.633l1.352.921V73.272a63 63 0 0 1 3.791-.11c.457 0 .896 0 1.336.013v24.107l-2.93 1.913zm6.877 4.441c3.471-2.322 7.508-3.88 11.811-4.391l-.33 20.257a7.22 7.22 0 0 0-3.043 3.186l-15.162-12.515a27 27 0 0 1 6.724-6.537m14.627 29.351v18.239a3.7 3.7 0 0 0-1.816 1.214 26.53 26.53 0 0 1-12.811-4.478 26.9 26.9 0 0 1-6.47-6.202l6.47-3.625 11.209-6.195c.996.608 2.18.989 3.418 1.047m-.293 27.246c1.014.02 2.043.004 3.035-.068v30.029a63.5 63.5 0 0 1-19.998 5.245 20.7 20.7 0 0 0 2.332-3.458c.202-.376.389-.765.569-1.15h9.726c2.688 0 5.973-2.34 4.211-5.654l-15.402-28.953q.598.325 1.193.615c1.461.685 2.963 1.305 4.496 1.795l-1.197 5.734 7.065 1.477 1.201-5.768c.916.11 1.832.156 2.769.156m5.104-1.875h4.41v28.471a60 60 0 0 1-4.41 2.383zm6.508 0h4.41v24.057a64 64 0 0 1-4.41 3.113zm6.478 0h4.428v18.282a61 61 0 0 1-4.428 4.091zm-41.338 5.549-20.914-12.576 1.779-3.373 4.307-8.183v-14.619c0-1.038-.34-1.983-.922-2.745l13.627.075a4.56 4.56 0 0 0-.861 2.67v14.628l24.584 46.205c.787 1.481-.422 3.114-2.688 3.114h-9.035c3.26-9.409-.984-19.834-9.877-25.196m-28.129 8.467c-2.684 5.039-3.039 10.715-1.479 15.809a66 66 0 0 1-8.031-5.123l13.524-25.653 7.148 5.328a20.56 20.56 0 0 0-11.162 9.639m-10.891 9.617a62 62 0 0 1-1.33-1.074l2.129-.457zm-8.265-7.797 1.787-2.377 8.408 6.508-.113.213-4.725 1.01a63 63 0 0 1-5.357-5.354m-6.563-8.822 7.027 5.432-1.578 2.101a64.4 64.4 0 0 1-5.449-7.533m-2.959-5.332 6.951-7.019 10.895 7.363-6.856 9.097-10.195-7.888a87 87 0 0 1-.795-1.553m-1.084-2.314-.105-8.672h2.281l4.457 3.013-6.307 6.373a32 32 0 0 1-.326-.714m-.187-15.151h1.777l-1.754 1.779zm-.069-5.499 4.42 2.901-.523.531h-3.846zm-.092-7.479h.766l2.08 1.34-2.791 3.046zm-.074-6.424 1.66 1.134-1.63 1.708zm-.068-6.01.762.786-.745 1.084zm-.063-4.575 1.465.862.795 2.399-.476.699-1.758-1.821zm-.037-3.382.725 1.858-.713-.422zm-2.527 39.848h1.348l.052 4.39a65 65 0 0 1-1.4-4.39m-1.445-6.479h2.716l.051 4.406h-1.867a69 69 0 0 1-.9-4.406m-.762-6.504h3.398l.055 4.437h-3.01a66 66 0 0 1-.443-4.437m-.137-4.131c0-.778.02-1.565.049-2.343h3.408l.049 4.407H64.18a49 49 0 0 1-.041-2.064m.615-8.822h2.766l.051 4.411h-3.274c.106-1.485.252-2.946.457-4.411m2.62-11.195.113 9.124h-2.406a64 64 0 0 1 2.293-9.124m14.033-23.517v32.641h-5.994l-5.809-14.879a64.2 64.2 0 0 1 11.803-17.762m.146 60.648h2.996l3.508 8.998-9.228-6.237zm-2.34 0-1.791 1.804-2.673-1.804zm-1.486-6.479 4.793 3.148-1.256 1.258h-9.576l-1.51-1.016 3.352-3.39zm-.111-6.504-2.655 2.692-4.101-2.692zm-4.094-4.218 3.318 2.151h-5.289zm-.189-2.256-.092.1-.155-.1zm3.628 0 1.303 3.344-3.607-2.332.931-1.012zm4.446-2.068h-3.469l-.135-.351.067-.079-.129-.088-1.524-3.893h5.19zm-.942 6.475-1.724-4.407h15.271l.063 4.407zm-2.855 6.504-1.234-.808 3.244-3.285 1.599 4.093zm4.412 2.067.432 1.11-1.692-1.11zm1.721 4.406h-.131l.092-.087zm5.65 0H85.53l-1.721-4.406h4.164l-1.597 2.168zm4.795-4.406.025 1.319-2.197-1.319zm-11.191-2.067-1.725-4.437H94.1l.059 4.437zm-9.61-16.469.871-.921h.176l.867 2.227zm1.959 3.353-.117.137h-5.152l2.148-2.272zm-3.344-9.619.213-.322.37.921zm.85 3.274h-3.088l1.279-1.875zm20.746 51.214-2.414 4.574-8.191-6.344 6.533-8.672zm-7.269-23.207h5.838l2.138 1.59.274 19.525h.125l-.077.154zm-3.26-61.983a62.4 62.4 0 0 1 7.889-6.693l12.309 10.159v4.658h-3.616L89.09 91.436v35.771l16.026.095 1.508 2.901 1.334-2.54c1.406.062 2.457 1.176 2.457 2.435v1.675l-27.346-.142zm20.198-13.891v15.196l-11.108-9.157a63.3 63.3 0 0 1 11.108-6.039m-4.495 37.035 5.469 10.475-13.485-.079V94.968l6.284 5.169h-6.123zm5.842-18.561 4.289 3.541h-4.289zm0-19.03a64 64 0 0 1 5.127-1.771v22.868l-5.127-4.226zm22.145 54.29v-1.758c0-1.301 1.025-2.64 2.506-2.64h.918l2.673.02-2.673-2.205-.473-.381-14.201-11.698 2.769-5.323 29.198 24.086zm-17.358-6.964 5.086-9.735.235-.456 12.375 10.191zm16.83 8.626 12.477.063-2.303 1.259-9.961 5.567c-.08-.189-.142-.373-.213-.566zm-21.269 5.428-1.193-4.407h7.177v4.407zm-2.303 8.571h2.893l.984 3.654zm-6.035-8.571h-.887l-.063-4.407h5.638zm2.427 0 3.337-3.131.849 3.131zm5.208 3.792.732 2.712h-4.006zm-4.768 1.783-3.184-2.997.543-.511h6.874zm-3.612 2.996-.021.022v-.022zm-.05-2.067-.03-2.122 2.248 2.122zm.234 17.089-.078-5.698 3.359 2.504zm2.061 6.076-1.918 3.644-.084-5.548zm-1.797-4.002 4.369-4.26 1.282.949-3.048 5.789zm8.518-10.617-.783.765-1.268-.765zm-5.491-2.073-3.467-2.079v-.163l2.604-2.164h1.75l4.666 4.406zm9.885-4.406-1.302 2.474-.657-2.474zm-2.527-2.067-1.197-4.437h5.431v3.282l-.615 1.155zm4.406-70.044a64 64 0 0 1 5.127-1.184v25.915h-4.728l-.399-.331zm44.315 28.911a26.95 26.95 0 0 1 11.152 4.491c7.061 4.913 11.652 13.158 11.498 22.387a27 27 0 0 1-.303 3.503h-12.884l-6.346-3.809v-.046a7.28 7.28 0 0 0-3.469-6.256zm-27.545-33.411c-36.366 0-65.997 29.657-65.997 65.976 0 36.362 29.631 66.018 65.997 66.018 20.429 0 38.707-9.4 50.826-24.068v-3.596c-1.08 1.418-2.193 2.816-3.389 4.139V163.3h3.389v-1.669l-28.631.007-.008-1.98c0-1.067.899-1.975 1.971-1.975h26.668v-1.658h-26.016v-19.67h26.016v-27.94l-.762.489a35.7 35.7 0 0 0-4.435-4.486l3.318-4.838-5.943-4.064-3.315 4.846c-.334-.167-.666-.326-.992-.51a36 36 0 0 0-4.824-1.934l1.195-5.713-7.035-1.481-1.197 5.742a25 25 0 0 0-2.784-.154c-1.201-.022-2.373 0-3.544.104l-1.067-5.738L140.261 92l1.074 5.793a33 33 0 0 0-4.93 1.908l-.912.461-3.185-4.892-3.03 1.974 1.268-.857V73.213c19.637.804 37.016 10.613 48.168 25.362v-3.607c-12.119-14.661-30.397-24.062-50.826-24.062" style="fill:#a12815;fill-rule:nonzero" transform="translate(-244.088 -243.15)scale(4.16667)"/></svg>
