<svg xmlns="http://www.w3.org/2000/svg" xml:space="preserve" style="fill-rule:evenodd;clip-rule:evenodd;stroke-linejoin:round;stroke-miterlimit:2" viewBox="0 0 784 89"><path d="M0-5.511v-.008c-1.28 0-2.56.009-3.839-.006-.402-.004-.56.1-.557.444q.022 2.39.001 4.781c-.003.342.167.449.564.446 2.497-.014 4.996.04 7.489-.041C5.222.054 5.97-.148 6.196-1.77A6 6 0 0 0 6-4.347c-.235-.777-.879-1.059-2.351-1.149C2.439-5.57 1.217-5.511 0-5.511m-.716 8.04c-2.437 0-4.875-.008-7.312.007-.454.003-.624-.09-.622-.491.018-3.21.012-6.419.009-9.628-.001-.26-.014-.467.44-.465 4.581.023 9.161.008 13.741.061 1.094.013 2.21.128 3.203.631.875.445 1.333 1.116 1.498 1.896.392 1.854.476 3.724.03 5.581-.32 1.334-1.86 2.346-3.612 2.369-2.458.031-4.916.007-7.375.007z" style="fill:#224188;fill-rule:nonzero" transform="translate(213.747 67.302)scale(8.33333)"/><path d="M0 10.547c-1.45 0-2.9.01-4.35-.004-.863-.008-1.713-.113-2.52-.382C-8 9.784-8.767 8.393-8.383 7.449c.078-.194.25-.208.447-.208 1.093 0 2.186.005 3.278-.003.279-.002.391.082.475.307.242.657.551.852 1.362.855q3.246.015 6.493-.002c.752-.004 1.402-.342 1.529-.741.209-.659-.359-1.195-1.35-1.212-1.869-.033-3.74-.055-5.61-.043a40 40 0 0 1-3.962-.164c-1.13-.104-2.397-.663-2.623-1.954-.139-.795-.124-1.562.12-2.316.286-.885 1.095-1.361 2.14-1.57a20 20 0 0 1 3.992-.38C.617.024 3.332-.108 6.03.196 7.119.318 8.11.6 8.603 1.536c.24.454.1.922.139 1.383.017.198-.166.21-.345.21-1.114 0-2.227-.003-3.341.003-.198.001-.309-.066-.381-.213-.269-.545-.868-.73-1.475-.737-2.099-.026-4.203-.115-6.294.129-.809.095-1.172.38-1.155.878.016.482.581.889 1.313.911.693.021 1.387.014 2.081.014 1.87.002 3.741.008 5.611-.003.869-.004 1.72.117 2.563.245 1.04.158 1.593.812 1.839 1.595.32 1.019.287 2.04-.156 3.057-.44 1.008-1.453 1.196-2.525 1.346-2.147.301-4.316.198-6.477.193" style="fill:#224188;fill-rule:nonzero" transform="translate(705.4 .177)scale(8.33333)"/><path d="M0 10.575c-2.416 0-4.833-.011-7.249.008-.548.004-.744-.074-.738-.597.036-3.157.021-6.314-.01-9.471-.004-.428.153-.525.638-.524Q-.047.011 7.265-.01c.535-.002.703.136.66.564a6 6 0 0 0 0 1.248c.044.427-.168.531-.65.529-3.404-.013-6.808-.007-10.212-.007-.875.001-.882.001-.874.71.016 1.444-.233 1.25 1.552 1.255 2.962.008 5.925.013 8.887-.007.507-.004.667.12.62.525-.04.344-.038.695-.001 1.04.045.417-.154.53-.645.528-3.152-.016-6.304-.008-9.456-.008-.958 0-.96 0-.958.807.004 1.245-.183 1.182 1.418 1.181 3.236-.003 6.472.007 9.707-.009.509-.003.732.099.682.548a6 6 0 0 0-.001 1.196c.039.403-.165.495-.619.492-2.458-.015-4.917-.007-7.375-.007" style="fill:#224188;fill-rule:nonzero" transform="translate(384.855 .252)scale(8.33333)"/><path d="M0 10.385c-1.492 0-2.983.014-4.475-.005a7.5 7.5 0 0 1-2.84-.575c-1.014-.432-1.578-1.15-1.7-2.052-.34-2.524-.117-5.06-.181-7.591-.006-.227.118-.313.373-.313q1.765 0 3.53-.002c.437 0 .358.265.358.481.002 1.405-.002 2.81.001 4.215.002.693.013 1.386.106 2.077.092.678.591 1.04 1.326 1.234.627.165 1.275.204 1.93.191 1.614-.034 3.234.097 4.84-.149 1.12-.172 1.642-.641 1.649-1.596.015-1.96.026-3.921-.004-5.88-.007-.46.144-.603.7-.584 1.028.034 2.059.023 3.088.004.393-.007.502.108.499.42-.024 2.289-.005 4.579-.049 6.868-.032 1.631-1.25 2.722-3.187 3.077-1.981.363-3.978.128-5.964.18" style="fill:#224188;fill-rule:nonzero" transform="translate(542.373 1.527)scale(8.33333)"/><path d="M0-2.635c-.035 1.16.003 2.476-.104 3.794-.111 1.38-1.38 2.267-2.646 2.607-.732.196-1.476.238-2.232.236-1.953-.008-3.907-.025-5.861-.03-.814-.002-1.571-.196-2.294-.47-1.058-.402-1.516-1.166-1.638-2.07-.069-.515-.01-1.04-.03-1.56-.011-.29.124-.397.479-.393a144 144 0 0 0 3.151.001c.323-.003.471.097.457.362-.004.069.002.139.007.208.085 1.078.473 1.53 2.05 1.541 1.123.007 2.263.16 3.374-.152.57-.159.86-.457.89-.946.134-2.149.053-4.3.043-6.45-.003-.548.199-.682.821-.658.985.039 1.975.02 2.962.007.428-.006.588.118.58.486C-.016-5.012 0-3.902 0-2.635" style="fill:#0d71b8;fill-rule:nonzero" transform="translate(123.413 55.144)scale(8.33333)"/></svg>
