<?xml version="1.0" encoding="UTF-8" standalone="no"?>
<!DOCTYPE svg PUBLIC "-//W3C//DTD SVG 1.1//EN" "http://www.w3.org/Graphics/SVG/1.1/DTD/svg11.dtd">
<svg width="100%" height="100%" viewBox="0 0 784 89" version="1.1" xmlns="http://www.w3.org/2000/svg" xmlns:xlink="http://www.w3.org/1999/xlink" xml:space="preserve" xmlns:serif="http://www.serif.com/" style="fill-rule:evenodd;clip-rule:evenodd;stroke-linejoin:round;stroke-miterlimit:2;">
    <g transform="matrix(1,0,0,1,-117.866,-4802.11)">
        <g transform="matrix(8.33333,0,0,8.33333,0,-162.136)">
            <g transform="matrix(1,0,0,1,39.7936,603.786)">
                <path d="M0,-5.511L0,-5.519C-1.28,-5.519 -2.56,-5.51 -3.839,-5.525C-4.241,-5.529 -4.399,-5.425 -4.396,-5.081C-4.381,-3.488 -4.382,-1.894 -4.395,-0.3C-4.398,0.042 -4.228,0.149 -3.831,0.146C-1.334,0.132 1.165,0.186 3.658,0.105C5.222,0.054 5.97,-0.148 6.196,-1.77C6.317,-2.644 6.253,-3.51 6,-4.347C5.765,-5.124 5.121,-5.406 3.649,-5.496C2.439,-5.57 1.217,-5.511 0,-5.511M-0.716,2.529C-3.153,2.529 -5.591,2.521 -8.028,2.536C-8.482,2.539 -8.652,2.446 -8.65,2.045C-8.632,-1.165 -8.638,-4.374 -8.641,-7.583C-8.642,-7.843 -8.655,-8.05 -8.201,-8.048C-3.62,-8.025 0.96,-8.04 5.54,-7.987C6.634,-7.974 7.75,-7.859 8.743,-7.356C9.618,-6.911 10.076,-6.24 10.241,-5.46C10.633,-3.606 10.717,-1.736 10.271,0.121C9.951,1.455 8.411,2.467 6.659,2.49C4.201,2.521 1.743,2.497 -0.716,2.497L-0.716,2.529" style="fill:rgb(34,65,136);fill-rule:nonzero;"/>
            </g>
        </g>
        <g transform="matrix(8.33333,0,0,8.33333,0,-162.136)">
            <g transform="matrix(1,0,0,1,98.7919,595.731)">
                <path d="M0,10.547C-1.45,10.547 -2.9,10.557 -4.35,10.543C-5.213,10.535 -6.063,10.43 -6.87,10.161C-8,9.784 -8.767,8.393 -8.383,7.449C-8.305,7.255 -8.133,7.241 -7.936,7.241C-6.843,7.241 -5.75,7.246 -4.658,7.238C-4.379,7.236 -4.267,7.32 -4.183,7.545C-3.941,8.202 -3.632,8.397 -2.821,8.4C-0.657,8.41 1.507,8.409 3.672,8.398C4.424,8.394 5.074,8.056 5.201,7.657C5.41,6.998 4.842,6.462 3.851,6.445C1.982,6.412 0.111,6.39 -1.759,6.402C-3.085,6.41 -4.406,6.36 -5.721,6.238C-6.851,6.134 -8.118,5.575 -8.344,4.284C-8.483,3.489 -8.468,2.722 -8.224,1.968C-7.938,1.083 -7.129,0.607 -6.084,0.398C-4.773,0.136 -3.437,0.015 -2.092,0.018C0.617,0.024 3.332,-0.108 6.03,0.196C7.119,0.318 8.11,0.6 8.603,1.536C8.843,1.99 8.703,2.458 8.742,2.919C8.759,3.117 8.576,3.129 8.397,3.129C7.283,3.129 6.17,3.126 5.056,3.132C4.858,3.133 4.747,3.066 4.675,2.919C4.406,2.374 3.807,2.189 3.2,2.182C1.101,2.156 -1.003,2.067 -3.094,2.311C-3.903,2.406 -4.266,2.691 -4.249,3.189C-4.233,3.671 -3.668,4.078 -2.936,4.1C-2.243,4.121 -1.549,4.114 -0.855,4.114C1.015,4.116 2.886,4.122 4.756,4.111C5.625,4.107 6.476,4.228 7.319,4.356C8.359,4.514 8.912,5.168 9.158,5.951C9.478,6.97 9.445,7.991 9.002,9.008C8.562,10.016 7.549,10.204 6.477,10.354C4.33,10.655 2.161,10.552 0,10.547" style="fill:rgb(34,65,136);fill-rule:nonzero;"/>
            </g>
        </g>
        <g transform="matrix(8.33333,0,0,8.33333,0,-162.136)">
            <g transform="matrix(1,0,0,1,60.3266,595.74)">
                <path d="M0,10.575C-2.416,10.575 -4.833,10.564 -7.249,10.583C-7.797,10.587 -7.993,10.509 -7.987,9.986C-7.951,6.829 -7.966,3.672 -7.997,0.515C-8.001,0.087 -7.844,-0.01 -7.359,-0.009C-2.484,0.003 2.39,0.005 7.265,-0.01C7.8,-0.012 7.968,0.126 7.925,0.554C7.883,0.968 7.882,1.388 7.925,1.802C7.969,2.229 7.757,2.333 7.275,2.331C3.871,2.318 0.467,2.324 -2.937,2.324C-3.812,2.325 -3.819,2.325 -3.811,3.034C-3.795,4.478 -4.044,4.284 -2.259,4.289C0.703,4.297 3.666,4.302 6.628,4.282C7.135,4.278 7.295,4.402 7.248,4.807C7.208,5.151 7.21,5.502 7.247,5.847C7.292,6.264 7.093,6.377 6.602,6.375C3.45,6.359 0.298,6.367 -2.854,6.367C-3.812,6.367 -3.814,6.367 -3.812,7.174C-3.808,8.419 -3.995,8.356 -2.394,8.355C0.842,8.352 4.078,8.362 7.313,8.346C7.822,8.343 8.045,8.445 7.995,8.894C7.952,9.29 7.957,9.693 7.994,10.09C8.033,10.493 7.829,10.585 7.375,10.582C4.917,10.567 2.458,10.575 0,10.575" style="fill:rgb(34,65,136);fill-rule:nonzero;"/>
            </g>
        </g>
        <g transform="matrix(8.33333,0,0,8.33333,0,-162.136)">
            <g transform="matrix(1,0,0,1,79.2287,595.893)">
                <path d="M0,10.385C-1.492,10.385 -2.983,10.399 -4.475,10.38C-5.468,10.367 -6.424,10.184 -7.315,9.805C-8.329,9.373 -8.893,8.655 -9.015,7.753C-9.355,5.229 -9.132,2.693 -9.196,0.162C-9.202,-0.065 -9.078,-0.151 -8.823,-0.151C-7.646,-0.151 -6.47,-0.151 -5.293,-0.153C-4.856,-0.153 -4.935,0.112 -4.935,0.328C-4.933,1.733 -4.937,3.138 -4.934,4.543C-4.932,5.236 -4.921,5.929 -4.828,6.62C-4.736,7.298 -4.237,7.66 -3.502,7.854C-2.875,8.019 -2.227,8.058 -1.572,8.045C0.042,8.011 1.662,8.142 3.268,7.896C4.388,7.724 4.91,7.255 4.917,6.3C4.932,4.34 4.943,2.379 4.913,0.42C4.906,-0.04 5.057,-0.183 5.613,-0.164C6.641,-0.13 7.672,-0.141 8.701,-0.16C9.094,-0.167 9.203,-0.052 9.2,0.26C9.176,2.549 9.195,4.839 9.151,7.128C9.119,8.759 7.901,9.85 5.964,10.205C3.983,10.568 1.986,10.333 0,10.385" style="fill:rgb(34,65,136);fill-rule:nonzero;"/>
            </g>
        </g>
        <g transform="matrix(8.33333,0,0,8.33333,0,-162.136)">
            <g transform="matrix(1,0,0,1,28.9535,602.327)">
                <path d="M0,-2.635C-0.035,-1.475 0.003,-0.159 -0.104,1.159C-0.215,2.539 -1.484,3.426 -2.75,3.766C-3.482,3.962 -4.226,4.004 -4.982,4.002C-6.935,3.994 -8.889,3.977 -10.843,3.972C-11.657,3.97 -12.414,3.776 -13.137,3.502C-14.195,3.1 -14.653,2.336 -14.775,1.432C-14.844,0.917 -14.785,0.392 -14.805,-0.128C-14.816,-0.418 -14.681,-0.525 -14.326,-0.521C-13.276,-0.508 -12.225,-0.51 -11.175,-0.52C-10.852,-0.523 -10.704,-0.423 -10.718,-0.158C-10.722,-0.089 -10.716,-0.019 -10.711,0.05C-10.626,1.128 -10.238,1.58 -8.661,1.591C-7.538,1.598 -6.398,1.751 -5.287,1.439C-4.717,1.28 -4.427,0.982 -4.397,0.493C-4.263,-1.656 -4.344,-3.807 -4.354,-5.957C-4.357,-6.505 -4.155,-6.639 -3.533,-6.615C-2.548,-6.576 -1.558,-6.595 -0.571,-6.608C-0.143,-6.614 0.017,-6.49 0.009,-6.122C-0.016,-5.012 0,-3.902 0,-2.635" style="fill:rgb(13,113,184);fill-rule:nonzero;"/>
            </g>
        </g>
    </g>
</svg>
