<?xml version="1.0" encoding="UTF-8" standalone="no"?>
<svg
   xmlns:dc="http://purl.org/dc/elements/1.1/"
   xmlns:cc="http://creativecommons.org/ns#"
   xmlns:rdf="http://www.w3.org/1999/02/22-rdf-syntax-ns#"
   xmlns:svg="http://www.w3.org/2000/svg"
   xmlns="http://www.w3.org/2000/svg"
   xmlns:sodipodi="http://sodipodi.sourceforge.net/DTD/sodipodi-0.dtd"
   xmlns:inkscape="http://www.inkscape.org/namespaces/inkscape"
   version="1.1"
   id="svg2"
   xml:space="preserve"
   width="1322.8333"
   height="566.92932"
   viewBox="0 0 1322.8333 566.92932"
   sodipodi:docname="Juncor-Logotipo_Vectorizado.ai"><metadata
     id="metadata8"><rdf:RDF><cc:Work
         rdf:about=""><dc:format>image/svg+xml</dc:format><dc:type
           rdf:resource="http://purl.org/dc/dcmitype/StillImage" /></cc:Work></rdf:RDF></metadata><defs
     id="defs6"><clipPath
       clipPathUnits="userSpaceOnUse"
       id="clipPath18"><path
         d="M 0,425.197 H 992.125 V 0 H 0 Z"
         id="path16" /></clipPath><clipPath
       clipPathUnits="userSpaceOnUse"
       id="clipPath34"><path
         d="M 0,425.197 H 992.125 V 0 H 0 Z"
         id="path32" /></clipPath></defs><sodipodi:namedview
     pagecolor="#ffffff"
     bordercolor="#666666"
     borderopacity="1"
     objecttolerance="10"
     gridtolerance="10"
     guidetolerance="10"
     inkscape:pageopacity="0"
     inkscape:pageshadow="2"
     inkscape:window-width="640"
     inkscape:window-height="480"
     id="namedview4" /><g
     id="g10"
     inkscape:groupmode="layer"
     inkscape:label="Juncor-Logotipo_Vectorizado"
     transform="matrix(1.3333333,0,0,-1.3333333,0,566.92933)"><g
       id="g12"><g
         id="g14"
         clip-path="url(#clipPath18)"><g
           id="g20"
           transform="translate(590.1787,258.3604)"><path
             d="m 0,0 c 2.849,42.96 35.784,42.674 53.521,41.387 6.703,-0.487 7.536,-0.719 12.335,-1.68 v -21.18 c -4.08,1.68 -14.422,2.624 -18.25,2.33 C 36.067,19.97 22.816,14.756 22.635,-8.131 22.588,-14.033 22.561,-19.403 22.561,-28.215 V -83.896 H 0 Z"
             style="fill:#189f82;fill-opacity:1;fill-rule:nonzero;stroke:none"
             id="path22" /></g></g></g><text
       transform="matrix(1,0,0,-1,16.062,118.3867)"
       style="font-style:italic;font-variant:normal;font-weight:normal;font-stretch:normal;font-size:44.8262px;font-family:Calibri;-inkscape-font-specification:Calibri-Italic;writing-mode:lr-tb;fill:#100d10;fill-opacity:1;fill-rule:nonzero;stroke:none"
       id="text26"><tspan
         x="0 23.040667 41.419411 62.846333 80.283722 97.721115 120.71696 136.09235 146.35754 169.35338 186.79077 196.92149 207.18669 230.22736 253.26804 276.30869 293.25299 308.26978 323.64517 333.91037 356.95102 367.21622 384.65363 394.78433 416.16644 426.29715 449.33783 472.37851 487.75388 498.01907 516.30817 539.30402 549.56921 572.60986 590.04724 601.20898 611.33972 631.37701"
         y="0"
         sodipodi:role="line"
         id="tspan24">acessórios industriais e agrícolas, SA</tspan></text><g
       id="g28"><g
         id="g30"
         clip-path="url(#clipPath34)"><g
           id="g36"
           transform="translate(16.0625,195.1055)"><path
             d="m 0,0 c 5.28,-1.921 10.561,-2.4 15.12,-2.4 21.601,0 27.36,12.24 27.36,32.641 v 71.522 H 66.481 V 22.561 c 0,-23.521 -10.8,-46.082 -47.041,-46.082 -7.68,0 -14.4,0.96 -19.44,2.88 z"
             style="fill:#189f82;fill-opacity:1;fill-rule:nonzero;stroke:none"
             id="path38" /></g><g
           id="g40"
           transform="translate(207.873,174.4648)"><path
             d="M 0,0 H -21.841 V 19.44 H -22.32 C -29.041,5.521 -45.361,-2.88 -62.401,-2.88 c -31.681,0 -45.841,19.68 -45.841,52.561 v 72.722 h 22.559 V 59.042 c 0,-28.562 6.241,-42.481 25.921,-43.682 25.681,0 37.201,20.641 37.201,50.402 v 56.641 H 0 Z"
             style="fill:#189f82;fill-opacity:1;fill-rule:nonzero;stroke:none"
             id="path42" /></g><g
           id="g44"
           transform="translate(228.0615,296.8682)"><path
             d="m 0,0 h 21.84 v -19.441 h 0.48 c 6.72,13.92 23.04,22.32 40.081,22.32 31.681,0 45.841,-19.68 45.841,-52.561 v -72.721 h -22.56 v 63.361 c 0,28.561 -6.241,42.481 -25.921,43.681 -25.681,0 -37.201,-20.641 -37.201,-50.401 v -56.641 H 0 Z"
             style="fill:#189f82;fill-opacity:1;fill-rule:nonzero;stroke:none"
             id="path46" /></g><g
           id="g48"
           transform="translate(436.2031,276.2275)"><path
             d="m 0,0 c -8.64,3.6 -17.28,5.279 -24.48,5.279 -25.201,0 -39.361,-22.56 -39.361,-45.841 0,-21.84 11.76,-45.84 40.801,-45.84 7.681,0 17.28,2.4 24.24,6.96 l 1.68,-20.161 c -9.36,-4.32 -20.16,-5.04 -28.32,-5.04 -36.961,0 -62.402,29.041 -62.402,64.081 0,37.202 24.961,64.082 62.402,64.082 9.12,0 20.88,-2.16 27.36,-4.799 z"
             style="fill:#189f82;fill-opacity:1;fill-rule:nonzero;stroke:none"
             id="path50" /></g><g
           id="g52"
           transform="translate(511.4365,189.8252)"><path
             d="m 0,0 c 26.401,0 38.161,24 38.161,45.841 0,23.28 -14.16,45.841 -38.161,45.841 -24.24,0 -38.4,-22.561 -38.4,-45.841 C -38.4,24 -26.641,0 0,0 m 0,109.922 c 37.201,0 62.162,-26.88 62.162,-64.081 0,-35.04 -25.441,-64.081 -62.162,-64.081 -36.961,0 -62.401,29.041 -62.401,64.081 0,37.201 24.961,64.081 62.401,64.081"
             style="fill:#189f82;fill-opacity:1;fill-rule:nonzero;stroke:none"
             id="path54" /></g><g
           id="g56"
           transform="translate(976.0625,296.6797)"><path
             d="m 0,0 c -64.253,2.171 -115.885,54.114 -117.542,118.496 h -55.002 C -170.862,23.738 -94.632,-52.828 0,-55.027 Z"
             style="fill:#100d10;fill-opacity:1;fill-rule:nonzero;stroke:none"
             id="path58" /></g><g
           id="g60"
           transform="translate(862.1055,127.5078)"><path
             d="M 0,0 C 0,-32.087 -12.517,-61.247 -32.929,-82.874 L 0.567,-117.486 C 30.012,-87.088 48.141,-45.665 48.141,0 c 0,92.438 -74.251,167.52 -166.367,168.885 V 120.743 C -52.699,119.386 0,65.85 0,0"
             style="fill:#189f82;fill-opacity:1;fill-rule:nonzero;stroke:none"
             id="path62" /></g></g></g></g></svg>
