<svg xmlns="http://www.w3.org/2000/svg" xml:space="preserve" width="1322.833" height="566.929"><defs><clipPath id="a" clipPathUnits="userSpaceOnUse"><path d="M0 425.197h992.125V0H0Z"/></clipPath><clipPath id="b" clipPathUnits="userSpaceOnUse"><path d="M0 425.197h992.125V0H0Z"/></clipPath></defs><g clip-path="url(#a)" transform="matrix(1.33333 0 0 -1.33333 0 566.93)"><path d="M0 0c2.849 42.96 35.784 42.674 53.521 41.387 6.703-.487 7.536-.719 12.335-1.68v-21.18c-4.08 1.68-14.422 2.624-18.25 2.33-11.539-.887-24.79-6.101-24.971-28.988-.047-5.902-.074-11.272-.074-20.084v-55.681H0Z" style="fill:#189f82;fill-opacity:1;fill-rule:nonzero;stroke:none" transform="translate(590.179 258.36)"/></g><text style="font-style:italic;font-variant:normal;font-weight:400;font-stretch:normal;font-size:44.8262px;font-family:Calibri;-inkscape-font-specification:Calibri-Italic;writing-mode:lr-tb;fill:#100d10;fill-opacity:1;fill-rule:nonzero;stroke:none" transform="matrix(1.33333 0 0 1.33333 21.416 409.08)"><tspan x="0 23.040667 41.419411 62.846333 80.283722 97.721115 120.71696 136.09235 146.35754 169.35338 186.79077 196.92149 207.18669 230.22736 253.26804 276.30869 293.25299 308.26978 323.64517 333.91037 356.95102 367.21622 384.65363 394.78433 416.16644 426.29715 449.33783 472.37851 487.75388 498.01907 516.30817 539.30402 549.56921 572.60986 590.04724 601.20898 611.33972 631.37701" y="0">acessórios industriais e agrícolas, SA</tspan></text><g clip-path="url(#b)" transform="matrix(1.33333 0 0 -1.33333 0 566.93)"><path d="M0 0c5.28-1.921 10.561-2.4 15.12-2.4 21.601 0 27.36 12.24 27.36 32.641v71.522h24.001V22.561c0-23.521-10.8-46.082-47.041-46.082-7.68 0-14.4.96-19.44 2.88z" style="fill:#189f82;fill-opacity:1;fill-rule:nonzero;stroke:none" transform="translate(16.063 195.106)"/><path d="M0 0h-21.841v19.44h-.479C-29.041 5.521-45.361-2.88-62.401-2.88c-31.681 0-45.841 19.68-45.841 52.561v72.722h22.559V59.042c0-28.562 6.241-42.481 25.921-43.682 25.681 0 37.201 20.641 37.201 50.402v56.641H0Z" style="fill:#189f82;fill-opacity:1;fill-rule:nonzero;stroke:none" transform="translate(207.873 174.465)"/><path d="M0 0h21.84v-19.441h.48c6.72 13.92 23.04 22.32 40.081 22.32 31.681 0 45.841-19.68 45.841-52.561v-72.721h-22.56v63.361c0 28.561-6.241 42.481-25.921 43.681-25.681 0-37.201-20.641-37.201-50.401v-56.641H0Z" style="fill:#189f82;fill-opacity:1;fill-rule:nonzero;stroke:none" transform="translate(228.061 296.868)"/><path d="M0 0c-8.64 3.6-17.28 5.279-24.48 5.279-25.201 0-39.361-22.56-39.361-45.841 0-21.84 11.76-45.84 40.801-45.84 7.681 0 17.28 2.4 24.24 6.96l1.68-20.161c-9.36-4.32-20.16-5.04-28.32-5.04-36.961 0-62.402 29.041-62.402 64.081 0 37.202 24.961 64.082 62.402 64.082 9.12 0 20.88-2.16 27.36-4.799z" style="fill:#189f82;fill-opacity:1;fill-rule:nonzero;stroke:none" transform="translate(436.203 276.228)"/><path d="M0 0c26.401 0 38.161 24 38.161 45.841 0 23.28-14.16 45.841-38.161 45.841-24.24 0-38.4-22.561-38.4-45.841C-38.4 24-26.641 0 0 0m0 109.922c37.201 0 62.162-26.88 62.162-64.081C62.162 10.801 36.721-18.24 0-18.24c-36.961 0-62.401 29.041-62.401 64.081 0 37.201 24.961 64.081 62.401 64.081" style="fill:#189f82;fill-opacity:1;fill-rule:nonzero;stroke:none" transform="translate(511.437 189.825)"/><path d="M0 0c-64.253 2.171-115.885 54.114-117.542 118.496h-55.002C-170.862 23.738-94.632-52.828 0-55.027Z" style="fill:#100d10;fill-opacity:1;fill-rule:nonzero;stroke:none" transform="translate(976.063 296.68)"/><path d="M0 0c0-32.087-12.517-61.247-32.929-82.874L.567-117.486C30.012-87.088 48.141-45.665 48.141 0c0 92.438-74.251 167.52-166.367 168.885v-48.142C-52.699 119.386 0 65.85 0 0" style="fill:#189f82;fill-opacity:1;fill-rule:nonzero;stroke:none" transform="translate(862.106 127.508)"/></g></svg>