<?xml version="1.0" encoding="UTF-8"?>
<svg id="Layer_1" data-name="Layer 1" xmlns="http://www.w3.org/2000/svg" version="1.1" viewBox="0 0 424.6 130.6">
  <defs>
    <style>
      .cls-1 {
        fill: #e5001a;
      }

      .cls-1, .cls-2 {
        stroke-width: 0px;
      }

      .cls-2 {
        fill: #93c126;
      }
    </style>
  </defs>
  <g>
    <path class="cls-1" d="M62.6,115.2h9.6l-4.8-12.8-4.8,12.8ZM75.3,123.4l-2.2-5.9h-11.3l-2.2,5.9h-2.5l9.2-23.9h2.5l9.2,23.9h-2.5Z"/>
    <path class="cls-1" d="M83.4,119.6c1.3,1.3,2.9,2,4.8,2s3.5-.7,4.8-2c1.3-1.3,1.9-2.9,1.9-4.8s-.6-3.5-1.9-4.8c-1.3-1.3-2.9-2-4.8-2s-3.5.7-4.8,2c-1.3,1.3-1.9,2.9-1.9,4.8s.6,3.5,1.9,4.8M94.9,99.5h2.3v23.9h-2.3v-3.3c-1.6,2.5-3.9,3.8-6.9,3.8s-4.5-.9-6.2-2.6c-1.7-1.7-2.6-3.8-2.6-6.3s.9-4.6,2.6-6.3c1.7-1.7,3.8-2.6,6.2-2.6s5.3,1.3,6.9,3.8v-10.2Z"/>
    <polygon class="cls-1" points="114.2 106.3 116.6 106.3 109.6 123.4 106.9 123.4 99.9 106.3 102.3 106.3 108.2 121 114.2 106.3"/>
    <path class="cls-1" d="M121.8,119.6c1.3,1.3,2.9,2,4.8,2s3.5-.7,4.8-2c1.3-1.3,1.9-2.9,1.9-4.8s-.6-3.5-1.9-4.8c-1.3-1.3-2.9-2-4.8-2s-3.5.7-4.8,2c-1.3,1.3-1.9,2.9-1.9,4.8s.6,3.5,1.9,4.8M133.3,106.3h2.3v17.1h-2.3v-3.3c-1.6,2.5-3.9,3.8-6.9,3.8s-4.5-.9-6.2-2.6c-1.7-1.7-2.6-3.8-2.6-6.3s.9-4.6,2.6-6.3c1.7-1.7,3.8-2.6,6.2-2.6s5.3,1.3,6.9,3.8v-3.3Z"/>
    <path class="cls-1" d="M148.3,105.9c2.1,0,3.7.6,4.9,1.9,1.2,1.3,1.8,3,1.8,5.1v10.5h-2.3v-10.5c0-1.5-.4-2.7-1.2-3.5-.8-.8-2-1.3-3.4-1.3s-3,.5-4,1.6c-1,1-1.5,2.6-1.5,4.8v8.9h-2.3v-17.1h2.3v2.7c1.3-2,3.2-3.1,5.7-3.1"/>
    <path class="cls-1" d="M167.3,123.8c-2.6,0-4.7-.9-6.4-2.6-1.7-1.7-2.6-3.8-2.6-6.4s.9-4.6,2.6-6.4c1.7-1.7,3.8-2.6,6.4-2.6s3.2.4,4.5,1.2c1.3.8,2.3,1.9,2.9,3.3l-1.8,1.1c-.5-1-1.2-1.8-2.2-2.4-1-.6-2.2-.9-3.4-.9-1.9,0-3.5.7-4.8,2-1.3,1.3-1.9,2.9-1.9,4.8s.6,3.5,1.9,4.8c1.3,1.3,2.9,2,4.8,2s2.4-.3,3.4-.9c1-.6,1.8-1.4,2.4-2.4l1.9,1.1c-.7,1.4-1.7,2.4-3.1,3.2-1.4.8-2.9,1.2-4.5,1.2"/>
    <path class="cls-1" d="M178.2,106.3h2.3v17.1h-2.3v-17.1ZM180.5,102.2c-.3.3-.7.5-1.2.5s-.8-.2-1.2-.5c-.3-.3-.5-.7-.5-1.2s.2-.8.5-1.2c.3-.3.7-.5,1.2-.5s.8.2,1.2.5c.3.3.5.7.5,1.2s-.2.8-.5,1.2"/>
    <path class="cls-1" d="M193.2,105.9c2.1,0,3.7.6,4.9,1.9,1.2,1.3,1.8,3,1.8,5.1v10.5h-2.3v-10.5c0-1.5-.4-2.7-1.2-3.5-.8-.8-2-1.3-3.4-1.3s-3,.5-4,1.6c-1,1-1.5,2.6-1.5,4.8v8.9h-2.3v-17.1h2.3v2.7c1.3-2,3.2-3.1,5.7-3.1"/>
    <path class="cls-1" d="M207.4,119.6c1.3,1.3,2.9,2,4.8,2s3.5-.7,4.8-2c1.3-1.3,1.9-2.9,1.9-4.8s-.6-3.5-1.9-4.8c-1.3-1.3-2.9-2-4.8-2s-3.5.7-4.8,2c-1.3,1.3-1.9,2.9-1.9,4.8s.6,3.5,1.9,4.8M218.9,106.3h2.3v16.4c0,2.5-.8,4.4-2.5,5.8-1.7,1.4-3.7,2.1-6,2.1-4,0-6.7-1.4-8.1-4.2l2-1.1c1,2.1,3.1,3.1,6.1,3.1s3.5-.5,4.6-1.6c1.1-1,1.7-2.4,1.7-4.2v-2.7c-1.6,2.5-3.9,3.8-6.9,3.8s-4.5-.9-6.2-2.6c-1.7-1.7-2.6-3.8-2.6-6.3s.9-4.6,2.6-6.3c1.7-1.7,3.8-2.6,6.2-2.6s5.3,1.3,6.9,3.8v-3.3Z"/>
    <path class="cls-1" d="M242.5,123.8c-2.6,0-4.7-.9-6.4-2.6-1.7-1.7-2.6-3.8-2.6-6.4s.9-4.6,2.6-6.4c1.7-1.7,3.8-2.6,6.4-2.6s3.2.4,4.5,1.2c1.3.8,2.3,1.9,2.9,3.3l-1.8,1.1c-.5-1-1.2-1.8-2.2-2.4-1-.6-2.2-.9-3.4-.9-1.9,0-3.5.7-4.8,2-1.3,1.3-1.9,2.9-1.9,4.8s.6,3.5,1.9,4.8c1.3,1.3,2.9,2,4.8,2s2.4-.3,3.4-.9c1-.6,1.8-1.4,2.4-2.4l1.9,1.1c-.7,1.4-1.7,2.4-3.1,3.2-1.4.8-2.9,1.2-4.5,1.2"/>
    <path class="cls-1" d="M256.3,119.6c1.3,1.3,2.9,2,4.8,2s3.5-.7,4.8-2c1.3-1.3,1.9-2.9,1.9-4.8s-.6-3.5-1.9-4.8c-1.3-1.3-2.9-2-4.8-2s-3.5.7-4.8,2c-1.3,1.3-1.9,2.9-1.9,4.8s.6,3.5,1.9,4.8M267.5,121.2c-1.7,1.7-3.9,2.6-6.4,2.6s-4.6-.9-6.4-2.6c-1.7-1.7-2.6-3.8-2.6-6.4s.9-4.6,2.6-6.4c1.7-1.7,3.9-2.6,6.4-2.6s4.6.9,6.4,2.6c1.7,1.7,2.6,3.8,2.6,6.4s-.9,4.6-2.6,6.4"/>
    <path class="cls-1" d="M281.8,105.9c2.1,0,3.7.6,4.9,1.9,1.2,1.3,1.8,3,1.8,5.1v10.5h-2.3v-10.5c0-1.5-.4-2.7-1.2-3.5-.8-.8-2-1.3-3.4-1.3s-3,.5-4,1.6c-1,1-1.5,2.6-1.5,4.8v8.9h-2.3v-17.1h2.3v2.7c1.3-2,3.2-3.1,5.7-3.1"/>
    <path class="cls-1" d="M300.9,105.9c2.1,0,3.7.6,4.9,1.9,1.2,1.3,1.8,3,1.8,5.1v10.5h-2.3v-10.5c0-1.5-.4-2.7-1.2-3.5-.8-.8-2-1.3-3.4-1.3s-3,.5-4,1.6c-1,1-1.5,2.6-1.5,4.8v8.9h-2.3v-17.1h2.3v2.7c1.3-2,3.2-3.1,5.7-3.1"/>
    <path class="cls-1" d="M319.8,108.1c-1.8,0-3.3.5-4.5,1.6-1.2,1.1-1.9,2.4-2.1,4.1h12.7c-.2-1.8-.9-3.2-2.1-4.2-1.2-1-2.5-1.5-4.1-1.5M319.8,105.9c2.5,0,4.6.9,6.1,2.7,1.6,1.8,2.3,3.9,2.3,6.3s0,.6,0,1.1h-15c.2,1.7,1,3.1,2.2,4.1,1.2,1,2.8,1.5,4.6,1.5s2.4-.3,3.4-.8c.9-.5,1.7-1.2,2.1-2.1l2,1.2c-.8,1.2-1.8,2.2-3.1,2.9-1.3.7-2.8,1.1-4.4,1.1-2.7,0-4.9-.8-6.6-2.5-1.7-1.7-2.5-3.8-2.5-6.4s.8-4.7,2.5-6.4c1.7-1.7,3.8-2.6,6.4-2.6"/>
    <path class="cls-1" d="M339.8,123.8c-2.6,0-4.7-.9-6.4-2.6-1.7-1.7-2.6-3.8-2.6-6.4s.9-4.6,2.6-6.4c1.7-1.7,3.8-2.6,6.4-2.6s3.2.4,4.5,1.2c1.3.8,2.3,1.9,2.9,3.3l-1.8,1.1c-.5-1-1.2-1.8-2.2-2.4-1-.6-2.2-.9-3.4-.9-1.9,0-3.5.7-4.8,2-1.3,1.3-1.9,2.9-1.9,4.8s.6,3.5,1.9,4.8c1.3,1.3,2.9,2,4.8,2s2.4-.3,3.4-.9c1-.6,1.8-1.4,2.4-2.4l1.9,1.1c-.7,1.4-1.7,2.4-3.1,3.2-1.4.8-2.9,1.2-4.5,1.2"/>
    <path class="cls-1" d="M359.7,108.5h-4.9v10.3c0,.9.2,1.6.5,2,.4.4.9.6,1.6.6.7,0,1.6,0,2.7,0v2c-2.4.4-4.2.2-5.4-.5-1.2-.7-1.8-2-1.8-4v-10.3h-3.6v-2.2h3.6v-4.1l2.3-.7v4.8h4.9v2.2Z"/>
    <path class="cls-1" d="M363.5,106.3h2.3v17.1h-2.3v-17.1ZM365.8,102.2c-.3.3-.7.5-1.2.5s-.8-.2-1.2-.5c-.3-.3-.5-.7-.5-1.2s.2-.8.5-1.2c.3-.3.7-.5,1.2-.5s.8.2,1.2.5c.3.3.5.7.5,1.2s-.2.8-.5,1.2"/>
    <polygon class="cls-1" points="382.8 106.3 385.2 106.3 378.2 123.4 375.4 123.4 368.5 106.3 370.8 106.3 376.8 121 382.8 106.3"/>
    <path class="cls-1" d="M387.9,106.3h2.3v17.1h-2.3v-17.1ZM390.2,102.2c-.3.3-.7.5-1.2.5s-.8-.2-1.2-.5c-.3-.3-.5-.7-.5-1.2s.2-.8.5-1.2c.3-.3.7-.5,1.2-.5s.8.2,1.2.5c.3.3.5.7.5,1.2s-.2.8-.5,1.2"/>
    <path class="cls-1" d="M404,108.5h-4.9v10.3c0,.9.2,1.6.5,2,.4.4.9.6,1.6.6.7,0,1.6,0,2.7,0v2c-2.4.4-4.2.2-5.4-.5-1.2-.7-1.8-2-1.8-4v-10.3h-3.6v-2.2h3.6v-4.1l2.3-.7v4.8h4.9v2.2Z"/>
    <path class="cls-1" d="M420.3,106.3h2.4l-7.3,18.6c-.7,1.7-1.6,3-2.8,4-1.2,1-2.6,1.4-4.1,1.3v-2.1c2,.2,3.6-1,4.7-3.6l.4-1.1-7.6-17.1h2.4l6.4,14.2,5.6-14.2Z"/>
  </g>
  <path class="cls-1" d="M0,59.6c0,8,6.5,14.4,14.4,14.4s14.4-6.5,14.4-14.4-6.4-14.4-14.4-14.4S0,51.6,0,59.6"/>
  <path class="cls-2" d="M0,15.2c0,8,6.5,14.4,14.4,14.4s14.4-6.5,14.4-14.4S22.4.8,14.4.8,0,7.2,0,15.2"/>
  <polygon class="cls-1" points="117.1 73.2 96.6 73.2 76 41.1 76 73.2 57.7 73.2 57.7 1.5 76 1.5 76 31.7 95.6 1.5 116 1.5 93.3 36.4 117.1 73.2"/>
  <polygon class="cls-1" points="139.3 73.2 116.2 1.5 136.2 1.5 150.2 50.9 164.2 1.5 184.3 1.5 161.1 73.2 139.3 73.2"/>
  <polygon class="cls-1" points="198.1 73.2 178.3 73.2 201.1 1.5 224.2 1.5 247.9 73.2 229 73.2 213.1 22.7 198.1 73.2"/>
  <path class="cls-1" d="M275.7,74.8c-7.6,0-13.1-1.6-18-4.8-5-3.2-8.5-7.5-10.4-13l15.7-9.1c2.7,6.3,6.6,9.5,13.3,9.5s8.4-1.6,8.4-4.8-1.6-3.8-4.8-5.1c-1.4-.6-3.6-1.5-8.2-2.9-6.6-1.9-11.7-4.6-15.6-8-3.8-3.4-5.7-8.2-5.7-14.4s2.4-12,7.1-16.1c4.7-4.1,9.9-6.1,17-6.1s11.3,1.4,16,4.2c4.6,2.8,8.2,6.9,10.6,12.2l-15.4,9c-2.3-5.3-6-8-11.2-8s-3,.4-4.2,1.3c-1.1.9-1.7,2-1.7,3.4s.8,2.9,2.5,4c1.7,1.1,4.1,2.4,9,3.8,3.4,1.2,6.2,2.2,8.3,3,2.2.8,4.5,2,7,3.7,2.5,1.7,4.4,3.8,5.6,6.4,1.2,2.6,1.8,5.7,1.8,9.2,0,7-2.5,12.5-7.5,16.5-5,4-11.6,5.9-19.8,5.9"/>
  <polygon class="cls-1" points="328.8 56 356.6 56 356.6 73.2 310.5 73.2 310.5 1.5 356.1 1.5 356.1 18.6 328.8 18.6 328.8 28.6 353.5 28.6 353.5 45.5 328.8 45.5 328.8 56"/>
  <path class="cls-1" d="M385.9,18.4v16.1h10.1c2.3,0,4.1-.6,5.5-2.1,1.4-1.5,2.2-3.4,2.2-5.8s-.7-4.3-2.2-5.8c-1.4-1.5-3.3-2.3-5.5-2.3h-10.1ZM404.9,73.2l-12.5-23.1h-6.6v23.1h-18.3V1.5h28.7c7.3,0,13.4,2.3,18.4,7,4.9,4.7,7.4,10.6,7.4,17.8s-1.1,8.2-3.3,11.8c-2.2,3.6-5.2,6.4-8.9,8.6l14.7,26.5h-19.7Z"/>
</svg>