<?xml version="1.0" encoding="UTF-8" standalone="no"?>
<!DOCTYPE svg PUBLIC "-//W3C//DTD SVG 1.1//EN" "http://www.w3.org/Graphics/SVG/1.1/DTD/svg11.dtd">
<svg width="100%" height="100%" viewBox="0 0 1250 191" version="1.1" xmlns="http://www.w3.org/2000/svg" xmlns:xlink="http://www.w3.org/1999/xlink" xml:space="preserve" style="fill-rule:evenodd;clip-rule:evenodd;stroke-linejoin:round;stroke-miterlimit:2;">
    <g transform="matrix(1,0,0,1,-2.67084,-2.80397)">
        <g transform="matrix(8.33333,0,0,8.33333,-1968.49,-2432.18)">
            <g transform="matrix(1,0,0,1,302.013,308.117)">
                <path d="M0,-4.456C0,-5.671 -0.018,-6.886 0.011,-8.101C0.02,-8.494 -0.096,-8.677 -0.483,-8.701C-1.07,-8.736 -1.655,-8.814 -2.241,-8.814C-3.601,-8.815 -4.374,-8.197 -4.619,-6.867C-4.886,-5.412 -4.834,-3.929 -4.68,-2.476C-4.506,-0.826 -3.687,-0.215 -2.036,-0.242C-1.548,-0.25 -1.059,-0.36 -0.574,-0.338C-0.055,-0.314 0.024,-0.529 0.011,-0.988C-0.022,-2.143 0,-3.3 0,-4.456M3.168,-3.516C3.168,-1.556 3.208,0.405 3.159,2.363C3.084,5.284 1.694,6.71 -1.24,6.906C-2.967,7.021 -4.678,6.863 -6.364,6.448C-6.877,6.321 -7.118,6.086 -7.09,5.517C-7.026,4.224 -7.447,3.97 -5.538,4.184C-4.216,4.332 -2.885,4.419 -1.549,4.358C-0.349,4.302 0.207,3.605 0.033,2.403C-0.012,2.093 -0.195,2.2 -0.347,2.216C-1.259,2.311 -2.16,2.459 -3.091,2.362C-5.573,2.105 -7.152,0.834 -7.684,-1.602C-8.096,-3.49 -8.088,-5.433 -7.704,-7.319C-7.177,-9.901 -5.448,-11.252 -2.694,-11.388C-0.905,-11.477 0.85,-11.173 2.589,-10.774C3.06,-10.666 3.191,-10.383 3.187,-9.925C3.17,-7.788 3.18,-5.652 3.18,-3.516L3.168,-3.516Z" style="fill:rgb(8,8,10);fill-rule:nonzero;"/>
            </g>
        </g>
        <g transform="matrix(8.33333,0,0,8.33333,-1968.49,-2432.18)">
            <g transform="matrix(1,0,0,1,236.575,292.339)">
                <path d="M0,21.018C0,16.603 0.06,12.349 -0.034,8.098C-0.065,6.711 0.299,5.727 1.337,4.8C2.914,3.393 4.352,1.83 5.847,0.33C6.028,0.148 6.194,0 6.492,0.001C11.274,0.011 16.056,0.008 20.836,0.008C20.908,0.204 20.743,0.263 20.658,0.348C18.818,2.195 16.969,4.033 15.136,5.887C14.888,6.139 14.63,6.2 14.301,6.199C10.38,6.192 6.459,6.205 2.539,6.182C2.013,6.179 1.891,6.324 1.894,6.836C1.916,10.718 1.899,14.599 1.916,18.481C1.919,18.931 1.794,19.253 1.465,19.553C0.992,19.983 0.557,20.456 0,21.018" style="fill:rgb(239,122,49);fill-rule:nonzero;"/>
            </g>
        </g>
        <g transform="matrix(8.33333,0,0,8.33333,-1968.49,-2432.18)">
            <g transform="matrix(1,0,0,1,259.259,315.064)">
                <path d="M0,-20.987L0,-10.156C0,-8.98 -0.01,-7.805 0.007,-6.629C0.011,-6.308 -0.09,-6.083 -0.316,-5.859C-2.163,-4.021 -4,-2.172 -5.836,-0.324C-6.019,-0.14 -6.189,0 -6.484,0C-11.264,-0.01 -16.044,-0.008 -20.981,-0.008C-20.302,-0.69 -19.719,-1.301 -19.099,-1.873C-18.987,-1.976 -18.725,-1.932 -18.531,-1.932C-14.632,-1.935 -10.733,-1.947 -6.835,-1.921C-6.281,-1.917 -6.16,-2.08 -6.163,-2.607C-6.184,-6.486 -6.169,-10.366 -6.182,-14.245C-6.184,-14.646 -6.081,-14.938 -5.791,-15.225C-4.009,-16.99 -2.246,-18.773 -0.475,-20.549C-0.354,-20.67 -0.223,-20.782 0,-20.987" style="fill:rgb(239,122,49);fill-rule:nonzero;"/>
            </g>
        </g>
        <g transform="matrix(8.33333,0,0,8.33333,-1968.49,-2432.18)">
            <g transform="matrix(1,0,0,1,325.047,307.911)">
                <path d="M0,-4.314C0,-3.079 -0.003,-1.844 0.003,-0.609C0.004,-0.415 -0.092,-0.163 0.274,-0.152C1.018,-0.131 1.756,-0 2.504,-0.039C3.576,-0.095 4.35,-0.654 4.579,-1.699C4.947,-3.38 4.936,-5.089 4.611,-6.773C4.383,-7.956 3.792,-8.432 2.617,-8.588C1.832,-8.692 1.053,-8.523 0.271,-8.496C-0.063,-8.484 0.001,-8.226 0.001,-8.019C-0.001,-6.784 0,-5.549 0,-4.314M-3.171,-1.72C-3.171,-4.386 -3.169,-7.052 -3.173,-9.719C-3.173,-10.067 -3.173,-10.398 -2.746,-10.507C-0.591,-11.056 1.587,-11.447 3.806,-11.035C6.206,-10.59 7.492,-9.002 7.823,-6.666C8.073,-4.899 8.104,-3.1 7.727,-1.342C7.228,0.984 5.39,2.459 2.987,2.538C2.127,2.567 1.26,2.619 0.407,2.443C0.045,2.368 -0.011,2.518 -0.006,2.839C0.01,3.995 0.001,5.152 -0.001,6.309C-0.002,7.005 -0.109,7.11 -0.827,7.114C-1.356,7.116 -1.886,7.102 -2.415,7.117C-2.964,7.133 -3.18,6.889 -3.177,6.338C-3.163,3.652 -3.171,0.966 -3.171,-1.72" style="fill:rgb(8,8,10);fill-rule:nonzero;"/>
            </g>
        </g>
        <g transform="matrix(8.33333,0,0,8.33333,-1968.49,-2432.18)">
            <g transform="matrix(1,0,0,1,380.683,304.825)">
                <path d="M0,-2.394L1.35,-2.394C2.645,-2.394 2.779,-2.596 2.306,-3.836C2.208,-4.092 2.082,-4.331 1.905,-4.545C1.245,-5.342 0.027,-5.612 -0.977,-5.177C-1.851,-4.799 -2.552,-3.581 -2.468,-2.642C-2.443,-2.364 -2.288,-2.394 -2.112,-2.394L0,-2.394M1.537,-0.133C0.361,-0.133 -0.815,-0.108 -1.989,-0.145C-2.439,-0.159 -2.5,0.006 -2.466,0.388C-2.325,1.942 -1.325,2.908 0.295,2.912C1.507,2.916 2.719,2.807 3.931,2.746C4.185,2.734 4.439,2.715 4.693,2.694C5.064,2.665 5.243,2.836 5.237,3.207C5.237,3.226 5.237,3.246 5.238,3.265C5.334,5.143 5.34,5.18 3.49,5.456C1.94,5.687 0.37,5.785 -1.187,5.514C-3.553,5.102 -5.215,3.429 -5.511,1.056C-5.741,-0.788 -5.845,-2.655 -5.295,-4.473C-4.623,-6.69 -2.766,-8.059 -0.453,-8.132C1.008,-8.179 2.396,-7.987 3.595,-7.07C5.1,-5.92 5.606,-4.294 5.728,-2.499C5.765,-1.953 5.748,-1.403 5.748,-0.854C5.747,-0.365 5.558,-0.107 5.004,-0.123C3.849,-0.155 2.693,-0.133 1.537,-0.133" style="fill:rgb(8,8,10);fill-rule:nonzero;"/>
            </g>
        </g>
        <g transform="matrix(8.33333,0,0,8.33333,-1968.49,-2432.18)">
            <g transform="matrix(1,0,0,1,288.7,303.376)">
                <path d="M0,0.224C0,-0.305 0.028,-0.836 -0.005,-1.363C-0.099,-2.863 -0.974,-3.817 -2.323,-3.924C-3.626,-4.028 -4.633,-3.269 -4.877,-1.788C-5.099,-0.438 -5.118,0.953 -4.856,2.303C-4.582,3.718 -3.716,4.394 -2.432,4.381C-1.202,4.369 -0.42,3.656 -0.082,2.271C0.083,1.592 -0.024,0.906 0,0.224M3.181,0.213C3.195,1.249 3.222,2.285 2.928,3.298C2.303,5.452 0.52,6.918 -1.721,7.072C-2.801,7.146 -3.876,7.099 -4.895,6.679C-6.792,5.896 -7.808,4.395 -8.065,2.433C-8.282,0.785 -8.351,-0.906 -7.961,-2.537C-7.178,-5.811 -4.494,-6.922 -1.804,-6.612C1.379,-6.246 3.07,-4.289 3.179,-1.08C3.194,-0.65 3.181,-0.218 3.181,0.213" style="fill:rgb(8,8,10);fill-rule:nonzero;"/>
            </g>
        </g>
        <g transform="matrix(8.33333,0,0,8.33333,-1968.49,-2432.18)">
            <g transform="matrix(1,0,0,1,311.041,303.401)">
                <path d="M0,0.157C0.014,0.928 -0.044,1.653 0.124,2.369C0.41,3.58 1.267,4.332 2.412,4.356C3.663,4.382 4.538,3.766 4.834,2.496C5.183,0.995 5.182,-0.541 4.845,-2.044C4.555,-3.335 3.666,-3.99 2.463,-3.957C1.238,-3.924 0.399,-3.173 0.114,-1.902C-0.043,-1.202 0.026,-0.498 0,0.157M-3.164,0.109C-3.192,-0.814 -3.201,-1.834 -2.911,-2.825C-2.008,-5.9 0.616,-6.951 3.222,-6.632C6.28,-6.258 7.784,-4.667 8.138,-1.538C8.32,0.075 8.353,1.707 7.893,3.297C7.235,5.572 5.326,6.998 2.946,7.064C1.415,7.108 -0.021,6.87 -1.234,5.863C-2.539,4.779 -3.051,3.312 -3.159,1.674C-3.192,1.186 -3.164,0.695 -3.164,0.109" style="fill:rgb(8,8,10);fill-rule:nonzero;"/>
            </g>
        </g>
        <g transform="matrix(8.33333,0,0,8.33333,-1968.49,-2432.18)">
            <g transform="matrix(1,0,0,1,348.82,301.114)">
                <path d="M0,4.994C-0.057,4.513 0.261,3.719 -0.115,3.414C-0.471,3.125 -1.233,3.337 -1.816,3.329C-1.836,3.329 -1.856,3.331 -1.875,3.331C-3.751,3.371 -4.106,3.746 -4.021,5.599C-3.986,6.371 -3.622,6.76 -2.852,6.88C-2.033,7.008 -1.217,6.966 -0.399,6.877C-0.122,6.846 0.021,6.75 0.006,6.439C-0.017,5.991 0,5.54 0,4.994M3.169,3.893C3.169,5.304 3.155,6.714 3.178,8.124C3.185,8.524 3.067,8.736 2.673,8.837C0.387,9.428 -1.921,9.577 -4.237,9.101C-6.346,8.668 -7.328,7.3 -7.256,5.146C-7.166,2.418 -5.577,1.473 -3.002,1.241C-2.126,1.162 -1.241,1.177 -0.36,1.174C-0.083,1.174 0.027,1.106 0.006,0.814C-0.021,0.463 0.01,0.108 -0.01,-0.243C-0.064,-1.164 -0.571,-1.685 -1.499,-1.716C-2.83,-1.761 -4.16,-1.74 -5.489,-1.614C-6.474,-1.522 -6.484,-1.551 -6.475,-2.521C-6.461,-4.04 -6.746,-3.937 -4.961,-4.19C-3.309,-4.424 -1.656,-4.583 -0.007,-4.18C1.971,-3.698 3.139,-2.246 3.162,-0.22C3.178,1.151 3.165,2.522 3.165,3.893L3.169,3.893Z" style="fill:rgb(8,8,10);fill-rule:nonzero;"/>
            </g>
        </g>
        <g transform="matrix(8.33333,0,0,8.33333,-1968.49,-2432.18)">
            <g transform="matrix(1,0,0,1,359.073,296.526)">
                <path d="M0,13.934C-1.198,13.947 -2.381,13.802 -3.554,13.569C-4.272,13.426 -4.37,13.291 -4.372,12.539C-4.373,12.421 -4.372,12.304 -4.372,12.186C-4.372,11.073 -4.278,11.018 -3.143,11.155C-1.919,11.302 -0.687,11.396 0.549,11.346C1.519,11.308 2,10.75 1.749,9.984C1.631,9.624 1.338,9.416 1.042,9.231C-0.099,8.515 -1.251,7.816 -2.397,7.107C-3.361,6.51 -4.092,5.714 -4.37,4.59C-4.901,2.437 -3.723,0.66 -1.527,0.302C0.416,-0.014 2.332,0.236 4.235,0.644C4.254,0.648 4.274,0.65 4.293,0.656C4.691,0.799 4.886,1.821 4.681,2.696C4.565,3.193 4.195,3.024 3.879,3C2.689,2.91 1.504,2.748 0.308,2.757C0.132,2.759 -0.048,2.749 -0.22,2.779C-0.69,2.863 -1.164,2.96 -1.286,3.533C-1.404,4.082 -0.984,4.299 -0.626,4.523C0.516,5.237 1.673,5.925 2.817,6.636C3.747,7.214 4.573,7.905 4.894,9.008C5.555,11.278 4.24,13.344 1.869,13.813C1.248,13.935 0.626,13.948 0,13.934" style="fill:rgb(8,8,10);fill-rule:nonzero;"/>
            </g>
        </g>
        <g transform="matrix(8.33333,0,0,8.33333,-1968.49,-2432.18)">
            <g transform="matrix(1,0,0,1,269.285,303.568)">
                <path d="M0,-3.806C0,-5.922 -0.001,-8.039 0.001,-10.155C0.001,-10.854 0.104,-10.954 0.822,-10.959C1.39,-10.962 1.959,-10.964 2.527,-10.958C3.197,-10.951 3.3,-10.846 3.301,-10.165C3.302,-6.226 3.301,-2.287 3.302,1.652C3.302,3.721 3.651,4.068 5.721,4.068C6.916,4.068 8.112,4.082 9.307,4.062C9.808,4.053 10.033,4.237 10.005,4.748C9.983,5.158 9.981,5.572 10.006,5.982C10.029,6.35 9.857,6.543 9.524,6.593C7.429,6.907 5.319,7.158 3.224,6.703C1.139,6.249 0.034,4.791 0.01,2.602C-0.013,0.466 0.005,-1.67 0.005,-3.806L0,-3.806Z" style="fill:rgb(8,8,10);fill-rule:nonzero;"/>
            </g>
        </g>
        <g transform="matrix(8.33333,0,0,8.33333,-1968.49,-2432.18)">
            <g transform="matrix(1,0,0,1,366.545,303.265)">
                <path d="M0,-1.909C0,-3.928 0.016,-5.947 -0.01,-7.966C-0.017,-8.524 0.162,-8.793 0.73,-8.853C1.291,-8.913 1.842,-9.061 2.402,-9.144C3.015,-9.235 3.187,-9.081 3.195,-8.465C3.202,-7.936 3.218,-7.405 3.189,-6.877C3.168,-6.507 3.263,-6.369 3.663,-6.384C4.505,-6.417 5.349,-6.399 6.191,-6.393C6.885,-6.388 6.995,-6.285 6.994,-5.622C6.991,-3.842 7.177,-3.989 5.41,-3.992C4.783,-3.993 4.156,-3.982 3.529,-3.997C3.28,-4.003 3.19,-3.939 3.191,-3.673C3.202,-1.164 3.192,1.345 3.208,3.854C3.211,4.423 3.536,4.702 4.17,4.722C4.895,4.745 5.62,4.744 6.345,4.731C6.807,4.723 7.011,4.883 7.004,5.381C6.975,7.326 7.192,6.958 5.403,7.151C4.418,7.257 3.41,7.297 2.418,7.089C0.931,6.776 0.072,5.836 0.042,4.323C-0.001,2.247 0.031,0.169 0.031,-1.909L0,-1.909" style="fill:rgb(8,8,10);fill-rule:nonzero;"/>
            </g>
        </g>
        <g transform="matrix(8.33333,0,0,8.33333,-1968.49,-2432.18)">
            <g transform="matrix(1,0,0,1,338.879,301.21)">
                <path d="M0,0.074C0,2.759 0.001,5.445 -0.001,8.13C-0.001,9.004 -0.107,9.108 -0.973,9.109C-1.483,9.109 -1.993,9.101 -2.502,9.111C-2.972,9.121 -3.186,8.89 -3.192,8.436C-3.193,8.318 -3.193,8.2 -3.193,8.083L-3.193,-8.029C-3.193,-8.953 -3.145,-9.001 -2.247,-9.002C-1.737,-9.003 -1.225,-8.975 -0.718,-9.009C-0.161,-9.047 0.007,-8.776 0.003,-8.276C-0.007,-7.159 0,-6.041 0,-4.924L0,0.074Z" style="fill:rgb(8,8,10);fill-rule:nonzero;"/>
            </g>
        </g>
    </g>
</svg>
