<svg xmlns="http://www.w3.org/2000/svg" xml:space="preserve" style="fill-rule:evenodd;clip-rule:evenodd;stroke-linejoin:round;stroke-miterlimit:2" viewBox="0 0 1250 191"><path d="M0-4.456c0-1.215-.018-2.43.011-3.645.009-.393-.107-.576-.494-.6-.587-.035-1.172-.113-1.758-.113-1.36-.001-2.133.617-2.378 1.947-.267 1.455-.215 2.938-.061 4.391.174 1.65.993 2.261 2.644 2.234.488-.008.977-.118 1.462-.096.519.024.598-.191.585-.65C-.022-2.143 0-3.3 0-4.456m3.168.94c0 1.96.04 3.921-.009 5.879C3.084 5.284 1.694 6.71-1.24 6.906a16.7 16.7 0 0 1-5.124-.458c-.513-.127-.754-.362-.726-.931.064-1.293-.357-1.547 1.552-1.333 1.322.148 2.653.235 3.989.174 1.2-.056 1.756-.753 1.582-1.955-.045-.31-.228-.203-.38-.187-.912.095-1.813.243-2.744.146-2.482-.257-4.061-1.528-4.593-3.964a13.8 13.8 0 0 1-.02-5.717c.527-2.582 2.256-3.933 5.01-4.069 1.789-.089 3.544.215 5.283.614.471.108.602.391.598.849-.017 2.137-.007 4.273-.007 6.409z" style="fill:#08080a;fill-rule:nonzero" transform="translate(545.613 132.657)scale(8.33333)"/><path d="M0 21.018c0-4.415.06-8.669-.034-12.92C-.065 6.711.299 5.727 1.337 4.8 2.914 3.393 4.352 1.83 5.847.33c.181-.182.347-.33.645-.329 4.782.01 9.564.007 14.344.007.072.196-.093.255-.178.34-1.84 1.847-3.689 3.685-5.522 5.539-.248.252-.506.313-.835.312-3.921-.007-7.842.006-11.762-.017-.526-.003-.648.142-.645.654.022 3.882.005 7.763.022 11.645.003.45-.122.772-.451 1.072-.473.43-.908.903-1.465 1.465" style="fill:#ef7a31;fill-rule:nonzero" transform="translate(.297 1.173)scale(8.33333)"/><path d="M0-20.987v10.831C0-8.98-.01-7.805.007-6.629c.004.321-.097.546-.323.77a1372 1372 0 0 0-5.52 5.535C-6.019-.14-6.189 0-6.484 0c-4.78-.01-9.56-.008-14.497-.008.679-.682 1.262-1.293 1.882-1.865.112-.103.374-.059.568-.059 3.899-.003 7.798-.015 11.696.011.554.004.675-.159.672-.686-.021-3.879-.006-7.759-.019-11.638-.002-.401.101-.693.391-.98 1.782-1.765 3.545-3.548 5.316-5.324.121-.121.252-.233.475-.438" style="fill:#ef7a31;fill-rule:nonzero" transform="translate(189.33 190.548)scale(8.33333)"/><path d="M0-4.314c0 1.235-.003 2.47.003 3.705.001.194-.095.446.271.457.744.021 1.482.152 2.23.113 1.072-.056 1.846-.615 2.075-1.66.368-1.681.357-3.39.032-5.074-.228-1.183-.819-1.659-1.994-1.815-.785-.104-1.564.065-2.346.092-.334.012-.27.27-.27.477Q-.001-6.166 0-4.314M-3.171-1.72c0-2.666.002-5.332-.002-7.999 0-.348 0-.679.427-.788 2.155-.549 4.333-.94 6.552-.528 2.4.445 3.686 2.033 4.017 4.369.25 1.767.281 3.566-.096 5.324-.499 2.326-2.337 3.801-4.74 3.88-.86.029-1.727.081-2.58-.095-.362-.075-.418.075-.413.396.016 1.156.007 2.313.005 3.47-.001.696-.108.801-.826.805-.529.002-1.059-.012-1.588.003-.549.016-.765-.228-.762-.779.014-2.686.006-5.372.006-8.058" style="fill:#08080a;fill-rule:nonzero" transform="translate(737.563 130.94)scale(8.33333)"/><path d="M0-2.394h1.35c1.295 0 1.429-.202.956-1.442a2.5 2.5 0 0 0-.401-.709c-.66-.797-1.878-1.067-2.882-.632-.874.378-1.575 1.596-1.491 2.535.025.278.18.248.356.248zM1.537-.133c-1.176 0-2.352.025-3.526-.012-.45-.014-.511.151-.477.533.141 1.554 1.141 2.52 2.761 2.524 1.212.004 2.424-.105 3.636-.166q.381-.02.762-.052.555-.043.544.513l.001.058c.096 1.878.102 1.915-1.748 2.191-1.55.231-3.12.329-4.677.058-2.366-.412-4.028-2.085-4.324-4.458-.23-1.844-.334-3.711.216-5.529.672-2.217 2.529-3.586 4.842-3.659 1.461-.047 2.849.145 4.048 1.062C5.1-5.92 5.606-4.294 5.728-2.499c.037.546.02 1.096.02 1.645-.001.489-.19.747-.744.731-1.155-.032-2.311-.01-3.467-.01" style="fill:#08080a;fill-rule:nonzero" transform="translate(1201.196 105.223)scale(8.33333)"/><path d="M0 .224c0-.529.028-1.06-.005-1.587-.094-1.5-.969-2.454-2.318-2.561-1.303-.104-2.31.655-2.554 2.136-.222 1.35-.241 2.741.021 4.091.274 1.415 1.14 2.091 2.424 2.078 1.23-.012 2.012-.725 2.35-2.11C.083 1.592-.024.906 0 .224M3.181.213c.014 1.036.041 2.072-.253 3.085C2.303 5.452.52 6.918-1.721 7.072c-1.08.074-2.155.027-3.174-.393-1.897-.783-2.913-2.284-3.17-4.246-.217-1.648-.286-3.339.104-4.97.783-3.274 3.467-4.385 6.157-4.075 3.183.366 4.874 2.323 4.983 5.532.015.43.002.862.002 1.293" style="fill:#08080a;fill-rule:nonzero" transform="translate(434.672 93.148)scale(8.33333)"/><path d="M0 .157c.014.771-.044 1.496.124 2.212C.41 3.58 1.267 4.332 2.412 4.356c1.251.026 2.126-.59 2.422-1.86.349-1.501.348-3.037.011-4.54-.29-1.291-1.179-1.946-2.382-1.913-1.225.033-2.064.784-2.349 2.055C-.043-1.202.026-.498 0 .157M-3.164.109c-.028-.923-.037-1.943.253-2.934C-2.008-5.9.616-6.951 3.222-6.632c3.058.374 4.562 1.965 4.916 5.094.182 1.613.215 3.245-.245 4.835-.658 2.275-2.567 3.701-4.947 3.767-1.531.044-2.967-.194-4.18-1.201-1.305-1.084-1.817-2.551-1.925-4.189-.033-.488-.005-.979-.005-1.565" style="fill:#08080a;fill-rule:nonzero" transform="translate(620.846 93.357)scale(8.33333)"/><path d="M0 4.994c-.057-.481.261-1.275-.115-1.58-.356-.289-1.118-.077-1.701-.085l-.059.002c-1.876.04-2.231.415-2.146 2.268.035.772.399 1.161 1.169 1.281.819.128 1.635.086 2.453-.003.277-.031.42-.127.405-.438C-.017 5.991 0 5.54 0 4.994m3.169-1.101c0 1.411-.014 2.821.009 4.231.007.4-.111.612-.505.713-2.286.591-4.594.74-6.91.264-2.109-.433-3.091-1.801-3.019-3.955.09-2.728 1.679-3.673 4.254-3.905.876-.079 1.761-.064 2.642-.067.277 0 .387-.068.366-.36C-.021.463.01.108-.01-.243c-.054-.921-.561-1.442-1.489-1.473a31 31 0 0 0-3.99.102c-.985.092-.995.063-.986-.907.014-1.519-.271-1.416 1.514-1.669 1.652-.234 3.305-.393 4.954.01 1.978.482 3.146 1.934 3.169 3.96.016 1.371.003 2.742.003 4.113z" style="fill:#08080a;fill-rule:nonzero" transform="translate(935.671 74.298)scale(8.33333)"/><path d="M0 13.934c-1.198.013-2.381-.132-3.554-.365-.718-.143-.816-.278-.818-1.03v-.353c0-1.113.094-1.168 1.229-1.031 1.224.147 2.456.241 3.692.191.97-.038 1.451-.596 1.2-1.362-.118-.36-.411-.568-.707-.753-1.141-.716-2.293-1.415-3.439-2.124-.964-.597-1.695-1.393-1.973-2.517-.531-2.153.647-3.93 2.843-4.288C.416-.014 2.332.236 4.235.644q.029.004.058.012c.398.143.593 1.165.388 2.04-.116.497-.486.328-.802.304-1.19-.09-2.375-.252-3.571-.243-.176.002-.356-.008-.528.022-.47.084-.944.181-1.066.754-.118.549.302.766.66.99 1.142.714 2.299 1.402 3.443 2.113.93.578 1.756 1.269 2.077 2.372.661 2.27-.654 4.336-3.025 4.805-.621.122-1.243.135-1.869.121" style="fill:#08080a;fill-rule:nonzero" transform="translate(1021.113 36.065)scale(8.33333)"/><path d="M0-3.806q-.001-3.174.001-6.349c0-.699.103-.799.821-.804a108 108 0 0 1 1.705.001c.67.007.773.112.774.793l.001 11.817c0 2.069.349 2.416 2.419 2.416 1.195 0 2.391.014 3.586-.006.501-.009.726.175.698.686-.022.41-.024.824.001 1.234.023.368-.149.561-.482.611-2.095.314-4.205.565-6.3.11C1.139 6.249.034 4.791.01 2.602-.013.466.005-1.67.005-3.806z" style="fill:#08080a;fill-rule:nonzero" transform="translate(272.88 94.748)scale(8.33333)"/><path d="M0-1.909c0-2.019.016-4.038-.01-6.057-.007-.558.172-.827.74-.887.561-.06 1.112-.208 1.672-.291.613-.091.785.063.793.679.007.529.023 1.06-.006 1.588-.021.37.074.508.474.493.842-.033 1.686-.015 2.528-.009.694.005.804.108.803.771-.003 1.78.183 1.633-1.584 1.63-.627-.001-1.254.01-1.881-.005-.249-.006-.339.058-.338.324.011 2.509.001 5.018.017 7.527.003.569.328.848.962.868.725.023 1.45.022 2.175.009.462-.008.666.152.659.65-.029 1.945.188 1.577-1.601 1.77-.985.106-1.993.146-2.985-.062C.931 6.776.072 5.836.042 4.323-.001 2.247.031.169.031-1.909z" style="fill:#08080a;fill-rule:nonzero" transform="translate(1083.38 92.223)scale(8.33333)"/><path d="M0 .074Q.001 4.102-.001 8.13c0 .874-.106.978-.972.979-.51 0-1.02-.008-1.529.002-.47.01-.684-.221-.69-.675l-.001-.353V-8.029c0-.924.048-.972.946-.973.51-.001 1.022.027 1.529-.007.557-.038.725.233.721.733C-.007-7.159 0-6.041 0-4.924z" style="fill:#08080a;fill-rule:nonzero" transform="translate(852.83 75.098)scale(8.33333)"/></svg>