<?xml version="1.0" encoding="UTF-8" standalone="no"?>
<!-- Created with Inkscape (http://www.inkscape.org/) -->
<svg xmlns:svg="http://www.w3.org/2000/svg" xmlns="http://www.w3.org/2000/svg" version="1.0" width="956.69287" height="467.00787" id="svg2">
  <defs id="defs4"/>
  <g transform="translate(-609.42319,1798.6825)" id="layer1">
    <g transform="translate(35.433031,35.468287)" id="g5330">
      <path d="M 1495.25,-1674.9702 L 1261.8949,-1586.334 L 1275.4644,-1615.5947 L 959.22182,-1507.5241 L 976.73515,-1543.7539 L 609.50675,-1402.6112 L 885.24138,-1471.8289 L 862.64786,-1428.3291 L 1204.492,-1555.6362 L 1184.9566,-1517.7179 L 1495.25,-1674.9702 z" id="path4685" style="fill:#c92a28;fill-opacity:1;fill-rule:nonzero;stroke:none"/>
      <path d="M 1443.0943,-1782.3055 C 1444.7487,-1782.3055 1446.3029,-1782.4392 1446.3029,-1784.4445 C 1446.3029,-1786.0662 1444.7989,-1786.3496 1443.4286,-1786.3496 L 1440.7548,-1786.3496 L 1440.7548,-1782.3055 L 1443.0943,-1782.3055 z M 1440.7548,-1774.986 L 1438.7494,-1774.986 L 1438.7494,-1788.0207 L 1443.7461,-1788.0207 C 1446.8042,-1788.0207 1448.3249,-1786.8844 1448.3249,-1784.3269 C 1448.3249,-1781.9886 1446.8878,-1780.9525 1444.9493,-1780.7346 L 1448.6425,-1774.986 L 1446.4533,-1774.986 L 1442.9941,-1780.6344 L 1440.7548,-1780.6344 L 1440.7548,-1774.986 z M 1443.1445,-1772.0782 C 1448.2581,-1772.0782 1452.3189,-1776.0889 1452.3189,-1781.5368 C 1452.3189,-1786.8844 1448.2581,-1790.9285 1443.1445,-1790.9285 C 1437.964,-1790.9285 1433.9199,-1786.8844 1433.9199,-1781.5368 C 1433.9199,-1776.0889 1437.964,-1772.0782 1443.1445,-1772.0782 M 1431.6305,-1781.5368 C 1431.6305,-1788.0207 1436.8945,-1792.8175 1443.1445,-1792.8175 C 1449.3109,-1792.8175 1454.5749,-1788.0207 1454.5749,-1781.5368 C 1454.5749,-1774.986 1449.3109,-1770.1732 1443.1445,-1770.1732 C 1436.8945,-1770.1732 1431.6305,-1774.986 1431.6305,-1781.5368" id="path4689" style="fill:#c92a28;fill-opacity:1;fill-rule:nonzero;stroke:none"/>
      <path d="M 815.43874,-1744.7561 L 774.98095,-1710.5984 C 774.98095,-1710.5984 758.88808,-1728.6799 757.63474,-1730.0837 C 756.231,-1728.8805 723.12613,-1700.8057 723.12613,-1700.8057 L 727.83868,-1747.4139 L 609.42319,-1647.6307 L 690.28864,-1686.4514 L 669.51663,-1512.1203 C 669.51663,-1512.1203 694.28261,-1493.8048 696.33809,-1492.4171 C 698.42699,-1509.0454 718.41357,-1668.7376 719.4998,-1677.4261 L 719.56664,-1677.7777 L 742.97902,-1697.5303 L 747.95896,-1692.6172 L 729.12545,-1533.5935 C 729.12545,-1533.5935 754.2925,-1514.8101 755.89677,-1513.7246 C 756.0806,-1515.2954 772.94219,-1659.4127 776.95287,-1693.787 L 800.21485,-1713.4728 L 805.16136,-1708.5771 L 786.97959,-1553.5132 L 813.75091,-1533.778 L 835.64257,-1722.4968 L 815.43874,-1744.7561 z" id="path4693" style="fill:#c92a28;fill-opacity:1;fill-rule:nonzero;stroke:none"/>
      <path d="M 881.16385,-1709.8792 L 853.22274,-1705.1332 L 849.76353,-1677.7603 L 877.67122,-1683.041 L 881.16385,-1709.8792 z M 1031.3473,-1698.3979 L 1020.1174,-1611.4677 L 1013.9175,-1604.8153 L 1003.4062,-1613.5398 L 1013.8507,-1695.291 L 985.89288,-1688.4889 L 975.13088,-1603.4289 L 966.87555,-1592.4329 L 958.05204,-1600.2364 L 968.54667,-1685.8325 L 940.48858,-1679.9662 L 931.1136,-1602.1254 L 919.48261,-1586.3166 L 911.27742,-1592.9677 L 929.39235,-1739.442 L 902.00271,-1735.0128 L 885.1077,-1594.2886 L 871.17056,-1575.1041 L 864.25213,-1580.8528 L 875.8497,-1666.6306 L 847.89187,-1660.9154 L 834.9407,-1561.4999 L 859.55629,-1542.1991 L 883.78751,-1574.937 L 909.10496,-1554.6817 L 933.48659,-1587.8367 L 959.62289,-1565.1108 L 985.40826,-1599.2351 L 1006.3641,-1580.7859 L 1042.6107,-1620.1735 L 1053.7403,-1703.2776 L 1031.3473,-1698.3979 z M 1097.6907,-1641.247 L 1086.4107,-1627.4101 L 1080.378,-1632.6066 L 1089.5691,-1704.9487 L 1104.7596,-1696.8939 L 1097.6907,-1641.247 z M 1343.3787,-1744.7882 L 1356.5972,-1729.4152 L 1340.1868,-1720.3738 L 1343.3787,-1744.7882 z M 1413.6492,-1759.1612 L 1425.815,-1744.6385 L 1410.7582,-1736.1158 L 1413.6492,-1759.1612 z M 1415.4373,-1702.1426 L 1407.3825,-1708.9099 L 1409.0369,-1722.1786 L 1446.6371,-1743.4526 L 1416.3063,-1781.0194 L 1388.6493,-1756.8711 L 1382.1486,-1704.6813 L 1345.3005,-1684.3953 L 1336.5271,-1691.5971 L 1338.3319,-1705.6345 L 1379.2075,-1728.1786 L 1346.2697,-1767.9339 L 1316.2063,-1742.3497 L 1309.856,-1692.8177 L 1296.5038,-1679.8819 L 1275.4811,-1721.3925 L 1322.5732,-1764.3577 L 1301.1996,-1761.2494 L 1265.7385,-1731.0529 L 1274.211,-1798.6825 L 1248.5761,-1795.1397 L 1234.2713,-1679.2977 L 1218.7466,-1662.2363 L 1215.0869,-1665.3111 L 1224.395,-1738.8056 L 1196.7881,-1732.4727 L 1188.1651,-1666.013 L 1175.8991,-1651.1734 L 1170.6685,-1655.7189 L 1179.9265,-1728.6118 L 1152.1191,-1723.081 L 1143.5128,-1654.9168 L 1130.6452,-1638.5384 L 1124.9968,-1643.4863 L 1134.5891,-1719.6051 L 1106.8485,-1713.6399 L 1106.2135,-1707.7228 L 1086.8452,-1717.065 L 1059.6227,-1682.3057 L 1051.7517,-1620.2243 L 1078.0718,-1597.8474 L 1102.2362,-1628.997 L 1122.9915,-1611.3661 L 1145.6519,-1640.4609 L 1165.1371,-1623.3994 L 1186.5274,-1651.4408 L 1206.9151,-1633.727 L 1234.522,-1663.7229 L 1255.5446,-1647.0625 L 1261.8448,-1697.9808 L 1283.9537,-1652.6266 L 1313.2818,-1681.2028 L 1332.3159,-1665.1774 L 1389.0169,-1696.4942 L 1403.5055,-1683.9942 L 1455.5776,-1714.4407 L 1456.998,-1725.6211 L 1415.4373,-1702.1426 z" id="path4697" style="fill:#c92a28;fill-opacity:1;fill-rule:nonzero;stroke:none"/>
    </g>
  </g>
</svg>