<svg xmlns="http://www.w3.org/2000/svg" width="956.693" height="467.008" version="1.0"><path d="m1495.25-1674.97-233.355 88.636 13.57-29.26-316.243 108.07 17.513-36.23-367.228 141.143 275.734-69.218-22.593 43.5 341.844-127.307-19.535 37.918zm-52.156-107.335c1.655 0 3.209-.134 3.209-2.14 0-1.621-1.504-1.905-2.874-1.905h-2.674v4.044zm-2.34 7.319h-2.005v-13.035h4.997c3.058 0 4.579 1.137 4.579 3.694 0 2.338-1.437 3.374-3.376 3.592l3.693 5.749h-2.189l-3.459-5.648h-2.24zm2.39 2.908c5.114 0 9.175-4.01 9.175-9.459 0-5.347-4.06-9.391-9.174-9.391-5.181 0-9.225 4.044-9.225 9.391 0 5.448 4.044 9.459 9.225 9.459m-11.514-9.459c0-6.484 5.264-11.28 11.514-11.28 6.166 0 11.43 4.796 11.43 11.28 0 6.551-5.264 11.364-11.43 11.364-6.25 0-11.514-4.813-11.514-11.364m-616.192 36.781-40.458 34.158s-16.093-18.082-17.346-19.486a69751 69751 0 0 1-34.509 29.278l4.713-46.608-118.416 99.783 80.866-38.82-20.772 174.33s24.766 18.316 26.821 19.704c2.089-16.628 22.076-176.32 23.162-185.01l.067-.35 23.412-19.753 4.98 4.913-18.834 159.024s25.168 18.783 26.772 19.868c.184-1.57 17.045-145.688 21.056-180.062l23.262-19.686 4.946 4.896-18.181 155.064 26.77 19.735 21.893-188.719zm65.725 34.876-27.941 4.747-3.46 27.373 27.908-5.281zm150.183 11.482-11.23 86.93-6.2 6.653-10.51-8.725 10.444-81.751-27.958 6.802-10.762 85.06-8.255 10.996-8.824-7.803 10.495-85.596-28.058 5.866-9.375 77.84-11.631 15.81-8.206-6.652 18.115-146.474-27.39 4.43-16.894 140.723-13.937 19.185-6.919-5.749 11.598-85.778-27.958 5.716-12.951 99.415 24.615 19.3 24.232-32.737 25.317 20.255 24.382-33.155 26.136 22.726 25.785-34.124 20.956 18.45 36.247-39.389 11.13-83.104zm66.344 57.151-11.28 13.837-6.033-5.197 9.191-72.342 15.19 8.055zm245.688-103.541 13.218 15.373-16.41 9.041zm70.27-14.373 12.166 14.523-15.057 8.522zm1.788 57.018-8.054-6.767 1.654-13.269 37.6-21.274-30.33-37.566-27.658 24.148-6.5 52.19-36.848 20.286-8.774-7.202 1.805-14.037 40.875-22.545-32.937-39.755-30.064 25.584-6.35 49.532-13.352 12.936-21.023-41.51 47.092-42.966-21.373 3.109-35.462 30.196 8.473-67.63-25.635 3.543-14.305 115.842-15.524 17.062-3.66-3.075 9.308-73.495-27.607 6.333-8.623 66.46-12.266 14.84-5.23-4.546 9.257-72.893-27.807 5.531-8.606 68.164-12.868 16.379-5.648-4.948 9.592-76.12-27.74 5.966-.635 5.917-19.369-9.342-27.222 34.76-7.871 62.08 26.32 22.378 24.164-31.15 20.755 17.63 22.66-29.094 19.486 17.062 21.39-28.042 20.388 17.714 27.607-29.996 21.023 16.66 6.3-50.918 22.109 45.354 29.328-28.576 19.034 16.026 56.7-31.317 14.49 12.5 52.072-30.447 1.42-11.18z" style="fill:#c92a28;fill-opacity:1;fill-rule:nonzero;stroke:none" transform="translate(-573.99 1834.15)"/></svg>