<svg xmlns="http://www.w3.org/2000/svg" xml:space="preserve" style="fill-rule:evenodd;clip-rule:evenodd;stroke-linejoin:round;stroke-miterlimit:2" viewBox="0 0 780 472"><path d="m0-5.55 14.992-14.712c1.557-1.528 4.098-1.528 5.652 0L35.639-5.55a3.88 3.88 0 0 1 0 5.55L20.644 14.712c-1.554 1.528-4.095 1.528-5.652 0L0 0a3.88 3.88 0 0 1 0-5.55" style="fill:#9d9c9c" transform="translate(239.285 178.4)scale(8.33333)"/><path d="m0-5.061 13.689-13.434c1.419-1.395 3.739-1.395 5.161 0L32.539-5.061a3.55 3.55 0 0 1 0 5.067L18.85 13.437c-1.422 1.392-3.742 1.392-5.161 0L0 .006a3.544 3.544 0 0 1 0-5.067" style="fill:#1d1d1b" transform="translate(243.548 167.065)scale(8.33333)"/><path d="m0 31.384-8.443-7.995 7.47 7.327a3.4 3.4 0 0 0 .973.668m17.445-14.262-8.15 8.286 7.469-7.33c.291-.285.518-.608.681-.956M2.912 0l8.44 7.998L3.883.668A3.5 3.5 0 0 0 2.912 0m-17.447 14.265 8.152-8.286-7.469 7.33a3.3 3.3 0 0 0-.683.956" style="fill:#0066b1" transform="translate(359.008 6.833)scale(8.33333)"/><path d="m0 31.84-15.141-14.343q.236.44.608.809l12.879 12.638c.473.462 1.048.76 1.654.896m16.997-15.157L2.381 31.539q.449-.228.821-.595l12.882-12.638c.47-.462.774-1.026.913-1.623M1.551 0 16.69 14.346a3.4 3.4 0 0 0-.606-.809L3.202.896A3.4 3.4 0 0 0 1.551 0m-16.999 15.16L-.83.301a3.5 3.5 0 0 0-.824.595l-12.879 12.641a3.3 3.3 0 0 0-.915 1.623" style="fill:#006db7" transform="translate(364.678 4.933)scale(8.33333)"/><path d="m0 31.381-8.443-7.995-5.409-5.311a3.3 3.3 0 0 1-.88-1.482L1.203 31.688A3.5 3.5 0 0 1 0 31.381m17.445-14.262-8.153 8.286-5.409 5.308a3.4 3.4 0 0 1-1.507.861l15.381-15.633c-.03.405-.135.804-.312 1.178M2.912-.003l8.44 7.998 5.412 5.311c.432.426.725.939.877 1.482L1.712-.307c.412.027.818.13 1.2.304m-17.447 14.265 8.152-8.286L-.973.665a3.44 3.44 0 0 1 1.51-.861l-15.382 15.638c.03-.407.133-.806.31-1.18" style="fill:#0076bf" transform="translate(359.008 6.858)scale(8.33333)"/><path d="m0 31.837-15.141-14.343a3.3 3.3 0 0 1-.371-1.183L.965 31.918A3.4 3.4 0 0 1 0 31.837M16.997 16.68 2.381 31.536a3.5 3.5 0 0 1-1.206.366L17.08 15.733c.019.317-.009.637-.083.947M1.551-.003 16.69 14.343c.202.372.326.776.373 1.186L.586-.084c.324-.016.65.011.965.081m-16.999 15.16L-.83.298A3.6 3.6 0 0 1 .379-.068l-15.91 16.172a3.4 3.4 0 0 1 .083-.947" style="fill:#007dc6" transform="translate(364.678 4.957)scale(8.33333)"/><path d="m0-.494 15.382-15.638c.384-.103.78-.141 1.175-.111L32.486-1.148c.105.374.144.765.116 1.153L17.221 15.638c-.382.103-.78.141-1.173.114L.113.657a3.4 3.4 0 0 1-.11-.622L.332.03l15.689-15.95L32.271-.521 16.582 15.426.332.03.003.035A3 3 0 0 1 0-.494" style="fill:#0084cb" transform="translate(235.298 139.659)scale(8.33333)"/><path d="m0 .375 15.91-16.172q.104-.01.207-.017L32.594-.2q.012.1.017.203l-15.905 16.17a3 3 0 0 1-.21.016L.019.581.008.47.769.456l15.265-15.515L31.845-.078 16.582 15.437.769.456.008.47z" style="fill:#008bd2" transform="translate(235.252 136.036)scale(8.33333)"/><path d="m0 .554 15.689-15.95L31.939.003 16.25 15.95zL.863.54l14.842-15.086L31.076.019l-14.84 15.084L.863.54z" style="fill:#008dd3" transform="translate(238.063 135.291)scale(8.33333)"/><path d="m0 .535 15.266-15.516L31.076 0 15.813 15.516zL.863.521l14.416-14.655L30.213.014 15.797 14.669.863.521z" style="fill:#0090d5" transform="translate(241.658 135.381)scale(8.33333)"/><path d="m0 .524 14.842-15.087L30.213.003l-14.84 15.084zL.863.508l13.993-14.224L29.35.016 15.357 14.237.863.508z" style="fill:#0094d7" transform="translate(245.254 135.428)scale(8.33333)"/><path d="m0 .51 14.417-14.655L29.35.002 14.934 14.655zL.863.494l13.57-13.792L28.485.019 14.92 13.808.863.494z" style="fill:#0095d8" transform="translate(248.849 135.476)scale(8.33333)"/><path d="M0 .494 13.993-13.73 28.487.003 14.494 14.224zL.863.48 14.01-12.883 27.622.019 14.48 13.377.863.48z" style="fill:#0098d9" transform="translate(252.444 135.542)scale(8.33333)"/><path d="m0 .477 13.57-13.792L27.622.002l-13.565 13.79zL.863.463l12.721-12.931L26.759.016 14.04 12.945.863.463z" style="fill:#009bdb" transform="translate(256.039 135.616)scale(8.33333)"/><path d="m0 .466 13.147-13.363L26.759.005 13.617 13.363zL.863.45l12.298-12.501L25.896.018 13.601 12.519.863.45z" style="fill:#009edd" transform="translate(259.634 135.662)scale(8.33333)"/><path d="m0 .451 12.721-12.932L25.896.003 13.178 12.932zL.863.435l11.875-12.069L25.033.019 13.164 12.088.863.435z" style="fill:#03a1dd" transform="translate(263.23 135.719)scale(8.33333)"/><path d="m0 .431 12.298-12.5L25.033-.001 12.738 12.5zL.863.417l11.452-11.64L24.17.016 12.724 11.653.863.417z" style="fill:#05a4df" transform="translate(266.825 135.818)scale(8.33333)"/><path d="m0 .415 11.875-12.069L24.17 0 12.301 12.069zL.866.401l11.023-11.208L23.308.013 12.284 11.222.866.401z" style="fill:#11a6e0" transform="translate(270.42 135.883)scale(8.33333)"/><path d="m0 .404 11.452-11.64L23.308.002 11.861 11.64zL.866.388l10.6-10.775L22.445.016l-10.6 10.777L.866.388z" style="fill:#2da9e1" transform="translate(274.015 135.93)scale(8.33333)"/><path d="M0 .389 11.023-10.82 22.442.001 11.419 11.209zL.863.373 11.04-9.97 21.579.017 11.405 10.363.863.373z" style="fill:#3dace3" transform="translate(277.633 135.987)scale(8.33333)"/><path d="m0 .369 10.6-10.774L21.579-.003l-10.6 10.777zL.863.355l9.754-9.914L20.716.013l-9.751 9.914L.863.355z" style="fill:#4bb0e4" transform="translate(281.228 136.086)scale(8.33333)"/><path d="M0 .353 10.177-9.99 20.716-.003 10.542 10.343zL.863.339l9.328-9.482L19.854.011l-9.329 9.483L.863.339z" style="fill:#55b2e5" transform="translate(284.823 136.152)scale(8.33333)"/><path d="m0 .342 9.754-9.914L19.854 0l-9.752 9.914zL.863.326l8.905-9.051L18.991.014l-8.905 9.051L.863.326z" style="fill:#60b6e7" transform="translate(288.418 136.198)scale(8.33333)"/><path d="m0 .328 9.328-9.482L18.991 0 9.663 9.482zL.863.314l8.482-8.622 8.78 8.324-8.476 8.619L.863.314z" style="fill:#6db9e8" transform="translate(292.014 136.247)scale(8.33333)"/><path d="m0 .312 8.905-9.051L18.128 0 9.223 9.051zL.863.298l8.059-8.19 8.34 7.905-8.053 8.191L.863.298z" style="fill:#77bde9" transform="translate(295.609 136.312)scale(8.33333)"/><path d="m0 .301 8.482-8.622 8.78 8.323-8.476 8.62zL.863.285l7.633-7.759 7.903 7.49-7.63 7.759L.863.285z" style="fill:#7ebfea" transform="translate(299.204 136.358)scale(8.33333)"/><path d="m0 .285 8.059-8.191L16.399 0 8.346 8.191zL.863.269l7.209-7.328L15.537.016 8.33 7.344.863.269z" style="fill:#85c3ec" transform="translate(302.799 136.424)scale(8.33333)"/><path d="M0 .269 7.633-7.49 15.537 0l-7.63 7.759zL.863.255l6.786-6.898 7.025 6.66-6.781 6.896L.863.255z" style="fill:#8fc6ec" transform="translate(306.394 136.489)scale(8.33333)"/><path d="m0 .253 7.21-7.328L14.674.001 7.467 7.328zL.863.239l6.363-6.467L13.811.014 7.453 6.481.863.239z" style="fill:#95c9ee" transform="translate(309.99 136.555)scale(8.33333)"/><path d="m0 .242 6.787-6.899 7.024 6.66L7.03 6.899zL.866.226 6.8-5.81 12.948.017 7.013 6.053.866.226z" style="fill:#9dcbef" transform="translate(313.585 136.602)scale(8.33333)"/><path d="m0 .225 6.363-6.467L12.948 0 6.59 6.467zL.866.209l5.511-5.602L12.085.016 6.574 5.62.866.209z" style="fill:#a3cff0" transform="translate(317.18 136.675)scale(8.33333)"/><path d="m0 .209 5.935-6.036L12.082 0 6.148 6.036zL.863.195l5.088-5.172L11.22.016 6.134 5.189.863.195z" style="fill:#abd3f2" transform="translate(320.798 136.741)scale(8.33333)"/><path d="m0 .19 5.512-5.602L11.22-.003 5.708 5.602zL.863.176l4.665-4.741L10.357.011 5.694 4.755.863.176z" style="fill:#b0d5f3" transform="translate(324.393 136.831)scale(8.33333)"/><path d="m0 .179 5.089-5.173L10.357 0 5.271 5.173zL.863.163l4.239-4.31L9.494.013l-4.24 4.31L.863.163z" style="fill:#b8d8f3" transform="translate(327.988 136.878)scale(8.33333)"/><path d="m0 .163 4.665-4.741L9.494-.003 4.831 4.741zL.863.147l3.816-3.879L8.631.014 4.815 3.892.863.147z" style="fill:#bfdcf5" transform="translate(331.583 136.943)scale(8.33333)"/><path d="m0 .15 4.24-4.31L8.631.001 4.392 4.31zL.863.136l3.393-3.449 3.51 3.33-3.388 3.447L.863.136z" style="fill:#c3e0f6" transform="translate(335.179 136.983)scale(8.33333)"/><path d="m0 .133 3.816-3.878L7.768 0 3.952 3.878zL.863.119l2.97-3.017L6.903.014 3.938 3.031.863.119z" style="fill:#cbe2f7" transform="translate(338.774 137.057)scale(8.33333)"/><path d="m0 .122 3.393-3.449 3.51 3.33-3.388 3.446zL.863.106l2.544-2.587L6.04.016 3.498 2.603.863.106z" style="fill:#d2e6f8" transform="translate(342.369 137.104)scale(8.33333)"/><path d="m0 .106 2.97-3.018L6.04 0 3.075 3.018zL.863.09l2.121-2.155L5.177.016 3.059 2.171.863.09z" style="fill:#d8e9f9" transform="translate(345.964 137.169)scale(8.33333)"/><path d="m0 .089 2.544-2.586L5.177-.001 2.636 2.586zL.863.075l1.698-1.726L4.317.016 2.622 1.739.863.075z" style="fill:#ddebf9" transform="translate(349.559 137.243)scale(8.33333)"/><path d="m0 .073 2.121-2.155L4.314 0 2.196 2.155zL.866.059l1.272-1.294L3.454.013 2.182 1.308.866.059z" style="fill:#e3effb" transform="translate(353.154 137.308)scale(8.33333)"/><path d="m0 .062 1.698-1.726L3.454.002 1.759 1.726zL.866.046l.846-.863.879.833-.849.863L.866.046z" style="fill:#e8f2fc" transform="translate(356.75 137.355)scale(8.33333)"/><path d="m0 .047 1.272-1.295L2.589.001 1.316 1.295zL.863.031l.423-.429.44.415-.423.432-.44-.418z" style="fill:#eef5fc" transform="translate(360.368 137.412)scale(8.33333)"/><path d="m0 .03.846-.863.88.833-.849.863zL.863.016z" style="fill:#f5fafe" transform="translate(363.963 137.486)scale(8.33333)"/><path d="M.125-.296h.616v.605H.125z" style="fill:#fff" transform="scale(8.33333 -8.33333)rotate(45.404 42.23 44.461)"/><path d="m0 22.135-5.954-5.642 5.268 5.17c.205.201.437.358.686.472m12.301-10.061-5.75 5.846 5.272-5.172c.204-.199.362-.429.478-.674M2.055 0l5.951 5.642L2.741.472A2.4 2.4 0 0 0 2.055 0m-12.304 10.061 5.747-5.843-5.269 5.17a2.3 2.3 0 0 0-.478.673" style="fill:#50504f" transform="translate(360.691 44.714)scale(8.33333)"/><path d="m0 22.455-10.68-10.118q.166.312.428.57l9.085 8.916A2.4 2.4 0 0 0 0 22.455m11.986-10.69L1.679 22.243q.315-.161.58-.42l9.082-8.916c.332-.325.545-.722.645-1.142M1.092 0l10.675 10.117a2.3 2.3 0 0 0-.426-.569L2.259.632A2.4 2.4 0 0 0 1.092 0m-11.988 10.69L-.586.212c-.21.108-.407.247-.581.42l-9.085 8.916a2.34 2.34 0 0 0-.644 1.142" style="fill:#585857" transform="translate(364.701 43.382)scale(8.33333)"/><path d="m0 22.135-5.954-5.642-3.817-3.745a2.36 2.36 0 0 1-.619-1.043L.846 22.349A2.4 2.4 0 0 1 0 22.135m12.301-10.061-5.75 5.846-3.81 3.743a2.4 2.4 0 0 1-1.065.608l10.846-11.027a2.3 2.3 0 0 1-.221.83M2.055 0l5.951 5.642 3.817 3.746c.304.298.511.659.616 1.042L1.206-.214c.293.019.581.092.849.214m-12.304 10.061 5.747-5.843L-.686.472A2.4 2.4 0 0 1 .379-.135L-10.47 10.891c.022-.285.094-.567.221-.83" style="fill:#5d5d5c" transform="translate(360.691 44.714)scale(8.33333)"/><path d="M0 22.455-10.68 12.34a2.3 2.3 0 0 1-.26-.836L.68 22.512a2.4 2.4 0 0 1-.68-.057m11.986-10.69L1.679 22.243a2.4 2.4 0 0 1-.852.258l11.217-11.404q.016.336-.058.668M1.092 0l10.675 10.117c.141.261.23.546.263.836L.412-.057q.344-.021.68.057m-11.988 10.69L-.586.212c.268-.139.556-.226.851-.258l-11.219 11.404a2.5 2.5 0 0 1 .058-.668" style="fill:#646363" transform="translate(364.701 43.382)scale(8.33333)"/><path d="M0-.353 10.849-11.38c.268-.073.55-.1.827-.078L22.909-.814c.075.266.103.542.083.814L12.146 11.027q-.408.11-.83.078L.08.461A2.3 2.3 0 0 1 .003.022L.235.019 11.3-11.23 22.757-.372 11.695 10.877.235.019.003.022A2.5 2.5 0 0 1 0-.353" style="fill:#696969" transform="translate(273.439 138.416)scale(8.33333)"/><path d="m0 .261 11.22-11.404q.072-.007.146-.011L22.984-.143q.01.07.014.143L11.781 11.404q-.076.009-.147.011L.014.408C.008.38.008.356.006.329L.542.321l10.766-10.946L22.456-.059 11.693 10.886.542.321.006.329z" style="fill:#70706f" transform="translate(273.416 135.855)scale(8.33333)"/><path d="m0 .391 11.065-11.249L22.522 0 11.46 11.249zL.608.38l10.468-10.641L21.914.011 11.449 10.652.608.38z" style="fill:#737372" transform="translate(275.398 135.314)scale(8.33333)"/><path d="m0 .38 10.766-10.945L21.914 0 11.15 10.945zL.608.369 10.777-9.968 21.305.011 11.139 10.348.608.369z" style="fill:#787777" transform="translate(277.933 135.361)scale(8.33333)"/><path d="m0 .369 10.467-10.641L21.305 0 10.841 10.641zL.608.358l9.87-10.031L20.697.011l-9.867 10.03L.608.358z" style="fill:#7c7c7c" transform="translate(280.468 135.408)scale(8.33333)"/><path d="M0 .358 10.169-9.979 20.697 0 10.531 10.337zL.608.347l9.569-9.727L20.089.011 10.52 9.737.608.347z" style="fill:#818180" transform="translate(283.003 135.453)scale(8.33333)"/><path d="M0 .348 9.87-9.683 20.089.001l-9.868 10.03zL.608.337l9.27-9.423L19.48.011l-9.27 9.423L.608.337z" style="fill:#868585" transform="translate(285.538 135.492)scale(8.33333)"/><path d="M0 .337 9.569-9.39 19.48 0 9.912 9.727zL.608.326 9.58-8.793 18.872.011 9.9 9.13.608.326z" style="fill:#8a8a89" transform="translate(288.073 135.538)scale(8.33333)"/><path d="m0 .326 9.27-9.423L18.872 0l-9.27 9.423zL.608.315 9.281-8.5 18.263.011 9.594 8.826.608.315z" style="fill:#8d8c8c" transform="translate(290.608 135.585)scale(8.33333)"/><path d="m0 .315 8.971-9.119L18.263 0 9.292 9.119zL.608.304l8.374-8.511 8.67 8.218-8.368 8.511L.608.304z" style="fill:#90908f" transform="translate(293.143 135.631)scale(8.33333)"/><path d="m0 .304 8.673-8.815L17.655 0l-8.67 8.815zL.608.293l8.076-8.207 8.36 7.925-8.07 8.207L.608.293z" style="fill:#959594" transform="translate(295.678 135.678)scale(8.33333)"/><path d="m0 .293 8.374-8.511L17.044 0 8.675 8.511zL.608.282l7.777-7.903 8.05 7.632-7.771 7.903L.608.282z" style="fill:#989898" transform="translate(298.213 135.724)scale(8.33333)"/><path d="m0 .282 8.075-8.207L16.435 0 8.366 8.207zL.611.271l7.475-7.599L15.827.011 8.355 7.61.611.271z" style="fill:#9d9c9c" transform="translate(300.748 135.771)scale(8.33333)"/><path d="m0 .271 7.777-7.903L15.827 0 8.056 7.903zL.611.26l7.177-7.295L15.219.01 8.045 7.306.611.26z" style="fill:#a2a1a1" transform="translate(303.283 135.817)scale(8.33333)"/><path d="m0 .261 7.475-7.599L15.216 0 7.743 7.599zL.608.253l6.878-6.994 7.121 6.75-6.875 6.993L.608.253z" style="fill:#a6a6a5" transform="translate(305.842 135.855)scale(8.33333)"/><path d="m0 .25 7.176-7.295L14.607 0 7.434 7.295zL.608.242l6.58-6.69L13.999.008l-6.576 6.69L.608.242z" style="fill:#a8a8a8" transform="translate(308.377 135.902)scale(8.33333)"/><path d="M0 .244 6.878-6.75 13.999 0 7.124 6.994zL.608.233l6.281-6.386L13.391.011 7.113 6.396.608.233z" style="fill:#acacab" transform="translate(310.912 135.929)scale(8.33333)"/><path d="m0 .234 6.579-6.69L13.391.001 6.814 6.69zL.608.223 6.59-5.856 12.782.011l-5.979 6.08L.608.223z" style="fill:#b1b1b0" transform="translate(313.447 135.967)scale(8.33333)"/><path d="m0 .223 6.28-6.386L12.782 0 6.504 6.386zL.608.212l5.684-5.775L12.174.011 6.493 5.787.608.212z" style="fill:#b5b5b4" transform="translate(315.982 136.013)scale(8.33333)"/><path d="m0 .211 5.982-6.079 6.192 5.867-5.979 6.08zL.608.2l5.385-5.471L11.565.01 6.184 5.481.608.2z" style="fill:#b9b9b8" transform="translate(318.517 136.068)scale(8.33333)"/><path d="m0 .201 5.683-5.775L11.565 0l-5.68 5.775zL.608.19l5.086-5.167L10.957.011 5.874 5.178.608.19z" style="fill:#bdbdbc" transform="translate(321.052 136.106)scale(8.33333)"/><path d="m0 .19 5.384-5.471L10.957 0 5.575 5.471zL.608.179l4.785-4.863L10.349.011 5.564 4.874.608.179z" style="fill:#c1c0c0" transform="translate(323.587 136.153)scale(8.33333)"/><path d="m0 .179 5.086-5.167L10.348 0 5.266 5.167zL.608.168l4.486-4.559L9.74.011 5.254 4.57.608.168z" style="fill:#c3c3c2" transform="translate(326.122 136.199)scale(8.33333)"/><path d="m0 .168 4.784-4.863L9.74 0 4.956 4.863zL.608.157l4.187-4.255L9.129.011 4.947 4.266.608.157z" style="fill:#c7c7c6" transform="translate(328.657 136.246)scale(8.33333)"/><path d="m0 .157 4.486-4.559L9.132 0 4.646 4.559zL.608.146l3.889-3.951L8.521.01 4.638 3.962.608.146z" style="fill:#cbcbca" transform="translate(331.192 136.292)scale(8.33333)"/><path d="m0 .146 4.187-4.255L8.521-.001 4.339 4.255zL.611.135l3.587-3.647L7.912.01 4.328 3.658.611.135z" style="fill:#cfcece" transform="translate(333.727 136.338)scale(8.33333)"/><path d="m0 .135 3.888-3.951L7.912-.001 4.029 3.951zL.611.124l3.288-3.343L7.304.01 4.018 3.354.611.124z" style="fill:#d2d2d2" transform="translate(336.262 136.385)scale(8.33333)"/><path d="m0 .125 3.587-3.648L7.301 0 3.717 3.648zL.608.114l2.99-3.039L6.693.011l-2.987 3.04L.608.114z" style="fill:#d6d6d6" transform="translate(338.82 136.423)scale(8.33333)"/><path d="M0 .114 3.288-3.23 6.693 0 3.407 3.344zL.608.103l2.691-2.735L6.084.011 3.396 2.747.608.103z" style="fill:#dadada" transform="translate(341.355 136.469)scale(8.33333)"/><path d="m0 .104 2.99-3.04L6.084.001 3.097 3.04zL.608.093l2.393-2.432L5.476.012l-2.39 2.431L.608.093z" style="fill:#dcdcdc" transform="translate(343.89 136.508)scale(8.33333)"/><path d="m0 .093 2.691-2.736L5.476.001 2.788 2.736zL.608.085l2.094-2.131L4.87.009l-2.093 2.13L.608.085z" style="fill:#e0e0e0" transform="translate(346.425 136.554)scale(8.33333)"/><path d="M0 .082 2.392-2.35 4.867.001 2.478 2.432zL.608.074 2.403-1.75 4.262.009 2.467 1.832.608.074z" style="fill:#e4e4e3" transform="translate(348.96 136.601)scale(8.33333)"/><path d="m0 .076 2.093-2.13L4.262 0 2.168 2.13zL.608.065l1.497-1.52L3.653.011l-1.496 1.52L.608.065z" style="fill:#e7e7e7" transform="translate(351.495 136.628)scale(8.33333)"/><path d="m0 .065 1.795-1.824L3.653 0 1.858 1.824zL.608.054l1.198-1.216L3.045.011 1.847 1.227.608.054z" style="fill:#ebebeb" transform="translate(354.03 136.674)scale(8.33333)"/><path d="m0 .054 1.496-1.52L3.045 0 1.549 1.52zL.608.043l.899-.912.929.88-.898.911-.93-.879z" style="fill:#eee" transform="translate(356.565 136.721)scale(8.33333)"/><path d="m0 .044 1.197-1.216L2.436.001 1.239 1.216zL.608.033l.601-.608.619.586-.6.608-.62-.586z" style="fill:#f3f3f3" transform="translate(359.1 136.758)scale(8.33333)"/><path d="m0 .033.899-.912.929.879-.899.912zL.608.022l.299-.304.31.293-.299.304-.31-.293z" style="fill:#f4f4f4" transform="translate(361.635 136.805)scale(8.33333)"/><path d="m0 .022.6-.608.62.586-.601.608zL.608.011z" style="fill:#f8f8f8" transform="translate(364.171 136.852)scale(8.33333)"/><path d="M.087-.207h.434v.426H.087z" style="fill:#fff" transform="scale(8.33333 -8.33333)rotate(45.475 41.92 44.288)"/><path d="M0 1.731v-.212L.904.409Q1 .292 1.087.203H.102V0h1.264v.203l-.99 1.202-.108.122h1.126v.204z" style="fill:#70706f;fill-rule:nonzero" transform="translate(323.494 127.902)scale(8.33333)"/><path d="M0 1.731v-.212L.904.409q.1-.117.186-.206H.102V0h1.264v.203l-.99 1.202-.108.122h1.129v.204z" style="fill:#70706f;fill-rule:nonzero" transform="translate(309.943 110.533)scale(8.33333)"/><path d="M0-.206h.304V0h-.506z" style="fill:#70706f;fill-rule:nonzero" transform="translate(304.735 107.338)scale(8.33333)"/><path d="M0 1.731v-.214L.904.409Q1 .288 1.087.203H.102V0h1.264v.203l-.99 1.2-.108.122h1.129v.206z" style="fill:#70706f;fill-rule:nonzero" transform="translate(365.138 128.422)scale(8.33333)"/><path d="M0 1.734V1.52L.902.412Q1 .291 1.087.206H.102V0h1.264v.206l-.993 1.2-.105.122h1.126v.206z" style="fill:#70706f;fill-rule:nonzero" transform="translate(351.611 111.028)scale(8.33333)"/><path d="M0 1.731v-.212L.904.409q.1-.117.183-.206H.102V0h1.264v.203l-.99 1.202-.108.122h1.129v.204z" style="fill:#70706f;fill-rule:nonzero" transform="translate(337.276 93.412)scale(8.33333)"/><path d="M0 1.406v-.212L.708.323 1.029 0h.238L.376 1.08l-.108.122h1.129v.204z" style="fill:#70706f;fill-rule:nonzero" transform="translate(322.964 78.502)scale(8.33333)"/><path d="M0 1.731v-.212L.904.409Q1 .292 1.087.203H.102V0h1.264v.203l-.99 1.202-.108.122h1.129v.204z" style="fill:#70706f;fill-rule:nonzero" transform="translate(406.759 128.92)scale(8.33333)"/><path d="M0 1.732V1.52L.904.41Q1 .293 1.087.204H.102V0h1.264v.204l-.99 1.202-.108.122h1.126v.204z" style="fill:#70706f;fill-rule:nonzero" transform="translate(393.231 111.543)scale(8.33333)"/><path d="M0 1.731v-.212L.904.409q.1-.119.183-.206H.105V0h1.261v.203l-.99 1.202-.105.122h1.123v.204z" style="fill:#70706f;fill-rule:nonzero" transform="translate(378.92 93.933)scale(8.33333)"/><path d="M0 1.468v-.214L.904.144Q.97.065 1.032 0h.284l-.94 1.14-.108.122h1.129v.206z" style="fill:#70706f;fill-rule:nonzero" transform="translate(364.608 78.507)scale(8.33333)"/><path d="M0 1.731v-.212L.904.409a3 3 0 0 1 .183-.206H.102V0h1.079c.036.07.08.168.124.276L.376 1.405l-.108.122h1.129v.074a1 1 0 0 1-.078.13z" style="fill:#70706f;fill-rule:nonzero" transform="translate(448.403 129.44)scale(8.33333)"/><path d="M0 1.731v-.214L.904.409a3 3 0 0 1 .183-.206H.102v-.03L.274 0h1.092v.203l-.99 1.202-.108.12h1.129v.206z" style="fill:#70706f;fill-rule:nonzero" transform="translate(280.698 127.653)scale(8.33333)"/><path d="M0-1.324h-.857v-.204h.65zM-.96.204v-.212l.905-1.11q.063-.078.121-.141l.158.155-.808.982-.107.12H.434v.206z" style="fill:#70706f;fill-rule:nonzero" transform="translate(442.872 124.796)scale(8.33333)"/><path d="M0-1.319h-.42v-.206h.213zM-.523.206v-.211L.304-1.02l.161.157-.614.744-.105.122H.871v.203z" style="fill:#70706f;fill-rule:nonzero" transform="translate(424.919 107.137)scale(8.33333)"/><path d="M0 .991V.779L.636 0l.158.158-.418.507-.108.122h1.129v.204z" style="fill:#70706f;fill-rule:nonzero" transform="translate(406.229 82.98)scale(8.33333)"/><path d="M0 1.715V.988L-.672 0h.279l.346.515Q.048.663.13.806.209.671.321.505L.661 0h.268L.232.988v.727z" style="fill:#70706f;fill-rule:nonzero" transform="translate(300.126 127.968)scale(8.33333)"/><path d="M-.055.287h.109L.287.055h-.342z" style="fill:#70706f;fill-rule:nonzero" transform="matrix(0 -8.33333 -8.33333 0 288.99 124.432)"/><path d="M0 1.718V.991L-.672 0h.279l.346.518Q.05.663.13.809A7 7 0 0 1 .321.505L.661 0h.268L.232.991v.727z" style="fill:#70706f;fill-rule:nonzero" transform="translate(341.77 128.462)scale(8.33333)"/><path d="M0 1.718V.991L-.675 0h.282l.346.518Q.048.663.13.809A7 7 0 0 1 .321.505L.661 0h.268L.232.991v.727z" style="fill:#70706f;fill-rule:nonzero" transform="translate(328.242 111.093)scale(8.33333)"/><path d="M0 1.715V.99L-.263.605-.1.442l.053.076Q.048.661.13.809.209.673.321.505L.658 0h.271L.23.99v.725z" style="fill:#70706f;fill-rule:nonzero" transform="translate(313.931 93.478)scale(8.33333)"/><path d="M0 1.715V.99L-.675 0h.282l.343.518q.097.143.18.291Q.209.673.321.505L.655 0h.271L.23.99v.725z" style="fill:#70706f;fill-rule:nonzero" transform="translate(383.437 128.985)scale(8.33333)"/><path d="M0 1.715V.988L-.672 0h.279l.346.518Q.048.661.13.809.209.671.321.505L.661 0h.268L.232.988v.727z" style="fill:#70706f;fill-rule:nonzero" transform="translate(369.886 111.616)scale(8.33333)"/><path d="M0 1.715V.988L-.675 0h.282l.346.515Q.048.663.13.806.209.671.321.505L.661 0h.268L.232.988v.727z" style="fill:#70706f;fill-rule:nonzero" transform="translate(355.574 93.998)scale(8.33333)"/><path d="M0 1.46V.733L-.501 0h.28l.174.26Q.046.405.13.551A7 7 0 0 1 .321.247L.487 0h.26L.23.733v.727z" style="fill:#70706f;fill-rule:nonzero" transform="translate(341.263 78.505)scale(8.33333)"/><path d="M0 1.715V.988L-.675 0h.282l.346.515Q.046.66.13.806A7 7 0 0 1 .321.502L.658 0h.271L.23.988v.727z" style="fill:#70706f;fill-rule:nonzero" transform="translate(425.058 129.506)scale(8.33333)"/><path d="M0 1.718V.991L-.672 0h.279l.346.518Q.048.663.13.809A7 7 0 0 1 .321.505L.661 0h.268L.232.991v.727z" style="fill:#70706f;fill-rule:nonzero" transform="translate(411.507 112.111)scale(8.33333)"/><path d="M0 1.718V.991L-.675 0h.282l.346.518Q.048.661.13.809.209.673.321.505L.661 0h.268L.232.991v.727z" style="fill:#70706f;fill-rule:nonzero" transform="translate(397.195 94.493)scale(8.33333)"/><path d="M0 1.52V.793L-.542 0h.279l.216.32Q.048.467.13.614.209.476.321.31L.528 0h.26L.232.793v.727z" style="fill:#70706f;fill-rule:nonzero" transform="translate(382.907 78.502)scale(8.33333)"/><path d="M0 1.685.666.808.08 0h.271l.31.431Q.759.566.799.64.858.548.938.447L1.283 0h.246L.926.795l.65.89h-.282l-.431-.6A2 2 0 0 1 .788.971l-.083.128-.431.586z" style="fill:#70706f;fill-rule:nonzero" transform="translate(308.676 128.218)scale(8.33333)"/><path d="M0 1.685.664.808.271.263.426.106l.235.325Q.758.566.799.64.856.547.935.447L1.28 0h.249L.924.795l.652.89h-.282l-.431-.6L.785.971l-.08.128-.431.586z" style="fill:#70706f;fill-rule:nonzero" transform="translate(295.148 110.848)scale(8.33333)"/><path d="M0 1.685.664.806.077 0h.271l.313.431q.097.135.135.206.059-.09.139-.19L1.28 0h.247L.924.792l.65.893h-.283L.86 1.082A1 1 0 0 1 .785.971a2 2 0 0 1-.083.125l-.431.589z" style="fill:#70706f;fill-rule:nonzero" transform="translate(350.343 128.737)scale(8.33333)"/><path d="M0 1.685.666.806.08 0h.268l.313.431q.098.135.138.206A3 3 0 0 1 .935.445L1.28 0h.249L.926.792l.65.893h-.282l-.431-.602L.785.971q-.054.091-.08.125l-.431.589z" style="fill:#70706f;fill-rule:nonzero" transform="translate(336.792 111.368)scale(8.33333)"/><path d="M0 1.685.664.808.077 0h.271l.313.434Q.758.567.799.64.856.548.935.447L1.28 0h.249L.924.795l.65.89h-.28l-.434-.6L.785.971l-.08.128-.431.586z" style="fill:#70706f;fill-rule:nonzero" transform="translate(322.481 93.728)scale(8.33333)"/><path d="M0-.087.064 0h-.153z" style="fill:#70706f;fill-rule:nonzero" transform="translate(320.752 90.153)scale(8.33333)"/><path d="M0 1.685.664.808.077 0h.271l.313.434Q.758.567.799.64.856.548.935.447L1.28 0h.247L.924.795l.65.89h-.28l-.434-.6A2 2 0 0 1 .785.971c-.038.063-.066.103-.083.128l-.431.586z" style="fill:#70706f;fill-rule:nonzero" transform="translate(391.963 129.235)scale(8.33333)"/><path d="M0 1.685.666.808.08 0h.271l.31.434Q.759.567.799.64.859.548.935.447L1.28 0h.247L.926.795l.648.89h-.283l-.428-.6A2 2 0 0 1 .788.971l-.083.128-.431.586z" style="fill:#70706f;fill-rule:nonzero" transform="translate(378.436 111.866)scale(8.33333)"/><path d="M0 1.685.664.806.08 0h.268l.313.431q.098.136.138.206.057-.09.136-.19L1.28 0h.249L.924.795l.652.89h-.282l-.431-.602Q.826 1.033.785.971q-.054.09-.08.128l-.431.586z" style="fill:#70706f;fill-rule:nonzero" transform="translate(364.124 94.248)scale(8.33333)"/><path d="M0 1.46.664.581.243 0h.269l.149.206q.097.135.138.206A3 3 0 0 1 .935.22L1.106 0h.249L.924.567l.65.893h-.28L.86.858A2 2 0 0 0 .785.746l-.08.125-.431.589z" style="fill:#70706f;fill-rule:nonzero" transform="translate(349.812 78.505)scale(8.33333)"/><path d="M0 1.685.664.806.077 0h.271l.313.431q.097.136.138.206.057-.09.136-.19L1.28 0h.247L.924.795l.65.89h-.28L.86 1.082.785.971l-.08.125-.431.589z" style="fill:#70706f;fill-rule:nonzero" transform="translate(433.607 129.756)scale(8.33333)"/><path d="M0 1.685.664.806.077 0h.271l.313.431q.097.136.135.206.059-.09.139-.19L1.28 0h.247L.924.795l.65.89h-.283L.86 1.083A1 1 0 0 1 .785.971a2 2 0 0 1-.083.125l-.431.589z" style="fill:#70706f;fill-rule:nonzero" transform="translate(420.08 112.386)scale(8.33333)"/><path d="M0 1.688.666.809.08 0h.271l.31.434Q.759.569.799.64.856.549.935.448L1.28 0h.249L.926.795l.65.893h-.282l-.431-.603L.788.974q-.058.091-.083.125l-.431.589z" style="fill:#70706f;fill-rule:nonzero" transform="translate(405.745 94.743)scale(8.33333)"/><path d="M0 1.52.664.643.199 0h.268l.194.266q.098.135.138.209Q.856.383.935.282L1.153 0h.249L.924.63l.652.89h-.282L.863.92.785.806l-.08.128-.431.586z" style="fill:#70706f;fill-rule:nonzero" transform="translate(391.433 78.502)scale(8.33333)"/><path d="M0-10.75h2.135V0H0l.268-5.857z" style="fill:#888887" transform="translate(357.095 170.757)scale(8.33333)"/><path d="M0-9.849C3.214-6.78 6.314-3.593 9.527-.521c1.051.6 1.875.195 2.246-.076L21.3-9.762l-9.403-.166.006 3.262H8.808v-3.229z" style="fill:#b3b3b3" transform="translate(280.445 226.596)scale(8.33333)"/><path d="M0-.29V0h-.05z" style="fill:#1d1d1b" transform="translate(355.459 170.617)scale(8.33333)"/><path d="M0-.581V0h-.102z" style="fill:#1d1d1b" transform="translate(355.897 170.622)scale(8.33333)"/><path d="M0-7.705h.011v.06zM-.091 0v-.291l.102-.583V0z" style="fill:#272726" transform="translate(356.22 170.621)scale(8.33333)"/><path d="M0-7.705h.064v.326l-.028-.133zM-.039 0v-.581l.103-.583V0z" style="fill:#343433" transform="translate(356.22 170.621)scale(8.33333)"/><path d="M0-7.585v-.06h.102v.578l-.077-.385zM0 .06v-.874l.102-.583V.06z" style="fill:#3d3c3c" transform="translate(356.312 170.118)scale(8.33333)"/><path d="M0-7.053v-.326h.102v.834zM0 .326V-.838l.077-.456.025-.046V.264Q.096.325.097.326z" style="fill:#484747" transform="translate(356.75 167.902)scale(8.33333)"/><path d="M0-6.549v-.578h.102v1.086zM0 .578V-.88l.028-.162.074-.155V.108C.058.393.047.578.047.578z" style="fill:#50504f" transform="translate(357.164 165.805)scale(8.33333)"/><path d="M0-5.976v-.833h.102v1.341zM0 .833V-.771l.102-.214V.144C.036.464.008.719 0 .833" style="fill:#585857" transform="translate(357.602 163.156)scale(8.33333)"/><path d="M0-5.064V-6.15h.102v1.594zm0 6.15V-.22l.102-.214v1.01C.058.766.025.939 0 1.086" style="fill:#626261" transform="translate(358.017 157.659)scale(8.33333)"/><path d="M0-4.271v-1.341h.102v1.849zm0 5.612V.212l.102-.214v.92A6 6 0 0 0 0 1.341" style="fill:#696969" transform="translate(358.455 153.177)scale(8.33333)"/><path d="M0-3.539v-1.593h.102v1.807l-.047.057zm0 5.132V.583L.102.369v.855q-.057.193-.102.369" style="fill:#737372" transform="translate(358.87 149.18)scale(8.33333)"/><path d="M0-2.834v-1.848h.102v1.742l-.099.122zm0 4.682v-.92L.102.713v.806A5 5 0 0 0 0 1.848" style="fill:#7c7c7c" transform="translate(359.308 145.431)scale(8.33333)"/><path d="M0-2.742v-1.807h.102v1.679zm0 4.549V.952L.102.737v.776A5 5 0 0 0 0 1.807" style="fill:#848483" transform="translate(359.722 144.325)scale(8.33333)"/><path d="M0-2.717v-1.742h.102v1.617zm0 4.459V.936L.102.722v.754A4 4 0 0 0 0 1.742" style="fill:#8a8a89" transform="translate(360.161 143.574)scale(8.33333)"/><path d="M0-2.703v-1.68h.102v1.552zM0 1.68V.904L.102.689v.744Q.049 1.556 0 1.68" style="fill:#939393" transform="translate(360.575 142.938)scale(8.33333)"/><path d="M0-2.7v-1.618h.102v1.49zm0 4.318V.863L.102.649v.741A3 3 0 0 0 0 1.618" style="fill:#989898" transform="translate(361.013 142.392)scale(8.33333)"/><path d="M0-2.712v-1.552h.102v1.427zm0 4.264V.808L.102.594v.749q-.053.101-.102.209" style="fill:#a2a1a1" transform="translate(361.428 141.949)scale(8.33333)"/><path d="M0-2.727v-1.49h.102v1.362zM0 1.49V.75L.102.535v.76Q.047 1.392 0 1.49" style="fill:#a8a8a8" transform="translate(361.866 141.554)scale(8.33333)"/><path d="M0-2.751v-1.428h.102v1.3zm0 4.179V.679L.102.465v.782A4 4 0 0 0 0 1.428" style="fill:#aeaeae" transform="translate(362.281 141.233)scale(8.33333)"/><path d="M0-2.788V-4.15h.102v1.237zm0 4.15v-.76L.102.387v.804a.3.3 0 0 0-.027.046c-.025.04-.053.084-.075.125" style="fill:#b6b6b6" transform="translate(362.718 140.999)scale(8.33333)"/><path d="M0-2.825v-1.3h.102v1.172zM0 1.3V.519L.102.304v.828l-.077.13z" style="fill:#bdbdbc" transform="translate(363.133 140.787)scale(8.33333)"/><path d="M0-2.865v-1.238h.102v1.11zm0 4.103V.435L.102.221v.841q-.053.094-.102.176" style="fill:#c4c4c4" transform="translate(363.572 140.601)scale(8.33333)"/><path d="M0-2.912v-1.172h.102v1.047zm0 4.084V.345L.102.13v.858z" style="fill:#cbcbca" transform="translate(363.986 140.449)scale(8.33333)"/><path d="M0-2.945v-1.11h.102v.982zM0 1.11V.268L.102.054v.863Q.049 1.02 0 1.11" style="fill:#d2d2d2" transform="translate(364.424 140.204)scale(8.33333)"/><path d="M0-2.977v-1.048h.102v.92zm0 4.025V.19l.102-.214v.871Q.051.95 0 1.048" style="fill:#d8d8d8" transform="translate(364.839 139.951)scale(8.33333)"/><path d="M0-3.007v-.982h.102v.857zM0 .982V.119l.102-.214v.874z" style="fill:#e0e0e0" transform="translate(365.277 139.658)scale(8.33333)"/><path d="M0-3.031v-.92h.102v.792zM0 .92V.049l.102-.214v.874A4 4 0 0 1 0 .92" style="fill:#e6e6e6" transform="translate(365.692 139.338)scale(8.33333)"/><path d="M0-3.053v-.858h.102v.73zM0 .858v-.874l.102-.215v.872Q.049.751 0 .858" style="fill:#ededed" transform="translate(366.129 139.001)scale(8.33333)"/><path d="M0-3.075v-.792h.102v.667zM0 .792v-.874l.102-.214V.57A5 5 0 0 1 0 .792" style="fill:#e9e9e9" transform="translate(366.544 138.642)scale(8.33333)"/><path d="M0-3.091v-.73h.102v.602zM0 .73v-.871l.102-.214v.857Q.049.616 0 .73" style="fill:#e6e6e6" transform="translate(366.982 138.255)scale(8.33333)"/><path d="M0-3.102v-.668h.102v.54zm0 3.77v-.866l.102-.214v.846A6 6 0 0 1 0 .668" style="fill:#e2e2e2" transform="translate(367.397 137.827)scale(8.33333)"/><path d="M0-3.118v-.603h.102v.478zM0 .603v-.858l.102-.214v.833Q.049.484 0 .603" style="fill:#dedede" transform="translate(367.835 137.417)scale(8.33333)"/><path d="M0-3.124v-.54h.102v.442l-.016-.005zM0 .54v-.847l.102-.214v.819A6 6 0 0 1 0 .54" style="fill:#dadada" transform="translate(368.249 136.947)scale(8.33333)"/><path d="M0-3.129v-.478h.102v.464Q.035-3.171.033-3.17zM0 .478v-.833L.102-.57v.801z" style="fill:#d6d6d6" transform="translate(368.688 136.468)scale(8.33333)"/><path d="M0-3.078v-.442h.102v.488A1 1 0 0 0 0-3.078m0 3.52v-.82l.102-.214V.19A9 9 0 0 1 0 .442" style="fill:#d0d0d0" transform="translate(369.102 135.749)scale(8.33333)"/><path d="M0-2.909v-.464h.102v.516Q.044-2.889 0-2.909M0 .464v-.8l.102-.215v.758z" style="fill:#ccc" transform="translate(369.54 134.522)scale(8.33333)"/><path d="M0-2.732v-.489h.102v.543zM0 .489v-.781L.075-.45q.002 0 .027-.084v.763A8 8 0 0 1 0 .489" style="fill:#c8c8c8" transform="translate(369.955 133.25)scale(8.33333)"/><path d="M0-2.548v-.516h.102v.576Q.047-2.525 0-2.548M0 .516v-.757l.022-.052s.033-.095.08-.247v.793z" style="fill:#c4c4c4" transform="translate(370.393 131.943)scale(8.33333)"/><path d="M0-2.364v-.543h.102v.611A1 1 0 0 0 0-2.364M0 .543V-.22c.025-.073.061-.19.102-.328v.822z" style="fill:#c1c0c0" transform="translate(370.808 130.636)scale(8.33333)"/><path d="M0-2.166v-.575h.102v.648A1 1 0 0 0 0-2.166M0 .575v-.792c.03-.095.064-.212.102-.34v.858z" style="fill:#bdbdbc" transform="translate(371.246 129.258)scale(8.33333)"/><path d="M0-1.959v-.611h.102v.692A1 1 0 0 0 0-1.959m0 2.57v-.822C.033-.32.069-.442.102-.567v.901z" style="fill:#b9b9b8" transform="translate(371.66 127.826)scale(8.33333)"/><path d="M0-1.745v-.649h.102v.747A1 1 0 0 0 0-1.745M0 .649v-.858c.033-.119.069-.247.102-.372v.947z" style="fill:#b5b5b4" transform="translate(372.098 126.36)scale(8.33333)"/><path d="M0-1.52v-.692h.102v.811A.7.7 0 0 0 0-1.52M0 .692v-.901c.036-.133.072-.269.102-.399V.404Q.055.54 0 .692" style="fill:#b1b1b0" transform="translate(372.513 124.847)scale(8.33333)"/><path d="M0-1.268v-.746h.102v.903A.6.6 0 0 0 0-1.268M0 .746v-.947c.041-.161.077-.318.102-.454V.453z" style="fill:#acacab" transform="translate(372.951 123.199)scale(8.33333)"/><path d="M0 2.616V1.604c.055-.234.091-.445.083-.567A.43.43 0 0 0 0 .811V0h.102v2.317A8 8 0 0 1 0 2.616" style="fill:#a8a8a8" transform="translate(373.366 106.415)scale(8.33333)"/><path d="M0 2.467V1.36c.022-.133.036-.245.03-.323A.4.4 0 0 0 0 .904V0h.102v2.163q-.044.136-.102.304" style="fill:#a3a3a3" transform="translate(373.803 106.412)scale(8.33333)"/><path d="M-1.108 1.21H1.21v-.102H-.793z" style="fill:#a0a09f" transform="matrix(0 -8.33333 -8.33333 0 384.302 116.493)"/><path d="M-1.031 1.133h2.164v-.102h-1.83c-.076.022-.19.055-.334.102" style="fill:#9b9b9a" transform="matrix(0 -8.33333 -8.33333 0 384.094 115.85)"/><path d="M0 2.003V0h.102v1.536A1.7 1.7 0 0 1 0 2.003" style="fill:#959594" transform="translate(375.071 106.412)scale(8.33333)"/><path d="M0 1.829V0h.102v.26s0 1.151-.088 1.517c-.006.017-.008.033-.014.052" style="fill:#90908f" transform="translate(375.509 106.414)scale(8.33333)"/><path d="M-.742.795H.795V.741h-.26s-.799 0-1.277.054" style="fill:#888887" transform="matrix(0 -8.33333 -8.33333 0 382.545 113.034)"/><path d="m0 .019.033.03L.017-.03z" style="fill:#787777" transform="translate(374.748 127.152)scale(8.33333)"/><path d="m0 5.178-.083-.071-.014.071zM1.806.117l.077.065L1.842 0q-.02.059-.036.117" style="fill:#7c7c7c" transform="translate(359.538 126.904)scale(8.33333)"/><path d="m0 5.129-.166-.144-.03.144zM1.726 0l.033.03q.021.073.047.208L1.687.135Q1.709.07 1.726 0" style="fill:#7f7f7e" transform="translate(360.368 127.312)scale(8.33333)"/><path d="m0 5.061-.083-.071q.017-.073.03-.143l.252.214zM1.806 0l.077.065.045.206-.161-.136z" style="fill:#848483" transform="translate(359.538 127.879)scale(8.33333)"/><path d="m0 4.994-.166-.144q.013-.07.031-.141l.334.285zM1.687 0l.119.103q.021.09.041.201L1.645.133z" style="fill:#868585" transform="translate(360.368 128.438)scale(8.33333)"/><path d="m0 4.926-.252-.214.034-.144.417.358zM1.568 0l.16.136q.019.094.036.201L1.527.133z" style="fill:#8a8a89" transform="translate(361.197 129.004)scale(8.33333)"/><path d="m0 4.861-.335-.285.031-.144.503.429zM1.446 0l.202.171.033.201-.276-.236z" style="fill:#8f8f8e" transform="translate(362.027 129.546)scale(8.33333)"/><path d="m0 4.793-.418-.358q.014-.07.031-.141l.586.499zM1.327 0l.238.204.033.198-.315-.269z" style="fill:#90908f" transform="translate(362.857 130.113)scale(8.33333)"/><path d="m0 4.725-.503-.429.033-.141.669.57zM1.206 0l.276.236q.017.095.031.193L1.162.13z" style="fill:#959594" transform="translate(363.687 130.679)scale(8.33333)"/><path d="m0 4.66-.586-.499.033-.139.752.638zM1.084 0l.315.269q.015.093.028.19L1.04.13q.023-.062.044-.13" style="fill:#989797" transform="translate(364.516 131.221)scale(8.33333)"/><path d="m0 4.595-.669-.57.036-.138.832.708zM.962 0l.352.299.025.19L.918.133Q.941.069.962 0" style="fill:#9b9b9a" transform="translate(365.346 131.762)scale(8.33333)"/><path d="m0 4.53-.752-.638.036-.141.84.717-.022.062zM.841 0l.387.329q.012.094.019.187L.796.133z" style="fill:#a0a09f" transform="translate(366.176 132.304)scale(8.33333)"/><path d="m0 4.462-.832-.708q.016-.07.036-.139l.846.719-.047.128zM.719 0l.42.356.02.184L.672.128z" style="fill:#a3a3a3" transform="translate(367.005 132.871)scale(8.33333)"/><path d="m0 4.334-.841-.716.039-.136.849.722q-.027.08-.047.13M.672 0l.451.383q.008.072.014.146c.002.014.002.024.002.038L.625.127C.642.087.655.043.672 0" style="fill:#a6a6a5" transform="translate(367.212 133.418)scale(8.33333)"/><path d="m0 4.204-.846-.719.036-.139.857.73zM.622 0l.487.41.003.054q.004.061.005.125L.575.128C.592.084.608.044.622 0" style="fill:#aaa" transform="translate(367.42 133.958)scale(8.33333)"/><path d="m0 4.076-.849-.722q.017-.069.039-.138l.86.732c-.02.047-.033.09-.05.128M.578 0l.514.439q.004.083.003.171L.531.13Q.552.065.578 0" style="fill:#acacab" transform="translate(367.604 134.482)scale(8.33333)"/><path d="m0 3.949-.857-.73.041-.136.863.736zM.528 0l.542.462q0 .078-.003.165L.481.128Q.505.066.528 0" style="fill:#b1b1b0" transform="translate(367.812 135.02)scale(8.33333)"/><path d="m0 3.818-.86-.733q.017-.066.039-.133l.868.738zM.481 0l.564.48q-.002.078-.008.16L.431.127z" style="fill:#b5b5b4" transform="translate(368.019 135.569)scale(8.33333)"/><path d="m0 3.691-.863-.735.042-.133.871.74zM.434 0l.586.499q-.004.078-.013.158L.384.128z" style="fill:#b6b6b6" transform="translate(368.203 136.084)scale(8.33333)"/><path d="m0 3.563-.868-.738a1 1 0 0 1 .044-.133l.874.743zM.384 0 .99.513Q.984.589.973.67L.335.124z" style="fill:#bababa" transform="translate(368.411 136.631)scale(8.33333)"/><path d="m0 3.436-.871-.741.041-.133.88.746zM.335 0l.622.529L.94.684.282.125z" style="fill:#bdbdbc" transform="translate(368.618 137.147)scale(8.33333)"/><path d="m0 3.311-.874-.744.044-.133.877.749q-.026.065-.047.128M.285 0l.639.545-.02.152L.232.125Q.256.064.285 0" style="fill:#c1c0c0" transform="translate(368.826 137.668)scale(8.33333)"/><path d="m0 3.183-.879-.746.047-.131.879.749zM.232 0l.659.559-.025.149L.18.124Q.208.064.232 0" style="fill:#c4c4c4" transform="translate(369.033 138.192)scale(8.33333)"/><path d="m0 3.059-.877-.749.045-.13.882.751zM.185 0l.672.573L.832.72.133.125z" style="fill:#c8c8c8" transform="translate(369.218 138.705)scale(8.33333)"/><path d="m0 2.931-.879-.749q.02-.066.047-.128l.885.752q-.029.063-.053.125M.133 0l.686.583L.791.73.08.125z" style="fill:#cbcbca" transform="translate(369.425 139.229)scale(8.33333)"/><path d="m0 2.806-.882-.752.05-.127.885.751q-.026.066-.053.128M.083 0l.7.594-.031.144L.028.122C.047.084.064.04.083 0" style="fill:#cfcece" transform="translate(369.633 139.751)scale(8.33333)"/><path d="m0 2.681-.885-.752.05-.127.885.751zM.028 0l.71.605-.027.144-.739-.627C-.008.081.008.04.028 0" style="fill:#d0d0d0" transform="translate(369.862 140.272)scale(8.33333)"/><path d="m0 2.557-.885-.752.05-.125.857.728.072-.084C.064 2.4.03 2.478 0 2.557M-.025 0 .7.617Q.686.689.669.76L-.08.123Q-.053.066-.025 0" style="fill:#d5d5d4" transform="translate(370.07 140.763)scale(8.33333)"/><path d="m0 2.432-.885-.752.05-.125.824.701.163-.185c-.047.109-.099.233-.152.361M-.077 0l.738.627-.033.141-.761-.646c.02-.04.036-.081.056-.122" style="fill:#d6d6d6" transform="translate(370.277 141.284)scale(8.33333)"/><path d="m0 2.117-.072.084-.857-.727q.024-.065.052-.125l.791.673.269-.304-.003.003c-.053.103-.114.244-.18.396M-.174-.084l.749.638Q.559.623.539.692L-.23.038c.02-.041.036-.079.056-.122" style="fill:#dadada" transform="translate(370.853 142.484)scale(8.33333)"/><path d="m0 1.764-.163.185-.824-.701.055-.125.758.644.365-.413a3 3 0 0 1-.094.204zM-.285-.185l.761.646L.44.6l-.747-.635-.111.125q.067-.131.133-.275" style="fill:#dedede" transform="translate(371.545 143.843)scale(8.33333)"/><path d="m0 1.376-.268.304-.791-.673.052-.125.725.616.44-.497q-.083.227-.158.375m-.412-1.68L.357.35.321.489l-.722-.614-.23.263q.102-.198.219-.442" style="fill:#e2e2e2" transform="translate(372.375 145.335)scale(8.33333)"/><path d="m0 .977-.365.413-.758-.644q.026-.06.056-.122l.688.586.501-.57C.083.765.039.877 0 .977M-.608-.288l.11-.125.747.636L.21.358l-.694-.589-.362.407q.109-.203.238-.464" style="fill:#e4e4e3" transform="translate(373.135 146.986)scale(8.33333)"/><path d="m0 .629-.44.497-.724-.616.058-.12.652.557.559-.633A5 5 0 0 1 0 .629m-.788-.863.229-.263.722.613-.039.136-.669-.567-.487.553q.102-.2.244-.472" style="fill:#e7e7e7" transform="translate(373.688 148.438)scale(8.33333)"/><path d="m0-.627.36-.407.694.589a5 5 0 0 1-.089.282l-.5.57-.689-.586.041-.092.045-.003.511-.581.589.502-.511.581-.589-.502-.045.003.009-.014q.07-.15.174-.342" style="fill:#e9e9e9" transform="translate(366.107 153.681)scale(8.33333)"/><path d="m0-.154.487-.554.669.568-.019.062-.559.632-.653-.556q.008-.016.014-.033l.136-.01.426-.484.492.418-.426.483-.492-.417-.136.01.008-.013Q-.028-.101 0-.154" style="fill:#ededed" transform="translate(365.093 151.707)scale(8.33333)"/><path d="m0 .079.512-.581.589.502-.512.581zL.183.065l.34-.388.395.337-.343.385L.183.065z" style="fill:#f1f1f1" transform="translate(364.954 150.737)scale(8.33333)"/><path d="m0 .065.426-.483L.918 0 .492.483zL.183.051.44-.236l.293.249-.255.291L.183.051z" style="fill:#f3f3f3" transform="translate(365.714 150.787)scale(8.33333)"/><path d="m0 .054.34-.388.396.336-.343.386zL.183.04l.171-.192.196.168-.168.193L.183.04z" style="fill:#f6f6f6" transform="translate(366.475 150.833)scale(8.33333)"/><path d="m0 .036.257-.288.293.25-.254.29zL.185.025l.083-.098.1.085-.086.095L.185.025z" style="fill:#f8f8f8" transform="translate(367.236 150.915)scale(8.33333)"/><path d="m0 .025.171-.193.197.169-.169.192zL.185.011z" style="fill:#fbfbfb" transform="translate(367.996 150.962)scale(8.33333)"/><path d="M.026-.058h.129v.131H.026z" style="fill:#fff" transform="scale(8.33333 -8.33333)rotate(49.737 41.78 38.677)"/><path d="M0 .027.053.003c-.02-.003-.034 0-.034 0z" style="fill:#676666" transform="translate(368.941 112.068)scale(8.33333)"/><path d="M0 .1.183.019C.122 0 .075.002.075.002z" style="fill:#6b6b6a" transform="translate(368.48 112.07)scale(8.33333)"/><path d="M.029.01h.058A.4.4 0 0 0 .19-.078l-.32-.001z" style="fill:#6e6e6d" transform="scale(8.33333 -8.33333)rotate(24.362 53.386 95.749)"/><path d="m0 4.727-.03.014v.046zM1.28.021l.183-.081c.03.01.066.024.099.051l-.387.177q.064-.085.105-.147" style="fill:#737372" transform="translate(357.81 112.728)scale(8.33333)"/><path d="m0 4.576-.061.03v.095zM1.197.008l.291-.133a.5.5 0 0 1 .083.063l-.476.217z" style="fill:#787777" transform="translate(358.063 113.443)scale(8.33333)"/><path d="m0 4.722-.03.014v-.098l.091-.044zM1.175.163l.387-.177a.3.3 0 0 1 .07.068l-.559.255q.058-.081.102-.146" style="fill:#7c7c7c" transform="translate(357.81 112.77)scale(8.33333)"/><path d="m0 4.608-.061.03V4.54l.125-.057zM1.095.187l.476-.217a.46.46 0 0 1 .119.255l.005.049L1.59.057.996.331q.05-.079.099-.144" style="fill:#7f7f7e" transform="translate(358.063 113.177)scale(8.33333)"/><path d="m0 4.497-.091.043v-.13l.011.025.144-.066zM1.012.212l.559-.255a.5.5 0 0 1 .088.219 1 1 0 0 1 .006.155L1.538.068.915.353z" style="fill:#848483" transform="translate(358.317 113.582)scale(8.33333)"/><path d="m0 4.369-.124.057v-.122q-.002-.001-.02-.109l.053.117.152-.071zM.932.217l.595-.274.105.217q.004.081-.009.195L1.482.062.835.358Q.884.285.932.217" style="fill:#868585" transform="translate(358.593 114.128)scale(8.33333)"/><path d="m0 4.237-.144.065-.011-.024v-.041s-.022-.098-.044-.263l.099.211.164-.073zM.852.22l.622-.285.127.264a2 2 0 0 1-.019.173l-.149-.32-.675.31Q.804.29.852.22" style="fill:#8a8a89" transform="translate(358.847 114.686)scale(8.33333)"/><path d="m0 4.108-.152.071-.053-.117a4 4 0 0 1-.044-.301l.141.298.172-.079zM.774.224l.647-.295.142.293q-.008.076-.023.165L1.38.045l-.7.32z" style="fill:#8f8f8e" transform="translate(359.1 115.24)scale(8.33333)"/><path d="m0 3.987-.163.073-.1-.211q-.018-.123-.036-.283l.18.375.18-.082zM.694.236l.675-.309.149.32q-.009.074-.022.158L1.325.046.6.377z" style="fill:#90908f" transform="translate(359.377 115.728)scale(8.33333)"/><path d="m0 3.856-.171.079-.142-.299A5 5 0 0 1-.34 3.37l.213.448.191-.087zM.617.241l.699-.32.161.342q-.012.074-.028.152L1.272.04.525.382z" style="fill:#959594" transform="translate(359.631 116.278)scale(8.33333)"/><path d="m0 3.732-.18.081-.18-.374-.019-.255.243.513.2-.093zM.539.25l.725-.331.171.358-.03.152L1.22.036.451.388Q.497.319.539.25" style="fill:#989797" transform="translate(359.884 116.791)scale(8.33333)"/><path d="m0 3.604-.191.087-.213-.448-.016-.241.273.569.211-.095zM.462.255l.747-.342.177.375q-.012.072-.028.146L1.164.03.376.391z" style="fill:#9b9b9a" transform="translate(360.161 117.337)scale(8.33333)"/><path d="m0 3.477-.199.092-.243-.513q-.008-.111-.012-.23l.299.624.219-.101zM.387.261l.769-.353.185.394-.03.144-.199-.418-.811.371Q.347.33.387.261" style="fill:#a0a09f" transform="translate(360.414 117.853)scale(8.33333)"/><path d="m0 3.352-.21.095-.274-.57a6 6 0 0 1-.006-.225l.324.678.23-.106zM.312.266l.789-.361.193.405-.033.144-.205-.429-.829.38Q.272.335.312.266" style="fill:#a3a3a3" transform="translate(360.691 118.374)scale(8.33333)"/><path d="m0 3.222-.218.1-.299-.624q-.004-.106-.003-.217l.346.725.238-.109zM.238.272l.81-.372.199.418-.033.139-.21-.44-.846.391z" style="fill:#a6a6a5" transform="translate(360.944 118.915)scale(8.33333)"/><path d="m0 3.094-.23.106-.323-.679v-.209l.365.768.249-.114zM.163.274l.83-.38.204.429-.033.138-.215-.45-.866.396Q.125.341.163.274" style="fill:#aaa" transform="translate(361.221 119.461)scale(8.33333)"/><path d="m0 2.971-.238.109-.346-.725q0-.097.003-.204l.385.809.26-.117zM.094.281l.846-.39.21.439q-.016.07-.036.139L.899.01.014.414z" style="fill:#acacab" transform="translate(361.474 119.966)scale(8.33333)"/><path d="m0 2.841-.249.114-.365-.768c.003-.065.003-.13.008-.195l.401.846.269-.125zM.022.282l.866-.396.215.45-.036.136L.846.005l-.899.41z" style="fill:#b1b1b0" transform="translate(361.728 120.507)scale(8.33333)"/><path d="m0 2.716-.26.117-.384-.809q.003-.092.011-.187l.417.879.28-.128zM-.05.287l.885-.404.216.458q-.016.067-.036.133L.791-.001-.124.42z" style="fill:#b5b5b4" transform="translate(362.004 121.028)scale(8.33333)"/><path d="m0 2.584-.268.125-.401-.847q.003-.09.011-.184l.434.911.288-.133zM-.116.285l.899-.41.221.467a2 2 0 0 0-.036.131l-.23-.481-.929.426z" style="fill:#b6b6b6" transform="translate(362.257 121.585)scale(8.33333)"/><path d="m0 2.461-.279.128-.418-.88q.004-.069.011-.138l.003-.041.448.939.299-.136zM-.188.293l.915-.421.224.475-.036.13-.232-.486-.943.432z" style="fill:#bababa" transform="translate(362.534 122.09)scale(8.33333)"/><path d="m0 2.331-.288.133-.434-.912.006-.046A1 1 0 0 1-.7 1.389l.457.958.309-.141zM-.254.293l.929-.426.229.48-.038.13-.235-.491-.955.437z" style="fill:#bdbdbc" transform="translate(362.788 122.631)scale(8.33333)"/><path d="m0 2.206-.299.136-.448-.939q.012-.07.028-.15l.465.972.318-.147zM-.324.295l.943-.431.233.486C.838.396.824.436.813.48L.575-.019-.39.423z" style="fill:#c1c0c0" transform="translate(363.064 123.153)scale(8.33333)"/><path d="m0 2.079-.31.141-.456-.958q.012-.07.033-.144l.468.983.329-.15zM-.39.296l.954-.437.235.491-.041.128L.52-.024l-.974.448q.03-.066.064-.128" style="fill:#c4c4c4" transform="translate(363.341 123.69)scale(8.33333)"/><path d="m0 1.951-.318.147-.465-.972q.017-.066.039-.136l.47.988.338-.155q-.03.065-.064.128M-.454.296l.966-.443.237.499-.041.125-.241-.504-.984.45q.032-.062.063-.127" style="fill:#c8c8c8" transform="translate(363.594 124.214)scale(8.33333)"/><path d="m0 1.827-.329.149-.467-.982q.017-.062.038-.128l.47.994.352-.161q-.033.063-.064.128M-.517.299l.973-.448.238.502Q.677.418.655.478L.412-.029l-.99.453Q-.55.362-.517.299" style="fill:#cbcbca" transform="translate(363.871 124.728)scale(8.33333)"/><path d="m0 1.696-.337.155-.471-.988Q-.79.801-.769.741l.473.993.362-.166zm-.581-1.4.985-.451.24.505-.041.122-.243-.51-.999.458q.03-.06.058-.124" style="fill:#cfcece" transform="translate(364.124 125.276)scale(8.33333)"/><path d="m0 1.569-.351.16-.47-.993q.018-.058.041-.12l.473.994.371-.169zM-.642.293l.99-.453.244.508-.044.119-.241-.51L-.7.418q.03-.06.058-.125" style="fill:#d0d0d0" transform="translate(364.401 125.814)scale(8.33333)"/><path d="m0 1.441-.362.166-.473-.994.044-.119.473.993.382-.174q-.033.063-.064.128M-.705.293l.998-.459.244.511a1 1 0 0 1-.045.119l-.24-.51-1.01.461q.024-.061.053-.122" style="fill:#d5d5d4" transform="translate(364.678 126.338)scale(8.33333)"/><path d="m0 1.317-.371.168-.472-.993q.017-.049.038-.098l.02.008.459.967.392-.18q-.033.06-.066.128M-.763.294.243-.168l.241.511Q.462.407.44.459L.199-.048l-.984.45-.02-.008z" style="fill:#d6d6d6" transform="translate(364.931 126.852)scale(8.33333)"/><path d="m0 1.186-.382.174-.473-.994.017-.038.08.03.421.885.403-.185zM-.821.288.188-.174l.241.511-.045.114-.24-.508-.902.415-.08-.03z" style="fill:#dadada" transform="translate(365.208 127.401)scale(8.33333)"/><path d="m0-.515.985-.451.24.508-.047.109-.238-.5-.821.377zl.459.966.393-.179.063-.13-.412.19-.384-.804z" style="fill:#dedede" transform="translate(358.386 134.497)scale(8.33333)"/><path d="m0-.47.902-.415.24.507-.05.103-.235-.491-.738.339zl.42.885L.824.23.888.103.465.295.119-.427z" style="fill:#e2e2e2" transform="translate(358.893 134.303)scale(8.33333)"/><path d="m0-.426.821-.377.238.499c-.011.027-.025.049-.033.065l-.019.033-.23-.478-.655.299zl.384.803.412-.19A2 2 0 0 0 .863.06L.429.261.122-.385z" style="fill:#e4e4e3" transform="translate(359.377 134.117)scale(8.33333)"/><path d="m0-.383.738-.339.235.491-.008.014c-.014.019-.027.046-.047.081l-.224-.47-.572.264zl.346.722.423-.193.069-.13L.39.222.122-.342z" style="fill:#e7e7e7" transform="translate(359.884 133.939)scale(8.33333)"/><path d="m0-.347.655-.299.23.478Q.861-.128.83-.07L.611-.529l-.492.225zl.307.646.434-.201Q.78.029.81-.032L.351.18.119-.304z" style="fill:#e9e9e9" transform="translate(360.391 133.798)scale(8.33333)"/><path d="m0-.301.572-.263.224.469-.08.152-.448.206zl.119.043.409-.187.194.402L.31.144.119-.258z" style="fill:#ededed" transform="translate(360.898 133.595)scale(8.33333)"/><path d="m0-.258.492-.225.219.458-.02.038L.23.225zl.122.043.329-.149.152.32-.329.152-.152-.323z" style="fill:#f1f1f1" transform="translate(361.382 133.418)scale(8.33333)"/><path d="m0-.215.409-.187.194.401-.412.188zl.122.043.246-.114.113.242L.235.07.122-.172z" style="fill:#f3f3f3" transform="translate(361.889 133.241)scale(8.33333)"/><path d="m0-.174.329-.149.152.32-.329.152zl.119.043.166-.076.075.163L.196.03.119-.131z" style="fill:#f6f6f6" transform="translate(362.396 133.08)scale(8.33333)"/><path d="m0-.128.246-.114L.36 0 .113.114zl.119.043.083-.038.039.082-.083.035-.039-.079z" style="fill:#f8f8f8" transform="translate(362.903 132.878)scale(8.33333)"/><path d="M0-.084.166-.16l.075.163-.164.073zl.122.043z" style="fill:#fbfbfb" transform="translate(363.387 132.692)scale(8.33333)"/><path d="M.014-.066h.093v.09H.014z" style="fill:#fff" transform="scale(8.33333 -8.33333)rotate(24.6 58.267 92.188)"/><path d="M-.023.011H1.04s.038.643-.008 1.219c-.044.577-.16.95-.16.95z" style="fill:#9d9c9c" transform="scale(8.33334 -8.33334)rotate(1.187 1007.963 2124.96)"/><path d="M77.436 490.973h.05v3.954h-.05z" style="fill:#1d1d1b" transform="translate(-289.083 -4017.98)scale(8.33333)"/><path d="M77.436 490.973h.097v3.954h-.097z" style="fill:#1d1d1b" transform="translate(-289.083 -4017.98)scale(8.33333)"/><path d="M77.486 490.973h.094v3.954h-.094z" style="fill:#272726" transform="translate(-289.083 -4017.98)scale(8.33333)"/><path d="M77.533 490.973h.097v3.954h-.097z" style="fill:#343433" transform="translate(-289.083 -4017.98)scale(8.33333)"/><path d="M77.58 490.973h.097v3.954h-.097z" style="fill:#3d3c3c" transform="translate(-289.083 -4017.98)scale(8.33333)"/><path d="M77.63 490.973h.097v3.954h-.097z" style="fill:#484747" transform="translate(-289.083 -4017.98)scale(8.33333)"/><path d="M77.677 490.973h.097v3.954h-.097z" style="fill:#50504f" transform="translate(-289.083 -4017.98)scale(8.33333)"/><path d="M77.727 490.973h.097v3.954h-.097z" style="fill:#585857" transform="translate(-289.083 -4017.98)scale(8.33333)"/><path d="M77.774 490.973h.097v3.954h-.097z" style="fill:#626261" transform="translate(-289.083 -4017.98)scale(8.33333)"/><path d="M77.824 490.973h.097v3.954h-.097z" style="fill:#696969" transform="translate(-289.083 -4017.98)scale(8.33333)"/><path d="M77.871 490.973h.097v3.954h-.097z" style="fill:#737372" transform="translate(-289.083 -4017.98)scale(8.33333)"/><path d="M77.92 490.973h.097v3.954h-.097z" style="fill:#7c7c7c" transform="translate(-289.083 -4017.98)scale(8.33333)"/><path d="M77.967 490.973h.097v3.954h-.097z" style="fill:#848483" transform="translate(-289.083 -4017.98)scale(8.33333)"/><path d="M78.017 490.973h.097v3.954h-.097z" style="fill:#8a8a89" transform="translate(-289.083 -4017.98)scale(8.33333)"/><path d="M78.064 490.973h.097v3.954h-.097z" style="fill:#939393" transform="translate(-289.083 -4017.98)scale(8.33333)"/><path d="M78.114 490.973h.097v3.954h-.097z" style="fill:#989898" transform="translate(-289.083 -4017.98)scale(8.33333)"/><path d="M78.161 490.973h.097v3.954h-.097z" style="fill:#a2a1a1" transform="translate(-289.083 -4017.98)scale(8.33333)"/><path d="M78.211 490.973h.097v3.954h-.097z" style="fill:#a8a8a8" transform="translate(-289.083 -4017.98)scale(8.33333)"/><path d="M78.258 490.973h.097v3.954h-.097z" style="fill:#aeaeae" transform="translate(-289.083 -4017.98)scale(8.33333)"/><path d="M78.307 490.973h.097v3.954h-.097z" style="fill:#b6b6b6" transform="translate(-289.083 -4017.98)scale(8.33333)"/><path d="M78.355 490.973h.097v3.954h-.097z" style="fill:#bdbdbc" transform="translate(-289.083 -4017.98)scale(8.33333)"/><path d="M78.404 490.973h.097v3.954h-.097z" style="fill:#c4c4c4" transform="translate(-289.083 -4017.98)scale(8.33333)"/><path d="M78.451 490.973h.097v3.954h-.097z" style="fill:#cbcbca" transform="translate(-289.083 -4017.98)scale(8.33333)"/><path d="M78.501 490.973h.094v3.954h-.094z" style="fill:#d2d2d2" transform="translate(-289.083 -4017.98)scale(8.33333)"/><path d="M78.548 490.973h.097v3.954h-.097z" style="fill:#d8d8d8" transform="translate(-289.083 -4017.98)scale(8.33333)"/><path d="M78.595 490.973h.097v3.954h-.097z" style="fill:#e0e0e0" transform="translate(-289.083 -4017.98)scale(8.33333)"/><path d="M78.645 490.973h.097v3.954h-.097z" style="fill:#e6e6e6" transform="translate(-289.083 -4017.98)scale(8.33333)"/><path d="M78.692 490.973h.097v3.954h-.097z" style="fill:#ededed" transform="translate(-289.083 -4017.98)scale(8.33333)"/><path d="M78.742 490.973h.097v3.954h-.097z" style="fill:#e6e6e6" transform="translate(-289.083 -4017.98)scale(8.33333)"/><path d="M78.789 490.973h.097v3.954h-.097z" style="fill:#dedede" transform="translate(-289.083 -4017.98)scale(8.33333)"/><path d="M78.838 490.973h.097v3.954h-.097z" style="fill:#d8d8d8" transform="translate(-289.083 -4017.98)scale(8.33333)"/><path d="M78.885 490.973h.097v3.954h-.097z" style="fill:#d0d0d0" transform="translate(-289.083 -4017.98)scale(8.33333)"/><path d="M78.935 490.973h.097v3.954h-.097z" style="fill:#c8c8c8" transform="translate(-289.083 -4017.98)scale(8.33333)"/><path d="M78.982 490.973h.097v3.954h-.097z" style="fill:#c1c0c0" transform="translate(-289.083 -4017.98)scale(8.33333)"/><path d="M79.032 490.973h.097v3.954h-.097z" style="fill:#bababa" transform="translate(-289.083 -4017.98)scale(8.33333)"/><path d="M79.079 490.973h.097v3.954h-.097z" style="fill:#b3b3b3" transform="translate(-289.083 -4017.98)scale(8.33333)"/><path d="M79.129 490.973h.097v3.954h-.097z" style="fill:#aaa" transform="translate(-289.083 -4017.98)scale(8.33333)"/><path d="M79.176 490.973h.097v3.954h-.097z" style="fill:#a3a3a3" transform="translate(-289.083 -4017.98)scale(8.33333)"/><path d="M79.226 490.973h.097v3.954h-.097z" style="fill:#9b9b9a" transform="translate(-289.083 -4017.98)scale(8.33333)"/><path d="M79.273 490.973h.097v3.954h-.097z" style="fill:#939393" transform="translate(-289.083 -4017.98)scale(8.33333)"/><path d="M79.322 490.973h.097v3.954h-.097z" style="fill:#8a8a89" transform="translate(-289.083 -4017.98)scale(8.33333)"/><path d="M79.369 490.973h.097v3.954h-.097z" style="fill:#848483" transform="translate(-289.083 -4017.98)scale(8.33333)"/><path d="M79.419 490.973h.094v3.954h-.094z" style="fill:#7a7a7a" transform="translate(-289.083 -4017.98)scale(8.33333)"/><path d="M79.466 490.973h.097v3.954h-.097z" style="fill:#70706f" transform="translate(-289.083 -4017.98)scale(8.33333)"/><path d="M79.513 490.973h.097v3.954h-.097z" style="fill:#676666" transform="translate(-289.083 -4017.98)scale(8.33333)"/><path d="M79.563 490.973h.097v3.954h-.097z" style="fill:#5f5f5e" transform="translate(-289.083 -4017.98)scale(8.33333)"/><path d="M79.61 490.973h.097v3.954h-.097z" style="fill:#555554" transform="translate(-289.083 -4017.98)scale(8.33333)"/><path d="M79.66 490.973h.097v3.954h-.097z" style="fill:#4b4a4a" transform="translate(-289.083 -4017.98)scale(8.33333)"/><path d="M79.707 490.973h.097v3.954h-.097z" style="fill:#40403f" transform="translate(-289.083 -4017.98)scale(8.33333)"/><path d="M79.757 490.973h.097v3.954h-.097z" style="fill:#373736" transform="translate(-289.083 -4017.98)scale(8.33333)"/><path d="M79.804 490.973h.05v3.954h-.05z" style="fill:#1d1d1b" transform="translate(-289.083 -4017.98)scale(8.33333)"/><path d="M.014-.032h9.768l-4.02 3.648c-.471.385-1.441.684-2.201-.121z" style="fill:#b3b3b3" transform="matrix(8.33315 .05545 .05545 -8.33315 328.817 80.789)"/><path d="M0 3.612h-.503q.038-.847.038-1.783 0-.924-.038-1.609H0a40 40 0 0 0 0 3.392m3.1 0h-.484q.058-.687.058-1.495 0-.403-.166-.549-.165-.15-.473-.149-.377 0-.696.269c0 .591.005 1.235.011 1.924H.866q.046-.886.047-1.284c0-.404-.042-.8-.119-1.18l.467-.068.05.32h.022q.395-.35.843-.35.44-.001.684.19.24.192.24.684l-.005.193c-.003.1-.006.162-.006.198 0 .287.003.722.011 1.297m1.82-2.567v.325a.74.74 0 0 0-.517.283q-.221.294-.222.735 0 .4.211.668a.69.69 0 0 0 .528.271v.353l-.111.003a1 1 0 0 1-.802-.361 1.32 1.32 0 0 1-.298-.869q0-.575.331-.99.316-.399.88-.418m4.107 2.564-.412.017a1 1 0 0 1-.036-.242h-.028q-.352.293-.857.293-.459 0-.667-.217-.208-.219-.21-.877l.005-.279q.008-.187.006-.253 0-.382-.044-.903l.495-.017a13 13 0 0 0-.033.861q0 .82.107 1.069.108.248.484.247.425 0 .703-.206.001-1.45-.028-1.954l.479-.017q-.021.489-.022 1.355 0 .553.058 1.123M8.758-.063q0 .033-.365.416-.368.387-.368.428h-.318q.001-.041.238-.428.241-.387.241-.416zm2.63 2.969q0 .759-.99.76-.438 0-.818-.087l.083-.382q.343.13.749.13.578.001.578-.323a.3.3 0 0 0-.127-.247 2 2 0 0 0-.429-.209q-.375-.146-.545-.282a.6.6 0 0 1-.251-.483q0-.298.229-.51.23-.212.694-.212.46-.001.736.076l-.083.374a1.8 1.8 0 0 0-.664-.111q-.51 0-.511.288 0 .147.116.236.113.09.445.217c.238.092.415.185.531.271q.258.207.257.494m2.047.345-.033.339a1.1 1.1 0 0 1-.396.076q-.474.001-.65-.239-.176-.236-.177-.852 0-.399.006-1.042-.149 0-.437.016l.014-.377q.253.016.453.016 0-.157.025-.743l.418-.041q-.046.547-.045.784.258 0 .764-.027l-.02.388q-.476-.015-.766-.016-.004.395-.005.888 0 .536.116.711.115.171.426.171.103 0 .307-.052m2.099-2.114-.119.412a1.1 1.1 0 0 0-.384-.078q-.502 0-.65.464 0 1.2.016 1.677h-.47q.043-.827.044-1.284c0-.409-.044-.806-.127-1.18l.465-.068q.053.289.052.385h.02q.288-.415.669-.415.202-.001.484.087m.805 2.475h-.482q.038-.522.039-1.191.001-.752-.094-1.265l.531-.071q-.03.546-.03 1.336 0 .626.036 1.191M4.92 3.68v-.353h.058q.469 0 .677-.231.001-.811-.044-1.563a.84.84 0 0 0-.536-.174 1 1 0 0 0-.155.011v-.325h.055q.43 0 .617.171h.019q0-.647-.036-1.268l.504-.019q-.05.66-.05 1.734 0 1.088.055 1.946l-.395.014a1.3 1.3 0 0 1-.022-.239h-.028q-.25.268-.719.296m13.042-2.63v.372q-.049-.004-.102-.003-.416 0-.819.103l.044-.361q.385-.106.877-.111m0 1.381a2 2 0 0 0-.169.036q-.432.13-.434.499 0 .353.509.353.05 0 .094-.003v.339a2 2 0 0 1-.29.022.82.82 0 0 1-.526-.176q-.22-.176-.221-.502 0-.4.346-.646.223-.156.691-.217zm4.051-1.386v.325a.74.74 0 0 0-.514.283q-.224.294-.224.735 0 .4.213.668.194.251.525.271v.353l-.107.003c-.338 0-.606-.123-.802-.361a1.3 1.3 0 0 1-.302-.869q0-.575.332-.99.32-.399.879-.418m-3.445 2.062a21 21 0 0 1-.014-.714 4 4 0 0 0-.592.038v-.295q.26-.034.592-.038a1 1 0 0 0 .008-.144q0-.322-.174-.426-.147-.094-.426-.106V1.05h.039q.472-.001.73.19.257.193.257.654 0 .123-.011.445-.011.323-.011.429-.002.473.072.844l-.418.016a1.2 1.2 0 0 1-.03-.244h-.028a1.17 1.17 0 0 1-.6.271v-.339q.373-.02.606-.209m3.445.573v-.353h.058q.474 0 .681-.231 0-.811-.044-1.563a.84.84 0 0 0-.537-.174q-.083 0-.158.011v-.325h.058q.428 0 .614.171h.023q-.002-.647-.036-1.268l.503-.019q-.05.66-.05 1.734-.001 1.088.055 1.946l-.395.014a1.3 1.3 0 0 1-.022-.239h-.028q-.253.268-.722.296m2.918-2.657v.334q-.58.036-.689.76l.689-.017v.304l-.705.011a.94.94 0 0 0 .301.638.9.9 0 0 0 .404.217v.394q-.487-.061-.772-.353a1.23 1.23 0 0 1-.362-.901q.001-.567.329-.98.307-.377.805-.407m6.775 2.589h-.5q0-.58-.083-1.683a71 71 0 0 1-.089-1.316h-.024a23 23 0 0 1-.672 1.837q-.41.993-.41 1.162h-.359q.001-.183-.379-1.183a27 27 0 0 1-.481-1.338 25 25 0 0 1-.139-.478h-.024q-.01.354-.106 1.441-.097 1.082-.096 1.558h-.457q-.002-.028.18-1.436.181-1.408.18-1.956h.7q0 .285.425 1.433.424 1.145.424 1.386h.027q-.001-.24.479-1.392.476-1.15.475-1.427h.683q.001.549.122 1.948.124 1.4.124 1.444m-6.775-1.208V2.1l.689-.013q-.002-.733-.625-.733-.035 0-.064.003v-.334l.086-.003q.51.001.777.299.269.298.268.762 0 .11-.011.302zm0 1.26V3.27q.146.04.321.038.403.001.758-.095l-.047.366q-.26.103-.75.104-.148 0-.282-.019m8.612-2.641v.334q-.58.036-.689.76l.689-.017v.304l-.703.011a.93.93 0 0 0 .703.855v.394q-.486-.061-.772-.353a1.24 1.24 0 0 1-.362-.901q0-.567.332-.98.303-.377.802-.407m3.675 2.19-.028.347q-.213.123-.575.123-.687 0-1.051-.375a1.24 1.24 0 0 1-.365-.898q0-.558.385-.958.382-.403 1.009-.402.32.001.517.062l-.072.41a1.7 1.7 0 0 0-.567-.103.76.76 0 0 0-.6.258.96.96 0 0 0-.224.649q.002.42.269.703.262.28.749.279.2.001.553-.095m-3.675-.809V2.1l.688-.013q-.001-.733-.625-.733-.031 0-.063.003v-.334l.085-.003q.511.001.78.299.266.298.266.762 0 .11-.011.302zm0 1.26V3.27q.147.04.321.038.403.001.757-.095l-.044.366q-.262.103-.752.104-.15 0-.282-.019m5.121-1.528v.295a2 2 0 0 0-.168.036q-.437.13-.437.499 0 .353.511.353.048 0 .094-.003v.339a2 2 0 0 1-.29.022.82.82 0 0 1-.525-.176q-.221-.176-.222-.502.001-.4.346-.646.223-.156.691-.217m0-1.086v.372q-.049-.004-.102-.003c-.279 0-.55.035-.821.103l.047-.361q.382-.106.876-.111m0-1.113v.307q-.493.506-.492.537h-.276q0-.033.251-.418a5 5 0 0 0 .263-.426zm3.999 3.675h-.484q.059-.687.059-1.495 0-.403-.166-.549-.166-.15-.476-.149-.374 0-.694.269c0 .591.003 1.235.011 1.924h-.484q.044-.886.044-1.284c0-.404-.039-.8-.116-1.18l.467-.068.05.32h.022q.393-.35.844-.35.44-.001.68.19.241.192.243.684l-.005.193c-.006.1-.006.162-.006.198 0 .287.003.722.011 1.297m1.176 0h-.481q.037-.522.038-1.191.001-.752-.094-1.265l.531-.071q-.032.546-.03 1.336 0 .626.036 1.191m2.635-.399-.027.347q-.215.123-.576.123-.689 0-1.053-.375a1.24 1.24 0 0 1-.363-.898q0-.558.382-.958.382-.403 1.012-.402.315.001.515.062l-.072.41a1.6 1.6 0 0 0-.564-.103.76.76 0 0 0-.601.258.96.96 0 0 0-.224.649q0 .42.266.703.266.28.752.279.2.001.553-.095M38.664.244v-.307h.263q.014.04.263.426.253.385.252.418h-.277q0-.032-.495-.542zm0 3.411v-.339q.374-.02.603-.209a24 24 0 0 1-.011-.714q-.358.001-.592.038v-.295a5 5 0 0 1 .592-.038q.009-.062.009-.144 0-.322-.175-.426-.148-.094-.426-.106V1.05h.039q.473-.001.73.19.258.193.257.654.001.123-.011.445-.012.323-.011.429 0 .473.069.844l-.414.016a1 1 0 0 1-.034-.244h-.024q-.24.211-.601.271m9.257-1.519v.295a2 2 0 0 0-.169.036q-.436.13-.437.499 0 .353.512.353.044 0 .094-.003v.339a2 2 0 0 1-.294.022.83.83 0 0 1-.525-.176q-.22-.176-.218-.502-.002-.4.345-.646.221-.156.692-.217m0-1.086v.372q-.052-.004-.103-.003-.419 0-.821.103l.044-.361a3.5 3.5 0 0 1 .88-.111m5.121-.83-.022.388a35 35 0 0 0-1.601-.033q.03.433.03 1.194.627 0 1.214-.021v.377a33 33 0 0 0-1.214-.019q0 1.017.031 1.506h-.484q.038-.806.039-1.783 0-.917-.039-1.609zm.949 3.392h-.481q.037-.522.036-1.191 0-.752-.094-1.265l.533-.071a23 23 0 0 0 .006 2.527m2.951 0h-.482q.059-.687.059-1.495 0-.403-.166-.549-.166-.15-.476-.149-.376 0-.694.269c0 .591.003 1.235.011 1.924h-.484q.044-.886.044-1.284c0-.404-.039-.8-.116-1.18l.467-.068.05.32h.022q.394-.35.841-.35.444-.001.683.19.24.192.241.684.001.05-.006.193l-.005.198c0 .287.005.722.011 1.297m-9.021.043v-.339q.37-.02.602-.209a24 24 0 0 1-.013-.714q-.357.001-.589.038v-.295a5 5 0 0 1 .589-.038 1 1 0 0 0 .008-.144q0-.322-.174-.426c-.097-.063-.241-.098-.423-.106V1.05h.036q.476-.001.732.19.258.193.258.654-.001.123-.014.445-.01.323-.011.429 0 .473.072.844l-.418.016a1.2 1.2 0 0 1-.03-.244h-.028a1.16 1.16 0 0 1-.597.271m10.638-1.519v.295a2 2 0 0 0-.168.036q-.437.13-.437.499 0 .353.511.353.048 0 .094-.003v.339a2 2 0 0 1-.29.022.82.82 0 0 1-.525-.176q-.223-.176-.222-.502.001-.4.346-.646.222-.156.691-.217m0-1.086v.372q-.049-.004-.102-.003c-.279 0-.55.035-.821.103l.047-.361q.382-.106.876-.111m0 2.605v-.339q.373-.02.603-.209a24 24 0 0 1-.011-.714q-.358.001-.592.038v-.295a5 5 0 0 1 .592-.038q.009-.062.009-.144 0-.322-.175-.426-.148-.094-.426-.106V1.05h.039q.473-.001.73.19.257.193.257.654.001.123-.011.445-.013.323-.013.429 0 .473.072.844l-.415.016a1 1 0 0 1-.034-.244h-.024q-.24.211-.601.271" style="fill:#1d1d1b;fill-rule:nonzero" transform="translate(281.113 440.816)scale(8.33333)"/><path d="M34.69 452.503h93.383v1.069H34.69z" style="fill:#008bd2" transform="translate(-289.083 -3352.77)scale(8.33333)"/><path d="M0-7.412h4.173L6.419-2.6l2.248-4.812h4.148V0h-2.267l.055-5.55h-.376L7.376 0H5.467L2.619-5.55h-.407L2.268 0H0z" style="fill:#1d1d1b;fill-rule:nonzero" transform="translate(.253 403.454)scale(8.33333)"/><path d="M48.706 455.328h2.417v1.97h-2.417z" style="fill:#1d1d1b" transform="translate(-289.083 -3407.36)scale(8.33333)"/><path d="M0-7.52h2.304v4.429q-.001 1.198-.163 1.756-.103.378-.388.668a1.6 1.6 0 0 1-.658.412q-.548.18-1.244.217Q-.835 0-1.565 0q-1.922.002-2.769-.201-1.032-.243-1.244-1.215a5.4 5.4 0 0 1-.094-1.105q0-.325.017-.792h2.303q-.002.565.025.757.046.313.232.439.29.191 1.364.19 1.226 0 1.521-.249.159-.14.193-.456A5 5 0 0 0 0-3.134z" style="fill:#1d1d1b;fill-rule:nonzero" transform="translate(189.875 404.354)scale(8.33333)"/><path d="M60.907 455.328h2.417v1.97h-2.417z" style="fill:#1d1d1b" transform="translate(-289.083 -3407.36)scale(8.33333)"/><path d="M0 7.412V0h4.585v1.743H2.193V2.92h2.392v1.482H2.193v1.23h2.392v1.78zM4.585 0h.844q1.733.004 2.06.027.741.041 1.09.261.397.249.519.689.11.42.111.945.001.652-.127.982-.21.537-.891.733c.335.06.584.141.747.252q.553.36.553 1.531-.001.904-.287 1.341-.257.378-.775.521-.445.113-1.482.119l-1.502.011h-.86v-1.78h.86q.907-.008 1.068-.011.503-.024.641-.196.104-.14.105-.437-.002-.463-.342-.548-.12-.029-1.472-.038h-.86V2.92h.849q1.07 0 1.272-.081.273-.103.271-.532.001-.44-.326-.526c-.086-.022-.489-.036-1.217-.038h-.849z" style="fill:#1d1d1b;fill-rule:nonzero" transform="translate(248.388 341.686)scale(8.33333)"/><path d="M0 7.412V0h4.701v1.851h-2.4v1.824h2.4v1.851h-2.4v1.886zM4.701 0h.86q1.968.006 2.321.036a1.8 1.8 0 0 1 .735.233q.329.192.512.491.188.317.227.668.05.408.049.982.001.907-.127 1.265-.195.532-.73.738-.184.073-.547.125.725.054 1.039.41a.9.9 0 0 1 .197.358q.056.207.08.594.005.204.006.823v.689H7.055v-.396q-.001-.664-.061-.953-.088-.411-.451-.488-.232-.047-.998-.049h-.844V3.675h.838q.725-.011.858-.022.483-.024.611-.293.088-.184.088-.624 0-.38-.077-.565-.116-.271-.559-.304a21 21 0 0 0-.926-.016h-.833z" style="fill:#1d1d1b;fill-rule:nonzero" transform="translate(334.118 341.686)scale(8.33333)"/><path d="M0 4.904h-2.503l-.647 1.254h-2.63l4.007-7.412H0V.472h-.23l-1.454 2.806H0zm3.142 1.254-.648-1.254H0V3.278h1.687L.23.472H0v-1.726h1.803l3.952 7.412z" style="fill:#1d1d1b;fill-rule:nonzero" transform="translate(461.239 352.137)scale(8.33333)"/><path d="M0-7.412h4.035l3.957 5.526h.238l-.055-5.526h2.339V0H6.516L2.541-5.534h-.248L2.34 0H0z" style="fill:#1d1d1b;fill-rule:nonzero" transform="translate(512.033 403.454)scale(8.33333)"/><path d="M0 1.688h2.301q.021.545.022.744 0 .812-.263 1.3-.266.512-1.034.711-.834.223-2.887.222-2.264 0-3.051-.07-.729-.061-1.147-.19a1.8 1.8 0 0 1-.697-.38 1.52 1.52 0 0 1-.473-.89q-.11-.583-.111-2.239 0-1.592.083-2.144.123-.833.661-1.208.408-.282 1.306-.402.929-.119 3.335-.119 1.432.001 2.044.059c.611.06 1.056.174 1.338.351q.518.317.658.928.1.432.1 1.004l-.006.429H-.122a9 9 0 0 0-.022-.369q-.046-.33-.304-.421-.394-.13-2.149-.128-1.195 0-1.648.065-.552.076-.686.592C-5-.187-5.036.26-5.036.882q0 .953.105 1.319.133.472.73.548.485.059 1.709.06 1.324 0 1.806-.054.452-.051.573-.321.102-.228.113-.746" style="fill:#1d1d1b;fill-rule:nonzero" transform="translate(668.329 365.526)scale(8.33333)"/><path d="M0 7.632q-2.445 0-3.363-.117-1.324-.175-1.623-1.235-.205-.727-.205-2.461 0-1.743.205-2.464.3-1.06 1.623-1.235Q-2.453.003 0 0v1.93h-.088q-1.732 0-2.102.092-.45.113-.578.516-.12.396-.119 1.463 0 .688.072.993.136.564.832.646.519.065 1.983.065zM.066 0q2.381 0 3.297.12 1.324.176 1.623 1.235.205.725.205 2.464 0 1.734-.205 2.461-.3 1.06-1.623 1.235-.913.118-3.363.117V5.705q1.465 0 1.98-.065.697-.082.83-.646.077-.308.077-.963 0-.798-.041-1.135c-.056-.374-.172-.621-.357-.743q-.249-.176-1.045-.212A50 50 0 0 0 0 1.93V0z" style="fill:#1d1d1b;fill-rule:nonzero" transform="translate(736.476 340.757)scale(8.33333)"/></svg>