<svg xmlns="http://www.w3.org/2000/svg" xml:space="preserve" style="fill-rule:evenodd;clip-rule:evenodd;stroke-linejoin:round;stroke-miterlimit:2" viewBox="0 0 1103 220"><path d="M0-5.806h6.479c.018 1.916-.038 3.834.029 5.749-.233.048-.472.049-.709.057C3.867-.008 1.933-.003 0-.004z" style="fill:#1486c8;fill-rule:nonzero" transform="translate(0 48.385)scale(8.33333)"/><path d="M0-14.698v5.286c1.333-.001 2.666.003 3.999 0 1.054.001 2.129-.593 2.562-1.575.437-.891.252-2.028-.423-2.75-.558-.646-1.423-.947-2.261-.956-1.292-.014-2.585 0-3.877-.005M-.032-20.5h5.114c1.918.151 3.841.731 5.378 1.919 1.784 1.342 2.951 3.454 3.164 5.675.184 1.694-.177 3.468-1.132 4.892-.815 1.245-2.008 2.211-3.335 2.864 2.011 3.647 3.981 7.316 6.011 10.952H7.199C5.547 2.554 3.918-.705 2.288-3.965L.001-3.966 0 5.802h-6.833c-.013-6.769.024-13.538-.02-20.305l.202-.238c2.206.025 4.413.004 6.619.011z" style="fill:#4f5761;fill-rule:nonzero" transform="translate(110.663 170.833)scale(8.33333)"/><path d="M0-5.762V-3.7c.576-.012 1.156.029 1.732-.021.491-.058.884-.496.91-.986-.004-.484-.391-.925-.863-1.006C1.191-5.808.592-5.749 0-5.762m-2.709-2.289c1.448-.002 2.897 0 4.345-.002.961-.008 1.956.281 2.673.941 1.012.913 1.35 2.521.714 3.74-.308.6-.844 1.045-1.434 1.354.778 1.44 1.573 2.873 2.357 4.31-1.052.005-2.104 0-3.156.004L.869-1.543c-.291.005-.581.001-.873.007C.004-.259-.001 1.017 0 2.293c-.904 0-1.806.006-2.71-.002q.004-5.171.001-10.342" style="fill:#4f5761;fill-rule:nonzero" transform="translate(324.739 144.458)scale(8.33333)"/><path d="M0 2.937c.607.004 1.216.001 1.824.004Q1.388 1.613.939.29C.624 1.172.306 2.053 0 2.937M-.179-3.7c.705.002 1.41-.013 2.117.015C3.234-.233 4.58 3.199 5.888 6.645q-1.42.003-2.841-.001a86 86 0 0 1-.494-1.541C1.441 5.1.331 5.089-.78 5.108a35 35 0 0 1-.538 1.542c-.942-.009-1.886-.001-2.828-.005C-2.826 3.196-1.497-.249-.179-3.7" style="fill:#4f5761;fill-rule:nonzero" transform="translate(413.248 108.194)scale(8.33333)"/><path d="m0-10.345 2.653-.001c.813 1.503 1.618 3.01 2.428 4.516.811-1.507 1.61-3.019 2.436-4.518.878.006 1.757.002 2.636.003V.002Q8.798.003 7.444 0c-.005-1.607.015-3.215-.01-4.822-.509.787-.981 1.599-1.466 2.401-.589.009-1.178.005-1.766.005-.504-.803-.957-1.639-1.494-2.421V.002H0z" style="fill:#4f5761;fill-rule:nonzero" transform="translate(471.127 163.568)scale(8.33333)"/><path d="M0-2.228C-.32-1.373-.619-.511-.923.351-.316.353.29.351.897.353.594-.505.361-1.391 0-2.228m-1.106-4.054q1.053-.015 2.11 0C2.313-2.831 3.651.608 4.965 4.057q-1.42.004-2.838 0c-.162-.515-.337-1.027-.504-1.543-1.102-.009-2.203.004-3.304-.006a43 43 0 0 0-.542 1.544c-.947.012-1.895.008-2.841.003C-3.754.606-2.412-2.831-1.106-6.282" style="fill:#4f5761;fill-rule:nonzero" transform="translate(606.846 129.758)scale(8.33333)"/><path d="M0-5.766V.001C.56-.003 1.127.04 1.68-.074a1.28 1.28 0 0 0 .985-1.136 18.5 18.5 0 0 0-.001-3.378 1.3 1.3 0 0 0-.874-1.094C1.205-5.832.596-5.749 0-5.766m-2.677-2.289q2.11-.003 4.219 0c1.107.017 2.261.395 3.001 1.254.724.766.904 1.856.903 2.872-.016 1.07.061 2.148-.089 3.211C5.198.423 4.403 1.431 3.353 1.89c-.763.356-1.619.392-2.445.401q-1.792.001-3.585-.002.004-5.171 0-10.344" style="fill:#4f5761;fill-rule:nonzero" transform="translate(676.876 144.491)scale(8.33333)"/><path d="M0-2.355Q-.471-1.033-.939.288q.915.003 1.83 0C.594-.594.316-1.481 0-2.355m-5.076 6.348C-3.763.541-2.437-2.906-1.109-6.352q1.045.003 2.09.001C2.305-2.903 3.635.543 4.948 3.995q-1.414.002-2.828.001l-.517-1.55q-1.652.005-3.305.002a71 71 0 0 0-.54 1.545q-1.417.006-2.834 0" style="fill:#4f5761;fill-rule:nonzero" transform="translate(766.524 130.28)scale(8.33333)"/><path d="M0-6.917C1.095-8.73 3.873-9.12 5.452-7.733c.663.562 1.023 1.391 1.192 2.226q-.578.005-1.154-.001c-.159-.603-.448-1.198-.956-1.58-.95-.731-2.443-.59-3.243.303-.535.532-.601 1.33-.642 2.042C.63-3.879.643-3.016.642-2.152c.031.757.071 1.617.646 2.184.883.999 2.608 1.032 3.527.065.361-.369.557-.86.707-1.346q.555-.002 1.113.002C6.446-.072 5.723 1.064 4.59 1.515 2.999 2.203.921 1.677-.001.169-.625-.926-.459-2.239-.487-3.448-.464-4.607-.6-5.869 0-6.917" style="fill:#98a1aa;fill-rule:nonzero" transform="translate(908.98 149.011)scale(8.33333)"/><path d="M0 3.614c1.243-.004 2.486 0 3.73-.003C3.116 1.859 2.515.102 1.882-1.644 1.247.106.629 1.862 0 3.614m1.398-6.9q.478-.002.963.009C3.586.12 4.839 3.506 6.073 6.899L4.871 6.9l-.803-2.289-4.421.001c-.268.763-.544 1.524-.811 2.288h-1.202q1.88-5.094 3.764-10.186" style="fill:#98a1aa;fill-rule:nonzero" transform="translate(850.081 105.808)scale(8.33333)"/><path d="M0-8.18c-.829.2-1.563.866-1.724 1.72-.203 1.016-.131 2.059-.147 3.089.026.725.008 1.48.295 2.161C-1.106-.221.116.318 1.168.034c.834-.198 1.569-.868 1.73-1.728.21-1.103.107-2.234.133-3.35-.028-.753-.021-1.58-.479-2.219C1.992-8.05.931-8.424 0-8.18m-.529-.918c1.666-.536 3.743.241 4.407 1.916.339.973.268 2.024.28 3.039-.001.91.024 1.831-.148 2.729C3.825-.495 3.154.267 2.334.692c-1.426.762-3.349.48-4.451-.719-.569-.58-.802-1.397-.834-2.19-.065-1.416-.093-2.843.064-4.253.14-1.263 1.176-2.275 2.358-2.628" style="fill:#98a1aa;fill-rule:nonzero" transform="translate(1000.81 154.852)scale(8.33333)"/><path d="M0-8.758c.798-.744 1.953-.877 2.998-.796.943.043 1.817.483 2.518 1.1-.242.247-.485.489-.726.734-.921-.842-2.324-1.131-3.487-.669-1.064.415-1.418 2.027-.572 2.81.959.744 2.259.556 3.361.916.85.228 1.536.932 1.748 1.787v1.543c-.188.587-.531 1.14-1.055 1.48-1.022.691-2.33.73-3.511.56C.347.578-.476.074-1.144-.562l.775-.777C.689-.218 2.464.114 3.86-.521c.976-.455 1.251-1.855.591-2.679-.512-.599-1.362-.584-2.075-.718C1.362-4.051.21-4.278-.418-5.174-1.115-6.263-.946-7.863 0-8.758" style="fill:#98a1aa;fill-rule:nonzero" transform="translate(1053.67 157.584)scale(8.33333)"/><path d="M-.108-2.159q-.495.038-.995.071c.325.701.677 1.387.995 2.088.395-.019.787-.047 1.179-.075C.69-.776.285-1.463-.108-2.159" style="fill:#98a1aa;fill-rule:nonzero" transform="scale(-8.33333 8.33333)rotate(4.01 -380.014 -1586.373)"/><path d="M0-3.135c.549-.24 1.172-.086 1.65.236a15 15 0 0 1-.231.281c-.34-.181-.722-.353-1.115-.248-.406.088-.575.645-.307.955.49.35 1.283.112 1.639.676C2-.665 1.627.106.981.24H.134a4 4 0 0 1-.78-.404q.128-.144.258-.287c.406.277.935.488 1.416.263.376-.139.47-.724.145-.964-.408-.209-.905-.144-1.308-.369-.592-.336-.492-1.37.135-1.614" style="fill:#98a1aa;fill-rule:nonzero" transform="translate(306.968 217.178)scale(8.33333)"/><path d="M0-2.674q0 .661.004 1.322c.37-.012.749.038 1.114-.043.546-.133.598-1.022.073-1.222C.807-2.731.396-2.659 0-2.674m-.418-.356c.58.021 1.172-.063 1.743.058.768.231.858 1.442.176 1.823-.461.241-1.002.127-1.5.151V.419h-.419z" style="fill:#98a1aa;fill-rule:nonzero" transform="translate(331.175 215.689)scale(8.33333)"/><path d="M0-3.442q1.082-.006 2.165 0l-.007.352H.42v1.16l1.475-.001.014.355-1.489.001V-.35l1.738-.002.005.356H.001C0-1.144.003-2.293 0-3.442" style="fill:#98a1aa;fill-rule:nonzero" transform="translate(352.932 219.145)scale(8.33333)"/><path d="M0-1.634c.224-.808 1.389-1.059 1.978-.498.213.19.296.473.414.725l-.405.014c-.152-.256-.292-.588-.622-.648-.434-.135-.959.174-.991.643A5.7 5.7 0 0 0 .388.14c.108.534.841.763 1.249.415.223-.241.355-.607.756-.577-.11.49-.401.954-.915 1.081H.826C.422.923.031.62-.021.168-.063-.429-.086-1.04 0-1.634" style="fill:#98a1aa;fill-rule:nonzero" transform="translate(376.428 210.353)scale(8.33333)"/><path d="M.213-3.445q-.21.019-.418.041C-.069-2.262.073-1.12.213.023l.415-.051C.491-1.167.347-2.306.213-3.445" style="fill:#98a1aa;fill-rule:nonzero" transform="scale(-8.3333 8.3333)rotate(6.99 -239.385 -387.308)"/><path d="M0-2.239-.614-.522.612-.524C.405-1.094.215-1.672 0-2.239m-.175-.605.356.005C.598-1.69 1.007-.537 1.444.605h-.438C.908.352.824.096.737-.159A52 52 0 0 0-.736-.168c-.092.259-.182.519-.286.773h-.431c.442-1.143.848-2.301 1.278-3.449" style="fill:#98a1aa;fill-rule:nonzero" transform="translate(422.037 214.138)scale(8.33333)"/><path d="M0-3.45h.416c.003 1.031 0 2.064.002 3.096h1.74L2.16 0H-.001Q-.003-1.725 0-3.45" style="fill:#98a1aa;fill-rule:nonzero" transform="translate(438.1 219.179)scale(8.33333)"/><path d="M0-3.113c.548-.253 1.187-.103 1.666.232l-.247.276c-.339-.196-.734-.362-1.13-.233-.439.103-.577.82-.145 1.019.501.24 1.265.073 1.545.664C2.001-.583 1.603.122.99.253H.168A3 3 0 0 1-.63-.164l.264-.279c.398.275.907.489 1.386.281.406-.133.496-.753.146-.995-.417-.188-.913-.13-1.312-.369-.564-.345-.46-1.337.146-1.587" style="fill:#98a1aa;fill-rule:nonzero" transform="translate(473.662 217.069)scale(8.33333)"/><path d="m0-3.448 2.35-.001c.002.089.002.267.002.356q-.484-.002-.967 0V.001H.966v-3.094q-.486-.002-.967 0z" style="fill:#98a1aa;fill-rule:nonzero" transform="translate(491.82 219.173)scale(8.33333)"/><path d="M0-3.449h2.157c.001.088.006.263.009.351q-.89.006-1.779.004v1.16q.759-.001 1.517.002c0 .088-.002.265-.004.352H.387v1.227c.574.009 1.151-.035 1.724.023L2.22 0H0z" style="fill:#98a1aa;fill-rule:nonzero" transform="translate(516.521 219.182)scale(8.33333)"/><path d="m0-3.448 2.157-.001c.001.089.005.264.008.353q-.874.005-1.746.003v1.16l1.487.002-.006.352H.419v1.225l1.738-.001.005.356H0z" style="fill:#98a1aa;fill-rule:nonzero" transform="translate(540.426 219.173)scale(8.33333)"/><path d="m0-3.414.388-.022c.005 1.034 0 2.068.004 3.103l1.734-.002c.003.09.008.268.009.357H.004C.001-1.123.008-2.269 0-3.414" style="fill:#98a1aa;fill-rule:nonzero" transform="translate(564.568 218.998)scale(8.33333)"/><path d="M0-3.14c.565-.241 1.213-.076 1.686.285-.37.414-.811-.147-1.249-.031-.429.012-.735.521-.51.899.453.479 1.333.147 1.705.755C1.996-.645 1.595.135.93.241H.112a5 5 0 0 1-.779-.4q.131-.153.265-.303c.406.296.949.503 1.436.268.364-.155.453-.713.141-.957-.458-.237-1.049-.122-1.46-.466C-.732-2.043-.572-2.903 0-3.14" style="fill:#98a1aa;fill-rule:nonzero" transform="translate(600.206 217.177)scale(8.33333)"/><path d="M0-2.386c-.254.103-.483.326-.503.612-.058.535-.086 1.092.038 1.621C-.271.472.741.52.986-.09c.165-.53.128-1.105.073-1.651C1.026-2.234.45-2.583 0-2.386m-.875.391c.245-.931 1.654-1.081 2.166-.302.312.553.179 1.229.188 1.837C1.498.086 1.107.554.59.69h-.649C-.453.542-.847.244-.896-.203c-.055-.593-.074-1.202.021-1.792" style="fill:#98a1aa;fill-rule:nonzero" transform="translate(627.678 213.428)scale(8.33333)"/><path d="M0-3.449h.387L.385-.356h1.74L2.13 0H0z" style="fill:#98a1aa;fill-rule:nonzero" transform="translate(647.061 219.182)scale(8.33333)"/><path d="M0-3.447h.385c.011.765-.016 1.529.008 2.294.005.292.136.612.424.729.44.24 1.092-.009 1.162-.532.054-.829 0-1.662.022-2.494l.418.007c-.018.821.033 1.646-.022 2.468-.035.483-.43.852-.878.978H.863C.45-.125.055-.443.019-.899-.032-1.748.015-2.597 0-3.447" style="fill:#98a1aa;fill-rule:nonzero" transform="translate(668.28 219.154)scale(8.33333)"/><path d="M0-3.446c.797 0 1.594-.003 2.39.003l-.007.352h-.997V.003H.999V-3.09L0-3.091z" style="fill:#98a1aa;fill-rule:nonzero" transform="translate(692.992 219.157)scale(8.33333)"/><path d="M265.429 394.853h.387v3.449h-.387z" style="fill:#98a1aa" transform="translate(-1493.94 -3100)scale(8.33333)"/><path d="M0-2.371c-.669.355-.418 1.256-.449 1.872C-.502.129.277.574.789.209c.573-.433.317-1.244.357-1.858C1.18-2.221.502-2.648 0-2.371m-.771.268c.347-.94 1.9-.944 2.24.004.161.646.136 1.334.033 1.988-.075.406-.456.634-.803.787H.014C-.396.534-.783.222-.821-.239c-.06-.617-.091-1.255.05-1.864" style="fill:#98a1aa;fill-rule:nonzero" transform="translate(735.216 213.551)scale(8.33333)"/><path d="m0-3.442.393-.006c.598.878 1.166 1.776 1.764 2.654.005-.884 0-1.767.004-2.652l.419.004L2.579.006h-.376c-.6-.89-1.191-1.787-1.784-2.682V.006H0z" style="fill:#98a1aa;fill-rule:nonzero" transform="translate(755.039 219.134)scale(8.33333)"/><path d="M0-3.052c.56-.289 1.243-.141 1.737.218l-.256.269c-.3-.161-.625-.335-.977-.272-.427.013-.715.528-.501.898.382.394 1.013.23 1.462.505.434.282.487.941.192 1.342-.158.21-.418.295-.655.381H.188a5 5 0 0 1-.779-.403q.132-.152.271-.303c.404.302.941.498 1.43.277.374-.156.446-.702.151-.966-.467-.227-1.057-.12-1.471-.466-.414-.411-.306-1.2.21-1.48" style="fill:#98a1aa;fill-rule:nonzero" transform="translate(786.519 216.776)scale(8.33333)"/></svg>