<svg id="Layer_1" data-name="Layer 1" xmlns="http://www.w3.org/2000/svg" viewBox="0 0 520.61 71.35"><defs><style>.cls-1,.cls-3{fill:#3a3839;}.cls-1,.cls-2{fill-rule:evenodd;}.cls-2{fill:#fed401;}</style></defs><g id="g20"><path id="path22" class="cls-1" d="M18.28,0H145.37a2.91,2.91,0,0,1,2.92,3.72L134.61,67.63a4.83,4.83,0,0,1-4.5,3.72H3A2.92,2.92,0,0,1,.08,67.63L13.76,3.72A4.88,4.88,0,0,1,18.28,0"/></g><g id="g24"><path id="path26" class="cls-2" d="M42.35,37.13h-26a1.16,1.16,0,0,1-1.16-1.48l5.56-26a2,2,0,0,1,1.81-1.48h26a1.15,1.15,0,0,1,1.16,1.48l-5.56,26a1.94,1.94,0,0,1-1.81,1.48"/></g><g id="g28"><path id="path30" class="cls-2" d="M10.76,63.14a1.17,1.17,0,0,1-1.17-1.49L12.77,46.8a2,2,0,0,1,1.81-1.5H48.76a1.93,1.93,0,0,0,1.81-1.48L57.89,9.63a1.93,1.93,0,0,1,1.8-1.48H74.56a1.16,1.16,0,0,1,1.17,1.48l-11.14,52a1.93,1.93,0,0,1-1.8,1.48Z"/></g><g id="g32"><path id="path34" class="cls-2" d="M106.1,34.19h26a1.17,1.17,0,0,1,1.16,1.49l-5.56,26a2,2,0,0,1-1.8,1.49h-26a1.16,1.16,0,0,1-1.16-1.49l5.56-26a2,2,0,0,1,1.81-1.49"/></g><g id="g36"><path id="path38" class="cls-2" d="M137.74,8.15a1.16,1.16,0,0,1,1.17,1.48l-3.19,14.86a1.92,1.92,0,0,1-1.8,1.49H99.73a1.94,1.94,0,0,0-1.8,1.49L90.61,61.66a2,2,0,0,1-1.81,1.48H73.93a1.17,1.17,0,0,1-1.16-1.48l11.14-52a1.93,1.93,0,0,1,1.8-1.48Z"/></g><g id="g40"><path id="path42" class="cls-3" d="M181,16.14h6.37c2.46,0,4.58.1,5.55,1.29.81,1,.92,2.89.35,5.6-1.53,7.35-5.72,7.36-9.1,7.36H178Zm30.58,7.36c1.06-5,1.46-11.94-2.67-17-3.09-3.82-8.1-5.76-14.88-5.76H166.36L151.58,71.14h17.93l5.27-25.31h2.86l6.89,25.31h21.2L196.05,43.8c10.09-4.11,14-13.24,15.57-20.3"/></g><g id="g44"><path id="path46" class="cls-3" d="M256.66,42.91l3.25-15.44H237l2.41-11.33h26.77L269.48.69h-44.7L210,71.14h45.68L258.8,55.7H231.07l2.71-12.79Z"/></g><g id="g48"><path id="path50" class="cls-3" d="M277.35.69,262.56,71.14h17.93L295.27.69Z"/></g><g id="g52"><path id="path54" class="cls-3" d="M350.11.69,329.34,40.2,324.57.69H303.63L288.85,71.14h17.92l5.09-24.51,3.19,24.51h15.32L343.5,47.07l-5,24.07h17.92L371.2.69Z"/></g><g id="g56"><path id="path58" class="cls-3" d="M399.4,42.07h-7.53l7.21-15.66Zm-6-41.86L359,71.14h19.61l6.22-13.63h14.88l.41,13.63H419.5L415.2.21Z"/></g><g id="g60"><path id="path62" class="cls-3" d="M474,.69l-7.24,34.49L455.81.69H437L422.21,71.14h17.93l7.25-34.48,10.93,34.48h18.81L491.92.69Z"/></g><g id="g64"><path id="path66" class="cls-3" d="M508.08,10.69h1.17c1.36,0,2.47-.46,2.47-1.56s-.72-1.62-2.28-1.62a5.59,5.59,0,0,0-1.36.13Zm-.07,6h-2.46V6.08a21,21,0,0,1,4.09-.33,6.68,6.68,0,0,1,3.7.78,3,3,0,0,1,1,2.34,2.73,2.73,0,0,1-2.21,2.47v.12a3.15,3.15,0,0,1,2,2.6,8,8,0,0,0,.78,2.66h-2.67a9.47,9.47,0,0,1-.84-2.59c-.19-1.17-.84-1.69-2.21-1.69H508Zm-6.55-5.58a8.24,8.24,0,0,0,8.31,8.5,8.15,8.15,0,0,0,8.11-8.43,8.22,8.22,0,1,0-16.42-.07m19.15,0A10.94,10.94,0,1,1,509.7.5a10.7,10.7,0,0,1,10.91,10.64"/></g></svg>