<?xml version="1.0" encoding="UTF-8"?>
<!DOCTYPE svg PUBLIC "-//W3C//DTD SVG 1.1//EN" "http://www.w3.org/Graphics/SVG/1.1/DTD/svg11.dtd">
<svg version="1.1" xmlns="http://www.w3.org/2000/svg" xmlns:xlink="http://www.w3.org/1999/xlink" x="0px" y="0px" width="361.417px" height="106.299px" viewBox="0 0 361.417 106.299" enable-background="new 0 0 361.417 106.299" xml:space="preserve">
<g id="Altes_Logo">
</g>
<g id="Auszeichnung_Alt">
</g>
<g id="Neues_Logo">
	<g>
		<path fill="#009BEA" d="M21.286,63.756h12.479c3.723,0,6.942,2.053,6.942,6.07c0,2.207-1.013,4.529-3.189,5.334    c1.789,0.686,2.891,2.65,3.127,5.303c0.09,1.041,0.121,3.57,0.714,4.555h-6.551c-0.328-1.068-0.448-2.172-0.536-3.275    c-0.18-2.023-0.359-4.143-2.948-4.143h-3.488v7.418h-6.551V63.756z M27.836,73.045h3.425c1.223,0,2.891-0.209,2.891-2.115    c0-1.34-0.745-2.115-3.248-2.115h-3.068V73.045z"/>
		<path fill="#009BEA" d="M55.006,63.244c6.467,0,10.783,4.648,10.783,11.139c0,6.494-4.316,11.143-10.783,11.143    c-6.464,0-10.784-4.648-10.784-11.143C44.222,67.893,48.542,63.244,55.006,63.244z M55.006,80.223c1.668,0,4.229-1.1,4.229-5.84    c0-4.734-2.562-5.834-4.229-5.834c-1.668,0-4.23,1.1-4.23,5.834C50.775,79.123,53.337,80.223,55.006,80.223z"/>
		<path fill="#009BEA" d="M69.896,63.756h6.553v7.383h6.138v-7.383h6.551v21.262h-6.551V76.59h-6.138v8.428h-6.553V63.756z"/>
		<path fill="#009BEA" d="M95.483,63.756h10.753c7.091,0,9.591,5.236,9.591,10.6c0,6.521-3.454,10.662-10.872,10.662h-9.473V63.756z     M102.035,79.568h2.563c4.081,0,4.677-3.307,4.677-5.303c0-1.342-0.417-5.062-5.152-5.062h-2.088V79.568z"/>
		<path fill="#009BEA" d="M119.849,63.756h17.606v5.447h-11.052v2.65h10.039v5.062h-10.039v2.652h11.378v5.449h-17.933V63.756z"/>
		<path fill="#009BEA" d="M176.571,77.869c0,0.537,0.089,1.014,0.24,1.4c0.475,1.281,1.906,1.549,3.125,1.549    c1.073,0,2.713-0.355,2.713-1.936c0-1.102-0.925-1.398-4.587-2.441c-3.368-0.955-7.211-1.877-7.211-6.168    c0-4.914,4.202-7.029,8.581-7.029c4.615,0,8.697,1.762,8.875,6.941h-6.195c0.119-0.805-0.238-1.34-0.774-1.697    c-0.536-0.387-1.28-0.535-1.936-0.535c-0.894,0-2.353,0.236-2.353,1.428c0.117,1.518,3.156,1.848,6.164,2.682    c3.01,0.832,5.988,2.232,5.988,6.135c0,5.539-5.094,7.328-9.83,7.328c-2.412,0-9.294-0.863-9.354-7.656H176.571z"/>
		<path fill="#009BEA" d="M206.419,71.676c-0.119-0.777-0.714-3.127-3.426-3.127c-3.068,0-4.053,2.977-4.053,5.834    c0,2.861,0.984,5.84,4.053,5.84c2.205,0,3.066-1.547,3.455-3.545h6.434c0,4.289-3.486,8.848-9.709,8.848    c-6.883,0-10.785-4.855-10.785-11.143c0-6.699,4.23-11.139,10.785-11.139c5.838,0.029,9.055,3.098,9.617,8.432H206.419z"/>
		<path fill="#009BEA" d="M217.704,63.756h6.553v7.383h6.135v-7.383h6.553v21.262h-6.553V76.59h-6.135v8.428h-6.553V63.756z"/>
		<path fill="#009BEA" d="M264.53,85.018h-6.376l-2.294-12.955h-0.058l-2.238,12.955h-6.401l-5.779-21.262h6.434l2.593,13.131h0.059    l2.562-13.131h5.778l2.504,13.309h0.058l2.648-13.309h6.467L264.53,85.018z"/>
		<path fill="#009BEA" d="M279.123,63.756h6.404l7.743,21.262h-6.79l-0.896-3.037h-6.76l-0.953,3.037h-6.582L279.123,63.756z     M284.276,77.424l-1.909-6.555h-0.057l-2.057,6.555H284.276z"/>
		<path fill="#009BEA" d="M297.114,63.756h12.479c3.723,0,6.939,2.053,6.939,6.07c0,2.207-1.014,4.529-3.188,5.334    c1.789,0.686,2.889,2.65,3.127,5.303c0.092,1.041,0.121,3.57,0.717,4.555h-6.555c-0.33-1.068-0.447-2.172-0.537-3.275    c-0.174-2.023-0.352-4.143-2.947-4.143h-3.482v7.418h-6.553V63.756z M303.667,73.045h3.424c1.223,0,2.891-0.209,2.891-2.115    c0-1.34-0.746-2.115-3.248-2.115h-3.066V73.045z"/>
		<path fill="#009BEA" d="M321.177,79.895l9.893-10.691h-9.322v-5.447h17.955v4.762l-9.975,11.051h10.453v5.449h-19.004V79.895z"/>
		<path fill="#009BEA" d="M42.548,21.236L21.286,42.498l21.263,21.258l21.263-21.258L42.548,21.236z M59.65,42.411    c-0.322,0.321-4.395,4.394-8.486,8.481c0.385-0.494,0.581-1.098,0.581-1.764c0-2.197-2.172-2.646-2.878-2.822    c-2.429-0.625-2.891-0.719-2.891-1.465c0-0.814,0.787-1.1,1.466-1.1c1.018,0,1.846,0.299,1.914,1.465h2.062    c0-2.238-1.859-3.121-3.881-3.121c-0.932,0-1.888,0.277-2.588,0.828c0.824-0.975,1.525-2.053,2.075-3.215    c1.029-2.131,2.727-3.935,4.792-5.121C55.674,38.436,59.345,42.105,59.65,42.411z M35.018,51.936    c0.001-0.002,0.001-0.004,0.001-0.006c0-0.035-0.116-0.172-0.252-0.32c1.213-2.137,3.082-3.876,5.315-4.914    c1.598-0.773,3.029-1.832,4.243-3.098c-0.251,0.396-0.41,0.863-0.41,1.42c0,1.818,1.452,2.375,2.89,2.755    c1.425,0.38,2.877,0.556,2.877,1.601c0,0.99-1.14,1.209-1.886,1.209c-1.14,0-2.145-0.502-2.145-1.791h-2.063    c-0.026,2.389,1.982,3.445,4.126,3.445c1.3,0,2.296-0.324,2.975-0.867c-3.985,3.982-7.846,7.844-8.119,8.115    C41.98,58.895,35.018,51.936,35.018,51.936z M42.616,25.379c0.285,0.285,3.509,3.508,7.077,7.076    c-2.288,1.477-4.112,3.529-5.303,5.998c-0.49,1.035-1.134,1.982-1.89,2.828c-0.104-0.3-0.185-0.596-0.201-0.837    c-0.068-0.978-0.367-1.995-1.412-2.267V38.15c1.073-0.435,1.534-1.289,1.534-2.43c0-1.466-1.1-2.674-2.838-2.674h-4.635    C38.747,29.248,42.316,25.68,42.616,25.379z M40.289,36.047c0,0.977-0.516,1.385-1.465,1.385h-2.334v-2.729h2.334    C39.773,34.703,40.289,35.11,40.289,36.047z M32.613,49.527c-0.072-0.068-0.125-0.123-0.125-0.123    c0.033-0.059-0.676-0.766-0.676-0.766c-0.03,0.05-4.999-4.907-6.275-6.182c0.289-0.289,4.6-4.6,8.821-8.82v9.102h2.131v-3.787    h2.13c1.073,0,1.466,0.447,1.616,1.466c0.096,0.675,0.332,1.761,0.563,2.433c-0.615,0.465-1.27,0.877-1.968,1.215    C36.259,45.26,34.126,47.143,32.613,49.527z"/>
		<g>
			<path fill="#009BEA" d="M157.704,83.602c-1.957,1.541-3.764,2.023-6.145,2.027c-4.128,0.006-7.326-2.791-7.331-6.98     c-0.004-2.861,2.435-4.854,4.782-6.064c-0.996-1.082-1.691-2.406-1.693-3.914c-0.004-3.436,3.187-5.582,6.382-5.586     c4.006-0.006,6.903,1.744,6.907,5.568c0.004,2.441-1.892,4.463-3.939,5.551l1.66,2.045c0.391-0.512,0.691-1.086,0.781-1.627     l4.972-0.008c-0.297,1.838-1.141,3.768-2.526,5.217l4.409,5.268l-7.051,0.008L157.704,83.602z M152.029,76.527     c-0.873,0.453-2.077,1.24-2.076,2.324c0.002,1.176,1.028,2.018,2.052,2.016c0.965-0.002,1.807-0.635,2.53-1.299L152.029,76.527z      M153.769,70.77c0.843-0.391,1.716-1.236,1.715-2.232c-0.001-0.783-0.605-1.445-1.448-1.443c-0.753,0-1.597,0.545-1.596,1.479     C152.441,69.326,153.227,70.139,153.769,70.77z"/>
		</g>
	</g>
	<rect x="21.286" y="21.246" fill="none" width="318.898" height="63.779"/>
	<rect x="0.027" y="-0.014" fill="none" width="361.417" height="106.299"/>
</g>
<g id="Schutzzone">
</g>
<g id="Auszeichnung_Neu">
</g>
</svg>