<?xml version="1.0" encoding="UTF-8" standalone="no"?>
<!DOCTYPE svg PUBLIC "-//W3C//DTD SVG 1.1//EN" "http://www.w3.org/Graphics/SVG/1.1/DTD/svg11.dtd">
<svg width="100%" height="100%" viewBox="0 0 759 236" version="1.1" xmlns="http://www.w3.org/2000/svg" xmlns:xlink="http://www.w3.org/1999/xlink" xml:space="preserve" style="fill-rule:evenodd;clip-rule:evenodd;stroke-linejoin:round;stroke-miterlimit:2;">
    <g transform="matrix(8.33333,0,0,8.33333,59.205,107.993)">
        <path d="M0,5.314C0,4.845 0.38,4.466 0.849,4.466C1.317,4.466 1.697,4.845 1.697,5.314C1.697,5.783 1.317,6.162 0.849,6.162C0.38,6.162 0,5.783 0,5.314M-0.849,5.314C-0.849,4.377 -0.089,3.617 0.848,3.617C1.786,3.617 2.545,4.377 2.545,5.314C2.545,6.251 1.786,7.011 0.848,7.011C-0.089,7.011 -0.849,6.251 -0.849,5.314M14.216,5.314C14.216,4.673 13.895,3.991 13.333,3.613L13.701,3.612C14.181,4.051 14.445,4.7 14.445,5.314C14.445,5.444 14.434,5.571 14.413,5.695L14.188,5.657C14.207,5.546 14.216,5.431 14.216,5.314M11.301,5.314C11.301,4.845 11.681,4.466 12.15,4.466C12.618,4.466 12.998,4.845 12.998,5.314C12.998,5.783 12.618,6.162 12.15,6.162C11.681,6.162 11.301,5.783 11.301,5.314M10.453,5.314C10.453,4.377 11.213,3.617 12.15,3.617C13.087,3.617 13.847,4.377 13.847,5.314C13.847,6.251 13.087,7.011 12.15,7.011C11.213,7.011 10.453,6.251 10.453,5.314M1.499,1.487L1.499,-0.969L-0.09,-0.969C-0.849,-0.969 -2.473,0.006 -2.473,1.487L1.499,1.487ZM10.084,5.314C10.084,5.431 10.093,5.546 10.112,5.657L9.887,5.695C9.866,5.571 9.855,5.444 9.855,5.314C9.855,5.069 9.897,4.817 9.979,4.576L5.733,4.381L5.733,5.258L3.129,5.258L3.129,5.314C3.129,5.444 3.118,5.571 3.098,5.695L2.872,5.657C2.891,5.546 2.9,5.431 2.9,5.314C2.9,4.672 2.606,4.099 2.144,3.723C1.791,3.435 1.34,3.262 0.848,3.262C-0.285,3.262 -1.204,4.181 -1.204,5.314L-1.204,5.79L-4.14,5.79L-4.14,4.333L-3.779,4.333L-3.779,2.022L-3.596,2.022C-3.512,-0.23 -0.952,-1.697 -0.018,-1.697L2.082,-1.697L2.082,3.375C2.433,3.61 2.744,3.995 2.902,4.322L2.902,3.615L5.733,3.615L5.733,4.02L10.134,4.217C10.253,3.992 10.409,3.786 10.599,3.612L10.967,3.613C10.405,3.991 10.084,4.673 10.084,5.314" style="fill:rgb(0,90,168);"/>
    </g>
    <g transform="matrix(8.33333,0,0,8.33333,98.8,233.958)">
        <path d="M0,-27.843L-11.856,-20.998L-11.856,-6.845L0.401,0.232L12.658,-6.845L12.658,-20.998L0.401,-28.075L0,-27.843ZM0.401,-26.222C1.121,-25.807 10.334,-20.487 11.054,-20.072L11.054,-7.771C10.334,-7.355 1.121,-2.035 0.401,-1.62C-0.319,-2.035 -9.532,-7.355 -10.252,-7.771L-10.252,-20.072C-9.532,-20.487 -0.319,-25.807 0.401,-26.222" style="fill:rgb(240,126,0);fill-rule:nonzero;"/>
    </g>
    <g transform="matrix(-8.33333,0,0,8.33333,934.143,-1550.06)">
        <rect x="90.682" y="194.344" width="12.023" height="5.507" style="fill:rgb(240,126,0);"/>
    </g>
    <g transform="matrix(8.33333,0,0,8.33333,-677.416,-1482.04)">
        <rect x="90.681" y="191.949" width="12.029" height="2.135" style="fill:rgb(240,126,0);"/>
    </g>
    <g transform="matrix(8.33333,0,0,8.33333,379.597,198.454)">
        <path d="M0,-1.219C0,-1.145 -0.039,-1.022 -0.117,-0.849L-0.286,-0.465C-0.371,-0.271 -0.455,-0.127 -0.537,-0.032C-0.66,0.113 -0.805,0.183 -0.971,0.183L-1.649,0.183L-0.943,-1.402L-0.265,-1.402C-0.088,-1.402 0,-1.342 0,-1.219M-0.374,0.6C-0.032,0.6 0.3,0.476 0.614,0.229C0.904,0.004 1.123,-0.275 1.275,-0.609C1.37,-0.817 1.416,-1.008 1.416,-1.184C1.416,-1.392 1.349,-1.554 1.215,-1.664C1.091,-1.766 0.922,-1.819 0.706,-1.819L-2.09,-1.819C-2.133,-1.819 -2.161,-1.805 -2.175,-1.773C-2.871,-0.218 -3.217,0.565 -3.217,0.568C-3.217,0.589 -3.203,0.6 -3.171,0.6L-0.374,0.6Z" style="fill:rgb(240,126,0);"/>
    </g>
    <g transform="matrix(8.33333,0,0,8.33333,416.615,183.296)">
        <path d="M0,2.419C0.046,2.419 0.074,2.405 0.088,2.373L0.233,2.048C0.233,2.045 0.233,2.038 0.237,2.034C0.237,2.013 0.219,2.002 0.187,2.002L-1.419,2.002C-1.582,2.002 -1.663,1.936 -1.663,1.799C-1.663,1.704 -1.614,1.56 -1.525,1.356L-1.356,0.971C-1.275,0.784 -1.193,0.657 -1.123,0.583C-1.017,0.473 -0.879,0.417 -0.713,0.417L0.893,0.417C0.939,0.417 0.968,0.403 0.978,0.374L1.123,0.046C1.126,0.043 1.126,0.035 1.126,0.032C1.126,0.011 1.112,0 1.081,0L-1.31,0C-1.66,0 -1.991,0.124 -2.302,0.367C-2.588,0.59 -2.804,0.872 -2.959,1.211C-3.051,1.412 -3.097,1.598 -3.097,1.774C-3.097,1.981 -3.033,2.147 -2.899,2.26C-2.775,2.366 -2.606,2.419 -2.391,2.419L0,2.419ZM0.498,1.314C0.54,1.314 0.565,1.296 0.579,1.268C0.678,1.042 0.731,0.932 0.731,0.929C0.731,0.904 0.717,0.894 0.685,0.894L-1.017,0.894C-1.056,0.894 -1.084,0.908 -1.098,0.939C-1.197,1.162 -1.246,1.278 -1.246,1.282C-1.246,1.303 -1.232,1.314 -1.204,1.314L0.498,1.314Z" style="fill:rgb(240,126,0);"/>
    </g>
    <g transform="matrix(8.33333,0,0,8.33333,437.773,183.296)">
        <path d="M0,2.419C0.321,2.419 0.607,2.384 0.862,2.31C1.239,2.2 1.427,2.027 1.427,1.791C1.427,1.618 1.317,1.432 1.102,1.231L0.23,0.417L1.808,0.417C1.85,0.417 1.879,0.403 1.893,0.374L2.037,0.046C2.041,0.043 2.041,0.035 2.041,0.032C2.041,0.011 2.027,0 1.995,0L-0.162,0C-0.297,0 -0.431,0.014 -0.565,0.043C-0.773,0.088 -0.957,0.166 -1.116,0.269C-1.317,0.403 -1.419,0.558 -1.419,0.737C-1.419,0.892 -1.335,1.044 -1.165,1.199L-0.283,2.002L-1.85,2.002C-1.893,2.002 -1.921,2.016 -1.935,2.048L-2.08,2.373C-2.08,2.377 -2.08,2.384 -2.083,2.387C-2.083,2.408 -2.066,2.419 -2.034,2.419L0,2.419Z" style="fill:rgb(240,126,0);"/>
    </g>
    <g transform="matrix(8.33333,0,0,8.33333,476.94,198.454)">
        <path d="M0,-1.219C0,-1.145 -0.039,-1.022 -0.117,-0.849L-0.286,-0.465C-0.371,-0.271 -0.456,-0.127 -0.537,-0.032C-0.66,0.113 -0.805,0.183 -0.971,0.183L-1.649,0.183L-0.943,-1.402L-0.265,-1.402C-0.088,-1.402 0,-1.342 0,-1.219M-0.374,0.6C-0.032,0.6 0.3,0.476 0.614,0.229C0.904,0.004 1.123,-0.275 1.275,-0.609C1.37,-0.817 1.416,-1.008 1.416,-1.184C1.416,-1.392 1.349,-1.554 1.215,-1.664C1.091,-1.766 0.922,-1.819 0.706,-1.819L-2.09,-1.819C-2.133,-1.819 -2.161,-1.805 -2.175,-1.773C-2.871,-0.218 -3.217,0.565 -3.217,0.568C-3.217,0.589 -3.203,0.6 -3.171,0.6L-0.374,0.6Z" style="fill:rgb(240,126,0);"/>
    </g>
    <g transform="matrix(8.33333,0,0,8.33333,513.958,183.296)">
        <path d="M0,2.419C0.046,2.419 0.074,2.405 0.088,2.373L0.233,2.048C0.233,2.045 0.233,2.038 0.237,2.034C0.237,2.013 0.219,2.002 0.187,2.002L-1.419,2.002C-1.582,2.002 -1.663,1.936 -1.663,1.799C-1.663,1.704 -1.614,1.56 -1.525,1.356L-1.356,0.971C-1.275,0.784 -1.193,0.657 -1.123,0.583C-1.017,0.473 -0.879,0.417 -0.713,0.417L0.893,0.417C0.939,0.417 0.968,0.403 0.978,0.374L1.123,0.046C1.126,0.043 1.126,0.035 1.126,0.032C1.126,0.011 1.112,0 1.081,0L-1.31,0C-1.66,0 -1.992,0.124 -2.302,0.367C-2.588,0.59 -2.804,0.872 -2.959,1.211C-3.051,1.412 -3.097,1.598 -3.097,1.774C-3.097,1.981 -3.033,2.147 -2.899,2.26C-2.775,2.366 -2.606,2.419 -2.391,2.419L0,2.419ZM0.498,1.314C0.54,1.314 0.565,1.296 0.579,1.268C0.678,1.042 0.731,0.932 0.731,0.929C0.731,0.904 0.717,0.894 0.685,0.894L-1.017,0.894C-1.056,0.894 -1.084,0.908 -1.098,0.939C-1.197,1.162 -1.246,1.278 -1.246,1.282C-1.246,1.303 -1.232,1.314 -1.204,1.314L0.498,1.314Z" style="fill:rgb(240,126,0);"/>
    </g>
    <g transform="matrix(8.33333,0,0,8.33333,544.472,183.301)">
        <path d="M0,2.422C0.042,2.422 0.071,2.408 0.085,2.376L0.957,0.416C0.985,0.353 0.999,0.296 0.999,0.243C0.999,0.081 0.872,0 0.614,0L-0.54,0C-0.583,0 -0.611,0.014 -0.625,0.045C-0.724,0.268 -0.773,0.381 -0.773,0.384C-0.773,0.406 -0.756,0.416 -0.724,0.416L-0.441,0.416C-1.024,1.726 -1.317,2.387 -1.317,2.39C-1.317,2.411 -1.303,2.422 -1.271,2.422L0,2.422Z" style="fill:rgb(240,126,0);"/>
    </g>
    <g transform="matrix(8.33333,0,0,8.33333,574.042,194.365)">
        <path d="M0,-0.237L-0.83,-0.237C-0.985,-0.237 -1.063,-0.301 -1.063,-0.431C-1.063,-0.477 -1.052,-0.527 -1.028,-0.58C-0.985,-0.675 -0.915,-0.756 -0.823,-0.82C-0.731,-0.88 -0.632,-0.911 -0.53,-0.911L-0.049,-0.911C0.102,-0.911 0.18,-0.848 0.18,-0.721C0.18,-0.671 0.166,-0.618 0.141,-0.558L0,-0.237ZM-0.12,1.091C0.109,1.091 0.332,1.038 0.551,0.928C0.791,0.808 0.953,0.65 1.038,0.46L1.515,-0.611C1.557,-0.703 1.578,-0.795 1.578,-0.887C1.578,-1.035 1.525,-1.148 1.416,-1.226C1.321,-1.293 1.197,-1.328 1.045,-1.328L-1.321,-1.328C-1.557,-1.328 -1.783,-1.261 -1.995,-1.127C-2.207,-0.993 -2.362,-0.816 -2.458,-0.601C-2.504,-0.498 -2.528,-0.396 -2.528,-0.297C-2.528,-0.131 -2.465,-0.004 -2.334,0.077C-2.225,0.144 -2.083,0.18 -1.907,0.18L-0.18,0.18C-0.247,0.33 -0.279,0.408 -0.279,0.408C-0.357,0.586 -0.519,0.674 -0.756,0.674L-2.768,0.674C-2.811,0.674 -2.839,0.688 -2.853,0.72L-2.998,1.045C-3.001,1.048 -3.001,1.055 -3.001,1.059C-3.001,1.08 -2.987,1.091 -2.956,1.091L-0.12,1.091Z" style="fill:rgb(240,126,0);"/>
    </g>
    <g transform="matrix(8.33333,0,0,8.33333,597.316,183.301)">
        <path d="M0,2.422C0.025,2.422 0.049,2.415 0.067,2.397L2.507,0.307C2.518,0.3 2.539,0.254 2.578,0.169C2.616,0.088 2.634,0.042 2.634,0.031C2.634,0.01 2.62,0 2.588,0L-0.646,0C-0.689,0 -0.717,0.014 -0.731,0.045C-0.83,0.268 -0.879,0.381 -0.879,0.384C-0.879,0.406 -0.862,0.416 -0.83,0.416L0.526,0.416L-1.713,2.355C-1.73,2.369 -1.737,2.383 -1.737,2.394C-1.737,2.411 -1.72,2.422 -1.684,2.422L0,2.422Z" style="fill:rgb(240,126,0);"/>
    </g>
    <g transform="matrix(8.33333,0,0,8.33333,636.217,190.801)">
        <path d="M0,0.618C0,0.742 -0.057,0.851 -0.166,0.953C-0.275,1.052 -0.392,1.102 -0.516,1.102L-0.996,1.102C-1.141,1.102 -1.215,1.042 -1.215,0.918C-1.215,0.798 -1.158,0.685 -1.045,0.583C-0.932,0.48 -0.816,0.427 -0.696,0.427L-0.215,0.427C-0.071,0.427 0,0.491 0,0.618M0.448,-0.315C0.448,-0.291 0.441,-0.263 0.427,-0.231C0.392,-0.154 0.332,-0.095 0.237,-0.049C0.152,-0.01 0.064,0.011 -0.032,0.011L-0.508,0.011C-0.682,0.011 -0.77,-0.042 -0.77,-0.147C-0.77,-0.172 -0.763,-0.2 -0.749,-0.231C-0.713,-0.308 -0.65,-0.372 -0.554,-0.417C-0.47,-0.459 -0.381,-0.48 -0.29,-0.48L0.191,-0.48C0.254,-0.48 0.311,-0.466 0.357,-0.445C0.417,-0.417 0.448,-0.375 0.448,-0.315M1.321,0.244C1.476,0.173 1.607,0.081 1.716,-0.035C1.847,-0.172 1.91,-0.312 1.91,-0.459C1.91,-0.614 1.84,-0.731 1.695,-0.809C1.578,-0.869 1.437,-0.9 1.268,-0.9L-0.925,-0.9C-1.158,-0.9 -1.384,-0.844 -1.607,-0.731C-1.847,-0.607 -2.009,-0.445 -2.097,-0.249C-2.129,-0.175 -2.147,-0.109 -2.147,-0.049C-2.147,0.071 -2.097,0.17 -1.999,0.244C-2.165,0.335 -2.302,0.456 -2.415,0.597C-2.549,0.763 -2.616,0.929 -2.616,1.095C-2.616,1.232 -2.564,1.342 -2.454,1.42C-2.359,1.487 -2.235,1.518 -2.087,1.518L0.275,1.518C0.498,1.518 0.713,1.451 0.922,1.317C1.13,1.183 1.278,1.013 1.366,0.812C1.409,0.717 1.43,0.629 1.43,0.54C1.43,0.424 1.395,0.325 1.321,0.244" style="fill:rgb(240,126,0);"/>
    </g>
    <g transform="matrix(8.33333,0,0,8.33333,309.731,146.177)">
        <path d="M0,-7.542L-3.165,-7.542C-3.381,-7.542 -3.538,-7.504 -3.636,-7.433C-3.733,-7.358 -3.782,-7.239 -3.782,-7.076C-3.782,-6.982 -3.76,-6.889 -3.714,-6.792C-3.671,-6.695 -3.595,-6.576 -3.49,-6.442L-0.858,-3.047C-0.454,-2.522 -0.157,-2.013 0.035,-1.519C0.227,-1.022 0.325,-0.519 0.325,-0.006C0.325,0.5 0.233,0.972 0.046,1.407C-0.138,1.844 -0.398,2.204 -0.73,2.482C-1.025,2.732 -1.393,2.913 -1.831,3.02C-2.27,3.126 -2.94,3.179 -3.844,3.179L-6.619,3.179L-7.412,-0.025L-3.909,-0.025C-3.725,-0.025 -3.582,-0.069 -3.484,-0.153C-3.387,-0.237 -3.338,-0.366 -3.338,-0.537C-3.338,-0.606 -3.36,-0.687 -3.406,-0.791C-3.449,-0.891 -3.509,-0.994 -3.584,-1.097L-6.46,-4.804C-6.757,-5.195 -6.985,-5.623 -7.142,-6.085C-7.301,-6.551 -7.38,-7.017 -7.38,-7.489C-7.38,-7.867 -7.331,-8.227 -7.236,-8.567C-7.142,-8.911 -7.001,-9.224 -6.817,-9.511C-6.533,-9.946 -6.16,-10.255 -5.7,-10.443C-5.24,-10.627 -4.561,-10.721 -3.663,-10.721L-0.73,-10.721L0,-7.542Z" style="fill:rgb(240,126,0);fill-rule:nonzero;"/>
    </g>
    <g transform="matrix(8.33333,0,0,8.33333,385.719,188.921)">
        <path d="M0,-15.85L1.934,-15.85L2.665,-12.718L0.216,-12.718C-0.958,-12.718 -1.888,-12.465 -2.578,-11.962C-3.268,-11.458 -3.787,-10.652 -4.136,-9.542L-1.069,-9.542L-1.069,-12.149L2.18,-12.149L2.18,-1.95L-1.069,-1.95L-1.069,-6.339L-4.461,-6.339C-4.428,-5.582 -4.309,-4.838 -4.104,-4.107C-3.898,-3.379 -3.606,-2.66 -3.225,-1.95L-5.792,0C-6.435,-1.141 -6.92,-2.288 -7.242,-3.438C-7.564,-4.588 -7.726,-5.751 -7.726,-6.923C-7.726,-8.248 -7.534,-9.492 -7.152,-10.658C-6.768,-11.824 -6.227,-12.809 -5.529,-13.615C-4.88,-14.365 -4.101,-14.928 -3.189,-15.297C-2.278,-15.666 -1.215,-15.85 0,-15.85" style="fill:rgb(240,126,0);fill-rule:nonzero;"/>
    </g>
    <g transform="matrix(8.33333,0,0,8.33333,425.369,141.827)">
        <path d="M0,-6.498L3.154,-6.498L3.154,0.532L5.405,0.532C5.702,0.532 5.924,0.469 6.068,0.341C6.214,0.213 6.287,0.019 6.287,-0.237C6.287,-0.762 6.035,-1.309 5.532,-1.875C5.031,-2.444 4.263,-3.047 3.233,-3.688C4.142,-4.366 4.796,-4.916 5.191,-5.342C5.589,-5.767 5.786,-6.12 5.786,-6.407C5.786,-6.632 5.713,-6.801 5.567,-6.907C5.424,-7.014 5.191,-7.067 4.875,-7.067L-0.563,-7.067L0.168,-10.199L5.478,-10.199C6.747,-10.199 7.701,-9.939 8.343,-9.42C8.984,-8.902 9.306,-8.13 9.306,-7.104C9.306,-6.492 9.181,-5.926 8.932,-5.401C8.686,-4.876 8.294,-4.36 7.761,-3.854C8.443,-3.304 8.962,-2.685 9.322,-1.994C9.682,-1.303 9.86,-0.587 9.86,0.156C9.86,0.804 9.747,1.372 9.519,1.866C9.292,2.357 8.957,2.754 8.513,3.06C8.18,3.292 7.747,3.457 7.212,3.554C6.679,3.651 5.824,3.701 4.645,3.701L0,3.701L0,-6.498Z" style="fill:rgb(240,126,0);fill-rule:nonzero;"/>
    </g>
    <g transform="matrix(8.33333,0,0,8.33333,-677.416,-1505.4)">
        <rect x="144.069" y="187.468" width="3.314" height="13.9" style="fill:rgb(240,126,0);"/>
    </g>
    <g transform="matrix(8.33333,0,0,8.33333,598.491,129.482)">
        <path d="M0,-3.535L0,5.182L-3.233,5.182L-3.233,-8.717L-0.149,-8.717L3.273,-3.673L3.273,-8.717L6.46,-8.717L6.46,5.182L3.273,5.182L3.273,1.282L0,-3.535Z" style="fill:rgb(240,126,0);fill-rule:nonzero;"/>
    </g>
    <g transform="matrix(8.33333,0,0,8.33333,713.478,175.64)">
        <path d="M0,-14.422C1.877,-14.422 3.254,-13.984 4.133,-13.112C5.013,-12.24 5.454,-10.868 5.454,-9.002C5.454,-7.708 5.278,-6.445 4.923,-5.214C4.569,-3.986 4.079,-2.923 3.457,-2.023C2.981,-1.341 2.459,-0.832 1.888,-0.5C1.317,-0.166 0.687,0 0,0C-0.695,0 -1.331,-0.169 -1.904,-0.504C-2.478,-0.841 -3.003,-1.348 -3.479,-2.023C-4.106,-2.923 -4.596,-3.982 -4.948,-5.211C-5.299,-6.436 -5.475,-7.702 -5.475,-9.002C-5.475,-10.862 -5.031,-12.231 -4.147,-13.109C-3.262,-13.984 -1.88,-14.422 0,-14.422M-2.21,-8.783C-2.21,-8.13 -2.153,-7.477 -2.037,-6.827C-1.921,-6.177 -1.75,-5.551 -1.528,-4.954C-1.323,-4.398 -1.087,-3.97 -0.822,-3.673C-0.56,-3.373 -0.284,-3.223 0,-3.223C0.187,-3.223 0.371,-3.292 0.555,-3.429C0.741,-3.567 0.901,-3.754 1.039,-3.992C1.404,-4.645 1.685,-5.38 1.888,-6.195C2.088,-7.011 2.188,-7.839 2.188,-8.68C2.188,-9.621 2.026,-10.281 1.702,-10.656C1.377,-11.031 0.809,-11.218 0,-11.218C-0.806,-11.218 -1.377,-11.034 -1.71,-10.665C-2.042,-10.296 -2.21,-9.668 -2.21,-8.783" style="fill:rgb(240,126,0);"/>
    </g>
</svg>
