<svg xmlns="http://www.w3.org/2000/svg" xml:space="preserve" style="fill-rule:evenodd;clip-rule:evenodd;stroke-linejoin:round;stroke-miterlimit:2" viewBox="0 0 759 236"><path d="M0 5.314a.848.848 0 1 1 1.696 0 .848.848 0 0 1-1.696 0m-.849 0a1.697 1.697 0 1 1 3.395 0 1.697 1.697 0 0 1-3.395 0m15.065 0c0-.641-.321-1.323-.883-1.701l.368-.001a2.35 2.35 0 0 1 .744 1.702q0 .195-.032.381l-.225-.038q.028-.167.028-.343m-2.915 0a.848.848 0 1 1 1.696 0 .848.848 0 0 1-1.696 0m-.848 0a1.697 1.697 0 1 1 3.395 0 1.697 1.697 0 0 1-3.395 0M1.499 1.487V-.969H-.09c-.759 0-2.383.975-2.383 2.456zm8.585 3.827q0 .176.028.343l-.225.038a2.3 2.3 0 0 1 .092-1.119l-4.246-.195v.877H3.129v.056q0 .195-.031.381l-.226-.038q.028-.167.028-.343c0-.642-.294-1.215-.756-1.591a2.052 2.052 0 0 0-3.348 1.591v.476H-4.14V4.333h.361V2.022h.183C-3.512-.23-.952-1.697-.018-1.697h2.1v5.072c.351.235.662.62.82.947v-.707h2.831v.405l4.401.197c.119-.225.275-.431.465-.605l.368.001c-.562.378-.883 1.06-.883 1.701" style="fill:#005aa8" transform="translate(59.205 107.993)scale(8.33333)"/><path d="m0-27.843-11.856 6.845v14.153L.401.232l12.257-7.077v-14.153L.401-28.075zm.401 1.621 10.653 6.15v12.301L.401-1.62l-10.653-6.151v-12.301z" style="fill:#f07e00;fill-rule:nonzero" transform="translate(98.8 233.958)scale(8.33333)"/><path d="M90.682 194.344h12.023v5.507H90.682z" style="fill:#f07e00" transform="matrix(-8.33333 0 0 8.33333 934.143 -1550.06)"/><path d="M90.681 191.949h12.029v2.135H90.681z" style="fill:#f07e00" transform="translate(-677.416 -1482.04)scale(8.33333)"/><path d="M0-1.219q0 .11-.117.37l-.169.384a1.8 1.8 0 0 1-.251.433.55.55 0 0 1-.434.215h-.678l.706-1.585h.678q.265 0 .265.183M-.374.6C-.032.6.3.476.614.229q.434-.337.661-.838a1.4 1.4 0 0 0 .141-.575q0-.313-.201-.48-.185-.154-.509-.155H-2.09q-.064-.001-.085.046A347 347 0 0 0-3.217.568Q-3.218.6-3.171.6z" style="fill:#f07e00" transform="translate(379.597 198.454)scale(8.33333)"/><path d="M0 2.419q.068.001.088-.046l.145-.325q-.001-.006.004-.014-.001-.032-.05-.032h-1.606q-.244.001-.244-.203c0-.095.049-.239.138-.443l.169-.385a1.4 1.4 0 0 1 .233-.388.55.55 0 0 1 .41-.166H.893q.07 0 .085-.043l.145-.328c.003-.003.003-.011.003-.014Q1.126 0 1.081 0H-1.31q-.525.001-.992.367a2.2 2.2 0 0 0-.657.844 1.35 1.35 0 0 0-.138.563c0 .207.064.373.198.486q.186.159.508.159zm.498-1.105c.042 0 .067-.018.081-.046.099-.226.152-.336.152-.339Q.732.893.685.894h-1.702q-.06 0-.081.045a9 9 0 0 0-.148.343q0 .032.042.032z" style="fill:#f07e00" transform="translate(416.615 183.296)scale(8.33333)"/><path d="M0 2.419q.48.001.862-.109.565-.165.565-.519-.001-.259-.325-.56L.23.417h1.578q.064 0 .085-.043l.144-.328c.004-.003.004-.011.004-.014Q2.042 0 1.995 0H-.162q-.202 0-.403.043a1.7 1.7 0 0 0-.551.226q-.302.2-.303.468 0 .231.254.462l.882.803H-1.85q-.064-.001-.085.046l-.145.325q0 .008-.003.014 0 .032.049.032z" style="fill:#f07e00" transform="translate(437.773 183.296)scale(8.33333)"/><path d="M0-1.219q0 .11-.117.37l-.169.384q-.128.29-.251.433a.55.55 0 0 1-.434.215h-.678l.706-1.585h.678q.265 0 .265.183M-.374.6C-.032.6.3.476.614.229q.434-.337.661-.838a1.4 1.4 0 0 0 .141-.575q0-.313-.201-.48-.185-.154-.509-.155H-2.09q-.064-.001-.085.046A347 347 0 0 0-3.217.568Q-3.218.6-3.171.6z" style="fill:#f07e00" transform="translate(476.94 198.454)scale(8.33333)"/><path d="M0 2.419q.068.001.088-.046l.145-.325q-.001-.006.004-.014-.001-.032-.05-.032h-1.606q-.244.001-.244-.203c0-.095.049-.239.138-.443l.169-.385a1.4 1.4 0 0 1 .233-.388.55.55 0 0 1 .41-.166H.893q.07 0 .085-.043l.145-.328c.003-.003.003-.011.003-.014Q1.126 0 1.081 0H-1.31q-.526.001-.992.367a2.2 2.2 0 0 0-.657.844 1.35 1.35 0 0 0-.138.563c0 .207.064.373.198.486q.186.159.508.159zm.498-1.105c.042 0 .067-.018.081-.046.099-.226.152-.336.152-.339Q.732.893.685.894h-1.702q-.06 0-.081.045a9 9 0 0 0-.148.343q0 .032.042.032z" style="fill:#f07e00" transform="translate(513.958 183.296)scale(8.33333)"/><path d="M0 2.422q.063.001.085-.046L.957.416A.4.4 0 0 0 .999.243Q1 0 .614 0H-.54q-.064 0-.085.045-.148.335-.148.339 0 .033.049.032h.283c-.583 1.31-.876 1.971-.876 1.974q-.001.032.046.032z" style="fill:#f07e00" transform="translate(544.472 183.301)scale(8.33333)"/><path d="M0-.237h-.83q-.233 0-.233-.194 0-.07.035-.149a.6.6 0 0 1 .205-.24.53.53 0 0 1 .293-.091h.481q.228 0 .229.19 0 .074-.039.163zm-.12 1.328q.343.001.671-.163.36-.181.487-.468l.477-1.071a.7.7 0 0 0 .063-.276.39.39 0 0 0-.162-.339.63.63 0 0 0-.371-.102h-2.366q-.355 0-.674.201a1.2 1.2 0 0 0-.463.526.75.75 0 0 0-.07.304q-.001.25.194.374a.8.8 0 0 0 .427.103H-.18q-.1.226-.099.228c-.078.178-.24.266-.477.266h-2.012q-.064-.001-.085.046l-.145.325q-.004.006-.003.014 0 .032.045.032z" style="fill:#f07e00" transform="translate(574.042 194.365)scale(8.33333)"/><path d="M0 2.422a.1.1 0 0 0 .067-.025l2.44-2.09c.011-.007.032-.053.071-.138a.7.7 0 0 0 .056-.138Q2.635 0 2.588 0H-.646Q-.71 0-.731.045-.879.38-.879.384q0 .033.049.032H.526l-2.239 1.939q-.025.022-.024.039 0 .027.053.028z" style="fill:#f07e00" transform="translate(597.316 183.301)scale(8.33333)"/><path d="M0 .618c0 .124-.057.233-.166.335a.5.5 0 0 1-.35.149h-.48q-.218.001-.219-.184 0-.181.17-.335A.52.52 0 0 1-.696.427h.481q.216 0 .215.191m.448-.933a.2.2 0 0 1-.021.084.37.37 0 0 1-.19.182.6.6 0 0 1-.269.06h-.476q-.261 0-.262-.158 0-.038.021-.084a.4.4 0 0 1 .195-.186A.6.6 0 0 1-.29-.48h.481q.096.002.166.035.09.041.091.13m.873.559q.232-.106.395-.279.195-.205.194-.424a.37.37 0 0 0-.215-.35.9.9 0 0 0-.427-.091H-.925q-.349 0-.682.169-.359.187-.49.482a.5.5 0 0 0-.05.2q0 .181.148.293a1.4 1.4 0 0 0-.416.353q-.201.249-.201.498-.002.207.162.325a.63.63 0 0 0 .367.098H.275q.334 0 .647-.201.312-.202.444-.505A.65.65 0 0 0 1.43.54a.42.42 0 0 0-.109-.296" style="fill:#f07e00" transform="translate(636.217 190.801)scale(8.33333)"/><path d="M0-7.542h-3.165q-.324.001-.471.109-.146.113-.146.357 0 .14.068.284.066.147.224.35l2.632 3.395q.606.787.893 1.528.289.745.29 1.513 0 .76-.279 1.413A2.8 2.8 0 0 1-.73 2.482q-.443.376-1.101.538-.658.159-2.013.159h-2.775l-.793-3.204h3.503q.277-.001.425-.128.146-.127.146-.384a.7.7 0 0 0-.068-.254 1.6 1.6 0 0 0-.178-.306L-6.46-4.804a4.5 4.5 0 0 1-.92-2.685q0-.567.144-1.078.142-.515.419-.944a2.4 2.4 0 0 1 1.117-.932q.69-.277 2.037-.278H-.73z" style="fill:#f07e00;fill-rule:nonzero" transform="translate(309.731 146.177)scale(8.33333)"/><path d="M0-15.85h1.934l.731 3.132H.216q-1.76 0-2.794.756t-1.558 2.42h3.067v-2.607H2.18V-1.95h-3.249v-4.389h-3.392q.05 1.135.357 2.232.308 1.092.879 2.157L-5.792 0a15.6 15.6 0 0 1-1.45-3.438 13 13 0 0 1-.484-3.485q0-1.987.574-3.735.576-1.749 1.623-2.957a6.1 6.1 0 0 1 2.34-1.682Q-1.822-15.85 0-15.85" style="fill:#f07e00;fill-rule:nonzero" transform="translate(385.719 188.921)scale(8.33333)"/><path d="M0-6.498h3.154v7.03h2.251q.446 0 .663-.191.219-.193.219-.578 0-.788-.755-1.638-.753-.852-2.299-1.813 1.365-1.016 1.958-1.654.596-.636.595-1.065 0-.34-.219-.5-.216-.16-.692-.16H-.563l.731-3.132h5.31q1.903 0 2.865.779.962.777.963 2.316 0 .917-.374 1.703-.37.788-1.171 1.547 1.022.824 1.561 1.86T9.86.156q0 .97-.341 1.71A2.9 2.9 0 0 1 8.513 3.06q-.499.348-1.301.494-.799.146-2.567.147H0z" style="fill:#f07e00;fill-rule:nonzero" transform="translate(425.369 141.827)scale(8.33333)"/><path d="M144.069 187.468h3.314v13.9h-3.314z" style="fill:#f07e00" transform="translate(-677.416 -1505.4)scale(8.33333)"/><path d="M0-3.535v8.717h-3.233V-8.717h3.084l3.422 5.044v-5.044H6.46V5.182H3.273v-3.9z" style="fill:#f07e00;fill-rule:nonzero" transform="translate(598.491 129.482)scale(8.33333)"/><path d="M0-14.422q2.815.001 4.133 1.31 1.32 1.31 1.321 4.11 0 1.941-.531 3.788-.532 1.842-1.466 3.191Q2.744-.999 1.888-.5 1.031 0 0 0a3.7 3.7 0 0 1-1.904-.504q-.861-.506-1.575-1.519c-.627-.9-1.117-1.959-1.469-3.188a13.7 13.7 0 0 1-.527-3.791q.001-2.79 1.328-4.107Q-2.82-14.422 0-14.422m-2.21 5.639q0 .98.173 1.956.175.976.509 1.873.308.835.706 1.281.395.45.822.45a.92.92 0 0 0 .555-.206q.278-.206.484-.563a9 9 0 0 0 .849-2.203q.3-1.224.3-2.485 0-1.412-.486-1.976-.488-.562-1.702-.562-1.21 0-1.71.553-.499.554-.5 1.882" style="fill:#f07e00" transform="translate(713.478 175.64)scale(8.33333)"/></svg>