<svg xmlns="http://www.w3.org/2000/svg" xml:space="preserve" style="fill-rule:evenodd;clip-rule:evenodd;stroke-linejoin:round;stroke-miterlimit:2" viewBox="0 0 807 193"><path d="M0 23.038q-24.091-.001-48.182.005c-.181 0-.223-.041-.222-.223q.008-11.301 0-22.602c-.001-.182.041-.223.222-.223Q0 .003 48.182-.005c.181 0 .222.041.222.223q-.008 11.301 0 22.602c0 .182-.041.223-.222.223Q24.091 23.037 0 23.038" style="fill:#139999;fill-rule:nonzero" transform="translate(403.373 .038)scale(8.33333)"/><path d="M0-4.168q-.267.605-.531 1.212-.426.99-.85 1.983c-.413.967-.822 1.935-1.237 2.901q-.488 1.132-.98 2.263c-.063.146-.148.285-.188.436-.066.254-.213.319-.466.31a39 39 0 0 0-1.815-.002c-.177.002-.26-.049-.33-.225-.389-.977-.8-1.944-1.2-2.916-.359-.869-.71-1.74-1.07-2.609q-.623-1.5-1.252-2.996c-.056-.135-.11-.27-.198-.398v.258c0 2.823-.003 5.646.006 8.469.001.229-.067.276-.281.273a82 82 0 0 0-2.323-.001c-.172.002-.213-.05-.213-.217q.008-6.726 0-13.453c0-.178.041-.23.225-.229q2.324.01 4.646.001c.134 0 .206.029.26.167.382.979.774 1.954 1.168 2.928.465 1.149.935 2.297 1.401 3.446.229.564.452 1.129.682 1.692.026.063.04.141.118.174q.498-1.19 1-2.379c.413-.975.832-1.948 1.245-2.924q.512-1.211 1.02-2.425c.053-.124.124-.243.155-.372.063-.256.214-.313.466-.31 1.411.013 2.823.009 4.234.002.175-.001.232.036.232.223q-.009 6.727 0 13.454c0 .189-.06.223-.233.222a216 216 0 0 0-3.411.001c-.196.002-.237-.058-.237-.243.006-2.815.004-5.63.004-8.445v-.264z" style="fill:#fff;fill-rule:nonzero" transform="translate(402.973 113.413)scale(8.33333)"/><path d="M0-3.549v.261C0-.569-.004 2.149.007 4.867c.001.263-.078.314-.32.309a75 75 0 0 0-2.275-.003c-.157.002-.224-.024-.223-.205q.008-6.74 0-13.479c0-.172.048-.214.216-.214q2.044.01 4.09.002c.132 0 .219.027.287.156.199.378.418.746.624 1.121q1.146 2.095 2.288 4.194c.442.814.878 1.633 1.319 2.448.12.221.252.436.424.649v-.248c0-2.686.003-5.372-.005-8.058-.001-.213.05-.269.264-.265a87 87 0 0 0 2.347.002c.156-.001.205.039.205.2a8682 8682 0 0 0-.001 13.503c0 .142-.03.195-.185.195a544 544 0 0 0-4.041-.002c-.106 0-.172-.023-.226-.124q-.627-1.16-1.266-2.314C2.872 1.549 2.208.368 1.553-.817 1.159-1.531.775-2.252.385-2.968c-.109-.2-.224-.396-.336-.594z" style="fill:#fff;fill-rule:nonzero" transform="translate(589.306 110.213)scale(8.33333)"/><path d="M0-.03c0-2.226.003-4.452-.004-6.679-.001-.194.037-.257.246-.257q4.816.01 9.631 0c.209 0 .251.062.247.257q-.018 1.065.001 2.129c.003.197-.059.237-.243.237-1.864-.007-3.727 0-5.59-.009-.223-.002-.279.058-.276.277q.018 1.247.001 2.493c-.002.189.047.241.239.24 1.597-.008 3.194-.001 4.791-.009.198-.001.26.043.255.249a43 43 0 0 0 0 1.863c.004.205-.037.272-.26.27-1.573-.011-3.146.001-4.719-.013-.263-.002-.311.08-.307.321q.02 1.318 0 2.637c-.003.208.062.249.257.248 1.911-.007 3.823 0 5.735-.01.218-.001.266.058.262.267a72 72 0 0 0-.001 2.226c.003.182-.047.227-.227.227a2463 2463 0 0 0-9.801.002c-.218 0-.241-.078-.241-.263C.002 4.439 0 2.204 0-.03" style="fill:#fff;fill-rule:nonzero" transform="translate(191.215 95.546)scale(8.33333)"/><path d="M0-.019c0-2.226.004-4.453-.006-6.679-.001-.22.061-.262.268-.261q4.792.01 9.583-.001c.223 0 .281.058.276.278a59 59 0 0 0-.001 2.105c.003.189-.047.242-.239.241-1.871-.008-3.742-.002-5.614-.009-.197-.001-.258.043-.255.249q.018 1.247.001 2.492c-.003.205.038.271.26.27 1.589-.011 3.178-.001 4.767-.012.252-.002.313.077.307.317A40 40 0 0 0 9.346.81c.003.184-.051.227-.229.226-1.613-.007-3.227 0-4.84-.01-.213-.001-.268.051-.265.265q.018 1.343.001 2.686c-.003.199.046.255.25.254 1.896-.009 3.791-.002 5.687-.01.206-.001.273.04.269.261-.016.75-.01 1.5-.004 2.25.002.151-.03.208-.196.208q-4.913-.008-9.825.001c-.196 0-.196-.089-.196-.233Q.001 3.345 0-.019" style="fill:#fff;fill-rule:nonzero" transform="translate(461.848 95.496)scale(8.33333)"/><path d="M0 10.492c0-.411.005-.823-.002-1.234-.003-.157.043-.196.197-.148a19 19 0 0 0 2.015.526c.444.084.891.152 1.343.179.151.009.306.027.451.029.706.011 1.417.009 2.048-.392.569-.36.733-1.282-.071-1.772-.564-.344-1.191-.548-1.789-.814-.925-.41-1.883-.747-2.716-1.347C.642 4.92.043 4.146-.175 3.147-.487 1.719-.153.445.962-.556c.705-.633 1.557-.989 2.472-1.195.816-.184 1.645-.226 2.478-.194a18 18 0 0 1 2.059.225c.407.064.81.153 1.217.206.22.029.309.114.304.353A65 65 0 0 0 9.49 1.04c.002.216-.059.236-.25.162A10.7 10.7 0 0 0 6.767.566C6.363.513 5.959.449 5.552.477c-.451.03-.896.093-1.304.317-.707.387-.913 1.122-.09 1.66.519.34 1.106.55 1.658.826.624.313 1.261.601 1.88.924.642.335 1.259.715 1.759 1.25.663.708 1.056 1.525 1.053 2.522-.001.826-.175 1.588-.654 2.269-.67.952-1.616 1.498-2.7 1.842-.508.162-1.03.239-1.559.299-.748.083-1.497.06-2.241.031a13.5 13.5 0 0 1-2.821-.401c-.534-.137-.533-.139-.533-.701z" style="fill:#fff;fill-rule:nonzero" transform="translate(690.14 51.746)scale(8.33333)"/><path d="M0 10.455c0-.411.004-.823-.002-1.234-.002-.141.039-.194.181-.148q1.004.328 2.037.534c.436.087.876.152 1.32.175.192.01.385.04.572.041.556.002 1.108-.044 1.643-.231.662-.232.966-1.017.642-1.535-.195-.312-.495-.497-.817-.637-1.145-.5-2.324-.925-3.43-1.51-1.14-.602-2.007-1.472-2.31-2.763C-.434 2.001-.282.906.471-.051c.769-.979 1.821-1.466 3.004-1.736.859-.196 1.729-.219 2.6-.183.633.025 1.263.119 1.892.218.414.065.825.151 1.24.211.156.023.241.077.237.272-.015.766-.008 1.532-.004 2.299.001.156-.011.215-.197.144A10.7 10.7 0 0 0 6.77.535C6.357.481 5.945.416 5.53.447c-.564.041-1.128.121-1.572.519-.515.462-.439 1.04.194 1.456.519.34 1.108.545 1.659.826.622.317 1.259.604 1.88.924.66.339 1.287.734 1.794 1.284.639.693 1.024 1.495 1.022 2.466-.002.772-.158 1.493-.562 2.157-.361.594-.874 1.026-1.452 1.389-.645.405-1.361.629-2.1.782-1.015.211-2.045.174-3.068.137-1.062-.038-2.112-.222-3.147-.472-.129-.031-.184-.087-.181-.226.008-.411.003-.823.003-1.234" style="fill:#fff;fill-rule:nonzero" transform="translate(27.865 52.005)scale(8.33333)"/><path d="M0-.005c0 2.233-.003 4.467.005 6.7 0 .2-.049.255-.251.253q-1.826-.013-3.653-.001c-.163 0-.219-.035-.219-.21q.007-6.736 0-13.473c0-.169.043-.217.214-.216q1.839.014 3.677-.001c.204-.002.231.072.23.248C-.002-4.472 0-2.238 0-.005" style="fill:#fff;fill-rule:nonzero" transform="translate(164.998 95.438)scale(8.33333)"/></svg>