<svg xmlns="http://www.w3.org/2000/svg" xml:space="preserve" style="fill-rule:evenodd;clip-rule:evenodd;stroke-linejoin:round;stroke-miterlimit:2" viewBox="0 0 28 7"><path d="M118.698 32.941a.24.24 0 0 0 .241-.239v-3.503a.24.24 0 0 0-.241-.238h-4.406a.16.16 0 0 1-.16-.16v-1.273a.16.16 0 0 1 .16-.16h1.282a.16.16 0 0 1 .159.16v.398a.24.24 0 0 0 .242.239h1.922a.24.24 0 0 0 .241-.239v-1.115a.24.24 0 0 0-.241-.238h-5.93a.24.24 0 0 0-.24.238v2.706c0 .133.108.24.24.24h4.408a.16.16 0 0 1 .16.159v2.07a.16.16 0 0 1-.16.159h-2.885a.16.16 0 0 1-.159-.159v-1.195a.24.24 0 0 0-.241-.238h-1.922a.24.24 0 0 0-.242.238v1.911a.24.24 0 0 0 .242.239m11.776-2.287a.04.04 0 0 1 .04-.04.04.04 0 0 1 .028.011l2.261 2.248c.013.012.072.068.168.068h2.87a.24.24 0 0 0 .242-.239v-1.91a.24.24 0 0 0-.242-.238h-2.071a.24.24 0 0 1-.165-.066l-1.508-1.499a.04.04 0 0 1-.012-.028q0-.018.012-.028l.701-.7a.25.25 0 0 1 .169-.068h2.074a.24.24 0 0 0 .24-.239v-1.115a.24.24 0 0 0-.24-.238h-2.07a.24.24 0 0 0-.168.067l-2.261 2.248a.04.04 0 0 1-.028.012.04.04 0 0 1-.04-.041v-2.048a.24.24 0 0 0-.24-.238h-2.323a.24.24 0 0 0-.24.238v1.911a.24.24 0 0 0 .24.239c.089 0 .16.071.16.158v1.275a.16.16 0 0 1-.16.159.24.24 0 0 0-.24.238v1.911a.24.24 0 0 0 .24.239h2.323a.24.24 0 0 0 .24-.239m9.372.239a.24.24 0 0 0 .241-.239v-1.911a.24.24 0 0 0-.241-.238.16.16 0 0 1-.16-.159v-.478a.16.16 0 0 1 .16-.159h.881c.088 0 .159.071.159.159a.24.24 0 0 0 .242.239h1.925a.24.24 0 0 0 .24-.239v-1.115a.24.24 0 0 0-.24-.238h-1.925a.24.24 0 0 0-.242.238.16.16 0 0 1-.159.159l-.881.001a.16.16 0 0 1-.16-.16v-1.273c0-.088.073-.16.16-.16h2.485a.16.16 0 0 1 .16.16v.398c0 .131.109.239.241.239h2.724a.24.24 0 0 0 .241-.239v-1.115a.24.24 0 0 0-.241-.238h-7.932a.24.24 0 0 0-.24.238v1.911a.24.24 0 0 0 .24.239c.089 0 .16.071.16.158v1.275a.16.16 0 0 1-.16.159.24.24 0 0 0-.24.238v1.911a.24.24 0 0 0 .24.239" style="fill:#0068b0;fill-rule:nonzero" transform="translate(-110.926 -26.573)"/></svg>