<svg xmlns="http://www.w3.org/2000/svg" xml:space="preserve" style="fill-rule:evenodd;clip-rule:evenodd;stroke-linejoin:round;stroke-miterlimit:2" viewBox="0 0 150 31"><path d="M552.71 714.79a.26.26 0 0 1-.089.204.3.3 0 0 1-.192.059h-.333l-2.57-5.824-.67 3.12a.5.5 0 0 1-.519.446h-.432l-2.029-3.532.02 5.51a.27.27 0 0 1-.092.215.3.3 0 0 1-.205.065h-.433v-6.62h.552v.001l.012-.001a.7.7 0 0 1 .429.126c.109.078.203.187.286.318l1.776 3.169.74-3.613h.474c.302 0 .555.176.687.476l2.554 5.743c.018.047.033.078.034.138m23.281.263h-2.732c-1.276-.003-1.411-1.051-1.417-1.545 0-.52.378-.934.566-1.102l1.86-1.822c.221-.217.328-.473.328-.711 0-.403-.308-.733-.806-.731-.001-.003-2.408-.004-2.43-.01-.079-.015-.162-.118-.16-.201h-.007l.007-.003v-.497h2.704c1.277.005 1.411 1.051 1.418 1.545l-.001.004c.001.684-.629 1.213-.633 1.215l-1.764 1.736c-.22.217-.356.44-.357.68.001.405.309.733.805.733.003.001 2.438.003 2.458.009l.006-.018-.005.018c.079.015.163.119.161.201v.002zm-19.498-.664c-1.214.067-2.602-.648-3.079-2.578-.47-1.892.408-2.811 1.598-2.964l.124-.006c1.228-.065 2.535.651 2.995 2.581.449 1.893-.431 2.844-1.638 2.967m2.348-3.024c-.447-1.882-1.803-3.367-3.968-3.2v.001c-2.014.233-2.591 2.005-2.166 3.703.469 1.88 1.82 3.365 3.954 3.2v-.002c1.987-.232 2.582-2.006 2.18-3.702m12.055 3.625a.3.3 0 0 1-.182.051h-.323l-3.407-2.914.453 2.575a.27.27 0 0 1-.099.281.35.35 0 0 1-.208.07h-.328l-1.23-6.62h.728l.539 2.93 2.698-2.932h.323a.3.3 0 0 1 .181.053.22.22 0 0 1 .084.18c0 .119-.097.239-.097.239l-2.553 2.774 3.408 2.894s.096.082.096.239a.23.23 0 0 1-.083.18m-6.841-.942c-.133.129-.336.191-.65.25a3 3 0 0 1-.37.035c-.379.021-1.505.004-1.85.001l-.436-2.408c.259-.004.556-.008.765-.009.589 0 1.159.019 1.562.129 1.037.281 1.551 1.457.979 2.002m.669.4c.295-.335.317-.957.233-1.34-.102-.468-.547-1.649-2.215-1.798l1.405-2.407s.096-.144.096-.239c.001-.063-.027-.141-.084-.18a.3.3 0 0 0-.18-.053h-.371l-1.648 2.84-1.327.006-.515-2.846h-.729l1.232 6.622h1.701c1.005 0 1.887-.015 2.402-.605m-48.958-.809a1.58 1.58 0 0 1 .675-1.574l2.116-1.477c.222-.153.332-.259.305-.438-.04-.247-.169-.347-.608-.347h-2.461c-.263 0-.406-.129-.454-.426v-.917h2.883c1.264 0 1.889.745 2.015 1.537.118.745-.132 1.277-.613 1.62l-2.249 1.596c-.181.13-.226.197-.213.295.02.162.168.229.424.229h2.57c.314 0 .493.321.543.639v.705h-3.398c-.754 0-1.413-.674-1.535-1.442m25.616 1.443h-3.564l-.018-.107c-.083-.449-.046-.97.665-.97h2.64c1.045 0 1.445-.756 1.186-2.175-.238-1.3-.938-2.293-2.002-2.293h-1.431l.679 3.724h-1.217c-.164 0-.277-.119-.296-.225l-.835-4.575h2.791c2.061 0 3.498.97 3.943 3.417.344 1.88-.439 3.204-2.541 3.204m-8.461-5.546h-2.813l.972 5.32a.194.194 0 0 1-.193.225h-1.238l-1.209-6.62h4.66l.121.661c.054.297-.046.414-.3.414m3.506 5.546h-1.238l-1.209-6.621h1.472l1.168 6.396a.192.192 0 0 1-.193.225m-11.449-1.135c-1.343 0-2.047-.781-2.299-2.317-.252-1.539.195-2.318 1.538-2.318s2.046.779 2.298 2.318c.253 1.536-.194 2.317-1.537 2.317m2.999-2.317c-.309-1.88-1.581-3.454-3.946-3.454-2.367 0-3.122 1.574-2.813 3.454.308 1.879 1.581 3.451 3.947 3.451s3.121-1.572 2.812-3.451m-17.2 5.758c-1.407.231-3.922.32-4.782-.998-.664-1.018.591-2.413 1.734-3.764.916-1.082 1.913-2.116 1.506-2.72-.332-.494-2.463-.493-3.197-.532-.891-.047-2.175-.05-2.399-.172-.201-.108-.313-.444.441-.579.606-.109 2.049-.33 3.571-.329 1.589 0 3.258.261 3.62 1.491.291.988-.718 2.047-1.605 3.121-.97 1.176-1.954 2.014-1.871 2.847.063.648 1.334.685 3.442.722.438.008 1.311.029 1.143.375-.15.306-.803.407-1.603.538m-6.485-2.933c-.902.619-2.51.826-3.834.757-1.179-.062-3.206-.437-3.13-.81.072-.403 1.355-.278 1.943-.278 1.293 0 3.345-.079 3.668-.912.697-1.795-4.029-5.018-5.037-4.708-.456.139.926 2.482 1.427 3.324.298.503.752 1.293.365 1.347-.433.06-.91-.684-1.22-1.113-.841-1.165-1.702-2.437-2.393-3.744-.214-.404-.922-1.619-.679-1.776.227-.146 1.308.062 2.683.607 4.322 1.711 6.268 3.941 6.789 5.783.183.649-.133 1.215-.582 1.523m-3.209 7.869c-.089.291 1.353.669 2.934.739 1.593.07 3.477-.247 3.829-1.298.575-1.722-2.342-4.233-4.883-5.467-.624-.302-1.001-.385-1.159-.364-.149.02-.173.16-.124.256.09.181.501.55 1.049.951 2.861 2.09 3.791 3.623 3.251 4.244-.347.398-1.797.675-3.303.675-.409 0-1.483-.089-1.594.264" style="fill:#ee2722;fill-rule:nonzero" transform="matrix(1.8601 0 0 -1.8601 -921.404 1344.987)"/></svg>