<?xml version="1.0" encoding="UTF-8" standalone="no"?>
<!DOCTYPE svg PUBLIC "-//W3C//DTD SVG 1.1//EN" "http://www.w3.org/Graphics/SVG/1.1/DTD/svg11.dtd">
<svg width="100%" height="100%" viewBox="0 0 993 521" version="1.1" xmlns="http://www.w3.org/2000/svg" xmlns:xlink="http://www.w3.org/1999/xlink" xml:space="preserve" style="fill-rule:evenodd;clip-rule:evenodd;stroke-linejoin:round;stroke-miterlimit:2;">
    <g transform="matrix(1,0,0,1,-15.9879,-15.6226)">
        <rect id="path3601" x="15.988" y="15.623" width="992.024" height="520.755" style="fill:rgb(233,131,0);fill-rule:nonzero;"/>
        <path id="path3611" d="M439.212,205.727L239.832,205.727C223.664,205.727 210.554,192.618 210.554,176.449C210.554,160.317 223.664,147.208 239.832,147.208L439.212,147.208C455.38,147.208 468.489,160.317 468.489,176.449C468.489,192.618 455.38,205.727 439.212,205.727ZM429.369,322.934C429.369,306.73 416.26,293.621 400.092,293.621L200.675,293.621C184.507,293.621 171.434,306.73 171.434,322.898C171.434,339.031 184.507,352.14 200.675,352.14L400.092,352.14C416.224,352.14 429.333,339.067 429.369,322.934ZM112.673,249.444C112.673,257.218 115.732,264.704 121.247,270.183C126.736,275.699 134.185,278.794 141.986,278.794L341.366,278.794C357.534,278.794 370.643,265.685 370.643,249.552C370.643,233.384 357.534,220.275 341.366,220.275L141.986,220.275C134.221,220.275 126.763,223.334 121.283,228.814C115.804,234.266 112.709,241.68 112.673,249.444ZM525.667,148.828L513.233,194.723L574.909,194.723L532.946,350.385L586.048,350.385L627.768,194.723L689.454,194.723L701.573,148.828L525.667,148.828ZM716.968,148.828L662.984,350.385L824.935,350.385L836.749,305.786L726.883,305.786L736.789,269.131L834.922,269.131L846.061,228.463L747.72,228.463L757.383,193.283L866.899,193.283L878.991,148.891L717.04,148.891L716.968,148.826L716.968,148.828ZM482.831,425.495C487.257,425.495 491.477,423.695 494.563,420.501L490.101,414.842C488.31,416.632 485.89,417.721 483.353,417.865C481.634,417.865 479.979,417.163 478.818,415.859C477.657,414.563 477.135,412.835 477.342,411.117C477.064,405.773 480.896,401.139 486.205,400.401C489.048,400.293 491.684,401.877 492.953,404.441L499.701,399.726C497.101,395.228 492.215,392.628 487.078,392.978C482.093,392.807 477.243,394.67 473.69,398.152C470.145,401.625 468.138,406.411 468.174,411.396C468.03,415.265 469.578,418.99 472.394,421.662C475.201,424.334 479.034,425.63 482.867,425.279L482.831,425.495ZM514.6,425.495C524.335,425.279 532.208,417.442 532.415,407.671C532.631,403.739 531.119,399.942 528.276,397.198C525.424,394.49 521.555,393.122 517.623,393.509C507.888,393.717 500.052,401.589 499.8,411.324C499.664,415.229 501.212,419.026 504.055,421.698C506.899,424.37 510.767,425.702 514.672,425.279L514.6,425.495ZM514.987,418.009C513.197,418.108 511.398,417.442 510.102,416.146C508.797,414.878 508.132,413.087 508.24,411.261C508.168,406.123 512,401.769 517.093,401.139C518.919,401.031 520.719,401.697 521.978,402.965C523.283,404.261 523.949,406.06 523.841,407.887C523.841,412.943 520.08,417.235 515.059,417.865L514.987,418.009ZM533.612,424.757L542.402,424.757L547.036,407.005C547.36,403.523 550.311,400.851 553.784,400.851C554.882,400.68 556.006,400.995 556.843,401.733C557.653,402.471 558.112,403.523 558.04,404.648C558.04,405.566 557.896,406.51 557.652,407.428L553.118,424.334L561.908,424.334L566.371,407.815C566.929,405.917 567.252,403.946 567.351,401.949C567.387,399.555 566.407,397.27 564.643,395.687C562.925,394.067 560.567,393.266 558.183,393.509C555.016,393.689 552.029,395.021 549.816,397.306L550.625,393.509L541.871,393.509L533.612,424.757ZM569.25,424.757L577.969,424.757L582.89,407.005C583.205,403.523 586.12,400.851 589.638,400.851C590.727,400.68 591.851,400.995 592.661,401.733C593.507,402.471 593.921,403.523 593.885,404.648C593.856,405.566 593.714,406.51 593.471,407.428L588.972,424.334L597.646,424.334L602.117,407.815C602.675,405.989 602.99,404.126 603.134,402.228C603.242,399.762 602.288,397.378 600.462,395.687C598.671,394.004 596.206,393.194 593.75,393.509C590.547,393.689 587.56,395.021 585.31,397.306L586.264,393.509L577.474,393.509L569.25,424.757ZM615.01,412.422L636.136,412.422C637.045,410.271 637.576,407.986 637.684,405.674C637.855,402.327 636.559,399.061 634.166,396.739C631.745,394.427 628.47,393.23 625.132,393.509C615.01,393.617 606.895,401.841 606.859,411.927C606.643,415.688 608.092,419.376 610.827,421.977C613.571,424.577 617.332,425.846 621.093,425.423C625.375,425.531 629.559,424.082 632.897,421.383L628.893,415.967C626.959,417.478 624.611,418.36 622.145,418.396C620.391,418.674 618.564,418.18 617.188,416.983C615.82,415.796 615.046,414.068 615.082,412.278L615.01,412.422ZM615.82,407.005C616.909,403.1 620.427,400.401 624.467,400.257C625.762,400.05 627.067,400.437 628.048,401.31C629.037,402.192 629.559,403.451 629.523,404.792C629.631,405.458 629.631,406.123 629.523,406.798L616.027,406.798L615.82,407.006L615.82,407.005ZM656.308,425.495C660.699,425.459 664.883,423.668 667.906,420.501L663.443,414.842C661.652,416.668 659.259,417.721 656.695,417.865C654.976,417.865 653.321,417.163 652.16,415.859C651.036,414.563 650.478,412.835 650.721,411.117C650.406,405.773 654.266,401.139 659.538,400.401C662.39,400.329 665.026,401.913 666.286,404.441L673.034,399.726C670.47,395.228 665.584,392.628 660.42,392.978C650.442,393.05 642.353,401.139 642.281,411.117C642.074,414.878 643.478,418.567 646.114,421.239C648.75,423.947 652.403,425.423 656.164,425.279L656.308,425.495ZM682.769,425.495C684.955,425.531 687.097,425.071 689.094,424.226L691.137,416.776C689.733,417.406 688.222,417.757 686.674,417.793C686.008,418.072 685.234,417.973 684.704,417.478C684.146,417.02 683.93,416.282 684.11,415.58C684.074,415.121 684.074,414.671 684.11,414.212L687.556,401.274L694.754,401.274L696.796,393.789L689.769,393.789L691.874,385.88L683.156,385.88L681.087,393.51L677.362,393.51L675.319,400.995L679.044,400.995L675.319,415.229C675.005,416.498 674.798,417.793 674.798,419.098C674.969,420.96 675.886,422.679 677.398,423.84C678.873,425 680.772,425.459 682.634,425.144L682.77,425.495L682.769,425.495ZM695.779,424.963L704.354,424.963L712.649,393.509L703.859,393.509L695.779,424.963ZM704.354,390.414L713.522,390.414L715.672,382.649L706.495,382.649L704.354,390.414ZM721.224,424.819L729.132,424.819L749.376,393.788L739.992,393.788L727.756,414.032L726.352,393.788L717.85,393.788L721.224,424.819ZM746.812,424.819L755.557,424.819L763.997,393.509L755.314,393.509L746.812,424.819ZM755.773,390.594L765.085,390.594L767.155,382.856L758.337,382.856L755.773,390.594ZM774.991,425.35C777.178,425.386 779.355,424.963 781.353,424.082L783.359,416.668C781.955,417.307 780.408,417.622 778.86,417.658C778.302,417.828 777.664,417.694 777.205,417.334C776.755,416.983 776.467,416.425 776.467,415.858C776.438,415.408 776.438,414.949 776.467,414.491L779.913,401.525L787.156,401.525L789.162,394.04L781.955,394.04L784.025,386.167L775.342,386.167L773.732,393.509L770.007,393.509L767.965,400.995L771.833,400.995L768.109,414.985C767.757,416.209 767.541,417.514 767.505,418.809C767.613,420.708 768.495,422.471 769.971,423.695C771.41,424.891 773.309,425.422 775.207,425.143L774.991,425.351L774.991,425.35ZM792.95,433.997C798.474,433.789 803.396,430.443 805.573,425.35L824.729,393.509L815.272,393.509L803.747,414.419L802.334,393.509L793.409,393.509L797.206,424.541C796.504,425.773 795.199,426.475 793.832,426.439C792.599,426.367 791.448,425.945 790.458,425.206L785.788,431.567C787.858,433.151 790.35,433.997 792.95,433.997Z" style="fill:white;fill-rule:nonzero;"/>
    </g>
</svg>
