<?xml version="1.0" standalone="no"?>
<!DOCTYPE svg PUBLIC "-//W3C//DTD SVG 20010904//EN"
 "http://www.w3.org/TR/2001/REC-SVG-20010904/DTD/svg10.dtd">
<svg version="1.0" xmlns="http://www.w3.org/2000/svg"
 width="512.000000pt" height="256.000000pt" viewBox="0 0 512.000000 256.000000"
 preserveAspectRatio="xMidYMid meet">

<g transform="translate(0.000000,256.000000) scale(0.100000,-0.100000)"
fill="#000000" stroke="none">
<path d="M850 1435 c0 -8 15 -32 34 -53 l34 -37 109 -5 108 -5 3 -217 2 -218
50 0 50 0 2 218 3 217 109 5 108 5 34 39 c19 22 34 45 34 53 0 11 -63 13 -340
13 -297 0 -340 -2 -340 -15z"/>
<path d="M1800 1434 c0 -9 17 -34 39 -55 l39 -39 232 0 233 0 39 40 c68 72 76
70 -272 70 -279 0 -310 -2 -310 -16z"/>
<path d="M2737 1443 c-4 -3 -7 -78 -7 -165 l0 -158 245 0 246 0 -3 -56 -3 -56
-180 1 c-125 1 -191 -2 -218 -11 -41 -15 -120 -85 -111 -99 3 -5 139 -9 303
-9 246 0 301 3 310 14 9 10 11 61 9 168 l-3 153 -242 3 -243 2 0 55 0 55 190
0 c207 0 229 5 269 56 43 55 46 54 -267 54 -159 0 -292 -3 -295 -7z"/>
<path d="M3632 1173 l3 -278 248 0 248 0 40 42 c21 23 39 47 39 52 0 7 -84 12
-237 13 l-238 3 -2 210 c-1 116 -3 216 -3 223 0 8 -17 12 -50 12 l-50 0 2
-277z"/>
<path d="M4430 1438 c1 -24 26 -59 56 -79 26 -17 48 -19 252 -19 211 0 226 1
253 21 31 22 62 72 52 83 -4 3 -143 6 -310 6 -236 0 -303 -3 -303 -12z"/>
<path d="M1800 1216 c0 -20 38 -65 70 -81 42 -22 438 -22 480 0 29 15 70 64
70 84 0 8 -92 11 -310 11 -255 0 -310 -2 -310 -14z"/>
<path d="M4440 1067 c0 -90 2 -166 4 -168 3 -2 25 -3 50 -1 l45 4 3 106 3 107
193 3 192 2 0 -110 0 -110 55 0 55 0 -2 163 -3 162 -297 3 -298 2 0 -163z"/>
<path d="M1800 991 c0 -19 55 -74 87 -87 46 -20 400 -20 446 0 32 13 87 68 87
87 0 5 -127 9 -310 9 -183 0 -310 -4 -310 -9z"/>
</g>
</svg>
