<svg xmlns="http://www.w3.org/2000/svg" xml:space="preserve" style="fill-rule:evenodd;clip-rule:evenodd;stroke-linejoin:round;stroke-miterlimit:2" viewBox="0 0 100 76"><path d="M102.23 52.858c-.157-9.635-8.038-17.425-17.709-17.425s-17.552 7.791-17.709 17.425c-6.255 2.738-10.637 8.983-10.637 16.236 0 9.769 7.947 17.716 17.716 17.716 3.985 0 7.667-1.324 10.63-3.553a17.63 17.63 0 0 0 10.63 3.553c9.769 0 17.717-7.948 17.717-17.716-.001-7.252-4.384-13.498-10.638-16.236M91.529 67.467a17.68 17.68 0 0 0-5.608-11.363 15.9 15.9 0 0 1 6.28-2.677c1.565 2.944 3.007 6.519 4.284 10.244a16 16 0 0 1-4.956 3.796m-7.008 13.499a15.9 15.9 0 0 1-5.283-10.905c1.669.522 3.444.805 5.283.805s3.614-.282 5.283-.805a15.92 15.92 0 0 1-5.283 10.905M72.556 63.672c1.277-3.725 2.718-7.3 4.284-10.244a15.85 15.85 0 0 1 6.28 2.677 17.68 17.68 0 0 0-5.608 11.363 16 16 0 0 1-4.956-3.796m-1.295-1.679a15.85 15.85 0 0 1-2.658-7.938 15.9 15.9 0 0 1 5.288-.905c.365 0 .725.017 1.083.041q-1.893 3.656-3.713 8.802m6.494-10.185c2.089-3.479 4.373-5.745 6.766-5.745s4.677 2.266 6.766 5.745a17.65 17.65 0 0 0-6.766 3.123 17.6 17.6 0 0 0-6.766-3.123m6.766 17.286c-1.853 0-3.632-.321-5.288-.905a15.9 15.9 0 0 1 5.288-10.967 15.92 15.92 0 0 1 5.288 10.967 15.9 15.9 0 0 1-5.288.905m9.546-15.904c.358-.024.719-.041 1.083-.041 1.854 0 3.632.321 5.288.905a15.84 15.84 0 0 1-2.658 7.938q-1.819-5.144-3.713-8.802m-9.546-15.985c8.467 0 15.411 6.635 15.913 14.978a17.7 17.7 0 0 0-7.293-.688c-2.776-4.788-5.658-7.204-8.62-7.204s-5.844 2.416-8.62 7.204a17.647 17.647 0 0 0-7.293.688c.502-8.344 7.446-14.978 15.913-14.978m-26.575 31.89c0-6.279 3.649-11.719 8.936-14.318a17.63 17.63 0 0 0 3.679 9.262l-.096.287c-2.547 7.735-4.249 15.547-4.835 18.402-4.604-2.8-7.684-7.864-7.684-13.633M73.891 85.04c-2.366 0-4.61-.522-6.631-1.45.861-4.412 2.489-11.314 4.659-18.003a17.8 17.8 0 0 0 5.523 3.8 17.67 17.67 0 0 0 5.679 12.699 15.87 15.87 0 0 1-9.23 2.954m12.03-2.956A17.67 17.67 0 0 0 91.6 69.385a17.8 17.8 0 0 0 5.524-3.8c2.169 6.689 3.797 13.591 4.659 18.003a15.85 15.85 0 0 1-6.632 1.45 15.83 15.83 0 0 1-9.23-2.954m17.491.644c-.586-2.855-2.289-10.667-4.835-18.402l-.097-.287a17.6 17.6 0 0 0 3.679-9.262c5.288 2.599 8.937 8.039 8.937 14.318 0 5.769-3.081 10.833-7.684 13.633M128.771 106.601a1.8 1.8 0 0 1-.646-.468 2.2 2.2 0 0 1-.415-.726 2.9 2.9 0 0 1-.147-.94v-2.263q0-.57.174-1.002t.458-.722q.286-.29.664-.432t.779-.142q.428 0 .797.156t.606.481q.235.326.37.842.097.383.138.873.04.49.04 1.042 0 .428-.04.953a8 8 0 0 1-.103.864q-.152.775-.597 1.212t-1.247.436a2.05 2.05 0 0 1-.831-.164m-1.207 4.478v-3.93q.205.267.548.552t.846.45 1.189.165q.56 0 1.141-.187.579-.187 1.033-.655.455-.469.713-1.171.204-.544.303-1.279.098-.734.098-1.724 0-1.114-.125-1.956a5 5 0 0 0-.437-1.475q-.766-1.514-2.699-1.514-.953 0-1.608.388a3.1 3.1 0 0 0-1.056 1.029l-.044-1.131h-1.693v12.438zm-7.95-4.478a1.8 1.8 0 0 1-.646-.468 2.2 2.2 0 0 1-.415-.726 2.8 2.8 0 0 1-.147-.94v-2.263q0-.57.173-1.002a2.2 2.2 0 0 1 .459-.722q.285-.29.663-.432t.78-.142q.428 0 .797.156t.606.481q.235.326.37.842.097.383.138.873a13 13 0 0 1 0 1.995 8 8 0 0 1-.103.864q-.151.775-.597 1.212t-1.247.436q-.45.001-.831-.164m-1.207 4.478v-3.93q.204.267.548.552t.846.45q.504.165 1.189.165a3.7 3.7 0 0 0 1.14-.187 2.5 2.5 0 0 0 1.034-.655q.455-.469.712-1.171a5.8 5.8 0 0 0 .303-1.279q.099-.734.099-1.724 0-1.114-.125-1.956a5 5 0 0 0-.437-1.475q-.767-1.514-2.699-1.514-.954 0-1.608.388a3.1 3.1 0 0 0-1.056 1.029l-.045-1.131h-1.692v12.438zm-6.497-3.168q.69-.405 1.171-1.073l.018 1.185h1.692v-9.381H113v5.532q0 .472-.205 1.038a2.35 2.35 0 0 1-.726 1.002 1.8 1.8 0 0 1-1.18.436q-.803 0-1.194-.405-.392-.405-.392-1.27v-6.334h-1.791v6.824q0 .819.24 1.368.241.548.628.877.387.33.873.468.485.138.975.138.992 0 1.682-.405m-8.539.111v-4.321q0-.588.151-1.363a2.6 2.6 0 0 1 .735-1.359q.583-.583 1.572-.583.33 0 .49.036v-1.809h-.231q-.909 0-1.639.526-.731.525-1.158 1.47l-.018-1.978h-1.692v9.381zm-8.65 0v-3.76l1.238-1.256 2.458 5.016h2.031l-3.181-6.352 2.976-3.029h-2.129l-3.394 3.465v-6.78h-1.79v12.696zm-9.36 0v-5.533q0-.48.209-1.06.21-.579.726-1.006a1.82 1.82 0 0 1 1.194-.428q.801 0 1.167.41.365.409.365 1.265v6.352h1.791v-6.824q0-.828-.298-1.497a2.08 2.08 0 0 0-.918-1.007q-.62-.338-1.447-.338-.997 0-1.693.401a3.8 3.8 0 0 0-1.176 1.069l-.018-1.185H83.57v9.381zm-9.1-6.802q.156-.54.414-.855t.615-.445q.356-.129.784-.129.454 0 .904.178t.722.819q.272.64.272 1.782h-3.884q.017-.81.173-1.35m3.367 6.891q.69-.204 1.167-.628.476-.423.815-1.064l-1.417-.73q-.116.196-.338.454t-.637.45a2.2 2.2 0 0 1-.94.192q-.49 0-.895-.125a1.6 1.6 0 0 1-.7-.428q-.294-.303-.454-.811t-.161-1.265v-.258h5.657v-.98q0-.632-.062-1.328a4.8 4.8 0 0 0-.29-1.296 3.1 3.1 0 0 0-.672-1.065 2.9 2.9 0 0 0-1.007-.637q-.606-.236-1.497-.236-.962 0-1.63.245-.668.246-1.123.718a3.4 3.4 0 0 0-.61.877q-.272.54-.414 1.399a12 12 0 0 0-.143 1.938q0 .829.089 1.492.09.664.312 1.225.375.971 1.225 1.519t2.241.548a5.2 5.2 0 0 0 1.484-.206m-9.203.112q.459-.093.811-.245.353-.151.606-.334.253-.182.396-.369.276-.347.445-.753.17-.405.169-1.021a3 3 0 0 0-.116-.881 3 3 0 0 0-.268-.615 3 3 0 0 0-.615-.646q-.4-.325-1.568-.682a15 15 0 0 1-1.042-.338 4.6 4.6 0 0 1-.771-.361 1.6 1.6 0 0 1-.477-.419.9.9 0 0 1-.16-.521q0-.606.383-.917.231-.206.561-.285.33-.081.775-.081.659 0 1.114.281.455.28.712.869l1.435-.695q-.382-.935-1.221-1.394-.837-.459-2.058-.459-.686 0-1.323.169a3 3 0 0 0-1.07.499q-.432.33-.654.766a2.4 2.4 0 0 0-.272.721 3.5 3.5 0 0 0-.076.686q0 .357.107.753.107.397.366.726.204.258.587.539.383.28.962.503l1.372.507q.364.142.744.303.379.16.602.432.222.271.223.726a.94.94 0 0 1-.143.53 1.1 1.1 0 0 1-.383.352q-.24.134-.561.191a4 4 0 0 1-.686.058 2.4 2.4 0 0 1-.712-.098 2.08 2.08 0 0 1-.999-.676 3 3 0 0 1-.33-.508l-1.479.659a3.04 3.04 0 0 0 1.238 1.514q.454.276 1.011.441t1.359.165q.549.001 1.006-.092m-8.019 0q.459-.093.811-.245.352-.151.606-.334.253-.182.396-.369.277-.347.446-.753.17-.405.169-1.021a3 3 0 0 0-.116-.881 2.8 2.8 0 0 0-.267-.615 3 3 0 0 0-.615-.646q-.401-.325-1.568-.682a15 15 0 0 1-1.042-.338 4.6 4.6 0 0 1-.771-.361 1.6 1.6 0 0 1-.477-.419.88.88 0 0 1-.16-.521q0-.606.383-.917.232-.206.561-.285.33-.081.775-.081.66 0 1.113.281.455.28.713.869l1.434-.695q-.383-.935-1.22-1.394t-2.058-.459q-.686 0-1.323.169a3 3 0 0 0-1.069.499q-.433.33-.655.766a2.5 2.5 0 0 0-.271.721 3.5 3.5 0 0 0-.076.686q0 .357.107.753.107.397.365.726.205.258.588.539.383.28.962.503l1.373.507q.364.142.744.303.379.16.602.432.222.271.223.726a.95.95 0 0 1-.143.53 1.1 1.1 0 0 1-.383.352q-.24.134-.562.191a4 4 0 0 1-.686.058q-.402 0-.713-.098a2.06 2.06 0 0 1-.998-.676 3 3 0 0 1-.33-.508l-1.479.659a3.04 3.04 0 0 0 1.239 1.514q.455.276 1.011.441.557.165 1.358.165.544.001 1.003-.092m-10.918 2.935q.508-.143.988-.686.482-.543.891-1.613l3.991-10.218h-1.782l-2.45 6.495-2.334-6.495h-1.826l3.234 8.944-.418.891a2.8 2.8 0 0 1-.521.864q-.334.374-.958.374-.222 0-.419-.036v1.586q.24.035.633.036.463.001.971-.142m-8.903-3.136v-5.533q0-.48.21-1.06a2.3 2.3 0 0 1 .726-1.006 1.82 1.82 0 0 1 1.194-.428q.802 0 1.167.41.366.409.366 1.265v6.352h1.79v-6.824q0-.828-.298-1.497a2.1 2.1 0 0 0-.917-1.007q-.619-.338-1.448-.338-.962 0-1.634.365a3.6 3.6 0 0 0-1.154.998v-4.393h-1.79v12.696zm-3.338 0v-1.479a7 7 0 0 1-.677.036q-.418 0-.682-.107a.9.9 0 0 1-.414-.32 1.3 1.3 0 0 1-.205-.535 4.6 4.6 0 0 1-.053-.749v-4.82h1.933v-1.407h-1.933v-3.314h-1.782v3.314h-1.212v1.407h1.212v4.838q0 .721.12 1.314.12.592.437 1.007.316.413.868.641t1.417.228q.516 0 .971-.054" style="fill:#0095d8;fill-rule:nonzero" transform="translate(-34.222 -35.433)"/></svg>
