<svg xmlns="http://www.w3.org/2000/svg" xml:space="preserve" style="fill-rule:evenodd;clip-rule:evenodd;stroke-linejoin:round;stroke-miterlimit:2" viewBox="0 0 583 425"><path d="M0-16.148S-7.379-27.504-19.519-26.55c-12.852 1.01-21.912 9.597-22.37 22.462-.326 9.151 5.273 17.083 12.948 20.906-10.333-3.014-17.883-12.557-17.883-23.862 0-13.726 11.173-23.749 24.855-24.854C-8.746-32.966-2.596-21.93 0-16.148" style="fill:#e31e21;fill-rule:nonzero" transform="translate(390.2 284.126)scale(8.33333)"/><path d="M0-32.955h25.063v10.754h-6.591L18.559 0H6.591l-.087-22.201H0z" style="fill:#253571;fill-rule:nonzero" transform="translate(5.333 278.238)scale(8.33333)"/><path d="M0-30.874s-1.735-1.995-7.892-2.168c0 0-17.258-.26-18.039 17.171 0 0-1.04 18.299 19.687 17.605 0 0 3.469-.347 6.244-1.735v-12.14s-8.412 7.198-12.97-.174c0 0-1.253-3.33 0-5.984 0 0 3.604-8.326 12.97-.607z" style="fill:#253571;fill-rule:nonzero" transform="translate(436.786 275.352)scale(8.33333)"/><path d="M0-4.319h-1.684v-.608h4.098v.608H.723V.608H0z" style="fill:#253571;fill-rule:nonzero" transform="translate(99.03 347.81)scale(8.33333)"/><path d="M0 3.071c.69 0 1.207-.649 1.207-1.552C1.207.846.87 0 .016 0-.83 0-1.2.788-1.2 1.544c0 .87.493 1.527 1.192 1.527zm-.025.542c-1.067 0-1.905-.788-1.905-2.045 0-1.33.878-2.11 1.971-2.11 1.141 0 1.913.829 1.913 2.036 0 1.479-1.027 2.119-1.97 2.119z" style="fill:#253571;fill-rule:nonzero" transform="translate(133.383 323.52)scale(8.33333)"/><path d="M0 3.695c-.189.091-.607.23-1.142.23-1.199 0-1.979-.813-1.979-2.037 0-1.222.838-2.118 2.136-2.118.427 0 .804.107 1.002.213l-.165.551A1.76 1.76 0 0 0-.985.345c-.913 0-1.405.682-1.405 1.511 0 .919.591 1.486 1.38 1.486.411 0 .681-.098.887-.189z" style="fill:#253571;fill-rule:nonzero" transform="translate(180.938 320.919)scale(8.33333)"/><path d="M0 3.071c.69 0 1.207-.649 1.207-1.552C1.207.846.87 0 .016 0-.83 0-1.199.788-1.199 1.544c0 .87.493 1.527 1.191 1.527zm-.024.542c-1.068 0-1.906-.788-1.906-2.045 0-1.33.879-2.11 1.971-2.11 1.142 0 1.913.829 1.913 2.036 0 1.479-1.026 2.119-1.971 2.119z" style="fill:#253571;fill-rule:nonzero" transform="translate(201.26 323.52)scale(8.33333)"/><path d="M0-4.729c-.451 0-.69.377-.69.804 0 .395.19.699.419.994.567-.32.92-.615.92-1.083 0-.338-.189-.715-.641-.715zm-.148 4.68a1.53 1.53 0 0 0 1.134-.5A64 64 0 0 1-.566-2.291c-.304.19-.715.543-.715 1.126 0 .632.46 1.116 1.125 1.116zm2.004.452C1.7.247 1.552.091 1.339-.131A2.28 2.28 0 0 1-.279.493c-1.076 0-1.7-.722-1.7-1.552 0-.755.452-1.265 1.084-1.618v-.024c-.279-.361-.468-.764-.468-1.158 0-.673.493-1.363 1.412-1.363.69 0 1.224.452 1.224 1.175 0 .582-.336 1.042-1.215 1.477v.025c.468.55.993 1.149 1.347 1.544.254-.385.427-.92.533-1.618h.657c-.148.871-.385 1.56-.796 2.045.296.312.583.624.911.977z" style="fill:#253571;fill-rule:nonzero" transform="translate(253.263 349.517)scale(8.33333)"/><path d="M0 5.191c-.254.131-.788.262-1.461.262-1.561 0-2.727-.985-2.727-2.808 0-1.741 1.174-2.907 2.891-2.907.681 0 1.125.148 1.314.246l-.181.583C-.426.436-.813.337-1.272.337c-1.298 0-2.161.83-2.161 2.283 0 1.363.781 2.226 2.119 2.226.443 0 .888-.09 1.175-.23z" style="fill:#253571;fill-rule:nonzero" transform="translate(327.92 308.185)scale(8.33333)"/><path d="m0-5.716-1.002 1.174h-.51l.723-1.174zm-.173 3.252c.008-.451-.189-1.174-.993-1.174-.739 0-1.051.673-1.109 1.174zm-2.11.518c.016.977.632 1.379 1.355 1.379.517 0 .837-.09 1.1-.197l.131.509C.049-.14-.394 0-1.027 0c-1.215 0-1.954-.813-1.954-2.004 0-1.207.714-2.152 1.872-2.152C.188-4.156.525-3.014.525-2.284q0 .222-.025.346z" style="fill:#253571;fill-rule:nonzero" transform="translate(357.688 353.564)scale(8.33333)"/><path d="M0 2.514c.222.132.6.279.961.279.517 0 .764-.254.764-.591 0-.345-.205-.534-.731-.731C.272 1.208-.065.822-.065.346c0-.64.526-1.166 1.371-1.166.403 0 .756.107.969.246l-.172.518a1.6 1.6 0 0 0-.813-.23c-.427 0-.657.246-.657.542 0 .336.23.484.747.681.682.254 1.044.6 1.044 1.198 0 .708-.551 1.199-1.479 1.199-.435 0-.837-.114-1.117-.278z" style="fill:#253571;fill-rule:nonzero" transform="translate(368.693 325.837)scale(8.33333)"/><path d="M0-.082c-.789-.016-1.684.123-1.684.895 0 .476.312.69.673.69.526 0 .862-.328.977-.666A.7.7 0 0 0 0 .608zM.706.994c0 .345.016.682.057.953H.115l-.067-.502H.024c-.214.313-.649.591-1.215.591-.805 0-1.215-.566-1.215-1.141 0-.96.853-1.487 2.389-1.477v-.083c0-.328-.09-.928-.904-.92-.377 0-.763.107-1.042.296l-.164-.485c.328-.205.812-.344 1.314-.344C.41-2.118.706-1.289.706-.492z" style="fill:#253571;fill-rule:nonzero" transform="translate(414.073 336.657)scale(8.33333)"/><path d="M0-1.405c0-.468-.008-.871-.033-1.241h.632l.033.781h.025c.181-.533.624-.87 1.109-.87.074 0 .131.007.197.024v.674c-.083-.008-.156-.017-.255-.017-.509 0-.87.386-.968.92a2 2 0 0 0-.026.345V1.33h-.722z" style="fill:#253571;fill-rule:nonzero" transform="translate(429.667 341.797)scale(8.33333)"/><path d="M.649-.188C.539.325.257 1.188.012 1.741l.637.5c.206-.695.388-1.66.4-2.109z" style="fill:#253571;fill-rule:nonzero" transform="matrix(7.04362 4.4533 4.4533 -7.04362 440.232 357.149)"/><path d="M0-5.535h.723v4.936h2.365V0H0z" style="fill:#253571;fill-rule:nonzero" transform="translate(471.956 352.878)scale(8.33333)"/><path d="M0 1.026A1.3 1.3 0 0 0-.033.714a1.064 1.064 0 0 0-1.043-.829c-.747 0-1.19.657-1.19 1.527 0 .813.402 1.479 1.175 1.479.484 0 .927-.329 1.058-.862.025-.099.033-.198.033-.313zm.723-3.473v4.804c0 .353.008.755.033 1.026H.107l-.033-.69H.057c-.221.444-.697.78-1.346.78-.961 0-1.708-.813-1.708-2.02-.009-1.33.822-2.134 1.781-2.134.617 0 1.027.287 1.2.599H0v-2.365z" style="fill:#253571;fill-rule:nonzero" transform="translate(526.696 324.683)scale(8.33333)"/><path d="M0-.082c-.789-.016-1.684.123-1.684.895 0 .476.313.69.674.69.525 0 .862-.328.977-.666A.7.7 0 0 0 0 .608zM.706.994c0 .345.017.682.058.953H.115l-.066-.502H.024c-.213.313-.649.591-1.215.591-.805 0-1.216-.566-1.216-1.141 0-.96.854-1.487 2.39-1.477v-.083c0-.328-.09-.928-.903-.92-.377 0-.764.107-1.043.296l-.164-.485c.328-.205.813-.344 1.314-.344 1.224 0 1.519.829 1.519 1.626z" style="fill:#253571;fill-rule:nonzero" transform="translate(560.16 336.657)scale(8.33333)"/><path d="M0 1.034c-.279 0-.477-.221-.477-.517S-.272 0 .016 0c.287 0 .485.214.485.517 0 .296-.198.517-.493.517z" style="fill:#253571;fill-rule:nonzero" transform="translate(578.224 345.008)scale(8.33333)"/></svg>