<?xml version="1.0" encoding="UTF-8" standalone="no"?>
<!DOCTYPE svg PUBLIC "-//W3C//DTD SVG 1.1//EN" "http://www.w3.org/Graphics/SVG/1.1/DTD/svg11.dtd">
<svg width="100%" height="100%" viewBox="0 0 583 425" version="1.1" xmlns="http://www.w3.org/2000/svg" xmlns:xlink="http://www.w3.org/1999/xlink" xml:space="preserve" xmlns:serif="http://www.serif.com/" style="fill-rule:evenodd;clip-rule:evenodd;stroke-linejoin:round;stroke-miterlimit:2;">
    <g transform="matrix(8.33333,0,0,8.33333,390.2,284.126)">
        <path d="M0,-16.148C0,-16.148 -7.379,-27.504 -19.519,-26.55C-32.371,-25.54 -41.431,-16.953 -41.889,-4.088C-42.215,5.063 -36.616,12.995 -28.941,16.818C-39.274,13.804 -46.824,4.261 -46.824,-7.044C-46.824,-20.77 -35.651,-30.793 -21.969,-31.898C-8.746,-32.966 -2.596,-21.93 0,-16.148" style="fill:rgb(227,30,33);fill-rule:nonzero;"/>
    </g>
    <g transform="matrix(8.33333,0,0,8.33333,5.33333,278.238)">
        <path d="M0,-32.955L25.063,-32.955L25.063,-22.201L18.472,-22.201L18.559,0L6.591,0L6.504,-22.201L0,-22.201L0,-32.955Z" style="fill:rgb(37,53,113);fill-rule:nonzero;"/>
    </g>
    <g transform="matrix(8.33333,0,0,8.33333,436.786,275.352)">
        <path d="M0,-30.874C0,-30.874 -1.735,-32.869 -7.892,-33.042C-7.892,-33.042 -25.15,-33.302 -25.931,-15.871C-25.931,-15.871 -26.971,2.428 -6.244,1.734C-6.244,1.734 -2.775,1.387 0,-0.001L0,-12.141C0,-12.141 -8.412,-4.943 -12.97,-12.315C-12.97,-12.315 -14.223,-15.645 -12.97,-18.299C-12.97,-18.299 -9.366,-26.625 0,-18.906L0,-30.874Z" style="fill:rgb(37,53,113);fill-rule:nonzero;"/>
    </g>
    <g transform="matrix(8.33333,0,0,8.33333,99.0308,347.81)">
        <path d="M0,-4.319L-1.684,-4.319L-1.684,-4.927L2.414,-4.927L2.414,-4.319L0.723,-4.319L0.723,0.608L0,0.608L0,-4.319Z" style="fill:rgb(37,53,113);fill-rule:nonzero;"/>
    </g>
    <g transform="matrix(8.33333,0,0,8.33333,133.383,323.52)">
        <path d="M0,3.071C0.69,3.071 1.207,2.422 1.207,1.519C1.207,0.846 0.87,0 0.016,0C-0.83,0 -1.2,0.788 -1.2,1.544C-1.2,2.414 -0.707,3.071 -0.008,3.071L0,3.071ZM-0.025,3.613C-1.092,3.613 -1.93,2.825 -1.93,1.568C-1.93,0.238 -1.052,-0.542 0.041,-0.542C1.182,-0.542 1.954,0.287 1.954,1.494C1.954,2.973 0.927,3.613 -0.016,3.613L-0.025,3.613Z" style="fill:rgb(37,53,113);fill-rule:nonzero;"/>
    </g>
    <g transform="matrix(8.33333,0,0,8.33333,180.938,320.919)">
        <path d="M0,3.695C-0.189,3.786 -0.607,3.925 -1.142,3.925C-2.341,3.925 -3.121,3.112 -3.121,1.888C-3.121,0.666 -2.283,-0.23 -0.985,-0.23C-0.558,-0.23 -0.181,-0.123 0.017,-0.017L-0.148,0.534C-0.32,0.443 -0.592,0.345 -0.985,0.345C-1.898,0.345 -2.39,1.027 -2.39,1.856C-2.39,2.775 -1.799,3.342 -1.01,3.342C-0.599,3.342 -0.329,3.244 -0.123,3.153L0,3.695Z" style="fill:rgb(37,53,113);fill-rule:nonzero;"/>
    </g>
    <g transform="matrix(8.33333,0,0,8.33333,201.26,323.52)">
        <path d="M0,3.071C0.69,3.071 1.207,2.422 1.207,1.519C1.207,0.846 0.87,0 0.016,0C-0.83,0 -1.199,0.788 -1.199,1.544C-1.199,2.414 -0.706,3.071 -0.008,3.071L0,3.071ZM-0.024,3.613C-1.092,3.613 -1.93,2.825 -1.93,1.568C-1.93,0.238 -1.051,-0.542 0.041,-0.542C1.183,-0.542 1.954,0.287 1.954,1.494C1.954,2.973 0.928,3.613 -0.017,3.613L-0.024,3.613Z" style="fill:rgb(37,53,113);fill-rule:nonzero;"/>
    </g>
    <g transform="matrix(8.33333,0,0,8.33333,253.263,349.517)">
        <path d="M0,-4.729C-0.451,-4.729 -0.69,-4.352 -0.69,-3.925C-0.69,-3.53 -0.5,-3.226 -0.271,-2.931C0.296,-3.251 0.649,-3.546 0.649,-4.014C0.649,-4.352 0.46,-4.729 0.008,-4.729L0,-4.729ZM-0.148,-0.049C0.329,-0.049 0.723,-0.262 0.986,-0.549C0.657,-0.902 0.041,-1.584 -0.566,-2.291C-0.87,-2.101 -1.281,-1.748 -1.281,-1.165C-1.281,-0.533 -0.821,-0.049 -0.156,-0.049L-0.148,-0.049ZM1.856,0.403C1.7,0.247 1.552,0.091 1.339,-0.131C0.863,0.305 0.337,0.493 -0.279,0.493C-1.355,0.493 -1.979,-0.229 -1.979,-1.059C-1.979,-1.814 -1.527,-2.324 -0.895,-2.677L-0.895,-2.701C-1.174,-3.062 -1.363,-3.465 -1.363,-3.859C-1.363,-4.532 -0.87,-5.222 0.049,-5.222C0.739,-5.222 1.273,-4.77 1.273,-4.047C1.273,-3.465 0.937,-3.005 0.058,-2.57L0.058,-2.545C0.526,-1.995 1.051,-1.396 1.405,-1.001C1.659,-1.386 1.832,-1.921 1.938,-2.619L2.595,-2.619C2.447,-1.748 2.21,-1.059 1.799,-0.574C2.095,-0.262 2.382,0.05 2.71,0.403L1.856,0.403Z" style="fill:rgb(37,53,113);fill-rule:nonzero;"/>
    </g>
    <g transform="matrix(8.33333,0,0,8.33333,327.92,308.185)">
        <path d="M0,5.191C-0.254,5.322 -0.788,5.453 -1.461,5.453C-3.022,5.453 -4.188,4.468 -4.188,2.645C-4.188,0.904 -3.014,-0.262 -1.297,-0.262C-0.616,-0.262 -0.172,-0.114 0.017,-0.016L-0.164,0.567C-0.426,0.436 -0.813,0.337 -1.272,0.337C-2.57,0.337 -3.433,1.167 -3.433,2.62C-3.433,3.983 -2.652,4.846 -1.314,4.846C-0.871,4.846 -0.426,4.756 -0.139,4.616L0,5.191Z" style="fill:rgb(37,53,113);fill-rule:nonzero;"/>
    </g>
    <g transform="matrix(8.33333,0,0,8.33333,357.688,353.564)">
        <path d="M0,-5.716L-1.002,-4.542L-1.512,-4.542L-0.789,-5.716L0,-5.716ZM-0.173,-2.464C-0.165,-2.915 -0.362,-3.638 -1.166,-3.638C-1.905,-3.638 -2.217,-2.965 -2.275,-2.464L-0.173,-2.464ZM-2.283,-1.946C-2.267,-0.969 -1.651,-0.567 -0.928,-0.567C-0.411,-0.567 -0.091,-0.657 0.172,-0.764L0.303,-0.255C0.049,-0.14 -0.394,0 -1.027,0C-2.242,0 -2.981,-0.813 -2.981,-2.004C-2.981,-3.211 -2.267,-4.156 -1.109,-4.156C0.188,-4.156 0.525,-3.014 0.525,-2.284C0.525,-2.136 0.517,-2.021 0.5,-1.938L-2.283,-1.946Z" style="fill:rgb(37,53,113);fill-rule:nonzero;"/>
    </g>
    <g transform="matrix(8.33333,0,0,8.33333,368.693,325.837)">
        <path d="M0,2.514C0.222,2.646 0.6,2.793 0.961,2.793C1.478,2.793 1.725,2.539 1.725,2.202C1.725,1.857 1.52,1.668 0.994,1.471C0.272,1.208 -0.065,0.822 -0.065,0.346C-0.065,-0.294 0.461,-0.82 1.306,-0.82C1.709,-0.82 2.062,-0.713 2.275,-0.574L2.103,-0.056C1.947,-0.147 1.659,-0.286 1.29,-0.286C0.863,-0.286 0.633,-0.04 0.633,0.256C0.633,0.592 0.863,0.74 1.38,0.937C2.062,1.191 2.424,1.537 2.424,2.135C2.424,2.843 1.873,3.334 0.945,3.334C0.51,3.334 0.108,3.22 -0.172,3.056L0,2.514Z" style="fill:rgb(37,53,113);fill-rule:nonzero;"/>
    </g>
    <g transform="matrix(8.33333,0,0,8.33333,414.073,336.657)">
        <path d="M0,-0.082C-0.789,-0.098 -1.684,0.041 -1.684,0.813C-1.684,1.289 -1.372,1.503 -1.011,1.503C-0.485,1.503 -0.149,1.175 -0.034,0.837C-0.009,0.764 0,0.682 0,0.608L0,-0.082ZM0.706,0.994C0.706,1.339 0.722,1.676 0.763,1.947L0.115,1.947L0.048,1.445L0.024,1.445C-0.19,1.758 -0.625,2.036 -1.191,2.036C-1.996,2.036 -2.406,1.47 -2.406,0.895C-2.406,-0.065 -1.553,-0.592 -0.017,-0.582L-0.017,-0.665C-0.017,-0.993 -0.107,-1.593 -0.921,-1.585C-1.298,-1.585 -1.684,-1.478 -1.963,-1.289L-2.127,-1.774C-1.799,-1.979 -1.315,-2.118 -0.813,-2.118C0.41,-2.118 0.706,-1.289 0.706,-0.492L0.706,0.994Z" style="fill:rgb(37,53,113);fill-rule:nonzero;"/>
    </g>
    <g transform="matrix(8.33333,0,0,8.33333,429.667,341.797)">
        <path d="M0,-1.405C0,-1.873 -0.008,-2.276 -0.033,-2.646L0.599,-2.646L0.632,-1.865L0.657,-1.865C0.838,-2.398 1.281,-2.735 1.766,-2.735C1.84,-2.735 1.897,-2.728 1.963,-2.711L1.963,-2.037C1.88,-2.045 1.807,-2.054 1.708,-2.054C1.199,-2.054 0.838,-1.668 0.74,-1.134C0.723,-1.028 0.714,-0.912 0.714,-0.789L0.714,1.33L-0.008,1.33L0,-1.405Z" style="fill:rgb(37,53,113);fill-rule:nonzero;"/>
    </g>
    <g transform="matrix(7.04362,4.4533,4.4533,-7.04362,440.232,357.149)">
        <path d="M0.649,-0.188C0.539,0.325 0.257,1.188 0.012,1.741L0.649,2.241C0.855,1.546 1.037,0.581 1.049,0.132L0.649,-0.188Z" style="fill:rgb(37,53,113);fill-rule:nonzero;"/>
    </g>
    <g transform="matrix(8.33333,0,0,8.33333,471.956,352.878)">
        <path d="M0,-5.535L0.723,-5.535L0.723,-0.599L3.088,-0.599L3.088,0L0,0L0,-5.535Z" style="fill:rgb(37,53,113);fill-rule:nonzero;"/>
    </g>
    <g transform="matrix(8.33333,0,0,8.33333,526.696,324.683)">
        <path d="M0,1.026C0,0.928 -0.008,0.813 -0.033,0.714C-0.139,0.263 -0.534,-0.115 -1.076,-0.115C-1.823,-0.115 -2.266,0.542 -2.266,1.412C-2.266,2.225 -1.864,2.891 -1.091,2.891C-0.607,2.891 -0.164,2.562 -0.033,2.029C-0.008,1.93 0,1.831 0,1.716L0,1.026ZM0.723,-2.447L0.723,2.357C0.723,2.71 0.731,3.112 0.756,3.383L0.107,3.383L0.074,2.693L0.057,2.693C-0.164,3.137 -0.64,3.473 -1.289,3.473C-2.25,3.473 -2.997,2.66 -2.997,1.453C-3.006,0.123 -2.175,-0.681 -1.216,-0.681C-0.599,-0.681 -0.189,-0.394 -0.016,-0.082L0,-0.082L0,-2.447L0.723,-2.447Z" style="fill:rgb(37,53,113);fill-rule:nonzero;"/>
    </g>
    <g transform="matrix(8.33333,0,0,8.33333,560.16,336.657)">
        <path d="M0,-0.082C-0.789,-0.098 -1.684,0.041 -1.684,0.813C-1.684,1.289 -1.371,1.503 -1.01,1.503C-0.485,1.503 -0.148,1.175 -0.033,0.837C-0.008,0.764 0,0.682 0,0.608L0,-0.082ZM0.706,0.994C0.706,1.339 0.723,1.676 0.764,1.947L0.115,1.947L0.049,1.445L0.024,1.445C-0.189,1.758 -0.625,2.036 -1.191,2.036C-1.996,2.036 -2.407,1.47 -2.407,0.895C-2.407,-0.065 -1.553,-0.592 -0.017,-0.582L-0.017,-0.665C-0.017,-0.993 -0.107,-1.593 -0.92,-1.585C-1.297,-1.585 -1.684,-1.478 -1.963,-1.289L-2.127,-1.774C-1.799,-1.979 -1.314,-2.118 -0.813,-2.118C0.411,-2.118 0.706,-1.289 0.706,-0.492L0.706,0.994Z" style="fill:rgb(37,53,113);fill-rule:nonzero;"/>
    </g>
    <g transform="matrix(8.33333,0,0,8.33333,578.224,345.008)">
        <path d="M0,1.034C-0.279,1.034 -0.477,0.813 -0.477,0.517C-0.477,0.221 -0.272,0 0.016,0C0.303,0 0.501,0.214 0.501,0.517C0.501,0.813 0.303,1.034 0.008,1.034L0,1.034Z" style="fill:rgb(37,53,113);fill-rule:nonzero;"/>
    </g>
</svg>
