<svg xmlns="http://www.w3.org/2000/svg" width="839.867" height="266.787"><path d="M1861.64 437.078c-131.67-71.687-297.55-135.187-478.28-162.406-114.78-17.332-220.65-19.383-338.4-4.524-325.589 41.063-617.101 256.614-595.581 645.204 18.336 331.078 229.488 570.598 428.652 735.448 210.279 174.06 501.349 327.84 816.659 347.42 378.74 23.53 691.93-105.79 807.65-388.01 70.47-171.92 39.22-416.61-40.62-568.52 14.44 63.46 39.88 136.49 40.62 221.08 2.22 257.47-141.83 429.69-311.32 532.41-169.72 102.86-425.7 163.72-694.85 117.32-218.5-37.66-421.31-131.55-577.541-266.2-173.402-149.46-328.281-336.54-306.816-636.21 24.628-343.828 319.05-542.899 654.237-591.059 376.21-54.051 586.77 15.66 805.9 205.418 0 0-75.87-114.14-210.31-187.371" style="fill:#ed1c24;fill-opacity:1;fill-rule:evenodd;stroke:none" transform="matrix(.13333 0 0 -.13333 0 266.787)"/><path d="M1918.78 473.359c-114.3-101.39-229.6-200.429-376.32-280.339-143.7-78.258-324.72-147.532-521.95-177.282C895.25-3.129 779.707-5.372 651.211 10.84 295.875 55.64-22.258 290.879 1.227 714.96c20.02 361.319 250.453 622.709 467.796 802.609 229.489 189.97 547.137 357.79 891.257 379.16 413.32 25.68 755.11-115.46 881.4-423.45 76.91-187.63 42.8-454.66-44.32-620.452 15.75 69.274 43.51 148.962 44.32 241.292 2.42 280.99-154.78 468.92-339.75 581.03-185.22 112.25-464.58 178.67-758.32 128.02-238.442-41.11-459.778-143.57-630.286-290.51-189.23-163.11-358.25-367.27-334.828-694.308 26.875-375.231 348.188-592.454 713.992-645.032 410.562-59.011 785.052 93.282 1024.202 300.36z" style="fill:#ed1c24;fill-opacity:1;fill-rule:evenodd;stroke:none" transform="matrix(.13333 0 0 -.13333 0 266.787)"/><path d="M2434.98 334.898h-85.32l-291.11 424.711h101.33l232.26-338.48 232.62 338.48h102.02z" style="fill:#ed1c24;fill-opacity:1;fill-rule:nonzero;stroke:none" transform="matrix(.13333 0 0 -.13333 0 266.787)"/><path d="M2354.75 344.57h75.14l278.52 405.36h-78.57l-229.73-334.258a9.68 9.68 0 0 0-7.97-4.192 9.66 9.66 0 0 0-7.96 4.192L2154.79 749.93h-77.9zm80.23-19.32h-85.32a9.69 9.69 0 0 0-7.97 4.199l-291.11 424.692a9.65 9.65 0 0 0-.58 9.961 9.68 9.68 0 0 0 8.55 5.16h101.33c3.18 0 6.16-1.571 7.97-4.203l224.3-326.848 224.63 326.859a9.69 9.69 0 0 0 7.98 4.192h102.02c3.59 0 6.88-1.992 8.55-5.16a9.69 9.69 0 0 0-.59-9.973l-291.81-424.68a9.62 9.62 0 0 0-7.95-4.199M2758.8 334.898v424.711h89.16V334.898z" style="fill:#ed1c24;fill-opacity:1;fill-rule:nonzero;stroke:none" transform="matrix(.13333 0 0 -.13333 0 266.787)"/><path d="M2768.47 344.57h69.83v405.36h-69.83zm79.49-19.32h-89.16c-5.33 0-9.65 4.32-9.65 9.648v424.711c0 5.332 4.32 9.653 9.65 9.653h89.16c5.33 0 9.66-4.321 9.66-9.653V334.898c0-5.328-4.33-9.648-9.66-9.648M2905.53 514.398v65.122h299v-65.122z" style="fill:#ed1c24;fill-opacity:1;fill-rule:nonzero;stroke:none" transform="matrix(.13333 0 0 -.13333 0 266.787)"/><path d="M2915.19 524.07h279.67v45.789h-279.67zm289.34-19.332h-299c-5.34 0-9.67 4.321-9.67 9.66v65.122c0 5.332 4.33 9.671 9.67 9.671h299c5.33 0 9.65-4.339 9.65-9.671v-65.122c0-5.339-4.32-9.66-9.65-9.66M3784.66 616.461c-20.67 27.969-51.41 47.129-92.27 57.5-28.33 7.027-67.1 10.559-116.31 10.559-71.74 0-124.09-7.739-157.05-23.168-43.88-20.93-65.83-59.043-65.83-114.391 0-55.539 22.17-93.563 66.52-114.082 32.75-15.848 84.84-23.77 156.36-23.77 44.57 0 79.62 2.36 105.16 7.039 39.44 7.622 69.17 22 89.16 43.122v50.14h-209.31v75.102h298.44V334.898h-89.13v30.211c-49.23-20.129-114-30.211-194.32-30.211-208.02 0-312 70.692-312 212.063 0 141.769 103.98 212.648 312 212.648 142.51 0 238.76-36.871 288.68-110.578z" style="fill:#ed1c24;fill-opacity:1;fill-rule:nonzero;stroke:none" transform="matrix(.13333 0 0 -.13333 0 266.787)"/><path d="M3780.04 344.57h69.81v230.262h-279.09V519.07h199.64c5.33 0 9.64-4.332 9.64-9.66v-50.14c0-2.481-.96-4.84-2.64-6.649-21.3-22.512-53.04-37.98-94.34-45.961-26.08-4.781-62.06-7.211-106.98-7.211-73.66 0-126.18 8.09-160.56 24.723-47.71 22.09-71.98 63.43-71.98 122.789 0 59.121 23.99 100.527 71.33 123.098 34.65 16.242 87.35 24.132 161.21 24.132 49.75 0 89.67-3.66 118.62-10.851 39.98-10.16 71.25-28.68 93.09-55.18l61.9 25.18c-49.69 64.121-141.69 96.59-273.61 96.59-203.46 0-302.34-66.391-302.34-202.969 0-136.18 98.88-202.391 302.34-202.391 78.67 0 142.82 9.918 190.63 29.508a9.686 9.686 0 0 0 13.33-8.969zm79.49-19.32h-89.13c-5.36 0-9.69 4.32-9.69 9.648v16.211c-48.39-17.148-110.42-25.859-184.63-25.859-213.45 0-321.67 74.582-321.67 221.711 0 147.5 108.22 222.301 321.67 222.301 145.25 0 245.08-38.633 296.68-114.813a9.59 9.59 0 0 0 1.22-8.219 9.5 9.5 0 0 0-5.61-6.152l-80.07-32.558c-4.09-1.641-8.78-.34-11.39 3.199-19.24 26-48.47 44.113-86.91 53.883-27.41 6.777-65.74 10.269-113.92 10.269-69.96 0-121.43-7.512-152.96-22.269-40.53-19.332-60.25-53.903-60.25-105.641 0-51.883 19.93-86.359 60.92-105.332 31.4-15.199 82.58-22.848 152.29-22.848 43.78 0 78.57 2.301 103.39 6.879 35.43 6.84 62.78 19.461 81.24 37.551v36.539h-199.62c-5.33 0-9.65 4.32-9.65 9.66v75.102c0 5.32 4.32 9.648 9.65 9.648h298.44c5.33 0 9.65-4.328 9.65-9.648V334.898c0-5.328-4.32-9.648-9.65-9.648M4376.59 634.352c0 33.449-63.97 50.168-191.89 50.168h-194.28V584.512h228.75c104.95 0 157.42 16.609 157.42 49.84m-15.33-299.454L4153.38 509.41h-162.96V334.898h-89.17v424.711h265c199.65 0 299.47-41.75 299.47-125.257 0-69.614-63.7-110.071-191.17-121.422l212.07-178.032z" style="fill:#ed1c24;fill-opacity:1;fill-rule:nonzero;stroke:none" transform="matrix(.13333 0 0 -.13333 0 266.787)"/><path d="M4000.06 594.16h219.11c95.29 0 147.74 14.281 147.74 40.192 0 12.168-17.74 40.519-182.21 40.519h-184.64zm219.11-19.328h-228.75c-5.36 0-9.69 4.348-9.69 9.68V684.52c0 5.332 4.33 9.671 9.69 9.671h194.28c137.5 0 201.54-19.031 201.54-59.839 0-40.602-53.07-59.52-167.07-59.52m145.61-230.262h95.29l-191.74 160.961c-2.97 2.52-4.16 6.59-2.97 10.321a9.68 9.68 0 0 0 8.34 6.718c121.01 10.758 182.35 48.371 182.35 111.782 0 76.687-97.49 115.578-289.8 115.578h-255.32V344.57h69.8v164.84c0 5.328 4.33 9.66 9.69 9.66h162.96a9.6 9.6 0 0 0 6.22-2.269zm122.09-19.32h-125.61c-2.27 0-4.46.801-6.22 2.25l-205.17 172.25h-149.81V334.898c0-5.328-4.31-9.648-9.64-9.648h-89.17c-5.33 0-9.65 4.32-9.65 9.648v424.711c0 5.332 4.32 9.653 9.65 9.653h265c208 0 309.14-44.133 309.14-134.91 0-70.723-59.58-113.954-177.2-128.614l193.43-162.398a9.66 9.66 0 0 0 4.91-8.442c0-5.328-4.33-9.648-9.66-9.648M4839.69 672.5 4716.8 484.199h246.08zm220.6-337.602-49.19 74.211h-342.52l-49.19-74.211h-96.12l276.12 424.711h80.9l276.79-424.711z" style="fill:#ed1c24;fill-opacity:1;fill-rule:nonzero;stroke:none" transform="matrix(.13333 0 0 -.13333 0 266.787)"/><path d="M4734.24 493.859h211.18l-105.73 161.61zm228.64-19.32H4716.8c-3.39 0-6.53 1.981-8.1 5.152-1.62 3.18-1.38 7.028.56 9.989l122.84 188.289c1.72 2.601 4.57 4.203 7.59 4.203 2.98 0 5.8-1.582 7.52-4.184l123.19-188.297c1.94-2.972 2.15-6.8.56-10-1.57-3.171-4.7-5.152-8.08-5.152m102.19-129.969h74.58l-264.18 405.36h-71.27l-263.54-405.36h73.95l46.48 70.078c1.71 2.571 4.49 4.133 7.49 4.133h342.52c3 0 5.78-1.562 7.51-4.133zm92.23-19.32h-97.01c-2.98 0-5.79 1.539-7.51 4.121l-46.47 70.078h-332.95l-46.46-70.078c-1.72-2.582-4.5-4.121-7.51-4.121h-96.12c-3.4 0-6.52 1.969-8.12 5.16-1.58 3.16-1.39 7.012.55 9.961l276.14 424.688c1.7 2.621 4.53 4.203 7.55 4.203h80.9c3.02 0 5.85-1.571 7.55-4.192l275.78-423.14c1.76-1.758 2.84-4.258 2.84-7.032 0-5.328-4.08-9.648-9.16-9.648M5663.91 546.961c0 55.141-22.19 93.168-66.51 114.09-33.19 15.648-85.32 23.469-156.35 23.469h-163.3V409.109h163.3c71.5 0 123.61 7.922 156.35 23.77 44.32 20.519 66.51 58.543 66.51 114.082m89.14 0c0-141.371-104-212.063-312-212.063h-252.44v424.711h252.44c208 0 312-70.879 312-212.648" style="fill:#ed1c24;fill-opacity:1;fill-rule:nonzero;stroke:none" transform="matrix(.13333 0 0 -.13333 0 266.787)"/><path d="M5287.4 418.781h153.65c69.71 0 120.89 7.649 152.16 22.778 41.12 19.05 61.05 53.519 61.05 105.402 0 51.519-19.95 85.98-60.98 105.348-31.73 14.953-82.95 22.562-152.23 22.562H5287.4Zm153.65-19.332h-163.3c-5.33 0-9.67 4.332-9.67 9.66V684.52c0 5.332 4.34 9.671 9.67 9.671h163.3c73.13 0 125.62-7.98 160.47-24.39 47.8-22.59 72.05-63.891 72.05-122.84 0-59.359-24.27-100.699-72.09-122.871-34.25-16.551-86.75-24.641-160.43-24.641m-242.79-54.879h242.79c203.46 0 302.35 66.211 302.35 202.391 0 136.578-98.89 202.969-302.35 202.969h-242.79zm242.79-19.32h-252.44c-5.33 0-9.67 4.32-9.67 9.648v424.711c0 5.332 4.34 9.653 9.67 9.653h252.44c213.43 0 321.68-74.801 321.68-222.301 0-147.129-108.25-221.711-321.68-221.711M5784.05 334.898v424.711h505.26V684.52h-416.12V584.512h416.12V509.41h-416.12V409.109h416.12v-74.211z" style="fill:#ed1c24;fill-opacity:1;fill-rule:nonzero;stroke:none" transform="matrix(.13333 0 0 -.13333 0 266.787)"/><path d="M5793.72 344.57h485.92v54.879h-406.45c-5.33 0-9.65 4.332-9.65 9.66V509.41c0 5.328 4.32 9.66 9.65 9.66h406.45v55.762h-406.45c-5.33 0-9.65 4.348-9.65 9.68V684.52c0 5.332 4.32 9.671 9.65 9.671h406.45v55.739h-485.92zm495.59-19.32h-505.26c-5.33 0-9.65 4.32-9.65 9.648v424.711c0 5.332 4.32 9.653 9.65 9.653h505.26c5.35 0 9.67-4.321 9.67-9.653V684.52c0-5.329-4.32-9.649-9.67-9.649h-406.45V594.16h406.45c5.35 0 9.67-4.328 9.67-9.648V509.41c0-5.34-4.32-9.66-9.67-9.66h-406.45v-80.969h406.45c5.35 0 9.67-4.332 9.67-9.672v-74.211c0-5.328-4.32-9.648-9.67-9.648" style="fill:#ed1c24;fill-opacity:1;fill-rule:nonzero;stroke:none" transform="matrix(.13333 0 0 -.13333 0 266.787)"/></svg>