<svg xmlns="http://www.w3.org/2000/svg" id="Layer_1" data-name="Layer 1" viewBox="0 0 425.19 88.29"><defs><style>.cls-1{fill:#a8ad00}.cls-2{fill:#58595b}</style></defs><path d="M54 .15h-9v39.82h-1a4.6 4.6 0 0 1-2.9-1L3 .09h-.71A2.18 2.18 0 0 0 0 2.14v11.62a2 2 0 0 0 .67 1.46l30.45 30.87A17.15 17.15 0 0 0 44 50.94V51l.49-.08a16.8 16.8 0 0 0 6.93-2.86 14.27 14.27 0 0 0 6.25-11.57v-33A3.53 3.53 0 0 0 54 .15M113.88 40.12h-36.5A3.29 3.29 0 0 1 74 37V.07h-9a3.52 3.52 0 0 0-3.7 3.32v33c0 8 7.19 14.6 16.08 14.62h40.2v-7.56a3.54 3.54 0 0 0-3.7-3.33" class="cls-1"/><path d="M182.66.82 161.5 34.45 140.26.81a1.15 1.15 0 0 0-.75-.41h-4.93V51h3.22a1 1 0 0 0 1-.9V5.64l19.65 31.61a1.87 1.87 0 0 0 1.42.68h3.21a1.71 1.71 0 0 0 1.33-.67c2.68-4.21 17.38-27.85 19.73-31.63v44.49a1 1 0 0 0 1 .9h3.23V.4h-4.94a1.16 1.16 0 0 0-.77.42m44.87-.75h-17.88c-6.58 0-11.88 4.82-11.88 10.68v29.92c0 5.85 5.3 10.68 11.88 10.68h17.88c6.5 0 11.87-4.83 11.87-10.68V10.75c0-5.86-5.4-10.68-11.87-10.68m7.65 41.13c0 3.81-3.42 6.88-7.65 6.89h-17.88c-4.23 0-7.65-3.08-7.66-6.89v-31c0-3.81 3.43-6.88 7.66-6.89h17.88c4.23 0 7.64 3.08 7.65 6.89Zm48.69 6.62h-23.18c-4.22 0-7.71-3.15-7.73-7V.33h-3.23a1 1 0 0 0-1 .89v39c0 6 5.37 10.83 11.94 10.83h24.17v-2.3a1 1 0 0 0-.97-.93m36-47.49h-26a2.38 2.38 0 0 0-2.47 2.23v46.22a2.38 2.38 0 0 0 2.45 2.22h26c6.5 0 11.86-4.77 11.87-10.69V11c.01-5.84-5.35-10.67-11.85-10.67m0 47.49h-23.55a.66.66 0 0 1-.73-.65v-43a.65.65 0 0 1 .73-.58h23.55c4.15 0 7.64 3.09 7.65 6.89v30.45c-.01 3.81-3.52 6.88-7.65 6.89M341 11v29.33c0 5.92 5.3 10.67 11.89 10.67H378v-2.22a1 1 0 0 0-1.06-1h-24.05c-4.23 0-7.65-3.08-7.66-6.89V27.33h29.71a1 1 0 0 0 1-1V24h-28.79a3 3 0 0 0-1.92.66V10.48c0-3.81 3.43-6.88 7.66-6.89H377a1 1 0 0 0 1.06-1V.33h-25.17C346.3.33 341 5.16 341 11m82 18.3-33.53-10a.89.89 0 0 1-.62-.79v-8c0-3.81 3.42-6.88 7.65-6.89h26.08a1 1 0 0 0 1-.89V.4h-27.1c-6.58 0-11.86 4.76-11.87 10.68v8.26a3 3 0 0 0 2.13 2.66l33.53 10a1 1 0 0 1 .71.79v8.11c0 3.81-3.43 6.88-7.66 6.89h-28.39a1 1 0 0 0-1 .9V51h29.38c6.51 0 11.87-4.77 11.87-10.69V32a3.1 3.1 0 0 0-2.18-2.68Z" class="cls-2"/><path d="M111 0h-6.23a1.24 1.24 0 0 0-1.13.68 1 1 0 0 0 .27 1.2l11.56 10.38a1.27 1.27 0 0 0 .86.32 1.5 1.5 0 0 0 .47-.08 1.11 1.11 0 0 0 .75-1V5.9C117.47 2.61 114.64.05 111 0" class="cls-1"/><path d="M107.55 75.87h-8.94V83a.23.23 0 0 1-.23.23h-.85V67.62h.85a.23.23 0 0 1 .23.23V75h8.94v-7.15a.23.23 0 0 1 .23-.23h.85v15.6h-.85a.23.23 0 0 1-.23-.23ZM111.1 68.22h.73a.2.2 0 0 1 .21.21v1h-.73a.2.2 0 0 1-.21-.2Zm0 4.61h.71a.22.22 0 0 1 .19.17v10.22h-.71a.23.23 0 0 1-.23-.23ZM122.51 73.06v12.61a2.58 2.58 0 0 1-2.58 2.62h-4.88v-.69a.23.23 0 0 1 .21-.23h4.67a1.59 1.59 0 0 0 1.64-1.59v-2.87a.58.58 0 0 1-.56.29h-3.82a2.6 2.6 0 0 1-2.58-2.62v-5.15a2.61 2.61 0 0 1 2.58-2.62h5.09a.24.24 0 0 1 .23.25m-1.31 9.29a.37.37 0 0 0 .37-.38v-8.29h-4.38a1.65 1.65 0 0 0-1.64 1.67v5.34a1.65 1.65 0 0 0 1.64 1.66ZM130.37 72.83a2.6 2.6 0 0 1 2.59 2.6v7.79h-.66a.26.26 0 0 1-.3-.22v-7.6a1.65 1.65 0 0 0-1.66-1.64h-4a.37.37 0 0 0-.38.35V83a.26.26 0 0 1-.27.27H125V67.62h.72a.23.23 0 0 1 .23.23v5.38c0-.23.29-.4.61-.4ZM153.63 70.9v2.16a3.25 3.25 0 0 1-3.26 3.26h-6.05a.58.58 0 0 1-.58-.33v7a.23.23 0 0 1-.23.23h-.85v-15a.6.6 0 0 1 .6-.6h7.11a3.25 3.25 0 0 1 3.26 3.28m-1.08-.19a2.19 2.19 0 0 0-2.18-2.18H144a.23.23 0 0 0-.23.23v6.3a.38.38 0 0 0 .37.37h6.26a2.19 2.19 0 0 0 2.18-2.18ZM156.69 72.83v.69s.42-.69 1.83-.69h2.37v.65a.21.21 0 0 1-.23.2h-2.56a1.41 1.41 0 0 0-1.41 1.5v8h-.93V72.83ZM162.81 80.71v-5.38a2.39 2.39 0 0 1 2.52-2.5h3.28a2.38 2.38 0 0 1 2.51 2.5v2.82a.23.23 0 0 1-.23.25h-6.66a.56.56 0 0 1-.46-.25v2.54a1.63 1.63 0 0 0 1.64 1.64h5.34a.23.23 0 0 1 .23.23v.66h-5.57a2.43 2.43 0 0 1-2.6-2.51m2.52-7a1.61 1.61 0 0 0-1.58 1.67v2a.23.23 0 0 0 .23.23h6.21v-2.26a1.62 1.62 0 0 0-1.58-1.67ZM173.49 75.45a2.58 2.58 0 0 1 2.57-2.6h4.26v.63a.22.22 0 0 1-.21.23h-4.05a1.65 1.65 0 0 0-1.64 1.66v5.34a1.63 1.63 0 0 0 1.64 1.64h4.05a.21.21 0 0 1 .21.23v.64h-4.26a2.58 2.58 0 0 1-2.57-2.6ZM182.65 68.22h.73a.2.2 0 0 1 .2.21v1h-.72a.19.19 0 0 1-.21-.2Zm0 4.61h.71a.21.21 0 0 1 .22.21v10.18h-.7a.23.23 0 0 1-.23-.23ZM193.1 79.31 186.62 77a.89.89 0 0 1-.56-.79v-1a2.36 2.36 0 0 1 2.57-2.33h4.78v.63a.22.22 0 0 1-.23.22h-4.55a1.52 1.52 0 0 0-1.64 1.5V76a.36.36 0 0 0 .21.29l6.44 2.33a.87.87 0 0 1 .56.79v1.57a2.33 2.33 0 0 1-2.57 2.29H186v-.64a.23.23 0 0 1 .23-.23h5.36a1.5 1.5 0 0 0 1.72-1.4v-1.39a.33.33 0 0 0-.21-.3M196.63 68.22h.73a.21.21 0 0 1 .21.21v1h-.73a.2.2 0 0 1-.21-.2Zm0 4.61h.71a.22.22 0 0 1 .23.21v10.18h-.71a.23.23 0 0 1-.23-.23ZM202.76 83.37a2.58 2.58 0 0 1-2.57-2.6V75.3a2.59 2.59 0 0 1 2.57-2.61h3.14a2.59 2.59 0 0 1 2.55 2.61v5.47a2.58 2.58 0 0 1-2.55 2.6Zm0-9.81a1.65 1.65 0 0 0-1.64 1.66v5.63a1.63 1.63 0 0 0 1.64 1.64h3.14a1.62 1.62 0 0 0 1.62-1.64v-5.63a1.65 1.65 0 0 0-1.62-1.66ZM218.28 75.35a1.67 1.67 0 0 0-1.64-1.67h-4.55a.23.23 0 0 0-.23.23V83a.23.23 0 0 1-.23.23h-.7v-9.48a.94.94 0 0 1 .91-.94h4.8a2.61 2.61 0 0 1 2.57 2.62v7.79h-.72a.22.22 0 0 1-.21-.23ZM242.6 67.64h1.33v15.58h-.85a.23.23 0 0 1-.23-.23V69s-4.78 8.54-5.59 10a.41.41 0 0 1-.33.19H236a.46.46 0 0 1-.36-.19l-5.56-10v14a.23.23 0 0 1-.23.23H229V67.64h1.33a.27.27 0 0 1 .17.1l6 10.49 5.94-10.49a.33.33 0 0 1 .16-.1M249 83.37a2.59 2.59 0 0 1-2.58-2.6V75.3a2.6 2.6 0 0 1 2.58-2.61h3.14a2.59 2.59 0 0 1 2.55 2.61v5.47a2.58 2.58 0 0 1-2.55 2.6Zm0-9.81a1.65 1.65 0 0 0-1.64 1.66v5.63a1.63 1.63 0 0 0 1.64 1.64h3.14a1.62 1.62 0 0 0 1.62-1.64v-5.63a1.65 1.65 0 0 0-1.62-1.66ZM257.14 68.49h.71a.23.23 0 0 1 .23.23V83.2h-.71a.22.22 0 0 1-.23-.21ZM268.62 67.64V83a.23.23 0 0 1-.23.23h-5.33a2.58 2.58 0 0 1-2.58-2.6v-5.2a2.58 2.58 0 0 1 2.58-2.6h4.05c.29 0 .56.17.58.4v-5.36a.23.23 0 0 1 .23-.23Zm-.93 14.71v-8.29a.42.42 0 0 0-.36-.38h-4.27a1.66 1.66 0 0 0-1.65 1.67v5.36a1.64 1.64 0 0 0 1.65 1.64ZM283.12 75.43v7.79h-.73a.23.23 0 0 1-.23-.23v-7.64a1.65 1.65 0 0 0-1.62-1.67h-3.28a.65.65 0 0 1 .33.59v9h-.71a.22.22 0 0 1-.22-.23v-8.98a.38.38 0 0 0-.38-.38h-4a.23.23 0 0 0-.22.23V83a.23.23 0 0 1-.23.23h-.71v-9.48a1 1 0 0 1 .91-.94h8.48a2.62 2.62 0 0 1 2.61 2.62M293.37 75.43V83a.23.23 0 0 1-.23.23h-5.21a2.58 2.58 0 0 1-2.58-2.6v-1.09a2.6 2.6 0 0 1 2.58-2.62h4.28a.23.23 0 0 0 .23-.22v-1.35a1.65 1.65 0 0 0-1.64-1.67h-4.35a.22.22 0 0 1-.2-.22v-.65h4.55a2.6 2.6 0 0 1 2.57 2.62m-.93 6.88v-4.6a.26.26 0 0 1-.17.09h-4.34a1.65 1.65 0 0 0-1.64 1.66v1.2a1.63 1.63 0 0 0 1.64 1.65ZM300.94 77.94l2.58 5.26h-.83a.39.39 0 0 1-.32-.19L300 78.07h-2.84a.37.37 0 0 0-.35.35V83a.23.23 0 0 1-.23.23h-.71V69.11h.71a.24.24 0 0 1 .23.23v8.21a.57.57 0 0 1 .58-.36h2.68a1.9 1.9 0 0 0 1.93-1.64V73a.23.23 0 0 1 .23-.23h.7v2.66a3 3 0 0 1-1.62 2.29ZM305.46 68.22h.73a.2.2 0 0 1 .21.21v1h-.73a.2.2 0 0 1-.21-.2Zm0 4.61h.71a.22.22 0 0 1 .23.21v10.18h-.71a.23.23 0 0 1-.23-.23ZM316.42 75.35a1.67 1.67 0 0 0-1.64-1.67h-4.55a.23.23 0 0 0-.23.23V83a.23.23 0 0 1-.23.23h-.71v-9.48a1 1 0 0 1 .92-.94h4.8a2.61 2.61 0 0 1 2.57 2.62v7.79h-.72a.22.22 0 0 1-.21-.23ZM327.66 73.06v12.61a2.59 2.59 0 0 1-2.58 2.62h-4.88v-.69a.23.23 0 0 1 .21-.23h4.67a1.59 1.59 0 0 0 1.64-1.59v-2.87a.58.58 0 0 1-.56.29h-3.82a2.6 2.6 0 0 1-2.58-2.62v-5.15a2.61 2.61 0 0 1 2.58-2.62h5.09a.24.24 0 0 1 .23.25m-1.31 9.29a.37.37 0 0 0 .37-.38v-8.29h-4.38a1.65 1.65 0 0 0-1.64 1.67v5.34a1.65 1.65 0 0 0 1.64 1.66Z" class="cls-2"/></svg>