<svg id="Layer_1" data-name="Layer 1" xmlns="http://www.w3.org/2000/svg" viewBox="0 0 425.19 88.29"><defs><style>.cls-1{fill:#a8ad00;}.cls-2{fill:#58595b;}</style></defs><path class="cls-1" d="M54,.15H45v37c0,.82,0,2.82,0,2.82H44a4.59,4.59,0,0,1-2.9-1L3,.09H2.29A2.18,2.18,0,0,0,0,2.14V3H0V13.76H0v0a2,2,0,0,0,.67,1.46h0L31.12,46.09A17.15,17.15,0,0,0,44,50.94V51l.49-.08a16.77,16.77,0,0,0,6.93-2.86,14.27,14.27,0,0,0,6.25-11.57v-33A3.53,3.53,0,0,0,54,.15Z"/><path class="cls-1" d="M113.88,40.12H77.38A3.29,3.29,0,0,1,74,37V.07H65A3.52,3.52,0,0,0,61.3,3.39v33c0,8,7.19,14.6,16.08,14.62h40.2V43.45A3.54,3.54,0,0,0,113.88,40.12Z"/><path class="cls-2" d="M182.66.82,161.5,34.45,140.26.81a1.15,1.15,0,0,0-.75-.41h-4.93V51h3.22a1,1,0,0,0,1-.9V5.64l19.65,31.61a1.87,1.87,0,0,0,1.42.68h3.21a1.71,1.71,0,0,0,1.33-.67c2.68-4.21,17.38-27.85,19.73-31.63V50.12a1,1,0,0,0,1,.9h3.23V.4h-4.94A1.16,1.16,0,0,0,182.66.82ZM227.53.07H209.65c-6.58,0-11.88,4.82-11.88,10.68V40.67c0,5.85,5.3,10.68,11.88,10.68h17.88c6.5,0,11.87-4.83,11.87-10.68V10.75C239.4,4.89,234,.07,227.53.07Zm7.65,41.13c0,3.81-3.42,6.88-7.65,6.89H209.65c-4.23,0-7.65-3.08-7.66-6.89v-31c0-3.81,3.43-6.88,7.66-6.89h17.88c4.23,0,7.64,3.08,7.65,6.89Zm48.69,6.62H260.69c-4.22,0-7.71-3.15-7.73-7V.33h-3.23a1,1,0,0,0-1,.89v39c0,6,5.37,10.83,11.94,10.83h24.17v-2.3A1,1,0,0,0,283.87,47.82Zm36-47.49h-26a2.38,2.38,0,0,0-2.47,2.23h0V48.78A2.38,2.38,0,0,0,293.85,51h26c6.5,0,11.86-4.77,11.87-10.69V11C331.73,5.16,326.37.33,319.87.33Zm0,47.49H296.32a.66.66,0,0,1-.73-.65v-43a.65.65,0,0,1,.73-.58h23.55c4.15,0,7.64,3.09,7.65,6.89V40.93C327.51,44.74,324,47.81,319.87,47.82ZM341,11V40.33C341,46.25,346.3,51,352.89,51H378V48.78a1,1,0,0,0-1.06-1H352.89c-4.23,0-7.65-3.08-7.66-6.89V27.33h29.71a1,1,0,0,0,1-1V24H347.15a3,3,0,0,0-1.92.66V10.48c0-3.81,3.43-6.88,7.66-6.89H377a1,1,0,0,0,1.06-1V.33H352.89C346.3.33,341,5.16,341,11Zm82,18.3-33.53-10a.89.89,0,0,1-.62-.79v-8c0-3.81,3.42-6.88,7.65-6.89h26.08a1,1,0,0,0,1-.89V.4H396.48c-6.58,0-11.86,4.76-11.87,10.68v8.26A3,3,0,0,0,386.74,22l33.53,10a1,1,0,0,1,.71.79v8.11c0,3.81-3.43,6.88-7.66,6.89H384.93a1,1,0,0,0-1,.9V51h29.38c6.51,0,11.87-4.77,11.87-10.69V32A3.1,3.1,0,0,0,423,29.32Z"/><path class="cls-1" d="M111,0h-6.23a1.24,1.24,0,0,0-1.13.68,1,1,0,0,0,.27,1.2l11.56,10.38a1.27,1.27,0,0,0,.86.32,1.5,1.5,0,0,0,.47-.08,1.11,1.11,0,0,0,.75-1V5.9C117.47,2.61,114.64.05,111,0"/><path class="cls-2" d="M107.55,75.87H98.61V83a.23.23,0,0,1-.23.23h-.85V67.62h.85a.23.23,0,0,1,.23.23V75h8.94V67.85a.23.23,0,0,1,.23-.23h.85v15.6h-.85a.23.23,0,0,1-.23-.23Z"/><path class="cls-2" d="M111.1,68.22h.73a.2.2,0,0,1,.21.21v1h-.73a.2.2,0,0,1-.21-.2Zm0,4.61h.71A.22.22,0,0,1,112,73V83.22h-.71a.23.23,0,0,1-.23-.23Z"/><path class="cls-2" d="M122.51,73.06V85.67a2.58,2.58,0,0,1-2.58,2.62h-4.88V87.6a.23.23,0,0,1,.21-.23h4.67a1.59,1.59,0,0,0,1.64-1.59V82.91a.58.58,0,0,1-.56.29l-3.82,0a2.6,2.6,0,0,1-2.58-2.62V75.43a2.61,2.61,0,0,1,2.58-2.62h5.09A.24.24,0,0,1,122.51,73.06Zm-1.31,9.29a.37.37,0,0,0,.37-.38V73.68h-4.38a1.65,1.65,0,0,0-1.64,1.67v5.34a1.65,1.65,0,0,0,1.64,1.66Z"/><path class="cls-2" d="M130.37,72.83a2.6,2.6,0,0,1,2.59,2.6v7.79h-.66A.26.26,0,0,1,132,83v-7.6a1.65,1.65,0,0,0-1.66-1.64h-4a.37.37,0,0,0-.38.35V83a.26.26,0,0,1-.27.27H125V67.62h.72a.23.23,0,0,1,.23.23v5.38c0-.23.29-.4.61-.4Z"/><path class="cls-2" d="M153.63,70.9v2.16a3.25,3.25,0,0,1-3.26,3.26h-6.05a.58.58,0,0,1-.58-.33v7a.23.23,0,0,1-.23.23h-.85v-15a.6.6,0,0,1,.6-.6h7.11A3.25,3.25,0,0,1,153.63,70.9Zm-1.08-.19a2.19,2.19,0,0,0-2.18-2.18H144a.23.23,0,0,0-.23.23v6.3a.38.38,0,0,0,.37.37h6.26a2.19,2.19,0,0,0,2.18-2.18Z"/><path class="cls-2" d="M156.69,72.83v.69s.42-.69,1.83-.69h2.37v.65a.21.21,0,0,1-.23.2H158.1a1.41,1.41,0,0,0-1.41,1.5v8h-.93V72.83Z"/><path class="cls-2" d="M162.81,80.71V75.33a2.39,2.39,0,0,1,2.52-2.5h3.28a2.38,2.38,0,0,1,2.51,2.5v2.82a.23.23,0,0,1-.23.25h-6.66a.56.56,0,0,1-.46-.25h0v2.54a1.63,1.63,0,0,0,1.64,1.64h5.34a.23.23,0,0,1,.23.23v.66h-5.57A2.43,2.43,0,0,1,162.81,80.71Zm2.52-7a1.61,1.61,0,0,0-1.58,1.67v2a.23.23,0,0,0,.23.23h6.21V75.35a1.62,1.62,0,0,0-1.58-1.67Z"/><path class="cls-2" d="M173.49,75.45a2.58,2.58,0,0,1,2.57-2.6h4.26v.63a.22.22,0,0,1-.21.23h-4.05a1.65,1.65,0,0,0-1.64,1.66v5.34a1.63,1.63,0,0,0,1.64,1.64h4.05a.21.21,0,0,1,.21.23v.64h-4.26a2.58,2.58,0,0,1-2.57-2.6Z"/><path class="cls-2" d="M182.65,68.22h.73a.2.2,0,0,1,.2.21v1h-.72a.19.19,0,0,1-.21-.2Zm0,4.61h.71a.21.21,0,0,1,.22.21V83.22h-.7a.23.23,0,0,1-.23-.23Z"/><path class="cls-2" d="M193.1,79.31,186.62,77a.89.89,0,0,1-.56-.79v-1a2.36,2.36,0,0,1,2.57-2.33h4.78v.63a.22.22,0,0,1-.23.22h-4.55a1.52,1.52,0,0,0-1.64,1.5V76a.36.36,0,0,0,.21.29l6.44,2.33a.87.87,0,0,1,.56.79v1.57a2.33,2.33,0,0,1-2.57,2.29H186v-.64a.23.23,0,0,1,.23-.23h5.36A1.5,1.5,0,0,0,193.31,81V79.61A.33.33,0,0,0,193.1,79.31Z"/><path class="cls-2" d="M196.63,68.22h.73a.21.21,0,0,1,.21.21v1h-.73a.2.2,0,0,1-.21-.2Zm0,4.61h.71a.22.22,0,0,1,.23.21V83.22h-.71a.23.23,0,0,1-.23-.23Z"/><path class="cls-2" d="M202.76,83.37a2.58,2.58,0,0,1-2.57-2.6V75.3a2.59,2.59,0,0,1,2.57-2.61h3.14a2.59,2.59,0,0,1,2.55,2.61v5.47a2.58,2.58,0,0,1-2.55,2.6Zm0-9.81a1.65,1.65,0,0,0-1.64,1.66v5.63a1.63,1.63,0,0,0,1.64,1.64h3.14a1.62,1.62,0,0,0,1.62-1.64V75.22a1.65,1.65,0,0,0-1.62-1.66Z"/><path class="cls-2" d="M218.28,75.35a1.67,1.67,0,0,0-1.64-1.67h-4.55a.23.23,0,0,0-.23.23V83a.23.23,0,0,1-.23.23h-.7V73.75a.94.94,0,0,1,.91-.94h4.8a2.61,2.61,0,0,1,2.57,2.62v7.79h-.72a.22.22,0,0,1-.21-.23Z"/><path class="cls-2" d="M242.6,67.64h1.33V83.22h-.85a.23.23,0,0,1-.23-.23V69s-4.78,8.54-5.59,10a.41.41,0,0,1-.33.19H236a.46.46,0,0,1-.36-.19l-5.56-10V83a.23.23,0,0,1-.23.23H229V67.64h1.33a.27.27,0,0,1,.17.1l6,10.49,5.94-10.49A.33.33,0,0,1,242.6,67.64Z"/><path class="cls-2" d="M249,83.37a2.59,2.59,0,0,1-2.58-2.6V75.3A2.6,2.6,0,0,1,249,72.69h3.14a2.59,2.59,0,0,1,2.55,2.61v5.47a2.58,2.58,0,0,1-2.55,2.6Zm0-9.81a1.65,1.65,0,0,0-1.64,1.66v5.63A1.63,1.63,0,0,0,249,82.49h3.14a1.62,1.62,0,0,0,1.62-1.64V75.22a1.65,1.65,0,0,0-1.62-1.66Z"/><path class="cls-2" d="M257.14,68.49h.71a.23.23,0,0,1,.23.23V83.2h-.71a.22.22,0,0,1-.23-.21Z"/><path class="cls-2" d="M268.62,67.64V83a.23.23,0,0,1-.23.23h-5.33a2.58,2.58,0,0,1-2.58-2.6V75.43a2.58,2.58,0,0,1,2.58-2.6h4.05c.29,0,.56.17.58.4V67.87a.23.23,0,0,1,.23-.23Zm-.93,14.71V74.06a.42.42,0,0,0-.36-.38h-4.27a1.66,1.66,0,0,0-1.65,1.67v5.36a1.64,1.64,0,0,0,1.65,1.64Z"/><path class="cls-2" d="M283.12,75.43v7.79h-.73a.23.23,0,0,1-.23-.23V75.35a1.65,1.65,0,0,0-1.62-1.67h-3.28a.65.65,0,0,1,.33.59v9h-.71a.22.22,0,0,1-.22-.23V74.06a.38.38,0,0,0-.38-.38h-4a.23.23,0,0,0-.22.23V83a.23.23,0,0,1-.23.23h-.71V73.75a1,1,0,0,1,.91-.94h8.48A2.62,2.62,0,0,1,283.12,75.43Z"/><path class="cls-2" d="M293.37,75.43V83a.23.23,0,0,1-.23.23h-5.21a2.58,2.58,0,0,1-2.58-2.6V79.54a2.6,2.6,0,0,1,2.58-2.62h4.28a.23.23,0,0,0,.23-.22V75.35a1.65,1.65,0,0,0-1.64-1.67h-4.35a.22.22,0,0,1-.2-.22v-.65h4.55A2.6,2.6,0,0,1,293.37,75.43Zm-.93,6.88v-4.6a.26.26,0,0,1-.17.09h-4.34a1.65,1.65,0,0,0-1.64,1.66v1.2a1.63,1.63,0,0,0,1.64,1.65Z"/><path class="cls-2" d="M300.94,77.94l2.58,5.26h-.83a.39.39,0,0,1-.32-.19L300,78.07h-2.84a.37.37,0,0,0-.35.35V83a.23.23,0,0,1-.23.23h-.71V69.11h.71a.24.24,0,0,1,.23.23v8.21a.57.57,0,0,1,.58-.36h2.68A1.9,1.9,0,0,0,302,75.55V73a.23.23,0,0,1,.23-.23h.7v2.66a3,3,0,0,1-1.62,2.29Z"/><path class="cls-2" d="M305.46,68.22h.73a.2.2,0,0,1,.21.21v1h-.73a.2.2,0,0,1-.21-.2Zm0,4.61h.71a.22.22,0,0,1,.23.21V83.22h-.71a.23.23,0,0,1-.23-.23Z"/><path class="cls-2" d="M316.42,75.35a1.67,1.67,0,0,0-1.64-1.67h-4.55a.23.23,0,0,0-.23.23V83a.23.23,0,0,1-.23.23h-.71V73.75a1,1,0,0,1,.92-.94h4.8a2.61,2.61,0,0,1,2.57,2.62v7.79h-.72a.22.22,0,0,1-.21-.23Z"/><path class="cls-2" d="M327.66,73.06V85.67a2.59,2.59,0,0,1-2.58,2.62H320.2V87.6a.23.23,0,0,1,.21-.23h4.67a1.59,1.59,0,0,0,1.64-1.59V82.91a.58.58,0,0,1-.56.29l-3.82,0a2.6,2.6,0,0,1-2.58-2.62V75.43a2.61,2.61,0,0,1,2.58-2.62h5.09A.24.24,0,0,1,327.66,73.06Zm-1.31,9.29a.37.37,0,0,0,.37-.38V73.68h-4.38a1.65,1.65,0,0,0-1.64,1.67v5.34a1.65,1.65,0,0,0,1.64,1.66Z"/></svg>