<?xml version="1.0" encoding="UTF-8"?>
<!-- Generator: Adobe Illustrator 24.0.1, SVG Export Plug-In . SVG Version: 6.00 Build 0)  -->
<svg version="1.1" id="Layer_1" xmlns="http://www.w3.org/2000/svg" xmlns:xlink="http://www.w3.org/1999/xlink" x="0px" y="0px" viewBox="0 0 1190.6 186" style="enable-background:new 0 0 1190.6 186;" xml:space="preserve">
<style type="text/css">
	.st0{clip-path:url(#SVGID_2_);fill:#A7AB1D;}
	.st1{clip-path:url(#SVGID_2_);fill:#FFFFFF;}
	.st2{clip-path:url(#SVGID_4_);fill:url(#SVGID_5_);}
	.st3{clip-path:url(#SVGID_7_);fill:#FFFFFF;}
	.st4{clip-path:url(#SVGID_9_);fill:url(#SVGID_10_);}
</style>
<g>
	<defs>
		<rect id="SVGID_1_" y="-324.9" width="1190.6" height="841.9"/>
	</defs>
	<clipPath id="SVGID_2_">
		<use xlink:href="#SVGID_1_" style="overflow:visible;"/>
	</clipPath>
	<path class="st0" d="M163.7,17.1h-16.2v66.3c0,1.5,0,5.1,0,5.1h-1.8c-2.5-0.1-4.1-0.8-5.2-1.8L72.3,17L71,17   c-2.3,0.1-4,1.6-4.1,3.7v1.6v19.3v0v0c0,1,0.5,1.9,1.2,2.6v0l54.6,55.3c6.1,6.1,14.7,9.1,23.1,8.7v0.1c0.3,0,0.6-0.1,0.9-0.2   c4.6-0.8,8.9-2.6,12.4-5.1c6.8-4.8,11.2-12.4,11.2-20.8V23.1C170.3,19.7,167.5,17.2,163.7,17.1"/>
	<path class="st0" d="M271.2,88.8h-65.5c-3.2,0-6-2.5-6-5.5V17h-16.2c-3.8,0.1-6.5,2.6-6.6,6v59.2c0,14.4,12.9,26.2,28.8,26.2   l72.1,0V94.8C277.7,91.4,275,88.9,271.2,88.8"/>
	<path class="st1" d="M394.6,18.3l-38,60.3l-38.1-60.3c-0.3-0.4-0.8-0.7-1.3-0.7h-8.9v90.8h5.8c1,0,1.8-0.7,1.8-1.6V27l35.3,56.7   c0.5,0.7,1.6,1.2,2.5,1.2h5.8c0.9,0,1.9-0.5,2.4-1.2c4.8-7.5,31.2-50,35.4-56.7v79.8c0,0.9,0.8,1.6,1.8,1.6h5.8V17.6h-8.9   C395.5,17.6,394.9,17.9,394.6,18.3 M475.1,17H443c-11.8,0-21.3,8.7-21.3,19.2v53.7c0,10.5,9.5,19.2,21.3,19.2h32.1   c11.7,0,21.3-8.7,21.3-19.2V36.1C496.4,25.6,486.8,17,475.1,17 M488.8,90.8c0,6.8-6.1,12.3-13.7,12.4H443   c-7.6,0-13.7-5.5-13.7-12.4V35.2c0-6.8,6.1-12.4,13.7-12.4h32.1c7.6,0,13.7,5.5,13.7,12.4V90.8z M576.2,102.6h-41.6   c-7.6,0-13.8-5.6-13.9-12.6l0-72.6h-5.8c-1,0-1.8,0.7-1.8,1.6V89c0,10.7,9.6,19.4,21.4,19.4H578v-4.1   C577.9,103.4,577.2,102.6,576.2,102.6 M640.8,17.5h-46.7c-2.4,0-4.4,1.8-4.4,4v82.9c0,2.2,2,4,4.4,4h46.7   c11.7,0,21.3-8.5,21.3-19.2V36.6C662,26.1,652.4,17.5,640.8,17.5 M640.8,102.6h-42.2c-0.8,0-1.3-0.5-1.3-1.2V24.3   c0-0.6,0.5-1,1.3-1h42.2c7.4,0,13.7,5.5,13.7,12.4l0,54.6C654.5,97.1,648.2,102.6,640.8,102.6 M678.7,36.6l0,52.6   c0,10.6,9.5,19.2,21.3,19.2h45.1v-4c0-1-0.8-1.7-1.9-1.7H700c-7.6,0-13.7-5.5-13.7-12.4V65.9l53.3,0c1,0,1.8-0.7,1.8-1.7v-4.2   h-51.6c-1.4,0-2.6,0.5-3.4,1.2V35.7c0-6.8,6.1-12.3,13.7-12.4h43.2c1.1,0,1.9-0.7,1.9-1.7v-4.1H700   C688.2,17.5,678.7,26.1,678.7,36.6 M825.8,69.5l-60.2-17.9c-0.5-0.1-1.1-0.8-1.1-1.4V35.7c0-6.8,6.1-12.3,13.7-12.4H825   c1,0,1.8-0.7,1.8-1.6v-4.1h-48.6c-11.8,0-21.3,8.5-21.3,19.2v14.8c0,2.1,1.7,4.2,3.8,4.8l60.2,17.9c0.7,0.2,1.3,0.9,1.3,1.4v14.6   c0,6.8-6.2,12.3-13.7,12.4h-50.9c-1,0-1.8,0.7-1.8,1.6v4.1h52.7c11.7,0,21.3-8.5,21.3-19.2V74.3C829.7,72.2,827.9,70.1,825.8,69.5"/>
	<path class="st0" d="M266,16.9h-11.2c-0.9,0-1.7,0.5-2,1.2c-0.3,0.7-0.1,1.6,0.5,2.2L274,38.9c0.4,0.4,1,0.6,1.5,0.6   c0.3,0,0.6-0.1,0.8-0.1c0.8-0.3,1.3-1,1.3-1.8v-10C277.6,21.5,272.6,17,266,16.9"/>
	<path class="st1" d="M259.8,153h-16v12.8c0,0.2-0.2,0.4-0.4,0.4h-1.5v-28h1.5c0.2,0,0.4,0.2,0.4,0.4v12.8h16v-12.8   c0-0.2,0.2-0.4,0.4-0.4h1.5v28h-1.5c-0.2,0-0.4-0.2-0.4-0.4V153z"/>
	<path class="st1" d="M266.2,139.2h1.3c0.2,0,0.4,0.2,0.4,0.4v1.7h-1.3c-0.2,0-0.4-0.1-0.4-0.4V139.2z M266.2,147.5h1.3   c0.2,0,0.4,0.1,0.4,0.4v18.3h-1.3c-0.2,0-0.4-0.2-0.4-0.4V147.5z"/>
	<path class="st1" d="M286.7,147.9v22.6c0,2.6-2,4.7-4.6,4.7h-8.8V174c0-0.2,0.2-0.4,0.4-0.4h8.4c1.6,0,2.9-1.2,2.9-2.9v-5.1   c-0.1,0.3-0.5,0.5-1,0.5l-6.9,0c-2.6,0-4.6-2.1-4.6-4.7v-9.3c0-2.6,2-4.7,4.6-4.7h9.1C286.5,147.5,286.7,147.7,286.7,147.9    M284.3,164.6c0.4,0,0.7-0.3,0.7-0.7v-14.9h-7.9c-1.6,0-2.9,1.3-2.9,3v9.6c0,1.6,1.3,3,2.9,3H284.3z"/>
	<path class="st1" d="M300.8,147.5c2.6,0,4.7,2.1,4.7,4.7v14h-1.2c-0.3,0-0.5-0.2-0.5-0.5V152c0-1.6-1.3-2.9-3-2.9h-7.2   c-0.4,0-0.7,0.3-0.7,0.6v16c0,0.3-0.2,0.5-0.5,0.5h-1.2v-28h1.3c0.2,0,0.4,0.2,0.4,0.4v9.7c0-0.4,0.5-0.7,1.1-0.7H300.8z"/>
	<path class="st1" d="M342.5,144.1v3.9c0,3.2-2.6,5.9-5.9,5.9h-10.8c-0.5,0-0.9-0.3-1-0.6v12.6c0,0.2-0.2,0.4-0.4,0.4h-1.5v-26.9   c0-0.6,0.5-1.1,1.1-1.1h12.7C339.9,138.2,342.5,140.8,342.5,144.1 M340.6,143.7c0-2.2-1.8-3.9-3.9-3.9h-11.5   c-0.2,0-0.4,0.2-0.4,0.4v11.3c0,0.4,0.3,0.7,0.7,0.7h11.2c2.2,0,3.9-1.8,3.9-3.9V143.7z"/>
	<path class="st1" d="M348,147.5v1.2c0,0,0.7-1.2,3.3-1.2h4.2v1.2c0,0.2-0.2,0.4-0.4,0.4h-4.6c-2.6,0-2.5,2.7-2.5,2.7v14.4h-1.7   v-18.6H348z"/>
	<path class="st1" d="M359,161.7V152c0-2.8,2-4.5,4.5-4.5h5.9c2.5,0,4.5,1.7,4.5,4.5v5.1c0,0.3-0.2,0.5-0.4,0.5h-12   c-0.3,0-0.6-0.2-0.8-0.5h0v4.5c0,1.6,1.3,2.9,2.9,2.9h9.6c0.2,0,0.4,0.2,0.4,0.4v1.2h-10C361,166.2,359,164.5,359,161.7    M363.5,149.1c-1.6,0-2.8,1.3-2.8,3v3.5c0,0.2,0.2,0.4,0.4,0.4h11.1V152c0-1.6-1.2-3-2.8-3H363.5z"/>
	<path class="st1" d="M378.1,152.2c0-2.6,2-4.7,4.6-4.7h7.6v1.1c0,0.2-0.1,0.4-0.4,0.4h-7.3c-1.6,0-2.9,1.3-2.9,3v9.6   c0,1.6,1.3,2.9,2.9,2.9h7.3c0.2,0,0.4,0.2,0.4,0.4v1.2h-7.6c-2.6,0-4.6-2.1-4.6-4.7V152.2z"/>
	<path class="st1" d="M394.6,139.2h1.3c0.2,0,0.4,0.2,0.4,0.4v1.7h-1.3c-0.2,0-0.4-0.1-0.4-0.4V139.2z M394.6,147.5h1.3   c0.2,0,0.4,0.1,0.4,0.4v18.3H395c-0.2,0-0.4-0.2-0.4-0.4V147.5z"/>
	<path class="st1" d="M413.3,159.2l-11.6-4.2c-0.6-0.2-1-0.8-1-1.4v-1.9c0-2.6,2-4.2,4.6-4.2h8.6v1.1c0,0.2-0.2,0.4-0.4,0.4h-8.2   c-1.6,0-2.9,1-2.9,2.7v1.4c0,0.2,0.2,0.4,0.4,0.5l11.6,4.2c0.6,0.2,1,0.8,1,1.4v2.8c0,2.6-2.1,4.1-4.6,4.1h-10V165   c0-0.2,0.2-0.4,0.4-0.4h9.6c1.6,0,3-0.9,3-2.5v-2.4C413.7,159.5,413.5,159.2,413.3,159.2"/>
	<path class="st1" d="M419.7,139.2h1.3c0.2,0,0.4,0.2,0.4,0.4v1.7H420c-0.2,0-0.4-0.1-0.4-0.4V139.2z M419.7,147.5h1.3   c0.2,0,0.4,0.1,0.4,0.4v18.3h-1.3c-0.2,0-0.4-0.2-0.4-0.4V147.5z"/>
	<path class="st1" d="M430.7,166.4c-2.6,0-4.6-2.1-4.6-4.7V152c0-2.6,2-4.7,4.6-4.7h5.6c2.5,0,4.6,2.1,4.6,4.7v9.8   c0,2.6-2,4.7-4.6,4.7H430.7z M430.7,148.8c-1.6,0-2.9,1.3-2.9,3v10.1c0,1.6,1.3,2.9,2.9,2.9h5.6c1.6,0,2.9-1.3,2.9-2.9v-10.1   c0-1.6-1.3-3-2.9-3H430.7z"/>
	<path class="st1" d="M458.5,152c0-1.6-1.3-3-2.9-3h-8.2c-0.2,0-0.4,0.2-0.4,0.4v16.3c0,0.2-0.2,0.4-0.4,0.4h-1.3v-17   c0-0.9,0.7-1.7,1.6-1.7h8.6c2.5,0,4.6,2.1,4.6,4.7v14h-1.3c-0.2,0-0.4-0.2-0.4-0.4V152z"/>
	<path class="st1" d="M502.1,138.2h2.4v28H503c-0.2,0-0.4-0.2-0.4-0.4v-25c0,0-8.6,15.3-10,17.9c-0.1,0.2-0.4,0.3-0.6,0.3h-1.6   c-0.2,0-0.5-0.2-0.6-0.3l-10-17.9v25c0,0.2-0.2,0.4-0.4,0.4h-1.5v-28h2.4c0.1,0,0.3,0.1,0.3,0.2l10.7,18.8l10.7-18.8   C501.9,138.3,502.1,138.2,502.1,138.2"/>
	<path class="st1" d="M513.6,166.4c-2.6,0-4.6-2.1-4.6-4.7V152c0-2.6,2-4.7,4.6-4.7h5.6c2.5,0,4.6,2.1,4.6,4.7v9.8   c0,2.6-2,4.7-4.6,4.7H513.6z M513.6,148.8c-1.6,0-2.9,1.3-2.9,3v10.1c0,1.6,1.3,2.9,2.9,2.9h5.6c1.6,0,2.9-1.3,2.9-2.9v-10.1   c0-1.6-1.3-3-2.9-3H513.6z"/>
	<path class="st1" d="M528.2,139.7h1.3c0.2,0,0.4,0.2,0.4,0.4v26h-1.3c-0.2,0-0.4-0.1-0.4-0.4V139.7z"/>
	<path class="st1" d="M548.8,138.2v27.5c0,0.2-0.2,0.4-0.4,0.4h-9.6c-2.6,0-4.6-2.1-4.6-4.7v-9.3c0-2.6,2.1-4.7,4.6-4.7h7.3   c0.5,0,1,0.3,1,0.7v-9.6c0-0.2,0.2-0.4,0.4-0.4H548.8z M547.1,164.6v-14.9c0-0.4-0.3-0.6-0.6-0.7h-7.7c-1.6,0-2.9,1.3-2.9,3v9.6   c0,1.6,1.3,2.9,2.9,2.9H547.1z"/>
	<path class="st1" d="M574.8,152.2v14h-1.3c-0.2,0-0.4-0.2-0.4-0.4V152c0-1.6-1.3-3-2.9-3h-5.9c0.3,0.1,0.6,0.6,0.6,1v16.1h-1.3   c-0.2,0-0.4-0.2-0.4-0.4v-16c0-0.4-0.3-0.7-0.7-0.7h-7.1c-0.2,0-0.4,0.2-0.4,0.4v16.3c0,0.2-0.2,0.4-0.4,0.4h-1.3v-17   c0-0.9,0.7-1.7,1.6-1.7h15.2C572.7,147.5,574.8,149.6,574.8,152.2"/>
	<path class="st1" d="M593.2,152.2v13.6c0,0.2-0.2,0.4-0.4,0.4h-9.4c-2.6,0-4.6-2.1-4.6-4.7v-1.9c0-2.6,2.1-4.7,4.6-4.7h7.7   c0.2,0,0.4-0.1,0.4-0.4V152c0-1.6-1.3-3-2.9-3h-7.8c-0.2,0-0.4-0.2-0.4-0.4v-1.2h8.2C591.2,147.5,593.2,149.6,593.2,152.2    M591.5,164.5v-8.2c-0.1,0.1-0.2,0.2-0.3,0.2h-7.8c-1.6,0-2.9,1.3-2.9,3v2.2c0,1.6,1.3,2.9,2.9,2.9H591.5z"/>
	<path class="st1" d="M606.8,156.7l4.6,9.4h-1.5c-0.2,0-0.4-0.2-0.6-0.3l-4.3-8.9H600c-0.3,0-0.6,0.3-0.6,0.6v8.2   c0,0.2-0.2,0.4-0.4,0.4h-1.3v-25.3h1.3c0.2,0,0.4,0.2,0.4,0.4V156c0.1-0.4,0.5-0.6,1-0.6h4.8c1.6,0,3.5-1.3,3.5-2.9v-4.5   c0-0.2,0.2-0.4,0.4-0.4h1.3v4.8c0,1.7-1.4,3.2-2.9,4.1L606.8,156.7z"/>
	<path class="st1" d="M614.9,139.2h1.3c0.2,0,0.4,0.2,0.4,0.4v1.7h-1.3c-0.2,0-0.4-0.1-0.4-0.4V139.2z M614.9,147.5h1.3   c0.2,0,0.4,0.1,0.4,0.4v18.3h-1.3c-0.2,0-0.4-0.2-0.4-0.4V147.5z"/>
	<path class="st1" d="M634.6,152c0-1.6-1.3-3-2.9-3h-8.2c-0.2,0-0.4,0.2-0.4,0.4v16.3c0,0.2-0.2,0.4-0.4,0.4h-1.3v-17   c0-0.9,0.7-1.7,1.6-1.7h8.6c2.5,0,4.6,2.1,4.6,4.7v14h-1.3c-0.2,0-0.4-0.2-0.4-0.4V152z"/>
	<path class="st1" d="M654.7,147.9v22.6c0,2.6-2,4.7-4.6,4.7h-8.8V174c0-0.2,0.2-0.4,0.4-0.4h8.4c1.6,0,2.9-1.2,2.9-2.9v-5.1   c-0.1,0.3-0.5,0.5-1,0.5l-6.9,0c-2.6,0-4.6-2.1-4.6-4.7v-9.3c0-2.6,2-4.7,4.6-4.7h9.1C654.5,147.5,654.7,147.7,654.7,147.9    M652.4,164.6c0.4,0,0.7-0.3,0.7-0.7v-14.9h-7.9c-1.6,0-2.9,1.3-2.9,3v9.6c0,1.6,1.3,3,2.9,3H652.4z"/>
</g>
<g>
	<defs>
		<path id="SVGID_3_" d="M864.8,24.5v143.2c0,0.6,0.5,1.1,1.1,1.1c0.6,0,1.1-0.5,1.1-1.1V24.5c0-0.6-0.5-1.1-1.1-1.1    C865.3,23.4,864.8,23.9,864.8,24.5"/>
	</defs>
	<clipPath id="SVGID_4_">
		<use xlink:href="#SVGID_3_" style="overflow:visible;"/>
	</clipPath>
	
		<linearGradient id="SVGID_5_" gradientUnits="userSpaceOnUse" x1="-1.679115e-06" y1="517" x2="1" y2="517" gradientTransform="matrix(0 145.3985 -145.3985 0 76036.9531 23.3553)">
		<stop offset="0" style="stop-color:#B2B11C"/>
		<stop offset="1" style="stop-color:#9AAE22"/>
	</linearGradient>
	<rect x="864.8" y="23.4" class="st2" width="2.2" height="145.4"/>
</g>
<g>
	<defs>
		<rect id="SVGID_6_" y="-324.9" width="1190.6" height="841.9"/>
	</defs>
	<clipPath id="SVGID_7_">
		<use xlink:href="#SVGID_6_" style="overflow:visible;"/>
	</clipPath>
	<polygon class="st3" points="922.5,143.7 914.6,163.5 906.2,143.7 904.4,143.7 913.9,165.4 910.4,175.3 912.1,175.3 924.3,143.7     "/>
	<path class="st3" d="M934.6,143.5c-6.7,0-8.9,2.6-8.9,10.2c0,7.2,1.8,9.8,6.9,9.8h10.4v-1.1h-9.7c-5.8,0-5.8-5.4-5.8-7.7v-0.8h13.6   c1.6,0,2.4-0.5,2.4-2.9C943.5,145.7,940.8,143.5,934.6,143.5 M941.6,150.9c0,1.2-0.7,1.9-1.8,1.9h-12.3V152c0-5.2,2.1-7.4,7.1-7.4   c4.6,0,7,2.1,7,6.2V150.9z"/>
	<path class="st3" d="M958.3,143.7h-10.5v1.1h9.6c2.4,0,3.9,1.5,3.9,3.9v3.4H951c-3.3,0-4.8,1.7-4.8,5.7c0,4.1,1.4,5.7,4.8,5.7h9.5   c1.9,0,2.5-0.6,2.5-2.4v-12.3C963,146.4,962.2,143.7,958.3,143.7 M961.3,160.5c0,1.1-0.8,1.9-2,1.9h-7.7c-3.5,0-3.5-3.5-3.5-4.6   c0-1.1,0-4.6,3.5-4.6h9.7V160.5z"/>
	<path class="st3" d="M967.1,150.6v12.9h1.8v-12c0-2.9,0.6-6.6,5.9-6.6h0.9v-1.1h-1.5C969.3,143.7,967.1,145.8,967.1,150.6"/>
	<path class="st3" d="M987.5,153.7l-4.2-1.1c-2.1-0.5-4.6-1.2-4.6-4.3c0-2.3,1.1-3.4,3.6-3.4h10.4v-1.1h-10.8c-3.4,0-5,1.4-5,4.5   c0,3.1,1.3,4.4,5.3,5.4l4.2,1c3.2,0.8,5.6,1.4,5.6,4.2c0,2.3-1.2,3.5-3.4,3.5h-11.3v1.1h12.2c3.2,0,4.5-1.3,4.5-4.6   C993.9,155.4,991.9,154.8,987.5,153.7"/>
</g>
<g>
	<defs>
		<path id="SVGID_8_" d="M1023.6,59.5c-5.9,0-10.6,4.8-10.6,10.6l0.1,29.3v21.1l77,0c7,0,12.7,4.4,12.7,11.3c0,7-5.7,11.5-12.7,11.5    h-82.9v5.4c0,7.9,6.4,14.3,14.3,14.3h76.8c14,0,25.5-11.4,25.5-25.5v-11.2c0-7.8-3.5-15.1-9.7-20c-4.5-3.6-10-5.5-15.8-5.5    c-5.3,0-60.2,0-60.7,0h-1.5v-1.5l-0.1-18.7v-1.5h1.5h54.3v-5.4c0-7.9-6.4-14.3-14.3-14.3H1023.6z M949.5,16.9    c-7.9,0-14.3,6.4-14.3,14.3v5.4h39.5c7,0,12.7,4,12.7,11c0,7-5.7,12-12.7,12c-0.4,0-31.8,0-39.3,0c-9.6,0-18.9,4.1-25.5,11.2    c-5.9,6.4-9.1,14.7-9.1,23.4l0.1,17.7c0,4.9,4,8.8,8.8,8.8h94.3v-19.3h-68.4H925h-1.5v-1.5l-0.1-8.8c0-5.5,3.7-10.3,9.1-11.7    l0.2-0.1h0.2h51.6c1.4,0,2.7-0.1,4.1-0.3c6-1,11.5-4.1,15.5-8.9c3.8-4.6,5.9-10.3,5.9-16.3V42.3c0-14-11.4-25.5-25.5-25.5H949.5z     M1111.7,16.9h-11.2c-0.9,0-1.7,0.5-2,1.2c-0.3,0.7-0.2,1.6,0.5,2.2l20.9,18.7c0.4,0.4,1,0.6,1.6,0.6c0.3,0,0.6-0.1,0.8-0.2    c0.8-0.3,1.4-1,1.4-1.8V27.5C1123.4,21.6,1118.3,17,1111.7,16.9L1111.7,16.9z"/>
	</defs>
	<clipPath id="SVGID_9_">
		<use xlink:href="#SVGID_8_" style="overflow:visible;"/>
	</clipPath>
	
		<linearGradient id="SVGID_10_" gradientUnits="userSpaceOnUse" x1="-1.643409e-06" y1="517" x2="1" y2="517" gradientTransform="matrix(222.8361 0 0 222.8361 900.8354 -115116.2813)">
		<stop offset="0" style="stop-color:#B2B11C"/>
		<stop offset="1" style="stop-color:#9AAE22"/>
	</linearGradient>
	<rect x="900.8" y="16.9" class="st4" width="222.8" height="146.3"/>
</g>
</svg>