<?xml version="1.0" encoding="UTF-8" standalone="no"?>
<!-- Created with Inkscape (http://www.inkscape.org/) -->

<svg
   version="1.1"
   id="svg2"
   xml:space="preserve"
   width="665.33331"
   height="304"
   viewBox="0 0 665.33331 304"
   sodipodi:docname="VLMoldes.eps"
   xmlns:inkscape="http://www.inkscape.org/namespaces/inkscape"
   xmlns:sodipodi="http://sodipodi.sourceforge.net/DTD/sodipodi-0.dtd"
   xmlns="http://www.w3.org/2000/svg"
   xmlns:svg="http://www.w3.org/2000/svg"><defs
     id="defs6" /><sodipodi:namedview
     id="namedview4"
     pagecolor="#ffffff"
     bordercolor="#666666"
     borderopacity="1.0"
     inkscape:pageshadow="2"
     inkscape:pageopacity="0.0"
     inkscape:pagecheckerboard="0" /><g
     id="g8"
     inkscape:groupmode="layer"
     inkscape:label="ink_ext_XXXXXX"
     transform="matrix(1.3333333,0,0,-1.3333333,0,304)"><g
       id="g10"
       transform="scale(0.1)"><path
         d="m 1087.4,1366.48 h -80.09 v -327.97 c -0.02,-7.29 0.09,-25.02 0.09,-25.02 h -8.728 c -12.246,0.66 -20.391,4.18 -25.813,8.9 l -337.754,344.65 -6.367,0.06 c -11.492,-0.28 -19.988,-7.92 -20.269,-18.26 v -7.71 h -0.012 v -95.46 h 0.02 c 0,-0.06 -0.008,-0.13 -0.02,-0.2 v -0.1 c 0.02,-5.05 2.273,-9.61 5.93,-12.96 v -0.04 L 884.59,958.809 C 914.695,928.602 957.09,914 998.879,915.77 v -0.469 c 1.471,0.211 2.931,0.551 4.411,0.801 22.89,3.878 43.83,12.726 61.5,25.32 33.67,23.957 55.39,61.248 55.42,102.718 v 292.82 c -0.46,16.71 -14.22,29.09 -32.81,29.52"
         style="fill:#a9bc0d;fill-opacity:1;fill-rule:nonzero;stroke:none"
         id="path12" /><path
         d="m 1619.03,1011.79 h -323.92 c -15.75,0.03 -29.77,12.35 -29.82,27.48 v 327.95 h -80.08 c -18.59,-0.42 -32.34,-12.81 -32.8,-29.51 v -292.82 c 0.06,-71.21 63.83,-129.55 142.7,-129.679 l 356.68,-0.012 v 67.09 c -0.46,16.66 -14.19,29.091 -32.76,29.501"
         style="fill:#a9bc0d;fill-opacity:1;fill-rule:nonzero;stroke:none"
         id="path14" /><path
         d="m 4361.95,1107.67 -297.55,88.7 c -2.43,0.29 -5.69,4.15 -5.56,7.04 v 71.42 c 0.04,33.78 30.38,61.09 67.94,61.14 h 231.43 c 4.79,0 8.79,3.58 8.79,7.91 v 20.41 h -240.22 c -58.37,-0.08 -105.25,-42.27 -105.37,-94.81 v -73.24 c 0.08,-10.18 8.27,-20.63 18.93,-23.9 l 297.54,-88.69 c 3.35,-0.98 6.31,-4.22 6.27,-7.05 v -71.99 c -0.09,-33.79 -30.43,-61.059 -67.95,-61.11 h -251.92 c -4.88,-0.02 -8.79,-3.609 -8.79,-7.98 v -20.379 h 260.71 c 57.73,0 105.29,42.25 105.34,94.799 v 73.83 c -0.08,10.26 -8.97,20.66 -19.59,23.9 z m -727.36,162.4 -0.05,-260.13 c 0.14,-52.53 46.97,-94.721 105.34,-94.799 h 223.03 v 19.8 c 0,4.86 -4.05,8.539 -9.45,8.539 l -213.58,0.02 c -37.52,0.051 -67.86,27.32 -67.9,61.11 v 120.67 l 263.64,-0.02 c 4.83,0.02 8.78,3.7 8.78,8.48 v 21.02 h -255.41 c -6.7,0 -12.88,-2.33 -17.01,-5.87 v 125.94 c 0.04,33.78 30.38,61.09 67.9,61.14 h 213.58 c 5.4,0 9.45,3.67 9.45,8.5 v 20.41 h -223.03 c -58.37,0 -105.29,-42.86 -105.29,-94.81 z M 3446.9,943.5 h -208.96 c -3.88,0.051 -6.36,2.25 -6.43,5.75 v 381.53 c 0,2.77 2.53,5.17 6.43,5.19 h 208.96 c 36.83,-0.05 67.82,-27.38 67.9,-61.14 l 0.05,-270.22 c -0.13,-33.77 -31.12,-61.059 -67.95,-61.11 z m 0,421.38 h -230.82 c -12.05,0 -21.98,-8.93 -21.98,-19.81 v 0 -410.129 c 0,-10.851 9.93,-19.8 21.98,-19.8 h 230.82 c 57.68,0 105.3,42.25 105.34,94.799 v 260.13 c -0.04,51.95 -47.62,94.81 -105.34,94.81 z m -319.43,-421.4 -205.66,0.02 c -37.48,0.051 -68.51,27.922 -68.6,62.26 l 0.04,359.12 h -28.64 c -4.82,0 -8.77,-3.55 -8.77,-7.92 v -345.83 c 0,-53.091 47.6,-95.989 105.97,-95.989 h 214.45 v 20.379 c -0.04,4.371 -3.97,7.96 -8.79,7.96 z m -432.07,58.74 c -0.06,-33.771 -30.35,-61.091 -67.89,-61.13 h -158.67 c -37.55,0.039 -67.86,27.359 -67.95,61.13 v 274.99 c 0.09,33.79 30.4,61.09 67.95,61.14 h 158.67 c 37.54,-0.05 67.83,-27.35 67.89,-61.14 z m -67.89,365.04 h -158.67 c -58.42,0 -105.34,-42.87 -105.34,-94.81 v -265.5 c 0,-51.891 46.92,-94.77 105.34,-94.77 h 158.67 c 57.7,0 105.31,42.859 105.31,94.77 v 265.5 c 0,51.94 -47.61,94.81 -105.31,94.81 z m -398.15,-6.69 -187.78,-298.42 -188.46,298.48 c -1.35,1.9 -4.18,3.4 -6.63,3.65 h -43.82 V 915.141 h 28.62 c 4.85,0.039 8.77,3.57 8.77,7.918 v 394.751 l 174.4,-280.54 c 2.48,-3.58 7.97,-5.98 12.56,-6.05 h 28.47 c 4.59,0.06 9.46,2.56 11.83,6 23.75,37.28 154.24,247.1 175.09,280.63 V 923.059 c 0,-4.348 3.96,-7.879 8.79,-7.918 h 28.62 v 449.139 h -43.8 c -2.45,-0.25 -5.28,-1.75 -6.66,-3.71"
         style="fill:#4f4c4c;fill-opacity:1;fill-rule:nonzero;stroke:none"
         id="path16" /><path
         d="m 1593.26,1367.82 h -55.23 c -4.4,0 -8.36,-2.37 -10.01,-6 -1.7,-3.67 -0.74,-7.86 2.35,-10.65 l 102.59,-92.15 c 2.05,-1.85 4.81,-2.84 7.62,-2.84 1.39,0 2.83,0.25 4.16,0.74 4.06,1.53 6.68,5.06 6.68,9.01 v 49.54 c -0.53,29.23 -25.69,51.87 -57.89,52.35"
         style="fill:#a9bc0d;fill-opacity:1;fill-rule:nonzero;stroke:none"
         id="path18" /></g></g></svg>
