<svg xmlns="http://www.w3.org/2000/svg" xml:space="preserve" style="fill-rule:evenodd;clip-rule:evenodd;stroke-linejoin:round;stroke-miterlimit:2" viewBox="0 0 1839 383"><path d="M805.892 893.265q0 25.782-6.591 48.78t-18.604 42.627q-12.012 19.631-28.418 35.158c-10.937 10.35-22.9 19.19-35.888 26.51-12.989 7.33-26.807 12.94-41.456 16.85a173.5 173.5 0 0 1-44.824 5.86H492.709c-15.43 0-30.469-1.96-45.117-5.86-14.649-3.91-28.467-9.52-41.455-16.85-12.989-7.32-24.952-16.16-35.889-26.51q-16.406-15.527-28.272-35.158-11.865-19.629-18.457-42.627-6.591-22.998-6.591-48.78v-68.554q0-38.671 14.502-70.899 14.502-32.226 38.818-55.517t56.103-36.328q31.788-13.038 66.358-13.037h137.402q22.852 0 44.824 5.859 21.973 5.859 41.456 16.846 19.482 10.986 35.888 26.513t28.418 35.157q12.012 19.628 18.604 42.626t6.591 48.78zm-76.757-68.554q0-22.559-8.203-41.016-8.204-18.457-21.827-31.64-13.623-13.185-31.494-20.215-17.871-7.032-37.5-6.739H492.709q-19.043-.293-37.061 6.592-18.017 6.885-31.933 19.922t-22.266 31.641-8.349 41.455v68.554q0 22.852 8.203 41.309t21.972 31.494 31.787 20.069q18.018 7.03 37.647 6.738h137.402q22.558 0 40.869-7.471 18.31-7.47 31.202-20.654 12.89-13.183 19.921-31.494 7.032-18.31 7.032-39.991zm-35.988-52.735q4.395 6.446 5.86 13.916 1.464 7.471 0 14.649-1.465 7.177-5.713 13.476t-10.987 10.694L481.968 956.254q-4.98 3.809-10.254 5.273a40.3 40.3 0 0 1-10.84 1.465q-9.375 0-17.871-4.395T429.233 946q-4.394-6.446-5.859-13.916t-.146-14.649q1.317-7.178 5.419-13.476t10.84-10.694l200.926-131.543q6.445-4.393 13.916-5.859 7.47-1.464 14.648 0 7.178 1.465 13.477 5.567t10.693 10.546" style="fill:#f50;fill-rule:nonzero" transform="matrix(.87943 0 -.28575 .87943 977.372 -564.088)"/><path d="M627.672 641.422c15.982 0 31.659 2.062 47.026 6.16 15.531 4.142 30.18 10.109 43.951 17.874q20.763 11.71 38.249 28.259c11.674 11.049 21.795 23.551 30.343 37.518 8.451 13.811 15.017 28.805 19.655 44.986 4.578 15.969 6.891 32.91 6.891 50.812v68.554q0 26.626-6.809 50.377-6.78 23.653-19.134 43.843c-8.224 13.435-17.954 25.475-29.187 36.105q-16.838 15.93-36.834 27.21c-13.387 7.55-27.631 13.33-42.729 17.36-15.209 4.05-30.726 6.07-46.543 6.07H495.148c-16.181 0-31.956-2.06-47.319-6.16-15.531-4.14-30.18-10.1-43.95-17.87q-20.765-11.715-38.25-28.26c-11.689-11.06-21.772-23.58-30.226-37.567-8.339-13.795-14.846-28.772-19.479-44.936-4.577-15.969-6.89-32.909-6.89-50.812v-68.554q0-39.916 14.967-73.177c9.923-22.053 23.209-41.044 39.849-56.982 16.657-15.955 35.877-28.394 57.653-37.325 21.957-9.005 44.887-13.485 68.766-13.485zm0 420.118c14.651 0 29.017-1.89 43.105-5.64 14.199-3.79 27.592-9.24 40.181-16.34 12.647-7.13 24.293-15.73 34.943-25.81 10.642-10.08 19.858-21.479 27.649-34.211q11.67-19.07 18.073-41.411 6.376-22.245 6.375-47.183v-68.554c0-16.473-2.081-32.052-6.293-46.747-4.151-14.483-9.987-27.907-17.551-40.268-7.469-12.205-16.293-23.14-26.493-32.794q-15.328-14.506-33.529-24.769c-12.205-6.883-25.193-12.146-38.959-15.817-13.93-3.715-28.135-5.559-42.622-5.559H495.148c-22.214 0-43.522 4.212-63.948 12.589-20.607 8.452-38.789 20.232-54.554 35.331-15.782 15.117-28.375 33.137-37.788 54.054q-14.036 31.19-14.036 68.62v68.554c0 16.473 2.081 32.053 6.293 46.747 4.156 14.501 9.954 27.942 17.435 40.318 7.366 12.186 16.131 23.1 26.317 32.74 10.218 9.68 21.394 17.93 33.528 24.77 12.206 6.89 25.193 12.15 38.959 15.82 13.935 3.72 28.238 5.56 42.915 5.56zm109.357-234.509c0-16.213-3.037-30.962-8.932-44.227-6.069-13.655-14.197-25.336-24.275-35.089-10.197-9.868-21.971-17.456-35.347-22.719-12.997-5.113-26.639-7.615-40.914-7.402H490.269c-13.397-.207-26.56 2.105-39.346 6.991-12.625 4.824-23.818 11.797-33.569 20.932-9.72 9.106-17.504 20.15-23.336 33.144-5.872 13.084-8.813 27.659-8.813 43.73v68.554c0 16.415 3.04 31.262 8.932 44.52 6.088 13.698 14.299 25.36 24.518 35.035 10.276 9.729 22.125 17.244 35.571 22.491 13.091 5.108 26.773 7.609 41.034 7.389h137.291q23.883-.001 43.269-7.913 19.29-7.87 32.868-21.762c9.035-9.24 16.023-20.273 20.951-33.107q7.389-19.237 7.39-42.013zM627.672 985.367c14.155 0 26.979-2.339 38.469-7.026q17.332-7.07 29.534-19.547c8.152-8.337 14.446-18.3 18.893-29.88q6.674-17.385 6.673-37.969v-68.554c0-13.866-2.433-26.46-7.475-37.805-4.868-10.955-11.291-20.367-19.377-28.192-7.968-7.71-17.189-13.598-27.641-17.711-10.832-4.261-22.189-6.252-34.142-6.074l-137.574-.001c-11.877-.183-23.421 1.9-34.658 6.193-11.399 4.356-21.494 10.664-30.298 18.912-8.835 8.277-15.895 18.326-21.196 30.137-5.261 11.721-7.886 24.783-7.886 39.181v68.554c0 14.055 2.429 26.746 7.474 38.098 4.85 10.912 11.287 20.246 19.428 27.954 8.083 7.653 17.425 13.518 28.003 17.645 10.933 4.267 22.348 6.264 34.315 6.085zm-204.816-37.034c-3.596-5.32-6.033-11.054-7.24-17.209-1.139-5.81-1.212-11.51-.186-17.092.998-5.436 3.035-10.547 6.141-15.317 3.082-4.734 7.147-8.759 12.203-12.056 0 0 200.926-131.543 200.85-131.492 4.919-3.354 10.243-5.569 15.945-6.687 5.988-1.174 11.875-1.126 17.628.049 6.094 1.243 11.81 3.63 17.157 7.112 5.507 3.586 10.202 8.177 14.044 13.812 3.664 5.373 6.145 11.17 7.367 17.399 1.146 5.846 1.165 11.583.019 17.199-1.106 5.42-3.248 10.517-6.455 15.273-3.176 4.71-7.278 8.712-12.303 11.99L487.807 962.778c-3.839 2.909-7.813 4.896-11.876 6.024-4.091 1.137-8.299 1.698-12.618 1.698-7.763 0-15.167-1.887-22.202-5.527-7.497-3.877-13.595-9.411-18.255-16.64m240.396-185.681a32 32 0 0 0-5.163.594c-4.259.836-8.212 2.527-11.925 5.058L445.193 899.877c-3.921 2.557-7.082 5.661-9.469 9.326-2.363 3.628-3.939 7.501-4.699 11.636-.732 3.988-.707 8.053.107 12.204.732 3.733 2.157 7.213 4.437 10.557l.08.125c2.366 3.68 5.435 6.525 9.246 8.497 4.293 2.22 8.803 3.262 13.54 3.262 3.103 0 6.121-.415 9.061-1.232 2.913-.809 5.72-2.297 8.47-4.4l.137-.105L676.602 818.1c3.946-2.574 7.169-5.7 9.657-9.39 2.456-3.642 4.124-7.529 4.971-11.68.806-3.953.826-7.982.019-12.097a27.8 27.8 0 0 0-4.353-10.433l-.383-.549c-1.94-2.713-4.248-4.968-6.959-6.733a28.1 28.1 0 0 0-9.797-4.02 28 28 0 0 0-5.775-.56z" style="fill:#f50" transform="matrix(.87943 0 -.28575 .87943 977.372 -564.088)"/><path d="M1211.23 962.113c0 19.727-3.56 36.377-10.69 49.947-7.13 13.58-16.02 24.61-26.66 33.11-10.65 8.5-22.22 14.6-34.72 18.31s-24.12 5.57-34.86 5.57H859.963v-76.175H1104.3c10.35 0 18.02-2.637 23-7.91q7.47-7.91 7.47-22.852v-64.746H859.963v-76.758h274.807v-64.16c0-20.898-10.16-31.348-30.47-31.348H859.963V648.93H1104.3c13.08 0 24.8 1.66 35.15 4.98 10.36 3.32 19.49 7.764 27.4 13.33s14.7 11.963 20.36 19.19q8.49 10.839 13.77 22.705c3.51 7.91 6.1 15.918 7.76 24.023q2.49 12.158 2.49 22.705z" style="fill:#f50;fill-rule:nonzero" transform="matrix(.87943 0 -.28575 .87943 977.372 -564.088)"/><path d="M1101.86 641.422c14.08 0 26.69 1.848 37.83 5.42 11.5 3.688 21.63 8.669 30.42 14.852 8.9 6.265 16.53 13.471 22.91 21.604q9.33 11.91 15.12 24.946c3.78 8.498 6.56 17.101 8.35 25.809q2.64 12.922 2.64 24.13v206.25c0 20.739-3.8 38.227-11.29 52.497-7.45 14.18-16.76 25.7-27.88 34.58-11.18 8.92-23.35 15.32-36.48 19.22-13.17 3.91-25.43 5.82-36.74 5.82H852.069v-91.183h249.791c8.45 0 14.81-1.995 18.88-6.3 4.18-4.431 6.13-10.905 6.13-19.274v-54.918H852.069v-91.774l275.291.008c-.01-1.163-.49-60.582-.54-61.745-.21-5.398-1.14-13.648-8.37-16.931-1.21-.554-2.47-.915-3.7-1.169-2.3-.477-4.54-.583-6.75-.644l-1.26-.011H852.069v-91.187zm4.88 15.015H867.857v61.157h234.003l1.25.012c4.07.125 8.22.554 12.47 1.723 2.84.78 5.69 1.877 8.42 3.372a34.7 34.7 0 0 1 5.44 3.683c10.72 8.86 13.22 22.038 13.22 32.385v69.348H867.857v61.742h274.803v74.574c-.1 12.276-3.66 23.667-13.11 30.097-2.32 1.572-4.92 2.811-7.72 3.724-4.64 1.512-9.77 2.086-15.09 2.126H867.857v61.16h234.003c10.17 0 21.15-1.79 32.99-5.31 11.86-3.52 22.84-9.33 32.95-17.4 10.16-8.11 18.63-18.67 25.44-31.63 6.76-12.876 10.1-28.693 10.1-47.407v-206.25c0-6.589-.79-13.684-2.34-21.28-1.54-7.503-3.93-14.915-7.19-22.237-3.17-7.13-7.3-13.952-12.41-20.465-4.95-6.32-10.89-11.907-17.81-16.775-7.03-4.949-15.17-8.855-24.37-11.808-9.57-3.069-20.39-4.541-32.48-4.541" style="fill:#f50" transform="matrix(.87943 0 -.28575 .87943 977.372 -564.088)"/><path d="M1791.65 1056.05c0 15.04-1.9 28.56-5.71 40.57-3.81 12.02-8.84 22.61-15.09 31.79s-13.57 16.99-21.97 23.44c-8.4 6.44-17.09 11.72-26.07 15.82-8.99 4.1-18.12 7.13-27.4 9.08-9.27 1.95-18.01 2.93-26.22 2.93h-293.84v-76.17h293.84c14.65 0 26.03-4.3 34.13-12.89 8.11-8.6 12.16-20.12 12.16-34.57 0-7.03-1.07-13.48-3.22-19.34s-5.22-10.94-9.23-15.23c-4-4.3-8.89-7.62-14.65-9.96-5.76-2.35-12.15-3.52-19.19-3.52H1494c-12.31 0-25.59-2.2-39.85-6.59-14.25-4.395-27.49-11.475-39.69-21.241-12.21-9.766-22.37-22.559-30.47-38.379-8.11-15.82-12.16-35.156-12.16-58.008 0-22.851 4.05-42.138 12.16-57.861 8.1-15.723 18.26-28.516 30.47-38.379 12.2-9.863 25.44-16.992 39.69-21.387 14.26-4.394 27.54-6.592 39.85-6.592h259.28v76.172H1494q-21.675 0-33.84 13.184c-8.1 8.789-12.16 20.41-12.16 34.863 0 14.649 4.06 26.221 12.16 34.717q12.165 12.744 33.84 12.744h175.78q12.3.293 26.07 3.369c9.18 2.051 18.31 5.225 27.4 9.522q13.62 6.446 25.92 16.26c8.21 6.542 15.48 14.404 21.83 23.583 6.35 9.18 11.38 19.723 15.09 31.643 3.71 11.91 5.56 25.39 5.56 40.43" style="fill:#fff;fill-rule:nonzero" transform="matrix(.87943 0 -.28575 .87943 -332.253 -661.383)"/><path d="M1761.16 752.063v91.172h-264.73c-12.67 0-22.57 3.83-29.68 11.535-7.27 7.891-10.86 18.353-10.86 31.33 0 11.981 2.69 21.456 9.32 28.405 6.3 6.602 15.12 9.238 26.35 9.238h175.2s.58 0 .76.002c8.72.208 17.96 1.396 27.72 3.576 9.9 2.211 19.75 5.633 29.54 10.266q14.835 7.017 28.23 17.702c9.09 7.247 17.16 15.94 24.19 26.107 6.89 9.96 12.39 21.394 16.42 34.324 3.91 12.56 5.92 26.79 5.92 42.65 0 15.68-2 29.78-5.97 42.31-3.96 12.49-9.2 23.5-15.7 33.05-6.54 9.6-14.2 17.77-22.99 24.51-8.71 6.68-17.72 12.14-27.04 16.4-9.37 4.28-18.9 7.43-28.58 9.47-9.78 2.06-18.99 3.07-27.63 3.07h-304.17v-91.17h299.3c12.86 0 22.89-3.73 30.01-11.28 7.26-7.7 10.83-18.05 10.83-31 0-6.08-.87-11.64-2.73-16.7-1.64-4.48-3.93-8.38-6.99-11.66-2.85-3.07-6.36-5.39-10.47-7.06-4.74-1.93-10-2.81-15.78-2.81h-175.2c-13.09 0-27.23-2.32-42.4-7-15.6-4.8-30.07-12.555-43.42-23.238-13.41-10.722-24.65-24.72-33.54-42.09-8.62-16.824-13.13-37.407-13.13-61.707 0-23.851 4.28-43.96 12.74-60.37 8.42-16.339 19-29.62 31.68-39.87 12.74-10.289 26.55-17.708 41.43-22.292 14.94-4.605 28.87-6.87 41.77-6.87zm-15.77 15h-248.96c-11.71 0-24.33 2.131-37.91 6.314-13.64 4.205-26.29 11.044-37.97 20.482-11.72 9.476-21.46 21.782-29.25 36.887-7.75 15.036-11.58 33.501-11.58 55.354 0 21.403 3.6 39.491 11.19 54.308 7.31 14.271 16.39 25.859 27.4 34.668 11.06 8.848 23.05 15.256 35.97 19.238 13.34 4.111 25.77 6.186 37.28 6.186h175.2c8.28 0 15.82 1.47 22.6 4.23 7.41 3.01 13.67 7.33 18.82 12.86 4.95 5.31 8.82 11.57 11.47 18.81 2.44 6.65 3.72 13.98 3.72 21.97 0 15.96-4.54 28.65-13.49 38.14-9.09 9.64-21.82 14.5-38.25 14.5h-288.4v61.17h283.53c7.76 0 16.03-.94 24.81-2.79 8.88-1.87 17.61-4.77 26.2-8.69 8.65-3.95 17.02-9.04 25.11-15.24 8.01-6.15 15-13.61 20.96-22.37 6-8.81 10.82-18.99 14.47-30.52 3.65-11.49 5.46-24.45 5.46-38.84 0-14.22-1.71-26.95-5.21-38.21-3.4-10.9-7.95-20.562-13.76-28.961-5.67-8.193-12.14-15.222-19.46-21.061-7.48-5.962-15.35-10.903-23.63-14.818-8.37-3.96-16.78-6.886-25.24-8.776-8.6-1.922-16.75-2.98-24.25-3.161h-175.79c-17.68 0-31.4-5.855-41.32-16.25-9.58-10.046-14.99-23.708-14.99-41.028 0-15.93 4.51-28.71 13.45-38.397 9.1-9.873 21.76-14.833 37.99-14.833h253.83z" style="fill:#fff" transform="matrix(.87943 0 -.28575 .87943 -332.253 -661.383)"/><path d="M1310.44 1008h-233.35v-76.757h233.35zm33.98-172.265h-305.27v343.945h-76.175V797.942q0-7.91 2.929-14.941 2.93-7.032 8.057-12.305t12.158-8.203q7.033-2.93 15.231-2.93h343.07z" style="fill:#fff;fill-rule:nonzero" transform="matrix(.87943 0 -.28575 .87943 -352.633 -661.383)"/><path d="M1352.31 843.235h-305.28v343.945h-91.941V795.625c0-6.031 1.106-11.731 3.34-17.092q3.281-7.872 9.023-13.777 5.818-5.981 13.796-9.304c5.435-2.264 11.327-3.389 17.669-3.389h353.393zm-348.52-76.172c-19.453.221-32.715 14.981-32.929 33.197v371.92h60.399V828.235h305.27v-61.172zm314.53 248.437v-91.757h-249.11v91.757zm-233.34-76.757v61.757h217.57v-61.757z" style="fill:#fff" transform="matrix(.87943 0 -.28575 .87943 -352.633 -661.383)"/><path d="M815.74 759.563h76.172v420.117H815.74z" style="fill:#fff;fill-rule:nonzero" transform="matrix(.87943 0 -.28575 .87943 -371.223 -661.383)"/><path d="M899.798 1187.18h-91.944V752.063h91.944zm-76.172-420.117v405.117h60.4V767.063z" style="fill:#fff" transform="matrix(.87943 0 -.28575 .87943 -371.223 -661.383)"/></svg>
