<?xml version="1.0" encoding="UTF-8" standalone="no"?>
<!DOCTYPE svg PUBLIC "-//W3C//DTD SVG 1.1//EN" "http://www.w3.org/Graphics/SVG/1.1/DTD/svg11.dtd">
<svg width="100%" height="100%" viewBox="0 0 1839 383" version="1.1" xmlns="http://www.w3.org/2000/svg" xmlns:xlink="http://www.w3.org/1999/xlink" xml:space="preserve" xmlns:serif="http://www.serif.com/" style="fill-rule:evenodd;clip-rule:evenodd;stroke-linejoin:round;stroke-miterlimit:2;">
    <g transform="matrix(1,0,0,1,-103.693,-832.665)">
        <g transform="matrix(0.585002,0,0,0.632358,854.146,407.087)">
            <g transform="matrix(1.5033,0,-0.488452,1.39072,387.894,-219.038)">
                <path d="M805.892,893.265C805.892,910.453 803.695,926.713 799.301,942.045C794.906,957.377 788.705,971.586 780.697,984.672C772.689,997.758 763.217,1009.48 752.279,1019.83C741.342,1030.18 729.379,1039.02 716.391,1046.34C703.402,1053.67 689.584,1059.28 674.935,1063.19C660.287,1067.09 645.346,1069.05 630.111,1069.05L492.709,1069.05C477.279,1069.05 462.24,1067.09 447.592,1063.19C432.943,1059.28 419.125,1053.67 406.137,1046.34C393.148,1039.02 381.185,1030.18 370.248,1019.83C359.31,1009.48 349.887,997.758 341.976,984.672C334.066,971.586 327.914,957.377 323.519,942.045C319.125,926.713 316.928,910.453 316.928,893.265L316.928,824.711C316.928,798.93 321.762,775.297 331.43,753.812C341.098,732.328 354.037,713.822 370.248,698.295C386.459,682.767 405.16,670.658 426.351,661.967C447.543,653.275 469.662,648.93 492.709,648.93L630.111,648.93C645.346,648.93 660.287,650.883 674.935,654.789C689.584,658.695 703.402,664.31 716.391,671.635C729.379,678.959 741.342,687.797 752.279,698.148C763.217,708.5 772.689,720.219 780.697,733.305C788.705,746.39 794.906,760.599 799.301,775.931C803.695,791.263 805.892,807.523 805.892,824.711L805.892,893.265ZM729.135,824.711C729.135,809.672 726.4,796 720.932,783.695C715.463,771.39 708.187,760.844 699.105,752.055C690.023,743.265 679.525,736.527 667.611,731.84C655.697,727.152 643.197,724.906 630.111,725.101L492.709,725.101C480.014,724.906 467.66,727.103 455.648,731.693C443.637,736.283 432.992,742.924 423.715,751.615C414.437,760.306 407.016,770.853 401.449,783.256C395.883,795.658 393.1,809.476 393.1,824.711L393.1,893.265C393.1,908.5 395.834,922.269 401.303,934.574C406.771,946.879 414.096,957.377 423.275,966.068C432.455,974.76 443.051,981.449 455.062,986.137C467.074,990.824 479.623,993.07 492.709,992.875L630.111,992.875C645.15,992.875 658.773,990.385 670.98,985.404C683.187,980.424 693.588,973.539 702.182,964.75C710.775,955.961 717.416,945.463 722.103,933.256C726.791,921.049 729.135,907.719 729.135,893.265L729.135,824.711ZM693.147,771.976C696.077,776.273 698.03,780.912 699.007,785.892C699.983,790.873 699.983,795.756 699.007,800.541C698.03,805.326 696.126,809.818 693.294,814.017C690.462,818.217 686.8,821.781 682.307,824.711L481.968,956.254C478.647,958.793 475.23,960.551 471.714,961.527C468.198,962.504 464.585,962.992 460.874,962.992C454.624,962.992 448.667,961.527 443.003,958.597C437.339,955.668 432.749,951.469 429.233,946C426.304,941.703 424.351,937.064 423.374,932.084C422.397,927.103 422.349,922.221 423.228,917.435C424.106,912.65 425.913,908.158 428.647,903.959C431.382,899.76 434.995,896.195 439.487,893.265L640.413,761.722C644.71,758.793 649.348,756.84 654.329,755.863C659.309,754.887 664.192,754.887 668.977,755.863C673.762,756.84 678.255,758.695 682.454,761.43C686.653,764.164 690.218,767.68 693.147,771.976Z" style="fill:rgb(255,85,0);fill-rule:nonzero;"/>
            </g>
        </g>
        <g transform="matrix(0.585002,0,0,0.632358,854.146,407.087)">
            <g transform="matrix(1.5033,0,-0.488452,1.39072,387.894,-219.038)">
                <path d="M627.672,641.422C643.654,641.422 659.331,643.484 674.698,647.582C690.229,651.724 704.878,657.691 718.649,665.456C732.491,673.262 745.241,682.682 756.898,693.715C768.572,704.764 778.693,717.266 787.241,731.233C795.692,745.044 802.258,760.038 806.896,776.219C811.474,792.188 813.787,809.129 813.787,827.031L813.787,895.585C813.787,913.336 811.517,930.128 806.978,945.962C802.458,961.731 796.08,976.345 787.844,989.805C779.62,1003.24 769.89,1015.28 758.657,1025.91C747.432,1036.53 735.153,1045.6 721.823,1053.12C708.436,1060.67 694.192,1066.45 679.094,1070.48C663.885,1074.53 648.368,1076.55 632.551,1076.55C632.551,1076.55 495.148,1076.55 495.148,1076.55C478.967,1076.55 463.192,1074.49 447.829,1070.39C432.298,1066.25 417.649,1060.29 403.879,1052.52C390.036,1044.71 377.286,1035.29 365.629,1024.26C353.94,1013.2 343.857,1000.68 335.403,986.693C327.064,972.898 320.557,957.921 315.924,941.757C311.347,925.788 309.034,908.848 309.034,890.945L309.034,822.391C309.034,795.781 314.022,771.388 324.001,749.214C333.924,727.161 347.21,708.17 363.85,692.232C380.507,676.277 399.727,663.838 421.503,654.907C443.46,645.902 466.39,641.422 490.269,641.422L627.672,641.422ZM627.672,1061.54C642.323,1061.54 656.689,1059.65 670.777,1055.9C684.976,1052.11 698.369,1046.66 710.958,1039.56C723.605,1032.43 735.251,1023.83 745.901,1013.75C756.543,1003.67 765.759,992.271 773.55,979.539C781.33,966.826 787.354,953.022 791.623,938.128C795.874,923.298 797.998,907.57 797.998,890.945C797.998,890.945 797.998,822.391 797.998,822.391C797.998,805.918 795.917,790.339 791.705,775.644C787.554,761.161 781.718,747.737 774.154,735.376C766.685,723.171 757.861,712.236 747.661,702.582C737.443,692.911 726.266,684.655 714.132,677.813C701.927,670.93 688.939,665.667 675.173,661.996C661.243,658.281 647.038,656.437 632.551,656.437L495.148,656.437C472.934,656.437 451.626,660.649 431.2,669.026C410.593,677.478 392.411,689.258 376.646,704.357C360.864,719.474 348.271,737.494 338.858,758.411C329.501,779.205 324.822,802.078 324.822,827.031C324.822,827.031 324.822,895.585 324.822,895.585C324.822,912.058 326.903,927.638 331.115,942.332C335.271,956.833 341.069,970.274 348.55,982.65C355.916,994.836 364.681,1005.75 374.867,1015.39C385.085,1025.07 396.261,1033.32 408.395,1040.16C420.601,1047.05 433.588,1052.31 447.354,1055.98C461.289,1059.7 475.592,1061.54 490.269,1061.54L627.672,1061.54ZM737.029,827.031C737.029,810.818 733.992,796.069 728.097,782.804C722.028,769.149 713.9,757.468 703.822,747.715C693.625,737.847 681.851,730.259 668.475,724.996C655.478,719.883 641.836,717.381 627.561,717.594C627.672,717.594 490.269,717.594 490.269,717.594C476.872,717.387 463.709,719.699 450.923,724.585C438.298,729.409 427.105,736.382 417.354,745.517C407.634,754.623 399.85,765.667 394.018,778.661C388.146,791.745 385.205,806.32 385.205,822.391C385.205,822.391 385.205,890.945 385.205,890.945C385.205,907.36 388.245,922.207 394.137,935.465C400.225,949.163 408.436,960.825 418.655,970.5C428.931,980.229 440.78,987.744 454.226,992.991C467.317,998.099 480.999,1000.6 495.26,1000.38C495.148,1000.38 632.551,1000.38 632.551,1000.38C648.474,1000.38 662.895,997.741 675.82,992.467C688.68,987.221 699.635,979.965 708.688,970.705C717.723,961.465 724.711,950.432 729.639,937.598C734.564,924.773 737.029,910.77 737.029,895.585L737.029,827.031ZM627.672,985.367C641.827,985.367 654.651,983.028 666.141,978.341C677.695,973.627 687.541,967.113 695.675,958.794C703.827,950.457 710.121,940.494 714.568,928.914C719.018,917.324 721.241,904.667 721.241,890.945L721.241,822.391C721.241,808.525 718.808,795.931 713.766,784.586C708.898,773.631 702.475,764.219 694.389,756.394C686.421,748.684 677.2,742.796 666.748,738.683C655.916,734.422 644.559,732.431 632.606,732.609C632.606,732.609 495.148,732.609 495.032,732.608C483.155,732.425 471.611,734.508 460.374,738.801C448.975,743.157 438.88,749.465 430.076,757.713C421.241,765.99 414.181,776.039 408.88,787.85C403.619,799.571 400.994,812.633 400.994,827.031L400.994,895.585C400.994,909.64 403.423,922.331 408.468,933.683C413.318,944.595 419.755,953.929 427.896,961.637C435.979,969.29 445.321,975.155 455.899,979.282C466.832,983.549 478.247,985.546 490.214,985.367L627.672,985.367ZM422.856,948.333C419.26,943.013 416.823,937.279 415.616,931.124C414.477,925.314 414.404,919.614 415.43,914.032C416.428,908.596 418.465,903.485 421.571,898.715C424.653,893.981 428.718,889.956 433.774,886.659C433.774,886.659 634.7,755.116 634.624,755.167C639.543,751.813 644.867,749.598 650.569,748.48C656.557,747.306 662.444,747.354 668.197,748.529C674.291,749.772 680.007,752.159 685.354,755.641C690.861,759.227 695.556,763.818 699.398,769.453C703.062,774.826 705.543,780.623 706.765,786.852C707.911,792.698 707.93,798.435 706.784,804.051C705.678,809.471 703.536,814.568 700.329,819.324C697.153,824.034 693.051,828.036 688.026,831.314L487.807,962.778C483.968,965.687 479.994,967.674 475.931,968.802C471.84,969.939 467.632,970.5 463.313,970.5C455.55,970.5 448.146,968.613 441.111,964.973C433.614,961.096 427.516,955.562 422.856,948.333ZM663.252,762.652C661.547,762.705 659.827,762.906 658.089,763.246C653.83,764.082 649.877,765.773 646.164,768.304C646.164,768.304 445.2,899.872 445.193,899.877C441.272,902.434 438.111,905.538 435.724,909.203C433.361,912.831 431.785,916.704 431.025,920.839C430.293,924.827 430.318,928.892 431.132,933.043C431.864,936.776 433.289,940.256 435.569,943.6L435.649,943.725C438.015,947.405 441.084,950.25 444.895,952.222C449.188,954.442 453.698,955.484 458.435,955.484C461.538,955.484 464.556,955.069 467.496,954.252C470.409,953.443 473.216,951.955 475.966,949.852L476.103,949.747C476.103,949.747 676.589,818.108 676.602,818.1C680.548,815.526 683.771,812.4 686.259,808.71C688.715,805.068 690.383,801.181 691.23,797.03C692.036,793.077 692.056,789.048 691.249,784.933C690.517,781.2 689.092,777.72 686.896,774.5L686.513,773.951C684.573,771.238 682.265,768.983 679.554,767.218C676.502,765.231 673.235,763.907 669.757,763.198C667.849,762.808 665.925,762.626 663.982,762.638L663.252,762.652Z" style="fill:rgb(255,85,0);"/>
            </g>
        </g>
        <g transform="matrix(0.585002,0,0,0.632358,854.146,407.087)">
            <g transform="matrix(1.5033,0,-0.488452,1.39072,387.894,-219.038)">
                <path d="M1211.23,962.113C1211.23,981.84 1207.67,998.49 1200.54,1012.06C1193.41,1025.64 1184.52,1036.67 1173.88,1045.17C1163.23,1053.67 1151.66,1059.77 1139.16,1063.48C1126.66,1067.19 1115.04,1069.05 1104.3,1069.05L859.963,1069.05L859.963,992.875L1104.3,992.875C1114.65,992.875 1122.32,990.238 1127.3,984.965C1132.28,979.691 1134.77,972.074 1134.77,962.113L1134.77,897.367L859.963,897.367L859.963,820.609L1134.77,820.609L1134.77,756.449C1134.77,735.551 1124.61,725.101 1104.3,725.101L859.963,725.101L859.963,648.93L1104.3,648.93C1117.38,648.93 1129.1,650.59 1139.45,653.91C1149.81,657.23 1158.94,661.674 1166.85,667.24C1174.76,672.806 1181.55,679.203 1187.21,686.43C1192.87,693.656 1197.46,701.224 1200.98,709.135C1204.49,717.045 1207.08,725.053 1208.74,733.158C1210.4,741.263 1211.23,748.832 1211.23,755.863L1211.23,962.113Z" style="fill:rgb(255,85,0);fill-rule:nonzero;"/>
            </g>
        </g>
        <g transform="matrix(0.585002,0,0,0.632358,854.146,407.087)">
            <g transform="matrix(1.5033,0,-0.488452,1.39072,387.894,-219.038)">
                <path d="M1101.86,641.422C1115.94,641.422 1128.55,643.27 1139.69,646.842C1151.19,650.53 1161.32,655.511 1170.11,661.694C1179.01,667.959 1186.64,675.165 1193.02,683.298C1199.24,691.238 1204.28,699.553 1208.14,708.244C1211.92,716.742 1214.7,725.345 1216.49,734.053C1218.25,742.668 1219.13,750.71 1219.13,758.183L1219.13,964.433C1219.13,985.172 1215.33,1002.66 1207.84,1016.93C1200.39,1031.11 1191.08,1042.63 1179.96,1051.51C1168.78,1060.43 1156.61,1066.83 1143.48,1070.73C1130.31,1074.64 1118.05,1076.55 1106.74,1076.55L852.069,1076.55L852.069,985.367C852.069,985.367 1101.86,985.367 1101.86,985.367C1110.31,985.367 1116.67,983.372 1120.74,979.067C1124.92,974.636 1126.87,968.162 1126.87,959.793L1126.87,904.875L852.069,904.875C852.069,874.284 852.069,843.693 852.069,813.101L1127.36,813.109C1127.35,811.946 1126.87,752.527 1126.82,751.364C1126.61,745.966 1125.68,737.716 1118.45,734.433C1117.24,733.879 1115.98,733.518 1114.75,733.264C1112.45,732.787 1110.21,732.681 1108,732.62L1106.74,732.609L852.069,732.609L852.069,641.422L1101.86,641.422ZM1106.74,656.437L867.857,656.437L867.857,717.594L1101.86,717.594L1103.11,717.606C1107.18,717.731 1111.33,718.16 1115.58,719.329C1118.42,720.109 1121.27,721.206 1124,722.701C1125.9,723.742 1127.74,724.976 1129.44,726.384C1140.16,735.244 1142.66,748.422 1142.66,758.769C1142.66,781.886 1142.66,805.001 1142.66,828.117L867.857,828.117L867.857,889.859L1142.66,889.859L1142.66,964.433C1142.56,976.709 1139,988.1 1129.55,994.53C1127.23,996.102 1124.63,997.341 1121.83,998.254C1117.19,999.766 1112.06,1000.34 1106.74,1000.38L867.857,1000.38L867.857,1061.54L1101.86,1061.54C1112.03,1061.54 1123.01,1059.75 1134.85,1056.23C1146.71,1052.71 1157.69,1046.9 1167.8,1038.83C1177.96,1030.72 1186.43,1020.16 1193.24,1007.2C1200,994.324 1203.34,978.507 1203.34,959.793C1203.34,959.793 1203.34,753.543 1203.34,753.543C1203.34,746.954 1202.55,739.859 1201,732.263C1199.46,724.76 1197.07,717.348 1193.81,710.026C1190.64,702.896 1186.51,696.074 1181.4,689.561C1176.45,683.241 1170.51,677.654 1163.59,672.786C1156.56,667.837 1148.42,663.931 1139.22,660.978C1129.65,657.909 1118.83,656.437 1106.74,656.437Z" style="fill:rgb(255,85,0);"/>
            </g>
        </g>
        <g transform="matrix(1.1955,0,0,0.879434,-677.462,171.282)">
            <g transform="matrix(0.735621,0,-0.239018,1,375.493,0)">
                <path d="M1791.65,1056.05C1791.65,1071.09 1789.75,1084.61 1785.94,1096.62C1782.13,1108.64 1777.1,1119.23 1770.85,1128.41C1764.6,1137.59 1757.28,1145.4 1748.88,1151.85C1740.48,1158.29 1731.79,1163.57 1722.81,1167.67C1713.82,1171.77 1704.69,1174.8 1695.41,1176.75C1686.14,1178.7 1677.4,1179.68 1669.19,1179.68L1375.35,1179.68L1375.35,1103.51L1669.19,1103.51C1683.84,1103.51 1695.22,1099.21 1703.32,1090.62C1711.43,1082.02 1715.48,1070.5 1715.48,1056.05C1715.48,1049.02 1714.41,1042.57 1712.26,1036.71C1710.11,1030.85 1707.04,1025.77 1703.03,1021.48C1699.03,1017.18 1694.14,1013.86 1688.38,1011.52C1682.62,1009.17 1676.23,1008 1669.19,1008L1494,1008C1481.69,1008 1468.41,1005.8 1454.15,1001.41C1439.9,997.015 1426.66,989.935 1414.46,980.169C1402.25,970.403 1392.09,957.61 1383.99,941.79C1375.88,925.97 1371.83,906.634 1371.83,883.782C1371.83,860.931 1375.88,841.644 1383.99,825.921C1392.09,810.198 1402.25,797.405 1414.46,787.542C1426.66,777.679 1439.9,770.55 1454.15,766.155C1468.41,761.761 1481.69,759.563 1494,759.563L1753.28,759.563L1753.28,835.735L1494,835.735C1479.55,835.735 1468.27,840.13 1460.16,848.919C1452.06,857.708 1448,869.329 1448,883.782C1448,898.431 1452.06,910.003 1460.16,918.499C1468.27,926.995 1479.55,931.243 1494,931.243L1669.78,931.243C1677.98,931.438 1686.67,932.561 1695.85,934.612C1705.03,936.663 1714.16,939.837 1723.25,944.134C1732.33,948.431 1740.97,953.851 1749.17,960.394C1757.38,966.936 1764.65,974.798 1771,983.977C1777.35,993.157 1782.38,1003.7 1786.09,1015.62C1789.8,1027.53 1791.65,1041.01 1791.65,1056.05Z" style="fill:white;fill-rule:nonzero;"/>
            </g>
        </g>
        <g transform="matrix(1.1955,0,0,0.879434,-677.462,171.282)">
            <g transform="matrix(0.735621,0,-0.239018,1,375.493,0)">
                <path d="M1761.16,752.063L1761.16,843.235L1496.43,843.235C1483.76,843.235 1473.86,847.065 1466.75,854.77C1459.48,862.661 1455.89,873.123 1455.89,886.1C1455.89,898.081 1458.58,907.556 1465.21,914.505C1471.51,921.107 1480.33,923.743 1491.56,923.743C1491.56,923.743 1666.76,923.743 1666.76,923.743C1666.76,923.743 1667.34,923.743 1667.52,923.745C1676.24,923.953 1685.48,925.141 1695.24,927.321C1705.14,929.532 1714.99,932.954 1724.78,937.587C1734.67,942.266 1744.08,948.165 1753.01,955.289C1762.1,962.536 1770.17,971.229 1777.2,981.396C1784.09,991.356 1789.59,1002.79 1793.62,1015.72C1797.53,1028.28 1799.54,1042.51 1799.54,1058.37C1799.54,1074.05 1797.54,1088.15 1793.57,1100.68C1789.61,1113.17 1784.37,1124.18 1777.87,1133.73C1771.33,1143.33 1763.67,1151.5 1754.88,1158.24C1746.17,1164.92 1737.16,1170.38 1727.84,1174.64C1718.47,1178.92 1708.94,1182.07 1699.26,1184.11C1689.48,1186.17 1680.27,1187.18 1671.63,1187.18L1367.46,1187.18L1367.46,1096.01C1367.46,1096.01 1666.76,1096.01 1666.76,1096.01C1679.62,1096.01 1689.65,1092.28 1696.77,1084.73C1704.03,1077.03 1707.6,1066.68 1707.6,1053.73C1707.6,1047.65 1706.73,1042.09 1704.87,1037.03C1703.23,1032.55 1700.94,1028.65 1697.88,1025.37C1695.03,1022.3 1691.52,1019.98 1687.41,1018.31C1682.67,1016.38 1677.41,1015.5 1671.63,1015.5L1496.43,1015.5C1483.34,1015.5 1469.2,1013.18 1454.03,1008.5C1438.43,1003.7 1423.96,995.945 1410.61,985.262C1397.2,974.54 1385.96,960.542 1377.07,943.172C1368.45,926.348 1363.94,905.765 1363.94,881.465C1363.94,857.614 1368.22,837.505 1376.68,821.095C1385.1,804.756 1395.68,791.475 1408.36,781.225C1421.1,770.936 1434.91,763.517 1449.79,758.933C1464.73,754.328 1478.66,752.063 1491.56,752.063L1761.16,752.063ZM1745.39,767.063L1496.43,767.063C1484.72,767.063 1472.1,769.194 1458.52,773.377C1444.88,777.582 1432.23,784.421 1420.55,793.859C1408.83,803.335 1399.09,815.641 1391.3,830.746C1383.55,845.782 1379.72,864.247 1379.72,886.1C1379.72,907.503 1383.32,925.591 1390.91,940.408C1398.22,954.679 1407.3,966.267 1418.31,975.076C1429.37,983.924 1441.36,990.332 1454.28,994.314C1467.62,998.425 1480.05,1000.5 1491.56,1000.5L1666.76,1000.5C1675.04,1000.5 1682.58,1001.97 1689.36,1004.73C1696.77,1007.74 1703.03,1012.06 1708.18,1017.59C1713.13,1022.9 1717,1029.16 1719.65,1036.4C1722.09,1043.05 1723.37,1050.38 1723.37,1058.37C1723.37,1074.33 1718.83,1087.02 1709.88,1096.51C1700.79,1106.15 1688.06,1111.01 1671.63,1111.01L1383.23,1111.01L1383.23,1172.18L1666.76,1172.18C1674.52,1172.18 1682.79,1171.24 1691.57,1169.39C1700.45,1167.52 1709.18,1164.62 1717.77,1160.7C1726.42,1156.75 1734.79,1151.66 1742.88,1145.46C1750.89,1139.31 1757.88,1131.85 1763.84,1123.09C1769.84,1114.28 1774.66,1104.1 1778.31,1092.57C1781.96,1081.08 1783.77,1068.12 1783.77,1053.73C1783.77,1039.51 1782.06,1026.78 1778.56,1015.52C1775.16,1004.62 1770.61,994.958 1764.8,986.559C1759.13,978.366 1752.66,971.337 1745.34,965.498C1737.86,959.536 1729.99,954.595 1721.71,950.68C1713.34,946.72 1704.93,943.794 1696.47,941.904C1687.87,939.982 1679.72,938.924 1672.22,938.743L1496.43,938.743C1478.75,938.743 1465.03,932.888 1455.11,922.493C1445.53,912.447 1440.12,898.785 1440.12,881.465C1440.12,865.535 1444.63,852.755 1453.57,843.068C1462.67,833.195 1475.33,828.235 1491.56,828.235L1745.39,828.235L1745.39,767.063Z" style="fill:white;"/>
            </g>
        </g>
        <g transform="matrix(1.1955,0,0,0.879434,-677.462,171.282)">
            <g transform="matrix(0.735621,0,-0.239018,1,358.446,0)">
                <path d="M1310.44,1008L1077.09,1008L1077.09,931.243L1310.44,931.243L1310.44,1008ZM1344.42,835.735L1039.15,835.735L1039.15,1179.68L962.975,1179.68L962.975,797.942C962.975,792.669 963.951,787.688 965.904,783.001C967.858,778.313 970.543,774.212 973.961,770.696C977.379,767.181 981.432,764.446 986.119,762.493C990.807,760.54 995.885,759.563 1001.35,759.563L1344.42,759.563L1344.42,835.735Z" style="fill:white;fill-rule:nonzero;"/>
            </g>
        </g>
        <g transform="matrix(1.1955,0,0,0.879434,-677.462,171.282)">
            <g transform="matrix(0.735621,0,-0.239018,1,358.446,0)">
                <path d="M1352.31,843.235L1047.03,843.235L1047.03,1187.18L955.089,1187.18C955.089,1187.18 955.089,795.625 955.089,795.625C955.089,789.594 956.195,783.894 958.429,778.533C960.616,773.285 963.625,768.693 967.452,764.756C971.33,760.768 975.93,757.668 981.248,755.452C986.683,753.188 992.575,752.063 998.917,752.063L1352.31,752.063L1352.31,843.235ZM1003.79,767.063C984.337,767.284 971.075,782.044 970.861,800.26L970.861,1172.18L1031.26,1172.18L1031.26,828.235L1336.53,828.235L1336.53,767.063L1003.79,767.063ZM1318.32,1015.5L1318.32,923.743L1069.21,923.743L1069.21,1015.5L1318.32,1015.5ZM1084.98,938.743L1084.98,1000.5L1302.55,1000.5L1302.55,938.743L1084.98,938.743Z" style="fill:white;"/>
            </g>
        </g>
        <g transform="matrix(1.1955,0,0,0.879434,-677.462,171.282)">
            <g transform="matrix(0.735621,0,-0.239018,1,342.896,0)">
                <rect x="815.74" y="759.563" width="76.172" height="420.117" style="fill:white;fill-rule:nonzero;"/>
            </g>
        </g>
        <g transform="matrix(1.1955,0,0,0.879434,-677.462,171.282)">
            <g transform="matrix(0.735621,0,-0.239018,1,342.896,0)">
                <path d="M899.798,1187.18L807.854,1187.18L807.854,752.063L899.798,752.063L899.798,1187.18ZM823.626,767.063L823.626,1172.18L884.026,1172.18L884.026,767.063L823.626,767.063Z" style="fill:white;"/>
            </g>
        </g>
    </g>
</svg>
