<svg xmlns="http://www.w3.org/2000/svg" xml:space="preserve" style="fill-rule:evenodd;clip-rule:evenodd;stroke-miterlimit:2" viewBox="0 0 1865 744"><path d="M397.107 598.094h36.563V799.75h-36.563z" style="fill:#fff;fill-rule:nonzero" transform="translate(-160.06 -594.595)"/><path d="M437.169 803.251V594.594h-43.562v208.657zm-36.562-201.657v194.657h29.562V601.594z" style="fill:#fff" transform="translate(-160.06 -594.595)"/><path d="M670.201 740.407q0 10.828-2.742 19.476t-7.243 15.258-10.547 11.25-12.515 7.594-13.149 4.359q-6.68 1.407-12.586 1.407H470.373v-36.563h141.046q10.548 0 16.383-6.187 5.836-6.188 5.836-16.594 0-5.063-1.547-9.281t-4.429-7.313q-2.883-3.093-7.032-4.781-4.148-1.688-9.211-1.688h-84.093q-8.86 0-19.125-3.164t-19.055-10.195q-8.788-7.032-14.625-18.422t-5.836-27.844q0-16.452 5.836-27.773t14.625-18.422 19.055-10.266q10.264-3.164 19.125-3.164h124.453v36.563H527.326q-10.407 0-16.242 6.328t-5.836 16.734q0 10.548 5.836 16.664 5.835 6.117 16.242 6.118h84.375q5.906.14 12.515 1.617t13.149 4.57q6.539 3.094 12.445 7.805 5.907 4.71 10.477 11.32t7.242 15.188q2.672 8.577 2.672 19.406" style="fill:#fff;fill-rule:nonzero" transform="translate(-160.06 -594.595)"/><path d="M655.279 594.594v43.563H527.326c-5.821 0-10.405 1.661-13.67 5.201-3.331 3.613-4.908 8.42-4.908 14.361 0 5.996 1.55 10.771 4.868 14.248 3.274 3.432 7.872 5.034 13.71 5.034h84.093l.365.001q6.227.145 13.195 1.7 6.978 1.557 13.883 4.822 6.899 3.263 13.131 8.233c4.197 3.348 7.924 7.368 11.172 12.065 3.239 4.683 5.812 10.06 7.705 16.138 1.877 6.026 2.831 12.84 2.831 20.447 0 7.611-.979 14.455-2.906 20.534-1.938 6.112-4.505 11.499-7.686 16.17q-4.824 7.083-11.309 12.057-6.374 4.89-13.193 8.001-6.829 3.117-13.881 4.6c-4.708.991-9.144 1.482-13.307 1.482H466.873v-43.563h144.546c5.92 0 10.562-1.616 13.837-5.089 3.32-3.52 4.882-8.273 4.882-14.192 0-2.936-.436-5.63-1.333-8.077-.864-2.356-2.094-4.403-3.704-6.131-1.581-1.697-3.514-3-5.789-3.925-2.369-.964-5.002-1.43-7.893-1.43h-84.093c-6.224 0-12.944-1.096-20.156-3.319-7.258-2.237-13.997-5.836-20.21-10.807-6.225-4.98-11.42-11.491-15.554-19.559-4.115-8.032-6.221-17.838-6.221-29.44 0-11.606 2.108-21.391 6.225-29.377 4.129-8.01 9.318-14.516 15.536-19.54s12.961-8.65 20.224-10.888c7.212-2.223 13.932-3.32 20.156-3.32zm-7 7H527.326c-5.589 0-11.619 1.013-18.094 3.009-6.425 1.98-12.385 5.199-17.886 9.643s-10.062 10.22-13.714 17.304c-3.665 7.108-5.447 15.838-5.447 26.169 0 10.336 1.785 19.092 5.451 26.248 3.648 7.12 8.203 12.89 13.696 17.285 5.505 4.404 11.47 7.602 17.9 9.584 6.475 1.995 12.505 3.008 18.094 3.008h84.093c3.86 0 7.368.659 10.53 1.946 3.256 1.324 6.011 3.209 8.273 5.637 2.234 2.397 3.957 5.225 5.155 8.494 1.166 3.178 1.761 6.672 1.761 10.486 0 7.956-2.328 14.265-6.79 18.995-4.506 4.778-10.785 7.286-18.929 7.286H473.873v29.563h137.546c3.713 0 7.667-.448 11.865-1.332q6.308-1.328 12.416-4.118c4.08-1.862 8.025-4.26 11.839-7.186q5.61-4.308 9.784-10.444c2.82-4.141 5.081-8.926 6.799-14.345 1.729-5.452 2.579-11.593 2.579-18.419 0-6.831-.828-12.954-2.514-18.366-1.669-5.359-3.924-10.108-6.779-14.237q-4.266-6.174-9.78-10.575-5.58-4.453-11.76-7.377-6.174-2.923-12.415-4.318c-4.167-.931-8.112-1.446-11.752-1.533h-84.375c-8.038 0-14.267-2.477-18.775-7.202-4.463-4.678-6.803-11.013-6.803-19.08 0-7.934 2.313-14.282 6.763-19.107 4.517-4.898 10.76-7.455 18.815-7.455h120.953z" style="fill:#fff" transform="translate(-160.06 -594.595)"/><path d="M866.373 717.344H750.919v-36.843h115.454zm16.453 82.407H750.919q-7.593 0-16.593-2.672t-16.664-8.789q-7.665-6.118-12.797-15.891t-5.133-23.977V616.516q0-3.797 1.406-7.172 1.407-3.375 3.867-5.906t5.836-3.937q3.375-1.407 7.313-1.407h164.672v36.563H736.294v113.765q0 7.173 3.797 10.969 3.798 3.797 11.11 3.797h131.625z" style="fill:#fff;fill-rule:nonzero" transform="translate(-160.06 -594.595)"/><path d="M886.326 638.157H739.794v110.265c0 3.681.824 6.546 2.772 8.494 1.955 1.956 4.869 2.772 8.635 2.772h135.125v43.563H750.919c-5.365 0-11.23-.929-17.589-2.817-6.427-1.908-12.379-5.041-17.852-9.409-5.469-4.365-10.049-10.024-13.712-16.999-3.656-6.96-5.534-15.488-5.534-25.604V616.516c0-3.007.562-5.845 1.675-8.518q1.67-4 4.589-7c1.968-2.024 4.3-3.603 6.999-4.728 2.665-1.111 5.55-1.676 8.659-1.676h168.172zm-7-7v-29.563H718.154c-2.173.024-4.307.395-6.301 1.281-5.312 2.363-8.621 7.881-8.621 13.641q-.002 65.954 0 131.906c0 6.363.783 12.831 3.111 18.789 1.009 2.583 2.338 5.033 3.819 7.374 2.109 3.336 4.61 6.431 7.515 9.108 8.93 8.23 21.191 12.424 33.242 12.558h128.407v-29.563H751.201c-2.522-.023-5.041-.296-7.444-1.097a16.3 16.3 0 0 1-3.901-1.889c-5.098-3.403-7.061-9.376-7.062-15.28V631.157zm-9.453 89.687v-43.843H747.419v43.843zm-115.454-36.843v29.843h108.454v-29.843z" style="fill:#fff" transform="translate(-160.06 -594.595)"/><path d="M1103.33 799.751H936.544q-3.937 0-7.312-1.407-3.375-1.406-5.836-3.867t-3.867-5.836-1.406-7.312V598.094h36.562v165.094h148.645z" style="fill:#fff;fill-rule:nonzero" transform="translate(-160.06 -594.595)"/><path d="M958.185 759.688h148.645v43.563H936.544c-3.108 0-5.993-.566-8.658-1.676-2.687-1.119-5.006-2.664-6.965-4.623s-3.504-4.278-4.623-6.965c-1.11-2.664-1.675-5.549-1.675-8.658V594.594h43.562zm-7-158.094h-29.562v179.735c.018 1.671.227 3.324.748 4.917a14.45 14.45 0 0 0 8.903 9.136c1.698.604 3.474.849 5.27.869h163.286v-29.563H951.185z" style="fill:#fff" transform="translate(-160.06 -594.595)"/><path d="M563.607 981.344H448.013v-36.843h115.594zm16.312-82.687H433.388v165.093h-36.562V880.516q0-3.797 1.406-7.172t3.867-5.906 5.836-3.937q3.375-1.407 7.313-1.407h164.671z" style="fill:#fff;fill-rule:nonzero" transform="translate(-160.06 -594.595)"/><path d="M583.419 902.157H436.888v165.093h-43.562V880.516c0-3.007.562-5.845 1.675-8.518q1.67-4 4.589-7c1.968-2.024 4.299-3.603 6.999-4.728 2.665-1.111 5.55-1.676 8.659-1.676h168.171zm-168.171-36.563c-1.922.021-3.821.304-5.621.999-5.727 2.21-9.232 7.879-9.301 13.923v179.734h29.562V895.157h146.531v-29.563zm151.859 119.25v-43.843H444.513v43.843zm-115.594-36.843v29.843h108.594v-29.843z" style="fill:#fff" transform="translate(-160.06 -594.595)"/><path d="M819.826 982.188c0 12.281-2.11 23.582-6.328 33.892-4.219 10.31-10.079 19.22-17.579 26.72s-16.382 13.33-26.648 17.51c-10.266 4.17-21.445 6.25-33.539 6.25h-49.5c-12.094 0-23.297-2.08-33.609-6.25-10.313-4.18-19.219-10.01-26.719-17.51s-13.383-16.41-17.649-26.72c-4.265-10.31-6.398-21.611-6.398-33.892v-38.531q0-18.281 6.398-33.821 6.399-15.538 17.649-26.718t26.719-17.508q15.468-6.328 33.609-6.328h49.5q18.14 0 33.539 6.328t26.648 17.508 17.579 26.718q6.327 15.54 6.328 33.821zm-36.563-38.531q0-10.829-3.445-19.617-3.445-8.79-9.703-15.047-6.258-6.259-15.047-9.703-8.789-3.446-19.336-3.446h-49.5q-10.687 0-19.477 3.446-8.788 3.444-15.117 9.703-6.328 6.258-9.773 15.047-3.446 8.789-3.446 19.617v38.531q0 10.827 3.446 19.622c2.297 5.86 5.554 10.87 9.773 15.04s9.258 7.41 15.117 9.71c5.86 2.29 12.352 3.44 19.477 3.44h49.219c7.125 0 13.617-1.15 19.476-3.44 5.86-2.3 10.899-5.54 15.117-9.71s7.477-9.18 9.774-15.04q3.445-8.795 3.445-19.622z" style="fill:#fff;fill-rule:nonzero" transform="translate(-160.06 -594.595)"/><path d="M735.732 855.782c12.574 0 24.196 2.204 34.869 6.591 10.705 4.399 19.965 10.49 27.786 18.262 7.827 7.779 13.949 17.07 18.352 27.881 4.384 10.765 6.587 22.477 6.587 35.141v38.531c0 12.762-2.205 24.502-6.589 35.212-4.401 10.76-10.519 20.05-18.343 27.87-7.826 7.83-17.093 13.92-27.805 18.28-10.67 4.33-22.287 6.51-34.857 6.51h-49.5c-12.567 0-24.206-2.18-34.922-6.51-10.763-4.35-20.054-10.45-27.881-18.28-7.82-7.82-13.96-17.1-18.408-27.85-4.434-10.72-6.664-22.465-6.664-35.232v-38.531c0-12.669 2.228-24.385 6.662-35.153 4.45-10.807 10.594-20.094 18.418-27.869 7.821-7.773 17.106-13.865 27.86-18.264 10.72-4.386 22.364-6.589 34.935-6.589zm0 207.278c11.618 0 22.36-1.99 32.221-6 9.819-3.99 18.318-9.56 25.492-16.74 7.176-7.17 12.777-15.7 16.813-25.57 4.054-9.9 6.068-20.762 6.068-32.562v-38.531c0-11.711-2.016-22.546-6.07-32.5-4.034-9.907-9.631-18.429-16.804-25.557-7.179-7.134-15.685-12.715-25.511-16.753-9.858-4.051-20.596-6.065-32.209-6.065h-49.5c-11.616 0-22.379 2.015-32.284 6.067-9.87 4.038-18.399 9.618-25.577 16.751-7.176 7.131-12.798 15.657-16.879 25.569-4.097 9.951-6.135 20.781-6.135 32.488v38.531c0 11.796 2.036 22.652 6.133 32.552 4.083 9.87 9.709 18.4 16.889 25.58 7.172 7.18 15.694 12.75 25.556 16.74 9.909 4.01 20.676 6 32.297 6zm0-170.716c7.497 0 14.366 1.238 20.613 3.687 6.328 2.481 11.739 5.982 16.245 10.487 4.505 4.505 8.006 9.917 10.486 16.244 2.447 6.242 3.687 13.205 3.687 20.895v38.531c0 7.69-1.24 14.653-3.687 20.892-2.482 6.34-6.011 11.75-10.571 16.26-4.55 4.5-9.98 8-16.3 10.47-6.245 2.45-13.161 3.69-20.754 3.69h-49.219c-7.593 0-14.509-1.24-20.754-3.69-6.32-2.47-11.75-5.97-16.301-10.47-4.56-4.51-8.088-9.92-10.571-16.26-2.447-6.239-3.687-13.202-3.687-20.892v-38.531c0-7.69 1.24-14.653 3.687-20.895 2.483-6.333 6.011-11.749 10.571-16.258 4.551-4.5 9.981-7.996 16.301-10.473 6.245-2.448 13.161-3.687 20.754-3.687zm-.281 134.156c6.656 0 12.725-1.06 18.199-3.2 5.399-2.12 10.046-5.09 13.933-8.94 3.878-3.83 6.865-8.45 8.976-13.83 2.147-5.479 3.204-11.594 3.204-18.342v-38.531c0-6.748-1.057-12.863-3.204-18.34-2.113-5.391-5.081-10.011-8.919-13.849s-8.458-6.807-13.849-8.92c-5.472-2.145-11.493-3.204-18.059-3.204h-49.5c-6.657 0-12.725 1.058-18.199 3.204-5.399 2.117-10.047 5.089-13.934 8.933-3.878 3.835-6.864 8.45-8.976 13.836-2.147 5.477-3.204 11.592-3.204 18.34v38.531c0 6.748 1.057 12.863 3.204 18.342 2.112 5.38 5.098 10 8.976 13.83 3.887 3.85 8.535 6.82 13.934 8.94 5.474 2.14 11.542 3.2 18.199 3.2z" style="fill:#fff" transform="translate(-160.06 -594.595)"/><path d="M1057.48 929.876q0 12.514-3.09 22.359-3.09 9.843-8.37 17.367c-3.51 5.016-7.57 9.305-12.16 12.867-4.6 3.563-9.4 6.492-14.42 8.789-5.01 2.297-10.07 3.961-15.19 4.993q-7.657 1.546-14.409 1.546l76.359 65.953h-56.53l-76.219-65.953h-26.297v-36.562h82.687q6.89-.562 12.589-2.883 5.685-2.32 9.84-6.258c2.77-2.625 4.9-5.789 6.4-9.492q2.25-5.555 2.25-12.726v-23.063c0-2.062-.26-3.633-.77-4.711-.52-1.078-1.18-1.875-1.97-2.391-.8-.515-1.64-.82-2.53-.914-.9-.093-1.71-.14-2.46-.14H892.529v165.093h-36.563V880.516q0-3.797 1.407-7.172 1.406-3.375 3.867-5.906 2.46-2.531 5.836-3.937 3.375-1.407 7.312-1.407h138.802q12.225 0 20.67 4.43 8.43 4.43 13.71 11.109c3.51 4.453 6.05 9.258 7.59 14.414 1.55 5.157 2.32 9.985 2.32 14.485z" style="fill:#fff;fill-rule:nonzero" transform="translate(-160.06 -594.595)"/><path d="M896.029 902.157v165.093h-43.563V880.516c0-3.007.562-5.845 1.676-8.518 1.111-2.667 2.643-4.999 4.588-7 1.969-2.024 4.3-3.603 7-4.728 2.664-1.111 5.549-1.676 8.658-1.676h138.802c8.8 0 16.22 1.644 22.29 4.831 6.09 3.197 11.03 7.219 14.84 12.04q5.685 7.219 8.19 15.577c1.66 5.513 2.47 10.678 2.47 15.49v23.344c0 8.736-1.09 16.537-3.25 23.408-2.18 6.927-5.13 13.033-8.84 18.327-3.73 5.312-8.02 9.851-12.89 13.624-4.81 3.732-9.85 6.799-15.1 9.206-5.27 2.412-10.59 4.157-15.95 5.24a87 87 0 0 1-6.363 1.049l77.023 66.52h-67.24l-76.223-65.95h-28.493v-43.565h86.032c4.164-.35 7.973-1.219 11.424-2.624 3.37-1.375 6.29-3.222 8.75-5.555 2.41-2.285 4.26-5.044 5.57-8.268 1.34-3.319 1.99-7.126 1.99-11.412v-23.063c0-1.395-.08-2.471-.43-3.201-.2-.417-.41-.763-.71-.962a2.3 2.3 0 0 0-1-.372c-.76-.08-1.46-.121-2.09-.121zm93.812 92.14c4.284 0 8.858-.496 13.719-1.477 4.86-.98 9.66-2.562 14.43-4.744 4.77-2.187 9.35-4.98 13.72-8.372 4.33-3.353 8.14-7.391 11.44-12.111 3.33-4.737 5.95-10.209 7.9-16.407 1.97-6.254 2.93-13.359 2.93-21.31v-23.344c0-4.188-.73-8.68-2.17-13.479-1.42-4.741-3.76-9.156-6.99-13.251-3.22-4.086-7.43-7.47-12.59-10.179-5.18-2.719-11.53-4.029-19.04-4.029H874.388c-2.141 0-4.131.373-5.966 1.137q-2.703 1.123-4.673 3.147c-1.336 1.374-2.382 2.98-3.146 4.812-.761 1.828-1.137 3.77-1.137 5.826v179.734h29.563V895.157h124.161q1.29-.001 2.82.16c1.43.15 2.79.628 4.07 1.456 1.29.832 2.39 2.079 3.22 3.819.69 1.427 1.12 3.491 1.12 6.221v23.063c0 5.276-.85 9.953-2.51 14.04-1.69 4.183-4.11 7.752-7.23 10.717-3.07 2.917-6.71 5.242-10.93 6.96-4.112 1.675-8.651 2.724-13.624 3.13l-.142.012h-79.33v29.562h24.101l76.215 65.953h45.82l-76.355-65.953z" style="fill:#fff" transform="translate(-160.06 -594.595)"/><path d="M1328.89 1063.75h-36.85V943.657l-64.82 114.043c-1.6 2.91-3.82 5.11-6.68 6.61q-4.29 2.25-9.21 2.25c-3.19 0-6.17-.75-8.93-2.25-2.77-1.5-4.95-3.7-6.54-6.61l-65.11-114.043v120.093h-36.57V877.704c0-4.219 1.25-7.969 3.73-11.25 2.49-3.282 5.74-5.485 9.77-6.61a19.4 19.4 0 0 1 5.91-.492q2.955.212 5.7 1.266c1.83.703 3.49 1.687 4.99 2.953s2.76 2.789 3.8 4.57l83.25 144.699 83.25-144.699c2.15-3.562 5.13-6.094 8.93-7.594q5.685-2.25 11.88-.703c3.94 1.125 7.17 3.328 9.7 6.61 2.53 3.281 3.8 7.031 3.8 11.25z" style="fill:#fff;fill-rule:nonzero" transform="translate(-160.06 -594.595)"/><path d="m1211.33 1005.83 80.25-139.501c2.57-4.242 6.12-7.251 10.64-9.037 4.48-1.769 9.15-2.06 14.02-.843l.11.03c4.67 1.335 8.51 3.944 11.51 7.837q4.53 5.856 4.53 13.388v189.546h-43.85V956.897l-58.25 102.493c-1.31 2.33-2.99 4.41-5.09 6.06-7.67 6.03-19.4 6.19-27.13.21-2.18-1.69-3.91-3.83-5.25-6.22l-58.57-102.593v110.403h-43.57V877.704c0-5.012 1.49-9.465 4.44-13.363 2.96-3.903 6.83-6.53 11.69-7.886l.06-.016c2.33-.552 4.65-.744 6.97-.578s4.55.663 6.7 1.49q3.3 1.266 6 3.545c1.8 1.522 3.33 3.35 4.57 5.496zm103.15-142.604c-3.36-.83-6.59-.647-9.69.577-3.07 1.213-5.47 3.268-7.18 6.084l-86.28 149.973s-86.29-149.973-86.28-149.965c-.83-1.421-1.83-2.64-3.03-3.649a13.9 13.9 0 0 0-3.99-2.362c-1.5-.578-3.07-.925-4.69-1.041-1.59-.114-3.19.018-4.78.391l-.24.07c-4.61 1.428-8.36 4.92-9.88 9.546-.52 1.57-.74 3.204-.76 4.854v182.546h29.57V930.467s71.65 125.503 71.68 125.553c1.25 2.29 2.96 4.04 5.14 5.22 2.24 1.22 4.66 1.82 7.26 1.82 2.7 0 5.23-.61 7.58-1.85 2.24-1.17 3.99-2.91 5.25-5.21l71.38-125.583v129.833h29.85V877.704c-.02-1.647-.24-3.277-.77-4.841-1.54-4.579-5.32-8.117-9.89-9.565z" style="fill:#fff" transform="translate(-160.06 -594.595)"/><path d="M1568.93 1045.33c0 2.62-.46 5.06-1.4 7.31s-2.25 4.2-3.94 5.84a18.6 18.6 0 0 1-5.91 3.86q-3.375 1.41-7.17 1.41h-82.4c-7.78 0-15.66-.84-23.63-2.53s-15.68-4.29-23.13-7.81c-7.45-3.51-14.46-7.99-21.02-13.42-6.57-5.44-12.31-11.89-17.23-19.34s-8.79-15.98-11.6-25.595c-2.82-9.609-4.22-20.32-4.22-32.133V862.094h36.56v100.828q0 15.47 4.29 26.157c2.86 7.125 6.49 13.081 10.9 17.861 4.4 4.78 9.23 8.53 14.48 11.25s10.25 4.73 14.98 6.05c4.73 1.31 8.91 2.13 12.52 2.46 3.61.32 5.97.49 7.1.49h64.26V862.094h36.56z" style="fill:#fff;fill-rule:nonzero" transform="translate(-160.06 -594.595)"/><path d="M1407.34 962.922c.03 7.728.76 15.57 3.31 22.909 2.19 6.286 5.49 12.366 9.81 17.439 3.29 3.88 7.19 7.3 11.5 10 2.76 1.73 5.72 3.16 8.7 4.45 8.62 3.74 18.04 5.81 27.45 5.97h60.76V858.594h43.56v186.736c-.03 3.16-.6 6.26-1.89 9.16-3.47 7.81-11.53 12.76-20.03 12.76h-82.4c-27.66 0-55.7-10.03-75.57-29.59a90 90 0 0 1-8.88-10.15 91.6 91.6 0 0 1-10.32-17.36 104 104 0 0 1-7.5-23.729c-1.46-7.749-2.03-15.621-2.06-23.499V858.594h43.56zm-7-97.328h-29.56v97.328c.03 7.41.56 14.815 1.92 22.104 1.27 6.788 3.29 13.443 5.96 19.814 2.55 6.07 5.76 11.83 9.63 17.16 11.79 16.25 29.26 27.76 48.35 33.59 10.19 3.1 20.83 4.59 31.47 4.66h82.79c5.9-.21 11.38-3.71 13.54-9.3.69-1.8.97-3.7.99-5.62V865.594h-29.56v165.096h-67.76c-1.61 0-3.23-.15-4.84-.29-4.71-.38-9.3-1.12-13.88-2.3-4.98-1.29-9.78-3.07-14.43-5.28-2.82-1.35-5.58-2.81-8.17-4.56-6.54-4.41-12.18-10.22-16.37-16.89-2.85-4.548-5.21-9.501-6.84-14.617-2.44-7.69-3.2-15.796-3.24-23.831z" style="fill:#fff" transform="translate(-160.06 -594.595)"/><path d="M1796.61 1063.75h-166.78q-3.945 0-7.32-1.41c-2.25-.93-4.19-2.22-5.83-3.86s-2.93-3.59-3.87-5.84-1.41-4.69-1.41-7.31V862.094h36.57v165.096h148.64z" style="fill:#fff;fill-rule:nonzero" transform="translate(-160.06 -594.595)"/><path d="M1607.9 858.594h43.57v165.096h148.64v43.56h-170.28c-6.69 0-13.21-2.92-17.34-8.24-1.3-1.67-2.35-3.55-3.11-5.52-1.01-2.62-1.44-5.37-1.48-8.16zm36.57 7h-29.57v179.736c.02 1.79.27 3.57.87 5.27 1.51 4.23 4.87 7.51 9.14 8.9 1.59.52 3.24.73 4.92.75h163.28v-29.56h-148.64z" style="fill:#fff" transform="translate(-160.06 -594.595)"/><path d="M2021.33 1063.75h-36.57v-49.5h-128.53v49.5h-36.56V962.922q0-22.077 7.59-40.64c5.07-12.375 12.1-23.016 21.1-31.922q13.5-13.36 31.92-20.813c12.28-4.968 25.69-7.453 40.22-7.453h82.4c2.53 0 4.93.469 7.18 1.407a18.12 18.12 0 0 1 9.84 9.843q1.41 3.375 1.41 7.172zm-165.1-86.062h128.53v-79.031h-64.26c-1.13 0-3.49.164-7.1.492s-7.78 1.148-12.52 2.461c-4.73 1.312-9.73 3.328-14.98 6.047s-10.07 6.469-14.48 11.25-8.04 10.758-10.9 17.929q-4.29 10.759-4.29 26.086z" style="fill:#fff;fill-rule:nonzero" transform="translate(-160.06 -594.595)"/><path d="M2002.9 858.594c3.01 0 5.85.562 8.52 1.676a21.6 21.6 0 0 1 7.04 4.693c2.01 2.011 3.57 4.355 4.69 7.035 1.11 2.673 1.68 5.511 1.68 8.518v186.734h-43.57v-49.5h-121.53v49.5h-43.56V962.922c0-15.199 2.63-29.186 7.85-41.965 5.25-12.828 12.55-23.853 21.87-33.085 9.33-9.228 20.35-16.421 33.08-21.569 12.68-5.131 26.52-7.709 41.53-7.709zm14.93 21.922c-.03-1.878-.32-3.725-1-5.482-2.22-5.726-7.81-9.439-13.93-9.44-27.47-.001-54.93-.002-82.4 0-10.46.001-20.94 1.349-30.96 4.39-19.26 5.848-36.59 17.745-48.35 34.15-5.03 7.014-9.05 14.764-12 22.87-4.19 11.519-5.95 23.692-6.02 35.918v97.328h29.56v-49.5h135.53v49.5h29.57zm-165.1 100.672h135.53v-86.031h-67.76c-1.18 0-3.65.164-7.42.506-3.79.345-8.17 1.197-13.14 2.574-4.94 1.372-10.16 3.471-15.65 6.312-5.59 2.898-10.75 6.888-15.44 11.986-4.68 5.071-8.55 11.399-11.58 19.005-3 7.53-4.54 16.654-4.54 27.382zm128.53-79.031h-60.76c-1.08 0-3.34.164-6.79.478-3.43.312-7.39 1.1-11.89 2.348-4.53 1.253-9.29 3.185-14.31 5.782-4.9 2.539-9.4 6.049-13.52 10.514-4.14 4.491-7.53 10.116-10.22 16.854-2.71 6.814-4.04 15.081-4.04 24.789v11.266h121.53z" style="fill:#fff" transform="translate(-160.06 -594.595)"/><path d="M590.607 1268.41q0 10.83-2.742 19.47c-1.828 5.77-4.242 10.86-7.242 15.26q-4.5 6.615-10.547 11.25c-4.032 3.1-8.203 5.63-12.516 7.6-4.312 1.96-8.695 3.42-13.148 4.35q-6.68 1.41-12.586 1.41H390.779v-36.56h141.047c7.031 0 12.492-2.06 16.383-6.19 3.89-4.12 5.835-9.66 5.835-16.59 0-3.38-.515-6.47-1.546-9.28-1.032-2.82-2.508-5.25-4.43-7.32-1.922-2.06-4.266-3.65-7.031-4.78-2.766-1.12-5.836-1.69-9.211-1.69h-84.094c-5.906 0-12.281-1.05-19.125-3.16s-13.195-5.51-19.055-10.19c-5.859-4.69-10.734-10.83-14.625-18.43q-5.835-11.385-5.836-27.84c0-10.97 1.946-20.23 5.836-27.77 3.891-7.55 8.766-13.69 14.625-18.43q8.79-7.095 19.055-10.26c6.844-2.11 13.219-3.17 19.125-3.17h124.453v36.57H447.732q-10.407 0-16.242 6.33c-3.891 4.21-5.836 9.79-5.836 16.73 0 7.03 1.945 12.59 5.836 16.66q5.835 6.12 16.242 6.12h84.375q5.906.135 12.516 1.62c4.406.98 8.789 2.51 13.148 4.57q6.539 3.09 12.445 7.8c3.938 3.14 7.43 6.92 10.477 11.32 3.047 4.41 5.461 9.47 7.242 15.19q2.672 8.58 2.672 19.41" style="fill:#fff;fill-rule:nonzero" transform="translate(-160.06 -594.595)"/><path d="M575.685 1122.59v43.57H447.732c-5.821 0-10.405 1.66-13.669 5.2-3.332 3.61-4.909 8.42-4.909 14.36 0 5.99 1.55 10.77 4.868 14.25 3.274 3.43 7.872 5.03 13.71 5.03h84.458c4.151.1 8.55.66 13.196 1.7 4.652 1.04 9.28 2.65 13.882 4.82 4.599 2.18 8.977 4.92 13.131 8.24 4.198 3.35 7.924 7.36 11.173 12.06 3.238 4.69 5.812 10.06 7.705 16.14 1.877 6.03 2.83 12.84 2.83 20.45s-.978 14.45-2.906 20.53c-1.938 6.11-4.505 11.5-7.685 16.17q-4.826 7.08-11.309 12.06c-4.249 3.26-8.648 5.92-13.193 8-4.553 2.08-9.18 3.61-13.881 4.6-4.708.99-9.144 1.48-13.307 1.48H387.279v-43.56h144.547c5.919 0 10.561-1.62 13.836-5.09 3.32-3.52 4.882-8.27 4.882-14.19 0-2.94-.435-5.63-1.332-8.08-.865-2.36-2.094-4.4-3.705-6.13-1.581-1.7-3.514-3-5.789-3.93-2.369-.96-5.002-1.43-7.892-1.43h-84.094c-6.224 0-12.944-1.09-20.156-3.31-7.258-2.24-13.996-5.84-20.21-10.81-6.225-4.98-11.42-11.49-15.554-19.56-4.115-8.03-6.221-17.84-6.221-29.44 0-11.61 2.109-21.39 6.225-29.38 4.13-8.01 9.318-14.51 15.537-19.54 6.217-5.02 12.961-8.65 20.223-10.89 7.212-2.22 13.932-3.32 20.156-3.32zm-7 7H447.732c-5.589 0-11.618 1.02-18.094 3.01-6.425 1.98-12.385 5.2-17.886 9.65-5.5 4.44-10.062 10.22-13.714 17.3-3.664 7.11-5.447 15.84-5.447 26.17 0 10.34 1.785 19.09 5.451 26.25 3.648 7.12 8.203 12.89 13.697 17.28 5.505 4.41 11.469 7.6 17.899 9.59 6.476 1.99 12.505 3 18.094 3h84.094c3.859 0 7.367.66 10.529 1.95 3.257 1.32 6.011 3.21 8.274 5.64 2.233 2.39 3.956 5.22 5.155 8.49 1.165 3.18 1.76 6.67 1.76 10.49 0 7.95-2.328 14.26-6.789 18.99-4.506 4.78-10.786 7.29-18.929 7.29H394.279v29.56h137.547c3.712 0 7.666-.45 11.865-1.33 4.205-.89 8.343-2.26 12.416-4.12 4.079-1.86 8.024-4.26 11.838-7.18 3.741-2.88 7-6.36 9.784-10.45 2.82-4.14 5.081-8.92 6.799-14.34 1.729-5.46 2.579-11.6 2.579-18.42 0-6.83-.828-12.96-2.514-18.37-1.669-5.36-3.923-10.11-6.779-14.24-2.845-4.11-6.103-7.64-9.78-10.57q-5.58-4.455-11.76-7.38-6.174-2.925-12.415-4.32c-4.167-.93-8.112-1.44-11.752-1.53h-84.375c-8.038 0-14.267-2.48-18.775-7.2-4.463-4.68-6.803-11.01-6.803-19.08 0-7.93 2.313-14.28 6.763-19.11 4.517-4.9 10.76-7.45 18.815-7.45h120.953z" style="fill:#fff" transform="translate(-160.06 -594.595)"/><path d="M801.123 1162.66h-80.579v165.09h-36.562v-165.09h-80.719v-36.57h197.86z" style="fill:#fff;fill-rule:nonzero" transform="translate(-160.06 -594.595)"/><path d="M680.482 1166.16h-80.719v-43.57h204.86v43.57h-80.579v165.09h-43.562zm-73.719-36.57v29.57h80.719v165.09h29.562v-165.09h80.579v-29.57z" style="fill:#fff" transform="translate(-160.06 -594.595)"/><path d="M1025.56 1309.33c0 2.62-.47 5.06-1.41 7.31-.93 2.25-2.25 4.2-3.93 5.84a18.6 18.6 0 0 1-5.91 3.86q-3.375 1.41-7.17 1.41h-82.408c-7.781 0-15.656-.84-23.625-2.53a105 105 0 0 1-23.133-7.81c-7.453-3.51-14.461-7.99-21.023-13.42-6.563-5.44-12.305-11.89-17.227-19.34s-8.789-15.99-11.601-25.59c-2.813-9.61-4.219-20.32-4.219-32.14v-100.83h36.562v100.83c0 10.32 1.43 19.03 4.289 26.16 2.86 7.12 6.493 13.08 10.899 17.86q6.609 7.17 14.484 11.25c5.25 2.72 10.242 4.73 14.977 6.05q7.101 1.965 12.515 2.46c3.61.32 5.977.49 7.102.49h64.266v-165.1h36.562z" style="fill:#fff;fill-rule:nonzero" transform="translate(-160.06 -594.595)"/><path d="M985.498 1287.69v-165.1h43.562v186.74c0 3.11-.56 5.99-1.68 8.66-1.12 2.7-2.7 5.03-4.72 7-2.01 1.94-4.34 3.47-7 4.59-2.68 1.11-5.52 1.67-8.52 1.67h-82.408q-12.03 0-24.35-2.61c-8.233-1.74-16.2-4.43-23.901-8.06-7.715-3.64-14.97-8.27-21.763-13.9q-10.237-8.475-17.914-20.1c-5.105-7.73-9.124-16.58-12.04-26.54-2.899-9.91-4.36-20.94-4.36-33.12v-104.33h43.562v104.33c0 9.8 1.321 18.09 4.038 24.86 2.686 6.69 6.083 12.29 10.224 16.79 4.114 4.46 8.617 7.97 13.52 10.51 5.014 2.6 9.78 4.53 14.302 5.78 4.501 1.25 8.466 2.04 11.897 2.35 3.449.31 5.71.48 6.785.48zm-128.532-158.1h-29.562v97.33c.027 7.41.559 14.82 1.924 22.11a98 98 0 0 0 5.954 19.81 85.6 85.6 0 0 0 9.636 17.16c11.782 16.25 29.255 27.76 48.352 33.59 10.183 3.1 20.826 4.59 31.462 4.66h82.788c5.91-.21 11.38-3.71 13.54-9.3.7-1.8.98-3.7 1-5.62v-179.74h-29.562v165.1h-67.766c-1.612 0-3.229-.15-4.834-.29-4.712-.38-9.303-1.12-13.883-2.3-4.98-1.29-9.785-3.07-14.429-5.28-2.824-1.35-5.578-2.81-8.174-4.56a57.2 57.2 0 0 1-16.369-16.89c-2.853-4.55-5.21-9.5-6.836-14.62-2.443-7.69-3.205-15.79-3.241-23.83z" style="fill:#fff" transform="translate(-160.06 -594.595)"/><path d="M1269.26 1243.38c0 12.28-2.13 23.57-6.39 33.89-4.27 10.31-10.15 19.19-17.65 26.64-7.5 7.46-16.41 13.29-26.72 17.51-10.32 4.22-21.52 6.33-33.61 6.33h-98.72c-2.63 0-5.06-.47-7.31-1.41-2.25-.93-4.2-2.22-5.84-3.86s-2.93-3.59-3.87-5.84c-.93-2.25-1.4-4.69-1.4-7.31v-164.81c0-2.53.47-4.93 1.4-7.18.94-2.25 2.23-4.21 3.87-5.9s3.59-3 5.84-3.94 4.68-1.41 7.31-1.41h98.72c12.09 0 23.29 2.11 33.61 6.33 10.31 4.22 19.22 10.06 26.72 17.51s13.38 16.36 17.65 26.72c4.26 10.36 6.39 21.63 6.39 33.82zm-36.56-32.91c0-7.13-1.15-13.64-3.44-19.55-2.3-5.9-5.56-10.94-9.78-15.11-4.22-4.18-9.26-7.41-15.11-9.71-5.86-2.29-12.36-3.44-19.48-3.44h-80.58v128.53h80.58c7.12 0 13.62-1.15 19.48-3.45 5.85-2.29 10.89-5.53 15.11-9.7s7.48-9.19 9.78-15.05c2.29-5.86 3.44-12.4 3.44-19.61z" style="fill:#fff;fill-rule:nonzero" transform="translate(-160.06 -594.595)"/><path d="M1184.89 1122.59c12.57 0 24.21 2.21 34.93 6.59 10.76 4.4 20.04 10.49 27.86 18.27q11.745 11.655 18.42 27.87c4.44 10.77 6.66 22.48 6.66 35.15v32.91c0 12.76-2.23 24.5-6.66 35.22-4.45 10.76-10.59 20.02-18.42 27.8-7.82 7.77-17.1 13.86-27.86 18.26-10.72 4.39-22.36 6.59-34.93 6.59h-98.72c-3.11 0-5.99-.57-8.66-1.67-2.69-1.12-5-2.67-6.96-4.63s-3.51-4.28-4.63-6.96c-1.11-2.67-1.67-5.55-1.67-8.66v-164.81c0-3.01.56-5.85 1.67-8.52 1.12-2.67 2.65-5 4.59-7 1.97-2.03 4.3-3.61 7-4.73 2.67-1.11 5.55-1.68 8.66-1.68zm0 201.66c11.61 0 22.38-2.01 32.28-6.07 9.87-4.04 18.4-9.61 25.58-16.75 7.18-7.13 12.8-15.63 16.88-25.5 4.1-9.91 6.13-20.76 6.13-32.55v-32.91c0-11.71-2.03-22.54-6.13-32.49-4.08-9.91-9.71-18.44-16.88-25.57-7.18-7.13-15.71-12.71-25.58-16.75-9.9-4.05-20.67-6.07-32.28-6.07h-98.72q-3.21 0-5.97 1.14c-1.8.75-3.36 1.8-4.67 3.15-1.34 1.37-2.38 2.98-3.15 4.81-.76 1.83-1.13 3.77-1.13 5.83v164.81c0 2.14.37 4.13 1.13 5.97.76 1.81 1.79 3.38 3.12 4.7 1.32 1.33 2.89 2.36 4.7 3.11 1.84.77 3.83 1.14 5.97 1.14zm0-165.09c7.59 0 14.51 1.24 20.75 3.68 6.32 2.48 11.75 5.98 16.3 10.48 4.56 4.51 8.09 9.95 10.58 16.33 2.44 6.29 3.68 13.23 3.68 20.82v32.91c0 7.69-1.24 14.65-3.69 20.89-2.48 6.33-6.01 11.75-10.57 16.26-4.55 4.5-9.98 7.99-16.3 10.47-6.24 2.45-13.16 3.69-20.75 3.69h-84.08v-135.53zm0 7h-77.08v121.53h77.08c6.66 0 12.72-1.06 18.2-3.21 5.4-2.11 10.04-5.09 13.93-8.93 3.88-3.83 6.87-8.45 8.98-13.84 2.14-5.47 3.2-11.59 3.2-18.33v-32.91c0-6.66-1.06-12.76-3.21-18.28-2.11-5.43-5.09-10.06-8.97-13.9-3.89-3.84-8.53-6.81-13.93-8.93-5.48-2.15-11.54-3.2-18.2-3.2" style="fill:#fff" transform="translate(-160.06 -594.595)"/><path d="M1470.92 1245.34h-115.45v-36.84h115.45zm16.45 82.41h-131.9c-5.07 0-10.6-.89-16.6-2.67s-11.55-4.71-16.66-8.79-9.38-9.38-12.8-15.89c-3.42-6.52-5.13-14.51-5.13-23.98v-131.9c0-2.53.47-4.93 1.4-7.18.94-2.25 2.23-4.21 3.87-5.9s3.59-3 5.84-3.94 4.69-1.41 7.31-1.41h164.67v36.57h-146.53v113.76c0 4.78 1.27 8.44 3.8 10.97s6.23 3.8 11.11 3.8h131.62z" style="fill:#fff;fill-rule:nonzero" transform="translate(-160.06 -594.595)"/><path d="M1490.87 1166.16h-146.53v110.26c0 3.68.82 6.55 2.77 8.5 1.96 1.95 4.87 2.77 8.64 2.77h135.12v43.56h-135.4c-5.37 0-11.23-.93-17.59-2.82-6.43-1.9-12.38-5.04-17.85-9.4-5.47-4.37-10.05-10.03-13.72-17-3.65-6.96-5.53-15.49-5.53-25.61v-131.9c0-3.01.56-5.85 1.67-8.52 1.12-2.67 2.65-5 4.59-7 1.97-2.03 4.3-3.61 7-4.73 2.67-1.11 5.55-1.68 8.66-1.68h168.17zm-153.53-7h146.53v-29.57H1322.7c-2.17.03-4.31.4-6.3 1.29-5.31 2.36-8.62 7.88-8.62 13.64v131.9c0 6.37.78 12.83 3.11 18.79 1.01 2.58 2.34 5.03 3.82 7.38 2.11 3.33 4.61 6.43 7.51 9.1 8.93 8.23 21.19 12.43 33.25 12.56h128.4v-29.56h-128.12c-4.94-.05-9.99-1.23-13.59-4.82-.78-.79-1.47-1.66-2.06-2.59-.78-1.23-1.37-2.57-1.8-3.95-.7-2.24-.94-4.57-.96-6.91zm137.08 89.68V1205h-122.45v43.84zM1358.97 1212v29.84h108.45V1212z" style="fill:#fff" transform="translate(-160.06 -594.595)"/><path d="M1724.18 1312.14c0 2.63-.49 5.06-1.47 7.31-.99 2.25-2.3 4.2-3.94 5.84s-3.59 2.93-5.84 3.87c-2.25.93-4.64 1.4-7.17 1.4-2.25 0-4.52-.42-6.82-1.26-2.29-.85-4.33-2.21-6.11-4.08l-133.6-139.5v142.03h-36.56V1141.7c0-3.75 1.05-7.14 3.16-10.19s4.81-5.32 8.09-6.82c3.47-1.41 7.03-1.76 10.69-1.06 3.65.71 6.79 2.42 9.42 5.14l133.59 139.36v-142.04h36.56z" style="fill:#fff;fill-rule:nonzero;stroke:#fff;stroke-width:7px" transform="translate(-160.06 -594.595)"/><path d="M1948.9 1162.66h-80.57v165.09h-36.57v-165.09h-80.72v-36.57h197.86z" style="fill:#fff;fill-rule:nonzero" transform="translate(-160.06 -594.595)"/><path d="M1828.26 1166.16h-80.72v-43.57h204.86v43.57h-80.57v165.09h-43.57zm-73.72-36.57v29.57h80.72v165.09h29.57v-165.09h80.57v-29.57z" style="fill:#fff" transform="translate(-160.06 -594.595)"/><path d="M156.57 661.735h129.661v736.627H156.57z" style="fill:#f50" transform="matrix(1.40674 0 0 .99054 -216.753 -651.973)"/><path d="M288.719 658.201H154.082V1401.9h134.637zm-129.661 7.067v729.562h124.685V665.268z" style="fill:#f50" transform="matrix(1.40674 0 0 .99054 -216.753 -651.973)"/></svg>