<svg xmlns="http://www.w3.org/2000/svg" xml:space="preserve" style="fill-rule:evenodd;clip-rule:evenodd;stroke-linejoin:round;stroke-miterlimit:2" viewBox="0 0 1800 541"><path d="M1791.65 1056.05c0 15.04-1.9 28.56-5.71 40.57-3.81 12.02-8.84 22.61-15.09 31.79s-13.57 16.99-21.97 23.44c-8.4 6.44-17.09 11.72-26.07 15.82-8.99 4.1-18.12 7.13-27.4 9.08-9.27 1.95-18.01 2.93-26.22 2.93h-293.84v-76.17h293.84c14.65 0 26.03-4.3 34.13-12.89 8.11-8.6 12.16-20.12 12.16-34.57 0-7.03-1.07-13.48-3.22-19.34s-5.22-10.94-9.23-15.23c-4-4.3-8.89-7.62-14.65-9.96-5.76-2.35-12.15-3.52-19.19-3.52H1494c-12.31 0-25.59-2.2-39.85-6.59-14.25-4.395-27.49-11.475-39.69-21.241-12.21-9.766-22.37-22.559-30.47-38.379-8.11-15.82-12.16-35.156-12.16-58.008 0-22.851 4.05-42.138 12.16-57.861 8.1-15.723 18.26-28.516 30.47-38.379 12.2-9.863 25.44-16.992 39.69-21.387 14.26-4.394 27.54-6.592 39.85-6.592h259.28v76.172H1494q-21.675 0-33.84 13.184c-8.1 8.789-12.16 20.41-12.16 34.863 0 14.649 4.06 26.221 12.16 34.717q12.165 12.744 33.84 12.744h175.78q12.3.293 26.07 3.369c9.18 2.051 18.31 5.225 27.4 9.522q13.62 6.446 25.92 16.26c8.21 6.542 15.48 14.404 21.83 23.583 6.35 9.18 11.38 19.723 15.09 31.643 3.71 11.91 5.56 25.39 5.56 40.43" style="fill-rule:nonzero" transform="matrix(1.24112 0 -.40326 1.24112 -83.483 -933.402)"/><path d="m1799.043-.002-36.766 113.156h-328.561c-15.725 0-29.557 4.753-41.488 14.316-12.205 9.794-20.88 22.778-26.113 38.884-4.831 14.87-5.314 26.63.113 35.254 5.156 8.194 15.04 11.466 28.978 11.466h217.444s.72 0 .942.002c10.739.259 21.727 1.733 32.962 4.439a127.5 127.5 0 0 1 32.522 12.741q15.582 8.71 27.899 21.97c8.359 8.995 14.87 19.784 19.494 32.402 4.535 12.362 6.75 26.553 6.538 42.6-.213 15.589-3.456 33.25-9.852 52.934-6.323 19.46-14.492 36.96-24.472 52.512-9.951 15.502-20.895 29.166-32.813 41.019-11.988 11.915-24.79 22.055-38.417 30.42-13.504 8.29-26.889 15.067-40.174 20.354-13.355 5.312-26.453 9.222-39.29 11.754-12.969 2.556-24.807 3.81-35.53 3.81h-377.51l36.765-113.153h371.466c15.961 0 29.914-4.63 41.795-14 12.116-9.557 20.72-22.402 25.943-38.475 2.452-7.546 3.614-14.446 3.346-20.726-.229-5.56-1.498-10.4-3.973-14.472-2.3-3.81-5.72-6.69-10.148-8.762-5.104-2.395-11.278-3.488-18.452-3.488h-217.443c-16.247 0-32.86-2.879-49.8-8.687-17.427-5.958-32.258-15.583-44.52-28.842-12.319-13.307-20.624-30.68-24.653-52.238-3.914-20.881-1.21-46.427 8.588-76.586 9.619-29.602 23.04-54.56 40.157-74.927 17.04-20.278 35.526-36.762 55.397-49.483 19.961-12.77 40.093-21.978 60.41-27.667 20.399-5.715 38.6-8.527 54.611-8.527zm-25.621 18.617h-308.989c-14.533 0-31.055 2.645-49.597 7.837-18.624 5.219-37.082 13.707-55.385 25.42-18.367 11.761-35.418 27.034-51.177 45.781-15.683 18.662-27.882 41.58-36.695 68.701-8.63 26.564-11.457 49.014-8.012 67.403 3.317 17.712 9.914 32.094 20.026 43.027 10.159 10.982 22.456 18.935 36.885 23.877 14.899 5.102 29.49 7.678 43.774 7.678h217.444c10.277 0 19.042 1.824 26.344 5.25 7.983 3.735 14.01 9.097 18.172 15.96 4.002 6.59 6.28 14.36 6.65 23.346.346 8.253-1.02 17.35-4.243 27.267-6.436 19.808-17.188 35.558-32.123 47.336-15.17 11.965-32.929 17.997-53.32 17.997h-357.939l-24.667 75.919h351.894c9.63 0 20.274-1.167 31.917-3.463 11.775-2.32 23.78-5.92 36.022-10.785 12.328-4.902 24.77-11.22 37.31-18.915 12.421-7.633 24.105-16.891 35.035-27.764 11-10.934 21.087-23.568 30.266-37.879 9.164-14.26 16.637-30.345 22.44-48.205 5.734-17.648 8.745-33.448 8.942-47.423.176-13.528-1.575-25.52-5.399-35.944-3.733-10.168-8.928-18.892-15.659-26.14-6.879-7.399-14.654-13.531-23.352-18.39a109 109 0 0 0-27.787-10.892c-9.898-2.386-19.587-3.699-28.822-3.923h-218.176c-21.943 0-36.61-7.267-44.73-20.168-7.839-12.469-9.044-29.425-2.06-50.921 6.425-19.771 17.176-35.633 32.178-47.655 15.276-12.254 32.988-18.41 53.132-18.41h315.033z"/><path d="M1310.44 1008h-233.35v-76.757h233.35zm33.98-172.265h-305.27v343.945h-76.175V797.942q0-7.91 2.929-14.941 2.93-7.032 8.057-12.305t12.158-8.203q7.033-2.93 15.231-2.93h343.07z" style="fill-rule:nonzero" transform="matrix(1.24112 0 -.40326 1.24112 -112.245 -933.402)"/><path d="M1226.085 113.154H847.196l-138.7 426.877h-114.11l157.9-485.967c2.432-7.485 6.104-14.56 11.038-21.213q7.246-9.77 16.755-17.099 9.631-7.423 20.874-11.547c7.658-2.81 15.425-4.207 23.296-4.207h438.602zM824.248 18.615c-24.233.275-46.644 18.593-54.256 41.202L620.01 521.414h74.962L833.673 94.537h378.876l24.668-75.922zm327.185 194.459-37.002 113.881H805.256l37.002-113.881zM855.782 231.69l-24.904 76.648h270.03l24.904-76.648z"/><path d="M815.74 759.563h76.172v420.117H815.74z" style="fill-rule:nonzero" transform="matrix(1.24112 0 -.40326 1.24112 -138.48 -933.402)"/><path d="M499.528 540.03 674.995-.001H560.882L385.415 540.031zm74.88-521.415-163.37 502.799h74.964l163.37-502.799z"/><path d="M139.086 763.292h475.069v521.416H139.086z" style="fill:#f50" transform="matrix(.57065 0 -.32492 1 350.857 -753.984)"/><path d="M631.291 753.992H121.95v540.018h509.341zm-475.069 18.6v502.818h440.797V772.592z" style="fill:#f50" transform="matrix(.57065 0 -.32492 1 350.857 -753.984)"/></svg>