<svg xmlns="http://www.w3.org/2000/svg" xml:space="preserve" style="fill-rule:evenodd;clip-rule:evenodd;stroke-linejoin:round;stroke-miterlimit:2" viewBox="0 0 1800 541"><path d="M1791.65 1056.05c0 15.04-1.9 28.56-5.71 40.57-3.81 12.02-8.84 22.61-15.09 31.79s-13.57 16.99-21.97 23.44c-8.4 6.44-17.09 11.72-26.07 15.82-8.99 4.1-18.12 7.13-27.4 9.08-9.27 1.95-18.01 2.93-26.22 2.93h-293.84v-76.17h293.84c14.65 0 26.03-4.3 34.13-12.89 8.11-8.6 12.16-20.12 12.16-34.57 0-7.03-1.07-13.48-3.22-19.34s-5.22-10.94-9.23-15.23c-4-4.3-8.89-7.62-14.65-9.96-5.76-2.35-12.15-3.52-19.19-3.52H1494c-12.31 0-25.59-2.2-39.85-6.59-14.25-4.395-27.49-11.475-39.69-21.241-12.21-9.766-22.37-22.559-30.47-38.379-8.11-15.82-12.16-35.156-12.16-58.008 0-22.851 4.05-42.138 12.16-57.861 8.1-15.723 18.26-28.516 30.47-38.379 12.2-9.863 25.44-16.992 39.69-21.387 14.26-4.394 27.54-6.592 39.85-6.592h259.28v76.172H1494q-21.675 0-33.84 13.184c-8.1 8.789-12.16 20.41-12.16 34.863 0 14.649 4.06 26.221 12.16 34.717q12.165 12.744 33.84 12.744h175.78q12.3.293 26.07 3.369c9.18 2.051 18.31 5.225 27.4 9.522q13.62 6.446 25.92 16.26c8.21 6.542 15.48 14.404 21.83 23.583 6.35 9.18 11.38 19.723 15.09 31.643 3.71 11.91 5.56 25.39 5.56 40.43" style="fill:#fff;fill-rule:nonzero" transform="matrix(1.24112 0 -.40326 1.24112 -83.483 -933.402)"/><path d="M1761.16 752.063v91.172h-264.73c-12.67 0-22.57 3.83-29.68 11.535-7.27 7.891-10.86 18.353-10.86 31.33 0 11.981 2.69 21.456 9.32 28.405 6.3 6.602 15.12 9.238 26.35 9.238h175.2s.58 0 .76.002c8.72.208 17.96 1.396 27.72 3.576 9.9 2.211 19.75 5.633 29.54 10.266q14.835 7.017 28.23 17.702c9.09 7.247 17.16 15.94 24.19 26.107 6.89 9.96 12.39 21.394 16.42 34.324 3.91 12.56 5.92 26.79 5.92 42.65 0 15.68-2 29.78-5.97 42.31-3.96 12.49-9.2 23.5-15.7 33.05-6.54 9.6-14.2 17.77-22.99 24.51-8.71 6.68-17.72 12.14-27.04 16.4-9.37 4.28-18.9 7.43-28.58 9.47-9.78 2.06-18.99 3.07-27.63 3.07h-304.17v-91.17h299.3c12.86 0 22.89-3.73 30.01-11.28 7.26-7.7 10.83-18.05 10.83-31 0-6.08-.87-11.64-2.73-16.7-1.64-4.48-3.93-8.38-6.99-11.66-2.85-3.07-6.36-5.39-10.47-7.06-4.74-1.93-10-2.81-15.78-2.81h-175.2c-13.09 0-27.23-2.32-42.4-7-15.6-4.8-30.07-12.555-43.42-23.238-13.41-10.722-24.65-24.72-33.54-42.09-8.62-16.824-13.13-37.407-13.13-61.707 0-23.851 4.28-43.96 12.74-60.37 8.42-16.339 19-29.62 31.68-39.87 12.74-10.289 26.55-17.708 41.43-22.292 14.94-4.605 28.87-6.87 41.77-6.87zm-15.77 15h-248.96c-11.71 0-24.33 2.131-37.91 6.314-13.64 4.205-26.29 11.044-37.97 20.482-11.72 9.476-21.46 21.782-29.25 36.887-7.75 15.036-11.58 33.501-11.58 55.354 0 21.403 3.6 39.491 11.19 54.308 7.31 14.271 16.39 25.859 27.4 34.668 11.06 8.848 23.05 15.256 35.97 19.238 13.34 4.111 25.77 6.186 37.28 6.186h175.2c8.28 0 15.82 1.47 22.6 4.23 7.41 3.01 13.67 7.33 18.82 12.86 4.95 5.31 8.82 11.57 11.47 18.81 2.44 6.65 3.72 13.98 3.72 21.97 0 15.96-4.54 28.65-13.49 38.14-9.09 9.64-21.82 14.5-38.25 14.5h-288.4v61.17h283.53c7.76 0 16.03-.94 24.81-2.79 8.88-1.87 17.61-4.77 26.2-8.69 8.65-3.95 17.02-9.04 25.11-15.24 8.01-6.15 15-13.61 20.96-22.37 6-8.81 10.82-18.99 14.47-30.52 3.65-11.49 5.46-24.45 5.46-38.84 0-14.22-1.71-26.95-5.21-38.21-3.4-10.9-7.95-20.562-13.76-28.961-5.67-8.193-12.14-15.222-19.46-21.061-7.48-5.962-15.35-10.903-23.63-14.818-8.37-3.96-16.78-6.886-25.24-8.776-8.6-1.922-16.75-2.98-24.25-3.161h-175.79c-17.68 0-31.4-5.855-41.32-16.25-9.58-10.046-14.99-23.708-14.99-41.028 0-15.93 4.51-28.71 13.45-38.397 9.1-9.873 21.76-14.833 37.99-14.833h253.83z" style="fill:#fff" transform="matrix(1.24112 0 -.40326 1.24112 -83.483 -933.402)"/><path d="M1310.44 1008h-233.35v-76.757h233.35zm33.98-172.265h-305.27v343.945h-76.175V797.942q0-7.91 2.929-14.941 2.93-7.032 8.057-12.305t12.158-8.203q7.033-2.93 15.231-2.93h343.07z" style="fill:#fff;fill-rule:nonzero" transform="matrix(1.24112 0 -.40326 1.24112 -112.245 -933.402)"/><path d="M1352.31 843.235h-305.28v343.945h-91.941V795.625c0-6.031 1.106-11.731 3.34-17.092q3.281-7.872 9.023-13.777 5.818-5.981 13.796-9.304c5.435-2.264 11.327-3.389 17.669-3.389h353.393zm-348.52-76.172c-19.453.221-32.715 14.981-32.929 33.197v371.92h60.399V828.235h305.27v-61.172zm314.53 156.68v91.757h-249.11v-91.757zm-233.34 15v61.757h217.57v-61.757z" style="fill:#fff" transform="matrix(1.24112 0 -.40326 1.24112 -112.245 -933.402)"/><path d="M815.74 759.563h76.172v420.117H815.74z" style="fill:#fff;fill-rule:nonzero" transform="matrix(1.24112 0 -.40326 1.24112 -138.48 -933.402)"/><path d="M899.798 1187.18V752.063h-91.944v435.117zm-76.172-420.117v405.117h60.4V767.063z" style="fill:#fff" transform="matrix(1.24112 0 -.40326 1.24112 -138.48 -933.402)"/><path d="M139.086 763.292h475.069v521.416H139.086z" style="fill:#f50" transform="matrix(.57065 0 -.32492 1 350.857 -753.984)"/><path d="M631.291 753.992H121.95v540.018h509.341zm-475.069 18.6v502.818h440.797V772.592z" style="fill:#f50" transform="matrix(.57065 0 -.32492 1 350.857 -753.984)"/></svg>