<?xml version="1.0" encoding="UTF-8" standalone="no"?>
<!DOCTYPE svg PUBLIC "-//W3C//DTD SVG 1.1//EN" "http://www.w3.org/Graphics/SVG/1.1/DTD/svg11.dtd">
<svg width="100%" height="100%" viewBox="0 0 1865 744" version="1.1" xmlns="http://www.w3.org/2000/svg" xmlns:xlink="http://www.w3.org/1999/xlink" xml:space="preserve" xmlns:serif="http://www.serif.com/" style="fill-rule:evenodd;clip-rule:evenodd;stroke-miterlimit:2;">
    <g transform="matrix(1,0,0,1,-91.6172,-654.266)">
        <g transform="matrix(1.34606,0,0,1.5315,-198.42,-202.839)">
            <g transform="matrix(0.742909,0,0,0.652955,96.5611,171.407)">
                <rect x="397.107" y="598.094" width="36.563" height="201.656" style="fill-rule:nonzero;"/>
            </g>
        </g>
        <g transform="matrix(1.34606,0,0,1.5315,-198.42,-202.839)">
            <g transform="matrix(0.742909,0,0,0.652955,96.5611,171.407)">
                <path d="M437.169,803.251L437.169,594.594L393.607,594.594L393.607,803.251L437.169,803.251ZM400.607,601.594L400.607,796.251L430.169,796.251L430.169,601.594L400.607,601.594Z"/>
            </g>
        </g>
        <g transform="matrix(1.34606,0,0,1.5315,-198.42,-202.839)">
            <g transform="matrix(0.742909,0,0,0.652955,96.5611,171.407)">
                <path d="M670.201,740.407C670.201,747.626 669.287,754.118 667.459,759.883C665.63,765.649 663.216,770.735 660.216,775.141C657.216,779.547 653.701,783.297 649.669,786.391C645.638,789.485 641.466,792.016 637.154,793.985C632.841,795.954 628.459,797.407 624.005,798.344C619.552,799.282 615.357,799.751 611.419,799.751L470.373,799.751L470.373,763.188L611.419,763.188C618.451,763.188 623.912,761.126 627.802,757.001C631.693,752.876 633.638,747.344 633.638,740.407C633.638,737.032 633.123,733.938 632.091,731.126C631.06,728.313 629.584,725.876 627.662,723.813C625.74,721.751 623.396,720.157 620.63,719.032C617.865,717.907 614.794,717.344 611.419,717.344L527.326,717.344C521.419,717.344 515.044,716.29 508.201,714.18C501.357,712.071 495.005,708.672 489.146,703.985C483.287,699.297 478.412,693.157 474.521,685.563C470.63,677.969 468.685,668.688 468.685,657.719C468.685,646.751 470.63,637.493 474.521,629.946C478.412,622.399 483.287,616.258 489.146,611.524C495.005,606.79 501.357,603.368 508.201,601.258C515.044,599.149 521.419,598.094 527.326,598.094L651.779,598.094L651.779,634.657L527.326,634.657C520.388,634.657 514.974,636.766 511.084,640.985C507.193,645.204 505.248,650.782 505.248,657.719C505.248,664.751 507.193,670.305 511.084,674.383C514.974,678.461 520.388,680.501 527.326,680.501L611.701,680.501C615.638,680.594 619.81,681.133 624.216,682.118C628.623,683.102 633.005,684.626 637.365,686.688C641.724,688.751 645.873,691.352 649.81,694.493C653.748,697.633 657.24,701.407 660.287,705.813C663.334,710.219 665.748,715.282 667.529,721.001C669.31,726.719 670.201,733.188 670.201,740.407Z" style="fill-rule:nonzero;"/>
            </g>
        </g>
        <g transform="matrix(1.34606,0,0,1.5315,-198.42,-202.839)">
            <g transform="matrix(0.742909,0,0,0.652955,96.5611,171.407)">
                <path d="M655.279,594.594L655.279,638.157C655.279,638.157 527.326,638.157 527.326,638.157C521.505,638.157 516.921,639.818 513.656,643.358C510.325,646.971 508.748,651.778 508.748,657.719C508.748,663.715 510.298,668.49 513.616,671.967C516.89,675.399 521.488,677.001 527.326,677.001L611.419,677.001C611.419,677.001 611.701,677.001 611.784,677.002C615.935,677.1 620.334,677.664 624.979,678.702C629.631,679.741 634.259,681.347 638.862,683.524C643.461,685.7 647.838,688.443 651.993,691.757C656.19,695.105 659.917,699.125 663.165,703.822C666.404,708.505 668.977,713.882 670.87,719.96C672.747,725.986 673.701,732.8 673.701,740.407C673.701,748.018 672.722,754.862 670.795,760.941C668.857,767.053 666.29,772.44 663.109,777.111C659.894,781.834 656.122,785.851 651.8,789.168C647.551,792.429 643.153,795.094 638.607,797.169C634.055,799.247 629.427,800.78 624.726,801.769C620.018,802.76 615.582,803.251 611.419,803.251L466.873,803.251L466.873,759.688L611.419,759.688C617.339,759.688 621.981,758.072 625.256,754.599C628.576,751.079 630.138,746.326 630.138,740.407C630.138,737.471 629.702,734.777 628.805,732.33C627.941,729.974 626.711,727.927 625.101,726.199C623.52,724.502 621.587,723.199 619.312,722.274C616.943,721.31 614.31,720.844 611.419,720.844L527.326,720.844C521.102,720.844 514.382,719.748 507.17,717.525C499.912,715.288 493.173,711.689 486.96,706.718C480.735,701.738 475.54,695.227 471.406,687.159C467.291,679.127 465.185,669.321 465.185,657.719C465.185,646.113 467.293,636.328 471.41,628.342C475.539,620.332 480.728,613.826 486.946,608.802C493.164,603.778 499.907,600.152 507.17,597.914C514.382,595.691 521.102,594.594 527.326,594.594L655.279,594.594ZM648.279,601.594L527.326,601.594C521.737,601.594 515.707,602.607 509.232,604.603C502.807,606.583 496.847,609.802 491.346,614.246C485.846,618.69 481.284,624.466 477.632,631.55C473.967,638.658 472.185,647.388 472.185,657.719C472.185,668.055 473.97,676.811 477.636,683.967C481.284,691.087 485.839,696.857 491.332,701.252C496.837,705.656 502.802,708.854 509.232,710.836C515.707,712.831 521.737,713.844 527.326,713.844L611.419,713.844C615.279,713.844 618.787,714.503 621.949,715.79C625.205,717.114 627.96,718.999 630.222,721.427C632.456,723.824 634.179,726.652 635.377,729.921C636.543,733.099 637.138,736.593 637.138,740.407C637.138,748.363 634.81,754.672 630.348,759.402C625.842,764.18 619.563,766.688 611.419,766.688L473.873,766.688L473.873,796.251L611.419,796.251C615.132,796.251 619.086,795.803 623.284,794.919C627.49,794.034 631.628,792.66 635.7,790.801C639.78,788.939 643.725,786.541 647.539,783.615C651.28,780.744 654.539,777.261 657.323,773.171C660.143,769.03 662.404,764.245 664.122,758.826C665.851,753.374 666.701,747.233 666.701,740.407C666.701,733.576 665.873,727.453 664.187,722.041C662.518,716.682 660.263,711.933 657.408,707.804C654.563,703.689 651.305,700.162 647.628,697.229C643.907,694.261 639.988,691.801 635.868,689.852C631.752,687.904 627.614,686.463 623.453,685.534C619.286,684.603 615.341,684.088 611.701,684.001L527.326,684.001C519.288,684.001 513.059,681.524 508.551,676.799C504.088,672.121 501.748,665.786 501.748,657.719C501.748,649.785 504.061,643.437 508.511,638.612C513.028,633.714 519.271,631.157 527.326,631.157L648.279,631.157L648.279,601.594Z"/>
            </g>
        </g>
        <g transform="matrix(1.34606,0,0,1.5315,-198.42,-202.839)">
            <g transform="matrix(0.742909,0,0,0.652955,96.5611,171.407)">
                <path d="M866.373,717.344L750.919,717.344L750.919,680.501L866.373,680.501L866.373,717.344ZM882.826,799.751L750.919,799.751C745.857,799.751 740.326,798.86 734.326,797.079C728.326,795.297 722.771,792.368 717.662,788.29C712.552,784.211 708.287,778.915 704.865,772.399C701.443,765.883 699.732,757.891 699.732,748.422L699.732,616.516C699.732,613.985 700.201,611.594 701.138,609.344C702.076,607.094 703.365,605.126 705.005,603.438C706.646,601.751 708.591,600.438 710.841,599.501C713.091,598.563 715.529,598.094 718.154,598.094L882.826,598.094L882.826,634.657L736.294,634.657L736.294,748.422C736.294,753.204 737.56,756.86 740.091,759.391C742.623,761.922 746.326,763.188 751.201,763.188L882.826,763.188L882.826,799.751Z" style="fill-rule:nonzero;"/>
            </g>
        </g>
        <g transform="matrix(1.34606,0,0,1.5315,-198.42,-202.839)">
            <g transform="matrix(0.742909,0,0,0.652955,96.5611,171.407)">
                <path d="M886.326,638.157L739.794,638.157L739.794,748.422C739.794,752.103 740.618,754.968 742.566,756.916C744.521,758.872 747.435,759.688 751.201,759.688L886.326,759.688L886.326,803.251L750.919,803.251C745.554,803.251 739.689,802.322 733.33,800.434C726.903,798.526 720.951,795.393 715.478,791.025C710.009,786.66 705.429,781.001 701.766,774.026C698.11,767.066 696.232,758.538 696.232,748.422L696.232,616.516C696.232,613.509 696.794,610.671 697.907,607.998C699.019,605.331 700.551,602.999 702.496,600.998C704.464,598.974 706.796,597.395 709.495,596.27C712.16,595.159 715.045,594.594 718.154,594.594L886.326,594.594L886.326,638.157ZM879.326,631.157L879.326,601.594L718.154,601.594C715.981,601.618 713.847,601.989 711.853,602.875C706.541,605.238 703.232,610.756 703.232,616.516C703.231,660.485 703.23,704.454 703.232,748.422C703.232,754.785 704.015,761.253 706.343,767.211C707.352,769.794 708.681,772.244 710.162,774.585C712.271,777.921 714.772,781.016 717.677,783.693C726.607,791.923 738.868,796.117 750.919,796.251L879.326,796.251L879.326,766.688L751.201,766.688C748.679,766.665 746.16,766.392 743.757,765.591C742.382,765.133 741.062,764.508 739.856,763.702C734.758,760.299 732.795,754.326 732.794,748.422C732.793,709.334 732.794,670.245 732.794,631.157L879.326,631.157ZM869.873,720.844L869.873,677.001L747.419,677.001L747.419,720.844L869.873,720.844ZM754.419,684.001L754.419,713.844L862.873,713.844L862.873,684.001L754.419,684.001Z"/>
            </g>
        </g>
        <g transform="matrix(1.34606,0,0,1.5315,-198.42,-202.839)">
            <g transform="matrix(0.742909,0,0,0.652955,96.5611,171.407)">
                <path d="M1103.33,799.751L936.544,799.751C933.919,799.751 931.482,799.282 929.232,798.344C926.982,797.407 925.037,796.118 923.396,794.477C921.755,792.836 920.466,790.891 919.529,788.641C918.591,786.391 918.123,783.954 918.123,781.329L918.123,598.094L954.685,598.094L954.685,763.188L1103.33,763.188L1103.33,799.751Z" style="fill-rule:nonzero;"/>
            </g>
        </g>
        <g transform="matrix(1.34606,0,0,1.5315,-198.42,-202.839)">
            <g transform="matrix(0.742909,0,0,0.652955,96.5611,171.407)">
                <path d="M958.185,759.688L1106.83,759.688L1106.83,803.251L936.544,803.251C933.436,803.251 930.551,802.685 927.886,801.575C925.199,800.456 922.88,798.911 920.921,796.952C918.962,794.993 917.417,792.674 916.298,789.987C915.188,787.323 914.623,784.438 914.623,781.329L914.623,594.594L958.185,594.594L958.185,759.688ZM951.185,601.594L921.623,601.594L921.623,781.329C921.641,783 921.85,784.653 922.371,786.246C923.764,790.513 927.047,793.878 931.274,795.382C932.972,795.986 934.748,796.231 936.544,796.251L1099.83,796.251L1099.83,766.688L951.185,766.688L951.185,601.594Z"/>
            </g>
        </g>
        <g transform="matrix(1.34606,0,0,1.5315,-198.42,-202.839)">
            <g transform="matrix(0.742909,0,0,0.652955,96.5611,171.407)">
                <path d="M563.607,981.344L448.013,981.344L448.013,944.501L563.607,944.501L563.607,981.344ZM579.919,898.657L433.388,898.657L433.388,1063.75L396.826,1063.75L396.826,880.516C396.826,877.985 397.294,875.594 398.232,873.344C399.169,871.094 400.459,869.126 402.099,867.438C403.74,865.751 405.685,864.438 407.935,863.501C410.185,862.563 412.623,862.094 415.248,862.094L579.919,862.094L579.919,898.657Z" style="fill-rule:nonzero;"/>
            </g>
        </g>
        <g transform="matrix(1.34606,0,0,1.5315,-198.42,-202.839)">
            <g transform="matrix(0.742909,0,0,0.652955,96.5611,171.407)">
                <path d="M583.419,902.157L436.888,902.157L436.888,1067.25L393.326,1067.25C393.326,1067.25 393.326,880.516 393.326,880.516C393.326,877.509 393.888,874.671 395.001,871.998C396.113,869.331 397.645,866.999 399.59,864.998C401.558,862.974 403.889,861.395 406.589,860.27C409.254,859.159 412.139,858.594 415.248,858.594L583.419,858.594L583.419,902.157ZM415.248,865.594C413.326,865.615 411.427,865.898 409.627,866.593C403.9,868.803 400.395,874.472 400.326,880.516L400.326,1060.25L429.888,1060.25L429.888,895.157L576.419,895.157L576.419,865.594L415.248,865.594ZM567.107,984.844L567.107,941.001L444.513,941.001L444.513,984.844L567.107,984.844ZM451.513,948.001L451.513,977.844L560.107,977.844L560.107,948.001L451.513,948.001Z"/>
            </g>
        </g>
        <g transform="matrix(1.34606,0,0,1.5315,-198.42,-202.839)">
            <g transform="matrix(0.742909,0,0,0.652955,96.5611,171.407)">
                <path d="M819.826,982.188C819.826,994.469 817.716,1005.77 813.498,1016.08C809.279,1026.39 803.419,1035.3 795.919,1042.8C788.419,1050.3 779.537,1056.13 769.271,1060.31C759.005,1064.48 747.826,1066.56 735.732,1066.56L686.232,1066.56C674.138,1066.56 662.935,1064.48 652.623,1060.31C642.31,1056.13 633.404,1050.3 625.904,1042.8C618.404,1035.3 612.521,1026.39 608.255,1016.08C603.99,1005.77 601.857,994.469 601.857,982.188L601.857,943.657C601.857,931.469 603.99,920.196 608.255,909.836C612.521,899.477 618.404,890.571 625.904,883.118C633.404,875.665 642.31,869.829 652.623,865.61C662.935,861.391 674.138,859.282 686.232,859.282L735.732,859.282C747.826,859.282 759.005,861.391 769.271,865.61C779.537,869.829 788.419,875.665 795.919,883.118C803.419,890.571 809.279,899.477 813.498,909.836C817.716,920.196 819.826,931.469 819.826,943.657L819.826,982.188ZM783.263,943.657C783.263,936.438 782.115,929.899 779.818,924.04C777.521,918.18 774.287,913.165 770.115,908.993C765.943,904.821 760.927,901.586 755.068,899.29C749.209,896.993 742.763,895.844 735.732,895.844L686.232,895.844C679.107,895.844 672.615,896.993 666.755,899.29C660.896,901.586 655.857,904.821 651.638,908.993C647.419,913.165 644.162,918.18 641.865,924.04C639.568,929.899 638.419,936.438 638.419,943.657L638.419,982.188C638.419,989.407 639.568,995.946 641.865,1001.81C644.162,1007.67 647.419,1012.68 651.638,1016.85C655.857,1021.02 660.896,1024.26 666.755,1026.56C672.615,1028.85 679.107,1030 686.232,1030L735.451,1030C742.576,1030 749.068,1028.85 754.927,1026.56C760.787,1024.26 765.826,1021.02 770.044,1016.85C774.263,1012.68 777.521,1007.67 779.818,1001.81C782.115,995.946 783.263,989.407 783.263,982.188L783.263,943.657Z" style="fill-rule:nonzero;"/>
            </g>
        </g>
        <g transform="matrix(1.34606,0,0,1.5315,-198.42,-202.839)">
            <g transform="matrix(0.742909,0,0,0.652955,96.5611,171.407)">
                <path d="M735.732,855.782C748.306,855.782 759.928,857.986 770.601,862.373C781.306,866.772 790.566,872.863 798.387,880.635C806.214,888.414 812.336,897.705 816.739,908.516C821.123,919.281 823.326,930.993 823.326,943.657L823.326,982.188C823.326,994.95 821.121,1006.69 816.737,1017.4C812.336,1028.16 806.218,1037.45 798.394,1045.27C790.568,1053.1 781.301,1059.19 770.589,1063.55C759.919,1067.88 748.302,1070.06 735.732,1070.06L686.232,1070.06C673.665,1070.06 662.026,1067.88 651.31,1063.55C640.547,1059.2 631.256,1053.1 623.429,1045.27C615.609,1037.45 609.469,1028.17 605.021,1017.42C600.587,1006.7 598.357,994.955 598.357,982.188L598.357,943.657C598.357,930.988 600.585,919.272 605.019,908.504C609.469,897.697 615.613,888.41 623.437,880.635C631.258,872.862 640.543,866.77 651.297,862.371C662.017,857.985 673.661,855.782 686.232,855.782L735.732,855.782ZM735.732,1063.06C747.35,1063.06 758.092,1061.07 767.953,1057.06C777.772,1053.07 786.271,1047.5 793.445,1040.32C800.621,1033.15 806.222,1024.62 810.258,1014.75C814.312,1004.85 816.326,993.988 816.326,982.188C816.326,982.188 816.326,943.657 816.326,943.657C816.326,931.946 814.31,921.111 810.256,911.157C806.222,901.25 800.625,892.728 793.452,885.6C786.273,878.466 777.767,872.885 767.941,868.847C758.083,864.796 747.345,862.782 735.732,862.782C735.732,862.782 686.232,862.782 686.232,862.782C674.616,862.782 663.853,864.797 653.948,868.849C644.078,872.887 635.549,878.467 628.371,885.6C621.195,892.731 615.573,901.257 611.492,911.169C607.395,921.12 605.357,931.95 605.357,943.657C605.357,943.657 605.357,982.188 605.357,982.188C605.357,993.984 607.393,1004.84 611.49,1014.74C615.573,1024.61 621.199,1033.14 628.379,1040.32C635.551,1047.5 644.073,1053.07 653.935,1057.06C663.844,1061.07 674.611,1063.06 686.232,1063.06L735.732,1063.06ZM735.732,892.344C743.229,892.344 750.098,893.582 756.345,896.031C762.673,898.512 768.084,902.013 772.59,906.518C777.095,911.023 780.596,916.435 783.076,922.762C785.523,929.004 786.763,935.967 786.763,943.657C786.763,943.657 786.763,982.188 786.763,982.188C786.763,989.878 785.523,996.841 783.076,1003.08C780.594,1009.42 777.065,1014.83 772.505,1019.34C767.955,1023.84 762.525,1027.34 756.205,1029.81C749.96,1032.26 743.044,1033.5 735.451,1033.5C735.451,1033.5 686.232,1033.5 686.232,1033.5C678.639,1033.5 671.723,1032.26 665.478,1029.81C659.158,1027.34 653.728,1023.84 649.177,1019.34C644.617,1014.83 641.089,1009.42 638.606,1003.08C636.159,996.841 634.919,989.878 634.919,982.188C634.919,982.188 634.919,943.657 634.919,943.657C634.919,935.967 636.159,929.004 638.606,922.762C641.089,916.429 644.617,911.013 649.177,906.504C653.728,902.004 659.158,898.508 665.478,896.031C671.723,893.583 678.639,892.344 686.232,892.344L735.732,892.344ZM735.451,1026.5C742.107,1026.5 748.176,1025.44 753.65,1023.3C759.049,1021.18 763.696,1018.21 767.583,1014.36C771.461,1010.53 774.448,1005.91 776.559,1000.53C778.706,995.051 779.763,988.936 779.763,982.188L779.763,943.657C779.763,936.909 778.706,930.794 776.559,925.317C774.446,919.926 771.478,915.306 767.64,911.468C763.802,907.629 759.182,904.661 753.791,902.548C748.319,900.403 742.298,899.344 735.732,899.344L686.232,899.344C679.575,899.344 673.507,900.402 668.033,902.548C662.634,904.665 657.986,907.637 654.099,911.481C650.221,915.316 647.235,919.931 645.123,925.317C642.976,930.794 641.919,936.909 641.919,943.657L641.919,982.188C641.919,988.936 642.976,995.051 645.123,1000.53C647.235,1005.91 650.221,1010.53 654.099,1014.36C657.986,1018.21 662.634,1021.18 668.033,1023.3C673.507,1025.44 679.575,1026.5 686.232,1026.5L735.451,1026.5Z"/>
            </g>
        </g>
        <g transform="matrix(1.34606,0,0,1.5315,-198.42,-202.839)">
            <g transform="matrix(0.742909,0,0,0.652955,96.5611,171.407)">
                <path d="M1057.48,929.876C1057.48,938.219 1056.45,945.672 1054.39,952.235C1052.33,958.797 1049.54,964.586 1046.02,969.602C1042.51,974.618 1038.45,978.907 1033.86,982.469C1029.26,986.032 1024.46,988.961 1019.44,991.258C1014.43,993.555 1009.37,995.219 1004.25,996.251C999.146,997.282 994.341,997.797 989.841,997.797L1066.2,1063.75L1009.67,1063.75L933.451,997.797L907.154,997.797L907.154,961.235L989.841,961.235C994.435,960.86 998.63,959.899 1002.43,958.352C1006.22,956.805 1009.5,954.719 1012.27,952.094C1015.04,949.469 1017.17,946.305 1018.67,942.602C1020.17,938.899 1020.92,934.657 1020.92,929.876L1020.92,906.813C1020.92,904.751 1020.66,903.18 1020.15,902.102C1019.63,901.024 1018.97,900.227 1018.18,899.711C1017.38,899.196 1016.54,898.891 1015.65,898.797C1014.75,898.704 1013.94,898.657 1013.19,898.657L892.529,898.657L892.529,1063.75L855.966,1063.75L855.966,880.516C855.966,877.985 856.435,875.594 857.373,873.344C858.31,871.094 859.599,869.126 861.24,867.438C862.88,865.751 864.826,864.438 867.076,863.501C869.326,862.563 871.763,862.094 874.388,862.094L1013.19,862.094C1021.34,862.094 1028.23,863.571 1033.86,866.524C1039.48,869.477 1044.05,873.18 1047.57,877.633C1051.08,882.086 1053.62,886.891 1055.16,892.047C1056.71,897.204 1057.48,902.032 1057.48,906.532L1057.48,929.876Z" style="fill-rule:nonzero;"/>
            </g>
        </g>
        <g transform="matrix(1.34606,0,0,1.5315,-198.42,-202.839)">
            <g transform="matrix(0.742909,0,0,0.652955,96.5611,171.407)">
                <path d="M896.029,902.157L896.029,1067.25L852.466,1067.25C852.466,1067.25 852.466,880.516 852.466,880.516C852.466,877.509 853.028,874.671 854.142,871.998C855.253,869.331 856.785,866.999 858.73,864.998C860.699,862.974 863.03,861.395 865.73,860.27C868.394,859.159 871.279,858.594 874.388,858.594L1013.19,858.594C1021.99,858.594 1029.41,860.238 1035.48,863.425C1041.57,866.622 1046.51,870.644 1050.32,875.465C1054.11,880.276 1056.84,885.471 1058.51,891.042C1060.17,896.555 1060.98,901.72 1060.98,906.532L1060.98,929.876C1060.98,938.612 1059.89,946.413 1057.73,953.284C1055.55,960.211 1052.6,966.317 1048.89,971.611C1045.16,976.923 1040.87,981.462 1036,985.235C1031.19,988.967 1026.15,992.034 1020.9,994.441C1015.63,996.853 1010.31,998.598 1004.95,999.681C1002.77,1000.12 1000.66,1000.47 998.587,1000.73L1075.61,1067.25C1053.19,1067.25 1030.78,1067.25 1008.37,1067.25L932.147,1001.3L903.654,1001.3L903.654,957.735L989.686,957.735C993.85,957.385 997.659,956.516 1001.11,955.111C1004.48,953.736 1007.4,951.889 1009.86,949.556C1012.27,947.271 1014.12,944.512 1015.43,941.288C1016.77,937.969 1017.42,934.162 1017.42,929.876L1017.42,906.813C1017.42,905.418 1017.34,904.342 1016.99,903.612C1016.79,903.195 1016.58,902.849 1016.28,902.65C1015.96,902.446 1015.63,902.315 1015.28,902.278C1014.52,902.198 1013.82,902.157 1013.19,902.157L896.029,902.157ZM989.841,994.297C994.125,994.297 998.699,993.801 1003.56,992.82C1008.42,991.84 1013.22,990.258 1017.99,988.076C1022.76,985.889 1027.34,983.096 1031.71,979.704C1036.04,976.351 1039.85,972.313 1043.15,967.593C1046.48,962.856 1049.1,957.384 1051.05,951.186C1053.02,944.932 1053.98,937.827 1053.98,929.876L1053.98,906.532C1053.98,902.344 1053.25,897.852 1051.81,893.053C1050.39,888.312 1048.05,883.897 1044.82,879.802C1041.6,875.716 1037.39,872.332 1032.23,869.623C1027.05,866.904 1020.7,865.594 1013.19,865.594C1013.19,865.594 874.388,865.594 874.388,865.594C872.247,865.594 870.257,865.967 868.422,866.731C866.621,867.481 865.062,868.528 863.749,869.878C862.413,871.252 861.367,872.858 860.603,874.69C859.842,876.518 859.466,878.46 859.466,880.516L859.466,1060.25L889.029,1060.25L889.029,895.157L1013.19,895.157C1014.05,895.157 1014.99,895.209 1016.01,895.317C1017.44,895.467 1018.8,895.945 1020.08,896.773C1021.37,897.605 1022.47,898.852 1023.3,900.592C1023.99,902.019 1024.42,904.083 1024.42,906.813C1024.42,906.813 1024.42,929.876 1024.42,929.876C1024.42,935.152 1023.57,939.829 1021.91,943.916C1020.22,948.099 1017.8,951.668 1014.68,954.633C1011.61,957.55 1007.97,959.875 1003.75,961.593C999.638,963.268 995.099,964.317 990.126,964.723L989.984,964.735L910.654,964.735L910.654,994.297L934.755,994.297L1010.97,1060.25L1056.79,1060.25L980.435,994.297L989.841,994.297Z"/>
            </g>
        </g>
        <g transform="matrix(1.34606,0,0,1.5315,-198.42,-202.839)">
            <g transform="matrix(0.742909,0,0,0.652955,96.5611,171.407)">
                <path d="M1328.89,1063.75L1292.04,1063.75L1292.04,943.657L1227.22,1057.7C1225.62,1060.61 1223.4,1062.81 1220.54,1064.31C1217.68,1065.81 1214.61,1066.56 1211.33,1066.56C1208.14,1066.56 1205.16,1065.81 1202.4,1064.31C1199.63,1062.81 1197.45,1060.61 1195.86,1057.7L1130.75,943.657L1130.75,1063.75L1094.18,1063.75L1094.18,877.704C1094.18,873.485 1095.43,869.735 1097.91,866.454C1100.4,863.172 1103.65,860.969 1107.68,859.844C1109.65,859.376 1111.62,859.211 1113.59,859.352C1115.56,859.493 1117.46,859.915 1119.29,860.618C1121.12,861.321 1122.78,862.305 1124.28,863.571C1125.78,864.836 1127.04,866.36 1128.08,868.141L1211.33,1012.84L1294.58,868.141C1296.73,864.579 1299.71,862.047 1303.51,860.547C1307.3,859.047 1311.26,858.813 1315.39,859.844C1319.33,860.969 1322.56,863.172 1325.09,866.454C1327.62,869.735 1328.89,873.485 1328.89,877.704L1328.89,1063.75Z" style="fill-rule:nonzero;"/>
            </g>
        </g>
        <g transform="matrix(1.34606,0,0,1.5315,-198.42,-202.839)">
            <g transform="matrix(0.742909,0,0,0.652955,96.5611,171.407)">
                <path d="M1211.33,1005.83L1291.58,866.329C1294.15,862.087 1297.7,859.078 1302.22,857.292C1306.7,855.523 1311.37,855.232 1316.24,856.449L1316.35,856.479C1321.02,857.814 1324.86,860.423 1327.86,864.316C1330.88,868.221 1332.39,872.682 1332.39,877.704L1332.39,1067.25L1288.54,1067.25L1288.54,956.897L1230.29,1059.39C1228.98,1061.72 1227.3,1063.8 1225.2,1065.45C1217.53,1071.48 1205.8,1071.64 1198.07,1065.66C1195.89,1063.97 1194.16,1061.83 1192.82,1059.44L1134.25,956.847L1134.25,1067.25L1090.68,1067.25C1090.68,1067.25 1090.68,877.704 1090.68,877.704C1090.68,872.692 1092.17,868.239 1095.12,864.341C1098.08,860.438 1101.95,857.811 1106.81,856.455L1106.87,856.439C1109.2,855.887 1111.52,855.695 1113.84,855.861C1116.16,856.027 1118.39,856.524 1120.54,857.351C1122.74,858.195 1124.74,859.377 1126.54,860.896C1128.34,862.418 1129.87,864.246 1131.11,866.392L1211.33,1005.83ZM1314.48,863.226C1311.12,862.396 1307.89,862.579 1304.79,863.803C1301.72,865.016 1299.32,867.071 1297.61,869.887L1211.33,1019.86C1211.33,1019.86 1125.04,869.887 1125.05,869.895C1124.22,868.474 1123.22,867.255 1122.02,866.246C1120.82,865.234 1119.49,864.447 1118.03,863.884C1116.53,863.306 1114.96,862.959 1113.34,862.843C1111.75,862.729 1110.15,862.861 1108.56,863.234L1108.32,863.304C1103.71,864.732 1099.96,868.224 1098.44,872.85C1097.92,874.42 1097.7,876.054 1097.68,877.704L1097.68,1060.25L1127.25,1060.25L1127.25,930.467C1127.25,930.467 1198.9,1055.97 1198.93,1056.02C1200.18,1058.31 1201.89,1060.06 1204.07,1061.24C1206.31,1062.46 1208.73,1063.06 1211.33,1063.06C1214.03,1063.06 1216.56,1062.45 1218.91,1061.21C1221.15,1060.04 1222.9,1058.3 1224.16,1056L1295.54,930.417L1295.54,1060.25L1325.39,1060.25L1325.39,877.704C1325.37,876.057 1325.15,874.427 1324.62,872.863C1323.08,868.284 1319.3,864.746 1314.73,863.298L1314.48,863.226Z"/>
            </g>
        </g>
        <g transform="matrix(1.34606,0,0,1.5315,-198.42,-202.839)">
            <g transform="matrix(0.742909,0,0,0.652955,96.5611,171.407)">
                <path d="M1568.93,1045.33C1568.93,1047.95 1568.47,1050.39 1567.53,1052.64C1566.59,1054.89 1565.28,1056.84 1563.59,1058.48C1561.9,1060.12 1559.93,1061.41 1557.68,1062.34C1555.43,1063.28 1553.04,1063.75 1550.51,1063.75L1468.11,1063.75C1460.33,1063.75 1452.45,1062.91 1444.48,1061.22C1436.51,1059.53 1428.8,1056.93 1421.35,1053.41C1413.9,1049.9 1406.89,1045.42 1400.33,1039.99C1393.76,1034.55 1388.02,1028.1 1383.1,1020.65C1378.18,1013.2 1374.31,1004.67 1371.5,995.055C1368.68,985.446 1367.28,974.735 1367.28,962.922L1367.28,862.094L1403.84,862.094L1403.84,962.922C1403.84,973.235 1405.27,981.954 1408.13,989.079C1410.99,996.204 1414.62,1002.16 1419.03,1006.94C1423.43,1011.72 1428.26,1015.47 1433.51,1018.19C1438.76,1020.91 1443.76,1022.92 1448.49,1024.24C1453.22,1025.55 1457.4,1026.37 1461.01,1026.7C1464.62,1027.02 1466.98,1027.19 1468.11,1027.19L1532.37,1027.19L1532.37,862.094L1568.93,862.094L1568.93,1045.33Z" style="fill-rule:nonzero;"/>
            </g>
        </g>
        <g transform="matrix(1.34606,0,0,1.5315,-198.42,-202.839)">
            <g transform="matrix(0.742909,0,0,0.652955,96.5611,171.407)">
                <path d="M1407.34,962.922C1407.37,970.65 1408.1,978.492 1410.65,985.831C1412.84,992.117 1416.14,998.197 1420.46,1003.27C1423.75,1007.15 1427.65,1010.57 1431.96,1013.27C1434.72,1015 1437.68,1016.43 1440.66,1017.72C1449.28,1021.46 1458.7,1023.53 1468.11,1023.69L1528.87,1023.69L1528.87,858.594L1572.43,858.594L1572.43,1045.33C1572.4,1048.49 1571.83,1051.59 1570.54,1054.49C1567.07,1062.3 1559.01,1067.25 1550.51,1067.25C1523.04,1067.25 1495.58,1067.25 1468.11,1067.25C1440.45,1067.25 1412.41,1057.22 1392.54,1037.66C1389.33,1034.51 1386.37,1031.11 1383.66,1027.51C1379.59,1022.12 1376.13,1016.3 1373.34,1010.15C1369.9,1002.58 1367.38,994.583 1365.84,986.421C1364.38,978.672 1363.81,970.8 1363.78,962.922L1363.78,858.594L1407.34,858.594L1407.34,962.922ZM1400.34,865.594L1370.78,865.594L1370.78,962.922C1370.81,970.332 1371.34,977.737 1372.7,985.026C1373.97,991.814 1375.99,998.469 1378.66,1004.84C1381.21,1010.91 1384.42,1016.67 1388.29,1022C1400.08,1038.25 1417.55,1049.76 1436.64,1055.59C1446.83,1058.69 1457.47,1060.18 1468.11,1060.25L1550.9,1060.25C1556.8,1060.04 1562.28,1056.54 1564.44,1050.95C1565.13,1049.15 1565.41,1047.25 1565.43,1045.33L1565.43,865.594L1535.87,865.594L1535.87,1030.69C1513.28,1030.69 1490.7,1030.69 1468.11,1030.69C1466.5,1030.69 1464.88,1030.54 1463.27,1030.4C1458.56,1030.02 1453.97,1029.28 1449.39,1028.1C1444.41,1026.81 1439.61,1025.03 1434.96,1022.82C1432.14,1021.47 1429.38,1020.01 1426.79,1018.26C1420.25,1013.85 1414.61,1008.04 1410.42,1001.37C1407.57,996.822 1405.21,991.869 1403.58,986.753C1401.14,979.063 1400.38,970.957 1400.34,962.922L1400.34,865.594Z"/>
            </g>
        </g>
        <g transform="matrix(1.34606,0,0,1.5315,-198.42,-202.839)">
            <g transform="matrix(0.742909,0,0,0.652955,96.5611,171.407)">
                <path d="M1796.61,1063.75L1629.83,1063.75C1627.2,1063.75 1624.76,1063.28 1622.51,1062.34C1620.26,1061.41 1618.32,1060.12 1616.68,1058.48C1615.04,1056.84 1613.75,1054.89 1612.81,1052.64C1611.87,1050.39 1611.4,1047.95 1611.4,1045.33L1611.4,862.094L1647.97,862.094L1647.97,1027.19L1796.61,1027.19L1796.61,1063.75Z" style="fill-rule:nonzero;"/>
            </g>
        </g>
        <g transform="matrix(1.34606,0,0,1.5315,-198.42,-202.839)">
            <g transform="matrix(0.742909,0,0,0.652955,96.5611,171.407)">
                <path d="M1607.9,858.594L1651.47,858.594L1651.47,1023.69L1800.11,1023.69L1800.11,1067.25C1743.35,1067.25 1686.59,1067.25 1629.83,1067.25C1623.14,1067.25 1616.62,1064.33 1612.49,1059.01C1611.19,1057.34 1610.14,1055.46 1609.38,1053.49C1608.37,1050.87 1607.94,1048.12 1607.9,1045.33L1607.9,858.594ZM1644.47,865.594L1614.9,865.594L1614.9,1045.33C1614.92,1047.12 1615.17,1048.9 1615.77,1050.6C1617.28,1054.83 1620.64,1058.11 1624.91,1059.5C1626.5,1060.02 1628.15,1060.23 1629.83,1060.25L1793.11,1060.25L1793.11,1030.69L1644.47,1030.69L1644.47,865.594Z"/>
            </g>
        </g>
        <g transform="matrix(1.34606,0,0,1.5315,-198.42,-202.839)">
            <g transform="matrix(0.742909,0,0,0.652955,96.5611,171.407)">
                <path d="M2021.33,1063.75L1984.76,1063.75L1984.76,1014.25L1856.23,1014.25L1856.23,1063.75L1819.67,1063.75L1819.67,962.922C1819.67,948.204 1822.2,934.657 1827.26,922.282C1832.33,909.907 1839.36,899.266 1848.36,890.36C1857.36,881.454 1868,874.516 1880.28,869.547C1892.56,864.579 1905.97,862.094 1920.5,862.094L2002.9,862.094C2005.43,862.094 2007.83,862.563 2010.08,863.501C2012.33,864.438 2014.29,865.751 2015.98,867.438C2017.67,869.126 2018.98,871.094 2019.92,873.344C2020.86,875.594 2021.33,877.985 2021.33,880.516L2021.33,1063.75ZM1856.23,977.688L1984.76,977.688L1984.76,898.657L1920.5,898.657C1919.37,898.657 1917.01,898.821 1913.4,899.149C1909.79,899.477 1905.62,900.297 1900.88,901.61C1896.15,902.922 1891.15,904.938 1885.9,907.657C1880.65,910.376 1875.83,914.126 1871.42,918.907C1867.01,923.688 1863.38,929.665 1860.52,936.836C1857.66,944.008 1856.23,952.704 1856.23,962.922L1856.23,977.688Z" style="fill-rule:nonzero;"/>
            </g>
        </g>
        <g transform="matrix(1.34606,0,0,1.5315,-198.42,-202.839)">
            <g transform="matrix(0.742909,0,0,0.652955,96.5611,171.407)">
                <path d="M2002.9,858.594C2005.91,858.594 2008.75,859.156 2011.42,860.27C2014.1,861.387 2016.45,862.953 2018.46,864.963C2020.47,866.974 2022.03,869.318 2023.15,871.998C2024.26,874.671 2024.83,877.509 2024.83,880.516L2024.83,1067.25L1981.26,1067.25L1981.26,1017.75L1859.73,1017.75L1859.73,1067.25L1816.17,1067.25C1816.17,1067.25 1816.17,962.922 1816.17,962.922C1816.17,947.723 1818.8,933.736 1824.02,920.957C1829.27,908.129 1836.57,897.104 1845.89,887.872C1855.22,878.644 1866.24,871.451 1878.97,866.303C1891.65,861.172 1905.49,858.594 1920.5,858.594L2002.9,858.594ZM2017.83,880.516C2017.8,878.638 2017.51,876.791 2016.83,875.034C2014.61,869.308 2009.02,865.595 2002.9,865.594C1975.43,865.593 1947.97,865.592 1920.5,865.594C1910.04,865.595 1899.56,866.943 1889.54,869.984C1870.28,875.832 1852.95,887.729 1841.19,904.134C1836.16,911.148 1832.14,918.898 1829.19,927.004C1825,938.523 1823.24,950.696 1823.17,962.922L1823.17,1060.25L1852.73,1060.25L1852.73,1010.75L1988.26,1010.75L1988.26,1060.25L2017.83,1060.25L2017.83,880.516ZM1852.73,981.188L1988.26,981.188L1988.26,895.157L1920.5,895.157C1919.32,895.157 1916.85,895.321 1913.08,895.663C1909.29,896.008 1904.91,896.86 1899.94,898.237C1895,899.609 1889.78,901.708 1884.29,904.549C1878.7,907.447 1873.54,911.437 1868.85,916.535C1864.17,921.606 1860.3,927.934 1857.27,935.54C1854.27,943.07 1852.73,952.194 1852.73,962.922L1852.73,981.188ZM1981.26,902.157L1920.5,902.157C1919.42,902.157 1917.16,902.321 1913.71,902.635C1910.28,902.947 1906.32,903.735 1901.82,904.983C1897.29,906.236 1892.53,908.168 1887.51,910.765C1882.61,913.304 1878.11,916.814 1873.99,921.279C1869.85,925.77 1866.46,931.395 1863.77,938.133C1861.06,944.947 1859.73,953.214 1859.73,962.922L1859.73,974.188L1981.26,974.188L1981.26,902.157Z"/>
            </g>
        </g>
        <g transform="matrix(1.34606,0,0,1.5315,-198.42,-202.839)">
            <g transform="matrix(0.742909,0,0,0.652955,96.5611,171.407)">
                <path d="M590.607,1268.41C590.607,1275.63 589.693,1282.12 587.865,1287.88C586.037,1293.65 583.623,1298.74 580.623,1303.14C577.623,1307.55 574.107,1311.3 570.076,1314.39C566.044,1317.49 561.873,1320.02 557.56,1321.99C553.248,1323.95 548.865,1325.41 544.412,1326.34C539.959,1327.28 535.763,1327.75 531.826,1327.75L390.779,1327.75L390.779,1291.19L531.826,1291.19C538.857,1291.19 544.318,1289.13 548.209,1285C552.099,1280.88 554.044,1275.34 554.044,1268.41C554.044,1265.03 553.529,1261.94 552.498,1259.13C551.466,1256.31 549.99,1253.88 548.068,1251.81C546.146,1249.75 543.802,1248.16 541.037,1247.03C538.271,1245.91 535.201,1245.34 531.826,1245.34L447.732,1245.34C441.826,1245.34 435.451,1244.29 428.607,1242.18C421.763,1240.07 415.412,1236.67 409.552,1231.99C403.693,1227.3 398.818,1221.16 394.927,1213.56C391.037,1205.97 389.091,1196.69 389.091,1185.72C389.091,1174.75 391.037,1165.49 394.927,1157.95C398.818,1150.4 403.693,1144.26 409.552,1139.52C415.412,1134.79 421.763,1131.37 428.607,1129.26C435.451,1127.15 441.826,1126.09 447.732,1126.09L572.185,1126.09L572.185,1162.66L447.732,1162.66C440.794,1162.66 435.38,1164.77 431.49,1168.99C427.599,1173.2 425.654,1178.78 425.654,1185.72C425.654,1192.75 427.599,1198.31 431.49,1202.38C435.38,1206.46 440.794,1208.5 447.732,1208.5L532.107,1208.5C536.044,1208.59 540.216,1209.13 544.623,1210.12C549.029,1211.1 553.412,1212.63 557.771,1214.69C562.13,1216.75 566.279,1219.35 570.216,1222.49C574.154,1225.63 577.646,1229.41 580.693,1233.81C583.74,1238.22 586.154,1243.28 587.935,1249C589.716,1254.72 590.607,1261.19 590.607,1268.41Z" style="fill-rule:nonzero;"/>
            </g>
        </g>
        <g transform="matrix(1.34606,0,0,1.5315,-198.42,-202.839)">
            <g transform="matrix(0.742909,0,0,0.652955,96.5611,171.407)">
                <path d="M575.685,1122.59L575.685,1166.16C575.685,1166.16 447.732,1166.16 447.732,1166.16C441.911,1166.16 437.327,1167.82 434.063,1171.36C430.731,1174.97 429.154,1179.78 429.154,1185.72C429.154,1191.71 430.704,1196.49 434.022,1199.97C437.296,1203.4 441.894,1205 447.732,1205L531.826,1205C531.826,1205 532.107,1205 532.19,1205C536.341,1205.1 540.74,1205.66 545.386,1206.7C550.038,1207.74 554.666,1209.35 559.268,1211.52C563.867,1213.7 568.245,1216.44 572.399,1219.76C576.597,1223.11 580.323,1227.12 583.572,1231.82C586.81,1236.51 589.384,1241.88 591.277,1247.96C593.154,1253.99 594.107,1260.8 594.107,1268.41C594.107,1276.02 593.129,1282.86 591.201,1288.94C589.263,1295.05 586.696,1300.44 583.516,1305.11C580.3,1309.83 576.528,1313.85 572.207,1317.17C567.958,1320.43 563.559,1323.09 559.014,1325.17C554.461,1327.25 549.834,1328.78 545.133,1329.77C540.425,1330.76 535.989,1331.25 531.826,1331.25L387.279,1331.25L387.279,1287.69L531.826,1287.69C537.745,1287.69 542.387,1286.07 545.662,1282.6C548.982,1279.08 550.544,1274.33 550.544,1268.41C550.544,1265.47 550.109,1262.78 549.212,1260.33C548.347,1257.97 547.118,1255.93 545.507,1254.2C543.926,1252.5 541.993,1251.2 539.718,1250.27C537.349,1249.31 534.716,1248.84 531.826,1248.84L447.732,1248.84C441.508,1248.84 434.788,1247.75 427.576,1245.53C420.318,1243.29 413.58,1239.69 407.366,1234.72C401.141,1229.74 395.946,1223.23 391.812,1215.16C387.697,1207.13 385.591,1197.32 385.591,1185.72C385.591,1174.11 387.7,1164.33 391.816,1156.34C395.946,1148.33 401.134,1141.83 407.353,1136.8C413.57,1131.78 420.314,1128.15 427.576,1125.91C434.788,1123.69 441.508,1122.59 447.732,1122.59L575.685,1122.59ZM568.685,1129.59L447.732,1129.59C442.143,1129.59 436.114,1130.61 429.638,1132.6C423.213,1134.58 417.253,1137.8 411.752,1142.25C406.252,1146.69 401.69,1152.47 398.038,1159.55C394.374,1166.66 392.591,1175.39 392.591,1185.72C392.591,1196.06 394.376,1204.81 398.042,1211.97C401.69,1219.09 406.245,1224.86 411.739,1229.25C417.244,1233.66 423.208,1236.85 429.638,1238.84C436.114,1240.83 442.143,1241.84 447.732,1241.84C447.732,1241.84 531.826,1241.84 531.826,1241.84C535.685,1241.84 539.193,1242.5 542.355,1243.79C545.612,1245.11 548.366,1247 550.629,1249.43C552.862,1251.82 554.585,1254.65 555.784,1257.92C556.949,1261.1 557.544,1264.59 557.544,1268.41C557.544,1276.36 555.216,1282.67 550.755,1287.4C546.249,1292.18 539.969,1294.69 531.826,1294.69L394.279,1294.69L394.279,1324.25L531.826,1324.25C535.538,1324.25 539.492,1323.8 543.691,1322.92C547.896,1322.03 552.034,1320.66 556.107,1318.8C560.186,1316.94 564.131,1314.54 567.945,1311.62C571.686,1308.74 574.945,1305.26 577.729,1301.17C580.549,1297.03 582.81,1292.25 584.528,1286.83C586.257,1281.37 587.107,1275.23 587.107,1268.41C587.107,1261.58 586.279,1255.45 584.593,1250.04C582.924,1244.68 580.67,1239.93 577.814,1235.8C574.969,1231.69 571.711,1228.16 568.034,1225.23C564.313,1222.26 560.394,1219.8 556.274,1217.85C552.158,1215.9 548.02,1214.46 543.859,1213.53C539.692,1212.6 535.747,1212.09 532.107,1212L447.732,1212C439.694,1212 433.465,1209.52 428.957,1204.8C424.494,1200.12 422.154,1193.79 422.154,1185.72C422.154,1177.79 424.467,1171.44 428.917,1166.61C433.434,1161.71 439.677,1159.16 447.732,1159.16L568.685,1159.16L568.685,1129.59Z"/>
            </g>
        </g>
        <g transform="matrix(1.34606,0,0,1.5315,-198.42,-202.839)">
            <g transform="matrix(0.742909,0,0,0.652955,96.5611,171.407)">
                <path d="M801.123,1162.66L720.544,1162.66L720.544,1327.75L683.982,1327.75L683.982,1162.66L603.263,1162.66L603.263,1126.09L801.123,1126.09L801.123,1162.66Z" style="fill-rule:nonzero;"/>
            </g>
        </g>
        <g transform="matrix(1.34606,0,0,1.5315,-198.42,-202.839)">
            <g transform="matrix(0.742909,0,0,0.652955,96.5611,171.407)">
                <path d="M680.482,1166.16L599.763,1166.16L599.763,1122.59L804.623,1122.59L804.623,1166.16L724.044,1166.16L724.044,1331.25L680.482,1331.25L680.482,1166.16ZM606.763,1129.59L606.763,1159.16L687.482,1159.16L687.482,1324.25L717.044,1324.25L717.044,1159.16L797.623,1159.16L797.623,1129.59L606.763,1129.59Z"/>
            </g>
        </g>
        <g transform="matrix(1.34606,0,0,1.5315,-198.42,-202.839)">
            <g transform="matrix(0.742909,0,0,0.652955,96.5611,171.407)">
                <path d="M1025.56,1309.33C1025.56,1311.95 1025.09,1314.39 1024.15,1316.64C1023.22,1318.89 1021.9,1320.84 1020.22,1322.48C1018.53,1324.12 1016.56,1325.41 1014.31,1326.34C1012.06,1327.28 1009.67,1327.75 1007.14,1327.75L924.732,1327.75C916.951,1327.75 909.076,1326.91 901.107,1325.22C893.138,1323.53 885.427,1320.93 877.974,1317.41C870.521,1313.9 863.513,1309.42 856.951,1303.99C850.388,1298.55 844.646,1292.1 839.724,1284.65C834.802,1277.2 830.935,1268.66 828.123,1259.06C825.31,1249.45 823.904,1238.74 823.904,1226.92L823.904,1126.09L860.466,1126.09L860.466,1226.92C860.466,1237.24 861.896,1245.95 864.755,1253.08C867.615,1260.2 871.248,1266.16 875.654,1270.94C880.06,1275.72 884.888,1279.47 890.138,1282.19C895.388,1284.91 900.38,1286.92 905.115,1288.24C909.849,1289.55 914.021,1290.37 917.63,1290.7C921.24,1291.02 923.607,1291.19 924.732,1291.19L988.998,1291.19L988.998,1126.09L1025.56,1126.09L1025.56,1309.33Z" style="fill-rule:nonzero;"/>
            </g>
        </g>
        <g transform="matrix(1.34606,0,0,1.5315,-198.42,-202.839)">
            <g transform="matrix(0.742909,0,0,0.652955,96.5611,171.407)">
                <path d="M985.498,1287.69L985.498,1122.59L1029.06,1122.59L1029.06,1309.33C1029.06,1312.44 1028.5,1315.32 1027.38,1317.99C1026.26,1320.69 1024.68,1323.02 1022.66,1324.99C1020.65,1326.93 1018.32,1328.46 1015.66,1329.58C1012.98,1330.69 1010.14,1331.25 1007.14,1331.25L924.732,1331.25C916.712,1331.25 908.595,1330.38 900.382,1328.64C892.149,1326.9 884.182,1324.21 876.481,1320.58C868.766,1316.94 861.511,1312.31 854.718,1306.68C847.894,1301.03 841.921,1294.33 836.804,1286.58C831.699,1278.85 827.68,1270 824.764,1260.04C821.865,1250.13 820.404,1239.1 820.404,1226.92L820.404,1122.59L863.966,1122.59C863.966,1122.59 863.966,1226.92 863.966,1226.92C863.966,1236.72 865.287,1245.01 868.004,1251.78C870.69,1258.47 874.087,1264.07 878.228,1268.57C882.342,1273.03 886.845,1276.54 891.748,1279.08C896.762,1281.68 901.528,1283.61 906.05,1284.86C910.551,1286.11 914.516,1286.9 917.947,1287.21C921.396,1287.52 923.657,1287.69 924.732,1287.69L985.498,1287.69ZM856.966,1129.59L827.404,1129.59L827.404,1226.92C827.431,1234.33 827.963,1241.74 829.328,1249.03C830.599,1255.81 832.61,1262.47 835.282,1268.84C837.831,1274.91 841.049,1280.67 844.918,1286C856.7,1302.25 874.173,1313.76 893.27,1319.59C903.453,1322.69 914.096,1324.18 924.732,1324.25L1007.52,1324.25C1013.43,1324.04 1018.9,1320.54 1021.06,1314.95C1021.76,1313.15 1022.04,1311.25 1022.06,1309.33L1022.06,1129.59L992.498,1129.59L992.498,1294.69C969.909,1294.69 947.321,1294.69 924.732,1294.69C923.12,1294.69 921.503,1294.54 919.898,1294.4C915.186,1294.02 910.595,1293.28 906.015,1292.1C901.035,1290.81 896.23,1289.03 891.586,1286.82C888.762,1285.47 886.008,1284.01 883.412,1282.26C876.87,1277.85 871.236,1272.04 867.043,1265.37C864.19,1260.82 861.833,1255.87 860.207,1250.75C857.764,1243.06 857.002,1234.96 856.966,1226.92L856.966,1129.59Z"/>
            </g>
        </g>
        <g transform="matrix(1.34606,0,0,1.5315,-198.42,-202.839)">
            <g transform="matrix(0.742909,0,0,0.652955,96.5611,171.407)">
                <path d="M1269.26,1243.38C1269.26,1255.66 1267.13,1266.95 1262.87,1277.27C1258.6,1287.58 1252.72,1296.46 1245.22,1303.91C1237.72,1311.37 1228.81,1317.2 1218.5,1321.42C1208.18,1325.64 1196.98,1327.75 1184.89,1327.75L1086.17,1327.75C1083.54,1327.75 1081.11,1327.28 1078.86,1326.34C1076.61,1325.41 1074.66,1324.12 1073.02,1322.48C1071.38,1320.84 1070.09,1318.89 1069.15,1316.64C1068.22,1314.39 1067.75,1311.95 1067.75,1309.33L1067.75,1144.52C1067.75,1141.99 1068.22,1139.59 1069.15,1137.34C1070.09,1135.09 1071.38,1133.13 1073.02,1131.44C1074.66,1129.75 1076.61,1128.44 1078.86,1127.5C1081.11,1126.56 1083.54,1126.09 1086.17,1126.09L1184.89,1126.09C1196.98,1126.09 1208.18,1128.2 1218.5,1132.42C1228.81,1136.64 1237.72,1142.48 1245.22,1149.93C1252.72,1157.38 1258.6,1166.29 1262.87,1176.65C1267.13,1187.01 1269.26,1198.28 1269.26,1210.47L1269.26,1243.38ZM1232.7,1210.47C1232.7,1203.34 1231.55,1196.83 1229.26,1190.92C1226.96,1185.02 1223.7,1179.98 1219.48,1175.81C1215.26,1171.63 1210.22,1168.4 1204.37,1166.1C1198.51,1163.81 1192.01,1162.66 1184.89,1162.66L1104.31,1162.66L1104.31,1291.19L1184.89,1291.19C1192.01,1291.19 1198.51,1290.04 1204.37,1287.74C1210.22,1285.45 1215.26,1282.21 1219.48,1278.04C1223.7,1273.87 1226.96,1268.85 1229.26,1262.99C1231.55,1257.13 1232.7,1250.59 1232.7,1243.38L1232.7,1210.47Z" style="fill-rule:nonzero;"/>
            </g>
        </g>
        <g transform="matrix(1.34606,0,0,1.5315,-198.42,-202.839)">
            <g transform="matrix(0.742909,0,0,0.652955,96.5611,171.407)">
                <path d="M1184.89,1122.59C1197.46,1122.59 1209.1,1124.8 1219.82,1129.18C1230.58,1133.58 1239.86,1139.67 1247.68,1147.45C1255.51,1155.22 1261.65,1164.51 1266.1,1175.32C1270.54,1186.09 1272.76,1197.8 1272.76,1210.47L1272.76,1243.38C1272.76,1256.14 1270.53,1267.88 1266.1,1278.6C1261.65,1289.36 1255.51,1298.62 1247.68,1306.4C1239.86,1314.17 1230.58,1320.26 1219.82,1324.66C1209.1,1329.05 1197.46,1331.25 1184.89,1331.25L1086.17,1331.25C1083.06,1331.25 1080.18,1330.68 1077.51,1329.58C1074.82,1328.46 1072.51,1326.91 1070.55,1324.95C1068.59,1322.99 1067.04,1320.67 1065.92,1317.99C1064.81,1315.32 1064.25,1312.44 1064.25,1309.33C1064.25,1309.33 1064.25,1144.52 1064.25,1144.52C1064.25,1141.51 1064.81,1138.67 1065.92,1136C1067.04,1133.33 1068.57,1131 1070.51,1129C1072.48,1126.97 1074.81,1125.39 1077.51,1124.27C1080.18,1123.16 1083.06,1122.59 1086.17,1122.59L1184.89,1122.59ZM1184.89,1324.25C1196.5,1324.25 1207.27,1322.24 1217.17,1318.18C1227.04,1314.14 1235.57,1308.57 1242.75,1301.43C1249.93,1294.3 1255.55,1285.8 1259.63,1275.93C1263.73,1266.02 1265.76,1255.17 1265.76,1243.38C1265.76,1243.38 1265.76,1210.47 1265.76,1210.47C1265.76,1198.76 1263.73,1187.93 1259.63,1177.98C1255.55,1168.07 1249.92,1159.54 1242.75,1152.41C1235.57,1145.28 1227.04,1139.7 1217.17,1135.66C1207.27,1131.61 1196.5,1129.59 1184.89,1129.59L1086.17,1129.59C1084.03,1129.59 1082.04,1129.97 1080.2,1130.73C1078.4,1131.48 1076.84,1132.53 1075.53,1133.88C1074.19,1135.25 1073.15,1136.86 1072.38,1138.69C1071.62,1140.52 1071.25,1142.46 1071.25,1144.52L1071.25,1309.33C1071.25,1311.47 1071.62,1313.46 1072.38,1315.3C1073.14,1317.11 1074.17,1318.68 1075.5,1320C1076.82,1321.33 1078.39,1322.36 1080.2,1323.11C1082.04,1323.88 1084.03,1324.25 1086.17,1324.25L1184.89,1324.25ZM1184.89,1159.16C1192.48,1159.16 1199.4,1160.4 1205.64,1162.84C1211.96,1165.32 1217.39,1168.82 1221.94,1173.32C1226.5,1177.83 1230.03,1183.27 1232.52,1189.65C1234.96,1195.94 1236.2,1202.88 1236.2,1210.47C1236.2,1210.47 1236.2,1243.38 1236.2,1243.38C1236.2,1251.07 1234.96,1258.03 1232.51,1264.27C1230.03,1270.6 1226.5,1276.02 1221.94,1280.53C1217.39,1285.03 1211.96,1288.52 1205.64,1291C1199.4,1293.45 1192.48,1294.69 1184.89,1294.69L1100.81,1294.69L1100.81,1159.16L1184.89,1159.16ZM1184.89,1166.16L1107.81,1166.16L1107.81,1287.69L1184.89,1287.69C1191.55,1287.69 1197.61,1286.63 1203.09,1284.48C1208.49,1282.37 1213.13,1279.39 1217.02,1275.55C1220.9,1271.72 1223.89,1267.1 1226,1261.71C1228.14,1256.24 1229.2,1250.12 1229.2,1243.38L1229.2,1210.47C1229.2,1203.81 1228.14,1197.71 1225.99,1192.19C1223.88,1186.76 1220.9,1182.13 1217.02,1178.29C1213.13,1174.45 1208.49,1171.48 1203.09,1169.36C1197.61,1167.21 1191.55,1166.16 1184.89,1166.16Z"/>
            </g>
        </g>
        <g transform="matrix(1.34606,0,0,1.5315,-198.42,-202.839)">
            <g transform="matrix(0.742909,0,0,0.652955,96.5611,171.407)">
                <path d="M1470.92,1245.34L1355.47,1245.34L1355.47,1208.5L1470.92,1208.5L1470.92,1245.34ZM1487.37,1327.75L1355.47,1327.75C1350.4,1327.75 1344.87,1326.86 1338.87,1325.08C1332.87,1323.3 1327.32,1320.37 1322.21,1316.29C1317.1,1312.21 1312.83,1306.91 1309.41,1300.4C1305.99,1293.88 1304.28,1285.89 1304.28,1276.42L1304.28,1144.52C1304.28,1141.99 1304.75,1139.59 1305.68,1137.34C1306.62,1135.09 1307.91,1133.13 1309.55,1131.44C1311.19,1129.75 1313.14,1128.44 1315.39,1127.5C1317.64,1126.56 1320.08,1126.09 1322.7,1126.09L1487.37,1126.09L1487.37,1162.66L1340.84,1162.66L1340.84,1276.42C1340.84,1281.2 1342.11,1284.86 1344.64,1287.39C1347.17,1289.92 1350.87,1291.19 1355.75,1291.19L1487.37,1291.19L1487.37,1327.75Z" style="fill-rule:nonzero;"/>
            </g>
        </g>
        <g transform="matrix(1.34606,0,0,1.5315,-198.42,-202.839)">
            <g transform="matrix(0.742909,0,0,0.652955,96.5611,171.407)">
                <path d="M1490.87,1166.16L1344.34,1166.16L1344.34,1276.42C1344.34,1280.1 1345.16,1282.97 1347.11,1284.92C1349.07,1286.87 1351.98,1287.69 1355.75,1287.69L1490.87,1287.69L1490.87,1331.25L1355.47,1331.25C1350.1,1331.25 1344.24,1330.32 1337.88,1328.43C1331.45,1326.53 1325.5,1323.39 1320.03,1319.03C1314.56,1314.66 1309.98,1309 1306.31,1302.03C1302.66,1295.07 1300.78,1286.54 1300.78,1276.42L1300.78,1144.52C1300.78,1141.51 1301.34,1138.67 1302.45,1136C1303.57,1133.33 1305.1,1131 1307.04,1129C1309.01,1126.97 1311.34,1125.39 1314.04,1124.27C1316.71,1123.16 1319.59,1122.59 1322.7,1122.59L1490.87,1122.59L1490.87,1166.16ZM1337.34,1159.16L1483.87,1159.16L1483.87,1129.59L1322.7,1129.59C1320.53,1129.62 1318.39,1129.99 1316.4,1130.88C1311.09,1133.24 1307.78,1138.76 1307.78,1144.52C1307.78,1188.49 1307.78,1232.45 1307.78,1276.42C1307.78,1282.79 1308.56,1289.25 1310.89,1295.21C1311.9,1297.79 1313.23,1300.24 1314.71,1302.59C1316.82,1305.92 1319.32,1309.02 1322.22,1311.69C1331.15,1319.92 1343.41,1324.12 1355.47,1324.25L1483.87,1324.25L1483.87,1294.69L1355.75,1294.69C1350.81,1294.64 1345.76,1293.46 1342.16,1289.87C1341.38,1289.08 1340.69,1288.21 1340.1,1287.28C1339.32,1286.05 1338.73,1284.71 1338.3,1283.33C1337.6,1281.09 1337.36,1278.76 1337.34,1276.42L1337.34,1159.16ZM1474.42,1248.84L1474.42,1205L1351.97,1205L1351.97,1248.84L1474.42,1248.84ZM1358.97,1212L1358.97,1241.84L1467.42,1241.84L1467.42,1212L1358.97,1212Z"/>
            </g>
        </g>
        <g transform="matrix(1.34606,0,0,1.5315,-198.42,-202.839)">
            <g transform="matrix(0.742909,0,0,0.652955,96.5611,171.407)">
                <path d="M1724.18,1312.14C1724.18,1314.77 1723.69,1317.2 1722.71,1319.45C1721.72,1321.7 1720.41,1323.65 1718.77,1325.29C1717.13,1326.93 1715.18,1328.22 1712.93,1329.16C1710.68,1330.09 1708.29,1330.56 1705.76,1330.56C1703.51,1330.56 1701.24,1330.14 1698.94,1329.3C1696.65,1328.45 1694.61,1327.09 1692.83,1325.22L1559.23,1185.72L1559.23,1327.75L1522.67,1327.75L1522.67,1141.7C1522.67,1137.95 1523.72,1134.56 1525.83,1131.51C1527.94,1128.46 1530.64,1126.19 1533.92,1124.69C1537.39,1123.28 1540.95,1122.93 1544.61,1123.63C1548.26,1124.34 1551.4,1126.05 1554.03,1128.77L1687.62,1268.13L1687.62,1126.09L1724.18,1126.09L1724.18,1312.14Z" style="fill-rule:nonzero;stroke:black;stroke-width:7px;"/>
            </g>
        </g>
        <g transform="matrix(1.34606,0,0,1.5315,-198.42,-202.839)">
            <g transform="matrix(0.742909,0,0,0.652955,96.5611,171.407)">
                <path d="M1948.9,1162.66L1868.33,1162.66L1868.33,1327.75L1831.76,1327.75L1831.76,1162.66L1751.04,1162.66L1751.04,1126.09L1948.9,1126.09L1948.9,1162.66Z" style="fill-rule:nonzero;"/>
            </g>
        </g>
        <g transform="matrix(1.34606,0,0,1.5315,-198.42,-202.839)">
            <g transform="matrix(0.742909,0,0,0.652955,96.5611,171.407)">
                <path d="M1828.26,1166.16L1747.54,1166.16L1747.54,1122.59L1952.4,1122.59L1952.4,1166.16L1871.83,1166.16L1871.83,1331.25L1828.26,1331.25L1828.26,1166.16ZM1754.54,1129.59L1754.54,1159.16L1835.26,1159.16L1835.26,1324.25L1864.83,1324.25L1864.83,1159.16L1945.4,1159.16L1945.4,1129.59L1754.54,1129.59Z"/>
            </g>
        </g>
        <g id="Rectangle" transform="matrix(1.40674,0,0,0.990536,-125.136,2.29314)">
            <rect x="156.57" y="661.735" width="129.661" height="736.627" style="fill:rgb(255,85,0);"/>
        </g>
        <g transform="matrix(1.40674,0,0,0.990536,-125.136,2.29314)">
            <path d="M288.719,658.201L154.082,658.201L154.082,1401.9L288.719,1401.9L288.719,658.201ZM159.058,665.268L159.058,1394.83L283.743,1394.83L283.743,665.268L159.058,665.268Z" style="fill:rgb(255,85,0);"/>
        </g>
    </g>
</svg>
