<svg xmlns="http://www.w3.org/2000/svg" xml:space="preserve" style="fill-rule:evenodd;clip-rule:evenodd;stroke-miterlimit:2" viewBox="0 0 1930 412"><path d="M1138.63 1023.25c-8.39 23.9-19.64 46.51-33.73 67.83-14.1 21.32-30.36 41.09-48.79 59.29a409.7 409.7 0 0 1-59.895 48.89q-32.247 21.585-66.902 36.87t-70.548 23.43c-23.929 5.43-47.344 8.15-70.246 8.15H581.962c-23.195 0-44.849-2.72-64.962-8.15q-30.17-8.145-54.092-23.43-23.92-15.285-41-36.87c-11.386-14.4-19.829-30.7-25.329-48.89-5.499-18.2-7.808-37.97-6.925-59.29q1.325-31.98 13.917-67.83l33.486-95.346q18.889-53.781 56.431-98.6 37.542-44.817 85.473-77.209 47.931-32.391 102.085-50.522t106.123-18.131h206.557c22.904 0 44.404 2.716 64.524 8.148q30.165 8.15 54.09 23.428c15.95 10.186 29.61 22.477 41 36.873s19.9 30.694 25.55 48.893q8.475 27.298 7.14 59.282c-.88 21.322-5.52 43.935-13.91 67.838zm-81.9-95.346c7.34-20.915 9.91-39.929 7.7-57.041s-8-31.78-17.36-44.003q-14.04-18.335-37.47-28.113-23.429-9.779-53.08-9.372H749.963q-28.485-.407-58.933 9.168-30.449 9.574-57.737 27.706-27.288 18.13-48.927 44.003-21.638 25.872-32.8 57.652l-33.486 95.346c-7.441 21.18-10.056 40.33-7.845 57.44 2.21 17.12 8.093 31.71 17.648 43.8s22.215 21.39 37.983 27.91 33.535 9.65 53.302 9.37h206.557c22.609 0 44.305-3.46 65.088-10.39 20.784-6.92 39.781-16.5 56.993-28.72q25.818-18.33 45.332-43.8c13.012-16.98 23.042-35.51 30.102-55.61zm-22.58-77.413q3.45 8.964 2.01 19.353c-.96 6.927-3.35 13.717-7.15 20.372q-5.715 9.982-15.18 18.742c-6.3 5.84-13.55 10.797-21.735 14.872l-376.289 191.09c-6.231 3.53-12.228 5.97-17.99 7.33q-8.643 2.04-17.011 2.04c-9.396 0-17.636-2.04-24.719-6.11q-10.626-6.12-14.547-17.52c-2.305-5.98-2.976-12.43-2.011-19.36q1.447-10.38 6.935-20.37c3.658-6.65 8.569-12.9 14.73-18.74 6.162-5.84 13.335-10.8 21.519-14.87l377.17-191.089q11.836-6.112 23.782-8.149t22.026 0c6.71 1.358 12.56 3.939 17.54 7.741q7.455 5.704 10.92 14.668Z" style="fill:#f50;fill-rule:nonzero;stroke:#f50;stroke-width:18.42px" transform="matrix(.59075 0 0 .63857 785 -417.173)"/><path d="M1702.64 1267.71h-115.39l83.85-238.76h-406.94c-8.23 0-15.36-1.43-21.4-4.28-6.05-2.85-10.81-6.65-14.27-11.41-3.47-4.75-5.53-10.39-6.18-16.906-.64-6.519.32-13.446 2.9-20.78l102.6-292.132h114.51L1358.46 922.2h350.14l83.85-238.758h115.39z" style="fill:#f50;fill-rule:nonzero;stroke:#f50;stroke-width:25.15px" transform="matrix(.59075 0 0 .63857 785 -417.173)"/><path d="M552.597 1311.2h-89.27l159.977-665.372h89.27z" style="fill:#fff;fill-rule:nonzero;stroke:#fff;stroke-width:25.83px" transform="matrix(.75777 0 0 .56073 -331.844 -342.882)"/><path d="M1108.46 1039.3H838.108l30.548-121.568h269.034zm105.43-272.832H856.12L725.149 1311.2h-89.27l145.363-604.588q3.012-12.528 9.123-23.664t14.127-19.488q8.017-8.351 17.373-12.992 9.355-4.64 18.969-4.64h402.056z" style="fill:#fff;fill-rule:nonzero;stroke:#fff;stroke-width:25.83px" transform="matrix(.75777 0 0 .56073 -308.844 -342.882)"/><path d="M1654.13 1115.39c-5.73 23.82-13.11 45.24-22.14 64.27q-13.56 28.53-29.79 50.34c-10.82 14.54-22.38 26.91-34.68 37.12-12.29 10.21-24.49 18.56-36.58 25.06-12.09 6.49-23.94 11.29-35.56 14.38-11.62 3.1-22.23 4.64-31.84 4.64h-344.38l29-120.64h344.38c17.17 0 32.14-6.8 44.91-20.41s21.91-31.86 27.41-54.76c2.68-11.13 3.87-21.34 3.59-30.62-.29-9.28-1.96-17.32-5.02-24.13-3.05-6.8-7.51-12.06-13.37-15.77-5.86-3.72-12.91-5.57-21.15-5.57h-205.32q-21.63 0-44.19-10.44c-15.03-6.96-27.84-18.17-38.43-33.64-10.59-15.467-17.62-35.728-21.1-60.784-3.47-25.056-.86-55.68 7.84-91.872 8.71-36.192 20.8-66.739 36.29-91.64 15.48-24.901 32.26-45.162 50.32-60.784s36.28-26.912 54.67-33.872q27.57-10.44 49.2-10.44h303.86l-29 120.64h-303.87q-25.395 0-44.67 20.88c-12.85 13.92-22.02 32.325-27.53 55.216-5.57 23.2-5.23 41.528 1.03 54.984 6.27 13.456 17.87 20.184 34.81 20.184h206q14.31.464 29.28 5.336c9.98 3.248 19.47 8.274 28.48 15.08 9 6.805 17.07 15.389 24.19 25.752s12.66 22.813 16.6 37.35c3.94 14.54 5.82 31.24 5.63 50.11-.18 18.87-3.14 40.22-8.87 64.03Z" style="fill:#fff;fill-rule:nonzero;stroke:#fff;stroke-width:25.83px" transform="matrix(.75777 0 0 .56073 -289.844 -342.882)"/></svg>